<?xml version="1.0" encoding="UTF-8" standalone="no"?>
<!-- Created with Inkscape (http://www.inkscape.org/) -->

<svg
        xmlns:inkscape="http://www.inkscape.org/namespaces/inkscape"
        xmlns:sodipodi="http://sodipodi.sourceforge.net/DTD/sodipodi-0.dtd"
        xmlns:xlink="http://www.w3.org/1999/xlink"
        width="50mm"
        height="50mm"
        viewBox="0 0 50 50"
        version="1.1"
        id="svg5"
        inkscape:version="1.1.2 (0a00cf5339, 2022-02-04)"
        sodipodi:docname="achievement.svg"
        xmlns="http://www.w3.org/2000/svg"
>
    <sodipodi:namedview
            id="namedview7"
            pagecolor="#ffffff"
            bordercolor="#666666"
            borderopacity="1.0"
            inkscape:pageshadow="2"
            inkscape:pageopacity="0.0"
            inkscape:pagecheckerboard="0"
            inkscape:document-units="mm"
            showgrid="false"
            inkscape:zoom="1.8101934"
            inkscape:cx="467.07718"
            inkscape:cy="302.45388"
            inkscape:window-width="1846"
            inkscape:window-height="1016"
            inkscape:window-x="74"
            inkscape:window-y="1107"
            inkscape:window-maximized="1"
            inkscape:current-layer="layer1"
            inkscape:snap-global="false"/>
    <defs
            id="defs2">
        <linearGradient
                inkscape:collect="always"
                id="linearGradient1835">
            <stop
                    style="stop-color:#011014;stop-opacity:1"
                    offset="0"
                    id="stop1827"/>
            <stop
                    style="stop-color:#40404d;stop-opacity:0.87450981"
                    offset="0.49966761"
                    id="stop1829"/>
            <stop
                    style="stop-color:#24121c;stop-opacity:1"
                    offset="0.87808812"
                    id="stop1831"/>
            <stop
                    style="stop-color:#ff2a2a;stop-opacity:1"
                    offset="1"
                    id="stop1833"/>
        </linearGradient>
        <linearGradient
                inkscape:collect="always"
                id="linearGradient1182-6">
            <stop
                    style="stop-color:#011040;stop-opacity:1"
                    offset="0"
                    id="stop1178"/>
            <stop
                    style="stop-color:#404d8d;stop-opacity:0.87450981"
                    offset="0.49966761"
                    id="stop6195"/>
            <stop
                    style="stop-color:#24121c;stop-opacity:1"
                    offset="0.87808812"
                    id="stop5507"/>
            <stop
                    style="stop-color:#ff2a2a;stop-opacity:1"
                    offset="1"
                    id="stop1180"/>
        </linearGradient>
        <linearGradient
                inkscape:collect="always"
                xlink:href="#linearGradient1182-6"
                id="linearGradient5061"
                gradientUnits="userSpaceOnUse"
                gradientTransform="matrix(1.0834573,0,0,1.0834573,-0.89089444,32.674799)"
                x1="3.388495"
                y1="-26.767218"
                x2="47.077759"
                y2="16.097588"/>
        <filter
                inkscape:collect="always"
                style="color-interpolation-filters:sRGB"
                id="filter8233"
                x="-0.49863081"
                y="-0.51565494"
                width="1.9972616"
                height="2.0313099">
            <feGaussianBlur
                    inkscape:collect="always"
                    stdDeviation="7.6004881"
                    id="feGaussianBlur8235"/>
        </filter>
        <filter
                inkscape:collect="always"
                style="color-interpolation-filters:sRGB"
                id="filter8233-3"
                x="-0.49863122"
                y="-0.51565495"
                width="1.9972624"
                height="2.0313099">
            <feGaussianBlur
                    inkscape:collect="always"
                    stdDeviation="7.6004881"
                    id="feGaussianBlur8235-5"/>
        </filter>
        <linearGradient
                inkscape:collect="always"
                xlink:href="#linearGradient1835"
                id="linearGradient1344"
                gradientUnits="userSpaceOnUse"
                gradientTransform="matrix(1.0834573,0,0,1.0834573,113.84096,68.18629)"
                x1="3.388495"
                y1="-26.767218"
                x2="47.077759"
                y2="16.097588"/>
    </defs>
    <g
            inkscape:groupmode="layer"
            id="layer2"
            inkscape:label="Fondo"
            style="display:inline">
        <rect
                style="fill:url(#linearGradient5061);fill-opacity:1;stroke:none;stroke-width:4.17288;stroke-linecap:round;stroke-miterlimit:4;stroke-dasharray:none;stroke-opacity:0.87451"
                id="rect846-3"
                width="50"
                height="50"
                x="0"
                y="0"
                ry="0.27156177"/>
    </g>
    <g
            inkscape:label="Achievement"
            inkscape:groupmode="layer"
            id="layer1"
            style="display:inline">
        <path
                style="fill:#c9ae5d;fill-opacity:1;stroke-width:0.650458;filter:url(#filter8233)"
                d="m 11.669707,39.48596 c 0.04206,-0.123584 2.942634,-0.871564 6.4457,-1.662195 4.375848,-0.987614 7.752363,-2.286463 10.78869,-4.150091 2.430718,-1.49192 4.750166,-2.680502 5.154327,-2.641295 0.404159,0.03921 1.332311,1.014324 2.062556,2.166919 1.615764,2.550284 1.77195,2.429361 -8.442333,6.536281 l -7.341413,2.951803 -4.372007,-1.488369 c -2.404602,-0.818605 -4.337591,-1.589468 -4.295522,-1.713046 z m -3.7170535,-5.806656 -1.243914,-3.841203 2.214521,-6.505046 2.2145225,-6.505042 5.588976,-4.255033 c 3.073935,-2.340266 5.925446,-4.1315044 6.336699,-3.9805354 0.856173,0.314322 12.221249,8.0786014 12.421822,8.4862294 0.206385,0.419433 -1.227056,8.500083 -1.819649,10.257805 -0.941134,2.791231 -8.95849,7.076232 -16.645766,8.896407 -3.764677,0.891392 -7.0650165,1.545772 -7.3340845,1.454171 -0.269072,-0.0916 -1.048977,-1.895087 -1.733127,-4.007753 z M 36.539992,30.767193 c -0.947228,-1.652885 -0.95808,-2.889246 -0.06667,-7.597407 0.585565,-3.092802 1.195786,-5.680395 1.356046,-5.750219 0.160264,-0.06982 1.454746,-0.37934 2.876638,-0.687826 l 2.585254,-0.560882 -0.216268,3.864767 c -0.176292,3.150433 -0.630108,4.708163 -2.455289,8.427699 -1.231466,2.509604 -2.398636,4.498814 -2.593702,4.420467 -0.195052,-0.07835 -0.863774,-1.030818 -1.486013,-2.116599 z M 33.597488,13.423294 C 25.336185,7.7606736 25.509568,7.9191336 27.04813,7.4377176 c 2.44816,-0.76602 9.700751,2.122944 12.371054,4.9278374 l 2.251559,2.365042 -2.280305,0.342591 c -2.551875,0.383396 -3.021813,0.249552 -5.79295,-1.649894 z"
                id="path7197-5"
                sodipodi:nodetypes="sssssscsssscccssscssssssscssssssscss"/>
        <path
                style="fill:#c9ae5d;fill-opacity:1;stroke-width:0.632854"
                d="m 11.455101,39.145112 c 0.04024,-0.122274 2.815338,-0.86233 6.166866,-1.644585 4.186554,-0.977151 7.417004,-2.26224 10.321983,-4.106125 2.325568,-1.476114 4.544679,-2.652104 4.931356,-2.613313 0.386676,0.03879 1.274677,1.003579 1.973332,2.143963 1.545867,2.523266 1.695296,2.403624 -8.077126,6.467035 L 19.74768,42.312618 15.564801,40.840017 C 13.26422,40.030085 11.41485,39.267388 11.455099,39.145119 Z M 7.8988428,33.399973 6.7087392,29.599464 8.8274628,23.163333 10.946187,16.727206 16.29339,12.517251 c 2.940961,-2.315474 5.669118,-4.0877348 6.062581,-3.9383652 0.819136,0.310992 11.69257,7.9930162 11.884467,8.3963252 0.197457,0.41499 -1.173975,8.410033 -1.740933,10.149133 -0.900422,2.761661 -8.570955,7.001266 -15.925689,8.802158 -3.601821,0.881948 -6.7593905,1.529396 -7.0168189,1.438765 -0.2574322,-0.09063 -1.0035998,-1.87501 -1.6581543,-3.965294 z m 27.3506812,-2.88126 c -0.906252,-1.635374 -0.916634,-2.858637 -0.06379,-7.516919 0.560234,-3.060037 1.144057,-5.620217 1.297384,-5.689301 0.153332,-0.06908 1.391816,-0.375321 2.752198,-0.680539 l 2.473419,-0.55494 -0.206912,3.823823 c -0.168667,3.117057 -0.602851,4.658284 -2.349077,8.338415 -1.178194,2.483017 -2.294873,4.451153 -2.481501,4.373636 -0.186614,-0.07752 -0.826407,-1.019897 -1.421729,-2.094175 z M 32.43431,13.358557 C 24.530382,7.7559267 24.696265,7.9127079 26.16827,7.4363921 28.510525,6.6784876 35.449377,9.5368454 38.004164,12.312024 l 2.154159,2.339986 -2.181661,0.338962 C 35.535179,15.370306 35.08557,15.23788 32.43431,13.358557 Z"
                id="path7197"
                sodipodi:nodetypes="sssssscsssscccssscssssssscssssssscss"/>
        <path
                id="path10277"
                style="fill:#000000;stroke-width:0.363313"
                d="m -68.486815,6.0485267 c -2.1102,2.175543 -2.67942,3.7961443 -2.67441,7.6114293 0.004,3.068716 0.1286,3.705471 1.31086,6.692938 1.27248,3.215297 1.55044,4.80859 1.07278,6.147579 -2.73304,2.73941 -4.2564,2.938394 -8.30578,5.006088 -1.306735,0.725546 -1.231915,1.355702 -0.0034,2.230733 2.59452,2.412607 6.97085,4.198696 10.33501,4.21786 1.38681,0.008 1.87837,-0.218193 3.45368,-1.591909 1.01006,-0.880812 2.789898,-2.873238 3.955165,-4.427612 l 2.118182,-2.826136 -0.242196,1.507272 c -0.133256,0.829 -0.355954,2.143485 -0.795001,4.175909 -0.42974,2.167176 1.672117,2.774674 3.161533,3.10728 1.449821,0.107924 1.927423,0.112304 3.116378,-0.251703 0.611551,-0.108226 1.346352,-0.813185 1.677578,-1.064217 1.545915,-1.417985 0.05897,-2.211395 -2.313168,-5.287964 -0.683675,-0.886698 -1.703116,-3.269254 -1.3136,-2.731931 0.249905,0.344736 2.070836,2.380722 2.891288,2.82172 0.672392,0.361413 1.976885,0.855188 3.835439,1.149589 1.954511,-0.150653 2.565837,-0.566896 3.212845,-2.862936 0.453736,-2.989796 -1.239998,-3.034611 -2.599148,-2.020981 -1.622325,1.209901 -4.829644,-0.488477 -5.296134,-2.069557 -0.187708,-0.636208 -0.34639,-0.677232 -1.229449,-0.318674 -0.786608,0.319391 -1.235227,0.28972 -2.001871,-0.13174 -0.976144,-0.536638 -0.962727,-0.544724 1.113825,-0.658697 1.155961,-0.06344 2.251928,-0.275148 2.434948,-0.471022 0.183036,-0.195866 0.616513,-0.35621 0.963307,-0.35621 0.346793,0 0.630118,-0.169568 0.630118,-0.376818 0,-0.227153 -1.45282,-0.376818 -3.657555,-0.376818 -2.060416,0 -3.751789,-0.164538 -3.873751,-0.376818 -0.138817,-0.241615 1.040638,-0.376818 3.286736,-0.376818 1.957422,0 3.59816,-0.166253 3.71913,-0.376819 0.119023,-0.20725 0.477825,-0.402576 0.851787,-0.402576 0.373945,0 0.724533,-0.228594 0.724533,-0.539468 0,-0.475394 -0.776288,-0.565228 -4.883582,-0.565228 -2.877761,0 -5.095119,0.341414 -5.099776,-0.376818 -0.0042,-0.647902 1.270919,-0.717574 4.068053,-0.717574 2.169457,0 4.55023,-0.07548 4.640701,-0.437904 0.193396,-0.311448 0.512395,-0.409537 0.732742,-0.401839 0.73439,0.02803 0.829985,-0.119199 0.827159,-0.47912 -0.004,-0.498832 -2.758245,-0.307616 -5.534907,-0.191352 -2.776664,0.116255 -5.77276,0.504112 -5.609482,-0.409937 0.109966,-0.615605 1.845706,-0.306918 4.834321,-0.376818 1.589133,-0.03717 4.756796,0.09186 4.799428,-0.512235 0.01746,-0.247407 0.16028,-0.528039 0.935937,-0.554926 0.478361,-0.01657 0.910757,-0.300651 0.913367,-0.534316 0.0062,-0.558773 -0.102196,-0.270925 -6.66652,-0.277463 -3.297612,-0.0032 -5.228696,0.162463 -5.166826,-0.392271 0.06846,-0.61386 1.684813,-0.636053 5.048465,-0.568169 2.267411,0.04576 4.992012,0.100501 4.992363,-0.303961 2.87e-4,-0.335036 0.51222,-0.238306 0.795684,-0.25023 0.476448,-0.02004 0.769751,0.03347 0.717691,-0.417296 -0.05811,-0.503154 -2.586292,-0.334131 -5.75384,-0.334131 -3.461581,0 -5.965565,0.177346 -5.97551,-0.376818 -0.01079,-0.601227 1.631211,-0.376819 5.058725,-0.376819 3.283194,0 5.274927,-0.142291 5.274927,-0.376818 0,-0.20725 0.236447,-0.376818 0.525441,-0.376818 0.288987,0 0.525439,-0.254352 0.525439,-0.565226 0,-0.478873 -0.856268,-0.565227 -5.604693,-0.565227 -3.502929,0 -5.712691,0.5358 -5.604692,-0.3768179 0.08811,-0.744551 1.80985,-0.3768195 4.728959,-0.3768195 2.919109,0 4.728959,-0.144212 4.728959,-0.3768176 0,-0.20725 0.249809,-0.3768176 0.554858,-0.3768176 0.305036,0 0.489139,-0.2119611 0.409132,-0.4710237 -0.104724,-0.339143 -1.486218,-0.5007769 -4.933528,-0.5762672 -2.898368,-0.063469 -4.85062,0.1863858 -4.7617,-0.4660021 0.09042,-0.6633961 0.999613,-0.3707979 3.827132,-0.3707979 2.33529,0 3.853227,-0.1484435 3.853227,-0.3768176 0,-0.20725 0.268391,-0.3768186 0.595908,-0.3768186 0.430426,0 0.489241,-0.1140069 0.212774,-0.4114097 -0.210374,-0.2262975 -2.278808,-0.2598331 -4.081754,-0.4000416 -1.628283,-0.1266256 -3.335456,0.1765431 -3.257217,-0.1780255 0.182233,-0.8258563 0.797249,-0.8766324 1.431196,-0.9505478 0.873134,-0.0943 1.326921,0.077635 1.331732,-0.3251582 -3.561591,-2.2029376 -10.435682,-0.1403762 -12.989932,2.3785232 z m 8.21,-1.0318351 c -2.5496,5.0765124 -1.611717,14.2075154 1.124767,18.6502864 -4.162007,-1.999845 -4.808967,-14.9752284 -1.124767,-18.6502864 z"
                sodipodi:nodetypes="cccccccscccccccsssccssssscssssscssssscccsssscccsssssssssssssssscssssssssccccccc"/>
        <path
                style="fill:#ffffff;stroke:#ffffff;stroke-width:0.865;stroke-linecap:round;stroke-linejoin:miter;stroke-miterlimit:4;stroke-dasharray:none;stroke-opacity:1"
                d="m -59.113324,7.0946195 c -1.932353,0.2602747 -12.6814,4.6934525 -13.365437,5.9283215"
                id="path18900"
                sodipodi:nodetypes="cc"/>
        <path
                style="display:inline;fill:#ffffff;stroke:#ffffff;stroke-width:0.865;stroke-linecap:round;stroke-linejoin:miter;stroke-miterlimit:4;stroke-dasharray:none;stroke-opacity:1"
                d="m -58.520211,19.81485 c -2.189505,0.286142 -12.827901,-0.431441 -13.953948,-1.599703"
                id="path18900-3"
                sodipodi:nodetypes="cc"/>
        <path
                id="path20480-6"
                style="display:inline;fill:#808000;fill-opacity:1;stroke:none;stroke-width:0.680048;stroke-linecap:round;stroke-miterlimit:4;stroke-dasharray:none;stroke-opacity:0.87451"
                d="m 5.7572998,-96.56692 a 13.203376,13.203376 0 0 0 -10.4541398,5.14904 13.203376,13.203376 0 0 0 -10.342523,-4.997111 13.203376,13.203376 0 0 0 -13.203327,13.203327 13.203376,13.203376 0 0 0 13.203327,13.20333 13.203376,13.203376 0 0 0 10.4546587,-5.14904 13.203376,13.203376 0 0 0 10.3420041,4.997111 A 13.203376,13.203376 0 0 0 18.96063,-83.363593 13.203376,13.203376 0 0 0 5.7572998,-96.56692 Z"/>
        <path
                id="path10277-9"
                style="display:inline;fill:#000000;stroke-width:0.269139"
                d="m -12.70989,-90.935848 c -2.722177,0.0073 -4.812025,1.016135 -6.201583,2.38646 h -3.82e-4 c -1.318274,1.359096 -1.824405,2.425902 -1.948522,4.421882 1.5928,-0.90779 4.686843,-2.231648 6.825186,-3.012361 0.29051,-0.902397 0.690931,-1.660728 1.205481,-2.174 -0.300649,0.598621 -0.535733,1.273579 -0.710503,1.998287 0.565491,-0.197237 1.039154,-0.345094 1.354395,-0.416501 -0.0043,-0.02116 -0.0053,-0.04406 -0.0019,-0.06852 0.06698,-0.491436 0.740521,-0.274477 2.8351185,-0.274477 1.7299589,0 2.8546419,-0.109896 2.8546419,-0.27907 0,-0.153529 0.1987631,-0.279455 0.4413843,-0.279455 0.3188552,0 0.3625231,-0.08441 0.1577193,-0.304719 -0.155843,-0.167639 -1.3766313,-0.389967 -2.7122353,-0.49383 -2.4124317,-0.187606 -2.4233707,-0.191767 -1.6644737,-0.638534 l 0.7644786,-0.449806 c -1.1467386,-0.289791 -2.2141746,-0.417969 -3.1987916,-0.415353 z m 0.540916,3.25047 -1.431724,0.635089 c -0.57291,2.633084 -0.38164,5.864625 0.343767,8.50076 l 1.448567,0.16576 c 0.100341,-0.407087 1.051379,-0.452869 3.0043225,-0.452869 1.6071115,0 3.3706472,-0.05614 3.4376672,-0.324626 0.1432658,-0.230718 0.3795991,-0.303148 0.5428299,-0.297446 0.5440285,0.02076 0.6149782,-0.08824 0.6128847,-0.35487 -0.00296,-0.369529 -2.0433949,-0.22815 -4.1003177,-0.142023 -2.0569246,0.08612 -4.2763976,0.373547 -4.1554426,-0.30357 0.08146,-0.456035 1.367287,-0.227291 3.5812221,-0.279072 1.1772133,-0.02754 3.5239924,0.06814 3.5555737,-0.379369 0.012934,-0.183276 0.1186769,-0.391223 0.6932757,-0.411142 0.354365,-0.01228 0.6744982,-0.222731 0.6764318,-0.395829 0.00459,-0.413932 -0.075513,-0.200727 -4.938297,-0.20557 -2.4428373,-0.0024 -3.8735863,0.120385 -3.8277543,-0.290557 0.05071,-0.454741 1.248331,-0.471382 3.7400901,-0.421093 1.6796747,0.0339 3.6977204,0.07452 3.6979804,-0.225096 2.126e-4,-0.248191 0.379546,-0.17645 0.5895332,-0.185281 0.3529477,-0.01485 0.5702938,0.02461 0.5317281,-0.309315 -0.043047,-0.37273 -1.9157607,-0.247298 -4.2622478,-0.247298 -2.564304,0 -4.419491,0.131448 -4.426858,-0.279071 -0.008,-0.445382 1.208679,-0.279454 3.7477464,-0.279454 2.4321565,0 3.9073797,-0.105336 3.9073797,-0.279069 0,-0.15353 0.1752377,-0.279072 0.3893215,-0.279072 0.2140786,0 0.3893215,-0.188507 0.3893215,-0.418798 0,-0.354746 -0.6344129,-0.418799 -4.1519975,-0.418799 -2.5949336,0 -4.2320016,0.396988 -4.1519976,-0.279071 0.06527,-0.551556 1.340682,-0.279072 3.5031282,-0.279072 2.1624462,0 3.5031285,-0.106757 3.5031285,-0.279072 0,-0.153525 0.1851647,-0.279069 0.4111419,-0.279069 0.2259675,0 0.3624568,-0.157216 0.3031885,-0.349126 -0.077578,-0.251234 -1.1009907,-0.370916 -3.6547226,-0.426839 -1.9530855,-0.04277 -3.3262595,0.106366 -3.5088705,-0.230071 z m -1.964983,0.871668 -6.742115,2.99054 c -0.0119,0.284959 -0.01727,0.587433 -0.01685,0.912245 0.0022,1.688722 0.05406,2.38374 0.43947,3.536434 l 6.395669,0.733087 c -0.711629,-2.44772 -0.760572,-5.752789 -0.07618,-8.172306 z m -6.187802,7.815524 c 0.110935,0.306181 0.242384,0.646696 0.400041,1.045082 0.94264,2.381858 1.148567,3.562425 0.794722,4.554335 -2.024609,2.029326 -3.153226,2.176589 -6.152965,3.708316 -0.968016,0.537477 -0.912368,1.004393 -0.0023,1.652607 1.921994,1.787235 5.163757,3.11033 7.655892,3.124526 1.027335,0.0059 1.39137,-0.161814 2.558344,-1.179449 0.748242,-0.652496 2.066839,-2.128485 2.930057,-3.279949 l 1.569153,-2.093609 -0.17954,1.116669 c -0.09871,0.614115 -0.263526,1.587919 -0.588767,3.093517 -0.318347,1.605422 1.23871,2.055468 2.3420543,2.301859 1.0740124,0.07995 1.4276009,0.08322 2.3083666,-0.18643 0.4530308,-0.08017 0.9976273,-0.602251 1.2429962,-0.788212 1.145198,-1.050431 0.043398,-1.638242 -1.713857,-3.917334 -0.5064595,-0.656857 -1.261662,-2.421979 -0.9731125,-2.023935 0.1851271,0.255377 1.5340603,1.763476 2.1418428,2.090162 0.498101,0.267731 1.4644456,0.633672 2.8412433,0.85176 1.4478818,-0.111601 1.9010392,-0.419904 2.38033543,-2.120788 0.336123,-2.214811 -0.91870823,-2.24807 -1.92555263,-1.497184 -1.2018018,0.896281 -3.5778868,-0.361921 -3.9234579,-1.53317 -0.1390521,-0.471295 -0.2565527,-0.501428 -0.9107138,-0.235812 -0.5827111,0.236602 -0.9150983,0.214595 -1.4830203,-0.09762 -0.7231174,-0.397536 -0.7129421,-0.403657 0.8253463,-0.488086 0.8563241,-0.047 1.668239,-0.203644 1.8038183,-0.348744 0.1355912,-0.145096 0.4566633,-0.264143 0.7135648,-0.264143 0.2569007,0 0.4666499,-0.125542 0.4666499,-0.279069 0,-0.168275 -1.0763104,-0.279072 -2.7095555,-0.279072 -1.5263351,0 -2.7792233,-0.121816 -2.8695713,-0.279071 -0.102835,-0.178986 0.770809,-0.279454 2.4346949,-0.279454 1.4500381,0 2.665497,-0.123087 2.7551104,-0.279072 0.088171,-0.153529 0.3542325,-0.298211 0.6312598,-0.298211 0.2770146,0 0.5367048,-0.169366 0.5367048,-0.399659 0,-0.352166 -0.5753312,-0.418414 -3.6179725,-0.418414 -2.1318154,0 -3.7741554,0.252604 -3.7776054,-0.279454 -4.9e-5,-0.0075 -3.2e-5,-0.01491 3.83e-4,-0.0222 -0.333778,0.02149 -0.826992,0.02013 -1.373919,0.0096 0.313261,1.0763 0.716752,2.044747 1.194379,2.820188 -0.866093,-0.416157 -1.526706,-1.474042 -1.968429,-2.840476 -2.015154,-0.07987 -4.671064,-0.315119 -6.356622,-0.659972 z"/>
        <path
                style="color:#000000;display:inline;fill:#000000;-inkscape-stroke:none"
                d="m 122.50786,-128.34622 -43.441408,0.006 v 0.36523 l 43.441408,-0.006 z"
                id="path22530-9-6"/>
        <path
                id="rect21319"
                style="fill:#000000;stroke-width:3.26929;stroke-linecap:round;stroke-opacity:0.87451"
                d="M 257.29883 -486.82031 C 255.52039 -486.77571 254.10156 -485.32871 254.10156 -483.53906 L 254.10156 -475.80859 L 260.89258 -475.80859 L 260.89258 -483.53906 C 260.89258 -485.35713 259.42731 -486.82031 257.60938 -486.82031 L 257.38477 -486.82031 C 257.35642 -486.82031 257.32706 -486.82103 257.29883 -486.82031 z M 260.80469 -474.43359 L 258.17969 -474.43164 L 258.18164 -450.5293 L 261.1875 -450.5293 L 260.80469 -474.43359 z M 254.18945 -474.43164 L 253.80664 -450.52734 L 256.80273 -450.5293 L 256.80078 -474.43164 L 254.18945 -474.43164 z M 256.80273 -449.14844 L 253.7832 -449.14648 L 253.7793 -448.91406 L 256.80273 -448.91406 L 256.80273 -449.14844 z M 258.18164 -449.14844 L 258.18164 -448.91406 L 261.21484 -448.91406 L 261.21094 -449.14844 L 258.18164 -449.14844 z M 256.80273 -447.53516 L 253.75781 -447.5332 L 253.75391 -447.24219 L 256.80273 -447.24219 L 256.80273 -447.53516 z M 258.18164 -447.53516 L 258.18164 -447.24219 L 261.24023 -447.24219 L 261.23633 -447.53516 L 258.18164 -447.53516 z M 253.73047 -445.86133 L 251.8125 -326.16406 L 254.08008 -315.76953 L 256.81445 -315.76953 L 256.80273 -445.86133 L 253.73047 -445.86133 z M 258.18164 -445.86133 L 258.19531 -315.76953 L 260.91406 -315.77148 L 263.18164 -326.16406 L 261.26367 -445.86133 L 258.18164 -445.86133 z M 265.29492 -314.39062 L 249.67578 -314.38867 C 248.97973 -314.36465 248.42578 -313.79978 248.42578 -313.09766 C 248.42578 -312.49063 248.8406 -311.98738 249.40234 -311.8457 L 265.59766 -311.84766 C 266.15634 -311.99142 266.56836 -312.4928 266.56836 -313.09766 C 266.56836 -313.8078 266.00218 -314.37896 265.29492 -314.39062 z M 252.85938 -310.4668 L 252.85938 -257.05469 C 252.85937 -254.69137 254.76168 -252.78906 257.125 -252.78906 C 259.48832 -252.78906 261.39062 -254.69137 261.39062 -257.05469 L 261.39062 -310.4668 L 252.85938 -310.4668 z "
                transform="scale(0.26458333)"/>
        <rect
                style="display:inline;fill:url(#linearGradient1344);fill-opacity:1;stroke:none;stroke-width:4.17288;stroke-linecap:round;stroke-miterlimit:4;stroke-dasharray:none;stroke-opacity:0.87451"
                id="rect846-3-6"
                width="50"
                height="50"
                x="114.73185"
                y="35.51149"
                ry="0.27156177"/>
        <path
                style="display:inline;fill:#c9ae5d;fill-opacity:1;stroke-width:0.650458;filter:url(#filter8233-3)"
                d="m 126.40156,74.997451 c 0.0421,-0.123584 2.94263,-0.871564 6.4457,-1.662195 4.37584,-0.987614 7.75236,-2.286463 10.78869,-4.150091 2.43071,-1.49192 4.75016,-2.680502 5.15432,-2.641295 0.40416,0.03921 1.33231,1.014324 2.06256,2.166919 1.61576,2.550284 1.77195,2.429361 -8.44233,6.536281 l -7.34142,2.951803 -4.372,-1.488369 c -2.40461,-0.818605 -4.33759,-1.589468 -4.29552,-1.713046 z m -3.71706,-5.806656 -1.24391,-3.841203 2.21452,-6.505046 2.21452,-6.505042 5.58898,-4.255033 c 3.07393,-2.340266 5.92544,-4.131504 6.3367,-3.980535 0.85617,0.314322 12.22125,8.078601 12.42182,8.486229 0.20638,0.419433 -1.22706,8.500083 -1.81965,10.257805 -0.94113,2.791231 -8.95849,7.076232 -16.64577,8.896407 -3.76467,0.891392 -7.06501,1.545772 -7.33408,1.454171 -0.26907,-0.0916 -1.04898,-1.895087 -1.73313,-4.007753 z m 28.58734,-2.912111 c -0.94723,-1.652885 -0.95808,-2.889246 -0.0667,-7.597407 0.58557,-3.092802 1.19579,-5.680395 1.35605,-5.750219 0.16026,-0.06982 1.45474,-0.37934 2.87664,-0.687826 l 2.58525,-0.560882 -0.21627,3.864767 c -0.17629,3.150433 -0.63011,4.708163 -2.45529,8.427699 -1.23146,2.509604 -2.39863,4.498814 -2.5937,4.420467 -0.19505,-0.07835 -0.86377,-1.030818 -1.48601,-2.116599 z m -2.9425,-17.343899 c -8.26131,-5.66262 -8.08792,-5.50416 -6.54936,-5.985576 2.44816,-0.76602 9.70075,2.122944 12.37105,4.927837 l 2.25156,2.365042 -2.2803,0.342591 c -2.55188,0.383396 -3.02182,0.249552 -5.79295,-1.649894 z"
                id="path7197-5-2"
                sodipodi:nodetypes="sssssscsssscccssscssssssscssssssscss"/>
        <path
                style="display:inline;fill:#c9ae5d;fill-opacity:1;stroke-width:0.632854"
                d="m 126.18695,74.656603 c 0.0402,-0.122274 2.81534,-0.86233 6.16687,-1.644585 4.18655,-0.977151 7.417,-2.26224 10.32198,-4.106125 2.32557,-1.476114 4.54468,-2.652104 4.93136,-2.613313 0.38667,0.03879 1.27467,1.003579 1.97333,2.143963 1.54586,2.523266 1.69529,2.403624 -8.07713,6.467035 l -7.02383,2.920531 -4.18288,-1.472601 c -2.30058,-0.809932 -4.14995,-1.572629 -4.1097,-1.694898 z m -3.55626,-5.745139 -1.1901,-3.800509 2.11872,-6.436131 2.11873,-6.436127 5.3472,-4.209955 c 2.94096,-2.315474 5.66912,-4.087735 6.06258,-3.938365 0.81914,0.310992 11.69257,7.993016 11.88447,8.396325 0.19745,0.41499 -1.17398,8.410033 -1.74094,10.149133 -0.90042,2.761661 -8.57095,7.001266 -15.92568,8.802158 -3.60182,0.881948 -6.75939,1.529396 -7.01682,1.438765 -0.25744,-0.09063 -1.0036,-1.87501 -1.65816,-3.965294 z m 27.35068,-2.88126 c -0.90625,-1.635374 -0.91663,-2.858637 -0.0638,-7.516919 0.56024,-3.060037 1.14406,-5.620217 1.29739,-5.689301 0.15333,-0.06908 1.39181,-0.375321 2.7522,-0.680539 l 2.47341,-0.55494 -0.20691,3.823823 c -0.16866,3.117057 -0.60285,4.658284 -2.34907,8.338415 -1.1782,2.483017 -2.29488,4.451153 -2.48151,4.373636 -0.18661,-0.07752 -0.8264,-1.019897 -1.42172,-2.094175 z m -2.81521,-17.160156 c -7.90393,-5.60263 -7.73805,-5.445849 -6.26604,-5.922165 2.34225,-0.757904 9.28111,2.100453 11.83589,4.875632 l 2.15416,2.339986 -2.18166,0.338962 c -2.44148,0.379334 -2.89109,0.246908 -5.54235,-1.632415 z"
                id="path7197-9"
                sodipodi:nodetypes="sssssscsssscccssscssssssscssssssscss"/>
    </g>
</svg>
