<?xml version="1.0" encoding="UTF-8" standalone="no"?>
<!***REMOVED***Created with Inkscape (http://www.inkscape.org/) -->

<svg
  width="150"
  height="150"
  viewBox="0 0 39.6875 39.6875"
  version="1.1"
  id="svg1168"
  xmlns="http://www.w3.org/2000/svg"
>
  <defs
    id="defs1165"/>
  <g
    id="layer1"/>
  <path
    id="path834"
    style="stroke-width:0.0615012"
    d="M 140.02734 6.5957031 C 138.67792 6.6147411 137.38232 7.3210721 136.61719 8.6113281 L 108.94922 55.269531 L 116.11914 60.152344 L 143.78516 13.494141 C 145.00942 11.429762 144.39606 8.6808243 142.41016 7.328125 C 141.66543 6.8208853 140.837 6.5842804 140.02734 6.5957031 z M 33.824219 25.363281 C 25.004384 25.497133 14.24656 34.464186 11.341797 41.181641 L 11.339844 41.181641 C 8.8151209 47.395566 8.9927926 51.192135 12.167969 59.015625 C 14.721763 65.308232 15.506383 66.51165 20.410156 71.660156 C 21.098686 72.383029 21.725847 73.061606 22.302734 73.705078 L 81.162109 73.705078 C 81.411483 72.613898 81.397743 71.227045 81.189453 69.332031 C 79.640221 62.821621 76.127342 64.134705 74.179688 67.341797 C 71.854877 71.169865 63.866284 70.345139 61.597656 67.488281 C 60.684791 66.338708 60.324849 66.387345 58.810547 67.855469 C 57.461656 69.16328 56.518205 69.474827 54.595703 69.246094 C 52.147847 68.954843 52.168163 68.925147 56.333984 66.96875 C 58.653019 65.87977 60.726443 64.538053 60.939453 63.984375 C 61.152505 63.430686 61.907648 62.740796 62.619141 62.453125 C 63.330656 62.165427 63.771529 61.583408 63.599609 61.158203 C 63.411162 60.692146 60.306553 61.589074 55.783203 63.417969 C 51.555798 65.127166 47.949753 66.193727 47.523438 65.859375 C 47.03821 65.478829 49.344917 64.222584 53.953125 62.359375 C 57.969073 60.735637 61.197969 59.034318 61.271484 58.501953 C 61.343749 57.97802 61.91831 57.278959 62.685547 56.96875 C 63.452742 56.658564 63.98053 55.899514 63.722656 55.261719 C 63.328304 54.286385 61.661104 54.745224 53.234375 58.152344 C 47.330209 60.539535 43.066293 63.07909 42.460938 61.609375 C 41.914871 60.283596 44.47219 59.083981 50.210938 56.763672 C 54.661906 54.964046 59.484148 52.834191 59.369141 52.015625 C 59.507547 51.216217 60.080594 50.749022 60.539062 50.582031 C 62.069004 50.030281 62.142241 49.650156 61.837891 48.914062 C 61.41588 47.893934 55.924522 50.571432 50.324219 53.113281 C 44.723911 55.655131 38.897848 58.934582 38.474609 56.923828 C 38.189557 55.569589 42.006464 54.765132 48.080078 52.142578 C 51.309567 50.748019 57.917587 48.384202 57.503906 47.109375 C 57.334546 46.58726 57.393782 45.891963 58.962891 45.193359 C 59.930544 44.762489 60.581059 43.82142 60.392578 43.339844 C 59.941371 42.188464 59.959467 42.868893 46.486328 48.300781 C 39.718287 51.030095 35.893776 52.972639 35.560547 51.783203 C 35.191778 50.466986 38.487962 49.078718 45.445312 46.427734 C 50.135245 44.640815 55.772294 42.49416 55.4375 41.664062 C 55.160158 40.976434 56.289637 40.749839 56.861328 40.490234 C 57.822247 40.053975 58.469041 39.920762 57.988281 39.039062 C 57.451702 38.054968 52.404955 40.49938 45.90625 43.126953 C 38.804291 45.998438 33.81409 48.439257 33.333984 47.310547 C 32.81312 46.086003 36.366375 45.185022 43.398438 42.341797 C 50.134414 39.618296 54.102747 37.672563 53.908203 37.191406 C 53.736272 36.766202 54.082857 36.22215 54.675781 35.982422 C 55.268687 35.742686 55.541088 35.024536 55.283203 34.386719 C 54.885967 33.404244 53.058516 33.937998 43.316406 37.876953 C 36.129617 40.782737 32.039378 43.715874 31.503906 41.753906 C 31.067051 40.153261 34.905535 39.478126 40.894531 37.056641 C 46.883525 34.635151 50.476159 32.838563 50.283203 32.361328 C 50.111272 31.936123 50.483519 31.380002 51.109375 31.126953 C 51.735212 30.873914 51.937646 30.287395 51.558594 29.822266 C 51.062417 29.213335 48.094286 30.027655 40.958984 32.732422 C 34.95987 35.006425 31.161478 37.138798 30.802734 35.726562 C 30.437934 34.290491 32.544621 34.136527 38.345703 31.791016 C 43.136904 29.853823 46.128902 28.290821 45.939453 27.822266 C 45.767522 27.397061 46.177647 26.824418 46.849609 26.552734 C 47.732696 26.195682 47.7592 25.914028 46.945312 25.533203 C 46.325976 25.243427 42.053601 26.8897 38.238281 28.097656 C 34.792559 29.188566 31.541808 31.227903 31.408203 30.435547 C 31.097006 28.590002 32.317315 27.976364 33.556641 27.298828 C 35.269783 26.381066 36.341805 26.355704 36.017578 25.525391 C 35.303939 25.403109 34.571662 25.351939 33.824219 25.363281 z M 27.330078 32.253906 C 26.3103 44.784103 35.807699 62.740915 45.107422 69.585938 C 34.909498 68.935451 22.819953 42.850001 27.330078 32.253906 z M 104.28516 53.994141 C 103.87058 53.993832 103.47131 54.207241 103.23633 54.603516 C 102.86839 55.223789 103.04858 56.045923 103.63672 56.460938 L 116.76172 65.400391 C 117.35895 65.778003 118.11674 65.601483 118.48047 64.988281 C 118.79496 64.458066 118.70726 63.781244 118.30859 63.335938 L 104.69922 54.066406 C 104.56323 54.017856 104.42335 53.994251 104.28516 53.994141 z M 106.60156 60.175781 L 99.314453 67.955078 L 96.238281 73.337891 L 102.00781 73.337891 L 108.88867 61.730469 L 106.60156 60.175781 z M 110.04883 62.519531 L 103.63477 73.337891 L 109.24414 73.337891 L 112.3457 64.085938 L 110.04883 62.519531 z M 20.941406 76.398438 L 20.738281 76.628906 C 20.071899 77.386085 11.857476 87.305007 11.878906 87.326172 C 11.893295 87.340421 13.825754 87.379164 16.171875 87.410156 C 18.517976 87.441111 22.442181 87.493328 24.894531 87.527344 C 27.346905 87.561322 30.709732 87.607363 32.367188 87.628906 C 34.024639 87.650676 36.792467 87.688702 38.517578 87.712891 C 40.242668 87.736777 42.056304 87.760712 42.546875 87.765625 L 43.4375 87.777344 L 45.005859 85.792969 C 49.266426 80.400006 50.157685 79.272179 51.228516 77.921875 C 51.865306 77.11888 52.386719 76.446695 52.386719 76.429688 C 52.386719 76.411546 45.311346 76.398438 36.664062 76.398438 L 20.941406 76.398438 z M 58.207031 76.398438 L 58.332031 76.537109 C 58.440375 76.657552 60.879856 79.545063 65.476562 84.994141 L 66.785156 86.546875 L 102.23633 86.546875 C 121.73455 86.546875 137.68945 86.531058 137.68945 86.513672 C 137.68945 86.496233 137.52655 86.281834 137.32812 86.037109 C 137.12975 85.792396 136.15714 84.569905 135.16602 83.318359 C 134.17491 82.066814 132.98684 80.56851 132.52734 79.990234 C 132.06784 79.411974 131.24009 78.366637 130.6875 77.667969 L 129.68359 76.398438 L 93.945312 76.398438 L 58.207031 76.398438 z M 56.554688 78.46875 C 56.454152 78.342684 56.448675 79.928031 56.447266 108.85547 L 56.445312 139.375 L 92.730469 139.375 L 129.01562 139.375 L 129.00195 114.45117 L 128.98633 89.529297 L 97.431641 89.513672 L 65.875 89.498047 L 61.267578 84.050781 C 58.733583 81.054292 56.613157 78.541959 56.554688 78.46875 z M 54.025391 78.552734 C 53.979643 78.602261 53.170227 79.62206 52.226562 80.818359 C 51.282898 82.014659 49.140002 84.727078 47.464844 86.845703 L 44.419922 90.697266 L 43.005859 90.703125 C 42.228664 90.705846 40.194523 90.685479 38.486328 90.660156 C 36.778138 90.63506 33.015146 90.58549 30.123047 90.548828 C 27.230964 90.512091 24.137916 90.467738 23.25 90.449219 L 21.636719 90.416016 L 21.636719 114.89648 L 21.636719 139.375 L 37.871094 139.375 L 54.107422 139.375 L 54.107422 108.91992 C 54.107422 83.323344 54.095236 78.47703 54.025391 78.552734 z "
    transform="scale(0.26458333)"/>
</svg>
