<?xml version="1.0" encoding="UTF-8" standalone="no"?>
<!***REMOVED***Created with Inkscape (http://www.inkscape.org/) -->

<svg
  width="150"
  height="150"
  viewBox="0 0 39.6875 39.6875"
  version="1.1"
  id="svg1168"
  xmlns="http://www.w3.org/2000/svg"
>
  <defs
    id="defs1165"/>
  <g
    id="layer1">
    <path
      id="path872-1"
      style="stroke-width:0.406726"
      d="M 132.07812 6.9824219 C 132.02037 7.0041072 131.97693 7.135404 131.9375 7.359375 C 131.56675 9.4663974 131.17791 10.060206 128.54492 12.550781 C 125.1159 15.794344 124.07222 17.529508 123.6875 20.623047 C 123.44949 22.536769 123.52806 23.310751 124.10547 24.78125 L 124.81445 26.587891 L 125.39453 24.412109 C 126.20434 21.382006 126.94716 20.243254 129.91992 17.460938 C 133.59718 14.019221 134.07372 12.542738 132.78516 8.5839844 C 132.40399 7.4129492 132.20519 6.9347141 132.07812 6.9824219 z M 121.58594 19.945312 L 121.20117 22.023438 C 120.58487 25.352616 120.77376 29.032373 121.67578 31.298828 C 122.76487 34.035321 123.91504 35.444056 127.07617 37.914062 C 130.35772 40.478166 131.97387 42.505591 132.37891 44.560547 C 132.80689 46.731919 132.23952 48.155843 129.67188 51.361328 C 126.97766 54.724802 126.44251 55.827109 126.33789 58.212891 L 126.25586 60.107422 L 126.78711 58.833984 C 127.71906 56.600378 128.93068 55.180293 132.16797 52.535156 C 136.07032 49.346569 137.12744 47.648257 136.98242 44.794922 C 136.804 41.283907 135.39511 39.324676 129.70703 34.677734 C 124.12408 30.116685 122.51348 27.606611 121.89648 22.505859 L 121.58594 19.945312 z M 119.82227 31.720703 L 119.72656 33.255859 C 119.54022 36.242058 120.12202 37.086346 125.36719 41.439453 C 128.29887 43.87252 128.88096 45.134002 128.55078 48.333984 L 128.29492 50.8125 L 129.22461 49.087891 C 130.987 45.819733 130.14649 43.265962 126.25586 40.064453 C 122.04733 36.601365 120.87574 35.241431 120.2207 33.054688 L 119.82227 31.720703 z M 107.28125 51.333984 C 106.87039 51.318166 106.25999 51.731295 105.25586 52.472656 C 103.72803 53.600664 101.06779 56.94766 101.20117 57.574219 C 101.24233 57.767549 102.9761 57.563533 105.05469 57.121094 L 108.83398 56.318359 L 108.2832 53.732422 C 108.0069 52.084144 107.8095 51.354323 107.28125 51.333984 z M 117.73828 57.410156 C 117.57506 57.413205 117.41166 57.433031 117.24805 57.470703 L 109.71094 59.205078 L 111.49414 68.539062 L 119.0332 66.802734 C 120.80615 66.394606 121.84684 64.052925 121.36914 61.554688 L 121.31055 61.246094 C 121.30185 61.206371 121.30116 61.166298 121.28906 61.126953 C 120.8262 58.921137 119.31609 57.380684 117.73828 57.410156 z M 108.39062 59.634766 L 84.978516 64.476562 L 85.769531 68.595703 L 109.07617 63.226562 L 108.39062 59.634766 z M 83.626953 64.755859 L 83.398438 64.800781 L 84.193359 68.955078 L 84.421875 68.904297 L 83.626953 64.755859 z M 82.046875 65.082031 L 81.761719 65.140625 L 82.5625 69.332031 L 82.847656 69.265625 L 82.046875 65.082031 z M 109.43945 65.119141 L 86.130859 70.488281 L 86.919922 74.619141 L 110.13086 68.726562 L 109.43945 65.119141 z M 80.408203 65.419922 L 59.181641 69.808594 L 60.076172 74.511719 L 81.214844 69.642578 L 80.408203 65.419922 z M 57.453125 70.103516 L 46.164062 72.507812 L 34.875 74.910156 L 34.396484 77.195312 C 33.708268 80.482927 34.740898 85.326989 36.855469 88.730469 L 38.396484 91.208984 L 49.660156 88.8125 L 60.923828 86.414062 L 60.585938 84.822266 L 60.248047 83.232422 L 51.921875 85.003906 C 44.883476 86.502081 43.478857 86.701146 42.837891 86.285156 C 41.885639 85.667162 41.807791 85.303814 42.425781 84.351562 C 42.841771 83.710592 44.205742 83.320467 51.244141 81.822266 L 59.570312 80.048828 L 59.189453 78.259766 L 58.806641 76.46875 L 50.626953 78.210938 C 42.177615 80.00946 40.860831 80.070701 40.566406 78.6875 C 40.271981 77.30431 41.499892 76.825881 49.949219 75.027344 L 58.130859 73.287109 L 57.791016 71.695312 L 57.453125 70.103516 z M 84.783203 70.796875 L 84.554688 70.851562 L 85.353516 75.019531 L 85.580078 74.958984 L 84.783203 70.796875 z M 83.210938 71.162109 L 82.925781 71.228516 L 83.728516 75.429688 L 84.013672 75.359375 L 83.210938 71.162109 z M 81.578125 71.539062 L 60.4375 76.408203 L 61.333984 81.119141 L 82.388672 75.773438 L 81.578125 71.539062 z M 23.140625 74.257812 C 23.120971 74.257852 23.107668 74.261186 23.103516 74.267578 C 22.880122 74.611814 27.023365 79.701516 28.855469 81.333984 C 29.853905 82.223625 30.827066 82.917885 31.019531 82.876953 C 31.441802 82.787068 31.820657 81.555755 32.109375 79.337891 L 32.324219 77.691406 L 27.775391 75.886719 C 25.429419 74.95602 23.435428 74.257221 23.140625 74.257812 z M 67.900391 85.03125 L 65.654297 85.492188 L 63.408203 85.951172 L 63.849609 88.113281 C 64.267187 90.155715 64.216073 90.369292 62.919922 92.035156 C 61.379481 94.015016 58.248289 96.144172 56.316406 96.525391 C 54.805695 96.823369 52.129099 96.271019 49.320312 95.080078 C 47.577913 94.341294 47.27726 94.254719 43.896484 94.925781 L 44.667969 98.585938 C 45.158019 97.868307 45.649271 98.205178 46.904297 98.839844 C 52.51809 101.67885 59.940839 100.04887 64.824219 94.904297 C 67.279804 92.317365 68.307035 89.875564 68.080078 87.171875 L 67.900391 85.03125 z M 53.660156 89.291016 L 47.767578 90.728516 C 47.767578 90.728516 52.917019 95.561429 58.216797 93.146484 C 59.061034 92.761781 53.868083 92.615915 53.660156 89.291016 z M 28.119141 90.480469 C 27.629606 90.470387 27.15786 90.740157 26.933594 91.212891 C 26.675044 91.757929 26.833257 92.387455 27.277344 92.753906 L 41.820312 99.648438 C 42.383209 99.757212 42.967042 99.482571 43.224609 98.939453 C 43.527123 98.301835 43.261137 97.547969 42.630859 97.236328 L 28.605469 90.585938 C 28.44668 90.517178 28.282319 90.483829 28.119141 90.480469 z M 29.794922 95.464844 L 11.943359 133.625 C 10.936761 135.74698 11.834892 138.26508 13.957031 139.27148 C 16.079035 140.27807 18.597114 139.3798 19.603516 137.25781 L 37.455078 99.097656 L 29.794922 95.464844 z "
      transform="scale(0.26458333)"/>
  </g>
</svg>
