<?xml version="1.0" encoding="UTF-8" standalone="no"?>
<!-- Created with Inkscape (http://www.inkscape.org/) -->

<svg
  width="150"
  height="150"
  viewBox="0 0 39.6875 39.6875"
  version="1.1"
  id="svg1168"
  xmlns="http://www.w3.org/2000/svg"
>
  <defs
    id="defs1165"/>
  <g
    id="layer1"/>
  <path
    id="path872"
    style="stroke-width:0.264583"
    d="m 28.87214,5.8978738 c -0.100748,-7.937e-4 -0.193646,0.011615 -0.275952,0.037724 -0.133223,0.04228 -0.287417,0.1431451 -0.445969,0.2780191 -0.723529,0.4077573 -1.178274,1.1669707 -1.196308,1.9972941 -0.288721,0.5846048 -1.576795,1.6716648 -3.311943,2.771924 -3.539462,2.244373 -5.595271,3.882664 -5.87406,4.682401 -0.154299,0.442614 -0.57652,1.186162 -0.527099,1.235584 l 2.927986,-1.003556 -0.621667,3.212723 c 3.972024,-2.191729 8.20496,-5.079257 11.998233,-6.441467 0.703148,-0.24865 1.320929,-0.480469 1.743564,-0.649056 1.288886,-0.01302 2.327021,-1.061291 2.327505,-2.3502441 -2.64e-4,-1.2983818 -1.052896,-2.3507792 -2.351278,-2.3507609 -0.528828,-4.24e-5 -1.042233,0.1781916 -1.457275,0.5059124 -0.07532,-0.02903 -0.148388,-0.062229 -0.216524,-0.10542 -0.25146,-1.0603016 -1.19852,-1.8088814 -2.288233,-1.808675 -0.06815,2.646e-4 -0.136255,0.0036 -0.204121,0.00982 -0.07847,-0.012781 -0.155215,-0.02172 -0.226859,-0.022223 z m -11.036019,2.464449 -2.201416,0.131775 1.705322,5.1206182 z m -4.747514,1.9058272 -1.723926,1.37511 4.342888,3.204455 z m -3.9506629,4.593001 -0.2671673,2.189014 5.3443762,-0.754993 z m 6.4218299,2.656686 c -0.214895,-0.02543 -0.69465,0.543441 -2.079976,2.19108 -2.339167,2.782086 -4.1707929,4.156405 -6.1763673,4.634859 -0.4333219,0.103373 -0.8141414,0.234908 -1.151351,0.396875 -1.1985363,0.190921 -2.0806907,1.224448 -2.0810098,2.438094 2.884e-4,0.108373 0.00771,0.216611 0.022221,0.324011 0.0012,0.07333 0.013407,0.143283 0.037724,0.214458 0.2364909,1.058355 1.1357848,1.838582 2.2169191,1.923397 0.053974,0.02273 0.1061582,0.0465 0.1617472,0.06821 0.1615646,0.06311 0.1358159,0.239638 -0.066146,0.45372 -0.6448999,0.683594 -0.2886118,2.874598 0.5689576,3.499528 0.3947221,0.287642 3.0349082,0.05307 3.9026042,-0.34675 0.932384,-0.429622 1.520085,-1.852152 1.666564,-4.034896 l 0.11989,-1.788004 2.328023,-2.799312 c 3.381257,-4.065757 3.242476,-3.810617 2.073258,-3.81062 h -0.980818 c 0.445224,-0.849008 0.983352,-1.6653 1.367875,-2.540413 l -1.460893,0.365352 z"/>
</svg>
