<?xml version="1.0" encoding="UTF-8" standalone="no"?>
<svg
   width="150"
   height="150"
   viewBox="0 0 150 150"
   version="1.1"
   id="svg8"
   xml:space="preserve"
   xmlns="http://www.w3.org/2000/svg"
   xmlns:svg="http://www.w3.org/2000/svg"><defs
     id="defs1" /><path
     id="path8"
     d="M 126.27344 12.515625 L 122.27344 20.515625 L 114.27344 24.515625 L 122.27344 28.515625 L 126.27344 36.515625 L 130.27344 28.515625 L 138.27344 24.515625 L 130.27344 20.515625 L 126.27344 12.515625 z M 66.585938 30.869141 C 65.598728 30.861595 64.611874 31.475118 64.115234 32.425781 C 63.753423 33.118378 63.710938 33.350812 63.710938 34.615234 C 63.710938 35.39292 63.666854 36.719025 63.615234 37.5625 L 63.521484 39.095703 L 62.949219 39.417969 C 62.233556 39.820204 60.959305 41.101626 60.585938 41.794922 L 60.304688 42.318359 L 42.570312 42.355469 L 24.837891 42.394531 L 24.132812 42.808594 C 22.191305 43.949776 22.305803 47.077739 24.326172 48.099609 C 24.857545 48.368318 25.210104 48.425781 26.3125 48.425781 C 27.038608 48.425781 27.660118 48.472628 27.708984 48.53125 L 27.708984 48.533203 L 27.710938 48.535156 C 27.741992 48.59511 27.32576 49.885721 26.787109 51.404297 C 26.248449 52.922864 24.815937 57.009593 23.603516 60.486328 C 22.391087 63.963054 21.234529 67.266698 21.033203 67.826172 C 20.831898 68.385645 20.374508 69.69341 20.017578 70.732422 C 19.660635 71.771451 18.986944 73.700774 18.519531 75.019531 C 18.052119 76.338293 17.134074 78.953796 16.480469 80.832031 C 12.79955 91.409435 11.931444 93.854963 11.792969 94.025391 C 11.680935 94.163257 11.14844 94.209839 9.8105469 94.199219 C 8.8044243 94.190619 7.8349074 94.189059 7.65625 94.193359 L 7.3300781 94.201172 L 7.6308594 94.962891 C 8.1761942 96.346427 9.3493672 98.46686 10.302734 99.794922 C 13.898597 104.80412 19.17409 108.11535 25.417969 109.2793 C 27.262847 109.62315 31.621471 109.61393 33.412109 109.26172 C 41.050713 107.75927 46.95451 103.34807 50.341797 96.615234 C 50.900249 95.505202 51.357422 94.50909 51.357422 94.402344 C 51.357422 94.250676 50.873734 94.199299 49.142578 94.167969 L 46.927734 94.128906 L 40.726562 76.400391 C 37.316812 66.649558 33.737918 56.407649 32.771484 53.642578 C 31.805043 50.877516 31.013672 48.573794 31.013672 48.521484 C 31.013672 48.469234 37.583293 48.425781 45.613281 48.425781 L 60.212891 48.425781 L 60.703125 49.189453 C 61.156081 49.894298 61.936108 50.689509 62.871094 51.404297 L 63.25 51.695312 L 62.617188 74.074219 C 61.934304 98.221601 61.618856 109.53662 61.382812 118.32422 C 61.300151 121.40133 61.195821 124.70941 61.150391 125.67578 L 61.068359 127.43164 L 59.882812 127.61328 C 55.002277 128.35606 49.888268 130.505 46.9375 133.05469 C 46.046708 133.82441 44.674971 135.38118 44.673828 135.62305 C 44.680203 135.70927 52.891788 135.76172 66.617188 135.76172 C 80.347927 135.76172 88.558594 135.70925 88.558594 135.62305 C 88.558594 135.36749 87.107834 133.73731 86.226562 133.00391 C 83.071254 130.37802 78.243752 128.35784 73.351562 127.61328 L 72.164062 127.43164 L 72.082031 125.67578 C 72.036161 124.70941 71.930506 121.27016 71.847656 118.0332 C 71.764799 114.79624 71.631451 109.92448 71.550781 107.20703 C 71.39493 101.95675 70.687127 76.402999 70.326172 62.957031 C 70.207091 58.521203 70.077086 54.158901 70.035156 53.263672 L 69.958984 51.636719 L 70.576172 51.207031 C 71.354522 50.665709 72.140016 49.83961 72.632812 49.042969 L 73.013672 48.425781 L 87.617188 48.425781 C 95.648634 48.425781 102.21875 48.466658 102.21875 48.517578 C 102.21875 48.568556 101.69032 50.121522 101.04297 51.96875 C 100.39563 53.815994 99.454449 56.50471 98.953125 57.943359 C 96.977021 63.614133 93.607313 73.261247 90.042969 83.447266 L 86.304688 94.126953 L 84.089844 94.126953 C 82.378794 94.126953 81.874913 94.169807 81.875 94.314453 C 81.875065 94.417461 82.11738 95.039028 82.414062 95.695312 C 85.603433 102.7504 92.111745 107.84231 99.75 109.25781 C 101.66573 109.61306 105.98395 109.61804 107.84766 109.26758 C 115.96654 107.74085 122.70978 102.29892 125.61523 94.927734 L 125.90234 94.201172 L 123.66992 94.201172 L 121.43945 94.201172 L 120.55664 91.693359 C 120.07117 90.314656 119.04435 87.389341 118.27539 85.191406 C 117.50642 82.993478 116.65743 80.573745 116.38867 79.814453 C 116.1199 79.05517 114.9436 75.686918 113.77539 72.330078 C 112.60718 68.973234 111.29434 65.213448 110.85742 63.974609 C 107.54636 54.586334 105.47511 48.560107 105.53711 48.498047 C 105.57745 48.457737 106.236 48.425528 107.00195 48.423828 C 108.63833 48.421023 109.27682 48.151922 109.96289 47.175781 C 110.94487 45.778581 110.51078 43.639406 109.07422 42.794922 L 108.39453 42.394531 L 90.666016 42.347656 L 72.9375 42.298828 L 72.349609 41.402344 C 71.840128 40.626298 70.369353 39.286324 69.828125 39.105469 C 69.827316 39.105199 69.825025 39.10586 69.824219 39.105469 L 69.822266 39.103516 L 69.820312 39.101562 C 69.721116 39.008001 69.636353 37.98343 69.580078 36.146484 C 69.500445 33.546835 69.455614 33.161341 69.158203 32.492188 C 68.760697 31.597821 67.849208 30.978066 66.783203 30.878906 C 66.717531 30.872798 66.651751 30.869644 66.585938 30.869141 z M 103.8125 50.416016 L 103.81445 50.416016 L 103.81641 50.416016 C 103.81714 50.416347 103.82149 50.417503 103.82227 50.417969 C 103.92126 50.48985 104.34185 51.521226 104.79688 52.816406 C 105.2822 54.197931 107.81624 61.443036 110.42773 68.916016 C 113.03922 76.388984 116.08065 85.085419 117.18555 88.242188 C 118.29047 91.398956 119.163 94.03221 119.125 94.09375 C 119.08698 94.155215 112.19518 94.203519 103.80859 94.199219 C 92.092002 94.193626 88.558594 94.150899 88.558594 94.017578 C 88.558594 93.92214 89.189299 92.043438 89.958984 89.84375 C 90.728669 87.644053 91.964024 84.112145 92.705078 81.994141 C 93.44614 79.876129 95.043985 75.299 96.255859 71.822266 C 97.467725 68.345539 98.714486 64.781518 99.025391 63.902344 C 99.336297 63.023169 100.51578 59.654922 101.64648 56.417969 C 102.77717 53.181008 103.74989 50.480719 103.80859 50.417969 L 103.81055 50.417969 L 103.8125 50.416016 z M 29.425781 50.417969 C 29.524726 50.52127 31.131088 55.071745 36.494141 70.441406 C 39.315012 78.525579 43.706872 91.081706 44.394531 93.025391 C 44.547404 93.457508 44.673828 93.898484 44.673828 94.005859 C 44.673828 94.168034 42.092528 94.201172 29.423828 94.201172 C 21.03643 94.201172 14.142889 94.152387 14.105469 94.091797 C 13.997978 93.917873 29.302448 50.289213 29.425781 50.417969 z " /></svg>
