<?xml version="1.0" encoding="UTF-8" standalone="no"?>
<svg
   width="150"
   height="150"
   viewBox="0 0 39.6875 39.6875"
   version="1.1"
   id="svg1168"
   xml:space="preserve"
   xmlns="http://www.w3.org/2000/svg"
   xmlns:svg="http://www.w3.org/2000/svg"><defs
     id="defs1165" /><g
     id="layer1" /><path
     id="rect379"
     style="stroke:none;stroke-width:0.421105;stroke-linecap:round;stroke-dasharray:0.105277, 0.105277;"
     d="M 16.615821 1.8601552 C 16.378975 1.8601552 16.188497 2.0509898 16.188497 2.2878348 L 16.188319 24.49336 L 15.72035 24.728237 C 15.584117 24.796536 15.525864 24.953423 15.58934 25.080033 L 15.877656 25.655696 C 15.933572 25.76723 16.064819 25.816956 16.188455 25.780528 L 16.188372 35.771877 C 16.188372 36.00872 16.379206 36.199201 16.616051 36.199201 L 16.631046 36.199331 C 16.867889 36.199331 17.058383 36.009011 17.058383 35.772168 L 17.058374 33.508503 C 17.109495 33.563361 17.173731 33.595473 17.243051 33.593684 L 21.319481 33.488475 L 21.445707 35.174565 C 21.457096 35.326534 21.579858 35.440129 21.721095 35.429545 L 22.362922 35.381447 C 22.504159 35.370862 22.608676 35.240467 22.597288 35.088498 L 22.475098 33.45865 L 23.528946 33.431451 C 23.600728 33.429598 23.66512 33.391605 23.713989 33.330525 L 23.875242 35.592612 C 23.892087 35.828858 24.095851 36.005529 24.332097 35.988684 L 24.346548 35.987794 C 24.582794 35.970949 24.759465 35.767184 24.74262 35.530939 L 23.821402 22.610627 L 24.75511 22.114566 C 24.889679 22.043048 24.944228 21.884435 24.877761 21.759367 L 24.575683 21.191296 C 24.509216 21.066228 24.347456 21.023172 24.212885 21.094687 L 23.732018 21.350575 L 23.717546 21.150377 L 24.096931 20.948286 C 24.221976 20.881775 24.006634 20.234719 23.6144 19.497292 L 23.597016 19.464657 L 22.361338 2.131621 C 22.344493 1.8953758 22.140726 1.7187039 21.904483 1.7355492 L 21.889528 1.736969 C 21.653283 1.7538143 21.476611 1.9575794 21.493456 2.1938243 L 21.661958 4.5565272 C 21.624698 4.5060041 21.573657 4.4750625 21.517736 4.4765058 L 17.209356 4.5877012 C 17.147337 4.5893018 17.093195 4.6303486 17.058541 4.6929131 L 17.058508 2.2881258 C 17.058508 2.0512808 16.867661 1.8602851 16.630815 1.8602851 L 16.615821 1.8601552 z M 17.058862 5.0258119 C 17.096459 5.0952881 17.156528 5.1396019 17.223555 5.137872 L 21.531935 5.0266766 C 21.596787 5.0250028 21.652839 4.9805594 21.687186 4.9130792 L 22.003782 9.3484935 C 21.969442 9.2434649 21.8928 9.1714639 21.804903 9.1737325 L 17.22273 9.2919942 C 17.15433 9.2937595 17.095434 9.3402144 17.05883 9.4109842 L 17.058862 5.0258119 z M 22.017457 9.5378562 L 22.327854 13.893305 C 22.294941 13.870099 22.257736 13.857379 22.218396 13.858394 L 17.225532 13.987255 C 17.158225 13.988992 17.099016 14.030662 17.058769 14.095463 L 17.058781 9.7495788 C 17.098415 9.8277794 17.164149 9.8786781 17.237822 9.8767767 L 21.819996 9.758515 C 21.917331 9.7560028 21.996365 9.6627076 22.017457 9.5378562 z M 17.05856 14.507984 C 17.102409 14.580635 17.168759 14.626103 17.241971 14.624214 L 22.234835 14.495352 C 22.284453 14.494072 22.329582 14.470915 22.36608 14.433034 L 22.618069 17.967545 C 22.56041 17.921249 22.514962 17.90309 22.485508 17.918756 L 21.916921 18.220847 C 21.864978 18.248476 21.871644 18.376682 21.925404 18.56956 L 17.218215 18.691048 C 17.155931 18.692656 17.100197 18.727101 17.058748 18.781493 L 17.05856 14.507984 z M 17.058326 19.265873 C 17.103947 19.328002 17.166974 19.365939 17.235588 19.364168 L 22.182992 19.23648 C 22.246881 19.375243 22.319436 19.521404 22.399452 19.67184 L 22.595038 20.039504 C 22.660202 20.162014 22.726125 20.278799 22.791178 20.388543 L 22.891634 21.797187 L 21.668275 22.447016 C 21.533703 22.518534 21.478626 22.676644 21.545093 22.801712 L 21.795562 23.272897 L 21.663831 23.276297 C 21.604155 22.982906 21.503212 22.786059 21.396975 22.791061 L 19.269774 22.890935 C 19.17033 22.895618 19.09234 23.076416 19.056589 23.343587 L 17.252649 23.390146 C 17.173389 23.392191 17.103817 23.44343 17.058591 23.52232 L 17.058326 19.265873 z M 20.031714 19.985731 A 1.3552819 1.3552819 0 0 0 18.711664 21.375725 A 1.3552819 1.3552819 0 0 0 20.101644 22.695258 A 1.3552819 1.3552819 0 0 0 21.421191 21.305794 A 1.3552819 1.3552819 0 0 0 20.031714 19.985731 z M 22.981017 23.057238 L 22.997932 23.292008 C 22.95862 23.261323 22.913074 23.244055 22.864908 23.245298 L 22.615394 23.251738 L 22.981017 23.057238 z M 17.058612 23.963783 C 17.072898 23.989557 17.089315 24.012644 17.107938 24.032297 L 17.058442 24.057353 L 17.058612 23.963783 z M 23.040034 23.88178 L 23.331603 27.968391 C 23.296261 27.947093 23.257447 27.93567 23.216543 27.936726 L 21.792298 27.973484 C 21.859047 27.804907 21.894978 27.518765 21.879723 27.194789 L 21.728817 23.991611 L 22.8834 23.961812 C 22.943386 23.960264 22.997544 23.930274 23.040034 23.88178 z M 18.918555 24.064141 L 19.049769 24.060754 L 19.203176 27.320731 C 19.205208 27.363905 19.207966 27.405675 19.211608 27.447163 L 18.039255 28.070347 L 17.271599 28.090159 C 17.182778 28.092452 17.105967 28.153103 17.058483 28.245054 L 17.058699 25.349171 L 18.814257 24.469526 C 18.950491 24.401227 19.008741 24.244342 18.945268 24.11773 L 18.918555 24.064141 z M 23.379281 28.634008 L 23.668527 32.690697 C 23.62197 32.650395 23.566946 32.627668 23.50824 32.629183 L 22.415131 32.657395 L 22.381994 32.214719 C 22.370606 32.06275 22.24783 31.948639 22.106593 31.959223 L 21.464766 32.007321 C 21.323529 32.017906 21.219025 32.148817 21.230414 32.300786 L 21.259514 32.687221 L 19.554243 32.731232 L 19.889787 32.553017 C 20.014855 32.48655 20.057913 32.32479 19.986396 32.190219 L 18.634067 29.645608 C 18.562549 29.511039 18.404439 29.45596 18.279371 29.522427 L 17.710784 29.824518 C 17.585716 29.890985 17.542658 30.052745 17.614175 30.187317 L 18.966504 32.731927 C 18.969043 32.736705 18.971874 32.741617 18.974626 32.746191 L 17.222345 32.791416 C 17.160526 32.793012 17.104085 32.821213 17.058385 32.868019 L 17.058615 29.111436 L 17.265093 29.50053 C 17.33156 29.625596 17.49332 29.668656 17.627892 29.597138 L 19.124571 28.801715 L 20.931094 28.755091 L 21.137838 31.517949 C 21.149227 31.669918 21.271989 31.783513 21.413226 31.772928 L 22.055053 31.72483 C 22.19629 31.714246 22.300808 31.583851 22.289419 31.431882 L 22.086711 28.725265 L 23.236129 28.6956 C 23.289445 28.694224 23.338267 28.671494 23.379281 28.634008 z "
     transform="rotate(1.4784237)" /></svg>
