<?xml version="1.0" encoding="UTF-8" standalone="no"?>
<!***REMOVED***Created with Inkscape (http://www.inkscape.org/) -->

<svg
   width="150"
   height="150"
   viewBox="0 0 39.6875 39.6875"
   version="1.1"
   id="svg1168"
   xmlns="http://www.w3.org/2000/svg"
   xmlns:svg="http://www.w3.org/2000/svg">
  <defs
     id="defs1165" />
  <g
     id="layer1" />
  <path
     style="stroke-width:0.184076"
     d="m 22.358289,36.222523 c -0.708694,-0.08333 -3.196768,-0.101972 -5.529053,-0.04143 -5.208072,0.135192 -5.834111,0.01092 -7.4023,-1.469554 C 5.8457562,31.330702 3.9928585,25.883015 4.5871558,20.482154 5.4448803,12.687312 9.5524665,6.4256356 15.244759,4.2355211 c 2.551299,-0.9816149 4.641014,-1.1712743 7.16731,-0.6504944 5.373556,1.1077242 9.595535,5.4052743 11.723178,11.9330123 0.825488,2.532634 1.091205,4.221786 1.073875,6.826414 -0.03103,4.658579 -1.55969,8.744899 -4.299493,11.49294 -2.29122,2.29811 -4.36711,2.877118 -8.55134,2.38513 z m -1.518916,-3.493254 c 0.599465,-1.171124 0.304154,-4.28935 -0.606758,-6.406823 -0.222582,-0.517403 -0.470477,-0.940733 -0.550877,-0.940733 -0.440822,0 -1.316358,3.629425 -1.332156,5.522294 -0.02285,2.737681 1.464585,3.828118 2.489791,1.825262 z m -5.223506,0.136014 c 0.396017,-0.47717 0.428784,-1.39255 0.112691,-3.148095 -0.175342,-0.973829 -0.279077,-2.184036 -0.230523,-2.689348 0.08507,-0.885243 0.07583,-0.907484 -0.253078,-0.609824 -0.98436,0.890834 -1.826445,3.65884 -1.554343,5.109267 0.234581,1.250424 1.352909,2.027633 1.925253,1.338 z m 10.205891,-0.342974 c 0.503522,-0.677433 0.612741,-2.221457 0.246098,-3.479038 -0.288925,-0.991012 -1.273742,-2.741074 -1.542616,-2.74129 -0.07816,-6.3e-5 -0.113571,0.41168 -0.07869,0.914981 0.03489,0.503304 -0.07428,1.735098 -0.242568,2.737319 -0.277536,1.652768 -0.279537,1.885535 -0.02152,2.503056 0.240466,0.575516 0.360596,0.671762 0.776594,0.622191 0.272708,-0.0325 0.65735,-0.280938 0.862703,-0.557219 z M 10.96304,31.252846 c 0.29528,-0.326272 0.353952,-0.696951 0.371486,-2.346975 0.01145,-1.07773 0.08281,-2.249429 0.158566,-2.603776 l 0.137743,-0.644267 -0.57897,0.546621 c -1.3834993,1.306195 -2.0679175,4.119028 -1.2282624,5.047928 0.4417454,0.488698 0.6974854,0.488804 1.1394374,5.52e-4 z m 19.095744,0.05325 c 0.516774,-0.571025 0.561815,-1.391686 0.15033,-2.738981 -0.356525,-1.167349 -1.303526,-2.633175 -1.701174,-2.633175 -0.0958,0 -0.127057,0.187759 -0.06946,0.417242 0.0576,0.229482 0.121502,1.339274 0.142011,2.4662 0.03134,1.722286 0.09313,2.11066 0.387507,2.435943 0.429539,0.474636 0.697282,0.487587 1.090785,0.05278 z m -0.193469,-7.833461 c 1.367854,-0.582836 2.019007,-1.908444 1.998713,-4.068955 -0.03298,-3.510879 -1.770102,-7.21512 -4.24033,-9.0421 C 27.157532,10.016806 26.209534,9.5588272 25.517039,9.343852 24.423241,9.0042993 23.988271,8.9681086 22.203663,9.0681736 c -1.129861,0.063352 -2.137125,0.1191207 -2.238367,0.123931 -0.101243,0.0048 -1.145365,-0.048408 -2.320274,-0.118263 -1.88819,-0.1122637 -2.28355,-0.081274 -3.405413,0.2669324 -2.876187,0.892716 -5.0836616,3.576493 -5.9647839,7.251798 -0.6610546,2.757366 -0.4351528,5.053685 0.6086506,6.18701 0.8574999,0.931041 0.8515526,0.930531 10.9496753,0.938239 7.59832,0.0058 9.555381,-0.04202 10.032164,-0.245186 z M 10.393321,22.176641 C 9.1753526,21.635311 8.5220508,20.186058 8.8093865,18.662923 8.9821216,17.747277 9.2110034,17.317626 9.8390192,16.730121 10.247175,16.348294 10.513406,16.26993 11.402457,16.26993 c 0.927326,0 1.179224,0.08164 1.871952,0.606701 1.24666,0.944916 2.164975,1.316716 3.285473,1.330194 l 1.01242,0.01218 -0.729106,0.384331 c -0.408908,0.215545 -1.217306,0.420815 -1.840764,0.467407 -1.044044,0.07803 -1.186619,0.03736 -2.344092,-0.668581 -0.677838,-0.413412 -1.397943,-0.751658 -1.600231,-0.751658 -0.930497,0 -1.293141,1.964033 -0.52673,2.85271 0.482722,0.559731 1.701688,0.890155 2.68709,0.728385 l 0.672305,-0.11037 -0.460192,0.376197 c -0.442468,0.36171 -1.878852,0.946792 -2.287727,0.931861 -0.108518,-0.004 -0.445808,-0.117654 -0.749534,-0.252644 z m 4.615059,-0.02942 c -0.359063,-0.359064 -0.359493,-0.448935 -0.0046,-0.955668 0.488326,-0.697182 2.065016,-1.027371 4.961479,-1.039026 2.253414,-0.0091 2.684589,0.03892 3.433179,0.382063 0.821344,0.376495 1.235799,0.943309 0.985673,1.348018 -0.192612,0.311652 -0.979058,0.207232 -1.337581,-0.177597 -0.451872,-0.485027 -1.652847,-0.891199 -3.061976,-1.03557 -1.582896,-0.162172 -2.97475,0.251328 -3.763473,1.118076 -0.664203,0.72991 -0.801738,0.770704 -1.212736,0.359704 z m 12.319973,-0.0058 c -0.404969,-0.146227 -0.943392,-0.436142 -1.196498,-0.644216 l -0.46019,-0.378314 0.736305,0.09949 c 1.049701,0.141832 2.140157,-0.155547 2.623089,-0.715342 0.77455,-0.897828 0.402034,-2.852557 -0.543614,-2.852557 -0.211574,0 -0.844432,0.305165 -1.40635,0.678146 -1.344614,0.892503 -2.437202,1.001622 -3.9865,0.398137 l -1.104458,-0.43021 1.196495,-0.09295 c 0.901103,-0.07 1.41644,-0.229276 2.087374,-0.645171 0.489984,-0.303725 1.194076,-0.737243 1.56465,-0.963372 1.938637,-1.182979 3.976586,0.251985 3.982457,2.804137 0.0035,1.414725 -0.514932,2.321533 -1.567218,2.742573 -0.867922,0.347275 -0.963215,0.347259 -1.925542,-3.67e-4 z M 16.590237,19.675344 c 0.108823,-0.336048 1.81003,-1.654467 2.136489,-1.655761 0.283606,-0.0011 0.709002,0.866114 0.518359,1.056757 -0.07466,0.07466 -0.216484,-0.0085 -0.315163,-0.184855 -0.281091,-0.502282 -0.830207,-0.380194 -1.662735,0.369687 -0.421501,0.379657 -0.72613,0.566035 -0.67695,0.414172 z m 5.489265,-0.462949 C 21.430266,18.542553 20.724251,18.374657 20.542995,18.847 c -0.130365,0.339728 -0.485661,0.365467 -0.485661,0.03518 0,-0.132513 0.118396,-0.401725 0.2631,-0.598249 0.25806,-0.350468 0.275434,-0.350729 0.906608,-0.01361 0.693922,0.370631 1.714366,1.343455 1.565435,1.492385 -0.05016,0.05016 -0.370999,-0.197479 -0.712975,-0.55031 z m -7.724868,-2.059536 c -1.338344,-0.6909 -1.837231,-2.240481 -1.139924,-3.540686 0.950139,-1.771638 3.551157,-1.669775 4.504215,0.176395 1.06324,2.059605 -1.304686,4.427531 -3.364291,3.364291 z m 2.403484,-0.960807 c 0.421529,-0.421529 0.538069,-0.703235 0.538069,-1.300636 0,-0.953678 -0.230937,-1.394259 -0.916697,-1.74888 -0.83843,-0.433569 -1.575193,-0.348937 -2.255717,0.25911 -0.516117,0.46115 -0.601153,0.658574 -0.601153,1.395672 0,0.737099 0.08504,0.934523 0.601153,1.395673 0.839488,0.750082 1.883696,0.74971 2.634345,-9.04e-4 z m 6.704629,1.14756 c -1.146961,-0.312316 -2.050815,-1.65171 -1.869326,-2.7701 0.296504,-1.82714 2.183059,-2.783097 3.790779,-1.920868 1.627561,0.872871 1.701737,3.327241 0.131645,4.356004 -0.499594,0.327348 -1.488535,0.488693 -2.053098,0.334964 z m 1.91242,-1.080778 c 1.710047,-1.438909 -0.07821,-4.203512 -2.062578,-3.188698 -0.693883,0.354856 -1.037915,0.94484 -1.042245,1.787361 -0.0085,1.660849 1.817138,2.484852 3.104823,1.401337 z m -14.8723,-0.986608 c -0.6029627,-0.381735 -0.130138,-1.898607 0.918769,-2.947514 1.540939,-1.540939 3.168911,-1.761299 5.23473,-0.708566 1.141624,0.581767 1.813287,0.784739 2.371058,0.716517 0.09163,-0.01121 0.0088,-0.201705 -0.184077,-0.423331 -0.341509,-0.392435 -0.334649,-0.391825 0.2628,0.02337 l 0.613463,0.426323 0.552613,-0.408564 c 0.525412,-0.388455 0.542784,-0.3902 0.352937,-0.03546 -0.109821,0.205201 -0.199673,0.411151 -0.199673,0.457666 0,0.205466 1.57324,-0.297275 2.446375,-0.781758 1.236601,-0.686162 1.941145,-0.823142 2.902415,-0.564299 1.145877,0.308552 2.096554,0.979373 2.765164,1.951165 0.979352,1.423439 0.755026,2.696894 -0.42299,2.40123 -0.503201,-0.126295 -0.785702,-0.676114 -0.949015,-1.847022 -0.267827,-1.920251 -2.289537,-2.465072 -4.810572,-1.296379 -0.819644,0.379968 -1.450725,0.526039 -2.456352,0.568552 -1.189535,0.05029 -1.51256,-0.0132 -2.669108,-0.524541 -1.600917,-0.707818 -2.951182,-0.866875 -3.768979,-0.443976 -0.761403,0.393738 -1.07926,0.918472 -1.236513,2.041308 -0.18974,1.354797 -0.890578,1.922322 -1.723045,1.395289 z"
     id="path854" />
</svg>
