<?xml version="1.0" encoding="UTF-8" standalone="no"?>
<!***REMOVED***Created with Inkscape (http://www.inkscape.org/) -->

<svg
   width="150"
   height="150"
   viewBox="0 0 39.6875 39.6875"
   version="1.1"
   id="svg1168"
   xml:space="preserve"
   xmlns="http://www.w3.org/2000/svg"
   xmlns:svg="http://www.w3.org/2000/svg"><defs
     id="defs1165" /><g
     id="layer1" /><path
     id="path1665"
     style="stroke-width:0.148766"
     d="M 17.045988 4.1258464 C 16.892089 4.1319489 16.789196 4.1970702 16.637744 4.3144653 C 16.293745 4.5811092 16.275294 4.6333587 16.361792 5.0839274 C 16.451742 5.5524816 16.444078 5.5658718 16.108577 5.5371297 C 15.918247 5.5208757 15.678558 5.4568466 15.575793 5.3945028 C 15.43208 5.3073239 15.308919 5.4807194 15.044043 6.1458781 L 14.699878 7.0104248 L 15.266768 7.2057617 C 15.829512 7.3993717 15.830873 7.402612 15.532385 7.7173584 C 15.296254 7.9663536 15.264193 8.0590757 15.383557 8.1504069 C 15.48371 8.2270358 15.348319 8.3850031 14.985649 8.6154948 C 14.587401 8.868599 14.201199 8.9534001 13.585217 8.9224528 C 11.997643 8.8426919 11.741158 9.1978432 12.055078 11.037052 C 12.345232 12.737032 12.346241 14.517559 12.057662 14.69316 C 11.933577 14.7687 11.835615 14.935153 11.840104 15.063163 C 11.845204 15.207193 11.726761 15.292708 11.529012 15.287956 C 11.280195 15.281956 11.191728 15.375268 11.129036 15.709119 C 11.068337 16.032332 10.99202 16.118325 10.819495 16.058968 C 10.479143 15.941871 10.153536 16.152577 10.004041 16.587101 C 9.8388091 17.06736 9.9700431 17.234809 10.824662 17.631482 L 11.503691 17.946191 L 11.030851 19.233451 C 10.864348 19.687007 10.643371 20.163872 10.395231 20.632332 L 11.403955 21.446236 L 11.69386 20.420459 L 12.894303 22.519556 L 13.190926 21.36097 L 14.251843 22.107694 C 14.329023 21.55193 14.425592 21.006341 14.540198 20.526396 C 14.846931 19.241893 15.036049 19.083185 15.902389 19.381246 C 16.400558 19.55264 16.580873 19.540762 16.866671 19.319234 C 17.192214 19.066893 17.209892 19.01514 17.108516 18.615918 C 17.048326 18.378888 16.873006 18.141668 16.719393 18.088818 C 16.473793 18.004318 16.47379 17.965159 16.717326 17.763257 C 16.956747 17.564791 16.963337 17.483855 16.766935 17.165361 C 16.641966 16.962708 16.573228 16.699847 16.613973 16.581417 C 16.654723 16.462988 16.641397 16.308845 16.584517 16.239319 C 16.431621 16.052493 17.667417 14.523486 18.930111 13.33717 C 19.941863 12.386619 20.021867 12.274094 19.958988 11.884546 C 19.908658 11.572792 19.673228 11.305227 19.060335 10.861869 C 18.434883 10.409401 18.177407 10.112544 18.014921 9.6562581 C 17.828392 9.1324595 17.834209 9.0492075 18.059363 9.0413086 C 18.257738 9.0343486 18.29442 8.9795512 18.212325 8.8113485 C 18.006433 8.3894742 18.214678 8.2199747 18.722888 8.3948364 L 19.214848 8.5638184 L 19.505269 7.7199422 C 19.76142 6.9755465 19.763054 6.8622222 19.520256 6.7613444 C 19.368846 6.6984339 19.187357 6.6093827 19.116663 6.5634237 C 19.04595 6.5174582 18.91744 6.4467446 18.831409 6.4063273 C 18.733197 6.3601881 18.794489 6.266943 18.996257 6.1556966 C 19.4054 5.9301197 19.535537 5.5522427 19.35179 5.1226847 C 19.235426 4.8506348 18.994763 4.7122528 18.107422 4.4069661 C 17.526694 4.2071687 17.243859 4.1180002 17.045988 4.1258464 z M 30.734041 19.506303 C 30.11465 19.502368 29.479855 19.720141 28.940869 20.224089 C 27.840085 21.253324 27.816955 22.825009 28.886092 23.933423 L 29.352214 24.417114 L 28.969291 24.417114 C 28.491534 24.417114 28.197741 24.752891 28.324886 25.153503 C 28.393381 25.369315 28.548643 25.458394 28.85767 25.458394 C 29.358335 25.458394 29.34239 25.376992 29.135173 26.8981 L 28.977043 28.061853 L 27.87065 29.180648 L 26.764775 30.299959 L 26.764775 31.139701 C 26.764775 31.672278 26.832869 32.006784 26.95081 32.054374 C 27.053086 32.095644 28.7801 32.134691 30.788818 32.141191 C 33.444716 32.149732 34.48977 32.104096 34.619592 31.974276 C 34.717771 31.876091 34.798393 31.466909 34.798393 31.064771 C 34.798393 30.355461 34.764884 30.299141 33.673914 29.178064 C 32.588195 28.062384 32.544186 27.98932 32.411975 27.074833 C 32.198246 25.59645 32.21633 25.458394 32.622815 25.458394 C 33.407362 25.458394 33.470682 24.620277 32.697746 24.46569 L 32.270898 24.379907 L 32.710148 23.879679 C 32.951737 23.60452 33.221888 23.110093 33.310628 22.780522 C 33.79768 20.971764 32.31693 19.51636 30.734041 19.506303 z M 11.011731 22.395015 L 11.071159 23.459033 L 9.8526286 23.017716 C 9.5497989 24.946469 8.8402387 26.886214 8.3250732 26.886214 C 7.8195117 26.886214 7.5721476 27.060063 7.5721476 27.415381 C 7.5721476 27.607116 7.6835576 27.826736 7.8201945 27.903206 C 8.0379243 28.025055 7.9824835 28.162887 7.3716431 29.018901 C 6.9883114 29.556094 6.6088736 30.03621 6.5282837 30.086019 C 6.3186439 30.215582 6.3455013 31.997168 6.5603231 32.211987 C 6.6922149 32.343877 8.0683216 32.390271 11.829252 32.390271 C 14.629031 32.390271 17.025601 32.350014 17.155025 32.300354 C 17.336462 32.230734 17.39067 31.986698 17.39067 31.235303 C 17.39067 30.33539 17.346929 30.202689 16.818612 29.503109 C 15.727347 28.058102 15.731129 28.068006 16.069303 27.794169 C 16.451118 27.484993 16.304189 27.06198 15.774748 26.946676 C 15.558764 26.899636 15.308312 26.839157 15.218193 26.812317 C 14.900436 26.717667 14.324226 24.920949 13.978992 23.15776 L 12.733073 22.797058 L 12.829708 23.989233 L 11.011731 22.395015 z M 20.374984 25.119914 L 20.091797 25.121981 L 20.643701 25.495085 C 21.710435 26.21625 22.17267 26.399127 23.932389 26.796814 L 25.534875 27.159066 L 25.760701 26.831954 L 25.986528 26.504842 L 27.171985 26.797847 C 27.824214 26.959123 28.418645 27.081142 28.492834 27.068632 C 28.628773 27.045704 28.723747 26.777914 28.682487 26.533264 C 28.663756 26.422206 28.502958 26.369437 27.678931 26.204085 C 25.418002 25.750417 21.12818 25.113814 20.374984 25.119914 z " /></svg>
