<?xml version="1.0" encoding="UTF-8" standalone="no"?>
<!***REMOVED***Created with Inkscape (http://www.inkscape.org/) -->

<svg
  width="150"
  height="150"
  viewBox="0 0 39.6875 39.6875"
  version="1.1"
  id="svg1168"
  xmlns="http://www.w3.org/2000/svg"
>
  <defs
    id="defs1165"/>
  <g
    id="layer1"/>
  <path
    id="path1562"
    style="stroke-width:0.293245"
    d="M 114.49609 23.609375 C 111.41664 23.6105 110.69796 25.736195 111.71289 31.832031 C 112.28144 35.24695 112.3442 37.528111 112.08984 45.375 C 111.97702 48.853488 111.99189 51.808306 112.125 51.941406 C 112.25823 52.074559 113.4785 52.179623 114.83398 52.171875 C 116.18946 52.164316 117.29684 52.237745 117.29688 52.335938 C 117.29692 52.434205 116.04797 52.523137 114.51953 52.535156 L 111.74023 52.556641 L 111.76562 54.097656 C 111.81219 56.811436 112.46608 73.99709 112.58008 75.507812 C 112.74245 77.659944 114.1084 78.754979 115.67969 77.992188 C 116.10526 77.785599 116.55398 77.400715 116.67969 77.136719 C 116.9884 76.488333 117.82436 54.981676 117.65039 52.160156 C 117.31753 46.762227 117.43794 34.356506 117.84961 31.542969 C 118.77385 25.226331 118.08954 23.608045 114.49609 23.609375 z M 111.77148 65.695312 L 110.76953 65.828125 C 110.21885 65.901108 108.48409 65.951434 106.91406 65.939453 L 104.05859 65.917969 L 104.07422 76.058594 C 104.07838 78.943269 104.12597 81.580663 104.19336 83.496094 C 104.41405 83.96948 104.67475 84.394971 104.99414 84.748047 C 105.95575 85.906699 106.60253 85.704095 108.72266 83.583984 C 110.37233 81.934304 112.4355 81.019531 114.50195 81.019531 C 116.26952 81.019531 118.78119 81.765224 120.08398 82.677734 C 123.19429 84.856288 124.79535 83.724161 125.41992 78.367188 C 125.42197 77.589999 125.42383 76.76621 125.42383 75.830078 L 125.41797 65.847656 L 122.30469 65.898438 C 120.59235 65.926028 118.86578 65.890687 118.4668 65.820312 C 117.76794 65.69744 117.73503 65.896184 117.53516 71.261719 C 117.41266 74.550777 117.14381 77.1169 116.88086 77.53125 C 115.95247 78.994347 113.38301 78.965487 112.51562 77.480469 C 112.31459 77.136229 112.06735 74.343675 111.96289 71.275391 L 111.77148 65.695312 z M 127.4043 72.498047 C 125.78709 72.36531 126.71538 74.625332 126.40039 75.943359 C 126.13061 84.786244 123.81656 86.743341 120.02539 84.087891 C 118.72258 83.17538 116.21093 82.429688 114.44336 82.429688 C 112.3769 82.429688 110.31374 83.34446 108.66406 84.994141 C 106.54395 87.114251 105.89714 87.316851 104.93555 86.158203 C 101.56726 84.162174 105.06795 76.153644 100.76172 74.535156 C 99.70621 74.455975 99.610335 74.252309 97.396484 74.267578 C 93.76279 74.292145 90.364633 76.535381 88.525391 80.126953 C 87.877005 81.393072 86.744881 82.429687 86.007812 82.429688 C 83.889879 82.429688 81.366828 85.826953 80.638672 89.658203 C 79.096492 97.772505 74.782648 102.39687 67.314453 103.94727 C 55.513944 106.39704 45.510747 101.26326 43.871094 91.916016 C 42.932047 86.562897 40.789759 83.528906 36.751953 81.841797 C 34.857152 81.050122 32.935433 79.775136 32.482422 79.007812 C 31.322771 77.043618 27.633229 75.267578 24.712891 75.267578 C 22.253982 75.267578 20.390808 76.757271 14.011719 83.8125 L 12.105469 86.169922 C 10.193023 92.610963 10.685547 101.25781 10.685547 101.25781 C 10.685547 112.40889 10.990675 115.33052 12.292969 116.63281 C 13.719901 118.05977 21.019412 118.23828 77.189453 118.23828 C 133.35951 118.23828 140.65703 118.05976 142.08398 116.63281 C 144.56537 114.15142 144.41886 89.009267 141.90234 85.511719 C 140.91759 84.143054 139.1899 81.164162 138.06445 78.890625 C 136.33846 75.403886 135.33767 74.605964 131.66992 73.792969 C 129.88497 73.397305 128.83327 73.152837 128.21289 72.691406 C 127.9024 72.578814 127.63532 72.517058 127.4043 72.498047 z "
    transform="scale(0.26458333)"/>
</svg>
