<?xml version="1.0" encoding="UTF-8" standalone="no"?>
<!***REMOVED***Created with Inkscape (http://www.inkscape.org/) -->

<svg
  xmlns:inkscape="http://www.inkscape.org/namespaces/inkscape"
  xmlns:sodipodi="http://sodipodi.sourceforge.net/DTD/sodipodi-0.dtd"
  width="150"
  height="150"
  viewBox="0 0 39.6875 39.6875"
  version="1.1"
  id="svg1168"
  sodipodi:docname="first_blood.svg"
  inkscape:version="1.1.2 (0a00cf5339, 2022-02-04)"
  xmlns="http://www.w3.org/2000/svg"
>
  <sodipodi:namedview
    id="namedview6"
    pagecolor="#ffffff"
    bordercolor="#666666"
    borderopacity="1.0"
    inkscape:pageshadow="2"
    inkscape:pageopacity="0.0"
    inkscape:pagecheckerboard="0"
    showgrid="false"
    inkscape:zoom="1.4066667"
    inkscape:cx="12.796208"
    inkscape:cy="50.118482"
    inkscape:window-width="1846"
    inkscape:window-height="1016"
    inkscape:window-x="74"
    inkscape:window-y="1107"
    inkscape:window-maximized="1"
    inkscape:current-layer="svg1168"/>
  <defs
    id="defs1165"/>
  <path
    id="path890"
    style="fill:#000000;stroke-width:0.083833"
    d="m 17.14469,2.1259684 c -1.309127,-0.2427747 -2.695054,1.059105 -3.11076,1.518237 -0.59873,-0.3098257 -1.102096,0.7717644 -1.697476,0.6893017 0.53724,0.079909 -1.262831,0.8670686 -1.520427,1.4240006 -1.2758791,1.100728 -1.9206985,2.6136989 -2.1798023,4.2465663 0.2305862,1.585929 -1.5184762,3.305556 -0.2831448,4.758016 0.1570105,0.945043 -0.3951797,1.844241 -0.5658377,2.771821 -0.1552431,0.56324 -0.3104862,1.126481 -0.4657293,1.689721 0.2042541,-0.609577 1.2206302,-2.698411 0.9700134,-0.866956 0.3038675,-0.791368 0.7906361,-0.975573 0.4169751,0.0155 -0.5852132,1.197932 -2.0805308,1.948481 -1.2776553,3.433359 0.9890965,2.111751 -0.1458807,-1.914794 1.3203593,-1.382475 1.2215479,0.814339 -1.4477818,2.220244 -0.3682669,3.429153 0.7030811,0.94345 -0.3798293,-1.56551 0.4436515,-1.902757 0.6259379,-1.815595 2.084181,1.139321 0.4985588,1.119269 0.1457193,1.013878 -0.9253609,2.565982 -0.68633,3.929752 0.3028413,0.390225 0.8149266,0.472955 0.6899028,1.395236 -0.2166206,0.849467 0.6020776,1.034093 0.5157989,1.243173 -0.00241,0.810367 1.0637145,0.659671 0.1364302,1.382774 -0.437328,0.511217 -0.8188051,1.688085 -0.038201,0.545484 0.6647453,0.07254 1.0214733,0.784522 1.4980363,0.24988 -0.555941,0.368715 -1.7538067,2.195906 -0.296628,1.292242 0.691949,-0.321823 0.898775,-1.449318 1.265148,-0.262034 1.409639,0.848705 2.070544,2.170799 2.122476,3.761781 0.51012,1.767703 2.693329,-0.09228 3.641554,0.603477 1.483576,0.398618 1.211896,-2.134622 2.74645,-2.051499 0.895921,-1.123911 0.69782,-2.835277 2.283475,-3.491706 0.864705,-0.972419 2.52079,-3.000669 1.412912,-4.111891 -1.322496,0.744478 -2.662596,1.525114 -3.931933,2.377185 -1.319792,1.254511 -3.069165,-0.06512 -4.636709,0.09094 -0.761272,-0.529697 0.590496,-2.712396 0.636513,-0.851587 0.372617,-0.106257 1.166279,-0.934496 1.172225,-0.80754 -0.690693,-1.634988 2.314591,-0.02309 1.303222,-1.424704 -0.517524,-1.303129 -3.491718,-0.256409 -3.265258,-1.468675 0.621932,-0.281659 3.568304,-0.281534 1.551419,-0.757263 -1.547775,-0.592469 -2.705641,0.843511 -4.107957,1.027824 -0.989395,-1.195724 -0.903485,-2.880936 -1.725821,-4.114389 -0.980212,-1.581422 1.084568,-2.028644 1.431208,-3.262867 0.896587,-0.993767 2.779054,-0.924181 2.878016,0.684309 0.851441,0.595967 -1.180318,2.522835 0.652199,1.780031 1.379079,-1.172233 0.588118,-3.208773 0.158017,-4.667012 0.09377,-0.974141 -2.276702,-1.525021 -0.778149,-1.468669 0.888305,-0.100107 2.335579,-0.313227 2.643364,0.812728 0.462356,-1.458864 -0.167286,0.993345 0.617511,1.477878 0.421112,0.832749 0.923385,0.90759 1.456625,0.298066 0.713716,0.710451 2.026054,0.222169 2.464554,0.03288 0.984971,0.614376 2.161252,1.064038 3.108464,1.850628 0.907617,0.499868 1.52672,1.824557 2.070526,2.293761 0.260128,-0.709138 -0.404385,-2.122953 0.745564,-1.128071 0.194416,1.022801 0.34372,1.936013 1.489885,1.211353 -0.449457,-1.330835 -0.183801,-2.972775 -0.912416,-4.237233 -1.225875,-0.846395 0.692836,-0.187709 0.31281,-1.257229 0.523911,-1.553463 0.344872,-3.596829 -1.516153,-4.084871 -0.766944,-0.02643 -2.025184,-1.285094 -0.624422,-0.599124 0.941998,0.374203 2.642442,1.264682 1.995663,-0.465513 C 29.84261,9.9587926 29.574731,8.0012145 28.392525,8.9566217 27.588655,8.787651 27.221039,7.5653153 28.293712,8.2642341 29.203204,7.4599993 25.972401,6.0623236 27.067069,5.6796798 27.943723,5.9859498 25.665258,4.5997877 27.018948,5.0340937 27.465721,4.1802002 25.089605,3.3659898 24.028693,3.3293682 22.085369,3.3869012 24.728113,4.3582568 24.572518,5.3407586 24.662233,6.5905162 24.181584,3.8756713 23.28769,4.073479 22.568682,3.6784558 20.87072,4.2190723 21.234616,3.4206413 20.425103,3.3864684 20.35907,4.6914625 20.186677,3.3421268 19.903554,2.8241081 18.949111,2.3593188 19.633947,3.2323587 18.930984,2.6648796 18.135146,1.9131333 17.14469,2.1259684 Z m 1.218013,7.7933226 c 0.0021,0.51979 -1.795795,0.080033 -0.358346,0.00395 l 0.179349,-0.00259 z M 18.9637,9.93066 c 0.778331,-0.058289 -0.573061,0.756528 0,0 z m 1.795239,0.031006 c 0.989569,0.529811 -0.449465,0.67847 0,0 z m 1.219047,0.076998 c 0.913764,0.138214 0.389446,0.980227 0,0 z m -6.491076,0.01757 c -0.630495,1.002357 -1.525979,-0.04581 0,0 z m -1.495,0.176217 c -0.665251,1.067392 -1.563254,-0.03287 0,0 z m 9.007203,0.03514 c 0.552428,0.09939 0.158282,0.79957 0,0 z m 0.542085,0.08165 c 1.392626,-0.08664 0.878003,1.054736 0.08708,0.134575 z m -10.44639,0.02584 c -0.0846,0.851967 -0.916242,0.1341 0,0 z m -0.526066,0.09198 c -0.537816,0.949065 -1.195925,-0.06816 0,0 z m -0.788066,0.161231 c -0.293101,1.04191 -1.150758,-0.03391 0,0 z m 13.406417,0.04702 c 0.857469,0.01755 0.211724,0.947902 0,0 z m -0.240812,0.03979 0.120963,0.250201 z m -13.889592,0.07752 c -0.39645,1.18937 -1.2435266,-0.167716 0,0 z m 14.838371,0.04858 c 1.443002,0.179655 0.394711,1.148046 0,0 z m -15.852262,0.381372 -0.02318,0.164153 z m 6.387207,2.892846 c 0.217211,0.576053 2.081107,-0.387249 1.305227,0.300187 -0.488908,-0.02964 -3.142658,0.211997 -1.536989,-0.306688 l 0.231762,0.0065 z m 2.679423,0.07493 c 0.86969,0.139321 3.230111,0.116319 3.070505,0.646837 -0.782699,-0.159792 -2.917778,-0.03022 -3.070505,-0.646837 z m -4.565613,0.0067 c -0.140423,0.811583 -3.469707,0.563579 -1.551219,0.123999 0.514414,-0.07462 1.043528,0.0038 1.551219,-0.123999 z m -2.273246,0.266133 c -0.22649,0.934319 -0.804995,-0.105283 0,0 z m -0.746725,0.124024 c 0.08414,1.035502 -1.340592,-0.137808 0,0 z m 10.974007,0.03721 c 1.577041,0.05204 0.579739,1.104972 0,0 z m -11.676289,0.09198 c -0.197395,1.005712 -2.3448569,0.329674 -0.596212,0.125305 0.198301,-0.04385 0.397237,-0.08466 0.596212,-0.125305 z m 12.621968,0.09508 c 1.469756,-0.08162 0.583546,1.186421 0,0 z M 9.1916868,15.082285 c -0.8303041,1.167066 -0.8474549,0.08693 0,0 z m 15.7918012,0.10387 c 0.59253,0.264979 2.742101,0.610454 2.269752,1.034221 -0.568753,-0.350076 -2.23668,-0.425039 -2.269752,-1.034221 z m -1.95492,0.54622 c 1.105692,-0.169176 1.149379,1.502331 0.08837,0.584473 -1.069852,0.516473 -0.883069,-0.499505 -0.08837,-0.584473 z m -0.0186,0.03566 c -0.159733,0.162089 0.277264,0.131983 0,0 z m 4.755783,0.312643 c 1.136956,0.15073 0.486628,1.308574 0,0 z m 0.551902,0.217041 c 1.095839,0.111299 0.539451,1.252033 0,0 z m -14.111798,2.026233 c -0.896998,0.137047 0.719111,0.165641 0,0 z m -2.876311,1.597835 c 0.332021,0.242691 -0.206016,0.354933 0,0 z m 5.542814,1.419035 c -0.887024,0.902392 -1.876205,-0.454903 -1.976104,1.028551 0.07191,1.013458 -1.114678,3.088068 0.624733,2.015346 1.108128,-0.797313 3.108768,0.276328 2.914349,-1.61763 0.467748,-0.137784 1.865627,-0.754816 0.646792,-1.031731 -0.722757,-0.15644 -1.55145,-0.01655 -2.20977,-0.394536 z m 3.506246,0.356567 c -0.03219,0.314299 0.505212,0.257134 0,0 z m 8.240325,0.105937 c -0.936679,0.165949 -0.08871,0.856086 0,0 z m 1.258837,0.718819 c -1.099385,0.456363 -2.009754,1.918696 -2.574215,2.572545 0.629503,1.453648 0.356085,3.220346 -0.445237,4.549757 -0.644724,1.364968 -0.849798,3.17237 -0.373661,4.513423 -0.110933,-0.643636 0.536672,-2.459163 1.008183,-1.469807 -0.0095,0.604691 -0.219215,2.62338 0.289208,2.207093 0.05262,-0.782996 -0.139607,-2.077241 0.638992,-1.902914 0.581985,-0.661873 1.608866,2.241986 1.002204,0.294778 0.133114,-0.808217 1.600307,1.251973 2.450376,0.399043 1.789476,-0.438109 -0.350608,-2.070966 0.366993,-2.721266 0.09328,0.638143 0.685525,2.099237 0.682728,0.608359 -0.332005,-1.2073 -1.721635,-2.068829 -1.545147,-3.370823 1.22814,-1.166655 -1.20722,-2.10037 -0.84276,-3.679539 -0.171277,-0.714526 0.528656,-1.830003 -0.506791,-1.681065 l -0.07871,-0.288374 -0.07224,-0.03118 z m -10.418485,2.593123 c -0.159441,0.506468 0.915638,-0.0065 0,0 z m 0.669209,0.278019 c 0.255325,0.67567 1.28423,0.256207 0,0 z m 10.468612,7.868771 c 0.144116,0.331267 -0.632988,0.137943 0,0 z"/>
</svg>
