<?xml version="1.0" encoding="UTF-8" standalone="no"?>
<svg
  width="200"
  height="200"
  viewBox="0 0 52.91667 52.916669"
  version="1.1"
  id="svg8"
  xmlns="http://www.w3.org/2000/svg"
>
  <defs
     id="defs6" />
  <path
     id="rect852-6"
     style="vector-effect:none;fill-opacity:1;fill-rule:nonzero;stroke:none;stroke-width:11.9321;stroke-linecap:round;stroke-linejoin:miter;stroke-miterlimit:4;stroke-dasharray:none;stroke-dashoffset:0;stroke-opacity:1"
     d="M 184.05859 11.181641 C 181.90346 11.189141 179.55188 12.047037 177.35938 14.080078 L 146.13281 44.8125 C 148.22819 46.454289 150.2274 48.21316 152.12109 50.083984 C 153.94511 51.958535 155.66205 53.936104 157.26367 56.003906 L 188.52148 25.242188 C 195.21857 18.784276 190.524 11.159238 184.05859 11.181641 z M 116.41797 32.095703 C 112.14885 32.108433 106.69446 38.612867 109.20117 42.224609 L 158.79102 91.814453 C 159.4089 92.13337 160.06265 92.288192 160.72461 92.308594 C 165.35829 92.451384 170.50135 85.964074 168.19922 82.40625 L 118.60938 32.816406 C 117.95814 32.313944 117.20855 32.093346 116.41797 32.095703 z M 123.16406 33.667969 L 167.26758 77.771484 C 163.87736 67.508439 158.14263 58.176051 150.51953 50.513672 C 142.83915 42.841881 133.47183 37.073039 123.16406 33.667969 z M 124.04102 60.560547 L 102.5957 74.365234 L 101.7793 74.894531 L 101.14648 74.373047 C 98.968596 72.966274 94.73456 74.265133 93.072266 74.933594 C 92.789017 75.311384 92.394531 76.003803 92.394531 76.123047 C 92.394531 76.195617 93.427404 76.389898 94.277344 76.476562 C 95.416505 76.592708 95.934531 77.084689 95.626953 77.759766 C 95.375683 78.311244 94.315435 78.658421 90.785156 79.339844 C 89.994925 79.492378 89.037513 79.73502 88.658203 79.878906 C 87.876272 80.17555 87.174235 80.790785 87.259766 81.105469 C 87.290266 81.217668 87.346776 81.449995 87.384766 81.621094 C 87.461296 81.965692 87.437646 81.959665 89.253906 82.158203 C 89.834309 82.221623 90.469291 82.355286 90.666016 82.457031 C 91.378007 82.825187 91.358875 83.712122 90.630859 84.046875 C 89.950503 84.359733 89.45434 84.472052 86.757812 84.927734 C 85.274715 85.178374 83.872336 85.438029 83.642578 85.503906 C 83.047998 85.674439 82.657978 86.018872 82.332031 86.662109 C 82.05571 87.207348 82.054845 87.223926 82.271484 87.339844 C 82.393714 87.405264 83.079559 87.460362 83.794922 87.460938 C 84.922665 87.46192 85.173494 87.498828 85.683594 87.736328 C 86.552288 88.14087 86.849736 88.703083 86.521484 89.316406 C 86.317254 89.698014 85.801169 89.834401 82.480469 90.386719 C 79.291716 90.917085 78.172972 91.192636 77.476562 91.619141 C 77.039434 91.886841 76.761719 92.36378 76.761719 92.84375 C 76.761719 93.226045 76.841969 93.246926 78.714844 93.384766 C 80.44143 93.511833 81.128906 93.821463 81.128906 94.470703 C 81.128906 95.261883 80.122071 95.645619 76.302734 96.308594 C 73.955644 96.716012 72.822577 97.029695 72.322266 97.408203 C 71.991425 97.658502 71.311236 99.010531 71.423828 99.195312 C 71.447078 99.233453 71.888415 99.298937 72.402344 99.341797 C 74.25158 99.496017 75.251218 99.852184 75.496094 100.44336 C 75.662329 100.84468 75.509164 101.24013 75.033203 101.64062 C 74.211696 102.33189 73.455758 102.53461 70.513672 102.85742 C 67.314207 103.20846 67.030528 103.29139 66.425781 104.05469 C 66.047602 104.53203 65.98986 104.75251 66.207031 104.88672 C 66.281521 104.93272 66.978566 105.03481 67.755859 105.11523 C 68.608608 105.20353 69.368278 105.349 69.669922 105.48242 C 70.633732 105.90868 70.645685 106.79944 69.699219 107.67188 C 69.141281 108.18617 68.515802 108.53503 67.912109 108.66992 C 67.690845 108.71932 66.448321 108.76992 65.152344 108.78125 C 62.553197 108.80375 61.876388 108.9283 61.318359 109.48633 C 61.049522 109.75517 60.697565 110.62921 60.8125 110.74414 C 60.83655 110.76814 61.248947 110.86331 61.728516 110.95508 C 63.931629 111.37661 65.365483 112.81207 64.580078 113.81055 C 64.306074 114.15889 63.194587 114.38947 59.199219 114.93164 C 55.977236 115.36886 55.560918 115.50124 55.193359 116.19531 C 54.869174 116.80749 54.861659 116.79899 56.150391 117.00195 C 58.060522 117.30278 59.072078 118.59655 58.390625 119.86719 C 58.233366 120.16041 56.611338 120.19542 57.195312 120.78906 L 58.212891 121.82422 L 59.560547 123.34961 L 67.146484 130.93555 L 132.01367 68.529297 L 124.04102 60.560547 z M 133.57422 70.091797 L 68.708984 132.5 L 71.394531 135.18555 L 71.294922 135.25977 C 71.61467 135.62838 71.927258 135.98997 72.275391 136.38672 L 72.273438 136.38867 C 74.339543 138.74317 76.078122 140.68058 76.134766 140.69336 C 76.191426 140.70616 76.329407 140.65736 76.443359 140.58594 C 76.557312 140.51454 77.009463 140.48634 77.449219 140.52344 L 78.25 140.5918 L 78.603516 139.46094 C 79.122301 137.7992 80.070504 137.11139 81.574219 137.30664 L 82.396484 137.41406 L 82.566406 136.68164 C 82.93268 135.11507 84.060427 134.27665 85.607422 134.41992 L 86.365234 134.49023 L 86.681641 133.625 C 87.213825 132.16376 87.778239 131.73644 89.162109 131.75391 C 89.766399 131.76191 90.109209 131.39947 90.306641 130.54102 C 90.450792 129.91579 90.904339 129.05854 91.251953 128.75781 C 91.395878 128.63324 91.983282 128.45756 92.554688 128.36523 L 93.591797 128.19531 L 93.908203 127.25391 C 94.302589 126.07697 94.783406 125.71893 95.970703 125.71289 C 96.443212 125.70989 96.924528 125.66389 97.039062 125.60938 C 97.153545 125.55487 97.385439 125.06902 97.554688 124.53125 C 97.723973 123.99348 98.030503 123.35467 98.236328 123.11133 C 98.609443 122.67028 98.710558 122.64846 100.45312 122.625 C 100.97609 122.618 101.08943 122.5324 101.50977 121.82617 C 102.07401 120.87754 102.59192 120.50203 103.7207 120.21875 C 104.60661 119.99636 104.97156 119.63771 105.16211 118.80469 C 105.41791 117.68647 106.04825 117.24002 107.35156 117.25586 C 107.67713 117.25986 107.79916 117.15491 107.91602 116.76953 C 107.99792 116.49884 108.29997 116.08161 108.58594 115.84375 C 109.07172 115.43915 111.04337 114.66022 111.38477 114.73828 C 111.78176 114.82908 113.18112 114.01869 114.62695 112.86328 C 115.50242 112.16382 117.11536 110.9394 118.20898 110.14062 C 120.44962 108.50463 121.64045 107.40061 123 105.70312 C 123.92584 104.54732 124.13891 104.11773 124.16602 102.63672 L 127.92773 99.695312 L 141.54688 78.064453 L 133.57422 70.091797 z M 52.113281 131.23828 L 51.634766 131.76953 L 51.632812 131.76758 C 49.678042 130.72814 48.586989 131.63225 47.445312 131.78125 C 45.953835 131.9759 44.544567 132.1811 44.3125 132.23828 C 43.711907 132.38629 43.308908 132.71714 42.958984 133.34766 C 42.662329 133.8821 42.658949 133.89749 42.871094 134.02148 C 42.990678 134.09148 43.673831 134.17366 44.388672 134.20117 C 45.51558 134.24467 45.764823 134.29036 46.265625 134.54688 C 47.118464 134.98384 47.397986 135.55573 47.046875 136.15625 C 46.828418 136.52989 46.305926 136.64728 42.966797 137.07422 C 39.76034 137.48417 38.631894 137.7172 37.919922 138.11719 C 37.473015 138.36826 37.178228 138.83483 37.160156 139.31445 C 37.145756 139.69647 37.225436 139.72145 39.091797 139.92969 C 40.812378 140.12165 41.485376 140.45669 41.460938 141.10547 C 41.431077 141.89609 40.41175 142.24091 36.570312 142.75977 C 34.209554 143.07857 33.064978 143.34957 32.550781 143.70898 C 32.21076 143.94668 31.480365 145.27203 31.585938 145.46094 C 31.607748 145.49994 32.044691 145.58236 32.556641 145.64453 C 34.398761 145.86824 35.38497 146.26135 35.607422 146.86133 C 35.758433 147.26863 35.590312 147.65871 35.099609 148.04102 C 34.252664 148.70086 33.491217 148.8741 30.539062 149.08594 C 27.729968 149.28769 27.159627 149.37005 26.636719 149.88281 C 26.562009 149.95611 26.487426 150.03646 26.408203 150.12891 C 26.012304 150.59166 25.946231 150.80888 26.158203 150.95117 C 26.230913 150.99997 26.92355 151.13059 27.697266 151.24023 C 28.546089 151.3605 29.299305 151.53502 29.595703 151.67969 C 30.542785 152.14192 30.521602 153.02906 29.542969 153.86523 C 29.114604 154.23124 28.65007 154.50533 28.191406 154.66797 L 29.695312 156.08594 L 29.625 156.16406 L 34.482422 161.02148 L 59.478516 138.60352 L 52.113281 131.23828 z M 106.78516 132.56445 C 106.30915 132.56445 91.381216 161.63325 90.896484 163.50391 C 88.633912 172.23545 94.67581 181.77466 103.53906 183.46484 C 112.31249 185.13789 120.79492 179.59448 122.72266 170.92969 C 123.36808 168.02868 123.22933 164.77977 122.35352 162.32031 C 121.73266 160.57683 107.07652 132.56445 106.78516 132.56445 z M 61.042969 140.16797 L 36.046875 162.58398 L 40.902344 167.44141 L 41.291016 167.16016 C 41.491366 167.13996 41.817452 167.15618 42.134766 167.20508 L 42.925781 167.32812 L 43.359375 166.22656 C 43.492577 165.88584 43.644321 165.59098 43.810547 165.33789 L 45.300781 164.25781 C 45.652632 164.18771 46.042901 164.196 46.474609 164.2832 L 47.285156 164.44922 L 47.507812 163.72852 C 47.982859 162.19143 49.166114 161.43638 50.699219 161.6875 L 51.449219 161.81055 L 51.828125 160.96875 C 52.461305 159.54835 53.052397 159.16305 54.431641 159.27734 C 55.03392 159.32724 55.399197 158.98902 55.65625 158.14648 C 55.843828 157.53289 56.358746 156.70924 56.726562 156.43359 C 56.878841 156.31941 57.47627 156.18493 58.052734 156.13281 L 59.099609 156.03711 L 59.480469 155.12109 C 59.956281 153.97464 60.461655 153.64747 61.646484 153.72461 C 62.118007 153.75521 62.598732 153.74367 62.716797 153.69727 C 62.834756 153.65087 63.102114 153.18476 63.308594 152.66016 C 63.515107 152.13558 63.865533 151.51934 64.087891 151.29102 C 64.490966 150.87717 63.814758 150.95217 65.554688 151.05078 C 66.076859 151.08028 66.195367 151.00329 66.664062 150.32812 C 67.06256 149.75389 67.54021 148.33871 68.080078 147.77148 L 68.376953 147.55469 C 68.380753 147.55369 68.384852 147.55178 68.388672 147.55078 L 68.386719 147.54883 L 68.408203 147.5332 L 61.042969 140.16797 z M 25.650391 154.95508 L 8.2890625 172.31641 C 7.4244578 180.86648 14.84359 188.95057 23.873047 188.81641 C 24.164297 188.81141 24.457539 188.80014 24.751953 188.77734 L 42.111328 171.41602 L 25.650391 154.95508 z "
     transform="scale(0.26458335)" />
</svg>
