<?xml version="1.0" encoding="UTF-8" standalone="no"?>
<!-- Created with Inkscape (http://www.inkscape.org/) -->

<svg
   width="150"
   height="150"
   viewBox="0 0 39.6875 39.6875"
   version="1.1"
   id="svg1168"
   xmlns="http://www.w3.org/2000/svg"
   xmlns:svg="http://www.w3.org/2000/svg">
  <defs
     id="defs1165" />
  <path
     id="path2708"
     style="fill:#000000;stroke-width:0.503894"
     d="M 76.009766 2.4160156 C 72.84022 2.3975563 69.871385 3.1595272 66.574219 4.5722656 C 64.100492 5.6364453 62.856109 5.5501331 64.011719 4.3945312 C 64.968631 3.4376238 64.709637 2.9921875 63.195312 2.9921875 C 62.118367 2.9921875 60.768101 3.953374 57.525391 7.03125 C 54.213523 10.174654 52.848584 11.139421 51.369141 11.380859 C 49.937815 11.614457 48.817284 12.36922 46.833984 14.431641 C 45.385269 15.938163 43.405544 17.655823 42.435547 18.25 C 38.792819 20.481353 34.833922 24.805218 33.066406 28.482422 C 32.122524 30.446118 31.349609 32.272401 31.349609 32.541016 C 31.349609 32.809612 30.329166 34.47891 29.082031 36.25 C 26.507399 39.906289 26.184988 40.904545 28.175781 39.058594 C 29.798227 37.554194 30.227261 37.708268 29.121094 39.396484 C 28.68226 40.066224 28.455186 40.746205 28.617188 40.908203 C 29.073248 41.364267 27.834771 43.36908 27.300781 43.039062 C 27.040757 42.87832 26.953142 43.078463 27.107422 43.480469 C 27.261774 43.882542 27.145622 44.35999 26.849609 44.542969 C 26.553578 44.725973 26.310547 44.604259 26.310547 44.273438 C 26.310547 43.942578 25.840148 44.272812 25.263672 45.005859 C 24.687196 45.738725 23.96403 46.181182 23.658203 45.992188 C 23.296465 45.768591 23.393613 45.546825 23.933594 45.357422 C 24.465619 45.170789 24.616912 44.831204 24.355469 44.408203 C 24.051239 43.915965 23.723175 44.091288 23.0625 45.099609 C 22.340803 46.200971 22.241299 47.046015 22.521484 49.662109 C 22.839101 52.628075 22.937565 52.832231 23.832031 52.353516 C 24.591464 51.947209 24.800781 52.002534 24.800781 52.609375 C 24.800781 53.034836 25.08324 53.325142 25.429688 53.255859 C 25.776084 53.186618 26.011728 53.392738 25.951172 53.712891 C 25.772298 54.659076 27.206966 54.906634 27.558594 53.990234 C 27.735925 53.528021 27.642636 53.070342 27.349609 52.972656 C 26.672496 52.746905 26.646241 50.863281 27.320312 50.863281 C 27.59748 50.863281 27.824219 51.241221 27.824219 51.703125 C 27.824219 53.136639 28.280423 52.168265 28.521484 50.224609 C 28.647592 49.207867 29.109151 47.863219 29.546875 47.238281 C 30.541287 45.818536 30.553469 46.479277 29.591797 49.648438 C 28.690568 52.619259 28.660975 53.041103 29.386719 52.59375 C 29.364237 52.849885 29.33998 53.101851 29.320312 53.371094 L 29.107422 56.308594 L 29.337891 56.222656 C 29.241158 56.789944 29.152519 57.327168 29.015625 58.042969 C 28.721668 59.579959 28.913219 59.701256 30.283203 58.845703 C 30.556268 58.675171 30.815054 58.581983 31.0625 58.525391 C 31.050197 59.949587 31.067165 61.442403 31.117188 62.970703 C 30.020322 63.446353 28.304918 63.823682 25.554688 64.273438 C 23.584445 64.595641 22.893051 64.581032 20.771484 64.162109 C 19.245831 63.860843 19.092269 63.91318 19.632812 64.564453 C 20.151657 65.189629 20.023439 65.427969 18.875 65.976562 C 18.115027 66.339586 16.76156 66.586524 15.867188 66.523438 C 13.904004 66.384993 12.203125 66.867618 12.203125 67.564453 C 12.203125 67.868932 12.812262 67.942339 13.714844 67.744141 C 14.868845 67.490686 15.224609 67.588555 15.224609 68.164062 C 15.224609 68.578699 14.942147 69.042696 14.595703 69.193359 C 14.249268 69.344011 14.647027 69.308154 15.478516 69.113281 C 16.309942 68.918711 17.932539 68.756401 19.083984 68.753906 C 20.235416 68.75193 21.071878 68.580857 20.943359 68.373047 C 20.814852 68.165248 21.159084 67.994141 21.707031 67.994141 C 22.255007 67.994141 23.098195 67.841863 23.582031 67.65625 C 24.124852 67.44796 24.339635 67.517097 24.142578 67.835938 C 23.94452 68.156403 24.294639 68.26273 25.066406 68.115234 C 25.750868 67.984387 26.310547 68.050153 26.310547 68.259766 C 26.310547 68.837327 24.646736 69.976996 23.791016 69.986328 C 23.119297 69.993509 23.119297 69.941963 23.791016 69.507812 C 24.38932 69.121134 24.286241 69.019531 23.289062 69.019531 C 22.064873 69.019531 20.010665 69.945589 21.019531 70.042969 C 21.296699 70.069803 20.845112 70.424452 20.013672 70.830078 C 18.585552 71.526796 18.716945 71.552132 22.40625 71.298828 C 24.954587 71.123874 26.310547 71.213422 26.310547 71.556641 C 26.310547 71.845963 26.815696 71.730223 27.431641 71.298828 C 28.118939 70.817425 28.917601 70.573956 29.513672 70.554688 C 26.96573 72.850318 22.855382 76.254374 18.060547 79.101562 C 18.068384 78.703035 19.545428 77.278708 21.511719 75.798828 C 25.756409 72.604182 27.003989 71.220653 24.007812 73.029297 C 20.479282 75.159197 17.811437 77.176863 17.519531 77.9375 C 17.362567 78.346347 16.907077 78.557492 16.507812 78.404297 C 16.0404 78.224883 15.873944 78.367992 16.042969 78.808594 C 16.178922 79.162879 16.519407 79.468424 16.980469 79.726562 C 13.907006 81.457558 10.589663 82.918251 7.2480469 83.695312 L 5.1074219 84.191406 L 11.722656 103.94531 L 13.582031 103.37695 C 16.054368 102.62099 18.530258 101.54914 20.914062 100.31641 C 20.338715 104.43708 20.150986 108.08012 20.574219 109.6582 C 20.896563 110.85999 22.405142 111.7102 22.691406 110.85156 C 23.04328 109.79597 23.788691 110.91238 23.5 112.0625 C 23.369786 112.58129 23.492901 113.44382 23.767578 114.20703 C 23.389908 114.42427 23.00407 114.63491 22.607422 114.83789 C 22.672976 114.4906 22.626258 114.41847 22.314453 114.85742 C 22.2486 114.95012 22.200736 114.99974 22.146484 115.06641 C 21.991163 115.14255 21.841628 115.22261 21.683594 115.29688 C 21.574865 115.24007 21.461524 115.12172 21.306641 114.88086 C 21.073287 114.51801 21.004046 114.87774 21.013672 115.5957 C 16.834873 117.4513 11.781548 118.7406 6.1328125 120.18359 L 6.1328125 149.75586 L 47.650391 149.75586 C 49.141804 146.57097 50.596175 142.94827 52.568359 138.86133 C 55.476411 132.58231 56.506855 130.06641 57.355469 127.1543 L 58.03125 124.83203 L 58.736328 125.875 C 60.529015 128.52382 63.453102 130.98515 66.595703 132.48633 C 69.677647 133.9585 72.101764 134.65633 75 134.61719 C 77.89824 134.65634 80.322349 133.9585 83.404297 132.48633 C 86.546895 130.98515 89.470981 128.52382 91.263672 125.875 L 91.96875 124.83203 L 92.644531 127.1543 C 93.493141 130.06641 94.523589 132.58231 97.431641 138.86133 C 99.403828 142.94827 100.85819 146.57097 102.34961 149.75586 L 143.86719 149.75586 L 143.86719 120.18359 C 133.34988 117.49691 124.86481 115.36264 120.33203 109.06055 C 118.77553 106.86335 117.69595 104.46912 117.04102 101.64648 C 117.82032 101.59103 118.1538 101.50004 117.58789 101.39258 L 116.95312 101.27148 C 116.91336 101.08693 116.87604 100.8973 116.83984 100.70898 L 117.76562 99.742188 C 118.77341 98.690269 119.15302 97.754699 119.20703 96.173828 C 119.23468 95.364817 119.357 94.777571 119.51758 94.386719 C 119.9115 94.671752 120.31196 94.957519 120.72461 95.246094 C 120.72475 95.246813 120.72447 95.247327 120.72461 95.248047 C 121.20804 97.665195 121.11025 98.844994 120.29492 100.4082 C 119.80141 101.35438 119.74911 101.76916 120.14062 101.63867 C 121.30239 101.25142 122.46043 99.006749 122.75781 96.626953 C 126.85151 99.319689 131.6083 101.92662 136.35156 103.37695 L 138.21094 103.94531 L 144.82617 84.191406 L 142.68359 83.695312 C 131.96248 81.202216 121.52657 71.694956 118.54102 68.800781 C 118.64072 67.620297 118.72349 66.424758 118.78516 65.226562 C 119.31296 64.852593 122.05078 60.01055 122.05078 59.382812 C 122.05078 59.178001 122.28449 58.929879 122.57227 58.833984 C 123.29373 58.59372 123.79409 51.929114 123.26953 49.541016 L 122.8418 47.587891 L 122.55273 50.611328 C 122.39373 52.274177 122.13511 53.292539 121.98047 52.876953 C 120.04468 47.67463 119.47672 45.238125 120.03906 44.560547 C 120.33296 44.206443 120.1308 43.99198 119.45898 43.941406 C 119.11032 43.91514 118.75977 43.820097 118.41797 43.691406 C 117.37789 40.881966 116.07883 38.324688 114.41602 35.787109 C 114.19508 34.778482 114.27246 34.365693 114.63281 34.136719 C 115.01256 33.895434 114.71231 33.742756 113.85156 33.738281 C 112.46142 33.730344 112.20704 33.401703 111.25977 30.359375 C 110.98843 29.487985 111.21362 29.085215 112.32617 28.453125 L 113.73633 27.650391 L 112.16602 27.943359 C 110.60812 28.234704 110.5811 28.204736 108.95703 24.175781 C 106.08452 17.049748 103.02911 13.895089 99.060547 13.955078 C 97.279301 13.981951 96.857422 13.81588 96.857422 13.099609 C 96.857422 11.800042 94.103504 8.2214052 92.853516 7.8945312 C 85.704163 4.1368503 80.642178 2.4429947 76.009766 2.4160156 z M 74.298828 32.302734 C 86.926623 32.302734 99.133297 34.073789 110.74219 37.292969 C 113.43629 41.24159 115.16164 44.927472 116.375 50.011719 C 116.44783 50.316916 116.48758 51.008339 116.55273 51.445312 C 103.33171 46.692254 89.16718 43.878906 74.298828 43.878906 C 59.952826 43.878906 46.265313 46.504452 33.439453 50.943359 C 33.48565 50.678037 33.517261 50.217635 33.566406 50.011719 C 34.825267 44.737097 36.62747 40.962839 39.507812 36.849609 C 50.624854 33.916708 62.267632 32.302734 74.298828 32.302734 z M 31.257812 39.814453 C 31.370068 39.797445 31.34158 40.199789 31.154297 41.037109 C 30.916432 42.100423 30.962623 42.328038 31.308594 41.806641 C 31.752782 41.137128 32.202855 41.271678 32.275391 41.798828 C 32.09552 42.217414 31.920627 42.639351 31.753906 43.068359 C 31.556494 43.180271 31.324845 43.209029 31.095703 43.121094 C 30.682335 42.962467 30.341797 43.051778 30.341797 43.320312 C 30.341797 43.588772 30.126244 43.806641 29.863281 43.806641 C 29.600324 43.806641 29.73926 42.959201 30.169922 41.919922 C 30.737241 40.550966 31.113502 39.836068 31.257812 39.814453 z M 72.177734 53.220703 L 72.177734 53.222656 L 72.177734 54.15625 C 72.088276 54.274849 71.901014 54.286053 71.697266 54.160156 C 71.439275 54.000736 71.086202 54.101163 70.912109 54.382812 C 70.773476 54.607165 70.500637 54.731319 70.210938 54.804688 C 70.23437 54.938557 70.246974 55.083077 70.238281 55.25 C 70.206698 55.867443 70.133947 56.481588 70.085938 57.097656 C 69.533781 57.092185 68.971496 57.087005 68.380859 57.087891 C 68.438047 56.47563 68.502511 55.8639 68.535156 55.25 C 68.563881 54.707528 68.761854 54.341563 69.011719 54.148438 C 69.047598 53.980977 69.159006 53.680215 69.242188 53.427734 C 70.434592 53.392894 71.469013 53.331891 72.177734 53.220703 z M 47.736328 53.400391 L 47.785156 53.400391 C 48.070858 53.434391 48.554325 54.437328 48.916016 56.238281 C 48.994731 56.630181 49.030039 56.923911 49.087891 57.275391 C 48.779656 57.278474 48.398173 57.282505 48.111328 57.285156 C 47.938348 56.714464 47.780125 56.10124 47.677734 55.460938 C 47.461613 54.109481 47.535131 53.464049 47.736328 53.400391 z M 103.59961 53.400391 C 103.70942 53.85422 103.82237 54.316979 103.92383 54.642578 C 104.38064 56.108596 104.38943 56.111393 104.22266 54.767578 C 104.13008 54.0218 104.15238 53.42633 104.26562 53.400391 L 104.30273 53.400391 C 104.7265 53.453844 105.92578 54.824807 105.92578 55.271484 C 105.92578 55.437843 106.21371 55.805442 106.57812 56.199219 C 106.83272 57.306703 106.68749 57.146613 106.38672 57.265625 C 106.13134 57.366652 99.108938 57.239177 91.042969 57.179688 C 89.280027 57.166697 87.55777 57.143219 85.839844 57.121094 C 85.827875 57.036523 85.827622 56.997986 85.814453 56.908203 C 85.640822 55.724285 85.548077 55.189074 85.439453 55.175781 C 85.355018 55.165577 85.260178 55.470207 85.109375 56.037109 C 85.020268 56.372051 84.992889 56.745053 85.001953 57.111328 C 83.191919 57.089644 81.432485 57.074441 79.873047 57.089844 C 79.736604 57.030064 79.620787 56.957094 79.472656 56.908203 C 78.502659 56.588077 77.708973 56.093891 77.708984 55.808594 C 77.708984 55.523239 77.991467 55.395216 78.337891 55.525391 C 80.952107 56.507852 81.049555 56.480689 80.871094 54.771484 C 80.845698 54.528252 80.827723 53.833203 80.800781 53.429688 C 81.192468 53.441011 81.584231 53.451456 82.007812 53.457031 C 81.74543 53.758074 81.79023 53.830908 82.392578 53.601562 C 82.499034 53.561031 82.546512 53.509682 82.630859 53.462891 C 85.52635 53.484538 88.894966 53.407567 91.320312 53.40625 L 92.146484 53.40625 C 92.180875 53.498965 92.222221 53.57261 92.275391 53.605469 C 92.34688 53.649647 92.429725 53.556803 92.513672 53.40625 L 103.59961 53.400391 z M 54.359375 53.402344 L 58.679688 53.404297 C 58.757199 53.404339 58.877598 53.406054 58.957031 53.40625 C 58.952654 53.409489 58.945714 53.424751 58.941406 53.427734 C 58.705979 53.590745 58.868214 54.017981 59.300781 54.376953 C 59.994684 54.952836 59.896866 55.168513 58.470703 56.220703 C 57.740905 56.759128 57.281791 57.052708 57.021484 57.199219 C 56.841945 57.200811 56.712979 57.201493 56.535156 57.203125 C 56.3188 56.957721 55.863429 56.314863 55.291016 55.408203 C 54.858026 54.722293 54.561992 54.079806 54.359375 53.402344 z M 59.800781 53.414062 C 60.038762 53.415719 60.330638 53.417511 60.580078 53.419922 C 60.287179 53.677764 59.993913 53.886719 59.873047 53.886719 C 59.71498 53.886719 59.729351 53.677583 59.800781 53.414062 z M 65.34375 53.460938 C 65.698144 53.46274 66.01143 53.464927 66.359375 53.464844 C 66.339599 53.518434 66.340754 53.535393 66.318359 53.59375 C 66.150133 54.032126 65.808068 54.390625 65.560547 54.390625 C 65.057262 54.390631 65.018575 53.959872 65.34375 53.460938 z M 64.134766 53.886719 C 64.395553 53.886719 64.609375 54.113601 64.609375 54.390625 C 64.609375 54.667778 64.254224 54.892578 63.822266 54.892578 C 63.390175 54.892578 63.176395 54.66777 63.347656 54.390625 C 63.518944 54.113548 63.873959 53.886719 64.134766 53.886719 z M 118.875 56.099609 L 119.91406 56.501953 C 119.90277 57.19606 119.86207 57.861109 119.7793 58.462891 C 119.41693 61.097595 119.11392 61.296267 118.93359 59.712891 C 118.93651 58.452963 118.91812 57.234912 118.875 56.099609 z M 62.652344 56.185547 C 62.966082 56.166271 63.327239 56.396766 63.587891 56.972656 C 63.610844 57.02337 63.633324 57.074275 63.65625 57.125 C 63.106873 57.132206 62.557651 57.137385 62 57.144531 C 61.994765 56.588594 62.282055 56.208357 62.652344 56.185547 z M 77.617188 56.617188 C 77.579279 56.659555 77.538689 56.700587 77.496094 56.740234 C 77.580906 56.870363 77.643613 57.003824 77.707031 57.136719 C 77.616598 57.139961 77.516284 57.140939 77.427734 57.144531 L 77.427734 56.652344 C 77.438988 56.668573 77.455892 56.684919 77.466797 56.701172 C 77.470576 56.686054 77.475114 56.671104 77.478516 56.65625 C 77.525004 56.643778 77.64935 56.581358 77.617188 56.617188 z M 77.466797 56.701172 C 77.45886 56.730652 77.451296 56.759545 77.443359 56.789062 C 77.461123 56.773189 77.478821 56.756297 77.496094 56.740234 C 77.487023 56.72625 77.476246 56.714816 77.466797 56.701172 z M 120.71094 59.117188 C 120.84715 59.120153 120.86127 59.317979 120.73242 59.654297 C 120.39744 60.527269 120.03516 60.687706 120.03516 59.962891 C 120.03516 59.702103 120.26123 59.350956 120.53516 59.181641 C 120.60659 59.137458 120.66551 59.116129 120.71094 59.117188 z M 119.28125 61.443359 C 120.22728 61.443359 120.22269 61.636233 119.24219 63.53125 C 119.05442 63.894357 118.92207 64.22715 118.81836 64.523438 C 118.86414 63.513551 118.89518 62.513729 118.91406 61.527344 C 119.02485 61.47884 119.14533 61.443359 119.28125 61.443359 z M 28.076172 62.46875 C 27.799004 62.46875 27.232126 62.688333 26.816406 62.957031 C 26.400865 63.225718 26.2873 63.443359 26.564453 63.443359 C 26.841587 63.443359 27.408499 63.225729 27.824219 62.957031 C 28.239935 62.688382 28.35331 62.46875 28.076172 62.46875 z M 91.730469 63.462891 L 91.730469 63.464844 L 107.00195 63.464844 C 107.00195 63.464844 107.33877 65.571518 107.33008 66.332031 C 107.28676 67.004798 106.98437 67.589844 106.98438 67.589844 L 91.710938 67.589844 C 91.710938 67.589844 83.054498 67.111426 77.427734 67.535156 L 77.427734 63.496094 C 80.479824 63.614053 91.730469 63.462891 91.730469 63.462891 z M 54.058594 63.464844 L 56.332031 63.464844 C 56.623378 65.175472 56.308716 66.749628 54.361328 66.146484 C 54.117895 65.903015 54.027736 64.77438 54.058594 63.464844 z M 59.605469 63.478516 C 59.970989 63.482973 60.723625 63.488263 61.464844 63.496094 C 61.963053 64.574589 62.470862 65.648449 62.982422 66.720703 C 63.399123 66.966671 63.778867 67.198922 64.087891 67.392578 C 62.104561 67.429771 60.505454 67.488825 59.46875 67.535156 C 59.319282 67.028076 59.258329 66.609403 59.849609 66.775391 C 59.849364 66.331659 59.954073 65.877088 59.970703 65.431641 C 60.146111 65.450538 60.329515 65.439899 60.503906 65.464844 C 60.195072 64.807108 59.90667 64.139875 59.605469 63.478516 z M 72.177734 63.503906 L 72.177734 67.509766 C 69.708524 67.345456 66.756502 67.344161 64.193359 67.390625 C 64.173545 67.238287 64.157297 67.109483 64.128906 66.886719 C 64.044774 66.227032 64.015884 65.560412 63.919922 64.902344 C 63.85601 64.464334 63.443706 63.990855 63.644531 63.599609 C 63.623272 63.570171 63.61856 63.54497 63.603516 63.517578 C 65.613735 63.533216 67.533061 63.538381 69.382812 63.53125 C 69.349302 63.77186 69.325409 64.013396 69.291016 64.253906 C 70.127841 66.170206 70.430384 68.896025 70.875 65.925781 C 71.0396 64.885847 71.179148 64.215962 71.326172 63.511719 C 71.573222 63.507521 71.975413 63.509645 72.177734 63.503906 z M 67.513672 64.226562 C 67.428066 64.55644 67.344944 64.888004 67.261719 65.21875 C 67.310399 65.331947 67.36358 65.443406 67.412109 65.556641 C 67.470843 65.173026 67.510545 64.786351 67.566406 64.402344 C 67.549398 64.343799 67.52981 64.285372 67.513672 64.226562 z M 56.947266 65.580078 C 57.32004 65.56874 57.778984 65.816649 58.117188 66.412109 C 58.335397 66.796305 58.551967 67.181414 58.765625 67.568359 C 58.648382 67.574363 58.287109 67.589844 58.287109 67.589844 L 56.839844 67.589844 C 56.739032 67.407081 56.637663 67.224665 56.535156 67.042969 C 56.043383 66.171296 56.402405 65.597339 56.947266 65.580078 z M 30.236328 66.855469 C 31.346644 66.879658 31.462188 67.781791 30.027344 68.435547 C 28.514438 69.12488 27.474927 69.158904 27.087891 68.533203 C 26.742207 67.973882 27.344387 67.559142 29.314453 66.994141 C 29.669729 66.892245 29.9801 66.849875 30.236328 66.855469 z M 59.810547 66.884766 C 59.80261 66.889679 59.825875 66.915392 59.855469 66.949219 C 59.854486 66.931455 59.852383 66.912635 59.851562 66.894531 C 59.828886 66.884704 59.81512 66.881364 59.810547 66.884766 z M 53.777344 67.138672 C 54.067789 67.120658 54.41924 67.278201 54.761719 67.589844 L 53.167969 67.589844 C 53.255127 67.333022 53.477183 67.157491 53.777344 67.138672 z M 77.427734 73.695312 C 80.319954 74.337318 91.705078 74.337891 91.705078 74.337891 C 97.2581 74.311434 101.37533 74.082119 106.58789 74.611328 C 105.99885 74.795731 105.81733 77.31042 105.36914 78.474609 C 105.3612 78.935462 103.12691 79.002895 88.730469 78.984375 C 85.10199 78.950359 80.700246 78.771804 77.427734 78.865234 L 77.427734 73.695312 z M 72.177734 73.763672 L 72.177734 78.855469 C 68.950993 78.785812 64.752673 78.951531 61.267578 78.984375 C 55.192435 78.99219 51.369153 78.983401 48.878906 78.9375 C 48.5683 77.013362 48.595762 75.728644 48.994141 74.287109 C 51.944806 74.229371 54.842568 74.321513 58.294922 74.337891 C 58.294922 74.337891 68.801936 74.335204 72.177734 73.763672 z M 118.02539 73.78125 C 122.35488 77.626746 130.52859 84.01618 139.73828 86.796875 L 135.7832 98.599609 C 131.58714 97.019581 127.25787 94.484068 123.55273 91.994141 C 123.28701 90.32449 122.59331 87.989308 122.01562 87.447266 C 121.56912 87.028483 121.56872 87.17553 122.02148 88.050781 C 122.34993 88.688645 122.54622 89.709096 122.45898 90.318359 C 122.33747 91.167332 121.93386 90.687856 120.73047 88.265625 C 119.23276 85.25073 119.18505 83.880591 120.625 85.255859 C 121.41706 86.012339 123.86397 87.142578 124.70703 87.142578 C 125.03279 87.142578 124.79054 86.788169 124.16992 86.353516 C 123.54933 85.918832 123.15674 85.377083 123.29688 85.150391 C 123.43693 84.923732 123.10252 84.6223 122.55273 84.478516 C 122.00296 84.334705 121.41932 83.796458 121.25586 83.285156 C 120.76741 81.757335 119.54179 78.837203 117.87305 75.138672 C 117.92204 74.689849 117.97355 74.243393 118.02539 73.78125 z M 27.695312 77.283203 C 28.073325 77.264305 28.337653 78.444374 29.078125 82.019531 C 29.578309 84.434404 29.679412 86.005477 29.371094 86.554688 C 28.943235 87.316836 28.86441 87.302574 28.521484 86.412109 C 28.313508 85.872019 28.127663 84.683629 28.109375 83.769531 C 28.090742 82.855434 27.821583 82.106485 27.509766 82.105469 C 26.562031 82.102509 26.233103 79.111597 27.052734 77.941406 C 27.178887 77.761289 27.284641 77.619962 27.382812 77.507812 C 27.443772 77.461327 27.506024 77.415468 27.566406 77.369141 C 27.608891 77.34251 27.656001 77.285188 27.695312 77.283203 z M 23.476562 80.322266 C 24.575685 80.269946 24.602664 80.479052 24.408203 81.222656 C 24.192781 82.046892 24.313981 82.205091 24.970703 81.953125 C 25.430964 81.776508 25.806641 81.832052 25.806641 82.076172 C 25.806641 82.724085 22.068192 83.251079 20.150391 82.873047 C 19.745774 82.793291 19.607108 82.79736 19.412109 82.783203 C 20.815247 81.997156 22.153325 81.166474 23.421875 80.326172 C 23.435642 80.325454 23.463118 80.322906 23.476562 80.322266 z M 19.109375 82.949219 C 19.155878 82.989927 19.179628 83.021094 19.255859 83.074219 C 19.671572 83.363957 20.409528 83.603314 20.894531 83.607422 C 21.92354 83.616493 21.963751 83.804179 21.240234 85.285156 C 20.781069 86.225023 20.852535 86.202671 21.732422 85.126953 C 22.683596 83.964064 22.764436 83.944715 22.789062 84.875 C 22.813743 85.809541 22.85217 85.817751 23.333984 84.990234 C 24.51823 82.956081 24.613702 84.874145 23.501953 88.375 C 22.890471 90.300563 22.339384 92.539048 21.867188 94.833984 C 19.361498 96.295098 16.730005 97.628316 14.150391 98.599609 L 10.201172 86.789062 C 13.325488 85.844818 16.331616 84.483579 19.109375 82.949219 z M 26.46875 83.869141 L 26.869141 85.630859 C 27.088784 86.600856 27.147477 88.190171 27 89.160156 C 26.904825 89.785989 26.821006 90.810734 26.732422 91.759766 C 25.937627 92.298662 25.109849 92.840987 24.261719 93.376953 C 24.572439 91.215911 25.079231 88.680923 25.667969 86.640625 L 26.46875 83.869141 z M 77.427734 84.751953 C 80.586641 85.223279 89.878906 85.402344 89.878906 85.402344 C 97.446118 85.402344 103.28125 85.372882 103.28125 85.501953 C 102.59819 87.384986 102.25453 89.493655 100.95703 91.046875 L 88.503906 90.958984 C 88.503906 90.958984 82.178771 90.808679 77.427734 90.861328 L 77.427734 84.751953 z M 72.177734 84.804688 L 72.177734 90.859375 C 67.476648 90.818405 61.496094 90.958984 61.496094 90.958984 L 49.162109 91.046875 C 49.44098 89.459837 49.562578 87.514505 49.517578 85.416016 C 51.929815 85.397429 55.624965 85.402344 60.119141 85.402344 C 60.119141 85.402344 68.701964 85.235629 72.177734 84.804688 z M 116.9043 84.814453 C 117.55734 85.622267 118.21253 87.023809 118.58789 88.441406 C 118.24558 88.181614 117.93013 87.93824 117.61719 87.695312 C 117.5889 87.665209 117.55012 87.641894 117.51562 87.615234 C 117.31086 87.455892 117.10883 87.299027 116.91797 87.148438 C 116.84394 87.058077 116.76818 86.964605 116.69336 86.847656 C 116.7186 86.603739 116.74009 86.369608 116.76758 86.121094 C 116.81312 85.709195 116.85753 85.254855 116.9043 84.814453 z M 20.572266 86.847656 C 20.522402 86.834428 20.429166 86.937489 20.289062 87.144531 C 20.00778 87.560241 19.771677 88.332088 19.767578 88.863281 C 19.757184 90.152331 20.046507 89.753172 20.460938 87.900391 C 20.615289 87.210396 20.655491 86.869642 20.572266 86.847656 z M 41.039062 88.730469 C 41.119529 88.694185 41.267501 88.930496 41.552734 89.410156 C 41.882309 89.964447 42.206145 91.438401 42.269531 92.685547 C 42.295776 93.201623 42.338945 93.457166 42.376953 93.9375 C 41.830006 92.695462 41.326083 91.45945 40.855469 90.205078 C 40.883881 90.029224 40.93738 89.858017 40.939453 89.6875 C 40.946634 89.075904 40.958446 88.766775 41.039062 88.730469 z M 27.503906 90.339844 C 27.549759 90.347025 27.60375 90.423529 27.664062 90.574219 C 27.727657 90.73315 27.747443 90.902534 27.75 91.060547 C 27.635206 91.140467 27.520586 91.220533 27.404297 91.300781 C 27.380546 91.181648 27.351689 91.069334 27.359375 90.880859 C 27.374758 90.513981 27.427552 90.328275 27.503906 90.339844 z M 19.472656 90.568359 C 19.407471 90.603509 19.362019 90.906232 19.355469 91.425781 C 19.345453 92.257206 19.449858 92.657577 19.587891 92.316406 C 19.725885 91.975266 19.732691 91.296917 19.605469 90.806641 C 19.557575 90.622804 19.511748 90.547307 19.472656 90.568359 z M 116.31445 91.96875 C 116.64712 92.230825 116.99476 92.497874 117.35156 92.771484 C 117.21502 92.819932 117.20437 93.107942 117.35156 93.490234 C 117.59663 94.128854 117.74046 94.151303 118.08398 93.609375 C 118.15081 93.503958 118.17979 93.499733 118.23047 93.4375 C 118.30201 93.491101 118.37494 93.545727 118.44727 93.599609 C 118.38323 93.882613 118.25051 94.269629 118.00195 94.734375 C 117.37663 95.9028 116.90248 95.914198 116.2832 94.708984 C 116.27159 93.830724 116.27803 92.924065 116.31445 91.96875 z M 106.26562 93.777344 C 106.21839 94.501732 106.17965 95.298653 106.1543 96.216797 C 106.14423 96.581562 106.11091 96.851038 106.09766 97.203125 C 105.53316 98.346137 104.93141 99.516356 104.26172 100.75781 C 100.38039 107.95296 96.805724 112.71827 91.763672 117.42383 C 85.909932 122.8869 80.492987 125.55937 74.994141 125.6582 C 69.498636 125.55638 64.08661 122.88367 58.236328 117.42383 C 53.194276 112.71827 49.619607 107.95296 45.738281 100.75781 C 45.528523 100.36897 45.337358 100.00045 45.138672 99.623047 C 45.243568 99.115546 45.378032 98.610414 45.474609 98.109375 C 45.500275 97.976215 45.51221 97.810626 45.533203 97.664062 C 47.859118 102.37555 50.572421 106.79108 53.556641 110.55859 C 58.859227 117.25298 64.275283 121.36797 70.535156 123.45703 C 71.075527 123.63739 71.509082 123.76218 71.939453 123.85352 L 71.939453 123.91797 C 72.082319 123.92515 72.254175 123.9307 72.402344 123.9375 C 73.0559 124.03399 73.864653 124.04755 75 124.02344 C 76.134731 124.04763 76.944304 124.03403 77.597656 123.9375 C 77.7457 123.9307 77.917783 123.92515 78.060547 123.91797 L 78.060547 123.85352 C 78.490925 123.76216 78.924481 123.63737 79.464844 123.45703 C 85.724724 121.36797 91.140769 117.25298 96.443359 110.55859 C 100.2357 105.77084 103.58823 99.935242 106.26562 93.777344 z M 116.33398 96.322266 C 116.48195 96.456218 116.62799 96.56995 116.77148 96.728516 C 117.47436 97.505212 117.55502 97.890258 117.10742 98.337891 C 116.93781 98.507502 116.73964 98.634926 116.53711 98.744141 C 116.44367 97.969956 116.3767 97.162921 116.33398 96.322266 z M 32.617188 97.142578 C 32.644739 97.158452 32.673542 97.226447 32.705078 97.347656 C 32.831832 97.832653 32.831832 98.62632 32.705078 99.111328 C 32.578324 99.596192 32.476563 99.198531 32.476562 98.228516 C 32.476562 97.501032 32.534567 97.095039 32.617188 97.142578 z M 26.048828 97.353516 C 25.859036 97.652133 25.606483 97.923559 25.333984 98.09375 C 24.867607 98.38495 24.609553 98.469052 24.417969 98.357422 C 24.969933 98.026884 25.51486 97.692126 26.048828 97.353516 z M 57.193359 97.59375 L 57.193359 97.595703 C 57.666915 97.59712 58.176877 97.601121 58.78125 97.599609 C 60.137711 97.596816 61.601543 97.604588 63.111328 97.613281 C 63.111328 97.613281 69.061302 97.829679 72.177734 97.652344 L 72.177734 103.31836 C 70.566091 103.33348 69.212891 103.41797 69.212891 103.41797 C 64.51154 103.59598 59.595029 103.58845 55.902344 103.39648 C 53.993928 102.50045 53.771734 101.24759 52.394531 98.037109 C 54.685356 97.628773 55.772695 97.589494 57.193359 97.59375 z M 92.806641 97.595703 C 94.227301 97.591546 95.314648 97.630851 97.605469 98.039062 C 96.228258 101.24954 96.00608 102.5024 94.097656 103.39844 C 90.404978 103.59025 85.48846 103.59779 80.787109 103.41992 C 80.787109 103.41992 79.206607 103.32284 77.427734 103.32031 L 77.427734 97.626953 C 80.400956 97.850021 86.886719 97.615234 86.886719 97.615234 C 88.396496 97.606541 89.862293 97.600492 91.21875 97.603516 C 91.823123 97.604718 92.333081 97.596837 92.806641 97.595703 z M 30.099609 97.960938 C 30.578687 97.984352 30.846395 98.645842 30.84375 99.896484 C 30.839441 101.5803 29.254482 104.52986 28.667969 103.94336 C 27.993594 103.26886 28.324778 99.31195 29.123047 98.513672 C 29.459565 98.177105 29.756156 97.994785 30.001953 97.964844 C 30.035751 97.960726 30.067671 97.959376 30.099609 97.960938 z M 25.921875 99.757812 C 26.48733 99.733247 25.768021 102.80489 24.716797 104.90625 C 24.197018 105.94554 23.667355 106.79493 23.539062 106.79492 C 23.410843 106.79492 23.395313 105.5312 23.503906 103.98633 C 23.687826 101.38358 24.584541 99.816497 25.921875 99.757812 z M 27 103.98047 C 27.186789 104.0174 27.320313 104.31311 27.320312 104.75 C 27.320312 105.32064 27.093567 105.78711 26.816406 105.78711 C 26.539416 105.78711 26.310547 105.46183 26.310547 105.0625 C 26.310547 104.66313 26.539406 104.1947 26.816406 104.02344 C 26.85114 104.00227 26.883262 103.98862 26.916016 103.98242 C 26.944652 103.97687 26.973316 103.97519 27 103.98047 z M 26.949219 107.84375 C 26.973219 107.84079 26.99089 107.84336 27.001953 107.85742 C 27.090439 107.96597 26.735851 109.471 26.214844 111.20312 C 25.980596 111.98186 25.767658 112.58831 25.566406 113.07227 C 25.110701 113.3946 24.632968 113.6986 24.142578 113.99219 C 24.125855 113.96771 24.10853 113.95676 24.091797 113.92969 C 23.67326 113.25248 24.726842 110.18218 25.830078 108.86523 C 26.31594 108.28525 26.781547 107.86688 26.949219 107.84375 z M 77.427734 109.71484 C 78.586228 109.74054 80.536816 109.82812 81.628906 109.82812 C 84.719294 109.85496 88.161347 109.89595 90.828125 110.02344 C 87.082776 113.74076 91.125082 110.09034 86.056641 114.63281 C 84.575017 116.04589 81.698259 117.85337 79.171875 118.95898 C 78.470228 119.26603 77.859247 119.52007 77.435547 119.68555 C 77.43385 119.67081 77.430002 119.6089 77.427734 119.58789 L 77.427734 109.71484 z M 72.177734 109.72656 L 72.177734 119.52734 C 71.789082 119.36902 71.348063 119.18649 70.828125 118.95898 C 68.301745 117.85337 65.42498 116.04589 63.943359 114.63281 C 58.874937 110.09035 62.915275 113.74076 59.169922 110.02344 C 61.836707 109.89592 65.280706 109.85504 68.371094 109.82812 C 69.355169 109.82812 71.005858 109.75918 72.177734 109.72656 z M 58.818359 128.72656 L 58.443359 130.20508 C 57.879862 132.43347 56.990303 133.41937 55.630859 136.53711 C 54.164168 139.90084 54.136391 140.75607 55.34375 144.96094 C 55.840565 147.47505 56.444317 148.60708 57.162109 149.75586 L 78.060547 149.75586 L 92.837891 149.75586 C 93.55568 148.60708 94.157474 147.47505 94.654297 144.96094 C 95.861614 140.75607 95.835843 139.90084 94.369141 136.53711 C 93.009697 133.41937 92.120138 132.43347 91.556641 130.20508 L 91.181641 128.72656 L 90.386719 129.45312 L 86.136719 132.41602 C 85.795238 132.47543 84.673443 132.96873 83.462891 133.60938 C 80.313131 135.27617 77.659691 136.11657 75 136.16406 C 72.340309 136.11655 69.686869 135.27617 66.537109 133.60938 C 65.326561 132.96873 64.204758 132.47543 63.863281 132.41602 L 59.611328 129.45312 L 58.818359 128.72656 z "
     transform="scale(0.26458333)" />
</svg>
