<?xml version="1.0" encoding="UTF-8" standalone="no"?>
<!-- Created with Inkscape (http://www.inkscape.org/) -->

<svg
  width="150"
  height="150"
  viewBox="0 0 39.6875 39.6875"
  version="1.1"
  id="svg1168"
  xmlns="http://www.w3.org/2000/svg"
>
  <defs
    id="defs1165"/>
  <g
    id="layer1"/>
  <path
    id="path1176"
    style="stroke-width:0.243557"
    d="M 86.044922 5.3261719 C 84.8505 9.7247819 74.077227 33.159744 71.894531 34.503906 C 72.756747 36.057839 83.767937 41.416357 85.550781 40.998047 C 87.086475 34.497006 96.398291 17.254032 98.650391 14.658203 C 93.816163 13.542574 86.884593 6.8802932 86.044922 5.3261719 z M 108.5332 31.521484 C 106.71118 31.534349 104.54739 31.665814 103.38281 31.886719 C 99.131717 32.69313 95.077974 34.342931 92.060547 36.496094 C 89.916277 38.026194 89.795762 38.22564 90.912109 38.410156 C 92.494382 38.671696 95.638105 38.577575 97.958984 38.201172 C 102.44878 37.472985 107.06979 35.586785 110.31445 33.15625 C 111.73343 32.093333 111.92092 31.871707 111.53125 31.71875 C 111.16038 31.57317 109.95033 31.511478 108.5332 31.521484 z M 71.492188 35.068359 C 71.219207 39.624798 65.451167 64.838069 63.589844 66.617188 C 64.749471 67.953659 76.610855 70.852919 78.269531 70.064453 C 78.448386 63.379006 84.046259 44.531821 85.720703 41.513672 C 80.765225 41.450981 72.629803 36.409813 71.492188 35.068359 z M 89.470703 41.732422 L 90.457031 42.912109 C 93.398815 46.425747 97.464478 49.503723 102.75 52.21875 C 108.65602 55.252509 115.63421 57.214959 119.8457 57.027344 L 121.4707 56.955078 L 119.46289 54.808594 C 113.34876 48.278583 103.21685 43.131383 94.265625 42.007812 C 93.327932 41.890156 91.865327 41.78068 91.015625 41.763672 L 89.470703 41.732422 z M 88.023438 44.654297 C 87.791435 44.654297 87.375649 46.690239 87.078125 49.283203 C 86.024918 58.462198 88.613688 69.65279 93.539062 77.208984 C 94.575262 78.798684 94.97363 79.243157 95.125 78.972656 C 95.656995 78.022037 96.147114 73.813462 96.142578 70.228516 C 96.131481 61.56859 93.729304 53.079208 89.439453 46.542969 C 88.758087 45.504812 88.121063 44.654297 88.023438 44.654297 z M 63.351562 67.544922 C 63.755741 72.091161 61.416579 102.0551 59.839844 104.10156 C 61.183832 105.24327 73.336414 106.27415 74.859375 105.23828 C 74.047219 98.602077 77.092066 73.908359 78.300781 70.666016 C 76.363384 71.322837 64.674526 68.695043 63.351562 67.544922 z M 40.521484 68.345703 C 40.475689 68.351982 40.444945 68.374245 40.431641 68.414062 C 40.256966 68.938075 40.886679 73.237324 41.480469 75.578125 C 43.566284 83.800669 48.862444 92.721533 54.519531 97.539062 C 57.100763 99.737224 57.058372 99.739652 56.882812 97.462891 C 56.538297 92.995247 55.040333 87.986752 52.617188 83.203125 C 49.300403 76.655305 45.636347 71.975708 41.263672 68.703125 C 40.930748 68.453988 40.65887 68.326865 40.521484 68.345703 z M 25.449219 89.712891 C 25.129067 89.714408 24.835741 89.72207 24.587891 89.736328 C 23.596498 89.793512 22.504005 89.839844 22.162109 89.839844 C 21.551183 89.839844 21.557645 89.85835 22.503906 90.839844 C 23.033437 91.389085 24.344361 92.525125 25.416016 93.365234 C 32.056105 98.570623 41.23655 101.99866 49.666016 102.42188 C 53.233032 102.60095 54.640691 102.43231 54.322266 101.86328 C 53.92811 101.15897 50.745307 98.545847 48.376953 96.980469 C 42.74582 93.258541 35.158416 90.54077 28.451172 89.845703 C 27.600744 89.757914 26.409675 89.708337 25.449219 89.712891 z M 59.638672 104.70117 C 60.370018 109.2045 61.063335 140.04909 59.638672 142.20898 C 61.061441 143.24622 73.255212 143.35697 74.699219 142.20898 C 73.317034 140.02623 73.669328 109.26223 74.640625 105.9375 C 72.755941 106.73876 61.041077 105.7483 59.638672 104.70117 z M 53.84375 105.35742 L 52.539062 105.5293 C 49.54997 105.92097 45.282675 107.73762 41.583984 110.19531 C 38.765232 112.06831 35.201259 115.68819 34.074219 117.82031 L 33.767578 118.40039 L 34.949219 118.22266 C 39.246659 117.57971 44.986932 114.68743 49.123047 111.08008 C 50.650562 109.74784 52.954626 107.06771 53.541016 105.94141 L 53.84375 105.35742 z "
    transform="scale(0.26458333)"/>
</svg>
