<?xml version="1.0" encoding="UTF-8" standalone="no"?>
<!-- Created with Inkscape (http://www.inkscape.org/) -->

<svg
   width="150"
   height="150"
   viewBox="0 0 39.6875 39.6875"
   version="1.1"
   id="svg1168"
   xml:space="preserve"
   xmlns="http://www.w3.org/2000/svg"
   xmlns:svg="http://www.w3.org/2000/svg"><defs
     id="defs1165" /><path
     id="path5121"
     style="stroke-width:0.224011"
     d="M 22.911263 0.14211019 L 22.911263 2.4737508 C 22.7944 2.4898462 22.678625 2.5092378 22.562964 2.5290446 C 22.562797 2.5290739 22.562614 2.5290152 22.562447 2.5290446 C 22.548294 2.5315325 22.534208 2.5342568 22.520072 2.5367961 C 22.454716 2.5485359 22.389265 2.5602871 22.324219 2.5729696 C 22.322824 2.5732409 22.321479 2.5737313 22.320085 2.5740031 C 22.317338 2.5745395 22.314563 2.5750155 22.311816 2.5755534 C 22.31216 2.5756891 22.31243 2.576008 22.31285 2.5760701 C 22.477979 2.6036551 22.641728 2.6341146 22.804293 2.6675374 C 23.12858 2.7342124 23.447631 2.8121442 23.760824 2.9016317 C 23.762524 2.9021231 23.764191 2.902692 23.765991 2.903182 C 23.768891 2.9040229 23.771776 2.9049258 23.774776 2.9057658 C 23.926323 2.9492536 24.076659 2.995523 24.225395 3.0442586 C 24.228095 3.0451544 24.230863 3.0459524 24.233663 3.0468424 C 24.235063 3.0473001 24.236397 3.0479327 24.237797 3.0483927 C 24.390743 3.0986837 24.542212 3.1512638 24.692033 3.2070394 C 24.837422 3.2611652 24.980706 3.3183455 25.123014 3.3775716 C 25.135784 3.3828916 25.148505 3.3882353 25.161255 3.3935913 C 25.301796 3.4526471 25.441422 3.513577 25.5788 3.5775594 C 25.721699 3.6441112 25.862696 3.7134842 26.00203 3.7852987 C 26.00353 3.7860729 26.005081 3.7865857 26.006681 3.7873657 C 26.010881 3.7895257 26.014884 3.7919237 26.019084 3.7940837 C 26.144148 3.8588025 26.267532 3.9261927 26.389604 3.995105 C 26.409424 4.006296 26.429282 4.0173937 26.449032 4.0286947 C 26.706926 4.1763105 26.957838 4.3328561 27.20144 4.4989502 C 27.21874 4.5107442 27.235887 4.5227209 27.253117 4.5346069 C 27.365798 4.6123699 27.47701 4.6922014 27.58643 4.7738688 C 27.59133 4.7775488 27.596486 4.7810289 27.601416 4.7847209 C 27.604216 4.7867809 27.606884 4.788862 27.609684 4.790922 C 27.848647 4.970254 28.079099 5.1591279 28.301632 5.356779 C 28.317232 5.370635 28.33262 5.3846919 28.34814 5.3986369 C 28.452252 5.4922007 28.554814 5.5873973 28.655098 5.6849243 C 28.657598 5.6873843 28.66025 5.689699 28.66285 5.692159 C 28.663722 5.6930086 28.664534 5.6938928 28.665434 5.6947428 C 28.775065 5.8016438 28.882475 5.9107898 28.987378 6.0223714 C 28.987879 6.0229039 28.988328 6.0233917 28.988928 6.0239217 C 29.112364 6.1026586 29.233758 6.1845783 29.35273 6.2693848 C 29.357064 6.2724479 29.361328 6.2756088 29.365649 6.2786865 C 29.368764 6.2809052 29.371844 6.2831742 29.374951 6.2854045 C 29.422358 6.3194274 29.46936 6.3537921 29.516028 6.3887573 C 29.541414 6.4077771 29.566311 6.4273394 29.591475 6.4466349 C 29.737931 6.558935 29.880662 6.6756156 30.019356 6.7970011 C 30.043129 6.8178072 30.066616 6.8389808 30.090153 6.8600464 C 30.101854 6.8705653 30.113627 6.8810072 30.125293 6.891569 C 30.190245 6.950349 30.25443 7.0101503 30.317529 7.0708862 C 30.338066 7.0906536 30.358687 7.1103428 30.379024 7.1303141 C 30.414832 7.1654779 30.450295 7.2009784 30.485478 7.2367676 C 30.513999 7.265781 30.542121 7.2951983 30.570227 7.3246175 C 30.574683 7.3292909 30.579214 7.3338893 30.583663 7.3385701 C 30.636008 7.3936113 30.687307 7.4495723 30.738175 7.5060018 C 30.766787 7.5377416 30.795304 7.5694317 30.823442 7.6016032 C 30.859821 7.6431983 30.89587 7.6848705 30.931445 7.7271769 C 30.953012 7.7528244 30.974256 7.7787861 30.995524 7.8046916 C 31.043951 7.8636786 31.091296 7.9237062 31.138151 7.9840088 C 31.173587 8.0296153 31.20905 8.0751245 31.243571 8.1214681 C 31.26626 8.1519278 31.288461 8.1826788 31.31075 8.2134521 C 31.345661 8.2616511 31.380185 8.3102232 31.414103 8.3591797 C 31.420234 8.3680194 31.426614 8.3766639 31.432707 8.3855347 C 31.44455 8.4027679 31.456644 8.419886 31.468363 8.4372111 C 31.52007 8.5136508 31.569998 8.5910441 31.619259 8.6692383 C 31.620456 8.6711409 31.62168 8.6730192 31.622876 8.6749227 C 31.638659 8.7000195 31.653858 8.7256135 31.669385 8.750887 C 31.701209 8.8026879 31.732696 8.8549346 31.763436 8.9074666 C 31.767106 8.9137415 31.771152 8.9197874 31.774805 8.9260701 C 31.787095 8.9471982 31.799381 8.9683882 31.811495 8.9896322 C 31.85499 9.065909 31.897434 9.1428846 31.938619 9.2206258 C 31.956696 9.2547494 31.97422 9.2890626 31.991846 9.3234619 C 32.021646 9.3816207 32.050685 9.4402296 32.079179 9.4991618 C 32.091306 9.5242432 32.103464 9.5493903 32.115352 9.5746094 C 32.153702 9.6559638 32.191142 9.7378338 32.226973 9.8205892 C 32.228233 9.8234998 32.229334 9.8264615 32.230591 9.8293742 C 32.237597 9.8456045 32.243837 9.8621839 32.250745 9.8784668 C 32.284188 9.9572998 32.316774 10.036653 32.347896 10.116695 C 32.349243 10.12016 32.350688 10.123563 32.35203 10.12703 C 32.514974 10.547732 32.645388 10.984525 32.740637 11.434961 C 32.76178 11.534947 32.781923 11.635481 32.799548 11.736751 L 31.702458 11.736751 C 31.702639 11.738751 31.702794 11.740952 31.702974 11.742952 C 31.711674 11.840522 31.719349 11.941854 31.726229 12.047327 C 31.733229 12.155061 31.739682 12.266167 31.744832 12.381156 C 31.752092 12.543168 31.755233 12.718409 31.758785 12.892236 C 31.757492 12.825562 31.757579 12.755158 31.755684 12.690181 C 31.7596 12.823632 31.762882 12.959774 31.764469 13.099976 C 31.764494 13.102176 31.764446 13.103977 31.764469 13.106177 C 31.764509 13.109777 31.764432 13.113479 31.764469 13.117029 C 31.76509 13.175342 31.764753 13.235591 31.764986 13.294796 C 31.764909 13.274207 31.764071 13.255336 31.763953 13.234851 C 31.764832 13.376042 31.763796 13.520997 31.762402 13.666866 C 31.763305 13.589398 31.765906 13.509461 31.76602 13.433289 C 31.765843 13.578064 31.764429 13.724414 31.761886 13.873572 C 31.761643 13.888012 31.761084 13.90251 31.760852 13.91698 C 31.759714 13.978403 31.757675 14.040634 31.756201 14.102498 C 31.756738 14.080772 31.756731 14.060092 31.757235 14.03842 C 31.753896 14.191256 31.748491 14.345782 31.742765 14.500924 C 31.746029 14.414127 31.750575 14.326641 31.753101 14.240474 C 31.748877 14.39077 31.743793 14.541995 31.737081 14.694194 C 31.736929 14.697594 31.736718 14.701089 31.736564 14.704529 L 32.799548 14.704529 C 32.782483 14.802584 32.763076 14.899648 32.742704 14.996501 C 32.741802 15.000785 32.741027 15.005138 32.74012 15.00942 C 32.736018 15.028775 32.731434 15.047992 32.727201 15.067297 C 32.706888 15.159938 32.685376 15.252299 32.662089 15.343766 C 32.660258 15.350957 32.65877 15.358287 32.656921 15.36547 C 32.631507 15.46421 32.60409 15.562209 32.575273 15.659509 C 32.568724 15.681622 32.561841 15.703619 32.555119 15.725655 C 32.534621 15.792846 32.513136 15.859694 32.49104 15.92616 C 32.48068 15.957321 32.470741 15.988695 32.460034 16.019694 C 32.430137 16.106249 32.399072 16.191793 32.3665 16.277043 C 32.366112 16.278058 32.365854 16.279128 32.365466 16.280143 C 32.356518 16.303536 32.346708 16.326615 32.337561 16.349906 C 32.313457 16.411284 32.289137 16.472692 32.263664 16.533358 C 32.262085 16.537132 32.260601 16.540956 32.259013 16.544727 C 32.242407 16.584114 32.225546 16.623469 32.20837 16.662549 C 32.183053 16.720151 32.156881 16.777195 32.130339 16.834115 C 32.108094 16.881817 32.085219 16.929012 32.062126 16.976225 C 32.036804 17.027992 32.011458 17.079571 31.985128 17.130737 C 31.962375 17.174952 31.938862 17.218755 31.915365 17.262512 C 31.898171 17.29453 31.880759 17.326345 31.863171 17.358114 C 31.802431 17.46783 31.73991 17.576495 31.674552 17.683158 C 31.67371 17.684547 31.672813 17.685906 31.671969 17.687292 C 31.66988 17.690721 31.66787 17.69421 31.665767 17.697628 C 31.637922 17.742869 31.60916 17.787314 31.580501 17.831986 C 31.5604 17.863319 31.54002 17.894472 31.519523 17.925521 C 31.518075 17.927714 31.516839 17.930046 31.515389 17.932239 C 31.487056 17.975071 31.458685 18.018114 31.429606 18.060396 C 31.400816 18.338182 31.372253 18.614151 31.361393 18.74976 C 31.334013 19.091321 31.256994 19.863704 31.190344 20.466451 C 31.164974 20.695809 31.143865 20.916981 31.126265 21.13101 C 31.108665 21.345039 31.094591 21.551925 31.083891 21.753194 C 31.175877 21.680888 31.26614 21.606679 31.355709 21.531502 C 31.379731 21.511341 31.40369 21.491298 31.427539 21.471041 C 31.434616 21.46503 31.44168 21.459003 31.448726 21.452954 C 31.475774 21.429735 31.502526 21.406154 31.529342 21.382674 C 31.565855 21.350704 31.602299 21.318488 31.638379 21.286039 C 31.660773 21.265899 31.683332 21.245901 31.705558 21.225578 C 31.724539 21.208222 31.743126 21.190453 31.761886 21.172868 C 31.78269 21.153366 31.803652 21.134032 31.824414 21.114473 C 31.842074 21.097837 31.860092 21.081617 31.877641 21.064864 C 31.887693 21.055268 31.897653 21.045601 31.907613 21.035925 C 31.932513 21.011736 31.957236 20.987367 31.982027 20.963062 C 32.085081 20.862025 32.186378 20.759073 32.285368 20.654036 C 32.316553 20.620946 32.347612 20.58778 32.378385 20.554301 C 32.401817 20.52881 32.424958 20.503018 32.448149 20.477303 C 32.478116 20.444074 32.507987 20.410648 32.537549 20.377051 C 32.615777 20.288142 32.692689 20.198226 32.768026 20.106783 C 32.791009 20.078887 32.813547 20.050689 32.836239 20.02255 C 32.83693 20.021692 32.837614 20.020824 32.838306 20.019967 C 32.934931 19.900215 33.028889 19.778459 33.120459 19.654614 C 33.146561 19.619313 33.172807 19.584303 33.19849 19.548678 C 33.315419 19.386486 33.427907 19.220767 33.535938 19.052067 C 33.549674 19.030615 33.563171 19.009024 33.576762 18.987472 C 33.979763 18.348311 34.317825 17.664462 34.581868 16.945219 C 34.844388 16.230125 35.03424 15.480366 35.141007 14.704529 L 37.473165 14.704529 L 37.473165 11.736751 L 35.141007 11.736751 C 34.79049 9.1896923 33.551089 6.9208604 31.747416 5.2544596 C 31.641421 5.156525 31.533749 5.0603283 31.423922 4.9666219 C 30.324634 4.0287584 29.036303 3.3060517 27.625704 2.8644246 C 27.489051 2.8216417 27.351187 2.7814645 27.212292 2.7440186 C 26.777691 2.6268504 26.33265 2.536238 25.878524 2.4737508 L 25.878524 0.14211019 L 22.911263 0.14211019 z M 31.083891 21.753194 C 30.279487 22.385503 29.383328 22.905375 28.419971 23.292118 L 28.419971 23.292635 C 28.256567 23.627541 28.079096 23.97279 27.881502 24.339083 C 26.854571 26.242789 25.908767 27.503615 24.574727 28.748633 C 23.104024 30.121179 21.737711 30.827293 20.357931 30.917493 L 20.357931 30.872017 C 20.185929 30.898217 20.014676 30.91506 19.84375 30.92266 C 19.672823 30.91466 19.501572 30.898117 19.329569 30.872017 L 19.329569 30.917493 C 17.949964 30.827193 16.583811 30.121009 15.113289 28.748633 C 13.779252 27.503615 12.833445 26.242789 11.806514 24.339083 C 10.986858 22.819625 10.496608 21.653377 10.043315 20.147091 C 9.3883606 17.970675 9.1221378 16.197488 9.1922038 14.475602 C 9.3122836 11.524638 10.345621 9.2571552 12.441101 7.349939 C 13.924038 6.0002391 15.691726 5.1255485 17.605644 4.7702515 C 17.606503 4.7695593 17.607368 4.7688763 17.608228 4.7681844 L 17.608744 4.7676676 C 17.609075 4.767606 17.609445 4.7677277 17.609778 4.7676676 C 18.953011 3.6868083 20.557158 2.9190801 22.3113 2.5755534 C 21.557195 2.4496722 20.777482 2.3843506 19.978625 2.3843506 C 19.933537 2.3843506 19.888765 2.3849009 19.84375 2.3859009 C 19.79881 2.3853209 19.753889 2.3843506 19.708875 2.3843506 C 15.612175 2.3843506 12.010001 4.083484 9.8655477 7.027478 C 8.9849175 8.2364456 8.4721027 9.3631612 8.1075155 10.890808 C 7.8597609 11.928876 7.859118 14.563594 8.1054484 16.6672 C 8.1995382 17.470858 8.2987418 18.4082 8.3261068 18.74976 C 8.3534866 19.09132 8.4305038 19.863703 8.4971558 20.466451 C 8.822385 23.407285 8.5566876 25.120735 7.5545776 26.535331 C 6.355284 28.202759 4.1097472 28.767973 1.3270508 29.478821 L 1.3270508 37.303149 L 12.31191 37.303149 C 12.706512 36.460481 13.091316 35.501459 13.613123 34.420121 C 14.382542 32.758815 14.655183 32.093651 14.879712 31.323153 L 15.059029 30.70872 L 15.245581 30.984672 C 15.719895 31.68551 16.493564 32.336731 17.325041 32.733919 C 18.242645 33.172229 18.940645 33.34981 19.844267 33.28324 C 20.747638 33.34974 21.445029 33.172149 22.362459 32.733919 C 23.193936 32.336731 23.968121 31.68551 24.442436 30.984672 L 24.628988 30.70872 L 24.807788 31.323153 C 25.032317 32.093651 25.304959 32.758815 26.074377 34.420121 C 26.596185 35.501459 26.980987 36.460481 27.37559 37.303149 L 38.360449 37.303149 L 38.360449 29.478821 C 35.577753 28.767973 33.332734 28.202759 32.133439 26.535331 C 31.28764 25.341385 30.968086 23.931316 31.083891 21.753194 z M 17.609778 4.7676676 C 17.596803 4.7781085 17.583947 4.7886912 17.571021 4.7991903 C 17.56636 4.8029736 17.561722 4.8067685 17.557068 4.8105591 C 17.471155 4.8805348 17.386054 4.9515231 17.302303 5.0239827 C 17.281904 5.0416317 17.262107 5.0599279 17.241842 5.0777262 C 17.232771 5.0856924 17.224014 5.094018 17.21497 5.1020142 C 17.146716 5.1623629 17.078035 5.2223534 17.011365 5.284432 C 17.008694 5.2869186 17.006281 5.289694 17.003613 5.2921834 C 17.167446 5.2522143 17.333188 5.2176632 17.503324 5.1883138 C 17.580154 5.1750608 17.658286 5.1629425 17.737419 5.1516235 C 17.750519 5.1497435 17.763523 5.1477691 17.776693 5.1459391 C 17.860373 5.1343591 17.94595 5.1235307 18.033008 5.1138997 C 18.073774 5.1093899 18.116308 5.1056375 18.158065 5.1014974 C 18.196029 5.0977333 18.233138 5.0935473 18.271753 5.0901286 C 18.291463 5.0883686 18.310744 5.0866409 18.330664 5.0849609 C 18.34677 5.0836152 18.364017 5.0826468 18.380273 5.0813436 C 18.456308 5.0752483 18.532923 5.0692772 18.612301 5.0642904 C 18.816507 5.0514604 19.03152 5.0416998 19.262907 5.0348348 C 19.418779 5.0308348 19.570483 5.0280833 19.71921 5.0270833 L 19.71921 5.0260498 C 19.75971 5.0256898 19.80287 5.0270733 19.844267 5.0270833 C 19.885487 5.0270733 19.928477 5.0256898 19.968807 5.0260498 L 19.968807 5.0270833 C 20.117533 5.0280833 20.26872 5.0308348 20.424593 5.0348348 C 20.660168 5.0418268 20.877611 5.0521107 21.085018 5.0653239 C 21.091398 5.0657301 21.098296 5.0659454 21.104655 5.0663574 C 21.21098 5.0732474 21.313777 5.0812526 21.414197 5.0901286 C 21.445081 5.0928584 21.474199 5.096449 21.504631 5.0994303 C 21.572274 5.1060577 21.640328 5.112534 21.705652 5.1201009 C 21.706318 5.1201781 21.707019 5.1200236 21.707719 5.1201009 C 21.822223 5.0823464 21.937969 5.0473389 22.054468 5.0141642 C 22.062021 5.0120153 22.069652 5.010103 22.077205 5.0079631 C 22.112119 4.9981244 22.147013 4.9879138 22.182109 4.9785075 C 22.186753 4.9772621 22.191411 4.9761193 22.196061 4.9748901 C 22.238694 4.9635416 22.281316 4.9530285 22.324219 4.942334 C 22.38078 4.9282346 22.437716 4.9149559 22.494751 4.9020264 C 22.528343 4.8944112 22.561763 4.8859709 22.59552 4.878772 C 22.701364 4.9039622 22.806446 4.931464 22.911263 4.959904 L 22.911263 5.3510946 C 22.913863 5.3518106 22.916414 5.3524416 22.919014 5.3531616 C 23.140068 5.4149184 23.363408 5.4898613 23.593909 5.575887 C 23.582939 5.571772 23.571216 5.5669906 23.560319 5.5629679 C 23.598922 5.5772208 23.637492 5.590875 23.676591 5.6058594 C 23.679591 5.6069994 23.682376 5.60782 23.685376 5.60896 C 23.687076 5.6096308 23.688744 5.610347 23.690544 5.611027 C 23.753305 5.6351818 23.819377 5.663375 23.883813 5.6895752 C 23.94167 5.7130997 23.998045 5.7347371 24.057446 5.7598551 C 24.061342 5.7615023 24.064913 5.7628522 24.068815 5.764506 C 24.094345 5.775313 24.120997 5.7864589 24.146847 5.7975789 C 24.273533 5.8521289 24.402721 5.909393 24.538554 5.9717285 C 24.657924 6.0265085 24.775544 6.0831294 24.890987 6.1412272 L 24.891504 6.141744 C 24.982124 6.1872778 25.070403 6.234748 25.158671 6.2823039 C 25.182711 6.2952829 25.207675 6.3074134 25.231535 6.3205444 C 25.232935 6.32132 25.234269 6.3223583 25.235669 6.3231283 C 25.345877 6.3837031 25.45418 6.4458563 25.560714 6.5096802 C 25.668529 6.574272 25.774427 6.6406706 25.878524 6.7086344 L 25.878524 6.2931559 C 26.356063 6.6052366 26.813801 6.9562075 27.246399 7.349939 C 28.641924 8.6200856 29.56423 10.051727 30.061731 11.736751 L 29.678809 11.736751 C 29.679529 11.738951 29.680076 11.741269 29.680876 11.743469 C 29.707716 11.826799 29.733544 11.910392 29.757874 11.995133 C 29.758267 11.996533 29.758548 11.997968 29.758907 11.999268 C 29.784127 12.087286 29.808037 12.176788 29.830737 12.266951 C 29.851531 12.349551 29.870839 12.433689 29.889648 12.518616 C 29.891427 12.526647 29.89357 12.534336 29.895333 12.542387 C 29.913633 12.625957 29.930986 12.710858 29.947526 12.797152 C 29.952326 12.822282 29.957325 12.847736 29.961995 12.873116 C 29.964875 12.888746 29.967458 12.904914 29.970264 12.920658 C 29.97074 12.923311 29.971339 12.925754 29.971814 12.92841 C 29.977187 12.958713 29.982129 12.989192 29.987317 13.019877 C 29.989783 13.034462 29.992626 13.048623 29.995068 13.063285 C 30.001268 13.100525 30.007205 13.138095 30.013155 13.17594 C 30.01587 13.193242 30.018229 13.211144 30.020907 13.22865 C 30.024455 13.251848 30.028306 13.274993 30.031759 13.298413 C 30.033674 13.311407 30.035567 13.324145 30.037443 13.33717 C 30.043343 13.37799 30.049393 13.4191 30.055013 13.460677 C 30.056219 13.469609 30.057436 13.479101 30.05863 13.488066 C 30.057859 13.482267 30.056825 13.476794 30.056047 13.471012 C 30.082791 13.670055 30.107026 13.876721 30.128394 14.09578 C 30.137994 14.19435 30.145568 14.294433 30.151648 14.396021 C 30.158048 14.497391 30.162321 14.600601 30.165601 14.704529 L 30.502531 14.704529 C 30.500731 14.628139 30.498913 14.551761 30.495813 14.475602 C 30.491413 14.367068 30.48567 14.259838 30.47876 14.153141 C 30.47656 14.119401 30.473925 14.085931 30.471525 14.052372 C 30.464525 13.956202 30.456277 13.860263 30.447237 13.765568 C 30.446763 13.760568 30.44665 13.755562 30.446204 13.750582 C 30.445934 13.747782 30.445407 13.745114 30.44517 13.742314 C 30.43493 13.637121 30.423864 13.533075 30.411064 13.429671 C 30.409764 13.419391 30.408746 13.408935 30.407446 13.398665 C 30.406146 13.388215 30.404195 13.378088 30.402795 13.36766 C 30.389585 13.26539 30.375654 13.163832 30.359904 13.063285 C 30.359391 13.059985 30.358954 13.056767 30.358354 13.053467 C 30.357532 13.048267 30.35657 13.043174 30.35577 13.037964 C 30.33849 12.929283 30.319713 12.821692 30.299443 12.714986 C 30.256973 12.491344 30.207833 12.271877 30.152165 12.056628 C 30.124325 11.949006 30.094958 11.842349 30.063798 11.736751 L 31.702458 11.736751 C 31.672208 11.398884 31.631873 11.108204 31.579985 10.890808 C 31.215398 9.3631612 30.702581 8.2364456 29.821952 7.027478 C 29.564872 6.6745468 29.286249 6.3403017 28.988928 6.0239217 C 28.060193 5.4315027 27.008414 5.0132794 25.878524 4.8167603 L 25.878524 6.2910889 C 25.648425 6.140774 25.413457 5.999866 25.174174 5.8688924 C 25.058796 5.8057392 24.94224 5.745081 24.824841 5.6864746 C 24.820541 5.6843046 24.816242 5.6819167 24.811922 5.6797567 C 24.807322 5.6774567 24.80262 5.6753387 24.79797 5.6730387 C 24.444518 5.4978652 24.082368 5.343467 23.712248 5.2100179 C 23.698018 5.2048879 23.683606 5.2000977 23.669356 5.1950317 C 23.553464 5.1538209 23.436873 5.1142815 23.319507 5.0772095 C 23.305407 5.0727595 23.291242 5.0686794 23.277132 5.0642904 C 23.15689 5.0268744 23.036064 4.9914072 22.914364 4.9583537 C 22.913364 4.958069 22.912263 4.957601 22.911263 4.9573201 L 22.911263 4.817277 C 22.806425 4.8355341 22.702086 4.8562328 22.598621 4.8782552 L 22.598104 4.8782552 C 22.507516 4.8566747 22.416552 4.8359645 22.325252 4.8167603 C 22.055273 4.7599713 21.782419 4.7140143 21.506698 4.6782674 C 21.502198 4.6776878 21.497802 4.6767804 21.493262 4.6762004 C 21.483142 4.6749004 21.472903 4.673853 21.462773 4.672583 C 21.381443 4.662382 21.299605 4.6530267 21.217826 4.6446777 C 21.215726 4.6444679 21.213725 4.6443696 21.211625 4.644161 C 21.209025 4.6438997 21.206474 4.6439036 21.203874 4.6436442 C 21.122364 4.6354342 21.040869 4.6277883 20.958927 4.6214233 C 20.941857 4.6201033 20.924868 4.6185292 20.907768 4.6172892 C 20.836488 4.6120992 20.7649 4.6081591 20.693311 4.6043701 C 20.670401 4.6031601 20.647521 4.6018228 20.624581 4.6007528 C 20.535921 4.5966228 20.447036 4.593411 20.357931 4.591451 L 20.357931 4.6157389 C 20.239061 4.6075389 20.120026 4.6011019 19.999296 4.5961019 C 19.947256 4.5941019 19.89566 4.5929678 19.84375 4.5919678 C 19.79194 4.5929678 19.740135 4.5941019 19.688204 4.5961019 C 19.567476 4.6011019 19.44844 4.6077389 19.329569 4.6157389 L 19.329569 4.591451 C 19.188772 4.594561 19.048605 4.600551 18.908923 4.609021 C 18.901523 4.6094694 18.894092 4.6095946 18.886702 4.6100545 C 18.754567 4.6183345 18.622941 4.6295547 18.491895 4.6426107 C 18.473455 4.6444507 18.455021 4.6463651 18.436601 4.6482951 C 18.310518 4.6615161 18.184866 4.6766721 18.05988 4.6942871 C 18.04211 4.6967871 18.024403 4.6994486 18.006653 4.7020386 C 17.876285 4.7210856 17.746612 4.7423124 17.617529 4.7661174 C 17.61496 4.7665942 17.612362 4.7672015 17.609778 4.7676676 z M 30.502531 14.704529 C 30.539418 16.288591 30.288209 17.93254 29.714982 19.900594 C 29.567441 20.018065 29.415032 20.129884 29.259713 20.237524 C 29.216113 20.374181 29.171203 20.510747 29.124837 20.647319 C 28.893069 21.329948 28.627291 22.009882 28.331604 22.674585 C 28.276624 22.798183 28.220149 22.921116 28.163139 23.043555 C 28.158839 23.052755 28.155036 23.06225 28.150736 23.07146 C 28.150085 23.07286 28.149369 23.074194 28.148669 23.075594 C 28.087789 23.205831 28.02574 23.334977 27.962634 23.463684 C 28.109261 23.412396 28.254539 23.358199 28.398267 23.300903 C 28.401717 23.299527 28.405154 23.298149 28.408602 23.296769 C 28.412407 23.295247 28.416168 23.293645 28.419971 23.292118 C 28.459562 23.210965 28.496798 23.131339 28.534692 23.051306 C 28.566552 22.984006 28.59853 22.91645 28.62926 22.849768 C 28.66391 22.774618 28.69776 22.700083 28.731063 22.625492 C 28.770713 22.536672 28.809443 22.447744 28.847335 22.359359 C 28.872835 22.299909 28.898529 22.24048 28.923299 22.181075 C 28.982699 22.038582 29.040721 21.896596 29.096415 21.753194 C 29.09675 21.752332 29.097148 21.75151 29.097449 21.75061 C 29.111799 21.71367 29.125167 21.67605 29.139307 21.638989 C 29.182167 21.526505 29.224307 21.413176 29.265397 21.298958 C 29.288097 21.235918 29.310338 21.172024 29.332576 21.108272 C 29.366686 21.010432 29.400666 20.911573 29.433862 20.81165 C 29.453722 20.75189 29.4737 20.692459 29.49329 20.631816 C 29.54448 20.473325 29.594802 20.312907 29.644702 20.147091 C 29.669942 20.063221 29.693486 19.981223 29.717566 19.898527 C 30.375075 19.374531 30.95214 18.75466 31.429606 18.060396 C 31.473338 17.638525 31.525835 17.151782 31.582568 16.6672 C 31.655897 16.041002 31.705716 15.368585 31.735014 14.704529 L 30.502531 14.704529 z M 29.259713 20.237524 C 29.88144 18.288742 30.217327 16.34321 30.165601 14.704529 L 29.061792 14.704529 L 29.061792 11.736751 L 29.678809 11.736751 C 29.509941 11.213905 29.290346 10.712828 28.999264 10.164754 C 28.225807 8.7084329 27.200899 7.572001 25.878524 6.7086344 L 25.878524 8.5539998 L 22.911263 8.5539998 L 22.911263 5.3510946 C 22.52491 5.2436068 22.137876 5.1700349 21.707719 5.1201009 C 18.761413 6.0915601 16.533406 8.6172877 15.990238 11.736751 L 19.728512 11.736751 L 19.728512 14.704529 L 15.990238 14.704529 C 16.605214 18.236388 19.379264 21.009435 22.911263 21.62452 L 22.911263 17.88728 L 25.878524 17.88728 L 25.878524 21.625037 C 27.119764 21.40915 28.266672 20.925741 29.259713 20.237524 z M 17.003097 5.2921834 C 16.418924 5.4347428 15.852751 5.6487419 15.148946 5.9717285 C 13.156456 6.8861067 11.705976 8.2494482 10.688753 10.164754 C 10.011349 11.440222 9.719143 12.460294 9.5596232 14.09578 C 9.199879 17.784114 11.094779 23.421577 13.875122 26.931689 C 15.278095 28.702907 16.711101 29.791156 18.367354 30.343884 C 18.824533 30.496464 18.993068 30.514152 19.766752 30.489612 C 19.794012 30.488692 19.81683 30.487511 19.84375 30.486511 C 19.87066 30.487441 19.893478 30.488612 19.920748 30.489612 C 20.694432 30.514112 20.862968 30.496614 21.320146 30.343884 C 22.9764 29.791156 24.409923 28.702907 25.812895 26.931689 C 26.613887 25.920458 27.340843 24.732119 27.962118 23.465234 C 27.294507 23.698628 26.597761 23.868563 25.878524 23.967529 L 25.878524 26.29917 L 22.911263 26.29917 L 22.911263 23.967529 C 18.117611 23.307307 14.308714 19.498272 13.648779 14.704529 L 11.316622 14.704529 L 11.316622 11.736751 L 13.648779 11.736751 C 13.996796 9.2087703 15.221035 6.9550931 17.003097 5.2921834 z M 15.267285 31.738631 L 15.16755 32.129822 C 15.018458 32.71941 14.783609 32.980274 14.423926 33.805172 C 14.035864 34.69515 14.02853 34.921448 14.347961 36.033976 C 14.47941 36.699166 14.639153 36.999201 14.829069 37.303149 L 20.357931 37.303149 L 24.858948 37.303149 C 25.048863 36.999201 25.208091 36.699166 25.339539 36.033976 C 25.658976 34.921448 25.652155 34.69515 25.264091 33.805172 C 24.904405 32.980274 24.669042 32.71941 24.51995 32.129822 L 24.420732 31.738631 L 24.210409 31.930868 L 23.085929 32.714799 C 22.995579 32.730499 22.698769 32.861042 22.378479 33.030542 C 21.631349 33.425902 20.989782 33.645168 20.357931 33.695618 L 20.357931 33.631022 C 20.184 33.666222 20.013503 33.688652 19.84375 33.699752 C 19.674128 33.688652 19.503363 33.666122 19.329569 33.631022 L 19.329569 33.695618 C 18.697819 33.645118 18.056545 33.425842 17.309538 33.030542 C 16.989247 32.861042 16.69192 32.730519 16.601571 32.714799 L 15.477091 31.930868 L 15.267285 31.738631 z " /></svg>
