<?xml version="1.0" encoding="UTF-8" standalone="no"?>
<!-- Created with Inkscape (http://www.inkscape.org/) -->

<svg
  width="150"
  height="150"
  viewBox="0 0 39.6875 39.6875"
  version="1.1"
  id="svg1168"
  xmlns="http://www.w3.org/2000/svg"
>
  <defs
    id="defs1165"/>
  <g
    id="layer1"/>
  <path
    id="path854"
    style="stroke-width:0.0854837"
    d="m 16.994107,10.514645 c -0.367652,0.0066 -0.738531,0.210021 -0.954981,0.601514 -0.172816,0.312576 -0.04412,0.883846 0.344165,1.527039 0.227239,0.376417 0.452464,1.204268 2.259811,8.304919 0.109863,0.431628 0.206715,0.808343 0.312642,1.222664 l -1.949235,6.323646 0.166915,0.268201 c 0.09188,0.147751 0.240256,0.291806 0.329696,0.319875 0.227084,0.07128 0.680894,-0.01962 0.791166,-0.158646 0.03423,-0.04315 0.585278,-1.743525 1.339453,-4.11551 0.617702,2.389585 1.070614,4.102296 1.102258,4.147032 0.102471,0.144867 0.550689,0.260773 0.781348,0.202057 0.09085,-0.02312 0.246895,-0.158271 0.346749,-0.300757 l 0.181384,-0.259416 -1.590601,-6.38514 c 0.12499,-0.396739 0.239402,-0.756161 0.36897,-1.168921 2.194437,-6.990723 2.464418,-7.80512 2.711979,-8.168494 0.423033,-0.620907 0.583276,-1.184258 0.427881,-1.505851 -0.377464,-0.78116 -1.375131,-0.886389 -1.843815,-0.194303 -0.16223,0.239515 -0.187578,0.354214 -0.163298,0.72812 0.02589,0.398513 -0.152286,1.023911 -2.177127,7.594886 -1.670869,-6.71141 -1.813605,-7.341245 -1.765784,-7.738546 0.04478,-0.37201 0.0253,-0.487297 -0.123507,-0.735356 -0.134369,-0.223991 -0.324554,-0.373609 -0.535368,-0.449585 -0.115947,-0.04179 -0.23815,-0.06162 -0.360701,-0.05943 z m -3.493844,2.401921 c -0.303882,0.0097 -0.608688,0.06992 -1.138432,0.204122 -0.59133,0.149803 -0.989967,0.277502 -1.408699,0.544153 -0.418731,0.266651 -0.84453,0.654583 -1.5533935,1.330668 -0.5664878,0.540291 -0.9456473,0.877047 -1.2448852,1.088822 -0.2992404,0.211775 -0.5106284,0.302328 -0.7947838,0.374654 -0.7775527,0.197913 -1.6213581,0.113993 -2.913517,-0.326078 -0.4060206,-0.13826 -0.6543503,-0.225433 -0.9198406,-0.185002 -0.132747,0.02022 -0.2860495,0.115827 -0.3513997,0.24443 -0.065349,0.128602 -0.065287,0.247978 -0.057361,0.367936 0.00441,0.06645 0.013878,0.09857 0.028422,0.168465 0.014537,0.0699 0.035131,0.159332 0.060462,0.268718 0.050655,0.218771 0.1209273,0.514738 0.2082559,0.86713 0.1746573,0.704784 0.413829,1.637475 0.673344,2.627747 0.465815,1.777486 0.7005412,2.674252 0.859379,3.182234 0.1588342,0.50798 0.2827507,0.680746 0.4227132,0.834058 0.4369289,0.478593 1.2400044,0.810932 2.2370727,1.012858 0.6865678,0.139042 0.9565116,0.138341 1.6133384,0.0016 0.5687099,-0.118373 0.8995626,-0.237624 1.2423006,-0.457854 0.150329,-0.0966 0.397124,-0.293834 0.72347,-0.56379 0.326349,-0.269955 0.717954,-0.603947 1.096574,-0.938444 0.811995,-0.717365 1.302891,-1.116507 1.693437,-1.331701 0.390546,-0.215195 0.684807,-0.266855 1.206645,-0.291455 0.319775,-0.01507 1.045706,0.04829 1.527038,0.141076 0.260816,0.05027 0.514374,0.08829 0.718819,0.109038 0.102222,0.01038 0.191631,0.01615 0.269235,0.01705 0.07761,8.96e-4 0.113367,0.02449 0.250114,-0.03979 0.04038,-0.01898 0.120119,-0.06967 0.165364,-0.146761 0.04524,-0.0771 0.05516,-0.153302 0.05684,-0.221175 0.0034,-0.135739 -0.02236,-0.2823 -0.077,-0.54622 -0.10927,-0.527792 -0.34937,-1.496814 -0.810803,-3.352767 -0.462289,-1.859405 -0.704233,-2.830221 -0.865063,-3.383256 -0.08041,-0.276517 -0.141227,-0.449581 -0.204122,-0.58446 -0.06289,-0.134878 -0.134835,-0.231269 -0.199988,-0.305408 -0.175746,-0.199982 -0.401366,-0.340771 -0.710034,-0.446484 -0.308666,-0.105721 -0.700117,-0.175515 -1.209229,-0.232028 -0.230112,-0.02554 -0.41195,-0.03788 -0.594279,-0.03204 z m 12.988355,0.164848 c -0.115649,-0.0021 -0.240673,0.0024 -0.391707,0.01085 -1.003887,0.05589 -1.472037,0.185768 -1.770952,0.490409 -0.248769,0.253536 -0.308328,0.422383 -1.435571,4.084505 -1.125152,3.655327 -1.16939,3.823657 -1.032496,3.897437 0.07869,0.04242 0.560734,0.02006 1.07177,-0.04961 0.511036,-0.06968 1.230422,-0.09606 1.598352,-0.05839 1.070969,0.109656 1.425668,0.331614 2.97398,1.858801 0.714922,0.70517 1.480812,1.41279 1.701704,1.572514 0.304128,0.219915 0.577234,0.336861 1.124995,0.482658 0.638533,0.16996 0.814102,0.179372 1.4981,0.07958 0.97281,-0.141953 1.756492,-0.439634 2.13527,-0.81132 0.289719,-0.284296 0.306599,-0.329314 1.431954,-3.827673 0.626308,-1.946991 1.153798,-3.666167 1.172538,-3.820439 0.04677,-0.385056 -0.144555,-0.425133 -0.951362,-0.198954 -1.340057,0.375671 -2.255552,0.424017 -3.086116,0.163297 -0.608891,-0.191135 -0.998591,-0.500091 -2.07636,-1.647445 -1.337564,-1.423919 -1.583158,-1.600337 -2.733683,-1.960087 -0.621612,-0.1944 -0.88347,-0.259811 -1.230416,-0.266133 z m -12.980086,0.384472 c 0.149629,-0.0039 0.303588,0.0096 0.524515,0.03411 0.490189,0.05441 0.82779,0.117589 1.069702,0.197404 0.241912,0.07982 0.388032,0.176011 0.494027,0.296623 0.05208,0.05926 0.0734,0.08503 0.114722,0.173632 0.04132,0.08861 0.09512,0.239729 0.172082,0.504362 0.153918,0.529266 0.39872,1.504028 0.86093,3.363102 0.46135,1.855629 0.700733,2.828794 0.804602,3.330547 0.03433,0.165848 0.03645,0.208302 0.04444,0.277502 -0.03679,-0.0025 -0.06344,-0.0021 -0.10852,-0.0067 -0.182663,-0.01853 -0.423066,-0.05446 -0.668693,-0.101802 -0.531547,-0.102463 -1.240219,-0.170652 -1.65933,-0.150896 -0.553537,0.02609 -0.980017,0.101769 -1.449007,0.360185 -0.468991,0.258418 -0.975352,0.679466 -1.793173,1.401982 -0.37394,0.33036 -0.761816,0.661706 -1.082621,0.927075 -0.320802,0.265368 -0.589697,0.473238 -0.668693,0.523999 -0.28875,0.18552 -0.5145795,0.270262 -1.0557485,0.382901 C 8.4707946,25.11249 8.3876234,25.11267 7.7192208,24.977329 6.7891866,24.788977 6.060545,24.439737 5.7818715,24.134486 5.6481614,23.988026 5.627666,23.986261 5.478014,23.507651 5.3283598,23.029041 5.0911381,22.128113 4.6253529,20.350737 4.3663901,19.362573 4.1284091,18.431615 3.9545929,17.730225 3.8676857,17.379532 3.7969115,17.08688 3.7473704,16.872914 c -0.024763,-0.106982 -0.044776,-0.194893 -0.057878,-0.257866 -0.013095,-0.06297 -0.018883,-0.119668 -0.017053,-0.09198 -6.475e-4,-0.01014 -3.673e-4,-0.0024 -5.168e-4,-0.01085 0.057841,0.0035 0.2436472,0.02719 0.5947958,0.146761 1.3426601,0.457269 2.3200823,0.570028 3.2297772,0.338481 0.3343108,-0.08509 0.6365989,-0.21756 0.9797849,-0.460437 0.3431873,-0.242877 0.7352868,-0.592788 1.3079306,-1.138949 0.7048509,-0.67226 1.1138269,-1.039417 1.4681279,-1.265039 0.354301,-0.225621 0.668706,-0.327129 1.245918,-0.473356 0.522494,-0.132372 0.760893,-0.187308 1.010275,-0.193787 z"/>
</svg>
