<?xml version="1.0" encoding="UTF-8" standalone="no"?>
<!-- Created with Inkscape (http://www.inkscape.org/) -->

<svg
  width="150"
  height="150"
  viewBox="0 0 39.6875 39.6875"
  version="1.1"
  id="svg1168"
  xmlns="http://www.w3.org/2000/svg"
>
  <defs
    id="defs1165"/>
  <g
    id="layer1"
    transform="matrix(0.88497592,0,0,0.88497592,2.2825091,2.2825092)">
    <path
      id="path944"
      style="display:inline;stroke:none;stroke-width:0.683585;stroke-linecap:round;stroke-miterlimit:4;stroke-dasharray:none;stroke-opacity:1;stop-color:#000000"
      d="m 19.971907,3.0422148 c -0.0363,2.63e-5 -0.07268,2.705e-4 -0.109037,5.167e-4 C 10.961437,3.1031805 3.2008063,9.2867009 0.50694596,21.221466 2.3849202,29.79623 8.8543456,36.478481 19.876823,36.642231 29.54195,36.785813 35.707557,31.877488 39.180554,21.206997 36.559409,10.192735 29.228204,3.0354995 19.971907,3.0422148 Z M 11.497489,14.902472 c 1.766525,0.442707 7.142317,4.763687 7.302914,5.634282 -0.341246,0.429416 -5.527695,1.385378 -6.758244,1.386478 -0.736055,-0.244188 -0.958934,-5.898525 -0.54467,-7.02076 z m 17.141589,0 c 0.414263,1.122235 0.191902,6.776572 -0.544153,7.02076 -1.23055,-0.0011 -6.416996,-0.957062 -6.758243,-1.386478 0.160597,-0.870595 5.535874,-5.191575 7.302396,-5.634282 z M 13.721643,18.04595 c -0.114232,0.0014 -0.204003,0.01724 -0.263033,0.05013 1.057212,3.517951 3.818312,1.7343 4.291211,1.472261 -0.17083,-0.436085 -2.984759,-1.517622 -4.004923,-1.522387 -0.0078,-3.7e-5 -0.01564,-9.1e-5 -0.02325,0 z m 12.837977,0.115755 c -1.081325,0.0079 -3.802927,0.924863 -3.988388,1.342037 0.460647,0.283029 3.138977,2.188921 4.353222,-1.277958 -0.07009,-0.04329 -0.187579,-0.06315 -0.339514,-0.06408 -0.0083,-5.1e-5 -0.01681,-6.3e-5 -0.02532,1e-6 z m -11.12697,0.486792 c 0.49759,0.168391 0.996309,0.368092 1.39423,0.559656 a 0.75670835,0.75670835 0 0 1 -0.675928,0.553454 0.75670835,0.75670835 0 0 1 -0.807703,-0.701766 0.75670835,0.75670835 0 0 1 0.0894,-0.411344 z m 9.583911,0.01033 a 0.75670835,0.75670835 0 0 1 0.0708,0.414962 0.75670835,0.75670835 0 0 1 -0.838708,0.665076 0.75670835,0.75670835 0 0 1 -0.650606,-0.583427 c 0.406128,-0.173486 0.913862,-0.350755 1.418518,-0.496611 z M 2.7259318,20.74811 A 0.7698047,0.7698047 0 0 1 3.4959109,21.517572 0.7698047,0.7698047 0 0 1 2.7259318,22.287551 0.7698047,0.7698047 0 0 1 1.9559531,21.517572 0.7698047,0.7698047 0 0 1 2.7259318,20.74811 Z m 34.2402872,0 a 0.7698047,0.7698047 0 0 1 0.76998,0.769462 0.7698047,0.7698047 0 0 1 -0.76998,0.769979 0.7698047,0.7698047 0 0 1 -0.76998,-0.769979 0.7698047,0.7698047 0 0 1 0.76998,-0.769462 z m -16.957621,1.876372 1.65933,0.565856 a 0.34179301,0.34179301 0 0 0 -0.0031,0.288872 c 0.162571,0.356974 0.0824,0.558935 -0.03101,0.732771 -0.113413,0.173838 -0.262,0.267168 -0.262,0.267167 a 0.34179301,0.34179301 0 0 0 -0.113171,0.468706 0.34179301,0.34179301 0 0 0 0.468705,0.113688 c 0,0 0.274125,-0.163671 0.478524,-0.476973 0.175396,-0.268847 0.297705,-0.68677 0.167948,-1.153418 l 4.659663,1.589567 -1.423685,6.294705 H 14.292668 l -1.450041,-6.294705 4.53564,-1.516704 c -0.123396,0.460931 -0.0021,0.873346 0.171566,1.139466 0.2044,0.313303 0.478524,0.478523 0.478524,0.478523 a 0.34179301,0.34179301 0 0 0 0.468705,-0.113171 0.34179301,0.34179301 0 0 0 -0.113171,-0.470772 c 0,0 -0.148588,-0.09385 -0.262,-0.267684 -0.113409,-0.173837 -0.19358,-0.375282 -0.03101,-0.732255 a 0.34179301,0.34179301 0 0 0 0.0026,-0.273368 z m -1.278992,1.174088 a 0.34179301,0.34179301 0 0 0 -0.209289,0.06925 0.34179301,0.34179301 0 0 0 -0.06821,0.478523 c 0.341896,0.456838 0.829075,0.710686 1.328084,0.709001 0.49901,-0.0017 0.98937,-0.252892 1.353406,-0.697115 a 0.34179301,0.34179301 0 0 0 -0.04703,-0.482141 0.34179301,0.34179301 0 0 0 -0.482141,0.04857 c -0.256817,0.313387 -0.552059,0.446592 -0.826306,0.447518 -0.274247,9.25e-4 -0.546371,-0.124421 -0.779281,-0.435632 a 0.34179301,0.34179301 0 0 0 -0.224276,-0.134875 0.34179301,0.34179301 0 0 0 -0.04496,-0.0031 z m -4.02456,1.615922 a 0.26848599,0.26848599 0 0 0 -0.155547,0.05529 c -0.53584,0.411096 -0.873743,0.97203 -1.005623,1.498099 -0.06594,0.263035 -0.08245,0.519245 -0.02945,0.753443 0.053,0.234199 0.186906,0.45615 0.408243,0.576191 a 0.26848599,0.26848599 0 0 0 0.365353,-0.109037 0.26848599,0.26848599 0 0 0 -0.109554,-0.363284 c -0.06597,-0.03578 -0.112301,-0.09786 -0.14056,-0.222726 -0.02826,-0.124865 -0.02475,-0.304125 0.02532,-0.503845 0.100135,-0.399441 0.380304,-0.871163 0.81287,-1.203027 a 0.26848599,0.26848599 0 0 0 0.04858,-0.377238 0.26848599,0.26848599 0 0 0 -0.177767,-0.101286 0.26848599,0.26848599 0 0 0 -0.04186,-0.0026 z m 10.429854,0.0067 a 0.26848599,0.26848599 0 0 0 -0.223759,0.09922 0.26848599,0.26848599 0 0 0 0.04082,0.378788 c 0.424411,0.342233 0.692973,0.820917 0.783415,1.222664 0.04522,0.200874 0.04471,0.379698 0.01344,0.503845 -0.03127,0.124148 -0.07942,0.184934 -0.146245,0.21911 a 0.26848599,0.26848599 0 0 0 -0.117305,0.361217 0.26848599,0.26848599 0 0 0 0.361218,0.117306 c 0.224175,-0.114652 0.363544,-0.334042 0.422197,-0.566891 0.05865,-0.232847 0.04977,-0.48889 -0.0098,-0.753442 -0.119115,-0.529107 -0.443194,-1.097931 -0.968933,-1.521871 A 0.26848599,0.26848599 0 0 0 25.1349,25.42121 Z m -5.633765,0.408244 c -0.914535,0.0037 -1.816582,0.05742 -2.60966,0.169498 -0.906374,0.128092 -1.665568,0.318662 -2.181779,0.654224 a 0.34179301,0.34179301 0 0 0 -0.103352,0.461987 l -0.0021,0.001 0.0031,0.0057 a 0.34179301,0.34179301 0 0 0 0.001,0.0041 0.34179301,0.34179301 0 0 0 0.0031,0.0021 l 1.939934,3.183268 h 6.697265 l 1.908411,-3.19722 -0.0036,-0.0021 a 0.34179301,0.34179301 0 0 0 0.0093,-0.0078 0.34179301,0.34179301 0 0 0 -0.134359,-0.464571 c -0.50012,-0.274356 -1.245496,-0.452471 -2.144572,-0.586011 -0.899076,-0.133539 -1.943452,-0.210797 -2.990515,-0.222725 -0.130882,-0.0015 -0.261576,-0.0021 -0.392224,-0.0016 z M 4.857068,25.846507 A 0.7698047,0.7698047 0 0 1 5.6270468,26.616486 0.7698047,0.7698047 0 0 1 4.857068,27.385948 0.7698047,0.7698047 0 0 1 4.0870892,26.616486 0.7698047,0.7698047 0 0 1 4.857068,25.846507 Z m 29.978014,0 a 0.7698047,0.7698047 0 0 1 0.76998,0.769979 0.7698047,0.7698047 0 0 1 -0.76998,0.769462 0.7698047,0.7698047 0 0 1 -0.769977,-0.769462 0.7698047,0.7698047 0 0 1 0.769977,-0.769979 z m -14.949474,0.668176 c 1.018894,0.01161 2.03841,0.08671 2.898531,0.214458 0.643565,0.09559 1.201774,0.227646 1.586983,0.367419 L 22.86217,29.627672 H 16.936434 L 15.37994,27.074856 c 0.382851,-0.161971 0.946815,-0.305106 1.607137,-0.398426 0.859262,-0.121432 1.879636,-0.173355 2.898531,-0.161747 z m -2.02985,1.486215 a 0.183267,0.183267 0 0 0 -0.109038,0.04496 0.183267,0.183267 0 0 0 -0.01809,0.01809 0.183267,0.183267 0 0 0 -0.0015,0.0021 0.183267,0.183267 0 0 0 -0.01499,0.01964 0.183267,0.183267 0 0 0 -5.17e-4,10e-4 c -0.0041,0.0065 -0.05403,0.04864 -0.144177,0.07648 -0.09016,0.02784 -0.211796,0.04569 -0.335897,0.04651 -0.248201,0.0017 -0.501447,-0.08712 -0.55087,-0.144177 a 0.183267,0.183267 0 0 0 -0.257866,-0.01964 0.183267,0.183267 0 0 0 -0.01757,0.257865 c 0.196956,0.227378 0.518861,0.273354 0.827857,0.271301 0.154497,-10e-4 0.307793,-0.02065 0.443383,-0.06253 0.06915,-0.02136 0.136185,-0.04724 0.195854,-0.08475 0.192145,0.121195 0.443415,0.148886 0.68523,0.147277 0.154497,-10e-4 0.305726,-0.02065 0.441316,-0.06253 0.06924,-0.02139 0.136659,-0.04768 0.196887,-0.08526 0.191705,0.12152 0.442127,0.149402 0.684196,0.147793 0.154498,-10e-4 0.307793,-0.02065 0.443384,-0.06253 0.06919,-0.02137 0.135638,-0.04772 0.195337,-0.08526 0.192218,0.121491 0.443181,0.149402 0.68523,0.147793 0.154497,-0.001 0.305726,-0.02065 0.441316,-0.06253 0.06938,-0.02143 0.137083,-0.04755 0.197404,-0.08526 0.192224,0.12152 0.443676,0.149402 0.685746,0.147793 0.154499,-0.001 0.305727,-0.02065 0.441317,-0.06253 0.135591,-0.04188 0.263998,-0.102169 0.345716,-0.230476 a 0.183267,0.183267 0 0 0 -0.05684,-0.251663 0.183267,0.183267 0 0 0 -0.253732,0.05633 c -0.0041,0.0065 -0.05247,0.04864 -0.142627,0.07648 -0.09016,0.02784 -0.213864,0.04569 -0.337964,0.04651 -0.248202,0.0017 -0.499379,-0.08712 -0.548803,-0.144177 a 0.183267,0.183267 0 0 0 -0.0016,-0.0016 0.183267,0.183267 0 0 0 -0.0036,-0.0036 0.183267,0.183267 0 0 0 -0.0021,-0.0026 0.183267,0.183267 0 0 0 -0.0062,-0.0062 0.183267,0.183267 0 0 0 -0.01344,-0.01137 0.183267,0.183267 0 0 0 -0.0067,-0.0052 0.183267,0.183267 0 0 0 -0.226343,0.01085 0.183267,0.183267 0 0 0 -0.03669,0.04496 c -0.0136,0.01274 -0.06168,0.04799 -0.14056,0.07235 -0.09016,0.02784 -0.212313,0.04569 -0.336413,0.04651 -0.240445,0.0016 -0.485169,-0.0819 -0.545187,-0.13901 -5.81e-4,-5.53e-4 -0.001,-10e-4 -0.0016,-0.0016 a 0.183267,0.183267 0 0 0 -0.03927,-0.03617 0.183267,0.183267 0 0 0 -0.0036,-0.0026 0.183267,0.183267 0 0 0 -0.01705,-0.0098 0.183267,0.183267 0 0 0 -0.0026,-0.001 0.183267,0.183267 0 0 0 -0.0124,-0.0052 0.183267,0.183267 0 0 0 -0.01344,-0.0052 0.183267,0.183267 0 0 0 -0.0021,-5.16e-4 0.183267,0.183267 0 0 0 -0.0021,-5.19e-4 0.183267,0.183267 0 0 0 -0.02377,-0.0052 0.183267,0.183267 0 0 0 -0.0124,-0.0021 0.183267,0.183267 0 0 0 -0.03979,0.0021 0.183267,0.183267 0 0 0 -0.05064,0.01551 0.183267,0.183267 0 0 0 -0.0026,0.001 0.183267,0.183267 0 0 0 -0.01292,0.0072 0.183267,0.183267 0 0 0 -0.0072,0.0041 0.183267,0.183267 0 0 0 -5.16e-4,5.16e-4 0.183267,0.183267 0 0 0 -0.02894,0.02429 0.183267,0.183267 0 0 0 -0.02481,0.02997 0.183267,0.183267 0 0 0 -5.17e-4,0.001 c -0.0041,0.0065 -0.05454,0.04864 -0.144694,0.07648 -0.09016,0.02784 -0.211796,0.04569 -0.335897,0.04651 -0.248201,0.0017 -0.499379,-0.08712 -0.548803,-0.144177 a 0.183267,0.183267 0 0 0 -0.0016,-0.0016 0.183267,0.183267 0 0 0 -0.0124,-0.0124 0.183267,0.183267 0 0 0 -0.0062,-0.0057 0.183267,0.183267 0 0 0 -0.0067,-0.0057 0.183267,0.183267 0 0 0 -0.100252,-0.03927 0.183267,0.183267 0 0 0 -0.132809,0.04496 0.183267,0.183267 0 0 0 -0.03669,0.04444 v 5.16e-4 c -0.0136,0.01274 -0.06219,0.04799 -0.141077,0.07235 -0.09016,0.02784 -0.211796,0.04569 -0.335897,0.04651 -0.248202,0.0017 -0.501446,-0.08712 -0.55087,-0.144177 a 0.183267,0.183267 0 0 0 -0.0072,-0.0078 0.183267,0.183267 0 0 0 -0.0062,-0.0062 0.183267,0.183267 0 0 0 -0.111621,-0.05064 0.183267,0.183267 0 0 0 -0.02377,0 z m -9.3498173,2.12545 A 0.7698047,0.7698047 0 0 1 9.275403,30.895812 0.7698047,0.7698047 0 0 1 8.5059407,31.665789 0.7698047,0.7698047 0 0 1 7.7359619,30.895812 0.7698047,0.7698047 0 0 1 8.5059407,30.126348 Z m 22.6802703,0 a 0.7698047,0.7698047 0 0 1 0.769977,0.769464 0.7698047,0.7698047 0 0 1 -0.769977,0.769977 0.7698047,0.7698047 0 0 1 -0.769464,-0.769977 0.7698047,0.7698047 0 0 1 0.769464,-0.769464 z m -12.089186,0.378273 a 0.34179301,0.34179301 0 0 0 -0.341581,0.341582 0.34179301,0.34179301 0 0 0 0.341581,0.342096 h 2.031401 a 0.34179301,0.34179301 0 0 0 0.341581,-0.342096 0.34179301,0.34179301 0 0 0 -0.341581,-0.341582 z m -5.006929,2.936255 a 0.7698047,0.7698047 0 0 1 0.769979,0.769978 0.7698047,0.7698047 0 0 1 -0.769979,0.769463 0.7698047,0.7698047 0 0 1 -0.769462,-0.769463 0.7698047,0.7698047 0 0 1 0.769462,-0.769978 z m 11.511959,0 a 0.7698047,0.7698047 0 0 1 0.769462,0.769978 0.7698047,0.7698047 0 0 1 -0.769462,0.769463 0.7698047,0.7698047 0 0 1 -0.769979,-0.769463 0.7698047,0.7698047 0 0 1 0.769979,-0.769978 z"/>
  </g>
</svg>
