<?xml version="1.0" encoding="UTF-8" standalone="no"?>
<!***REMOVED***Created with Inkscape (http://www.inkscape.org/) -->

<svg
  width="150"
  height="150"
  viewBox="0 0 39.6875 39.6875"
  version="1.1"
  id="svg1168"
  xmlns="http://www.w3.org/2000/svg"
>
  <defs
    id="defs1165"/>
  <g
    id="layer1"/>
  <path
    style="stroke-width:0.131155"
    d="m 15.323429,31.264442 c 0.636025,-0.250589 0.697737,-0.526909 1.113848,-4.987255 0.151415,-1.623055 0.305062,-3.054294 0.341435,-3.180531 0.06108,-0.21198 0.368708,-0.229744 4.024762,-0.232404 4.415068,-0.0033 4.571106,-0.03002 5.428554,-0.932473 0.647506,-0.681496 0.825302,-1.359453 0.825302,-3.146971 v -1.55738 h 3.475632 3.475632 V 15.784713 14.341999 H 20.549545 7.0904953 l 0.331478,0.43459 c 0.546462,0.716448 0.771383,1.406284 0.844357,2.589652 0.05998,0.972649 -0.0033,1.474073 -0.474323,3.756419 -0.298948,1.448664 -0.776377,3.578577 -1.060952,4.73314 -0.690125,2.799943 -0.817755,3.634127 -0.650855,4.253944 0.222021,0.824525 0.389599,0.870856 3.671779,1.015149 1.6190777,0.07118 3.4749587,0.155351 4.1241807,0.187054 0.649221,0.0317 1.300492,0.01032 1.447269,-0.0475 z m -3.657728,-6.913544 c -0.09463,-0.09463 0.81045,-1.090298 0.991096,-1.090298 0.19125,0 0.107861,0.697031 -0.112524,0.940553 -0.215748,0.238399 -0.706308,0.322011 -0.878572,0.149745 z m -0.478238,-0.70457 c 0,-0.356806 0.462134,-0.779195 0.852514,-0.779195 0.436895,0 0.415245,0.09621 -0.15247,0.677606 -0.49761,0.509598 -0.700044,0.538976 -0.700044,0.101589 z m 8.030879,-1.506812 c -1.786631,-0.746501 -2.169403,-3.184838 -0.694747,-4.425679 0.49045,-0.412686 0.549437,-0.421428 1.060473,-0.157161 0.502864,0.260041 0.621998,0.507983 0.837667,1.743369 0.09916,0.567996 0.274091,1.21411 0.388736,1.43581 0.190301,0.368004 0.854988,1.009073 0.948888,0.915171 0.02166,-0.02166 -0.120148,-0.361848 -0.315123,-0.755982 -0.590439,-1.193548 -0.45084,-2.670225 0.337423,-3.569248 0.161965,-0.184725 0.418303,-0.229523 1.313315,-0.229523 1.401371,0 2.060608,0.196747 2.656765,0.792903 1.23949,1.23949 0.888013,3.393876 -0.680344,4.170191 -0.522512,0.258635 -0.777545,0.282945 -2.969414,0.283039 -1.867726,8.2e-5 -2.50521,-0.04477 -2.883639,-0.20289 z M 34.008594,11.653302 V 9.3580733 h -5.442971 -5.44297 V 10.210587 11.0631 H 19.974911 16.827168 V 10.210587 9.3580733 H 12.107765 7.3883593 l -0.311913,0.622991 c -0.812002,1.6218187 -1.112317,3.3158537 -0.666807,3.7613637 0.184735,0.184734 1.626107,0.206102 13.9025297,0.206102 h 13.696425 z m -19.83235,0.03279 c 0.200451,-0.656586 0.421648,-1.147614 0.516973,-1.147614 0.09164,0 0.166612,0.06461 0.166612,0.143585 0,0.258171 -0.557631,2.016222 -0.694637,2.189991 -0.31831,0.403723 -0.3134,-0.123215 0.01105,-1.185961 z m -1.081505,0.58004 c 0.387726,-1.305014 0.550747,-1.663159 0.777213,-1.707473 0.127605,-0.02497 0.202503,0.0046 0.166443,0.06558 -0.03606,0.06104 -0.221302,0.625092 -0.411651,1.253456 -0.254856,0.841316 -0.394589,1.123869 -0.530084,1.071875 -0.15755,-0.06045 -0.157825,-0.158688 -0.0019,-0.683435 z m -0.738645,-0.513075 c 0.234836,-0.762435 0.424935,-1.16183 0.565917,-1.188981 0.182997,-0.03524 0.164799,0.118553 -0.131862,1.114373 -0.327333,1.098783 -0.493878,1.404283 -0.697084,1.278695 -0.04983,-0.03079 0.06854,-0.572633 0.263029,-1.204087 z m -0.90835,-0.0085 c 0.255218,-0.819036 0.421888,-1.15349 0.591315,-1.18659 0.172584,-0.03371 0.213847,0.01145 0.15369,0.16821 -0.04523,0.117866 -0.209593,0.640278 -0.365255,1.160916 -0.343355,1.14843 -0.3433,1.148325 -0.560629,1.064927 -0.13761,-0.0528 -0.09936,-0.308126 0.180879,-1.207464 z m -1.178373,1.095922 c 0,-0.10448 0.15012,-0.665171 0.333597,-1.245981 0.225128,-0.712659 0.39858,-1.056018 0.533461,-1.056018 0.129845,0 0.175099,0.08042 0.12917,0.229523 -0.03888,0.126237 -0.196767,0.642664 -0.350855,1.147614 -0.154087,0.504951 -0.306794,0.962357 -0.33935,1.016459 -0.101577,0.168808 -0.306023,0.107615 -0.306023,-0.0916 z m -0.9180917,0.03279 c 0,-0.08645 0.149449,-0.647139 0.332105,-1.245982 0.219295,-0.718956 0.3975007,-1.088804 0.5246237,-1.088804 0.105886,0 0.192519,0.02646 0.192519,0.05881 0,0.09475 -0.6790357,2.226829 -0.7435937,2.334789 -0.09295,0.155431 -0.305654,0.114505 -0.305654,-0.05881 z m -0.584209,-1.203194 c 0.219921,-0.705325 0.421093,-1.131556 0.534089,-1.131556 0.236781,0 0.234254,0.02035 -0.153206,1.233673 -0.393345,1.231759 -0.440956,1.322249 -0.607877,1.155328 -0.08032,-0.08032 0.0018,-0.535024 0.226994,-1.257409 z m -2.833386,0.480147 c 0.086518,-0.345478 0.267847,-0.878945 0.402942,-1.185522 0.135096,-0.306577 0.220865,-0.557413 0.190596,-0.557413 -0.03027,0 -0.248275,0.11782 -0.48446,0.261822 -0.250725,0.152867 -0.661389,0.262025 -0.986839,0.262312 -0.306577,2.75e-4 -0.557413,0.04795 -0.557413,0.105968 0,0.172728 0.72626,1.253106 1.012552,1.506262 0.260734,0.230555 0.268022,0.223768 0.422622,-0.393469 z m 29.1678757,0.0058 c 0.04809,-0.04809 0.08743,-0.608783 0.08743,-1.245982 V 9.7515713 h -0.393463 -0.393469 v 1.2459807 c 0,1.217877 0.0069,1.245981 0.306031,1.245981 0.168317,0 0.345378,-0.03935 0.393468,-0.08743 z m -12.372587,-1.912691 -2.63e-4,-0.5574127 -2.786851,0.01297 -2.786851,0.01297 -0.04034,0.5444397 -0.04028,0.544441 h 2.827395 2.827394 l -2.62e-4,-0.557412 z M 32.82819,8.9849353 c 0,-0.1661624 -0.419536,-0.5018837 -0.754916,-0.6040991 -0.338858,-0.1032747 -1.54388,0.2134353 -1.93378,0.5082461 -0.23921,0.180871 -0.132361,0.198706 1.213193,0.20251 0.811527,0.0023 1.475503,-0.0457 1.475503,-0.106657 z"
    id="path1362"/>
</svg>
