<?xml version="1.0" encoding="UTF-8" standalone="no"?>
<svg
  id="svg10"
  width="200mm"
  height="200mm"
  viewBox="0 0 200 200"
  version="1.1"
  sodipodi:docname="locked.svg"
  inkscape:version="1.1.2 (0a00cf5339, 2022-02-04)"
  xmlns:inkscape="http://www.inkscape.org/namespaces/inkscape"
  xmlns:sodipodi="http://sodipodi.sourceforge.net/DTD/sodipodi-0.dtd"
  xmlns="http://www.w3.org/2000/svg"
>
  <sodipodi:namedview
     id="namedview5"
     pagecolor="#ffffff"
     bordercolor="#666666"
     borderopacity="1.0"
     inkscape:pageshadow="2"
     inkscape:pageopacity="0.0"
     inkscape:pagecheckerboard="0"
     inkscape:document-units="mm"
     showgrid="false"
     inkscape:zoom="0.20345893"
     inkscape:cx="-491.49969"
     inkscape:cy="-58.979963"
     inkscape:window-width="1621"
     inkscape:window-height="773"
     inkscape:window-x="269"
     inkscape:window-y="1256"
     inkscape:window-maximized="0"
     inkscape:current-layer="svg10" />
  <defs
     id="defs6" />
  <path
     id="path935"
     style="fill:#000000;stroke-width:1.30692"
     d="m 25.371833,49.24802 c -2.080424,0.553694 -3.781583,1.578617 -5.584685,3.112416 -2.180035,1.854435 -3.852689,3.783263 -3.717709,4.287017 0.379881,1.417735 5.674558,3.561555 10.639899,1.27121 3.740687,-1.725448 23.936791,1.284592 24.633527,4.131554 0.181628,0.741593 2.40883,1.606795 4.914262,1.931177 4.15704,0.538208 4.536431,0.374401 4.33312,-1.875873 C 60.115421,56.850214 53.907476,52.81158 42.854462,50.569017 33.996659,48.771867 29.080497,48.261344 25.371833,49.24802 Z M 169.33573,11.051873 c -0.0699,0.01864 -0.139,0.03854 -0.20755,0.05819 -2.5164,0.720959 -8.41525,4.5281 -13.10827,8.4609 -8.86169,7.426223 -12.24837,13.698565 -10.64794,19.715718 0.68859,2.587394 0.99792,2.620141 3.82509,0.405936 1.69147,-1.324755 4.0626,-1.865132 4.36993,-5.152083 0.36871,-3.943602 15.19622,-15.775786 19.35099,-15.798238 3.67127,-0.01983 9.18752,-5.530819 8.54373,-6.336657 -2.27848,-2.8520469 -7.7141,-2.5285819 -12.12594,-1.353658 z M 9.3073565,58.523104 c -5.2783727,-0.04251 -5.9052986,6.895768 0.316573,8.707691 4.8334155,1.407582 -1.3481422,-0.226242 6.7136735,1.532274 9.772962,2.131762 11.091042,1.94351 11.942713,-1.700511 0.493647,-2.112186 0.02833,-3.145726 -1.923405,-4.272564 -2.27506,-1.313509 -15.562993,-4.25492 -17.0495545,-4.26689 z M 188.21292,10.585503 c -1.51624,1.13986 -13.3727,11.93478 -13.49121,13.378428 -0.0801,0.976442 0.63172,2.633446 1.58221,3.681041 0.9505,1.047621 2.26313,1.761209 2.9176,1.58584 0.91847,-0.246103 11.97266,-9.553975 14.31939,-11.555195 3.83043,-3.266457 -1.61809,-9.8791119 -5.32799,-7.090114 z M 101.3246,44.761092 c -3.14757,0.838462 -6.227478,2.164915 -9.160615,3.974952 -4.347621,2.682891 -13.436359,14.525761 -12.844074,16.736201 0.154727,0.577448 1.996733,1.201628 4.092971,1.387379 5.060357,0.448416 6.780886,0.03528 7.320204,-1.760359 0.873956,-2.909842 8.996874,-9.156727 13.463094,-10.353446 4.57415,-1.225638 11.49875,-0.37518 16.3373,2.006756 2.16358,1.065115 3.35732,0.817527 6.73023,-1.395068 2.25491,-1.479184 3.97195,-3.164257 3.81615,-3.745713 -0.1558,-0.581455 -3.44857,-2.626105 -7.31706,-4.542649 -7.15138,-3.543041 -14.98345,-4.29404 -22.4382,-2.308048 z M 14.111799,71.378867 c -0.71032,0.171828 -0.604288,0.957045 -0.106029,2.816573 1.840813,6.870009 6.338474,9.785596 18.544263,12.018753 12.684073,2.320667 20.287176,1.297005 24.096626,-3.244285 1.2535,-1.494321 2.138835,-3.242382 1.966888,-3.884095 -0.365157,-1.36279 -5.56267,-3.072604 -9.761418,-0.248613 -2.531547,1.702663 -23.023054,-0.284513 -26.313901,-4.607722 -1.73917,-2.284758 -3.260916,-2.06685 -5.038435,-2.451835 -1.105054,-0.239335 -2.961822,-0.501926 -3.387994,-0.398776 z M 190.50291,24.115012 c -0.42063,0.123853 -0.98581,0.585764 -1.82314,1.34556 -1.34688,1.222165 -4.57702,2.904629 -4.82093,6.008586 -0.45521,5.793442 -17.01199,16.347231 -19.59912,16.075614 -2.54014,-0.608075 -3.59795,0.852107 -5.8542,2.594444 l -4.35504,3.530061 4.40425,1.464591 c 6.73898,2.240678 12.93536,-0.114181 23.31984,-8.861361 9.64481,-8.124132 12.08517,-12.841928 10.22845,-19.771286 -0.49825,-1.859528 -0.79905,-2.592454 -1.50011,-2.386209 z M 50.160957,65.907897 c -3.837885,0.532393 -4.705038,6.132153 -2.574621,7.278496 1.814439,1.708794 22.304686,4.097886 40.745954,5.62689 11.025983,0.549084 9.212333,-7.78041 0.122627,-8.187961 -8.763283,-0.766466 -30.56503,-3.581484 -33.455828,-4.186907 -2.540626,-0.532069 -3.87299,-0.782383 -4.838132,-0.530518 z M 158.2128,37.917984 c -2.96838,0.772123 -8.33225,4.42205 -18.70119,12.004665 -9.91463,7.25039 -18.0718,13.945513 -18.12772,14.87703 -0.0559,0.931539 0.44126,2.441398 1.10504,3.355248 1.80421,2.483874 5.12114,1.083332 16.80524,-7.096165 17.84115,-12.489726 23.45749,-17.485713 22.72638,-20.214233 -0.63956,-2.38689 -1.49899,-3.527124 -3.80774,-2.926549 z m -80.186515,42.924339 1.673326,6.244937 1.795723,6.910549 c 3.731792,-1.843958 6.667089,-2.483629 10.129011,-3.411248 l -1.627765,-4.50994 c -1.436263,-3.977783 -2.238337,-4.551468 -6.799461,-4.871393 z m 61.856785,-16.574475 -4.29665,2.899708 c -3.79008,2.557626 -4.19785,3.455487 -3.4528,7.618481 l 0.84529,4.719603 c 3.41704,-0.915593 5.86855,-0.854083 10.75029,-1.101808 l -2.17283,-7.891041 z m -32.27298,22.249918 c -18.610715,4.994351 -35.465582,11.799543 -36.324487,16.377374 -1.098911,5.85697 5.09508,13.38891 10.836854,34.6918 6.765055,25.0994 11.841272,30.92601 16.233945,35.07792 32.841658,28.38055 59.236108,22.29718 70.474798,-19.82696 3.07781,-10.46601 3.55422,-12.45473 -3.15655,-37.6387 -5.39177,-20.231371 -4.41326,-28.464294 -8.7531,-32.804065 -4.87144,-4.871457 -28.21938,-1.537663 -49.31151,4.122643 z m 11.712,24.729004 c 2.74318,-0.73503 5.32694,-0.0596 7.26843,1.44628 1.5659,1.14638 2.69386,2.79266 3.19753,4.66683 0.21245,0.86033 0.28955,1.7485 0.22841,2.63255 -0.008,0.25424 -0.0274,0.51104 -0.0578,0.76829 -0.0219,0.19119 -0.0502,0.38156 -0.0849,0.57082 -0.11287,0.61701 -0.29128,1.23852 -0.54301,1.85838 -0.82171,2.02337 -0.33458,6.2146 1.55391,13.37239 l 2.74946,10.42574 -4.41803,1.1838 -4.41801,1.18381 -2.83068,-10.40398 c -1.94354,-7.14305 -3.61829,-11.01604 -5.3416,-12.35748 -0.53387,-0.41557 -1.00403,-0.86983 -1.41351,-1.35374 -0.10853,-0.12823 -0.21325,-0.25963 -0.31402,-0.39404 -0.17716,-0.23463 -0.34094,-0.4761 -0.49132,-0.72172 -0.481,-0.7237 -0.84852,-1.51667 -1.08986,-2.35145 -0.35771,-1.38725 -0.36003,-2.84229 -0.007,-4.23068 0.10277,-0.46323 0.24276,-0.91733 0.41872,-1.35671 0.007,-0.016 0.0134,-0.0322 0.0201,-0.0483 0.92786,-2.27661 2.78897,-5.46046 5.57286,-4.89077 z" />
</svg>
