<?xml version="1.0" encoding="UTF-8" standalone="no"?>
<!-- Created with Inkscape (http://www.inkscape.org/) -->

<svg
   width="150"
   height="150"
   viewBox="0 0 39.6875 39.6875"
   version="1.1"
   id="svg1168"
   xmlns="http://www.w3.org/2000/svg"
   xmlns:svg="http://www.w3.org/2000/svg">
  <defs
     id="defs1165" />
  <g
     id="layer1" />
  <path
     id="rect345"
     style="stroke-width:0.260444;stroke-linecap:round;stroke-linejoin:round"
     d="m 4.8596517,3.294328 v 3.229777 a 1.3564451,1.3564451 0 0 1 1.0691854,1.3244669 1.3564451,1.3564451 0 0 1 -1.0691854,1.324467 v 1.1249961 a 1.3564451,1.3564451 0 0 1 1.0691854,1.324467 1.3564451,1.3564451 0 0 1 -1.0691854,1.324467 v 1.124995 a 1.3564451,1.3564451 0 0 1 1.0691854,1.324467 1.3564451,1.3564451 0 0 1 -1.0691854,1.324467 v 1.124996 a 1.3564451,1.3564451 0 0 1 1.0691854,1.324467 1.3564451,1.3564451 0 0 1 -1.0691854,1.324467 v 1.124996 a 1.3564451,1.3564451 0 0 1 1.0691854,1.324467 1.3564451,1.3564451 0 0 1 -1.0691854,1.324467 v 1.131714 a 1.3564451,1.3564451 0 0 1 1.0691854,1.317749 1.3564451,1.3564451 0 0 1 -1.0691854,1.324467 v 1.125513 a 1.3564451,1.3564451 0 0 1 1.0691854,1.324467 1.3564451,1.3564451 0 0 1 -1.0691854,1.324467 v 0.846976 a 1.3564451,1.3564451 0 0 1 1.0691854,1.324467 1.3564451,1.3564451 0 0 1 -1.0691854,1.324467 v 3.229777 h 2.6091431 a 1.3564451,1.3564451 0 0 1 1.3544392,-1.338936 1.3564451,1.3564451 0 0 1 1.35599,1.338936 h 1.063501 a 1.3564451,1.3564451 0 0 1 1.354439,-1.338936 1.3564451,1.3564451 0 0 1 1.355989,1.338936 h 1.064018 a 1.3564451,1.3564451 0 0 1 1.353923,-1.338936 1.3564451,1.3564451 0 0 1 1.355989,1.338936 h 1.064018 a 1.3564451,1.3564451 0 0 1 1.354439,-1.338936 1.3564451,1.3564451 0 0 1 1.355473,1.338936 h 1.064018 a 1.3564451,1.3564451 0 0 1 1.354439,-1.338936 1.3564451,1.3564451 0 0 1 1.35599,1.338936 h 1.063501 a 1.3564451,1.3564451 0 0 1 1.354439,-1.338936 1.3564451,1.3564451 0 0 1 1.35599,1.338936 h 1.063501 a 1.3564451,1.3564451 0 0 1 1.354439,-1.338936 1.3564451,1.3564451 0 0 1 1.355989,1.338936 h 2.004529 v -3.235978 a 1.3564451,1.3564451 0 0 1 -1.069185,-1.318266 1.3564451,1.3564451 0 0 1 1.069185,-1.318266 v -0.859379 a 1.3564451,1.3564451 0 0 1 -1.069185,-1.318265 1.3564451,1.3564451 0 0 1 1.069185,-1.318266 v -1.137915 a 1.3564451,1.3564451 0 0 1 -1.069185,-1.318266 1.3564451,1.3564451 0 0 1 1.069185,-1.317749 v -1.137915 a 1.3564451,1.3564451 0 0 1 -1.069185,-1.318266 1.3564451,1.3564451 0 0 1 1.069185,-1.318266 v -1.137398 a 1.3564451,1.3564451 0 0 1 -1.069185,-1.318266 1.3564451,1.3564451 0 0 1 1.069185,-1.318265 v -1.137399 a 1.3564451,1.3564451 0 0 1 -1.069185,-1.318266 1.3564451,1.3564451 0 0 1 1.069185,-1.318265 v -1.137399 a 1.3564451,1.3564451 0 0 1 -1.069185,-1.318265 1.3564451,1.3564451 0 0 1 1.069185,-1.318266 V 9.1668377 A 1.3564451,1.3564451 0 0 1 33.758663,7.8485719 1.3564451,1.3564451 0 0 1 34.827848,6.5303062 V 3.294328 H 32.823319 A 1.3564451,1.3564451 0 0 1 31.46733,4.6332643 1.3564451,1.3564451 0 0 1 30.112891,3.294328 H 29.04939 A 1.3564451,1.3564451 0 0 1 27.6934,4.6332643 1.3564451,1.3564451 0 0 1 26.338961,3.294328 H 25.27546 A 1.3564451,1.3564451 0 0 1 23.91947,4.6332643 1.3564451,1.3564451 0 0 1 22.565031,3.294328 H 21.501013 A 1.3564451,1.3564451 0 0 1 20.14554,4.6332643 1.3564451,1.3564451 0 0 1 18.791101,3.294328 H 17.727083 A 1.3564451,1.3564451 0 0 1 16.371094,4.6332643 1.3564451,1.3564451 0 0 1 15.017171,3.294328 H 13.953153 A 1.3564451,1.3564451 0 0 1 12.597164,4.6332643 1.3564451,1.3564451 0 0 1 11.242725,3.294328 H 10.179224 A 1.3564451,1.3564451 0 0 1 8.823234,4.6332643 1.3564451,1.3564451 0 0 1 7.4687948,3.294328 Z m 28.1755413,2.1104655 0.001,6.8254225 c 0.0011,6.918044 10e-4,13.221419 -5.16e-4,20.259229 l -5.17e-4,3.878316 H 19.816361 6.5975301 l 0.00672,-15.473474 0.00723,-15.4734738 13.2115963,-0.00827 z m -13.205396,0.3720703 -12.8881019,5.167e-4 -0.00723,7.5566445 -0.00672,7.556645 0.084749,-0.07493 c 0.2600108,-0.229555 0.3239113,-0.24131 0.4113444,-0.07493 0.1091118,0.207638 0.2100765,0.226328 0.4289144,0.07906 l 0.146761,-0.0987 0.071313,0.132808 c 0.03917,0.07297 0.090524,0.141247 0.1142049,0.151929 0.023682,0.01067 0.099353,-0.01273 0.1684652,-0.05219 l 0.1255737,-0.07183 0.071313,0.0677 c 0.039088,0.03725 0.1051086,0.08315 0.1467611,0.102319 0.074548,0.0343 0.07575,0.03944 0.075447,0.315226 -5.198e-4,0.448671 -0.015398,0.508585 -0.1353922,0.550871 -0.1369896,0.04824 -0.2236121,0.164651 -0.2418457,0.324528 -0.019675,0.172522 0.04058,0.281324 0.2030884,0.365869 l 0.1240234,0.0646 -0.015503,0.183451 c -0.00856,0.100899 -0.02892,0.606338 -0.045475,1.122929 -0.016555,0.516587 -0.041703,0.972928 -0.05581,1.013892 l -0.025838,0.07441 -0.093534,-0.08423 c -0.1034542,-0.09281 -0.2559259,-0.155778 -0.2775024,-0.114722 -0.014831,0.02823 0.021455,0.273048 0.053744,0.363803 0.014825,0.04168 -0.00707,0.07049 -0.091984,0.121439 -0.061238,0.03674 -0.1179141,0.06666 -0.1260905,0.06666 -0.00818,0 -0.014986,-0.05313 -0.014986,-0.117822 0,-0.172099 -0.092303,-0.326477 -0.2216918,-0.372071 -0.089103,-0.0314 -0.1277092,-0.029 -0.2278931,0.01602 -0.066374,0.02979 -0.1492711,0.09027 -0.1844849,0.134359 -0.082583,0.103387 -0.099247,0.101295 -0.1193725,-0.01705 -0.024462,-0.143849 -0.1254445,-0.188496 -0.243396,-0.107487 l -0.090951,0.06253 -0.00723,1.965771 -0.00723,1.965772 h 0.076998 c 0.3813809,0 2.4215203,-0.416641 3.4349324,-0.701766 0.526491,-0.148127 0.658705,-0.204611 0.480591,-0.205156 -0.19605,-5.56e-4 -2.2095265,-0.159709 -2.2231202,-0.175699 -0.023294,-0.0274 0.037769,-0.04366 0.6133992,-0.161748 0.5005501,-0.102699 1.868844,-0.41948 1.968872,-0.455786 0.02272,-0.0083 0.214799,-0.05799 0.426847,-0.110587 0.520104,-0.128995 1.206575,-0.328209 1.234034,-0.358118 0.01227,-0.01334 -0.136187,-0.04178 -0.330213,-0.06305 -0.627553,-0.06879 -1.122057,-0.132097 -1.206644,-0.154513 -0.07788,-0.02062 -0.07406,-0.02442 0.06873,-0.0646 0.141313,-0.03974 1.066475,-0.243577 1.597319,-0.351917 0.421107,-0.08595 0.798401,-0.184555 0.798401,-0.208773 0,-0.04414 -0.322826,-0.194303 -0.417546,-0.194303 -0.05171,0 -0.142203,0.02902 -0.201538,0.0646 l -0.108004,0.0646 -0.07545,-0.09715 c -0.139975,-0.180234 -0.278171,-0.203637 -0.474907,-0.08061 -0.07122,0.04452 -0.138445,0.08061 -0.149345,0.08061 -0.0109,0 -0.04367,-0.05201 -0.07286,-0.115755 -0.10288,-0.224675 -0.315231,-0.269076 -0.567408,-0.118856 -0.120433,0.07173 -0.148425,0.103047 -0.143143,0.161748 0.0078,0.08674 0.0162,0.08524 -0.133842,0.0217 -0.08845,-0.03746 -0.169992,-0.04515 -0.306442,-0.02997 -0.196285,0.02179 -0.222733,0.0016 -0.129191,-0.09819 0.03498,-0.03725 0.05314,-0.0912 0.04806,-0.14211 -0.0115,-0.115288 -0.124994,-0.157873 -0.277502,-0.10387 -0.238176,0.08433 -0.263786,0.08419 -0.283187,-0.0067 -0.0098,-0.04569 -0.03543,-0.101074 -0.05736,-0.122473 -0.05215,-0.05091 -0.193795,-0.04284 -0.316776,0.01757 -0.09715,0.04774 -0.099,0.04713 -0.188102,-0.06098 l -0.089918,-0.109554 0.031523,-0.852661 c 0.017472,-0.468974 0.039315,-0.993337 0.048576,-1.165304 l 0.01705,-0.312642 0.08061,-0.01912 c 0.04424,-0.0104 0.116775,-0.06141 0.161231,-0.113688 0.16287,-0.191547 0.08042,-0.517641 -0.160714,-0.636137 l -0.09715,-0.04754 0.01447,-0.567924 c 0.008,-0.31243 0.02135,-0.575956 0.02946,-0.585494 0.0081,-0.0096 0.06236,-0.02469 0.120407,-0.03359 0.09029,-0.01384 0.130265,0.0032 0.276468,0.119372 0.182308,0.144686 0.183898,0.145179 0.513664,0.07803 0.07295,-0.01484 0.153774,-0.0027 0.256315,0.03824 0.144621,0.05781 0.153969,0.05766 0.279053,0.001 0.219536,-0.09916 0.24203,-0.0992 0.361218,0 0.110448,0.09193 0.111001,0.09358 0.110588,0.302824 l -5.17e-4,0.210839 -0.114722,0.0646 c -0.18995,0.106963 -0.191994,0.313044 -0.0041,0.443384 l 0.100769,0.07028 -0.01757,0.241845 c -0.0096,0.133142 -0.01705,0.378873 -0.01705,0.54622 v 0.304375 l -0.08992,-0.01964 c -0.07342,-0.01618 -0.102322,-0.0047 -0.156579,0.06305 -0.07592,0.09504 -0.118067,0.103863 -0.166915,0.03462 -0.05053,-0.07161 -0.16015,-0.05703 -0.325045,0.04341 l -0.146244,0.0894 0.24753,0.04289 c 0.136202,0.02373 0.278241,0.0363 0.315743,0.02791 0.04778,-0.01072 0.06428,-0.0027 0.05478,0.02635 -0.0087,0.02668 0.02583,0.0537 0.09612,0.07596 0.121368,0.03847 0.183083,0.02284 0.270784,-0.06976 0.05824,-0.06151 0.06012,-0.06146 0.195337,0.0217 0.144003,0.08855 0.189631,0.0857 0.306958,-0.02015 0.08591,-0.07752 0.136854,-0.07495 0.214974,0.01137 0.05943,0.06566 0.07353,0.06805 0.19482,0.03152 0.100231,-0.03023 0.152433,-0.03095 0.222726,-0.0021 0.06862,0.02813 0.116859,0.02874 0.192236,0.0016 0.05541,-0.02006 0.150511,-0.04046 0.21084,-0.04496 l 0.109554,-0.0083 -0.128674,-0.0801 c -0.116027,-0.07203 -0.138441,-0.07577 -0.224276,-0.03927 -0.08725,0.03713 -0.104488,0.03318 -0.200504,-0.04341 -0.06974,-0.05565 -0.126186,-0.07745 -0.167949,-0.06511 l -0.06253,0.0186 v -0.498678 c 0,-0.6203 0.0092,-0.678284 0.112137,-0.723986 0.178675,-0.07931 0.173566,-0.335856 -0.0088,-0.4408 l -0.103352,-0.05943 v -0.209807 -0.209289 l 0.115755,-0.06098 c 0.129215,-0.06804 0.15884,-0.05821 0.281636,0.09353 0.04449,0.05497 0.0947,0.100252 0.111621,0.100252 0.01692,0 0.08958,-0.04374 0.161231,-0.09715 0.15282,-0.113983 0.218188,-0.120878 0.313676,-0.03256 0.09145,0.08461 0.1678,0.08115 0.434082,-0.01912 0.121171,-0.04563 0.304456,-0.0911 0.406693,-0.101286 l 0.185519,-0.0186 v 0.199988 c 0,0.162248 -0.009,0.203351 -0.04806,0.217557 -0.102801,0.03735 -0.131315,0.07186 -0.139527,0.168466 -0.0071,0.08374 0.0055,0.108581 0.07597,0.151411 l 0.08423,0.05116 v 0.334863 c 0,0.386585 -0.0199,0.537952 -0.07028,0.537952 -0.01961,0 -0.07284,-0.02508 -0.118339,-0.05581 -0.07833,-0.05286 -0.0852,-0.05286 -0.134875,0 -0.02924,0.03112 -0.100544,0.05711 -0.160714,0.05891 -0.05938,0.0017 -0.138866,0.01466 -0.176733,0.02894 -0.0588,0.02217 -0.05208,0.02669 0.04651,0.02946 0.06348,0.0017 0.123386,0.01883 0.133325,0.03772 0.0429,0.08165 0.154066,0.09646 0.270267,0.03617 0.09735,-0.05052 0.126733,-0.05331 0.196888,-0.01912 0.0766,0.0373 0.299164,0.03673 0.964282,-0.0016 0.260574,-0.01489 0.256347,-0.01296 0.167948,-0.06718 -0.04395,-0.02695 -0.101752,-0.04085 -0.128157,-0.03101 -0.0264,0.0098 -0.09267,-0.0071 -0.147278,-0.03772 l -0.09922,-0.05581 v -0.390674 l 5.17e-4,-0.39119 0.08268,-0.05478 c 0.06373,-0.04263 0.08217,-0.078 0.08217,-0.155546 0,-0.08473 -0.01579,-0.107842 -0.100252,-0.149345 l -0.09974,-0.04909 0.01654,-0.164331 c 0.0091,-0.09027 0.0214,-0.169691 0.02739,-0.176733 0.006,-0.0071 0.07236,-0.02159 0.147278,-0.03204 0.106823,-0.01489 0.160503,-0.0039 0.250114,0.04961 0.128991,0.0774 0.255769,0.08533 0.485758,0.03101 0.142401,-0.03363 0.172759,-0.03012 0.302307,0.03307 0.254586,0.124096 0.305185,0.132605 0.490926,0.08165 0.128731,-0.03529 0.203954,-0.03922 0.296623,-0.0155 0.06838,0.01751 0.494081,0.03845 0.945679,0.04651 0.753756,0.01344 0.81937,0.01004 0.801501,-0.03876 l 0.181901,0.05013 0.997872,0.02377 0.997872,0.02377 c 0.08311,-0.115555 0.101427,-0.073 0.234611,-0.02739 -3.54e-4,0.02217 0.261098,0.01855 1.032495,-0.01447 0.06058,-0.0028 0.162877,0.0068 0.227377,0.02067 0.09775,0.02079 0.145776,0.0096 0.288354,-0.06563 0.160747,-0.08484 0.180369,-0.08787 0.325045,-0.05271 0.215036,0.05225 0.294051,0.04697 0.490409,-0.03101 0.167236,-0.06643 0.175742,-0.06646 0.347266,-0.01189 0.202932,0.06461 0.371178,0.04748 0.497127,-0.05013 0.106744,-0.08276 0.189203,-0.08094 0.289905,0.0067 0.07648,0.06651 0.08165,0.08469 0.08165,0.292489 0,0.201002 -0.0058,0.22399 -0.06305,0.249597 -0.155657,0.06961 -0.166703,0.254444 -0.01964,0.326078 l 0.08268,0.04082 v 0.401526 c -3e-6,0.341891 -0.0067,0.405454 -0.04496,0.422713 -0.02473,0.01117 -0.06804,0.003 -0.09612,-0.01757 -0.07019,-0.05158 -0.148169,-0.04665 -0.189136,0.01137 -0.01885,0.02673 -0.07941,0.04989 -0.134358,0.05168 -0.05495,0.0017 -0.131119,0.01465 -0.168982,0.02894 -0.06018,0.02268 -0.05496,0.02677 0.04134,0.03049 0.06058,0.0023 0.134414,0.02556 0.163814,0.05168 0.06858,0.06101 0.145897,0.06018 0.24908,-0.0031 0.06725,-0.04125 0.102399,-0.04421 0.192754,-0.01447 0.08056,0.02651 0.14703,0.0272 0.244429,0.0016 0.10071,-0.02651 0.156461,-0.02572 0.22686,0.0041 0.0783,0.03329 0.114519,0.03079 0.224275,-0.0155 0.07201,-0.03035 0.217471,-0.05709 0.323495,-0.05943 0.106023,-0.0023 0.161886,-0.01007 0.124023,-0.01757 -0.03786,-0.0075 -0.107818,-0.03479 -0.155546,-0.06046 -0.04773,-0.02568 -0.123283,-0.04703 -0.167948,-0.04703 h -0.08113 l -0.01809,-0.296106 c -0.02903,-0.481017 -0.02775,-0.490268 0.06511,-0.552421 0.131309,-0.08787 0.09868,-0.260609 -0.06201,-0.327629 -0.04012,-0.01673 -0.04858,-0.06101 -0.04858,-0.264066 -2e-6,-0.134165 0.0052,-0.243913 0.01085,-0.243913 0.0058,0 0.05364,0.0213 0.10697,0.04754 0.0941,0.04624 0.103562,0.04422 0.31781,-0.08061 0.121442,-0.07075 0.245565,-0.128674 0.275952,-0.128674 0.03039,0 0.09105,0.03517 0.134359,0.07803 0.04484,0.04436 0.134823,0.08772 0.208773,0.100769 l 0.129708,0.02274 v 0.269751 c -2e-6,0.237131 -0.0062,0.271524 -0.05271,0.288871 -0.106588,0.03979 -0.195337,0.149523 -0.195337,0.241846 0,0.111192 0.08711,0.247 0.174666,0.272851 0.05934,0.01751 0.06695,0.04163 0.0832,0.267684 0.0098,0.136616 0.01757,0.501652 0.01757,0.81132 0,0.54663 -0.0015,0.562239 -0.05323,0.529684 -0.0911,-0.05734 -0.161087,-0.03738 -0.222208,0.06356 -0.06937,0.114583 -0.09185,0.118713 -0.185002,0.03256 -0.100577,-0.09304 -0.165555,-0.08128 -0.351916,0.0646 l -0.165365,0.129708 0.137976,0.001 c 0.07573,4.73e-4 0.186423,0.01426 0.24598,0.03049 0.05975,0.01629 0.161478,0.01764 0.227376,0.0031 0.111329,-0.02445 0.20476,0.01143 0.09819,0.03772 -0.07988,0.01967 0.05776,0.09269 0.186036,0.0987 0.08402,0.0039 0.126182,-0.01518 0.186551,-0.0832 0.09592,-0.108075 0.117491,-0.108209 0.266134,-0.0057 0.09706,0.06689 0.131755,0.07569 0.191203,0.04909 0.03993,-0.01784 0.08648,-0.06932 0.10387,-0.114204 0.04116,-0.106256 0.139403,-0.10658 0.284737,-0.0016 0.137496,0.0996 0.232103,0.102473 0.332279,0.0098 0.08141,-0.07532 0.205393,-0.09133 0.356051,-0.04547 l 0.08268,0.02532 -0.08268,-0.102836 c -0.125046,-0.155025 -0.16165,-0.169025 -0.284737,-0.111104 -0.10579,0.04981 -0.109543,0.04912 -0.183969,-0.03204 -0.04187,-0.04564 -0.09126,-0.0832 -0.109554,-0.0832 -0.02324,0 -0.03847,-0.119235 -0.05064,-0.396358 -0.0096,-0.218216 -0.02529,-0.580135 -0.03514,-0.804085 l -0.01809,-0.407211 0.08733,-0.04237 c 0.101531,-0.04946 0.14056,-0.120685 0.14056,-0.256315 -2e-6,-0.104527 -0.105609,-0.230994 -0.192753,-0.230994 -0.05017,0 -0.0841,-0.173 -0.08165,-0.417546 0.0011,-0.109703 0.01067,-0.122598 0.15813,-0.207222 0.08645,-0.04963 0.178386,-0.08951 0.204122,-0.08888 0.02573,5.55e-4 0.07997,0.05185 0.120406,0.114205 0.04044,0.06234 0.08799,0.113688 0.105937,0.113688 0.01796,0 0.07471,-0.05136 0.12609,-0.113688 0.05138,-0.06234 0.11206,-0.113171 0.134876,-0.113171 0.02281,0 0.08238,0.04599 0.131774,0.102319 l 0.0894,0.10232 0.105936,-0.08578 c 0.140189,-0.11426 0.220717,-0.113553 0.242363,0.0026 0.02978,0.159854 0.03652,0.170016 0.117822,0.170016 0.07365,0 0.08192,0.01126 0.09663,0.137459 0.0088,0.07571 0.01894,0.296255 0.02222,0.489893 l 0.0057,0.351916 -0.10852,0.06149 c -0.157282,0.08866 -0.204639,0.170296 -0.204639,0.35295 0,0.130862 0.01361,0.172126 0.08475,0.255799 0.0466,0.0548 0.100705,0.09922 0.120407,0.09922 0.01969,0 0.04864,0.0186 0.06408,0.04083 0.01571,0.02268 0.04161,0.432516 0.05891,0.931209 0.017,0.489874 0.03873,1.043682 0.04806,1.230933 0.01676,0.336137 0.01589,0.341852 -0.05788,0.444934 l -0.07441,0.104386 -0.07286,-0.101286 c -0.08127,-0.113593 -0.25798,-0.220096 -0.367419,-0.221175 -0.09235,-0.0012 -0.146005,0.07446 -0.12144,0.169499 0.06132,0.237253 0.06494,0.287632 0.02325,0.306441 -0.02296,0.01035 -0.09633,-0.01235 -0.163297,-0.05064 -0.215265,-0.123003 -0.512649,-0.06539 -0.549321,0.106454 -0.01343,0.06293 -0.03535,0.0831 -0.09043,0.0832 -0.09913,1.6e-4 -0.224493,0.09543 -0.328662,0.250114 l -0.08682,0.129191 0.226343,0.02067 c 0.124482,0.0114 0.332132,0.02056 0.460954,0.02067 0.128823,9.5e-5 0.469357,0.02879 0.757059,0.06356 0.287703,0.03474 0.758668,0.07919 1.046448,0.0987 0.28778,0.01951 0.740046,0.05605 1.005107,0.08113 0.26506,0.02506 0.584473,0.05507 0.709517,0.06666 0.125043,0.01162 0.233188,0.03252 0.240812,0.04702 0.02165,0.04119 -0.13864,0.09184 -0.462504,0.145211 -0.483089,0.07961 -0.570507,0.151431 -0.570507,0.471289 0,0.09995 -0.0071,0.190066 -0.0155,0.199988 -0.0084,0.01 -0.11034,-0.02574 -0.22686,-0.07906 -0.361376,-0.165263 -0.734633,-0.160717 -1.030945,0.0124 -0.196883,0.115032 -0.237679,0.299961 -0.14366,0.65009 0.02745,0.10221 0.04233,0.194789 0.03307,0.205672 -0.0093,0.01089 -0.119995,-0.02744 -0.24598,-0.08475 -0.399708,-0.181858 -0.678163,-0.131164 -0.873332,0.158647 -0.192806,0.286304 -0.227684,0.575808 -0.10697,0.884184 0.03956,0.10107 0.06584,0.190722 0.05839,0.199471 -0.0075,0.0087 -0.11502,-0.04097 -0.238745,-0.110588 -0.260218,-0.146441 -0.42393,-0.181583 -0.594279,-0.12764 -0.172431,0.05464 -0.278019,0.188344 -0.278019,0.352433 0,0.177502 0.07344,0.237793 0.458887,0.379305 0.171895,0.06311 0.312642,0.12983 0.312642,0.148311 0,0.02291 -0.125092,0.02486 -0.392741,0.0062 -0.913115,-0.06354 -1.371839,-0.0029 -1.69602,0.22531 -0.310284,0.218192 -0.352691,0.465218 -0.136943,0.800468 0.06051,0.09401 0.09168,0.162561 0.06925,0.152445 -0.02242,-0.01011 -0.199994,-0.05002 -0.394808,-0.08888 -0.276182,-0.05508 -0.424346,-0.06713 -0.671277,-0.05478 -0.412425,0.02063 -0.62,0.102036 -0.799951,0.313676 -0.191504,0.225223 -0.20194,0.40116 -0.04237,0.721403 0.12006,0.240936 0.09253,0.263802 -0.186552,0.153995 -0.397691,-0.156476 -1.001619,-0.206388 -1.380794,-0.113688 -0.533271,0.130368 -0.894821,0.440945 -0.894519,0.767912 0,0.115167 0.07303,0.280673 0.186552,0.422713 0.03901,0.0488 0.06284,0.09773 0.05323,0.109037 -0.0096,0.01128 -0.117145,-0.0033 -0.239261,-0.03204 -0.5225,-0.123822 -0.970866,1.79e-4 -1.103292,0.305408 -0.07642,0.176191 -0.06748,0.320974 0.03411,0.563273 0.04845,0.115555 0.08132,0.218454 0.07286,0.22841 -0.0085,0.01 -0.117413,-0.02615 -0.241846,-0.0801 -0.463196,-0.200863 -0.843548,-0.199082 -1.18494,0.0057 -0.224075,0.134407 -0.303858,0.263088 -0.303858,0.489892 0,0.153306 0.0081,0.172746 0.13746,0.319361 l 0.137459,0.156062 h -0.0894 c -0.188384,4.89e-4 -0.60283,0.09344 -0.787032,0.176217 -0.186238,0.0837 -0.334864,0.205779 -0.334864,0.275435 2.71e-4,0.02357 2.199084,0.03411 7.198011,0.03411 h 7.198527 l 0.01654,-0.10542 c 0.02333,-0.148738 0.01822,-11.101032 -0.0052,-11.100615 -0.01058,2e-4 -0.08085,0.05832 -0.156579,0.129192 -0.117034,0.109529 -0.157635,0.128896 -0.269751,0.129191 -0.16458,4.28e-4 -0.316554,0.0891 -0.424264,0.247013 -0.09981,0.146327 -0.146244,0.124347 -0.146244,-0.06925 0,-0.111925 -0.01241,-0.150699 -0.05788,-0.179318 -0.07666,-0.04824 -0.216488,-0.0147 -0.335896,0.08062 l -0.09663,0.077 -0.01809,-0.377237 c -0.01,-0.207649 -0.02977,-0.558476 -0.04393,-0.779281 -0.03617,-0.563704 -0.03709,-0.553971 0.03669,-0.553971 0.03449,0 0.09036,0.02291 0.124024,0.05064 0.03366,0.02774 0.06149,0.03545 0.06149,0.01705 0,-0.02251 0.02273,-0.02349 0.07028,-0.0021 0.101425,0.04536 0.365778,0.03824 0.491959,-0.01344 0.07999,-0.03274 0.130015,-0.03559 0.192753,-0.01085 0.138208,0.05447 0.374654,0.06667 0.444418,0.02274 0.03491,-0.02195 0.07871,-0.08305 0.09715,-0.135392 0.04583,-0.130139 -0.01899,-0.290636 -0.141593,-0.350366 -0.08103,-0.03946 -0.09991,-0.03655 -0.198954,0.03049 -0.107091,0.07249 -0.110961,0.07278 -0.216008,0.01705 -0.127547,-0.06764 -0.230007,-0.03112 -0.271301,0.09663 -0.02397,0.07414 -0.0352,0.07758 -0.176217,0.06046 -0.125277,-0.01523 -0.167405,-0.0057 -0.250631,0.05478 -0.05503,0.04002 -0.103797,0.06747 -0.10852,0.06098 -0.0048,-0.0064 -0.02319,-0.04438 -0.04082,-0.08423 -0.01764,-0.03985 -0.06231,-0.08145 -0.09974,-0.0925 -0.06182,-0.01823 -0.06821,-0.03606 -0.06821,-0.194303 0,-0.165791 0.0042,-0.17671 0.0894,-0.219108 0.14395,-0.07165 0.199471,-0.168065 0.199471,-0.345715 0,-0.19391 -0.07891,-0.305562 -0.259932,-0.36742 l -0.125574,-0.04289 -0.01705,-0.207223 c -0.0096,-0.114005 -0.01891,-0.319059 -0.02067,-0.455269 -0.0032,-0.2432 -0.0019,-0.249336 0.09043,-0.344682 0.116678,-0.120479 0.267109,-0.180919 0.384473,-0.155029 0.04918,0.01084 0.156901,0.07007 0.239262,0.131775 0.08236,0.06171 0.167558,0.112709 0.189135,0.113171 0.02159,4.5e-4 0.132493,-0.03742 0.246497,-0.08372 0.179619,-0.07292 0.221007,-0.0791 0.310575,-0.04754 0.05685,0.02001 0.139962,0.07222 0.184485,0.116272 0.04451,0.04407 0.08504,0.0801 0.09043,0.0801 0.0054,0 0.0098,-3.472281 0.0098,-7.716325 V 5.7768638 Z m 4.404383,2.36368 c 0.04295,-0.00168 0.08469,1.044e-4 0.12764,0.00568 0.08591,0.01123 0.177386,0.037932 0.296623,0.082682 0.135562,0.05086 0.213293,0.1081995 0.349333,0.2578654 l 0.174666,0.1922363 0.15813,-0.053744 c 0.223752,-0.0765 0.527207,-0.052329 0.733805,0.058911 0.279985,0.1507556 0.548186,0.5464549 0.576193,0.8500773 l 0.0088,0.097152 -2.512508,0.00827 -2.513025,0.00827 V 9.538908 c 0,-0.1296946 0.08497,-0.2854644 0.22996,-0.4227132 0.09716,-0.09197 0.123718,-0.1003795 0.325561,-0.1043864 0.193468,-0.0039 0.228693,-0.014186 0.293522,-0.085266 0.04052,-0.04441 0.102162,-0.097794 0.136943,-0.1188558 0.104695,-0.06339 0.34218,-0.095642 0.481108,-0.065112 l 0.129707,0.028422 0.188619,-0.2211752 c 0.207106,-0.2435714 0.377534,-0.3429223 0.679029,-0.3942911 0.04847,-0.00826 0.09296,-0.013305 0.135909,-0.014986 z m -8.800497,0.3074748 c 0.03628,-2.433e-4 0.07292,0.00116 0.109554,0.00413 0.146527,0.01184 0.290254,0.048666 0.387574,0.107487 0.17801,0.1076176 0.421657,0.3705198 0.504878,0.5446695 0.05856,0.1225198 0.06243,0.1251104 0.171049,0.099736 0.186348,-0.04352 0.461219,-0.028297 0.597897,0.033073 0.13227,0.05941 0.353576,0.3047414 0.412894,0.4578532 0.02796,0.07216 0.04912,0.082166 0.170533,0.082166 0.230646,0 0.412932,0.1351136 0.470255,0.3482996 l 0.01964,0.07286 h -2.262911 -2.262911 l 0.01912,-0.2025713 c 0.03882,-0.4182102 0.207891,-0.6438751 0.488343,-0.651123 0.07983,-0.0022 0.177216,0.00694 0.216524,0.019637 0.06789,0.02201 0.07343,0.014163 0.104386,-0.1467611 0.06611,-0.3436972 0.272273,-0.6093442 0.559139,-0.721403 0.08106,-0.03168 0.185188,-0.047329 0.294039,-0.048059 z m 5.046721,2.5920894 c 0.594373,-6.1e-5 1.018129,0.105604 1.497583,0.373104 0.421547,0.23519 0.911137,0.678528 1.162203,1.052132 0.556462,0.828045 0.811829,1.814722 0.72502,2.80138 -0.01723,0.195949 -0.03692,0.385539 -0.04393,0.421163 -0.01044,0.05314 0.05269,0.115338 0.352433,0.346232 0.624997,0.481434 1.245649,0.875913 1.776636,1.12913 0.124956,0.05958 0.227376,0.119797 0.227376,0.133842 -2e-6,0.05607 -1.002732,-0.445119 -1.532206,-0.765845 -1.025789,-0.621362 -1.986377,-1.418526 -2.83962,-2.356445 l -0.199988,-0.219625 h -1.02681 -1.026811 l -0.12299,0.148311 c -0.350723,0.423792 -1.058561,1.078751 -1.6769,1.551327 -0.928868,0.709905 -1.869191,1.239524 -2.935222,1.653129 -0.272207,0.105611 -0.509369,0.171926 -0.480074,0.134358 0.0082,-0.01061 0.144483,-0.07221 0.302824,-0.136942 0.843558,-0.344932 1.607533,-0.779702 2.257227,-1.284676 0.22121,-0.171932 0.261101,-0.215761 0.257348,-0.284221 -0.0024,-0.04452 -0.01902,-0.248956 -0.03669,-0.454235 -0.155379,-1.805882 0.769421,-3.463259 2.260844,-4.050916 0.360774,-0.142152 0.643579,-0.191136 1.101742,-0.191203 z m 0.07596,3.273702 c 0.433608,0.0012 0.809017,0.01217 0.834574,0.02429 0.02556,0.01212 0.224021,0.204884 0.4408,0.428398 0.533347,0.549894 0.918243,0.909875 1.48053,1.384411 0.230274,0.194344 0.212593,0.19577 -0.219108,0.02015 -0.413656,-0.168258 -0.706112,-0.322709 -1.032495,-0.544669 -0.166611,-0.113305 -0.305229,-0.20355 -0.307992,-0.201022 -0.0027,0.0028 0.03123,0.193487 0.07545,0.424781 0.04422,0.231293 0.08034,0.439947 0.08062,0.463537 2.69e-4,0.02357 -0.173528,-0.151255 -0.386023,-0.388607 -0.212497,-0.237351 -0.396302,-0.435742 -0.40876,-0.4408 -0.01246,-0.0049 -0.03054,0.09 -0.03979,0.21084 -0.02314,0.302356 -0.0754,0.624252 -0.101286,0.624252 -0.03585,0 -0.526818,-0.449998 -0.693498,-0.635621 -0.08596,-0.09574 -0.180931,-0.174149 -0.211356,-0.174149 -0.03042,0 -0.146029,0.08472 -0.256832,0.188102 -0.110802,0.103382 -0.315899,0.292969 -0.455786,0.421163 -0.139887,0.128195 -0.259924,0.233061 -0.266651,0.233061 -0.01287,0 0.144194,-0.709117 0.166398,-0.751376 0.0071,-0.01345 -0.07764,0.03584 -0.188102,0.109554 -0.413734,0.276143 -0.847075,0.47152 -1.243335,0.56069 -0.118561,0.02668 -0.234683,0.04858 -0.258382,0.04858 -0.0237,0 0.06492,-0.07994 0.197404,-0.177767 0.332202,-0.24529 0.883193,-0.692527 1.106392,-0.898137 0.222439,-0.204915 0.807678,-0.801729 0.86093,-0.877982 0.03378,-0.04836 0.121663,-0.05374 0.826306,-0.05168 z M 9.5420532,15.160787 c 0.028191,-0.001 0.057723,-3.15e-4 0.088883,0.0021 0.2241504,0.01711 0.3438495,0.09611 0.4376993,0.288871 0.06609,0.135726 0.06719,0.153437 0.05839,0.7059 -0.005,0.311733 -0.0172,0.654309 -0.02739,0.761194 l -0.0186,0.194304 -0.1100704,0.0036 c -0.1141929,0.0039 -0.9588583,-0.05217 -0.9694499,-0.0646 -0.00331,-0.0039 0.01018,-0.32986 0.029972,-0.724503 0.032544,-0.648911 0.042162,-0.732837 0.1028361,-0.873332 0.083793,-0.194036 0.2103878,-0.2862 0.407727,-0.293522 z m 20.6240638,0.671277 c 0.108743,0.0017 0.214435,0.02395 0.271818,0.06511 0.161987,0.11616 0.178385,0.177376 0.216008,0.820105 0.019,0.324444 0.02918,0.596621 0.02274,0.604614 -0.0064,0.008 -0.151,0.02524 -0.320911,0.03824 -0.169912,0.013 -0.38412,0.02456 -0.476457,0.02584 l -0.167948,0.0021 -0.01809,-0.393258 c -0.03752,-0.820836 -0.0078,-1.00073 0.182418,-1.106909 0.07003,-0.03907 0.181677,-0.05758 0.290421,-0.05581 z m -2.665987,1.320849 c 0.14248,0.0012 0.285205,0.07027 0.345199,0.206706 0.02648,0.06023 0.05369,0.248643 0.06873,0.476974 0.03357,0.509665 0.03308,0.51673 -0.02222,0.535367 -0.02651,0.0089 -0.203926,0.02618 -0.394808,0.03824 l -0.347266,0.0217 -0.01809,-0.104903 c -0.03629,-0.213392 -0.01973,-0.871943 0.02429,-0.972034 0.05965,-0.135644 0.201684,-0.203005 0.344165,-0.202055 z m -14.998051,0.0186 c 0.05035,-0.0023 0.103597,0.0063 0.157613,0.02687 0.216834,0.08241 0.26273,0.239932 0.230994,0.787548 l -0.01964,0.341582 -0.306958,-0.0021 c -0.450089,-0.0028 -0.434197,0.01278 -0.414445,-0.409794 0.009,-0.192114 0.02786,-0.403382 0.04186,-0.469222 0.0353,-0.166119 0.159523,-0.268611 0.310575,-0.274919 z m -3.4948769,0.0708 0.3994589,0.0098 c 0.2196203,0.0049 0.4582546,0.01699 0.5302002,0.02687 0.1297888,0.01778 0.1307418,0.01891 0.1307418,0.137976 -3e-6,0.06602 -0.01489,0.137786 -0.03307,0.159163 -0.01818,0.02134 -0.052489,0.03678 -0.075965,0.03411 -0.02348,-0.0028 -0.2334555,-0.01678 -0.4666382,-0.03101 -0.2331884,-0.01422 -0.441623,-0.03373 -0.4630208,-0.04341 -0.027099,-0.01223 -0.035884,-0.05945 -0.029972,-0.155546 z m 21.6529419,0.241329 0.01809,0.08475 c 0.02333,0.109309 -0.0024,0.201021 -0.0615,0.220658 -0.02573,0.0086 -0.234814,0.02561 -0.465088,0.03772 l -0.418579,0.02222 -0.01757,-0.08217 c -0.02485,-0.116399 0.0083,-0.214319 0.07855,-0.230993 0.03307,-0.0078 0.241361,-0.02257 0.463021,-0.03307 z M 9.1839355,17.709985 c 0.043459,-6.66e-4 0.099151,0.0071 0.1679485,0.02325 l 0.089917,0.02119 -0.018604,0.569991 c -0.010146,0.313474 -0.036563,1.014218 -0.058394,1.557528 -0.021834,0.543309 -0.047299,1.186387 -0.056844,1.428853 -0.00955,0.242466 -0.027337,0.459425 -0.039274,0.482141 -0.011939,0.02273 -0.084658,0.04865 -0.1617472,0.05736 -0.1180178,0.01334 -0.1433442,0.006 -0.1596802,-0.04393 -0.024906,-0.07633 0.084395,-3.839705 0.1167887,-4.02146 0.00701,-0.03935 0.032874,-0.06281 0.080099,-0.07131 0.011807,-0.0021 0.025305,-0.0034 0.039791,-0.0036 z m 0.447518,0.03462 h 0.1638142 c 0.1214772,0 0.1678544,0.01294 0.179834,0.04961 0.00888,0.02724 -0.00372,0.555565 -0.028422,1.174088 -0.024685,0.618519 -0.058043,1.452321 -0.073897,1.853117 -0.015856,0.400805 -0.037461,0.801314 -0.048059,0.890385 -0.017085,0.143518 -0.027047,0.162714 -0.08785,0.165882 -0.1354997,0.0071 -0.2511257,-0.02527 -0.2671672,-0.07441 -0.00898,-0.02751 -0.00202,-0.387293 0.015503,-0.799435 0.017524,-0.412141 0.050235,-1.208276 0.072864,-1.769401 0.022628,-0.561116 0.048502,-1.126077 0.057361,-1.25522 z m 20.6772905,0.226859 h 0.152446 c 0.097,0 0.156575,0.01458 0.164331,0.04031 0.02369,0.07875 0.205665,3.494692 0.206189,3.870564 v 0.170016 h -0.161747 -0.162264 l -0.01602,-0.137976 c -0.0089,-0.07571 -0.02971,-0.436327 -0.04599,-0.801502 -0.01628,-0.365173 -0.05359,-1.151984 -0.0832,-1.74873 -0.02962,-0.59675 -0.05377,-1.154588 -0.05374,-1.239201 z m -0.496093,0.03204 h 0.149861 c 0.08241,0 0.156336,0.01273 0.164331,0.02791 0.008,0.01523 0.04615,0.68893 0.08475,1.497583 0.0386,0.808657 0.08283,1.695495 0.09819,1.970422 0.02222,0.398024 0.02088,0.508076 -0.0072,0.539502 -0.01939,0.02173 -0.08645,0.04914 -0.148828,0.06098 -0.141771,0.02685 -0.138903,0.03358 -0.17415,-0.494026 -0.05489,-0.821466 -0.165847,-3.09806 -0.166398,-3.415813 z m -17.666106,0.405144 0.343649,0.0088 c 0.189048,0.0049 0.354893,0.02229 0.368453,0.03824 0.01356,0.01595 0.017,0.06682 0.0072,0.112655 -0.01954,0.09157 0.0021,0.08883 -0.534851,0.05891 l -0.201538,-0.01137 0.0088,-0.103353 z m 15.604733,0.08578 c 0.177919,-0.0013 0.196464,0.02962 0.184485,0.129191 -0.0078,0.06534 -0.02983,0.07937 -0.147278,0.09767 -0.18477,0.02879 -0.605462,0.0326 -0.628386,0.0057 -0.01009,-0.01189 -0.0186,-0.06142 -0.0186,-0.110071 v -0.08837 l 0.374137,-0.02377 c 0.09953,-0.0063 0.176338,-0.0099 0.235645,-0.01034 z m -12.52275,0.12454 c 0.280841,0 0.360231,0.139333 0.327112,0.574125 l -0.0217,0.28422 -0.234095,0.0041 c -0.339377,0.0062 -0.367741,-0.0036 -0.347265,-0.124023 0.0092,-0.05419 0.01654,-0.206813 0.01654,-0.338997 0,-0.211984 0.0081,-0.249756 0.0677,-0.319878 0.05174,-0.06084 0.09691,-0.07958 0.19172,-0.07958 z m -3.03289,0.12609 0.113171,0.0098 0.113172,0.0098 -0.0072,0.518315 c -0.0067,0.48353 -0.0619,2.165713 -0.07131,2.173511 -0.0024,0.0017 -0.05092,0.01177 -0.108521,0.02222 -0.07666,0.0139 -0.108823,0.0066 -0.119889,-0.02739 -0.01758,-0.05386 0.0382,-2.280189 0.06356,-2.534729 z m 0.445451,0.0036 c 0.151345,0 0.152618,0.0036 0.151929,0.497127 -8.32e-4,0.626148 -0.04898,2.13719 -0.07028,2.202449 -0.01666,0.05108 -0.0818,0.06226 -0.183452,0.03101 -0.05891,-0.01812 -0.05995,-0.09744 -0.02015,-1.516186 0.03372,-1.201897 0.03453,-1.214396 0.121957,-1.214396 z m 12.936678,0.04547 c 0.02377,-0.0025 0.04793,-0.0019 0.07235,0.0016 v -5.17e-4 c 0.03256,0.0044 0.06521,0.01481 0.09715,0.03049 0.137654,0.06765 0.182417,0.202468 0.182417,0.548804 v 0.271818 l -0.168982,0.02067 c -0.218506,0.02685 -0.394839,0.02661 -0.418062,-5.17e-4 -0.01009,-0.01189 -0.0186,-0.172724 -0.0186,-0.357601 -3e-6,-0.311183 0.0047,-0.342321 0.06563,-0.413928 0.05011,-0.05893 0.116793,-0.09312 0.188102,-0.100769 z m 1.807125,0.05168 h 0.10697 l 0.01602,0.202055 c 0.03124,0.395362 0.111921,2.484721 0.09664,2.50269 -0.03397,0.03997 -0.208578,0.05387 -0.227377,0.01809 -0.0401,-0.07632 -0.150203,-2.568296 -0.117822,-2.667538 0.0127,-0.03897 0.04997,-0.05529 0.125574,-0.05529 z m 0.243913,0 h 0.125573 0.125057 l 0.01757,0.218592 c 0.03904,0.493574 0.09792,1.766059 0.09819,2.121317 v 0.380339 h -0.123506 c -0.116689,0 -0.123988,-0.0047 -0.12454,-0.08888 -3.11e-4,-0.04897 -0.01897,-0.446203 -0.04134,-0.882633 -0.02236,-0.436432 -0.04895,-1.008494 -0.05891,-1.27124 z M 15.31121,19.529512 c 0.153482,0.0061 0.236678,0.03747 0.236678,0.09199 0,0.03262 -0.01997,0.06825 -0.04392,0.07906 -0.04826,0.02179 -0.16833,0.01892 -0.396875,-0.0098 -0.127718,-0.01601 -0.151412,-0.02909 -0.151412,-0.08372 -3e-6,-0.05709 0.02105,-0.06645 0.178801,-0.07545 v 5.16e-4 c 0.06631,-0.0038 0.125572,-0.0046 0.176733,-0.0026 z m 10.316166,0.185519 c 0.140703,4.28e-4 0.281525,0.01907 0.293522,0.05581 0.0091,0.0279 0.0051,0.06335 -0.0083,0.07855 -0.01337,0.01518 -0.136009,0.03785 -0.272851,0.05013 -0.2101,0.0189 -0.254382,0.01428 -0.285254,-0.02946 -0.0201,-0.02851 -0.02945,-0.07382 -0.02067,-0.100769 0.01197,-0.03669 0.152819,-0.05471 0.293522,-0.05426 z m -10.31875,0.06666 0.08527,0.0098 0.08475,0.0098 0.0088,0.388606 c 0.0048,0.213759 8.17e-4,0.567266 -0.0093,0.785482 l -0.0186,0.396358 h -0.09353 -0.09353 v -0.331762 c 0,-0.182587 0.0082,-0.54054 0.01809,-0.795301 z m -0.203088,0.0041 c 0.04092,-0.0023 0.08165,0.01039 0.09095,0.03979 0.0071,0.02229 0.0069,0.379593 -5.16e-4,0.79375 l -0.01395,0.752926 h -0.0925 -0.0925 v -0.74259 c 0,-0.408252 0.0074,-0.765054 0.01654,-0.793233 0.01,-0.03057 0.05108,-0.04825 0.09198,-0.05064 z m 10.590051,0.17725 0.08268,0.0021 0.08268,0.0016 0.01705,0.355017 c 0.0094,0.195143 0.01874,0.555019 0.02067,0.799951 l 0.0036,0.445451 h -0.08113 c -0.04455,0 -0.08633,-0.01095 -0.09302,-0.02429 -0.0067,-0.01334 -0.01667,-0.373981 -0.02222,-0.801501 z m -0.288871,0.01654 h 0.09612 0.09664 l 0.0062,0.550354 c 0.0034,0.302829 0.0062,0.656337 0.0067,0.785482 l 5.17e-4,0.234611 -0.08527,0.0098 c -0.08265,0.0094 -0.08624,0.0044 -0.103353,-0.142111 -0.0097,-0.08359 -0.01757,-0.441004 -0.01757,-0.794783 z m -10.318233,1.463477 c 0.06494,-0.0031 0.138402,-0.0028 0.219108,0.001 0.225569,0.01079 0.308164,0.02677 0.342098,0.06666 0.03688,0.04335 0.03854,0.06141 0.0093,0.102836 -0.02886,0.04091 -0.102423,0.04973 -0.396875,0.04806 -0.375384,-0.0023 -0.485759,-0.02688 -0.485759,-0.109037 0,-0.06112 0.117313,-0.100259 0.312126,-0.109554 z m 4.550626,0.03514 c -0.03272,-0.0015 -0.05388,-0.0016 -0.06511,5.17e-4 v 5.16e-4 c -0.02247,0.0044 -0.0065,0.01647 0.02997,0.04031 0.04234,0.02773 0.188894,0.07167 0.325562,0.09767 0.483898,0.09204 0.571985,0.21361 0.230994,0.318327 -0.0303,0.0093 -0.25324,0.04708 -0.495577,0.08423 -2.063763,0.316555 -3.153296,0.762829 -3.153296,1.291394 0,0.160121 0.158254,0.338131 0.451135,0.506946 0.229377,0.132211 0.41685,0.202685 1.329118,0.499711 0.559958,0.182321 0.957341,0.424973 1.081071,0.660425 0.06885,0.131 0.07644,0.359348 0.01757,0.525032 -0.05572,0.156864 -0.290155,0.422604 -0.551905,0.625285 -0.499158,0.386519 -1.631598,0.971516 -2.891813,1.493966 -1.129871,0.468417 -2.47606,0.995639 -3.180684,1.245918 -0.113598,0.04035 -0.416892,0.149574 -0.674378,0.24288 -0.407562,0.147685 -1.552199,0.54912 -1.831412,0.642338 -0.05301,0.01767 -0.4994133,0.170955 -0.9916711,0.340031 -0.8439653,0.289876 -2.0982606,0.707314 -2.264978,0.753959 l -0.075964,0.02119 v 2.571419 2.57142 l 4.5098025,-0.0021 4.509285,-0.0016 0.248047,-0.326078 c 0.450158,-0.592514 1.179993,-1.372765 1.880505,-2.01073 0.924596,-0.842035 1.76499,-1.504523 3.792534,-2.988965 1.551581,-1.135977 2.227417,-1.692384 2.698543,-2.222086 0.658695,-0.740605 0.89573,-1.257582 0.894519,-1.948719 -5.2e-4,-0.263647 -0.01345,-0.374414 -0.06563,-0.548287 -0.209408,-0.697664 -0.84089,-1.261985 -1.833996,-1.639693 -0.57674,-0.219351 -1.356384,-0.42006 -2.271696,-0.584977 -0.787953,-0.141969 -1.587082,-0.309407 -1.858802,-0.38964 -0.635183,-0.187551 -0.717039,-0.41077 -0.236678,-0.645956 0.242057,-0.118512 0.483678,-0.187764 1.306897,-0.375171 0.353909,-0.08057 0.694442,-0.17374 0.75706,-0.206705 0.137207,-0.07223 0.217872,-0.171224 0.195337,-0.240296 -0.05577,-0.170915 -0.707851,-0.323657 -1.678451,-0.393774 -0.05872,-0.0042 -0.103188,-0.0073 -0.135909,-0.0088 z m -7.492566,0.125573 c 0.23865,-0.0056 0.616146,0.02283 0.713135,0.06356 0.131867,0.05536 0.179988,0.131403 0.128674,0.204121 -0.03059,0.04335 -0.107138,0.05076 -0.494026,0.04754 -0.509763,-0.0044 -0.603345,-0.01879 -0.647506,-0.101286 -0.04306,-0.08043 0.0071,-0.160704 0.12299,-0.196371 0.03312,-0.01017 0.09719,-0.01569 0.176733,-0.01757 z m 13.577466,0.01344 c 0.151635,-5.55e-4 0.295747,0.01261 0.336414,0.03979 0.07441,0.04975 0.07893,0.0911 0.01395,0.131258 -0.0478,0.02952 -0.692436,0.0656 -0.784965,0.04393 -0.08948,-0.02101 -0.05501,-0.128345 0.05529,-0.172599 0.0688,-0.02762 0.22767,-0.04176 0.379305,-0.04237 z m 2.131136,0.05581 c 0.152636,0.0046 0.28686,0.02435 0.35295,0.0615 0.09324,0.05242 0.11503,0.170525 0.04031,0.217558 -0.02921,0.01839 -0.206745,0.04163 -0.394291,0.05168 -0.187548,0.01006 -0.402795,0.0237 -0.478524,0.03049 -0.196956,0.01767 -0.294432,-0.03037 -0.283704,-0.139009 0.0054,-0.05392 0.03424,-0.09969 0.07855,-0.124541 0.09984,-0.05601 0.315252,-0.08983 0.527616,-0.09715 0.05309,-0.0019 0.106218,-0.002 0.157096,-5.17e-4 z m -18.599898,0.3514 c 0.3467512,0.0043 0.7006977,0.0673 0.825789,0.152962 0.06627,0.04536 0.08268,0.07872 0.08268,0.167432 0,0.08544 -0.01554,0.119764 -0.06873,0.151411 -0.07609,0.04524 -0.3102371,0.04703 -0.9374104,0.0067 -0.4473999,-0.02879 -0.5386062,-0.05629 -0.576709,-0.174149 -0.066912,-0.206983 0.067281,-0.284232 0.5265828,-0.302307 0.048543,-0.0019 0.098259,-0.0027 0.1477946,-0.0021 z m 21.301025,0.218074 c 0.418386,2.56e-4 0.600183,0.04813 0.659908,0.173633 0.0392,0.08237 0.03828,0.09314 -0.01654,0.157613 -0.04549,0.05347 -0.111417,0.07542 -0.289388,0.09663 -0.126583,0.01512 -0.447043,0.0372 -0.712101,0.04909 -0.463095,0.02084 -0.483831,0.0188 -0.532268,-0.04496 -0.184202,-0.24245 0.207606,-0.43246 0.890385,-0.432015 z M 7.4041992,22.605811 c -0.045315,0.0045 -0.097515,0.02458 -0.1617472,0.05891 -0.2460654,0.131436 -0.3094933,0.42429 -0.1131714,0.522965 0.033088,0.01662 0.1163259,0.02308 0.1844849,0.01447 0.4099412,-0.05169 0.5070411,-0.05444 0.6531901,-0.01964 0.1294932,0.03085 0.1818254,0.02884 0.2826701,-0.0088 l 0.1240234,-0.04599 -0.1100708,-0.05478 C 8.2029926,23.042915 8.1083055,22.961314 8.0532552,22.891581 7.9747722,22.792155 7.93318,22.765102 7.8605021,22.765491 c -0.050975,2.56e-4 -0.1109691,0.01439 -0.1333252,0.03101 -0.030091,0.0224 -0.063235,0.001 -0.1276408,-0.08165 -0.050564,-0.06492 -0.096702,-0.100228 -0.1519287,-0.108004 -0.013807,-0.0019 -0.028303,-0.0025 -0.043408,-0.001 z M 21.73149,22.740169 c -0.01829,-1.62e-4 -0.03667,6.05e-4 -0.05581,0.0026 -0.05103,0.0056 -0.105528,0.01822 -0.166915,0.03772 -0.152468,0.04853 -0.194598,0.05036 -0.315227,0.01395 -0.129351,-0.03902 -0.147893,-0.03668 -0.269234,0.03359 -0.0718,0.04157 -0.114066,0.08209 -0.09405,0.09043 0.02604,0.01084 0.02016,0.02887 -0.02067,0.06253 -0.0795,0.06549 -0.07129,0.10424 0.03256,0.15503 0.126142,0.06169 0.314465,0.0842 1.074869,0.130224 0.782965,0.04741 1.276332,0.05479 1.176156,0.01705 -0.03786,-0.01428 -0.105975,-0.02751 -0.151412,-0.02946 -0.04965,-0.0023 -0.131125,-0.04906 -0.204122,-0.117306 -0.120131,-0.112303 -0.162143,-0.119397 -0.276469,-0.04703 -0.05359,0.03396 -0.118578,2.61e-4 -0.337964,-0.173633 -0.151945,-0.120439 -0.263668,-0.174565 -0.391707,-0.1757 z M 8.7012777,25.296086 c 0.00691,-0.0033 0.029736,0.0011 0.07183,0.01034 0.4317853,0.09708 0.7697768,0.238078 0.8526611,0.355534 0.057201,0.08106 0.00807,0.101906 -0.060978,0.02584 -0.1479855,-0.163034 -0.3304778,-0.17664 -0.5415691,-0.03979 -0.081936,0.05314 -0.1529747,0.09663 -0.1581298,0.09663 -0.00515,0 -0.0093,-0.02942 -0.0093,-0.06563 -2.9e-6,-0.09551 -0.076791,-0.299636 -0.1317749,-0.350366 -0.020652,-0.01906 -0.029649,-0.02944 -0.022738,-0.03256 z m 22.8151453,0.311092 c 0.08538,0.0012 0.192272,0.02103 0.237711,0.04392 0.08105,0.04086 0.0796,0.04213 -0.0925,0.05994 -0.159574,0.0165 -0.183531,0.02858 -0.26355,0.13746 l -0.08785,0.119889 -0.370004,0.01344 -0.370003,0.01344 0.220142,-0.08785 c 0.121168,-0.04841 0.299461,-0.13633 0.395841,-0.195337 0.140508,-0.08602 0.205739,-0.106726 0.330213,-0.104903 z m -1.322917,0.06666 c 0.02257,1.45e-4 0.0447,0.0013 0.06666,0.0036 0.05857,0.0062 0.113929,0.02074 0.158647,0.04392 l 0.09612,0.04961 -0.18035,-0.01705 c -0.124195,-0.01195 -0.228901,-0.0013 -0.334864,0.03514 -0.180485,0.06171 -0.195935,0.06356 -0.173116,0.02015 0.04467,-0.085 0.208916,-0.136405 0.366903,-0.135393 z M 11.64425,25.910002 c 0.04166,-0.0017 0.07545,0.01109 0.07545,0.02894 -4e-6,0.01778 -0.003,0.03124 -0.0067,0.02946 -0.0038,-0.0017 -0.0381,-0.01517 -0.07596,-0.02946 l -0.06873,-0.02584 z m -2.1021968,0.0041 c 0.045279,0.0017 0.086748,0.0128 0.1152385,0.03359 0.058586,0.04302 0.1664593,0.07607 0.7064163,0.218592 0.07957,0.02101 0.151263,0.05169 0.159681,0.0677 0.0084,0.01601 0.04864,0.02941 0.0894,0.02997 0.0549,5.56e-4 0.06367,0.0081 0.03307,0.02842 -0.09743,0.06483 -0.165396,0.07233 -0.182418,0.02015 -0.02277,-0.06979 -0.154989,-0.147123 -0.250114,-0.146244 -0.04241,3.89e-4 -0.129828,0.02914 -0.194303,0.06356 l -0.1173058,0.06253 -0.1080038,-0.136426 -0.1080037,-0.135909 -0.2072225,0.0021 c -0.1861188,0.0017 -0.2014116,-0.0029 -0.1514119,-0.04392 0.042931,-0.03536 0.1066144,-0.05677 0.1689819,-0.06253 0.015591,-0.0015 0.030899,-0.0021 0.045992,-0.0016 z m 1.3668418,0.287321 c 0.06148,-0.0023 0.135961,0.01832 0.165364,0.04444 0.0294,0.02612 0.04018,0.04802 0.02377,0.04858 -0.01641,5.56e-4 -0.03643,-0.0072 -0.04444,-0.01654 -0.008,-0.0094 -0.06893,-0.02961 -0.135392,-0.04496 l -0.120923,-0.02791 z" />
</svg>
