<?xml version="1.0" encoding="UTF-8" standalone="no"?>
<!-- Created with Inkscape (http://www.inkscape.org/) -->

<svg
   width="150"
   height="150"
   viewBox="0 0 39.6875 39.6875"
   version="1.1"
   id="svg1168"
   sodipodi:docname="long-path.svg"
   inkscape:version="1.2.2 (b0a8486541, 2022-12-01)"
   xmlns:inkscape="http://www.inkscape.org/namespaces/inkscape"
   xmlns:sodipodi="http://sodipodi.sourceforge.net/DTD/sodipodi-0.dtd"
   xmlns="http://www.w3.org/2000/svg"
   xmlns:svg="http://www.w3.org/2000/svg">
  <sodipodi:namedview
     id="namedview1510"
     pagecolor="#ffffff"
     bordercolor="#666666"
     borderopacity="1.0"
     inkscape:showpageshadow="2"
     inkscape:pageopacity="0.0"
     inkscape:pagecheckerboard="0"
     inkscape:deskcolor="#d1d1d1"
     showgrid="false"
     inkscape:zoom="2.9"
     inkscape:cx="46.551724"
     inkscape:cy="13.793103"
     inkscape:window-width="1920"
     inkscape:window-height="1043"
     inkscape:window-x="0"
     inkscape:window-y="0"
     inkscape:window-maximized="1"
     inkscape:current-layer="svg1168" />
  <defs
     id="defs1165" />
  <g
     id="layer1" />
  <path
     id="path305"
     style="fill:#000000;stroke-width:0.0387572"
     d="M 0,0 V 1.2523466 C 0.47873071,1.5185155 0.77652286,2.022351 0.77885573,2.5700951 0.77811266,3.1194146 0.48010123,3.6253033 0,3.8922401 V 5.5707597 C 0.47873059,5.8369286 0.77652272,6.3407639 0.77885573,6.8885078 0.77811269,7.4378273 0.48010126,7.9437161 0,8.2106529 V 9.8891712 C 0.47873267,10.155341 0.77652513,10.65918 0.77885573,11.206926 0.77811048,11.756243 0.48009936,12.262129 0,12.529065 v 1.678519 c 0.47873304,0.26617 0.77652557,0.770009 0.77885573,1.317756 C 0.77652268,16.073084 0.47873056,16.576919 0,16.843088 v 1.682916 c 0.47873087,0.266169 0.77652304,0.770005 0.77885573,1.317749 C 0.77652268,20.391497 0.47873056,20.895332 0,21.161501 v 1.682916 c 0.47873087,0.266169 0.77652304,0.770005 0.77885573,1.317749 C 0.77652268,24.70991 0.47873056,25.213745 0,25.479914 v 1.682916 c 0.47873087,0.266169 0.77652304,0.770005 0.77885573,1.317749 C 0.77652268,29.028323 0.47873056,29.532158 0,29.798327 v 1.682916 c 0.47873087,0.266169 0.77652304,0.770005 0.77885573,1.317749 C 0.77652304,33.346736 0.47873087,33.850572 0,34.116741 v 1.678526 c 0.48009904,0.266936 0.77811012,0.772821 0.77885573,1.322138 C 0.77652304,37.665149 0.47873087,38.168985 0,38.435154 V 39.6875 h 1.2524197 c 0.2661687,-0.478731 0.7700046,-0.776524 1.3177491,-0.778857 0.5477443,0.0023 1.0515799,0.300126 1.3177485,0.778857 h 1.6829169 c 0.2661687,-0.478731 0.7700046,-0.776524 1.3177492,-0.778857 0.5477445,0.0023 1.0515804,0.300126 1.3177491,0.778857 h 1.6827614 c 0.2661961,-0.47878 0.7701041,-0.77658 1.3179041,-0.778857 0.547745,0.0023 1.05158,0.300126 1.317749,0.778857 h 1.682839 c 0.266169,-0.478731 0.770004,-0.776524 1.317749,-0.778857 0.547799,0.0023 1.051705,0.300079 1.3179,0.778857 H 18.526 c 0.266169,-0.478731 0.770004,-0.776524 1.317749,-0.778857 0.547799,0.0023 1.051706,0.300078 1.317901,0.778857 h 1.682761 c 0.266169,-0.478731 0.770004,-0.776524 1.317748,-0.778857 0.547799,0.0023 1.051706,0.300078 1.317901,0.778857 h 1.682764 c 0.266169,-0.478732 0.770006,-0.776525 1.317751,-0.778857 0.547744,0.0023 1.051579,0.300126 1.317748,0.778857 h 1.682916 c 0.266169,-0.478731 0.770004,-0.776524 1.317749,-0.778857 0.547745,0.0023 1.05158,0.300126 1.317749,0.778857 h 1.682913 c 0.266169,-0.478732 0.770006,-0.776525 1.317751,-0.778857 0.547744,0.0023 1.051579,0.300126 1.317748,0.778857 h 1.252349 v -1.252346 c -0.478702,-0.266188 -0.776464,-0.77002 -0.778782,-1.317749 0.0023,-0.547757 0.300055,-1.051626 0.778782,-1.317828 v -1.682836 c -0.478702,-0.266188 -0.776464,-0.77002 -0.778782,-1.317749 0.0023,-0.547729 0.30008,-1.051561 0.778782,-1.317749 v -1.682916 c -0.478702,-0.266188 -0.776464,-0.77002 -0.778782,-1.317748 0.0023,-0.547729 0.30008,-1.051561 0.778782,-1.317749 v -1.682916 c -0.478702,-0.266188 -0.776464,-0.77002 -0.778782,-1.317748 0.0023,-0.547729 0.30008,-1.051561 0.778782,-1.317749 v -1.682916 c -0.478702,-0.266188 -0.776464,-0.77002 -0.778782,-1.317748 0.0023,-0.547729 0.30008,-1.051561 0.778782,-1.317749 v -1.682916 c -0.478702,-0.266188 -0.776464,-0.77002 -0.778782,-1.317748 0.0023,-0.547731 0.300077,-1.051567 0.778782,-1.317756 v -1.682836 c -0.478725,-0.266201 -0.776491,-0.770067 -0.778782,-1.317822 0.0023,-0.547731 0.300078,-1.051566 0.778782,-1.3177548 V 8.2063352 C 39.208771,7.9401333 38.911005,7.4362647 38.908716,6.8885078 c 0.0023,-0.5477284 0.30008,-1.0515601 0.778782,-1.3177481 V 3.8879233 C 39.208771,3.6217212 38.911005,3.1178522 38.908716,2.5700951 c 0.0023,-0.5477286 0.30008,-1.0515604 0.778782,-1.3177485 V 0 H 38.435149 C 38.16898,0.47873085 37.665145,0.77652328 37.117401,0.77885648 36.569656,0.77652436 36.065819,0.47873178 35.79965,0 H 34.116737 C 33.850568,0.47873116 33.346732,0.77652364 32.798988,0.77885648 32.251244,0.77652364 31.747408,0.47873116 31.481239,0 H 29.798323 C 29.532154,0.47873085 29.028319,0.77652328 28.480575,0.77885648 27.93283,0.77652436 27.428993,0.47873178 27.162824,0 H 25.48006 C 25.213865,0.47877845 24.709958,0.77657849 24.162159,0.77885648 23.614415,0.77652328 23.11058,0.47873085 22.844411,0 H 21.16165 C 20.895455,0.47877845 20.391548,0.77657849 19.843749,0.77885648 19.296005,0.77652364 18.792169,0.47873116 18.526,0 H 16.843235 C 16.57704,0.47877814 16.073134,0.77657813 15.525335,0.77885648 14.977591,0.77652364 14.473755,0.47873116 14.207586,0 H 12.524747 C 12.258578,0.47873116 11.754742,0.77652364 11.206998,0.77885648 10.659198,0.77657961 10.15529,0.47877941 9.8890939,0 H 8.2063325 C 7.9401636,0.47873119 7.4363278,0.77652367 6.8885834,0.77885648 6.3408389,0.77652371 5.8370031,0.47873122 5.5708342,0 H 3.8879173 C 3.6217485,0.478731 3.117913,0.77652346 2.5701688,0.77885648 2.0224244,0.77652367 1.5185886,0.47873119 1.2524197,0 Z m 38.40858,1.2789184 0.0015,8.1681832 c 0.0015,8.2785154 0.0015,15.8208634 -5.86e-4,24.2427004 l -9.98e-4,4.641192 H 19.80504 1.2014478 l 0.00978,-18.516314 0.00976,-18.5163066 18.5938262,-0.00971 z m -36.7229428,0.4457877 -0.00976,9.0428639 -0.00978,9.0428 0.1197567,-0.08986 c 0.3659306,-0.274698 0.4552824,-0.2885 0.5783328,-0.0894 0.1535603,0.248471 0.2957803,0.270687 0.6037652,0.09447 L 3.174455,19.607421 3.2746778,19.76624 c 0.055126,0.08732 0.1275308,0.169188 0.1608583,0.181971 0.033329,0.01277 0.1401234,-0.01543 0.2373889,-0.06265 l 0.1768305,-0.08592 0.1000753,0.08107 c 0.055012,0.04457 0.1479561,0.09976 0.2065763,0.122702 0.1049162,0.04104 0.1066331,0.04703 0.1062068,0.377053 -7.316e-4,0.536904 -0.02143,0.608651 -0.190306,0.659253 -0.1927942,0.05773 -0.3150544,0.197164 -0.3407157,0.388481 -0.027689,0.206449 0.057507,0.336741 0.2862153,0.437912 l 0.174559,0.0772 -0.021956,0.219525 c -0.012046,0.12074 -0.040965,0.725307 -0.064264,1.343489 -0.023299,0.618176 -0.058571,1.164111 -0.078426,1.213131 l -0.036103,0.0891 -0.1316392,-0.100374 c -0.145607,-0.111059 -0.360234,-0.186597 -0.3906003,-0.137464 -0.020872,0.03378 0.029652,0.32643 0.075093,0.435033 0.020865,0.04988 -0.00987,0.08438 -0.1293685,0.145343 -0.086184,0.04396 -0.1660787,0.07993 -0.1775861,0.07993 -0.011506,0 -0.020972,-0.06339 -0.020972,-0.1408 0,-0.205943 -0.1293219,-0.390995 -0.3114188,-0.445555 C 2.779726,24.60709 2.7251596,24.61042 2.5841642,24.6643 2.490752,24.699948 2.3737778,24.77232 2.3242192,24.825078 2.207995,24.948797 2.1848027,24.945891 2.1564789,24.804264 2.122052,24.632124 1.9801711,24.578941 1.8141702,24.675883 l -0.128535,0.07502 -0.00999,2.352386 -0.00999,2.352313 H 1.774212 c 0.5367423,0 3.4073695,-0.498978 4.8336114,-0.840174 0.740965,-0.177256 0.9270273,-0.244686 0.6763565,-0.245338 -0.2759131,-6.65e-4 -3.1094607,-0.191304 -3.1285918,-0.210439 -0.032784,-0.03279 0.053057,-0.05202 0.8631799,-0.193326 0.7044573,-0.122895 2.6303741,-0.501885 2.7711488,-0.54533 0.031973,-0.0099 0.3023073,-0.06946 0.6007382,-0.132401 0.7319749,-0.154362 1.698094,-0.39273 1.736739,-0.42852 0.01727,-0.01596 -0.1920229,-0.04995 -0.4650881,-0.0754 -0.8831978,-0.08232 -1.578934,-0.158101 -1.6979809,-0.184925 -0.1096102,-0.02468 -0.1040555,-0.02906 0.096893,-0.07714 0.1988795,-0.04756 1.5008341,-0.291532 2.247925,-0.421178 0.592653,-0.102848 1.123962,-0.221054 1.123962,-0.250034 0,-0.05282 -0.454337,-0.232768 -0.587642,-0.232768 -0.07277,0 -0.200663,0.03486 -0.284169,0.07744 l -0.151851,0.07736 -0.10628,-0.116351 c -0.196996,-0.21568 -0.3916084,-0.243809 -0.6684871,-0.09659 -0.100226,0.05327 -0.1947977,0.09689 -0.2101375,0.09689 -0.015338,0 -0.061505,-0.06232 -0.1025717,-0.138605 -0.1447853,-0.268858 -0.4434802,-0.322148 -0.7983851,-0.142384 -0.1694935,0.08584 -0.2086382,0.12354 -0.2012047,0.193784 0.010987,0.103803 0.02276,0.102169 -0.1884111,0.02614 -0.1244843,-0.04483 -0.239218,-0.05454 -0.4312527,-0.03638 -0.2762468,0.02607 -0.3138492,0.002 -0.182202,-0.117329 0.049233,-0.04457 0.074977,-0.109094 0.067825,-0.170019 -0.016189,-0.13796 -0.1756639,-0.188617 -0.3902982,-0.123994 -0.3352004,0.100916 -0.3710933,0.100173 -0.3983981,-0.0086 -0.013728,-0.05467 -0.050217,-0.120408 -0.081072,-0.146015 -0.073391,-0.06092 -0.2724058,-0.05174 -0.4454843,0.02055 -0.1367208,0.05713 -0.1395423,0.0564 -0.2649419,-0.07297 l -0.1267165,-0.130804 0.044736,-1.020337 c 0.02459,-0.5612 0.055399,-1.188793 0.068433,-1.394578 l 0.023692,-0.3741 0.1131672,-0.02262 c 0.062263,-0.01244 0.1644512,-0.07384 0.2270177,-0.136412 0.2292145,-0.229215 0.1134033,-0.619193 -0.2259555,-0.760991 l -0.1366349,-0.05713 0.020439,-0.679773 c 0.011221,-0.373873 0.029764,-0.68909 0.041178,-0.700504 0.011414,-0.01144 0.087565,-0.02946 0.1692614,-0.04011 0.1270738,-0.01656 0.1833255,0.004 0.3890884,0.142996 0.2565738,0.173139 0.259112,0.173452 0.7232152,0.0931 0.1026725,-0.01776 0.2160876,-0.0033 0.3604007,0.04563 0.2035341,0.06918 0.2167541,0.0692 0.3927938,0.0014 0.3089659,-0.118665 0.3407975,-0.118625 0.5085391,8e-5 0.15544,0.110005 0.1564437,0.1122 0.1558624,0.362593 l -6.153e-4,0.251918 -0.1619204,0.07752 c -0.2673322,0.127997 -0.269879,0.374819 -0.00552,0.530791 l 0.1417045,0.08365 -0.02445,0.289696 c -0.013469,0.159325 -0.024529,0.453543 -0.024529,0.653799 v 0.364037 l -0.1264153,-0.02368 c -0.1033263,-0.01936 -0.1436187,-0.0053 -0.2199785,0.07578 -0.10685,0.113736 -0.1662184,0.124165 -0.2349666,0.04131 -0.071108,-0.08569 -0.2256022,-0.06811 -0.4576695,0.05208 l -0.2058207,0.10658 0.3485136,0.05161 c 0.1916861,0.0284 0.3917162,0.04337 0.444496,0.03332 0.067236,-0.01283 0.090282,-0.0033 0.07691,0.03139 -0.012245,0.03193 0.036123,0.06459 0.1350459,0.09122 0.1708078,0.04603 0.2574804,0.02687 0.3809112,-0.08395 0.08196,-0.07361 0.084867,-0.07338 0.2751616,0.02614 0.2026659,0.105968 0.2668865,0.102391 0.4320081,-0.02427 0.1209038,-0.09276 0.1929269,-0.08952 0.3028698,0.01377 0.083637,0.07857 0.1034738,0.08129 0.274177,0.03758 0.141061,-0.03618 0.214235,-0.03659 0.313163,-0.002 0.09657,0.03366 0.164761,0.03398 0.270844,0.0014 0.07798,-0.02401 0.211301,-0.04816 0.296207,-0.05355 l 0.154347,-0.0098 -0.181373,-0.09576 c -0.163292,-0.0862 -0.194782,-0.09084 -0.315582,-0.04716 -0.122794,0.04443 -0.146692,0.03997 -0.281824,-0.05168 -0.09815,-0.0666 -0.177325,-0.0928 -0.236101,-0.07804 l -0.08841,0.02228 v -0.596652 c 0,-0.742287 0.01269,-0.812047 0.157603,-0.866739 0.251461,-0.09491 0.244249,-0.402029 -0.01241,-0.527612 l -0.145189,-0.07101 v -0.250783 -0.250633 l 0.162754,-0.07282 c 0.181853,-0.08142 0.223982,-0.06955 0.396804,0.112034 0.06261,0.06578 0.133337,0.119604 0.15715,0.119604 0.02381,0 0.125802,-0.05235 0.226641,-0.116271 0.215072,-0.136398 0.307009,-0.144473 0.441395,-0.03878 0.128705,0.101245 0.236502,0.09724 0.611258,-0.02275 0.170532,-0.05461 0.427783,-0.109233 0.57167,-0.121419 l 0.261608,-0.02209 v 0.239359 c 0,0.194157 -0.01281,0.243323 -0.06782,0.260323 -0.144678,0.0447 -0.184501,0.08561 -0.196058,0.201208 -0.01,0.100205 0.0074,0.129892 0.106582,0.181147 l 0.118544,0.06133 v 0.401128 c 0,0.462608 -0.02766,0.643357 -0.09856,0.643357 -0.02759,0 -0.102572,-0.03007 -0.166614,-0.06684 -0.110237,-0.06326 -0.120391,-0.06326 -0.190302,0 -0.04115,0.03724 -0.141128,0.06854 -0.225809,0.0707 -0.08358,0.002 -0.195603,0.01783 -0.248895,0.03492 -0.08276,0.02653 -0.0732,0.0316 0.06555,0.03492 0.08934,0.002 0.173896,0.02242 0.187884,0.04503 0.06038,0.09771 0.216235,0.115459 0.379775,0.04331 0.137011,-0.06046 0.178926,-0.06392 0.277661,-0.02301 0.1078,0.04463 0.42044,0.04437 1.356506,-0.0014 0.366722,-0.01782 0.360738,-0.01582 0.236328,-0.0807 -0.06185,-0.03225 -0.142848,-0.04895 -0.180009,-0.03718 -0.03716,0.01177 -0.130411,-0.0085 -0.207259,-0.04516 l -0.139739,-0.06669 3.8e-4,-0.467584 3.81e-4,-0.467584 0.116048,-0.06599 c 0.08969,-0.05101 0.11597,-0.09327 0.11597,-0.186069 0,-0.101394 -0.02185,-0.129207 -0.140725,-0.178872 l -0.140723,-0.0588 0.02324,-0.196358 c 0.01279,-0.108024 0.03017,-0.203303 0.0386,-0.21173 0.0084,-0.0085 0.101595,-0.02561 0.207034,-0.03811 0.15034,-0.01782 0.226409,-0.0047 0.352525,0.05933 0.181536,0.09262 0.359878,0.102391 0.683556,0.03738 0.200409,-0.04024 0.242644,-0.03638 0.424966,0.03924 0.358295,0.148503 0.429488,0.158553 0.690895,0.09757 0.181171,-0.04223 0.28766,-0.04702 0.418079,-0.01863 0.09624,0.02095 0.694981,0.04602 1.330543,0.05567 1.060812,0.01609 1.153348,0.0123 1.128199,-0.0461 l 0.255569,0.06026 1.404574,0.02847 1.404577,0.0284 c 0.116964,-0.138279 0.142601,-0.08732 0.33004,-0.03274 -4.98e-4,0.02653 0.367156,0.02215 1.452794,-0.01736 0.08526,-0.0033 0.229351,0.0077 0.320125,0.02421 0.137569,0.02488 0.205083,0.01185 0.405742,-0.0782 0.22623,-0.101521 0.253829,-0.105331 0.457441,-0.06325 0.302633,0.06253 0.413789,0.0566 0.690136,-0.03671 0.235362,-0.07949 0.247388,-0.07988 0.488785,-0.01456 0.285598,0.07731 0.522948,0.05701 0.700205,-0.0598 0.150227,-0.09903 0.266211,-0.09676 0.407936,0.0081 0.107644,0.07959 0.114683,0.101139 0.114683,0.349803 0,0.240529 -0.0082,0.268059 -0.0888,0.298701 -0.219067,0.0833 -0.234897,0.304729 -0.02792,0.39045 l 0.116729,0.04836 v 0.480986 c -4e-6,0.409127 -0.0093,0.484631 -0.0632,0.505284 -0.0348,0.01337 -0.0956,0.004 -0.13512,-0.02062 -0.09878,-0.06172 -0.209103,-0.0562 -0.266759,0.01323 -0.02653,0.03199 -0.111467,0.05986 -0.18879,0.062 -0.07733,0.002 -0.184253,0.01782 -0.23754,0.03492 -0.0847,0.02714 -0.07739,0.03166 0.05814,0.03612 0.08526,0.0027 0.188896,0.03073 0.230273,0.06199 0.09652,0.07301 0.205411,0.07178 0.35063,-0.004 0.09464,-0.04936 0.144139,-0.05241 0.271302,-0.01683 0.113375,0.03172 0.206591,0.03213 0.343668,0.0014 0.141735,-0.03172 0.220447,-0.03046 0.319524,0.0053 0.110203,0.03984 0.161265,0.03691 0.315731,-0.01849 0.101351,-0.03632 0.30634,-0.06836 0.455554,-0.07117 0.149213,-0.0027 0.227695,-0.01244 0.174409,-0.02142 -0.05329,-0.009 -0.151824,-0.04157 -0.218995,-0.07229 -0.06717,-0.03073 -0.173544,-0.05587 -0.236405,-0.05587 h -0.114306 l -0.02521,-0.354799 c -0.04086,-0.575613 -0.03932,-0.586395 0.09137,-0.66077 0.184801,-0.105151 0.138646,-0.311758 -0.08751,-0.391958 -0.05647,-0.02002 -0.06782,-0.07297 -0.06782,-0.315962 -2e-6,-0.160549 0.0067,-0.291898 0.01469,-0.291898 0.0081,0 0.07604,0.02561 0.15109,0.05701 0.132428,0.05534 0.145702,0.05248 0.447226,-0.09689 0.170913,-0.08466 0.345789,-0.153897 0.388553,-0.153897 0.04277,0 0.127613,0.04197 0.188567,0.09326 0.0631,0.05308 0.189558,0.105045 0.293633,0.12066 l 0.18281,0.0274 v 0.322473 c -3e-6,0.283763 -0.0089,0.325254 -0.07427,0.346012 -0.150007,0.04762 -0.274554,0.178766 -0.274554,0.289244 0,0.133058 0.122338,0.295855 0.245564,0.32679 0.08352,0.02095 0.09408,0.04975 0.116954,0.320271 0.01382,0.163482 0.02506,0.60041 0.02506,0.970978 0,0.654126 -0.0022,0.672623 -0.07494,0.633666 -0.128213,-0.06862 -0.226613,-0.04463 -0.312632,0.07615 -0.09764,0.137116 -0.129611,0.141872 -0.260704,0.03877 -0.141549,-0.111342 -0.232784,-0.09706 -0.495063,0.07751 l -0.232544,0.154802 0.193786,0.0014 c 0.106579,5.66e-4 0.262422,0.0169 0.346239,0.03632 0.08409,0.01949 0.227688,0.02135 0.32043,0.004 0.156681,-0.02926 0.288067,0.01337 0.138073,0.04483 -0.112412,0.02354 0.081,0.11089 0.261538,0.118087 0.11824,0.0047 0.177326,-0.01763 0.26229,-0.09902 0.134989,-0.129328 0.165589,-0.129866 0.374783,-0.0072 0.136602,0.08005 0.185289,0.0907 0.268954,0.05886 0.0562,-0.02135 0.122229,-0.08284 0.146703,-0.136557 0.05793,-0.127152 0.195682,-0.127718 0.400217,-0.002 0.193507,0.119183 0.326522,0.122483 0.467505,0.01157 0.114579,-0.09013 0.289398,-0.109001 0.501427,-0.05414 l 0.116273,0.03007 -0.116273,-0.122555 c -0.175985,-0.185511 -0.227366,-0.202611 -0.400596,-0.133299 -0.148885,0.0596 -0.154595,0.0588 -0.259339,-0.03832 -0.05892,-0.05461 -0.128226,-0.09931 -0.153967,-0.09931 -0.0327,0 -0.05419,-0.143154 -0.07131,-0.474774 -0.01348,-0.261129 -0.0358,-0.694052 -0.04966,-0.962045 l -0.02521,-0.487272 0.123008,-0.05095 c 0.142891,-0.05919 0.197573,-0.143974 0.197573,-0.306278 -4e-6,-0.125083 -0.148583,-0.276673 -0.271227,-0.276673 -0.0706,0 -0.118132,-0.206893 -0.114683,-0.499529 0.0015,-0.131277 0.01533,-0.146648 0.222855,-0.247913 0.121667,-0.05939 0.250829,-0.107332 0.287049,-0.106579 0.03621,6.64e-4 0.112426,0.06239 0.169334,0.137009 0.05691,0.0746 0.124167,0.135653 0.14943,0.135653 0.02527,0 0.105044,-0.06106 0.177359,-0.135653 0.07231,-0.0746 0.157813,-0.135646 0.189923,-0.135646 0.03211,0 0.115256,0.05514 0.18478,0.12255 l 0.126341,0.122483 0.148821,-0.103103 c 0.197297,-0.13673 0.310481,-0.135626 0.340944,0.0033 0.04191,0.19129 0.05189,0.203476 0.166308,0.203476 0.103655,0 0.115024,0.0137 0.135727,0.164718 0.01243,0.0906 0.02634,0.354339 0.03096,0.586056 l 0.0084,0.421257 -0.152534,0.07313 c -0.221354,0.106096 -0.288253,0.204121 -0.288253,0.422695 0,0.156597 0.01918,0.205697 0.119299,0.305824 0.06559,0.06558 0.14191,0.119225 0.169637,0.119225 0.02772,0 0.0682,0.02181 0.08993,0.04842 0.02212,0.02714 0.05861,0.517508 0.08297,1.114273 0.02392,0.586209 0.0543,1.24916 0.06744,1.473235 0.02359,0.402241 0.02259,0.409026 -0.08123,0.53238 l -0.105141,0.124904 -0.10204,-0.121192 c -0.11438,-0.135932 -0.363071,-0.263124 -0.517093,-0.264415 -0.129976,-0.0014 -0.205952,0.08868 -0.17138,0.202419 0.0863,0.283909 0.09175,0.344548 0.03307,0.367056 -0.03231,0.01238 -0.135887,-0.0149 -0.230122,-0.06072 -0.302956,-0.147192 -0.721187,-0.07831 -0.772797,0.127325 -0.0189,0.07531 -0.0498,0.0995 -0.127326,0.09962 -0.13951,1.92e-4 -0.315608,0.114209 -0.462212,0.299307 l -0.122174,0.154349 0.318538,0.02474 c 0.175191,0.01364 0.466825,0.02494 0.648125,0.02507 0.181301,1.14e-4 0.660923,0.03425 1.065826,0.07585 0.404904,0.04157 1.067538,0.09467 1.472552,0.118013 0.405011,0.02335 1.041604,0.06703 1.414642,0.09704 0.373036,0.02999 0.822245,0.06591 0.998227,0.07978 0.175981,0.0139 0.328774,0.03938 0.339505,0.05673 0.03047,0.04929 -0.195588,0.109487 -0.651383,0.173352 -0.679884,0.09527 -0.802621,0.181567 -0.802621,0.564327 0,0.119603 -0.0097,0.22718 -0.02158,0.239053 -0.01188,0.01191 -0.155763,-0.0306 -0.319748,-0.0944 -0.508587,-0.197762 -1.033577,-0.192408 -1.450597,0.01476 -0.277085,0.137654 -0.334586,0.358816 -0.202268,0.777798 0.03863,0.122311 0.05958,0.232994 0.04656,0.246017 -0.01302,0.01303 -0.168783,-0.03239 -0.346091,-0.100979 -0.562535,-0.217623 -0.954584,-0.157102 -1.229258,0.189701 -0.271349,0.342607 -0.320756,0.689004 -0.150867,1.058023 0.05568,0.120946 0.09261,0.228437 0.08213,0.238907 -0.01051,0.0104 -0.161443,-0.04909 -0.335568,-0.132393 -0.366222,-0.175242 -0.596945,-0.217391 -0.836689,-0.15284 -0.242673,0.06538 -0.390751,0.225053 -0.390751,0.421411 0,0.212408 0.102933,0.284774 0.645398,0.454115 0.241919,0.07552 0.439806,0.155393 0.439806,0.177509 0,0.02741 -0.175613,0.02987 -0.552292,0.0075 -1.285088,-0.07604 -1.931044,-0.0033 -2.387287,0.269709 -0.436683,0.261103 -0.495982,0.556325 -0.192347,0.957503 0.08516,0.1125 0.128982,0.194616 0.09742,0.18251 -0.03155,-0.0121 -0.281677,-0.06 -0.55585,-0.106506 -0.388689,-0.06591 -0.596732,-0.08036 -0.944253,-0.06558 -0.580433,0.02468 -0.873132,0.122277 -1.126388,0.375537 -0.269515,0.269516 -0.283998,0.480267 -0.05943,0.863487 0.168967,0.288319 0.130546,0.315269 -0.262216,0.183868 -0.559695,-0.187247 -1.409598,-0.246583 -1.943239,-0.135653 -0.750505,0.156005 -1.259887,0.527705 -1.259462,0.918971 0,0.137815 0.102827,0.335391 0.262593,0.505363 0.0549,0.0584 0.08878,0.117196 0.07525,0.130731 -0.01353,0.0135 -0.165219,-0.004 -0.337085,-0.03831 -0.735346,-0.148171 -1.365962,4.39e-4 -1.552334,0.365692 -0.10756,0.210839 -0.09536,0.383991 0.04761,0.67394 0.06818,0.138279 0.114254,0.261135 0.102339,0.273048 -0.01191,0.01191 -0.164909,-0.03119 -0.340033,-0.09576 -0.651887,-0.240363 -1.187161,-0.238094 -1.667627,0.007 -0.315354,0.160841 -0.427842,0.31495 -0.427842,0.586355 0,0.183455 0.01168,0.206369 0.193708,0.381816 l 0.193636,0.186675 -0.12581,2.92e-4 c -0.265124,5.85e-4 -0.848747,0.111455 -1.10799,0.210512 -0.262104,0.100163 -0.471294,0.246616 -0.471294,0.32997 3.81e-4,0.0282 3.095098,0.04058 10.13042,0.04058 h 10.130726 l 0.02324,-0.125962 c 0.03283,-0.177987 0.02602,-13.284118 -0.0069,-13.283619 -0.01489,2.4e-4 -0.114306,0.06977 -0.22089,0.154575 -0.16471,0.131071 -0.221606,0.154303 -0.379395,0.154656 -0.231625,5.12e-4 -0.445744,0.106334 -0.597332,0.295296 -0.140471,0.175102 -0.205371,0.149001 -0.205371,-0.08266 0,-0.133936 -0.0176,-0.180203 -0.0816,-0.21445 -0.107885,-0.05773 -0.304833,-0.01756 -0.472886,0.09651 l -0.135953,0.09228 -0.02543,-0.45184 c -0.01402,-0.248484 -0.04183,-0.66792 -0.06176,-0.932148 -0.0509,-0.674558 -0.05184,-0.662958 0.05201,-0.662958 0.04855,0 0.127031,0.02714 0.174408,0.06033 0.04738,0.03319 0.08614,0.04237 0.08614,0.02036 0,-0.02694 0.03255,-0.02767 0.09947,-0.002 0.142746,0.05428 0.514526,0.04556 0.692108,-0.01629 0.112575,-0.03918 0.183008,-0.04264 0.271302,-0.01303 0.19451,0.06518 0.527382,0.07957 0.625566,0.027 0.04914,-0.02627 0.110539,-0.09906 0.136484,-0.161693 0.0645,-0.155732 -0.02684,-0.347893 -0.199391,-0.419369 -0.114037,-0.04722 -0.140154,-0.04384 -0.279549,0.03638 -0.150716,0.08675 -0.156618,0.08711 -0.304458,0.02042 -0.179504,-0.08094 -0.323325,-0.03745 -0.381441,0.11544 -0.03373,0.08872 -0.04953,0.09338 -0.247986,0.07289 -0.176311,-0.01822 -0.235702,-0.0072 -0.352831,0.06518 -0.07745,0.04789 -0.146263,0.08066 -0.152909,0.07289 -0.0067,-0.0077 -0.0324,-0.05314 -0.05723,-0.100831 -0.02483,-0.04769 -0.0882,-0.09753 -0.140876,-0.11075 -0.08701,-0.02181 -0.09583,-0.04317 -0.09583,-0.232542 0,-0.198394 0.0061,-0.210951 0.12596,-0.261687 0.20259,-0.08574 0.280991,-0.201181 0.280991,-0.413768 0,-0.232043 -0.111466,-0.366086 -0.366226,-0.440108 l -0.176375,-0.05115 -0.02453,-0.248066 c -0.01349,-0.136424 -0.02659,-0.381423 -0.02907,-0.544419 -0.0045,-0.291026 -0.0022,-0.298456 0.127777,-0.412552 0.164208,-0.144172 0.376067,-0.216897 0.54124,-0.185916 0.06921,0.01297 0.22064,0.08399 0.336552,0.157835 0.115911,0.07384 0.235634,0.134721 0.266004,0.135273 0.03038,5.39e-4 0.18648,-0.0443 0.346925,-0.0997 0.25279,-0.08726 0.31117,-0.09484 0.437227,-0.05707 0.08001,0.02395 0.196684,0.08672 0.259343,0.139438 0.06265,0.05274 0.120125,0.09584 0.127705,0.09584 0.0075,0 0.01377,-4.155278 0.01377,-9.233937 V 1.7243469 H 19.824087 Z M 26.202218,4.5597409 c 0.12091,0.013436 0.249666,0.045162 0.417474,0.098711 0.190786,0.060859 0.2999,0.1294469 0.491358,0.3085454 l 0.246167,0.2302735 0.222327,-0.064651 c 0.3149,-0.091542 0.742513,-0.062189 1.033274,0.070929 0.394041,0.1804022 0.771384,0.6536729 0.8108,1.0170048 l 0.01257,0.1162705 -3.536605,0.00991 -3.536605,0.00984 V 6.2264613 c 0,-0.1552006 0.119334,-0.3418817 0.32338,-0.5061213 0.136732,-0.1100585 0.174206,-0.1203281 0.458273,-0.1251236 0.272279,-0.00466 0.321845,-0.016761 0.413084,-0.1018181 0.05702,-0.053143 0.143701,-0.1172617 0.19265,-0.1424634 0.147344,-0.075852 0.481976,-0.1142687 0.677498,-0.07774 l 0.18281,0.034121 0.264868,-0.2647935 c 0.291474,-0.2914717 0.531905,-0.4101237 0.956217,-0.4715946 0.136422,-0.019754 0.24955,-0.024609 0.370462,-0.011241 z m -12.41082,0.365926 c 0.206216,0.014167 0.408665,0.058598 0.545629,0.128988 0.250528,0.1287818 0.593453,0.4432868 0.710576,0.6516842 0.08241,0.1466138 0.08793,0.1493608 0.240796,0.1189977 0.26226,-0.05208 0.649027,-0.033922 0.841383,0.039509 0.186155,0.071095 0.497575,0.3647553 0.581057,0.5479774 0.03935,0.086354 0.06864,0.098412 0.239509,0.098412 0.324605,0 0.581228,0.1615326 0.661901,0.4166419 l 0.02755,0.087198 h -3.184458 -3.184537 l 0.02642,-0.2422323 c 0.05464,-0.5004545 0.293017,-0.7704821 0.687714,-0.7791554 0.112351,-0.00266 0.249517,0.00798 0.304838,0.023212 0.09554,0.026339 0.102911,0.017559 0.146476,-0.1750147 0.09304,-0.4112876 0.383074,-0.7297701 0.786801,-0.8638663 0.152115,-0.050549 0.362125,-0.066565 0.568341,-0.052345 z m 6.948386,3.0971739 c 0.836503,-7.32e-5 1.432893,0.1262139 2.107658,0.4463194 0.593273,0.2814412 1.282561,0.8118537 1.635903,1.2589308 0.783147,0.990885 1.142582,2.171811 1.020411,3.352502 -0.02426,0.234485 -0.05214,0.461219 -0.06201,0.503848 -0.0147,0.06359 0.07428,0.13792 0.496125,0.41422 0.879597,0.576113 1.75301,1.04812 2.500304,1.351132 0.175858,0.0713 0.319749,0.143368 0.319749,0.160175 -3e-6,0.06709 -1.411321,-0.532753 -2.156484,-0.916551 -1.443661,-0.743557 -2.795493,-1.697376 -3.996319,-2.819743 l -0.281139,-0.262745 h -1.445225 -1.445148 l -0.17282,0.177509 c -0.493594,0.507132 -1.490408,1.29113 -2.360638,1.85664 -1.307258,0.849513 -2.630084,1.482973 -4.13038,1.977914 -0.383096,0.12638 -0.716909,0.205889 -0.675679,0.160933 0.01164,-0.0127 0.203487,-0.08649 0.42633,-0.16396 1.187196,-0.412764 2.261932,-0.932846 3.176287,-1.537127 0.311323,-0.205743 0.367265,-0.258336 0.361985,-0.340259 -0.0034,-0.05327 -0.02662,-0.297864 -0.05148,-0.543514 C 15.788538,10.938048 17.09042,8.9549752 19.1894,8.2517505 19.69714,8.0816444 20.094968,8.0229204 20.73977,8.0228408 Z m 0.106733,3.9171412 c 0.610243,0.0014 1.138939,0.01456 1.174906,0.02907 0.03597,0.0145 0.315027,0.245159 0.620117,0.512627 0.750612,0.658035 1.292471,1.088865 2.083815,1.656723 0.32408,0.232562 0.299318,0.234503 -0.308242,0.02435 -0.582165,-0.201347 -0.994059,-0.385999 -1.453399,-0.651611 -0.234482,-0.135586 -0.429486,-0.244048 -0.433374,-0.241023 -0.0038,0.0033 0.04389,0.231917 0.106128,0.508696 0.06224,0.276779 0.113233,0.526335 0.113621,0.554563 3.8e-4,0.0282 -0.244222,-0.181061 -0.54328,-0.46509 -0.29906,-0.284029 -0.558075,-0.521333 -0.575609,-0.527385 -0.01753,-0.0059 -0.04254,0.107312 -0.05556,0.251923 -0.03257,0.361815 -0.106095,0.747363 -0.142537,0.747363 -0.05045,0 -0.741471,-0.538486 -0.976049,-0.760613 -0.120985,-0.114567 -0.254977,-0.208324 -0.297796,-0.208324 -0.04282,0 -0.205442,0.101192 -0.361382,0.2249 -0.155939,0.123713 -0.444592,0.350442 -0.641464,0.503846 -0.196871,0.153405 -0.365691,0.278947 -0.375159,0.278947 -0.0181,0 0.202581,-0.848269 0.233831,-0.898838 0.01,-0.01609 -0.109114,0.0429 -0.264566,0.13111 -0.582277,0.330448 -1.191845,0.564207 -1.749528,0.670912 -0.166858,0.03193 -0.330678,0.05807 -0.364033,0.05807 -0.03335,0 0.09195,-0.09579 0.278418,-0.21286 0.467529,-0.293527 1.242602,-0.828488 1.556727,-1.074532 0.313053,-0.245212 1.136751,-0.959518 1.211696,-1.050767 0.04754,-0.05787 0.171029,-0.06452 1.16272,-0.06206 z M 5.4708364,12.956076 c 0.3154614,0.02048 0.4834937,0.114821 0.6155751,0.345486 0.093006,0.162417 0.095122,0.183754 0.082739,0.844864 -0.00698,0.373036 -0.024423,0.782893 -0.038757,0.910798 l -0.026113,0.23254 -0.1550289,0.0047 c -0.1607112,0.0047 -1.3498514,-0.06279 -1.3647577,-0.07766 -0.00466,-0.0047 0.014307,-0.394792 0.042162,-0.867045 0.045801,-0.776522 0.059722,-0.876431 0.1451113,-1.044555 0.1347745,-0.265365 0.3482422,-0.371992 0.6990697,-0.349192 z m 28.9003196,0.801111 c 0.153041,0.002 0.301667,0.02826 0.382427,0.07751 0.227974,0.139004 0.250752,0.2126 0.303702,0.981727 0.02674,0.388247 0.04115,0.713727 0.0321,0.723291 -0.009,0.0096 -0.212112,0.03013 -0.451237,0.04569 -0.239128,0.01556 -0.54111,0.02953 -0.671062,0.03107 l -0.236252,0.0027 -0.02536,-0.471142 c -0.05281,-0.982259 -0.01114,-1.197281 0.256616,-1.32434 0.09856,-0.04675 0.256031,-0.06865 0.409073,-0.06653 z m -3.751813,1.580573 c 0.200522,0.0014 0.40117,0.08366 0.485602,0.246921 0.03726,0.07208 0.0755,0.297758 0.09666,0.570992 0.04724,0.609894 0.0468,0.618175 -0.03103,0.640477 -0.03731,0.01071 -0.287586,0.03126 -0.55623,0.04569 l -0.488476,0.02627 -0.02506,-0.125509 c -0.05107,-0.255356 -0.02825,-1.043704 0.03368,-1.163479 0.08394,-0.162318 0.284324,-0.242532 0.484847,-0.241395 z M 9.5111359,15.35991 c 0.070858,-0.0027 0.1459289,0.0077 0.2219481,0.03233 0.305163,0.09861 0.370163,0.286749 0.325499,0.942058 l -0.02785,0.408847 -0.4323115,-0.0027 c -0.6334376,-0.0033 -0.6108998,0.0153 -0.5830995,-0.490371 0.012638,-0.229894 0.039049,-0.482429 0.058744,-0.56122 0.049678,-0.198786 0.2244942,-0.321662 0.4370783,-0.329211 z m -4.9183934,0.08486 0.5619813,0.0113 c 0.3090862,0.0059 0.6448247,0.02089 0.7460782,0.03272 0.1826597,0.02128 0.1840977,0.02262 0.1840977,0.165098 -3.9e-6,0.079 -0.020899,0.164572 -0.046479,0.190153 -0.02558,0.02554 -0.073543,0.04383 -0.1065826,0.04064 -0.033044,-0.0033 -0.3285811,-0.01969 -0.6567544,-0.03671 -0.3281815,-0.01702 -0.6213418,-0.04044 -0.6514568,-0.05202 -0.038139,-0.01464 -0.051088,-0.07108 -0.042767,-0.186069 z m 30.4737005,0.288485 0.02543,0.101287 c 0.03283,0.130805 -0.0031,0.240837 -0.08629,0.264336 -0.03621,0.01029 -0.331016,0.03053 -0.655094,0.04502 l -0.58923,0.02647 -0.02468,-0.09841 c -0.03496,-0.139291 0.01195,-0.255967 0.110895,-0.275921 0.04654,-0.0093 0.339802,-0.0274 0.651759,-0.03997 z M 4.7858473,16.00834 c 0.066466,-0.01019 0.1627185,-0.002 0.2918156,0.02368 l 0.1264146,0.02527 -0.02596,0.68204 c -0.01428,0.375119 -0.051108,1.213983 -0.081832,1.864137 -0.030729,0.650155 -0.06688,1.419487 -0.080312,1.709635 -0.013436,0.290148 -0.038159,0.549787 -0.054959,0.57697 -0.016802,0.0272 -0.1192798,0.05793 -0.2277732,0.06835 -0.1660941,0.01596 -0.2016079,0.0077 -0.2245986,-0.05214 -0.035052,-0.09134 0.1186013,-4.594846 0.1641918,-4.812343 0.00987,-0.04709 0.046552,-0.07544 0.1130162,-0.08561 z m 0.6855937,0.03718 h 0.2304237 c 0.1709628,0 0.2363501,0.0153 0.2532097,0.05919 0.012498,0.0326 -0.00566,0.664794 -0.040419,1.404954 -0.03474,0.740153 -0.081472,1.738174 -0.1037849,2.21779 -0.022315,0.479624 -0.052758,0.959246 -0.067673,1.065833 -0.024045,0.171741 -0.038118,0.19431 -0.1236902,0.198101 -0.1906977,0.0085 -0.3533384,-0.03006 -0.3759149,-0.08888 -0.012644,-0.03292 -0.00279,-0.4634 0.021876,-0.956591 0.024663,-0.493192 0.070875,-1.446105 0.1027223,-2.117577 0.031847,-0.671465 0.068074,-1.3473 0.080542,-1.501842 z m 29.10009,0.271298 h 0.214453 c 0.136521,0 0.220568,0.01763 0.231482,0.04842 0.03334,0.09424 0.289412,4.181711 0.290149,4.631502 l 4.39e-4,0.203476 h -0.228153 -0.228078 l -0.0227,-0.164718 c -0.01246,-0.0906 -0.04144,-0.522258 -0.06434,-0.959246 -0.0229,-0.436988 -0.07572,-1.378794 -0.117406,-2.092894 -0.04169,-0.714106 -0.07581,-1.381215 -0.07577,-1.482467 z m -0.697632,0.03877 h 0.210895 c 0.11598,0 0.22008,0.0149 0.231332,0.03306 0.01125,0.01822 0.06497,0.824844 0.119298,1.792523 0.05433,0.967685 0.116399,2.028622 0.137999,2.357614 0.03127,0.476297 0.02916,0.607792 -0.0104,0.645398 -0.0273,0.026 -0.121446,0.05873 -0.209227,0.0729 -0.199523,0.03213 -0.195961,0.04077 -0.245567,-0.5906 -0.07724,-0.98301 -0.233056,-3.70782 -0.233831,-4.08806 z m -24.8628214,0.484471 0.4837841,0.01091 c 0.2660612,0.0059 0.4993692,0.02654 0.5184533,0.04563 0.01908,0.01909 0.02346,0.07959 0.0097,0.134441 -0.0275,0.10958 0.0031,0.106653 -0.7525857,0.07085 l -0.2833392,-0.01337 0.012039,-0.124218 z m 21.6295354,0.11544 c 0.560295,-0.03 0.613908,-0.01716 0.591429,0.141712 -0.01106,0.07819 -0.04152,0.09543 -0.206805,0.117328 -0.260039,0.03445 -0.852649,0.03891 -0.884911,0.0067 -0.0142,-0.01423 -0.02589,-0.0735 -0.02589,-0.131715 v -0.10583 z M 13.34834,17.091985 c 0.395247,0 0.507004,0.16674 0.460394,0.687036 l -0.03051,0.340032 -0.329437,0.0053 c -0.47763,0.0074 -0.517453,-0.0047 -0.488634,-0.148822 0.01296,-0.06485 0.02354,-0.247261 0.02354,-0.405441 0,-0.253672 0.01123,-0.298815 0.09515,-0.382727 0.07281,-0.0728 0.136058,-0.09515 0.269488,-0.09515 z m -4.2679995,0.151096 0.159192,0.01164 0.1591182,0.01164 -0.010072,0.620117 c -0.00941,0.57862 -0.086986,2.591646 -0.100227,2.600978 -0.00332,0.002 -0.072231,0.01443 -0.153285,0.02694 -0.1078888,0.01663 -0.1530835,0.0079 -0.1686562,-0.03272 -0.024736,-0.06445 0.054248,-2.728622 0.089929,-3.033218 z m 0.627005,0.004 c 0.2129986,0 0.214665,0.0047 0.2136959,0.595208 -0.00117,0.749285 -0.06935,2.557557 -0.099313,2.63565 -0.023456,0.06113 -0.1152838,0.07418 -0.2583566,0.03678 -0.082904,-0.02168 -0.084326,-0.11649 -0.028318,-1.814252 0.047454,-1.438257 0.049237,-1.453394 0.1722873,-1.453394 z m 18.3081415,0.05596 c 0.04582,0.0053 0.09192,0.01756 0.136864,0.03632 0.193732,0.08095 0.256767,0.242232 0.256767,0.656679 v 0.325127 l -0.238223,0.02488 c -0.307519,0.03213 -0.555868,0.03179 -0.588552,-6.66e-4 -0.01421,-0.01423 -0.02589,-0.206907 -0.02589,-0.428141 -3e-6,-0.372378 0.0069,-0.409079 0.09257,-0.494768 0.09402,-0.09402 0.228998,-0.135865 0.366455,-0.119223 z m 2.441179,0.06025 h 0.150867 l 0.02256,0.242233 c 0.04397,0.473111 0.157464,2.973328 0.135953,2.994831 -0.04781,0.04783 -0.293819,0.06438 -0.320276,0.02155 -0.05644,-0.09133 -0.210894,-3.073802 -0.165322,-3.19256 0.01788,-0.04663 0.06982,-0.06611 0.176221,-0.06611 z m 0.343367,0 h 0.176529 0.17645 l 0.02438,0.261608 c 0.05495,0.590639 0.137838,2.113486 0.138224,2.538609 v 0 l 4.4e-4,0.455398 h -0.174411 c -0.164223,0 -0.174467,-0.0059 -0.175243,-0.106587 -4.39e-4,-0.0586 -0.02651,-0.533876 -0.05798,-1.056134 -0.03147,-0.522257 -0.0687,-1.206805 -0.08273,-1.521224 z m -17.583786,0.821092 c 0.373318,-0.01809 0.58136,0.02036 0.58136,0.107339 0,0.03904 -0.02752,0.08153 -0.06124,0.09447 -0.06792,0.02607 -0.23723,0.02254 -0.558876,-0.01183 -0.179746,-0.01916 -0.213166,-0.03492 -0.213166,-0.10029 -4e-6,-0.06831 0.02991,-0.07894 0.251923,-0.08971 z m 14.766917,0.219146 c 0.198021,5.12e-4 0.396123,0.02295 0.413008,0.06692 0.01282,0.03339 0.0079,0.07568 -0.01096,0.09387 -0.01882,0.01816 -0.191736,0.04516 -0.384321,0.05986 -0.295688,0.02262 -0.358203,0.01716 -0.401651,-0.03518 -0.02829,-0.03412 -0.04129,-0.08834 -0.02892,-0.120588 0.01685,-0.0439 0.214837,-0.06538 0.412856,-0.06485 z m -14.52211,0.07971 0.11983,0.01171 0.11983,0.01164 0.01241,0.46509 c 0.0068,0.255795 7.31e-4,0.678735 -0.01355,0.939864 l -0.0259,0.474774 H 13.541966 13.41018 V 19.98909 c 0,-0.218493 0.01156,-0.646662 0.0255,-0.951523 z m -0.28561,0.0053 c 0.05759,-0.0027 0.114997,0.01224 0.12808,0.04742 0.0099,0.02667 0.0093,0.453949 -0.0012,0.949554 l -0.01915,0.901107 H 13.152892 13.02254 v -0.888236 c 0,-0.488536 0.01051,-0.915833 0.02347,-0.949556 0.01404,-0.03658 0.07187,-0.05746 0.129443,-0.06033 z m 14.904236,0.212176 0.116273,0.002 0.116272,0.002 0.02415,0.42459 c 0.01327,0.233519 0.02635,0.664402 0.02906,0.957503 l 0.0049,0.532913 h -0.113927 c -0.06269,0 -0.12176,-0.0131 -0.131185,-0.02907 -0.0094,-0.01596 -0.02353,-0.447644 -0.03134,-0.95924 z m -0.406952,0.01936 h 0.13565 0.135652 l 0.0086,0.658875 c 0.0048,0.362381 0.009,0.785321 0.0097,0.939863 v 0 l 9.98e-4,0.28099 -0.120363,0.01171 c -0.116317,0.0113 -0.121259,0.0053 -0.145338,-0.170092 -0.0137,-0.100025 -0.02499,-0.528244 -0.02499,-0.951598 z m -14.212659,1.752391 c 0.317458,0.01291 0.433377,0.03219 0.481134,0.07993 0.05191,0.05188 0.05424,0.07336 0.0131,0.122936 -0.04061,0.04895 -0.144243,0.05966 -0.558648,0.05767 -0.528301,-0.0027 -0.683249,-0.03219 -0.683249,-0.130504 0,-0.09752 0.293335,-0.148517 0.747667,-0.130046 z m 6.00413,0.04223 c -0.03163,0.0053 -0.0091,0.01995 0.04223,0.04848 0.0596,0.03319 0.265708,0.08577 0.458048,0.116883 0.681024,0.110145 0.804874,0.255142 0.324973,0.380452 -0.04264,0.01111 -0.356571,0.05667 -0.697631,0.101128 -2.90447,0.37881 -4.437713,0.91264 -4.437713,1.545149 0,0.19161 0.223066,0.404629 0.635255,0.606642 0.322817,0.158213 0.586673,0.242498 1.870568,0.597935 0.788068,0.218175 1.34694,0.508609 1.521073,0.790363 0.09689,0.156764 0.107672,0.430331 0.02483,0.628598 -0.07842,0.187712 -0.408358,0.505429 -0.776735,0.747968 -0.702499,0.462529 -2.295933,1.162488 -4.069519,1.78768 -1.59014,0.560535 -3.484806,1.191674 -4.4764703,1.491173 -0.1598744,0.04829 -0.5871778,0.179179 -0.9495546,0.290834 -0.5735891,0.17673 -2.1844055,0.657164 -2.5773623,0.768713 -0.074607,0.02115 -0.7024766,0.20402 -1.3952636,0.406346 -1.1877682,0.346883 -2.9531567,0.846652 -3.1877893,0.90247 l -0.1065833,0.02535 v 3.07704 3.076968 l 6.3465121,-0.002 6.3465113,-0.002 0.348816,-0.390376 c 0.633535,-0.709037 1.660441,-1.642782 2.646319,-2.406208 1.301242,-1.007626 2.484193,-1.800284 5.337689,-3.57665 2.183646,-1.359373 3.134789,-2.025317 3.797838,-2.659189 0.927025,-0.886248 1.260938,-1.504523 1.259233,-2.331574 -7.32e-4,-0.315497 -0.01944,-0.447929 -0.09288,-0.655995 -0.294719,-0.835019 -1.18295,-1.510482 -2.580613,-1.962468 -0.811683,-0.262486 -1.909299,-0.502856 -3.197479,-0.700205 -1.108936,-0.169887 -2.233712,-0.370443 -2.61612,-0.466454 -0.893938,-0.224433 -1.008814,-0.491208 -0.33277,-0.772644 0.340662,-0.141818 0.680583,-0.224859 1.839154,-0.44912 0.498079,-0.09641 0.977701,-0.207553 1.065828,-0.247001 0.1931,-0.08643 0.30612,-0.204846 0.274405,-0.287501 -0.07849,-0.204526 -0.99616,-0.387768 -2.36215,-0.471674 -0.165292,-0.01019 -0.251031,-0.0147 -0.282657,-0.0097 z M 9.0111514,20.663581 c 0.335867,-0.0067 0.8673309,0.02734 1.0038306,0.07608 0.185585,0.06625 0.253136,0.157489 0.180918,0.244507 -0.04304,0.05188 -0.150866,0.06066 -0.6953599,0.05681 -0.7174213,-0.0053 -0.8492546,-0.02262 -0.9114054,-0.121339 -0.060599,-0.09625 0.010179,-0.192215 0.173272,-0.234896 0.046613,-0.01217 0.13679,-0.01889 0.2487447,-0.02115 z m 19.1079646,0.01629 c 0.213406,-6.64e-4 0.416867,0.01503 0.4741,0.04756 0.104715,0.05953 0.110837,0.109247 0.01937,0.157302 -0.06727,0.03532 -0.974364,0.07842 -1.104586,0.05248 -0.125925,-0.02514 -0.07772,-0.153545 0.07751,-0.206502 0.09683,-0.03305 0.320185,-0.05009 0.533591,-0.05082 z m 2.778566,0.0673 c 0.298877,-0.0088 0.593674,0.0141 0.717693,0.07335 0.131224,0.06273 0.162019,0.203509 0.05685,0.259791 -0.04111,0.02201 -0.290692,0.04989 -0.554637,0.06192 -0.263949,0.01204 -0.567132,0.02847 -0.673711,0.03659 -0.277188,0.02115 -0.414557,-0.03592 -0.399459,-0.165928 0.0075,-0.06452 0.04853,-0.119837 0.110895,-0.149582 0.140515,-0.06702 0.443497,-0.107357 0.742369,-0.116117 z M 4.7342189,21.169336 c 0.5465404,-0.01829 1.1688585,0.06392 1.3700593,0.181075 0.09327,0.05428 0.1162721,0.09391 0.1162721,0.20007 0,0.102242 -0.022035,0.143421 -0.096893,0.181293 -0.107086,0.05414 -0.43645,0.05614 -1.3191126,0.0079 -0.6296553,-0.03445 -0.7584617,-0.06751 -0.8120862,-0.20855 -0.094169,-0.247687 0.095354,-0.340133 0.741761,-0.361763 z m 30.1861281,0.258741 c 0.588822,3.06e-4 0.844603,0.05754 0.928661,0.207712 0.05517,0.09857 0.05354,0.111409 -0.02361,0.188563 -0.06402,0.06399 -0.156253,0.09021 -0.406723,0.115593 -0.178148,0.01809 -0.629129,0.04457 -1.002164,0.0588 -0.651743,0.02494 -0.681016,0.02275 -0.749182,-0.05355 -0.259242,-0.290129 0.292105,-0.517695 1.253027,-0.517163 z M 2.3975785,21.863715 c -0.077728,-0.0093 -0.1678041,0.0145 -0.2883356,0.06927 -0.3463041,0.157283 -0.4354111,0.507864 -0.1591142,0.625944 0.046566,0.01989 0.1631143,0.0278 0.2590389,0.01749 0.5769373,-0.06186 0.7137391,-0.06538 0.9194242,-0.02374 0.1822446,0.03692 0.2563995,0.03498 0.3983249,-0.01008 l 0.1744074,-0.0553 -0.155029,-0.06525 C 3.4610292,22.386125 3.3279401,22.288465 3.2504642,22.205018 3.14001,22.08604 3.0814476,22.053455 2.9791631,22.053921 c -0.07174,3.06e-4 -0.1561923,0.0169 -0.1876555,0.03678 -0.042349,0.02681 -0.088986,0.0014 -0.179628,-0.0975 -0.071162,-0.07769 -0.136577,-0.120142 -0.2143011,-0.129447 z m 20.0242885,0.162976 c -0.07182,0.0067 -0.148723,0.02168 -0.235117,0.04502 -0.214577,0.05807 -0.273294,0.06027 -0.443062,0.0167 -0.182047,-0.04669 -0.208476,-0.04384 -0.379245,0.04024 -0.101043,0.04975 -0.16056,0.0985 -0.132394,0.108475 0.03665,0.01297 0.0284,0.03406 -0.02907,0.07434 -0.111892,0.07837 -0.100439,0.124831 0.04572,0.185609 0.177528,0.07382 0.443031,0.101245 1.513198,0.156319 1.101917,0.05673 1.796197,0.06505 1.655213,0.01989 -0.05329,-0.01709 -0.149219,-0.03292 -0.213165,-0.03525 -0.06987,-0.0027 -0.184466,-0.05846 -0.287199,-0.140122 -0.169068,-0.13439 -0.228114,-0.142942 -0.389012,-0.05634 -0.07543,0.04064 -0.167385,5.25e-4 -0.476141,-0.207566 C 22.8072,22.069293 22.637327,22.007643 22.421867,22.026592 Z M 4.162548,25.082314 c 0.00973,-0.004 0.041517,0.0014 0.1007578,0.01244 0.6076801,0.116177 1.0831624,0.284721 1.1998109,0.425275 0.080502,0.097 0.011487,0.121685 -0.085693,0.03066 -0.2082697,-0.195095 -0.4646653,-0.211064 -0.761748,-0.0473 -0.1153142,0.06359 -0.2155993,0.115593 -0.2228545,0.115593 -0.00725,0 -0.013243,-0.03539 -0.013243,-0.07872 -4.1e-6,-0.114289 -0.1079281,-0.35851 -0.1853109,-0.419216 -0.029066,-0.02281 -0.041444,-0.03498 -0.031719,-0.03871 z m 32.109005,0.371906 c 0.120158,0.0014 0.27079,0.02515 0.334739,0.05255 0.114065,0.04889 0.111621,0.05029 -0.130582,0.07161 -0.224579,0.01975 -0.258076,0.03465 -0.370692,0.164944 l -0.123767,0.143142 -0.520727,0.01629 -0.520798,0.01629 0.310059,-0.105373 c 0.170528,-0.05793 0.421039,-0.163149 0.55668,-0.23376 0.197746,-0.102932 0.289908,-0.127836 0.465088,-0.125655 z m -1.767848,0.08448 c 0.08242,0.0074 0.159923,0.02447 0.222857,0.05221 l 0.13565,0.0598 -0.25412,-0.02081 c -0.174786,-0.0143 -0.32194,-0.0014 -0.471069,0.04223 -0.254008,0.07384 -0.275633,0.07595 -0.243519,0.02401 0.07185,-0.116243 0.362938,-0.179784 0.610201,-0.157448 z M 8.3037563,25.816582 c 0.058618,-0.002 0.1065831,0.01356 0.1065831,0.03492 -4e-6,0.02128 -0.00439,0.03705 -0.00969,0.03492 -0.00532,-0.002 -0.053296,-0.01782 -0.1065825,-0.03492 l -0.096893,-0.03107 z m -3.0230709,0.0067 c 0.08777,-0.0069 0.1737803,0.0053 0.2272417,0.03844 0.082452,0.05148 0.2338465,0.09136 0.9937648,0.261921 0.111978,0.02514 0.2132741,0.06145 0.2251221,0.08061 0.011852,0.01916 0.068527,0.03539 0.1258878,0.03606 0.077271,6.65e-4 0.089169,0.0097 0.0461,0.03406 -0.1371158,0.07758 -0.2328115,0.08651 -0.2567674,0.02407 -0.032046,-0.08351 -0.2178203,-0.175834 -0.3516956,-0.174783 -0.059681,4.66e-4 -0.1827562,0.03459 -0.2734947,0.07577 L 5.8518968,26.2743 5.6996693,26.111397 5.5475156,25.948421 l -0.2914351,0.0027 c -0.2619375,0.002 -0.2834596,-0.0033 -0.2130919,-0.05248 0.06042,-0.04231 0.1499209,-0.06812 0.2376949,-0.07502 z m 1.9886576,0.342534 c 0.086521,-0.0027 0.1911626,0.02142 0.2325441,0.05268 0.041378,0.03126 0.056323,0.05746 0.03323,0.05813 -0.023093,6.65e-4 -0.051261,-0.0081 -0.062528,-0.01929 -0.011268,-0.01124 -0.09699,-0.03545 -0.1905308,-0.05381 l -0.1700908,-0.03346 z"
     sodipodi:nodetypes="cccccccccccccccccccccccccccccccccccccccccccccccccccccccccccccccccccccccccccccccccccccccccccccccccccccccccccccccccccccccccccccccsccccccccccscccscccsccsscccsccccsscsccccsccsssccccsccscccccscccccscccccccccccccccccccscccccccccccccscccsccccccsccccccsscccccsccccsscscccccccsscccccsccccsccccsccccccccscccccscccsccccccccsccccccscccssscsscccscscssccccccsccccccscccccccssccsssccccscsccccscsccscsccsccccsccsccccccscccssccssscsscccssscccscsscsscscccssscscccccscsccssssscccsssccccccccscccscscsccscccsccccsscccccsccsccccsscccccccccccccccscccccccccccsscscsssscccccssccsccssssccscscscsccssssssccsssccsscccccccssccccccscccccccccccccccccccccscccccccccscccccccccccccccccscccscccsccscccsscccsccccccsscccscssccsccccsccccccsscscccccccsscccccccccccccsccccccscccscccccccccccccccsccscscccsccscccsscccccccccccccsccccccccscccccccccscscccccsccccccccccscccccccsssscscsscsscccccssscccsscsscccccccccscccccccccccccccssccccsccscccscccccccccccccccccccccccsccscccscsccccsccsscccccccccccsccssccccsscscccccccscccscccccccccsscccc" />
</svg>
