<?xml version="1.0" encoding="UTF-8" standalone="no"?>
<!***REMOVED***Created with Inkscape (http://www.inkscape.org/) -->

<svg
  width="150"
  height="150"
  viewBox="0 0 39.6875 39.6875"
  version="1.1"
  id="svg1168"
  xmlns="http://www.w3.org/2000/svg"
>
  <defs
    id="defs1165"/>
  <g
    id="layer1">
    <path
      id="path3611"
      style="stroke-width:8.88756;stroke-linecap:round;-inkscape-stroke:none"
      d="M 105.18164 32.007812 C 93.608323 32.014844 82.788081 36.923362 74.796875 45.103516 C 66.832122 37.180613 56.179225 32.444132 44.8125 32.443359 C 21.242635 32.443447 2.0411046 51.64498 2.0410156 75.214844 C 2.041097 98.784711 21.242629 117.9921 44.8125 117.99219 C 56.388097 117.98576 67.211235 113.07145 75.203125 104.88867 C 83.167489 112.81127 93.815426 117.54761 105.18164 117.54883 C 128.75151 117.54874 147.95891 98.349172 147.95898 74.779297 C 147.9589 51.209434 128.75151 32.007896 105.18164 32.007812 z M 105.18164 40.888672 L 105.1875 40.888672 C 123.9507 40.892829 139.07219 56.015118 139.07227 74.779297 C 139.0722 93.546004 123.94835 108.66205 105.18164 108.66211 C 99.163145 108.66147 93.341255 107.06092 88.257812 104.12891 L 101.81836 91.4375 L 99.748047 89.154297 L 85.324219 102.22852 C 84.945565 101.95447 84.570828 101.6729 84.203125 101.38281 L 98.822266 88.132812 L 96.759766 85.855469 L 81.630859 99.130859 C 80.571769 98.105985 79.57087 97.00989 78.642578 95.839844 L 75.107422 91.380859 L 71.638672 95.890625 C 69.294983 98.934957 66.482661 101.51553 63.347656 103.56836 C 60.527599 102.89002 57.722135 100.77194 57.125 98.748047 C 56.743302 97.454371 56.420627 97.372461 54.625 98.101562 C 53.025493 98.751018 52.113599 98.691015 50.554688 97.833984 C 48.569778 96.742774 48.597805 96.725894 52.820312 96.494141 C 55.170869 96.365145 57.399329 95.935396 57.771484 95.537109 C 58.143692 95.138827 59.025284 94.810547 59.730469 94.810547 C 60.435642 94.810547 61.011719 94.466347 61.011719 94.044922 C 61.011719 93.583014 58.05542 93.279297 53.572266 93.279297 C 49.382572 93.279297 45.945271 92.945335 45.697266 92.513672 C 45.414973 92.022367 47.811642 91.746094 52.378906 91.746094 C 56.359168 91.746094 59.695423 91.408655 59.941406 90.980469 C 60.183447 90.55904 60.915359 90.162109 61.675781 90.162109 C 62.436169 90.162109 63.148437 89.69659 63.148438 89.064453 C 63.148438 88.097782 61.568657 87.916016 53.216797 87.916016 C 47.365098 87.916016 42.857128 88.608904 42.847656 87.148438 C 42.84752 87.12765 42.848426 87.107884 42.849609 87.087891 C 41.93341 87.146851 40.57941 87.144148 39.078125 87.115234 C 39.93796 90.069615 41.044411 92.726933 42.355469 94.855469 C 39.978085 93.713186 38.165625 90.80937 36.953125 87.058594 C 31.421653 86.839358 24.130656 86.192695 19.503906 85.246094 C 19.808419 86.086544 20.168804 87.021689 20.601562 88.115234 C 23.189049 94.653284 23.754485 97.894461 22.783203 100.61719 C 22.71379 100.68676 22.648714 100.74658 22.580078 100.81445 C 15.437684 94.608782 10.929723 85.458113 10.929688 75.214844 C 10.929759 56.448144 26.0458 41.332099 44.8125 41.332031 C 55.156886 41.332734 64.928102 46.056449 71.357422 54.160156 L 74.886719 58.611328 L 78.355469 54.109375 C 84.766492 45.781787 94.672411 40.897335 105.18164 40.888672 z M 40.398438 52.478516 C 32.926233 52.498547 27.189249 55.267839 23.375 59.029297 C 19.756421 62.759929 18.366085 65.689132 18.025391 71.167969 C 22.397525 68.676145 30.890149 65.041445 36.759766 62.898438 C 37.557199 60.421418 38.657907 58.340539 40.070312 56.931641 C 39.245053 58.574817 38.598876 60.426737 38.119141 62.416016 C 39.671381 61.87461 40.970622 61.469444 41.835938 61.273438 C 41.824221 61.215346 41.82296 61.151147 41.832031 61.083984 C 42.015905 59.735018 43.863747 60.332031 49.613281 60.332031 C 54.361906 60.332031 57.449219 60.028836 57.449219 59.564453 C 57.449219 59.143028 57.99613 58.798828 58.662109 58.798828 C 59.537346 58.798828 59.655924 58.565669 59.09375 57.960938 C 58.666059 57.50078 55.314587 56.890566 51.648438 56.605469 C 45.026463 56.090504 44.99695 56.079866 47.080078 54.853516 L 49.179688 53.619141 C 46.03198 52.823709 43.101147 52.471338 40.398438 52.478516 z M 127.25391 59.980469 C 126.42849 59.949855 125.5908 60.229201 124.92773 60.830078 L 119.19922 66.021484 L 123.75977 71.052734 L 129.48828 65.863281 C 130.83548 64.642456 130.9356 62.573662 129.71484 61.226562 L 129.56445 61.060547 C 129.54556 61.039382 129.52532 61.016465 129.50586 60.996094 C 128.89222 60.352149 128.07932 60.011166 127.25391 59.980469 z M 41.882812 61.400391 L 37.953125 63.144531 C 36.380521 70.372178 36.905287 79.242489 38.896484 86.478516 L 42.873047 86.933594 C 43.148461 85.816165 45.758433 85.689453 51.119141 85.689453 C 55.530564 85.689453 60.372676 85.535813 60.556641 84.798828 C 60.949897 84.165523 61.596863 83.966771 62.044922 83.982422 C 63.53824 84.039417 63.734264 83.739661 63.728516 83.007812 C 63.720201 81.993482 58.118783 82.382727 52.472656 82.619141 C 46.82653 82.85555 40.734394 83.643796 41.066406 81.785156 C 41.290003 80.533365 44.819374 81.161664 50.896484 81.019531 C 54.127859 80.943941 60.569563 81.206919 60.65625 79.978516 C 60.691778 79.47543 60.983293 78.904288 62.560547 78.849609 C 63.53325 78.815972 64.410709 78.238815 64.416016 77.763672 C 64.428488 76.627455 64.209391 77.212511 50.861328 77.199219 C 44.155894 77.192794 40.22771 77.528379 40.353516 76.400391 C 40.492716 75.152153 43.78137 75.10805 50.621094 75.246094 C 55.231694 75.339146 60.77077 75.449359 60.771484 74.626953 C 60.772066 73.945686 61.812264 74.143383 62.388672 74.119141 C 63.357486 74.078397 63.95547 74.186116 63.849609 73.269531 C 63.731461 72.246409 58.589395 72.591797 52.148438 72.591797 C 45.109581 72.591797 40.018267 72.951081 39.998047 71.824219 C 39.976126 70.601674 43.315579 71.058594 50.285156 71.058594 C 56.961272 71.058594 61.011719 70.767909 61.011719 70.291016 C 61.011719 69.869579 61.492422 69.525391 62.080078 69.525391 C 62.667704 69.525391 63.148438 69.009087 63.148438 68.376953 C 63.148438 67.403196 61.407501 67.226562 51.751953 67.226562 C 44.629021 67.226562 40.13391 68.316678 40.353516 66.460938 C 40.532703 64.946953 44.034929 65.695313 49.970703 65.695312 C 55.906485 65.695312 59.585938 65.400697 59.585938 64.927734 C 59.585938 64.506313 60.094551 64.162109 60.714844 64.162109 C 61.33511 64.162109 61.709561 63.731861 61.546875 63.205078 C 61.333936 62.515458 58.525454 62.186709 51.515625 62.033203 C 46.154524 61.915773 42.384069 62.323888 41.882812 61.400391 z M 36.490234 63.792969 L 17.982422 72.001953 C 17.949767 72.784149 17.934409 73.614273 17.935547 74.505859 C 17.941556 79.141295 18.084652 81.050774 19.142578 84.214844 L 36.699219 86.226562 C 34.745848 79.507723 34.611621 70.434389 36.490234 63.792969 z M 118.23828 67.011719 L 100.26758 82.779297 L 102.28125 84.998047 L 119.99219 68.945312 L 118.23828 67.011719 z M 120.91797 69.96875 L 103.20703 86.019531 L 105.22461 88.246094 L 122.68164 71.912109 L 120.91797 69.96875 z M 99.228516 83.689453 L 99.052734 83.841797 L 101.08398 86.082031 L 101.25781 85.925781 L 99.228516 83.689453 z M 98.015625 84.753906 L 97.796875 84.945312 L 99.845703 87.205078 L 100.0625 87.007812 L 98.015625 84.753906 z M 102.18359 86.947266 L 102.00977 87.103516 L 104.04688 89.351562 L 104.2168 89.191406 L 102.18359 86.947266 z M 100.98828 88.029297 L 100.77148 88.226562 L 102.82422 90.494141 L 103.03906 90.292969 L 100.98828 88.029297 z M 52.818359 104.6543 C 52.845194 104.65997 52.894482 104.71007 52.96875 104.8125 C 53.210633 105.14617 54.181163 106.26209 55.306641 107.43359 C 54.909519 107.56324 54.509652 107.68186 54.107422 107.79688 C 53.297154 106.2023 52.657416 104.62155 52.818359 104.6543 z M 46.275391 105.92188 L 45.783203 108.98633 C 45.778757 109.01398 45.770237 109.06141 45.765625 109.08984 C 45.448111 109.09894 45.131219 109.10333 44.8125 109.10352 C 44.50912 109.10351 44.209627 109.08989 43.908203 109.08203 L 46.275391 105.92188 z "
      transform="scale(0.26458333)"/>
  </g>
</svg>
