<?xml version="1.0" encoding="UTF-8" standalone="no"?>
<!***REMOVED***Created with Inkscape (http://www.inkscape.org/) -->

<svg
  width="150"
  height="150"
  viewBox="0 0 39.6875 39.6875"
  version="1.1"
  id="svg1168"
  xmlns="http://www.w3.org/2000/svg"
>
  <defs
     id="defs1165" />
  <g
     id="layer1" />
  <path
     style="stroke-width:0.167124"
     d="m 17.723494,34.215622 c -0.229797,-0.043 -2.588279,-0.407498 -5.241071,-0.810001 C 9.8296307,33.003117 7.6150792,32.629711 7.5611967,32.57583 7.4655746,32.480208 7.2665782,29.281514 7.1628551,26.172835 L 7.1110721,24.620917 7.9384263,24.3753 c 1.6364986,-0.485823 2.9637567,-0.619914 5.2516247,-0.530566 1.866067,0.07288 2.6092,0.183147 4.115629,0.6107 2.031679,0.576631 3.120586,0.649316 6.538499,0.436437 2.025898,-0.126177 2.603339,-0.03272 2.94327,0.476376 0.234425,0.351083 0.125942,1.060488 -0.231696,1.515151 -0.793932,1.009321 -2.977446,1.504437 -7.453482,1.690089 -2.58607,0.107262 -2.882902,0.14962 -2.882902,0.411383 0,0.453428 0.362828,0.503977 2.899813,0.403993 4.744363,-0.186979 6.652552,-0.629551 7.91026,-1.834649 0.716407,-0.686438 0.74608,-0.753057 0.702354,-1.576898 l -0.04565,-0.860181 1.55119,-1.248563 c 3.73649,-3.007529 6.038601,-4.13287 7.346421,-3.591154 0.535296,0.221726 0.921608,0.891335 0.77703,1.346857 -0.117541,0.37034 -13.127481,11.238585 -14.404712,12.033409 -0.923961,0.574983 -0.97292,0.585372 -2.877362,0.610526 -1.065571,0.01407 -2.12542,-0.0096 -2.355216,-0.05258 z M 2.8753105,33.939597 C 2.7321824,33.76714 2.6020014,32.124335 2.4536396,28.618378 2.3355982,25.828921 2.2693594,23.458444 2.3064412,23.350653 2.4122549,23.043072 2.8314214,22.935412 4.2699537,22.84634 c 2.0061372,-0.124218 1.9106787,-0.301453 2.0896953,3.87989 0.2659371,6.211587 0.269108,6.895399 0.033067,7.131878 -0.3362873,0.336911 -3.2494124,0.404401 -3.5174055,0.08149 z M 16.968461,19.756681 c -5.144146,-4.369315 -6.633009,-6.494148 -6.65414,-9.49646 -0.01103,-1.5680199 0.453831,-2.7164718 1.483895,-3.6659517 0.945513,-0.8715442 1.727528,-1.1810275 2.979224,-1.1790322 1.328415,0.00213 2.445106,0.5160845 3.573978,1.6449564 l 0.853357,0.8533574 0.946887,-0.9098077 c 1.609595,-1.5465627 3.49296,-1.9814929 5.179508,-1.1961182 1.723841,0.802741 2.598702,2.1350825 2.718492,4.1400411 0.142427,2.3838539 -0.824669,4.3275659 -3.412855,6.8592989 -1.64974,1.613755 -5.231709,4.642944 -5.495725,4.647608 -0.09355,0.0017 -1.071233,-0.7624 -2.172621,-1.697892 z"
     id="path856" />
</svg>
