<?xml version="1.0" encoding="UTF-8" standalone="no"?>
<!***REMOVED***Created with Inkscape (http://www.inkscape.org/) -->

<svg
  width="150"
  height="150"
  viewBox="0 0 39.6875 39.6875"
  version="1.1"
  id="svg1168"
  xmlns="http://www.w3.org/2000/svg"
>
  <defs
    id="defs1165"/>
  <path
    id="rect11852"
    style="stroke-width:3.77953;stroke-linecap:round;-inkscape-stroke:none"
    d="M 0 0.4375 L 49.412109 62.134766 L 99.611328 61.458984 L 50.296875 0.4375 L 0 0.4375 z M 100.29102 0.4375 L 79.095703 27.070312 L 104.1582 57.679688 L 150.58203 0.4375 L 100.29102 0.4375 z M 107.30273 55.78125 L 103.19922 60.839844 C 103.32372 61.023917 103.40625 61.224094 103.40625 61.439453 L 103.40625 62.560547 C 103.40625 63.558663 102.69929 64.267578 101.70117 64.267578 L 48.298828 64.267578 C 47.401759 64.267578 46.745914 63.692138 46.621094 62.851562 L 41.871094 56.738281 C 40.892049 58.062582 40.304687 59.687578 40.304688 61.439453 L 40.304688 62.560547 C 40.304688 66.934522 43.924853 70.556641 48.298828 70.556641 L 65.740234 70.556641 C 47.573015 74.849892 34.738734 91.066753 34.734375 109.73438 C 34.734865 131.97225 52.762113 149.99951 75 150 C 97.237885 149.99951 115.26515 131.97224 115.26562 109.73438 C 115.26598 91.079449 102.45288 74.866882 84.302734 70.556641 L 101.70117 70.556641 C 106.07515 70.556641 109.69531 66.934522 109.69531 62.560547 L 109.69531 61.439453 C 109.69531 59.23833 108.77146 57.235053 107.30273 55.78125 z M 75 73.929688 C 94.75499 73.929688 110.80273 89.975477 110.80273 109.73047 C 110.80273 129.48545 94.75499 145.54102 75 145.54102 C 55.24501 145.54102 39.197266 129.48545 39.197266 109.73047 C 39.197266 89.975477 55.24501 73.929686 75 73.929688 z M 75 77.183594 C 57.003598 77.183594 42.445312 91.734065 42.445312 109.73047 C 42.445312 127.72687 57.003598 142.28516 75 142.28516 C 92.996398 142.28516 107.54687 127.72687 107.54688 109.73047 C 107.54688 91.734065 92.996398 77.183594 75 77.183594 z M 89.556641 97.746094 C 91.348446 97.867533 93.384493 98.347329 94.78125 99.023438 C 97.417168 100.29938 99.650627 103.05843 100.64062 106.26367 C 101.32143 108.46785 101.35787 109.41892 100.69727 107.73047 C 100.04983 106.07566 98.773978 104.27219 97.638672 103.40625 C 95.583267 101.83852 92.42162 100.84642 89.474609 100.8418 C 84.805672 100.83462 81.390497 102.73073 73.765625 109.56836 C 70.487478 112.50805 68.836338 113.64518 66.375 114.66016 C 62.637841 116.20124 59.324937 116.60092 56.523438 115.84766 C 54.535648 115.31317 52.283303 113.71344 51.310547 112.14453 C 50.543722 110.90776 50.513672 110.73689 50.513672 107.77734 C 50.513672 104.86633 50.556225 104.61856 51.294922 103.28516 C 53.19969 99.846837 57.223742 97.87568 62.375 97.859375 C 67.71864 97.842745 71.81586 100.21195 75.310547 105.33594 C 75.350912 105.39512 76.456253 104.41067 77.765625 103.14844 C 81.559379 99.491246 84.209049 98.075988 87.878906 97.75 C 88.389093 97.704683 88.959372 97.705614 89.556641 97.746094 z M 63.628906 103.29688 C 63.241775 103.28007 62.839611 103.28606 62.421875 103.31641 C 59.15399 103.55384 56.446288 105.11527 55.408203 107.35742 C 54.484388 109.35277 54.955616 111.22004 56.841797 113.03125 C 58.486814 114.61089 61.189068 115.08334 64.113281 114.30469 C 66.057141 113.78708 68.907016 112.21337 70.558594 110.74609 L 71.978516 109.48438 L 70.640625 107.7207 C 68.365545 104.72183 66.338823 103.4145 63.628906 103.29688 z M 90.160156 104.88867 C 90.596042 104.87205 91.012125 104.87923 91.404297 104.91211 C 94.508926 105.17241 97.438031 106.82553 98.751953 109.06055 C 99.42009 110.19706 99.470703 110.49845 99.470703 113.34375 C 99.470703 116.23168 99.427281 116.4826 98.689453 117.81445 C 96.770795 121.27785 92.756036 123.21376 87.462891 123.22852 C 82.855117 123.24137 78.441498 120.9945 75.769531 117.27734 C 75.213495 116.5038 74.723538 115.82285 74.679688 115.76367 C 74.635845 115.70448 73.528122 116.68893 72.21875 117.95117 C 69.551148 120.52275 67.487238 121.94985 65.349609 122.70117 C 63.392733 123.38896 60.252573 123.54423 58.113281 123.05859 C 53.593446 122.0326 50.563886 119.06529 49.181641 114.31055 C 48.935669 113.46449 48.781684 112.72418 48.839844 112.66602 C 48.898011 112.60785 49.261623 113.24473 49.646484 114.08203 C 50.655255 116.2767 51.998994 117.71575 53.916016 118.64844 C 57.529648 120.40658 61.233793 120.73924 64.599609 119.60938 C 67.943769 118.48678 70.043421 117.04706 75.65625 112.02734 C 77.485507 110.39138 79.612624 108.63315 80.382812 108.12109 C 83.138234 106.28915 87.108954 105.00502 90.160156 104.88867 z M 87.873047 106.45703 C 87.218413 106.50247 86.546512 106.61312 85.871094 106.79297 C 83.942964 107.30638 81.087915 108.88822 79.425781 110.36328 L 78.003906 111.625 L 79.183594 113.22461 C 80.696686 115.28 82.319236 116.66218 84.017578 117.33789 C 85.926209 118.09727 88.835829 117.92466 91.070312 116.92188 C 93.439498 115.85865 95.080078 113.76486 95.080078 111.80664 C 95.080078 110.76077 93.891972 108.55006 92.917969 107.7832 C 91.644408 106.7805 89.83695 106.32071 87.873047 106.45703 z "
    transform="scale(0.26458333)"/>
  <g
    id="layer1"/>
</svg>
