<?xml version="1.0" encoding="UTF-8" standalone="no"?>
<!-- Created with Inkscape (http://www.inkscape.org/) -->

<svg
   width="150"
   height="150"
   viewBox="0 0 39.6875 39.6875"
   version="1.1"
   id="svg1168"
   xmlns="http://www.w3.org/2000/svg"
   xmlns:svg="http://www.w3.org/2000/svg">
  <path
     id="path5121"
     d="m 19.835102,4.4642312 v 4.552e-4 c -3.601451,0.00476 -6.767357,1.5003954 -8.6533,4.0894915 -0.775712,1.0649364 -1.2278852,2.0574131 -1.5490355,3.4030541 -0.2182392,0.914403 -0.2187785,3.235205 -0.00182,5.088195 0.08288,0.707911 0.1707195,1.533121 0.1948243,1.833989 0.024118,0.300863 0.091959,0.98168 0.1506702,1.51262 0.2864827,2.59048 0.051989,4.100218 -0.8307349,5.346291 -1.056414,1.468772 -3.0339526,1.966187 -5.485126,2.592349 v 6.892594 h 9.6761266 c 0.34759,-0.742274 0.686547,-1.587492 1.146187,-2.539999 0.677752,-1.463394 0.91791,-2.049752 1.115688,-2.728451 l 0.157499,-0.540776 0.164326,0.243532 c 0.417805,0.617337 1.099295,1.190065 1.831713,1.539932 0.764759,0.365307 1.356037,0.525904 2.091631,0.492523 0.735593,0.03338 1.326872,-0.127216 2.091631,-0.492523 0.732419,-0.349867 1.413909,-0.922595 1.831714,-1.539932 l 0.164326,-0.243532 0.157498,0.540776 c 0.197779,0.678699 0.437936,1.265057 1.115688,2.728451 0.45964,0.952507 0.798597,1.797725 1.146187,2.539999 h 9.676127 v -6.892594 c -2.451175,-0.626162 -4.428713,-1.123577 -5.485127,-2.592349 -0.882721,-1.246073 -1.117218,-2.755811 -0.830735,-5.346291 0.05871,-0.53094 0.126555,-1.211757 0.150672,-1.51262 0.02411,-0.300868 0.111944,-1.126078 0.194823,-1.833989 0.216986,-1.85299 0.216448,-4.173792 -0.0018,-5.088195 C 29.733582,10.611591 29.281414,9.6191143 28.505698,8.5541779 26.619755,5.9650818 23.45385,4.4694773 19.852399,4.4646864 v -4.552e-4 c -0.0029,0 -0.0057,-1.9e-6 -0.0086,0 -0.0029,-1.9e-6 -0.0057,0 -0.0086,0 z m -0.02276,1.9418712 c 0.02095,1.708e-4 0.04185,-3.049e-4 0.06282,0 0.07749,0.00115 0.155249,0.00292 0.233061,0.00592 0.106345,0.00405 0.211198,0.01053 0.315906,0.017753 v -0.012745 c 2.170198,0.1052135 4.185599,0.9405783 5.812869,2.421649 1.845831,1.6799996 2.756505,3.6768606 2.862279,6.2762586 0.06172,1.516739 -0.172782,3.078655 -0.74971,4.995789 -0.399289,1.326834 -0.831128,2.354132 -1.553132,3.69256 -0.904587,1.676908 -1.737701,2.787061 -2.912807,3.883743 -1.204858,1.124445 -2.330195,1.741553 -3.459499,1.886337 v -0.01502 c -0.190802,0.02902 -0.380983,0.04513 -0.570361,0.04825 -0.0067,1.12e-4 -0.01333,-7.5e-5 -0.02003,0 -0.18938,-0.0031 -0.37956,-0.01922 -0.570362,-0.04825 v 0.01502 c -1.129305,-0.144787 -2.254643,-0.761895 -3.459501,-1.88634 -1.175105,-1.096682 -2.008222,-2.206835 -2.912807,-3.883743 -0.722005,-1.338428 -1.153843,-2.365726 -1.553133,-3.69256 -0.576925,-1.917134 -0.811428,-3.47905 -0.74971,-4.995789 0.105775,-2.599398 1.01645,-4.596259 2.862281,-6.2762589 1.627269,-1.4810707 3.64267,-2.3164355 5.812868,-2.421649 v 0.012745 c 0.104709,-0.00722 0.209561,-0.013701 0.315907,-0.017753 0.07781,-0.003 0.15557,-0.00477 0.23306,-0.00592 z m -0.205749,0.3855519 v 4.553e-4 c -0.02601,5.32e-4 -0.05436,0.00398 -0.08148,0.00592 -0.02209,5.997e-4 -0.04334,6.562e-4 -0.06555,0.00137 -1.537916,0.045664 -2.307541,0.2209995 -3.62428,0.8252726 -1.755111,0.8054391 -3.032773,2.0063532 -3.928808,3.6934698 -0.596701,1.123514 -0.854091,2.022035 -0.994606,3.462686 -0.316885,3.248909 1.352251,8.214706 3.801353,11.306643 1.235826,1.560201 2.498097,2.51879 3.957029,3.005666 0.388544,0.129673 0.5512,0.147962 1.173498,0.129732 0.622297,0.01823 0.784955,-5.9e-5 1.173498,-0.129732 1.458934,-0.486876 2.721204,-1.445465 3.95703,-3.005666 2.449102,-3.091937 4.118235,-8.057734 3.801352,-11.306643 C 28.635115,13.34017 28.377725,12.441649 27.781023,11.318135 26.88499,9.6310186 25.607327,8.4301044 23.852217,7.6246653 c -1.31674,-0.604273 -2.086365,-0.7796122 -3.62428,-0.8252726 -0.02222,-6.651e-4 -0.04347,-7.218e-4 -0.06555,-0.00137 -0.02712,-0.00203 -0.05547,-0.00539 -0.08148,-0.00592 v -4.552e-4 c -0.0768,-7.216e-4 -0.15692,-2.804e-4 -0.237158,4.552e-4 -0.08024,-7.654e-4 -0.160353,-0.00125 -0.237158,-4.552e-4 z m 2.286456,1.4971436 c 0.23624,0.00683 0.59261,0.1540023 1.246785,0.4324374 l 1.021463,0.4347132 -0.02731,0.4529214 c -0.01848,0.3027576 -0.08212,0.5078771 -0.192097,0.6204341 -0.163132,0.166961 -0.167726,0.165672 -0.571272,-0.224868 -0.494417,-0.4784822 -0.690226,-0.584473 -1.081093,-0.584473 -0.272239,0 -0.309401,0.028735 -0.385552,0.3045268 -0.0463,0.1676925 -0.198336,0.4855992 -0.338212,0.7060112 -0.38078,0.599974 -0.490818,1.052052 -0.374627,1.538566 0.22541,0.94385 0.22643,0.927858 -0.102419,1.329176 -0.350541,0.427787 -0.374305,0.566591 -0.134739,0.783395 0.21288,0.192617 0.213397,0.273412 0.0023,0.738785 -0.102898,0.226767 -0.169986,0.561062 -0.171154,0.853039 l -0.0023,0.479778 0.748344,0.536678 c 0.764555,0.547676 1.52326,0.940892 1.813961,0.940892 0.237182,0 0.415058,0.215558 0.514828,0.624075 0.04832,0.197817 0.127767,0.483294 0.177072,0.63409 0.07003,0.214198 0.06112,0.329749 -0.04188,0.528939 -0.258168,0.499245 -0.466252,0.423981 -0.69008,-0.249903 -0.29484,-0.887672 -1.441415,-1.407666 -1.960079,-0.889 -0.209374,0.20936 -0.160001,0.286348 0.151581,0.235792 0.606057,-0.09835 1.054872,0.355732 1.472563,1.48986 0.125613,0.341062 0.264246,0.619979 0.307713,0.619979 0.149965,0 0.713769,-0.324235 0.876255,-0.503903 0.08962,-0.09909 0.234118,-0.180258 0.320914,-0.180258 0.272536,0 0.182725,0.377012 -0.216674,0.910849 -0.205861,0.275158 -0.495783,0.743402 -0.645014,1.040581 -0.265596,0.528903 -0.445307,0.638214 -0.508911,0.309989 -0.04664,-0.240702 -0.664873,-1.1199 -0.833011,-1.184423 -0.107177,-0.04113 -0.330097,0.133545 -0.842114,0.659581 -0.699957,0.719121 -0.903733,0.832471 -1.490316,0.827548 -0.391731,-0.0033 -0.909974,-0.304047 -1.527642,-0.886724 -0.329579,-0.310907 -0.643059,-0.56581 -0.696451,-0.56581 -0.157293,0 -0.461928,0.398043 -0.736965,0.961832 -0.328371,0.673118 -0.391698,0.693665 -0.766552,0.251724 -0.136397,-0.160809 -0.145982,-0.210754 -0.05098,-0.269477 0.09183,-0.05675 0.05105,-0.162196 -0.192093,-0.493434 -0.170054,-0.231661 -0.352165,-0.533136 -0.404215,-0.67005 -0.11577,-0.304493 -0.03499,-0.806609 0.129731,-0.806609 0.06584,0 0.309241,0.192671 0.540774,0.427885 0.231535,0.235215 0.456673,0.42743 0.500262,0.42743 0.04359,0 0.151256,-0.212172 0.239434,-0.471584 0.205778,-0.605386 0.711094,-1.377321 1.191706,-1.820334 0.353707,-0.326036 0.36819,-0.356466 0.229419,-0.482054 -0.420982,-0.380979 -0.996343,0.03311 -1.574071,1.132531 -0.27598,0.525202 -0.346219,0.603695 -0.475682,0.534402 -0.249584,-0.133571 -0.375295,-0.334314 -0.309989,-0.49571 0.03355,-0.08292 0.12898,-0.430633 0.212122,-0.772925 0.182379,-0.750833 0.347823,-0.960011 0.759269,-0.960011 0.368781,0 1.24742,-0.501411 1.831258,-1.045133 0.367372,-0.342123 0.405838,-0.414365 0.404671,-0.756992 -0.0017,-0.472651 -0.04812,-0.542455 -0.450646,-0.673692 -0.397606,-0.12963 -0.61503,-0.430675 -0.536677,-0.742882 0.03116,-0.124192 0.20411,-0.403223 0.384186,-0.620434 0.180075,-0.217212 0.372252,-0.482969 0.42743,-0.590391 0.09074,-0.176657 0.07665,-0.203175 -0.147484,-0.281312 -0.136292,-0.04751 -0.340194,-0.210127 -0.453376,-0.360971 -0.18269,-0.243491 -0.20638,-0.365621 -0.210301,-1.087011 -0.0036,-0.664985 -0.03826,-0.877532 -0.192093,-1.172133 L 17.875022,9.8546762 18.203675,9.5091815 c 0.389435,-0.4093809 0.562289,-0.4330682 0.734688,-0.099688 0.07004,0.1354417 0.311491,0.4528931 0.536678,0.7055555 l 0.409677,0.459749 -0.0041,1.325534 c -0.0027,0.885653 -0.03898,1.389522 -0.109702,1.518083 -0.07559,0.137434 -0.08053,0.239638 -0.0173,0.357785 0.121951,0.227882 0.112622,1.315785 -0.01229,1.4407 -0.07714,0.07714 -0.06392,0.141386 0.05735,0.275394 0.154271,0.170467 0.15395,0.180889 -0.02731,0.426064 -0.230099,0.31123 -0.229892,0.334807 0.0059,0.820266 l 0.191638,0.3942 -0.233516,0.417871 c -0.257736,0.461628 -0.235174,0.671531 0.104696,0.977764 l 0.188906,0.170244 0.205749,-0.239434 c 0.248056,-0.288378 0.260736,-0.624468 0.0346,-0.913581 -0.216389,-0.276705 -0.214398,-0.554026 0.0059,-0.863509 0.185986,-0.261197 0.167991,-0.496667 -0.05189,-0.679154 -0.177214,-0.147073 -0.154919,-0.404848 0.04598,-0.530305 0.207577,-0.129635 0.221527,-0.236702 0.0305,-0.236702 -0.123163,0 -0.13421,-0.08127 -0.08649,-0.645925 0.03003,-0.355163 0.08866,-0.711153 0.130187,-0.791133 0.04154,-0.07998 0.0446,-0.222276 0.0068,-0.316362 -0.116202,-0.289037 -0.09312,-2.968807 0.02731,-3.169538 0.0581,-0.09685 0.214627,-0.3473256 0.347315,-0.5562512 0.132734,-0.2089247 0.388991,-0.6301059 0.569907,-0.9358854 0.204542,-0.3457103 0.316861,-0.5189429 0.552609,-0.5316703 0.01473,-7.952e-4 0.02977,-9.106e-4 0.04552,-4.552e-4 z m 2.964699,1.7297491 c 0.05626,0 0.187608,0.138249 0.291782,0.306803 0.17515,0.283405 0.182423,0.348912 0.09787,0.876255 -0.05024,0.313636 -0.06949,0.907081 -0.04233,1.318706 0.05079,0.769974 0.0026,0.884272 -0.262194,0.619524 -0.07084,-0.07085 -0.15423,-0.208555 -0.185265,-0.306348 -0.08189,-0.258019 -0.374948,-0.162089 -1.194893,0.391469 -0.376345,0.254075 -0.786182,0.486244 -0.910394,0.516194 -0.124214,0.02994 -0.333193,0.167204 -0.464756,0.304527 -0.292595,0.305401 -0.320942,0.306485 -0.543051,0.02413 -0.284621,-0.361839 -0.226198,-0.542827 0.348226,-1.075175 l 0.526663,-0.487517 -0.05781,-0.893552 c -0.06091,-0.942047 0.02767,-1.368434 0.274029,-1.320072 0.06926,0.0136 0.17893,0.178372 0.243986,0.366434 0.176015,0.508832 0.287881,0.587974 0.73924,0.52029 0.445295,-0.06677 0.527257,-0.145333 0.605867,-0.581742 0.05484,-0.304471 0.307995,-0.579921 0.533036,-0.579921 z m -7.778864,0.551244 c 0.06538,0.0024 0.123242,0.03301 0.169333,0.09605 0.06252,0.08551 0.119902,0.311596 0.12791,0.502538 0.008,0.190941 0.0232,0.404655 0.03369,0.475225 0.01048,0.07056 0.02321,0.22468 0.02822,0.342309 0.0052,0.12096 0.157453,0.376427 0.350957,0.588115 0.188169,0.205857 0.342308,0.409493 0.342308,0.452466 0,0.213725 -0.380619,0.781624 -0.623165,0.929512 -0.15099,0.09207 -0.333898,0.16734 -0.406036,0.167513 -0.175118,4.25e-4 -1.367303,-1.171695 -1.32781,-1.305506 0.01705,-0.05778 0.07929,-0.297821 0.13838,-0.533036 0.232062,-0.923768 0.813135,-1.728453 1.166216,-1.715183 z m 7.364635,1.07381 c -0.170242,0 -0.838018,0.626494 -0.838018,0.786126 0,0.04438 0.06744,0.06122 0.14976,0.03733 0.08233,-0.02389 0.311098,-0.08502 0.50891,-0.136104 0.728252,-0.188071 0.858509,-0.687348 0.179348,-0.687348 z m -1.242234,3.201858 c 0.09775,-0.0023 0.198122,0.01841 0.294057,0.06418 0.306572,0.146267 0.36184,0.502579 0.11562,0.7488 -0.436887,0.436885 -1.230926,0.02375 -0.941348,-0.489793 0.114343,-0.202784 0.316609,-0.31831 0.531671,-0.323189 z m -6.58898,0.138835 c 0.130608,8.93e-4 0.260148,0.03664 0.360061,0.109702 0.124751,0.09122 0.144586,0.178426 0.09787,0.42743 -0.04307,0.22955 -0.11052,0.388987 -0.314086,0.445183 -0.250576,0.06917 -0.387897,0.08275 -0.609509,-0.0915 -0.14637,-0.25944 -0.216599,-0.490318 0.01775,-0.724673 0.09834,-0.09834 0.242983,-0.153924 0.391925,-0.164327 0.01862,-0.0013 0.03733,-0.0019 0.05599,-0.0018 z m 7.494367,0.09058 c 0.03863,0.0023 0.09703,0.0297 0.185265,0.07693 0.08961,0.04795 0.141644,0.140878 0.116075,0.20757 -0.03365,0.08767 0.0024,0.108413 0.131552,0.07465 0.428088,-0.111947 6.54e-4,0.476335 -0.533946,0.735144 -0.435701,0.210921 -1.144235,0.238239 -1.388806,0.05326 -0.09556,-0.07228 -0.356514,-0.126781 -0.614972,-0.128366 -0.246976,-0.0015 -0.44928,-0.04127 -0.44928,-0.08831 0,-0.04705 0.07982,-0.08558 0.177072,-0.08558 0.136374,0 0.164609,-0.03806 0.123814,-0.166602 -0.03415,-0.107614 0.0092,-0.229045 0.122448,-0.342308 0.239692,-0.239706 0.431982,-0.225231 0.431982,0.03232 0,0.542648 0.994108,0.77403 1.407925,0.327742 0.12362,-0.133317 0.217129,-0.335905 0.217129,-0.470219 0,-0.163445 0.0094,-0.229988 0.07374,-0.226233 z m -0.907208,0.08603 c -0.01035,-5.94e-4 -0.02077,-4.69e-4 -0.03095,4.55e-4 -0.142693,0.01273 -0.259494,0.157132 -0.191183,0.267656 0.02486,0.04026 0.128467,0.06133 0.229875,0.04689 0.226735,-0.03231 0.244283,-0.268328 0.02321,-0.3109 -0.0105,-0.002 -0.02061,-0.0035 -0.03095,-0.0041 z m -6.65999,0.121538 c -0.01316,-2.64e-4 -0.02572,-1.5e-5 -0.03778,9.1e-4 -0.168733,0.01327 -0.225009,0.244299 -0.09468,0.374628 0.104484,0.104485 0.407393,0.02601 0.398753,-0.165237 -0.007,-0.154897 -0.0853,-0.191462 -0.225322,-0.20757 -0.01422,-0.0016 -0.02781,-0.0025 -0.04097,-0.0027 z m -0.868972,0.0068 c 0.05135,0.007 0.07142,0.07629 0.102875,0.243985 0.114775,0.611797 0.939878,0.87181 1.377882,0.433803 0.115468,-0.115469 0.17032,-0.239104 0.176161,-0.31181 0.02886,-0.35681 0.07336,-0.386962 0.354599,-0.297699 0.105736,0.03356 0.215128,0.152219 0.243075,0.263559 0.0341,0.135851 0.09314,0.186199 0.179803,0.152947 0.09153,-0.03512 0.120404,-0.0035 0.09878,0.108792 -0.01678,0.08713 -0.107358,0.179267 -0.201198,0.204839 -0.09384,0.02559 -0.277451,0.119312 -0.408311,0.208025 -0.319543,0.216624 -1.266533,0.271506 -1.72975,0.100143 -0.686803,-0.254077 -0.851655,-0.784527 -0.329562,-1.059244 0.06277,-0.03304 0.104841,-0.05159 0.135648,-0.04734 z m 10.016615,0.898559 c 0.128809,-0.0015 0.134658,0.381932 0.0041,0.79614 -0.122735,0.38936 -0.130851,0.526238 -0.04779,0.803423 0.147516,0.492379 0.12676,0.634204 -0.154768,1.049685 -0.140275,0.20701 -0.255357,0.443881 -0.256275,0.526208 -0.0031,0.294915 -0.246541,0.141315 -0.506635,-0.319549 -0.145622,-0.258022 -0.264925,-0.496353 -0.264925,-0.529849 0,-0.110862 1.127497,-2.293991 1.198534,-2.320596 0.0097,-0.0036 0.01918,-0.0054 0.02777,-0.0055 z m -11.526504,0.279491 c 0.227428,0.02799 1.20067,1.104968 1.264993,1.426588 0.09082,0.454149 0.05839,1.391706 -0.05599,1.617771 -0.177492,0.350812 -0.364893,0.305152 -0.933609,-0.228054 -0.718585,-0.673709 -0.831949,-0.810694 -0.835287,-1.014634 -0.004,-0.242057 0.419384,-1.687764 0.524842,-1.792567 0.008,-0.008 0.01989,-0.01097 0.03505,-0.0091 z m 4.437262,2.636047 -0.25491,0.213487 c -0.140027,0.117406 -0.343188,0.288547 -0.452011,0.38009 -0.308194,0.25927 -0.217725,0.505458 0.240344,0.653663 0.486403,0.157368 0.873558,0.439408 1.397,1.016456 0.227216,0.250485 0.438701,0.454254 0.470219,0.452921 0.03152,-0.0011 0.244324,-0.193357 0.47295,-0.42652 0.376174,-0.383638 1.405462,-1.129276 1.73066,-1.254068 0.08059,-0.03093 0.119951,-0.133435 0.103785,-0.270843 -0.02163,-0.183977 -0.115802,-0.256431 -0.556706,-0.428795 l -0.52985,-0.207115 -0.218039,0.259007 c -0.27996,0.332713 -0.848034,0.563431 -1.216287,0.494344 -0.16411,-0.03079 -0.465266,-0.222916 -0.732868,-0.467487 z m -0.693265,3.576484 c 0.08479,-9.69e-4 0.141566,0.05148 0.141566,0.163416 0,0.09131 -0.04411,0.193459 -0.09787,0.226688 -0.131401,0.08121 0.220215,0.260533 0.750165,0.382366 0.546784,0.12571 2.101298,0.119535 2.764413,-0.01093 l 0.524842,-0.103329 -0.174796,-0.186176 c -0.09616,-0.102352 -0.174795,-0.231906 -0.174795,-0.287685 0,-0.163821 0.379484,-0.11599 0.582652,0.07329 0.244589,0.227877 0.238961,0.490066 -0.0132,0.604957 -0.178213,0.08121 -0.196278,0.13581 -0.16205,0.492068 0.03506,0.364775 0.0082,0.439262 -0.299065,0.828004 -0.592862,0.75003 -0.664898,1.008038 -0.357329,1.286388 0.134102,0.12135 0.168434,0.229455 0.135648,0.431526 -0.05741,0.353763 -0.397588,0.865472 -0.613605,0.923595 -0.1911,0.05142 -1.786053,0.04485 -2.053395,-0.0086 -0.239358,-0.04789 -0.561218,-0.550003 -0.616337,-0.960922 -0.03852,-0.287192 -6.87e-4,-0.4151 0.228054,-0.771558 0.342982,-0.534497 0.305302,-0.674482 -0.301796,-1.122972 -0.338433,-0.250015 -0.463846,-0.398656 -0.463846,-0.548968 0,-0.113345 0.04035,-0.231253 0.08967,-0.261738 0.118375,-0.07316 -0.06071,-0.28964 -0.321369,-0.388738 -0.250668,-0.0953 -0.246509,-0.177011 0.02549,-0.500262 0.142305,-0.16912 0.297934,-0.259051 0.406946,-0.260373 z m 1.204452,0.353689 c 0.0087,-3.36e-4 0.01789,4.18e-4 0.02731,0.0023 0.08233,0.01585 0.149304,0.102116 0.149304,0.191637 0,0.170221 -0.139292,0.265378 -0.240344,0.164327 -0.117956,-0.117955 -0.06711,-0.353184 0.06373,-0.35824 z m -0.549878,0.07147 c 0.04705,0 0.08512,0.03853 0.08512,0.08558 0,0.04705 -0.03807,0.08558 -0.08512,0.08558 -0.04705,0 -0.08558,-0.03852 -0.08558,-0.08558 0,-0.04705 0.03853,-0.08558 0.08558,-0.08558 z m 1.282745,0 c 0.09409,0 0.171154,0.05556 0.171154,0.123358 0,0.148741 -0.09064,0.209405 -0.235336,0.157498 -0.172553,-0.06189 -0.122518,-0.280856 0.06418,-0.280856 z m 0.898104,0 c 0.07057,0 0.128366,0.05827 0.128366,0.12882 0,0.07057 -0.05781,0.127911 -0.128366,0.127911 -0.07056,0 -0.12791,-0.05735 -0.12791,-0.127911 0,-0.07056 0.05735,-0.12882 0.12791,-0.12882 z m 0.641373,0 c 0.04706,0 0.08603,0.03853 0.08603,0.08558 0,0.04705 -0.03899,0.08558 -0.08603,0.08558 -0.04706,0 -0.08512,-0.03852 -0.08512,-0.08558 0,-0.04705 0.03808,-0.08558 0.08512,-0.08558 z m -2.691581,0.707376 c -0.19307,-0.0088 -0.387372,0.109971 -0.387372,0.255366 0,0.04757 0.105514,0.177787 0.234881,0.28905 0.340712,0.293025 0.44928,0.259807 0.44928,-0.137925 0,-0.292335 -0.03032,-0.34834 -0.214853,-0.394656 -0.02697,-0.0068 -0.05435,-0.01057 -0.08194,-0.01184 z m 2.73437,0.06236 c -0.217358,0 -0.299065,0.144422 -0.299065,0.526663 0,0.315078 0.201707,0.306858 0.443818,-0.01775 0.196979,-0.264101 0.127218,-0.50891 -0.144753,-0.50891 z m -1.45299,0.147484 c -0.390181,-0.0023 -0.660753,0.05833 -0.702824,0.167968 -0.02641,0.06882 0.03915,0.31194 0.146118,0.540319 l 0.194825,0.415595 -0.311355,0.363247 c -0.325856,0.380692 -0.409353,0.74471 -0.267201,1.166671 0.05825,0.172932 0.158327,0.126956 0.512097,-0.235338 0.183745,-0.188171 0.373079,-0.341854 0.421057,-0.341854 0.04798,0 0.228132,0.163313 0.400574,0.363249 0.311647,0.361333 0.31481,0.362704 0.494344,0.200743 0.249869,-0.225415 0.227619,-0.402072 -0.118807,-0.943625 -0.35664,-0.55752 -0.371068,-0.750594 -0.08148,-1.094749 0.317961,-0.377878 0.25068,-0.527275 -0.261283,-0.578556 -0.152447,-0.01526 -0.296006,-0.02291 -0.426065,-0.02367 z m -4.031681,6.299473 -0.0874,0.344585 c -0.131329,0.519353 -0.338651,0.749578 -0.655484,1.476203 -0.341828,0.783952 -0.347838,0.982364 -0.06646,1.962357 0.115789,0.585941 0.256044,0.850682 0.423334,1.118418 h 3.709857 1.160752 3.709858 c 0.167289,-0.267736 0.308,-0.532477 0.423788,-1.118418 0.281381,-0.979993 0.274911,-1.178405 -0.06691,-1.962357 -0.316833,-0.726625 -0.524155,-0.95685 -0.655484,-1.476203 l -0.0874,-0.344585 -0.185265,0.169335 -0.990509,0.690534 c -0.07959,0.01385 -0.341032,0.128817 -0.623165,0.278125 -0.558003,0.295286 -1.04914,0.478945 -1.524911,0.55534 v -0.02595 c -0.196651,0.0398 -0.389028,0.06079 -0.580376,0.06555 -0.191347,-0.0048 -0.383725,-0.02575 -0.580376,-0.06555 v 0.02595 c -0.475771,-0.0764 -0.966909,-0.260054 -1.524911,-0.55534 -0.282132,-0.149308 -0.54358,-0.264277 -0.623165,-0.278125 L 16.124788,30.49101 Z"/>
</svg>
