<?xml version="1.0" encoding="UTF-8" standalone="no"?>
<!-- Created with Inkscape (http://www.inkscape.org/) -->

<svg
   width="150"
   height="150"
   viewBox="0 0 39.6875 39.6875"
   version="1.1"
   id="svg1168"
   xmlns="http://www.w3.org/2000/svg"
   xmlns:svg="http://www.w3.org/2000/svg">
  <defs
     id="defs6" />
  <path
     id="path5121"
     d="m 19.835102,4.4642312 v 4.552e-4 c -3.601451,0.00476 -6.767357,1.5003954 -8.6533,4.0894915 -0.775712,1.0649364 -1.2278852,2.0574131 -1.5490355,3.4030541 -0.2182392,0.914403 -0.2187785,3.235205 -0.00182,5.088195 0.08288,0.707911 0.1707195,1.533121 0.1948243,1.833989 0.024118,0.300863 0.091959,0.98168 0.1506702,1.51262 0.286483,2.59048 0.051989,4.100218 -0.8307349,5.346291 -1.056414,1.468772 -3.0339526,1.966187 -5.485126,2.592349 v 6.892594 h 9.6761269 c 0.34759,-0.742274 0.686547,-1.587492 1.146187,-2.539999 0.677752,-1.463394 0.91791,-2.049752 1.115688,-2.728451 l 0.157499,-0.540776 0.164326,0.243532 c 0.417805,0.617337 1.099295,1.190065 1.831713,1.539932 0.764759,0.365307 1.356037,0.525904 2.091631,0.492523 0.735593,0.03338 1.326872,-0.127216 2.091631,-0.492523 0.732419,-0.349867 1.413909,-0.922595 1.831714,-1.539932 l 0.164326,-0.243532 0.157498,0.540776 c 0.197779,0.678699 0.437936,1.265057 1.115688,2.728451 0.45964,0.952507 0.798597,1.797725 1.146187,2.539999 h 9.676127 v -6.892594 c -2.451175,-0.626162 -4.428713,-1.123577 -5.485127,-2.592349 -0.882721,-1.246073 -1.117218,-2.755811 -0.830735,-5.346291 0.05871,-0.53094 0.126555,-1.211757 0.150672,-1.51262 0.02411,-0.300868 0.111944,-1.126078 0.194823,-1.833989 0.216986,-1.85299 0.216448,-4.173792 -0.0018,-5.088195 C 29.733582,10.611591 29.281414,9.6191143 28.505698,8.5541779 26.619755,5.9650818 23.45385,4.4694773 19.852399,4.4646864 v -4.552e-4 c -0.0029,0 -0.0057,-1.9e-6 -0.0086,0 -0.0029,-1.9e-6 -0.0057,0 -0.0086,0 z m -0.02276,1.9418712 c 0.02095,1.708e-4 0.04185,-3.049e-4 0.06282,0 0.07749,0.00115 0.155249,0.00292 0.233061,0.00592 0.106345,0.00405 0.211198,0.01053 0.315906,0.017753 v -0.012745 c 2.170198,0.1052135 4.185599,0.9405783 5.812869,2.421649 1.845831,1.6799996 2.756505,3.6768606 2.862279,6.2762586 0.06172,1.516739 -0.172782,3.078655 -0.74971,4.995789 -0.399289,1.326834 -0.831128,2.354132 -1.553132,3.69256 -0.904587,1.676908 -1.737701,2.787061 -2.912807,3.883743 -1.204858,1.124445 -2.330195,1.741553 -3.459499,1.886337 v -0.01502 c -0.190802,0.02902 -0.380983,0.04513 -0.570361,0.04825 -0.0067,1.12e-4 -0.01333,-7.5e-5 -0.02003,0 -0.18938,-0.0031 -0.37956,-0.01922 -0.570362,-0.04825 v 0.01502 c -1.129305,-0.144787 -2.254643,-0.761895 -3.459501,-1.88634 -1.175105,-1.096682 -2.008222,-2.206835 -2.912807,-3.883743 -0.722005,-1.338428 -1.153843,-2.365726 -1.553133,-3.69256 -0.576925,-1.917134 -0.811428,-3.47905 -0.74971,-4.995789 0.105775,-2.599398 1.01645,-4.596259 2.862281,-6.2762589 1.627269,-1.4810707 3.64267,-2.3164355 5.812868,-2.421649 v 0.012745 c 0.104709,-0.00722 0.209561,-0.013701 0.315907,-0.017753 0.07781,-0.003 0.15557,-0.00477 0.23306,-0.00592 z m -0.205749,0.3855519 v 4.553e-4 c -0.02601,5.32e-4 -0.05436,0.00398 -0.08148,0.00592 -0.02209,5.997e-4 -0.04334,6.562e-4 -0.06555,0.00137 -1.537916,0.045664 -2.307541,0.2209995 -3.62428,0.8252726 -1.755111,0.8054391 -3.032773,2.0063532 -3.928808,3.6934698 -0.596701,1.123514 -0.854091,2.022035 -0.994606,3.462686 -0.316885,3.248909 1.352251,8.214706 3.801353,11.306643 1.235826,1.560201 2.498097,2.51879 3.957029,3.005666 0.388544,0.129673 0.5512,0.147962 1.173498,0.129732 0.622297,0.01823 0.784955,-5.9e-5 1.173498,-0.129732 1.458934,-0.486876 2.721204,-1.445465 3.95703,-3.005666 2.449102,-3.091937 4.118235,-8.057734 3.801352,-11.306643 C 28.635115,13.34017 28.377725,12.441649 27.781023,11.318135 26.88499,9.6310186 25.607327,8.4301044 23.852217,7.6246653 c -1.31674,-0.604273 -2.086365,-0.7796122 -3.62428,-0.8252726 -0.02222,-6.651e-4 -0.04347,-7.218e-4 -0.06555,-0.00137 -0.02712,-0.00203 -0.05547,-0.00539 -0.08148,-0.00592 v -4.552e-4 c -0.0768,-7.216e-4 -0.15692,-2.804e-4 -0.237158,4.552e-4 -0.08024,-7.654e-4 -0.160353,-0.00125 -0.237158,-4.552e-4 z m 2.475789,1.1331366 c 0.278589,0 0.698539,0.1626089 1.469647,0.4566047 l 1.204048,0.4590078 -0.03219,0.4782335 c -0.02178,0.3196776 -0.0968,0.5362605 -0.226434,0.6551079 -0.192292,0.1762922 -0.197707,0.1749312 -0.673387,-0.2374351 -0.582793,-0.5052228 -0.813603,-0.617137 -1.274337,-0.617137 -0.320901,0 -0.364706,0.030341 -0.454469,0.3215456 -0.05458,0.1770643 -0.233788,0.5127376 -0.398667,0.7454677 -0.448844,0.633504 -0.578551,1.110847 -0.441591,1.624551 0.265702,0.996598 0.266904,0.979712 -0.120727,1.403459 -0.413199,0.451694 -0.441211,0.598255 -0.158823,0.827176 0.250932,0.203381 0.251542,0.288692 0.0027,0.780073 -0.121291,0.23944 -0.200371,0.592417 -0.201747,0.900712 l -0.0027,0.506591 0.88211,0.566671 c 0.901219,0.578283 1.795541,0.993475 2.138205,0.993475 0.279578,0 0.489249,0.227605 0.606853,0.658952 0.05696,0.208872 0.150605,0.510304 0.208723,0.669527 0.08255,0.226169 0.07204,0.348177 -0.04937,0.558499 -0.304315,0.527146 -0.549594,0.447676 -0.813431,-0.263869 -0.347542,-0.93728 -1.699066,-1.486335 -2.310441,-0.938683 -0.246799,0.221061 -0.188601,0.302351 0.178676,0.24897 0.714389,-0.103847 1.243429,0.375612 1.735782,1.573123 0.148066,0.360122 -0.117436,0.329229 -0.07397,0.329229 0.149965,0 1.27804,-0.01696 1.46957,-0.206666 0.10564,-0.104628 0.275966,-0.190332 0.378277,-0.190332 0.321252,0 0.215387,0.398082 -0.255404,0.961753 -0.242659,0.290535 -0.584404,0.784948 -0.76031,1.098735 -0.313071,0.558462 -0.524905,0.673882 -0.599878,0.327313 -0.05498,-0.254154 -0.783718,-1.182487 -0.981911,-1.250616 -0.126335,-0.04343 -0.389101,0.141009 -0.992641,0.696443 -0.825073,0.75931 -1.065274,0.878994 -1.756708,0.873796 -0.461753,-0.0035 -1.072631,-0.321039 -1.800707,-0.936279 -0.388491,-0.328283 -0.758005,-0.597431 -0.820941,-0.597431 -0.185409,0 -0.544497,0.420288 -0.868696,1.015585 -0.387067,0.710736 -0.461714,0.732431 -0.903573,0.265792 -0.160777,-0.169796 -0.172076,-0.222533 -0.06009,-0.284537 0.108244,-0.05992 0.06017,-0.171261 -0.22643,-0.521011 -0.200451,-0.244607 -0.415114,-0.562931 -0.476468,-0.707496 -0.136463,-0.32151 -0.04124,-0.851688 0.152921,-0.851688 0.07761,0 1.228194,-0.09927 1.459727,0.13594 0.231535,0.235215 -0.283988,0.767176 -0.232607,0.767176 0.05138,0 0.884125,-0.551918 0.972303,-0.81133 0.205778,-0.605386 0.148131,-1.140904 0.714651,-1.608675 0.416932,-0.344257 0.434004,-0.376388 0.270428,-0.508994 -0.496232,-0.402271 -1.174438,0.03496 -1.855435,1.195824 -0.325311,0.554553 -0.408105,0.637433 -0.560709,0.564267 -0.294197,-0.141035 -0.442379,-0.352997 -0.3654,-0.523413 0.03955,-0.08755 0.152035,-0.454699 0.250039,-0.816121 0.214979,-0.792794 0.409996,-1.013662 0.894988,-1.013662 0.4347,0 1.470395,-0.529433 2.158593,-1.103542 0.433039,-0.361243 0.478381,-0.437522 0.477006,-0.799298 -0.002,-0.499065 -0.05672,-0.57277 -0.531199,-0.711342 -0.468678,-0.136874 -0.724966,-0.454744 -0.632607,-0.784399 0.03673,-0.131132 0.240594,-0.425757 0.452858,-0.655107 0.212264,-0.229352 0.438792,-0.509961 0.503833,-0.623386 0.10696,-0.18653 0.09035,-0.21453 -0.173847,-0.297034 -0.160654,-0.05016 -0.401003,-0.22187 -0.534416,-0.381144 -0.215346,-0.257099 -0.24327,-0.386054 -0.247892,-1.14776 -0.0042,-0.702149 -0.0451,-0.926574 -0.22643,-1.2376393 l -0.221601,-0.3801833 0.3874,-0.3648031 c 0.459046,-0.4322597 0.662797,-0.4572708 0.866012,-0.1052592 0.08256,0.143011 0.36717,0.4782036 0.632609,0.7449864 l 0.482906,0.4854425 -0.0048,1.399613 c -0.0032,0.935149 -0.04595,1.467178 -0.129311,1.602923 -0.0891,0.145115 -0.09492,0.253031 -0.02039,0.377781 0.14375,0.240617 0.132753,1.389319 -0.01449,1.521215 -0.09093,0.08145 -0.07535,0.149288 0.0676,0.290785 0.181847,0.179994 0.181469,0.190998 -0.03219,0.449875 -0.271229,0.328624 -0.270985,0.353518 0.007,0.866108 l 0.225893,0.41623 -0.275256,0.441224 c -0.303806,0.487427 -0.277211,0.709061 0.12341,1.032408 l 0.222673,0.179758 0.242526,-0.252815 c 0.292396,-0.304494 0.307342,-0.659367 0.04078,-0.964637 -0.255068,-0.292169 -0.252722,-0.584989 0.007,-0.911768 0.219231,-0.275794 0.19802,-0.524424 -0.06116,-0.717109 -0.208891,-0.155293 -0.18261,-0.427474 0.0542,-0.559942 0.244681,-0.13688 0.261125,-0.24993 0.03595,-0.24993 -0.145178,0 -0.1582,-0.08581 -0.10195,-0.682024 0.0354,-0.375011 0.104508,-0.750896 0.153458,-0.835346 0.04897,-0.08445 0.05257,-0.234698 0.008,-0.334043 -0.136973,-0.30519 -0.109765,-3.134722 0.03219,-3.346671 0.06848,-0.102263 0.252991,-0.3667368 0.409397,-0.5873385 0.15646,-0.2206007 0.458523,-0.6653202 0.671777,-0.9881886 0.241104,-0.3650307 0.3735,-0.5479447 0.651388,-0.5613834 0.01736,-8.396e-4 0.03544,-4.806e-4 0.05366,-4.806e-4 z m 3.494636,1.8264184 c 0.06632,0 0.221143,0.1459753 0.343938,0.3239487 0.206458,0.299244 0.215031,0.368412 0.115364,0.925226 -0.05922,0.331164 -0.08191,0.957775 -0.0499,1.392404 0.05987,0.813005 0.0031,0.93369 -0.309061,0.654147 -0.0835,-0.07481 -0.181799,-0.220211 -0.218381,-0.323469 -0.09653,-0.272439 -0.44197,-0.171148 -1.408479,0.413347 -0.443616,0.268274 -0.926711,0.513418 -1.073126,0.545042 -0.146417,0.03161 -0.392751,0.176548 -0.547831,0.321546 -0.344896,0.322469 -0.37831,0.323613 -0.640121,0.02548 -0.335496,-0.38206 -0.26663,-0.573163 0.410472,-1.135262 l 0.620803,-0.514763 -0.06814,-0.943489 c -0.0718,-0.994695 0.03261,-1.4449108 0.323011,-1.393846 0.08164,0.01436 0.210913,0.18834 0.287598,0.386913 0.207478,0.537268 0.33934,0.620833 0.871379,0.549367 0.524891,-0.0705 0.621503,-0.153455 0.714165,-0.614254 0.06464,-0.321487 0.363048,-0.6123304 0.628315,-0.6123304 z M 16.40769,10.33326 c 0.07707,0.0025 0.145272,0.03486 0.199601,0.101418 0.0737,0.09029 0.141335,0.32901 0.150774,0.530623 0.0094,0.201612 0.02735,0.42727 0.03971,0.501784 0.01235,0.0745 0.02736,0.237236 0.03327,0.361439 0.0061,0.12772 0.185597,0.397464 0.41369,0.620983 0.221804,0.217361 0.403495,0.432378 0.403495,0.477752 0,0.22567 -0.448654,0.825307 -0.734555,0.981459 -0.177979,0.09722 -0.393582,0.176692 -0.478615,0.176875 -0.20642,4.49e-4 -1.611707,-1.237177 -1.565154,-1.378466 0.0201,-0.06101 0.09346,-0.314465 0.163115,-0.562825 0.273543,-0.975394 0.958482,-1.82505 1.374676,-1.811039 z m 8.681056,1.133822 c 0,-0.17633 -0.987813,0.661506 -0.987813,0.830059 0,0.04686 0.07949,0.06464 0.17653,0.03942 0.09705,-0.02523 0.366706,-0.08977 0.599877,-0.143711 0.858426,-0.198581 0.211406,0.01623 0.211406,-0.725761 z m -1.464282,3.380798 c 0,0.101274 0.233536,0.01944 0.34662,0.06777 0.361371,0.154441 0.426518,0.530666 0.136286,0.790647 -0.51498,0.461301 -1.450952,0.02508 -1.109612,-0.517166 0.134781,-0.214116 0.626706,-0.587763 0.626706,-0.34125 z m -7.766753,0.146594 c 0.153954,9.43e-4 0.306649,0.03869 0.424421,0.115833 0.147051,0.09632 0.170431,0.188397 0.115365,0.451317 -0.05077,0.242379 -0.130276,0.410726 -0.370229,0.470063 -0.295366,0.07303 -0.457233,0.08737 -0.718458,-0.09661 -0.172534,-0.273939 -0.255316,-0.51772 0.02092,-0.765172 0.115918,-0.103836 0.286416,-0.162526 0.461981,-0.173511 0.02195,-0.0014 0.044,-0.002 0.066,-0.0019 z m 8.833977,0.09564 c 0.03195,0.02862 0.114374,0.03136 0.218381,0.08123 0.105628,0.05063 0.166963,0.148751 0.136823,0.219171 -0.03966,0.09257 0.0028,0.114471 0.155067,0.07882 0.504608,-0.118203 7.71e-4,0.502956 -0.629388,0.776229 -0.513582,0.222709 -1.348766,0.251553 -1.637054,0.05624 -0.112641,-0.07632 -0.42024,-0.133866 -0.724897,-0.135539 -0.291123,-0.0016 -0.529589,-0.04358 -0.529589,-0.09325 0,-0.04968 0.09409,-0.09036 0.208724,-0.09036 0.16075,0 0.194032,-0.04019 0.145945,-0.175912 -0.04025,-0.113628 0.01084,-0.241846 0.144336,-0.361439 0.282536,-0.253102 0.509198,-0.237818 0.509198,0.03413 0,0.572974 1.171804,0.817287 1.65959,0.346058 0.145717,-0.140768 0.255941,-0.354678 0.255941,-0.496498 0,-0.172579 0.03262,-0.287519 0.08692,-0.238876 z m -1.06937,0.09084 c -0.01087,-0.0049 -0.02448,-4.95e-4 -0.03648,4.8e-4 -0.168199,0.01344 -0.305878,0.165914 -0.225356,0.282615 0.0293,0.04251 0.15143,0.06476 0.270965,0.04951 0.267263,-0.03412 0.287948,-0.283324 0.02736,-0.328275 -0.01238,-0.0021 -0.0256,5.43e-4 -0.03648,-0.0043 z m -7.850457,0.12833 c -0.01551,-2.79e-4 -0.03032,-1.6e-5 -0.04453,9.61e-4 -0.198894,0.01401 -0.265229,0.257952 -0.111604,0.395565 0.123161,0.110324 0.480214,0.02746 0.47003,-0.174472 -0.0083,-0.163554 -0.100547,-0.202162 -0.265598,-0.21917 -0.01676,-0.0017 -0.03278,-0.0026 -0.04829,-0.0029 z m -1.024299,0.0072 c -0.06233,0 0.08419,0.08055 0.121263,0.257621 0.135291,0.645988 1.107881,0.920532 1.624177,0.458046 0.136108,-0.121922 0.200765,-0.252466 0.20765,-0.329236 0.03402,-0.376751 0.08647,-0.408588 0.417983,-0.314336 0.124636,0.03544 0.253582,0.160726 0.286525,0.278288 0.0402,0.143444 0.109788,0.196605 0.211942,0.161495 0.107891,-0.03708 0.141926,-0.0037 0.116437,0.114872 -0.01978,0.092 -0.126548,0.189286 -0.237162,0.216287 -0.110614,0.02702 -0.327045,0.12598 -0.481296,0.21965 -0.376661,0.228731 -1.492925,0.28668 -2.038941,0.10574 -0.809568,-0.268276 -1.003888,-0.828371 -0.388471,-1.118441 0.07399,-0.03489 0.196566,-0.04999 0.159895,-0.04999 z m 11.807074,0.948776 c 0.151833,-0.0016 0.158728,0.403277 0.0048,0.840634 -0.144674,0.41112 -0.154241,0.555647 -0.05633,0.848323 0.173885,0.519896 0.149419,0.669647 -0.182432,1.108348 -0.165349,0.218579 -0.301002,0.468688 -0.302084,0.555616 -0.0037,0.311397 -0.29061,0.149212 -0.597196,-0.337408 -0.171651,-0.272441 -0.31228,-0.524092 -0.31228,-0.55946 0,-0.117058 1.329036,-2.422194 1.412771,-2.450285 0.01143,-0.0038 0.02261,-0.0057 0.03273,-0.0058 z m -13.586854,0.295111 c 0.07162,-0.256608 1.415288,1.166721 1.491109,1.506315 0.107054,0.47953 0.06883,1.469483 -0.066,1.708182 -0.209219,0.370418 -0.430118,0.322206 -1.100491,-0.240799 -0.847031,-0.71136 -0.980659,-0.856001 -0.984594,-1.071338 -0.0047,-0.255585 0.494349,-1.782087 0.618657,-1.892747 0.0094,-0.0084 0.03703,0.0058 0.04131,-0.0096 z m 5.230417,2.783366 -0.300474,0.225418 c -0.165057,0.123967 -0.404533,0.304673 -0.532808,0.401332 -0.363283,0.27376 0.308312,0.231907 0.766381,0.380112 0.486403,0.157368 0.54663,0.774047 1.163637,1.383344 0.26783,0.264483 0.517118,0.47964 0.55427,0.478233 0.03715,-0.0012 0.287996,-0.204163 0.557489,-0.450357 0.443415,-0.405078 1.656687,-1.192387 2.040014,-1.324153 0.09499,-0.03266 0.141392,-0.140892 0.122336,-0.28598 -0.0255,-0.194258 -0.136501,-0.270762 -0.656216,-0.452758 l -0.624561,-0.21869 -0.257013,0.273482 c -0.330002,0.351307 -0.999619,0.594919 -1.433697,0.521971 -0.193444,-0.03251 -0.548432,-0.235374 -0.863867,-0.493613 z m -0.817185,3.776361 c 0.09995,-0.001 0.166871,0.05436 0.166871,0.172548 0,0.09641 -0.052,0.204271 -0.115364,0.239357 -0.154889,0.08575 0.259578,0.275093 0.884256,0.403735 0.644521,0.132736 2.476903,0.126215 3.258549,-0.01154 l 0.618657,-0.109103 -0.206041,-0.196581 c -0.113348,-0.108072 -0.206039,-0.244866 -0.206039,-0.303763 0,-0.172976 0.447316,-0.122472 0.6868,0.07739 0.288309,0.240612 0.281675,0.517454 -0.01556,0.638766 -0.210069,0.08575 -0.231363,0.1434 -0.191017,0.519568 0.04133,0.385161 0.0097,0.463811 -0.352522,0.874278 -0.698836,0.791946 -0.783748,1.064373 -0.421201,1.358279 0.158072,0.128132 0.198541,0.242279 0.159895,0.455643 -0.06767,0.373533 -0.468657,0.91384 -0.723287,0.975211 -0.225259,0.05429 -2.105308,0.04736 -2.420437,-0.0091 -0.282143,-0.05057 -0.661535,-0.580741 -0.726506,-1.014625 -0.04541,-0.303242 -8.1e-4,-0.438298 0.268818,-0.814677 0.40429,-0.564368 0.359874,-0.712177 -0.355742,-1.185731 -0.398927,-0.263988 -0.546758,-0.420936 -0.546758,-0.579648 0,-0.119679 0.04756,-0.244177 0.105699,-0.276366 0.139534,-0.07725 -0.07156,-0.305826 -0.378814,-0.410463 -0.295474,-0.100626 -0.290572,-0.186903 0.03005,-0.528219 0.167742,-0.178572 0.351189,-0.273529 0.479687,-0.274925 z m 1.419747,0.373455 c 0.01025,-3.55e-4 0.02109,4.41e-4 0.03219,0.0024 0.09705,0.01674 0.175992,0.107822 0.175992,0.202346 0,0.179734 -0.16419,0.280209 -0.283305,0.173511 -0.139041,-0.124547 -0.07911,-0.372922 0.07512,-0.378261 z m -0.648169,0.07546 c 0.05546,0 0.100336,0.04068 0.100336,0.09036 0,0.04968 -0.04488,0.09036 -0.100336,0.09036 -0.05546,0 -0.100877,-0.04067 -0.100877,-0.09036 0,-0.04968 0.04542,-0.09036 0.100877,-0.09036 z m 1.512035,0 c 0.110908,0 0.201747,0.05867 0.201747,0.130252 0,0.157054 -0.106841,0.221108 -0.277402,0.1663 -0.203396,-0.06535 -0.150374,-0.296552 0.07565,-0.296552 z m 1.058639,0 c 0.08318,0 0.151311,0.06153 0.151311,0.136019 0,0.07451 -0.06814,0.13506 -0.151311,0.13506 -0.08317,0 -0.150774,-0.06056 -0.150774,-0.13506 0,-0.0745 0.0676,-0.136019 0.150774,-0.136019 z m 0.756018,0 c 0.05547,0 0.101407,0.04068 0.101407,0.09036 0,0.04968 -0.04596,0.09036 -0.101407,0.09036 -0.05547,0 -0.100335,-0.04067 -0.100335,-0.09036 0,-0.04968 0.04489,-0.09036 0.100335,-0.09036 z m -3.172699,0.746909 c -0.227581,-0.0093 -0.456614,0.116117 -0.456614,0.269637 0,0.05023 0.124375,0.187723 0.276866,0.305204 0.401614,0.309401 0.529588,0.274327 0.529588,-0.145633 0,-0.308672 -0.03574,-0.367807 -0.253258,-0.416712 -0.03179,-0.0072 -0.06406,-0.01116 -0.09659,-0.0125 z m 3.223136,0.06585 c 0,-0.22513 -0.352522,0.152493 -0.352522,0.556096 0,0.332687 0.237762,0.324007 0.52315,-0.01874 0.232188,-0.27886 -0.170628,-0.208198 -0.170628,-0.537351 z m -1.71271,0.155726 c -0.459926,-0.0024 -0.778862,0.06159 -0.828453,0.177355 -0.03113,0.07267 0.04615,0.329374 0.172236,0.570516 l 0.22965,0.438821 -0.367009,0.383547 c -0.384103,0.401968 -0.482525,0.78633 -0.314963,1.231872 0.06866,0.182597 0.186627,0.134051 0.603633,-0.24849 0.21659,-0.198687 0.439767,-0.360959 0.496321,-0.360959 0.05656,0 0.26891,0.17244 0.472176,0.38355 0.367354,0.381526 0.371082,0.382974 0.582708,0.211962 0.294532,-0.238013 0.268305,-0.424543 -0.140044,-0.996361 -0.420389,-0.588678 -0.437396,-0.792542 -0.09605,-1.155931 0.374797,-0.398996 0.295489,-0.556742 -0.307987,-0.610889 -0.179696,-0.01611 -0.348916,-0.02419 -0.502223,-0.02499 z m -3.877487,5.784198 -0.0874,0.344585 c -0.131329,0.519353 -0.338651,0.749578 -0.655484,1.476203 -0.341828,0.783952 -0.347838,0.982364 -0.06646,1.962357 0.115789,0.585941 0.256044,0.850682 0.423334,1.118418 h 3.709857 1.160752 3.709858 c 0.167289,-0.267736 0.308,-0.532477 0.423788,-1.118418 0.281381,-0.979993 0.274911,-1.178405 -0.06691,-1.962357 -0.316833,-0.726625 -0.524155,-0.95685 -0.655484,-1.476203 l -0.0874,-0.344585 -0.185265,0.169335 -0.990509,0.690534 c -0.07959,0.01385 -0.341032,0.128817 -0.623165,0.278125 -0.558003,0.295286 -1.04914,0.478945 -1.524911,0.55534 v -0.02595 c -0.196651,0.0398 -0.389028,0.06079 -0.580376,0.06555 -0.191347,-0.0048 -0.383725,-0.02575 -0.580376,-0.06555 v 0.02595 c -0.475771,-0.0764 -0.966909,-0.260054 -1.524911,-0.55534 -0.282132,-0.149308 -0.54358,-0.264277 -0.623165,-0.278125 L 16.124788,30.49101 Z" />
</svg>
