<?xml version="1.0" encoding="UTF-8" standalone="no"?>
<!-- Created with Inkscape (http://www.inkscape.org/) -->

<svg
  width="150"
  height="150"
  viewBox="0 0 39.6875 39.6875"
  version="1.1"
  id="svg1168"
  xmlns="http://www.w3.org/2000/svg"
>
  <path
     id="path1715"
     style="stroke-width:1.93946;stroke-linejoin:round;stroke-dasharray:0.193946, 0.193946"
     d="M 19.721287,2.0238564 C 14.888285,2.0383904 11.239363,2.9959509 9.6483361,4.6912824 8.6200351,5.7869969 8.3206355,6.6238802 7.7260351,10.071392 7.6415931,10.56099 7.5567453,11.011229 7.4745495,11.4282 11.510176,10.860548 15.735495,10.558966 20.088017,10.558966 c 4.126172,0 8.136598,0.272575 11.980789,0.784317 C 31.950788,10.712791 31.831535,10.023182 31.751997,9.4480443 31.269731,5.9606827 30.403895,4.5195731 28.108025,3.3848643 26.428712,2.554886 24.18523,2.1330223 20.957719,2.0401867 c -0.340311,-0.00975 -0.675631,-0.015291 -1.005476,-0.016331 -0.07731,-2.452e-4 -0.154242,-2.307e-4 -0.230956,7e-7 z m 0.36673,9.9880326 c -4.486644,0 -8.833797,0.328631 -12.9685332,0.939688 l 0.1945629,0.03312 -1.3232148,7.828243 4.5295381,5.850888 -0.133908,0.103113 1.195839,-0.543097 c 0.617948,-0.280868 1.422982,-0.850751 1.839251,-1.166444 0.416269,-0.315693 1.58169,-1.449157 2.589974,-2.519054 1.701179,-1.805157 2.700344,-2.582279 3.677101,-2.640831 0.443979,-0.02661 0.883548,0.09511 1.382003,0.336403 0.397,0.192181 1.723678,1.3619 3.140069,2.768673 1.965057,1.951719 2.686053,2.556737 3.629043,3.043487 0.429996,0.221953 0.759031,0.381626 0.989147,0.487575 l 4.508074,-5.823356 -1.047,-7.868836 C 28.385551,12.30102 24.298458,12.011889 20.088017,12.011889 Z m 12.636331,1.109523 0.961616,7.284681 0.645743,-0.478243 c -0.0104,-0.04508 -0.01448,-0.09242 -0.01493,-0.145572 -0.0049,-0.577089 0.312918,-1.870432 0.556629,-2.264769 0.307821,-0.498027 0.292033,-0.924385 -0.04946,-1.330214 -0.154527,-0.183646 -0.329839,-0.523041 -0.389592,-0.754457 -0.05971,-0.231413 -0.201476,-0.778627 -0.315406,-1.215901 l -0.207162,-0.795049 -0.701733,-0.170301 c -0.181984,-0.04422 -0.351353,-0.09021 -0.485705,-0.130175 z m -25.8437521,0.06159 c -0.096118,0.05754 -0.2061895,0.103612 -0.3079414,0.124109 -0.6350526,0.127935 -0.7103949,0.161957 -0.8543042,0.392392 -0.076817,0.123003 -0.2431535,0.697994 -0.3695296,1.277024 -0.1726522,0.791064 -0.2998607,1.117863 -0.5127693,1.315283 -0.3775057,0.350043 -0.4187937,0.929746 -0.091916,1.296154 0.2870723,0.321791 0.4795455,1.022998 0.4847745,1.76553 0.00303,0.428903 -0.00742,0.609021 -0.1101125,0.767988 l 0.5235003,0.38726 z m 10.7588201,0.663004 c 0.986266,0.008 1.052963,0.181354 0.994278,0.582756 -0.03411,0.233466 -0.551615,0.61756 -1.696011,1.25836 -0.905781,0.50719 -2.496344,1.455553 -3.534794,2.107533 -1.038457,0.65198 -2.027859,1.185108 -2.198515,1.185108 -0.170653,0 -0.524373,-0.228801 -0.785718,-0.50857 C 10.130609,18.16283 9.8074723,17.504558 9.5974791,16.799445 9.100017,15.129066 9.0271228,14.556071 9.2998024,14.455358 c 0.1248183,-0.0461 2.1908036,-0.226173 4.5911276,-0.400324 1.716563,-0.124539 2.826626,-0.199712 3.538526,-0.208561 0.07416,-9.2e-4 0.14421,-9.52e-4 0.20996,-4.66e-4 z m 4.408228,0 c 0.06574,-5.31e-4 0.135802,-4.54e-4 0.20996,4.66e-4 0.7119,0.0089 1.822429,0.08402 3.538994,0.208561 2.400322,0.174151 4.466308,0.354224 4.591128,0.400324 0.272677,0.100713 0.199786,0.673708 -0.297679,2.344087 -0.209992,0.705113 -0.533596,1.363385 -0.821643,1.671749 -0.261346,0.279769 -0.614596,0.50857 -0.78525,0.50857 -0.170655,0 -1.160057,-0.533128 -2.198515,-1.185108 -1.038457,-0.65198 -2.629011,-1.600343 -3.534795,-2.107533 -1.144397,-0.6408 -1.661902,-1.024894 -1.696011,-1.25836 -0.05869,-0.401402 0.0076,-0.574782 0.993811,-0.582756 z M 9.4729029,14.746502 c -0.064186,0.0088 -0.093208,0.175952 -0.063455,0.528167 0.1002133,1.187298 1.0865921,3.375691 1.5215111,3.375691 0.08066,0 -0.03847,-0.36774 -0.26455,-0.817912 -0.226102,-0.45017 -0.538775,-1.321242 -0.6947345,-1.935365 -0.1879773,-0.740207 -0.391774,-1.165216 -0.4987716,-1.150581 z m 20.7309911,0 c -0.109377,0.01232 -0.305939,0.433506 -0.488041,1.150581 -0.155961,0.614123 -0.4691,1.485195 -0.695202,1.935365 -0.226088,0.450172 -0.344747,0.817912 -0.264084,0.817912 0.43492,0 1.421298,-2.188393 1.521511,-3.375691 0.02976,-0.352215 2.66e-4,-0.519381 -0.06392,-0.528167 -0.0033,-4.57e-4 -0.0068,-3.97e-4 -0.01026,0 z m 4.309779,5.466894 -0.855238,0.632213 -4.505275,5.821958 c 1.608243,0.404053 2.596763,1.006973 3.231052,2.013286 0.0016,0.0026 0.0034,0.005 0.0051,0.0074 0.321298,0.821782 0.565083,1.659736 0.60002,2.477528 0.08629,-0.407148 0.182069,-0.760738 0.242154,-0.875299 0.0826,-0.157482 0.876701,-1.257513 1.764131,-2.444402 1.850832,-2.475382 2.06898,-2.881037 2.070206,-3.853934 0.002,-1.284713 -0.686014,-2.457568 -1.948896,-3.322967 -0.295482,-0.202484 -0.483741,-0.340682 -0.603285,-0.455847 z M 4.8869085,20.370633 c -0.0079,0.0071 -0.013666,0.01313 -0.021929,0.02053 -1.9847941,1.778377 -2.2433066,2.179478 -2.2433066,3.482071 0,1.099 0.225278,1.679543 1.0367361,2.674425 0.8167989,1.001429 2.3793226,3.194356 2.6370983,3.700897 0.074158,0.145723 0.2068909,0.563933 0.3331369,1.033935 0.021806,-0.420237 0.1158752,-0.922262 0.4381165,-1.723538 l 0.3308036,-1.04047 C 8.113691,27.600709 8.3023047,27.484815 9.3809869,27.056229 9.8909371,26.898049 9.928334,26.878484 10.207296,26.811741 L 5.6693597,20.948723 Z M 19.84353,21.549675 c -0.916701,0.0025 -2.095991,0.648599 -3.803077,2.08467 -2.549822,2.145047 -3.672198,2.792344 -6.1009722,3.515666 -1.7741408,0.52835 -2.5680795,1.408447 -2.9725681,3.294505 -0.1042449,0.486068 -0.2134783,1.048646 -0.1297087,1.66195 h -9.331e-4 c 0.3533532,1.409009 0.726875,2.325982 1.2956868,3.181595 0.794148,1.194571 1.691871,1.876936 2.8969823,2.200849 h 4.67e-4 c 0.383065,0.102879 1.174864,0.169896 2.061341,0.1745 2.247361,0.01166 3.517831,-0.222565 4.466551,-0.871568 -0.0043,-0.03203 0.04208,-0.08975 0.171233,-0.177766 0.481054,-0.481058 0.494682,-0.532837 0.329405,-1.255094 -0.120318,-0.525703 -0.120231,-0.785773 4.66e-4,-0.860371 0.101931,-0.06299 0.04653,-0.150695 -0.134374,-0.214158 -0.205231,-0.07199 -0.405735,-0.458765 -0.605619,-1.165978 -0.36842,-1.303492 -0.369747,-1.248354 0.02893,-1.35261 0.269064,-0.07036 0.329404,-0.224628 0.329404,-0.842639 0,-0.642895 0.04856,-0.756323 0.324271,-0.756323 0.270777,0 0.318601,-0.100714 0.288345,-0.607951 -0.02988,-0.50146 0.03545,-0.64447 0.375129,-0.818378 0.366396,-0.187591 0.454973,-0.167895 0.803914,0.180098 l 0.392391,0.390993 0.380262,-0.437185 c 0.20523,-0.235679 0.306086,-0.341081 0.433918,-0.344332 0.09942,-0.0026 0.215186,0.05646 0.409188,0.164235 0.438743,0.243725 0.526502,0.519187 0.362997,1.143117 -0.04164,0.158805 0.05235,0.246819 0.264084,0.246819 0.272773,0 0.338554,0.127764 0.382127,0.74139 0.03012,0.424421 0.153419,0.796995 0.288345,0.872503 0.30138,0.168648 0.296572,0.453586 -0.02753,1.60876 -0.232232,0.827665 -0.305115,0.926882 -0.617749,0.846372 -0.298574,-0.07688 -0.322423,-0.05249 -0.152571,0.154905 0.131974,0.161149 0.167782,0.530292 0.104047,1.068464 -0.09169,0.774166 -0.136464,0.58065 0.09005,0.914492 0.215938,0.142181 0.341281,0.291086 0.386793,0.397057 0.854445,0.528745 1.627473,0.739308 3.022959,0.886499 1.38013,0.145566 2.982429,-0.0046 3.963111,-0.371397 1.691007,-0.632687 3.104502,-2.620908 3.653306,-5.090364 h -0.01306 c 0.08876,-0.626789 0.0054,-1.22959 -0.09565,-1.753867 -0.102714,-0.527285 -0.21392,-1.039291 -0.516503,-1.591032 -0.485575,-0.815106 -0.975436,-1.205848 -2.765873,-1.797256 -2.492993,-0.823491 -3.703999,-1.530455 -5.879348,-3.433548 -1.348721,-1.179914 -2.851953,-1.989879 -3.690165,-1.987622 z m 7.671941,9.696888 c 1.149433,0 2.040358,0.601814 2.369748,1.599897 0.49744,1.507242 -0.66368,2.975504 -2.767272,3.499335 -0.783906,0.195205 -2.369605,0.06156 -3.197459,-0.269683 -0.349533,-0.139854 -0.822335,-0.476488 -1.050734,-0.747925 -0.450511,-0.535373 -0.444291,-1.095086 0.02519,-2.247972 0.188979,-0.464052 0.292948,-0.541834 0.637812,-0.475909 0.226637,0.04332 0.412455,0.06287 0.412455,0.0434 l 0.616816,-0.08352 c 0.136002,0 0.691068,-0.296497 1.233632,-0.658811 0.781949,-0.522163 1.138661,-0.658807 1.719806,-0.658807 z m -15.47359,0.0196 c 0.581143,0 0.937857,0.136643 1.719807,0.658809 0.542564,0.362312 1.097629,0.658807 1.233631,0.658807 l 0.616816,0.08352 c 0,0.01946 0.185818,-7.1e-5 0.412455,-0.04339 0.344865,-0.06592 0.448831,0.01185 0.637812,0.475908 0.469488,1.152887 0.475707,1.7126 0.02519,2.247973 -0.228398,0.271435 -0.7012,0.608071 -1.050733,0.747925 -0.827854,0.331247 -2.413555,0.46489 -3.197459,0.269683 C 10.33581,35.841564 9.1746909,34.373304 9.6721285,32.86606 10.001519,31.86798 10.892443,31.266164 12.041878,31.266164 Z" />
</svg>
