<?xml version="1.0" encoding="UTF-8" standalone="no"?>
<!***REMOVED***Created with Inkscape (http://www.inkscape.org/) -->

<svg
  width="150"
  height="150"
  viewBox="0 0 39.6875 39.6875"
  version="1.1"
  id="svg1168"
  xmlns="http://www.w3.org/2000/svg"
>
  <defs
    id="defs1165"/>
  <g
    id="layer1"/>
  <path
    style="stroke-width:0.180856"
    d="m 15.55082,32.434847 c -1.043019,-0.438768 -1.704367,-1.392227 -1.704367,-2.457179 0,-0.491857 0.123266,-0.887257 0.52155,-1.672963 0.640206,-1.262956 1.96525,-3.121756 2.225345,-3.121756 0.25999,0 1.571548,1.850964 2.238182,3.158687 0.491959,0.965061 0.537536,1.135508 0.482171,1.803142 -0.07496,0.903913 -0.583169,1.692429 -1.344249,2.085677 -0.58978,0.304735 -1.914047,0.416643 -2.418632,0.204381 z m 5.575581,-5.022807 c -1.054971,-0.376148 -1.544524,-1.248767 -1.270822,-2.265221 0.205371,-0.762692 1.672284,-2.933085 1.94668,-2.880242 0.262666,0.05058 1.501248,1.882764 1.797916,2.659577 0.278552,0.729382 0.168741,1.362638 -0.335971,1.937471 -0.208825,0.237841 -0.610068,0.501459 -0.891654,0.585825 -0.620718,0.185971 -0.61955,0.186005 -1.246149,-0.03742 z m 9.477018,-7.121268 c -1.153639,-0.259375 -2.280101,-0.7033 -3.275624,-1.290887 L 26.4033,18.454212 27.069088,17.852714 c 0.441845,-0.39918 1.321012,-1.813701 2.613769,-4.205381 l 1.947979,-3.603881 1.00852,-0.2025391 c 0.554686,-0.1113976 1.511591,-0.2025407 2.126457,-0.2025407 h 1.117933 l 0.343968,0.7634218 c 0.46033,1.021687 0.424391,2.23356 -0.0929,3.132425 -0.226626,0.393794 -1.03407,1.205683 -1.794322,1.804201 -1.800478,1.41744 -2.292604,2.266007 -2.27952,3.930551 0.01073,1.365046 0.02492,1.3551 -1.457556,1.021801 z m -20.25591,-2.201461 c -1.4945956,-0.611471 -1.5325218,-0.293298 0.472938,-3.967636 0.989677,-1.813252 1.973073,-3.481674 2.185325,-3.707606 1.051829,-1.1196203 2.918904,-1.432411 4.497249,-0.7534255 0.490928,0.2111915 0.892595,0.4087635 0.892595,0.4390495 0,0.03029 -0.863723,1.649917 -1.919382,3.599181 -1.774409,3.276426 -1.981738,3.580661 -2.744942,4.02793 -0.946524,0.554695 -2.505739,0.721741 -3.383783,0.362507 z m 5.742189,-0.126675 c -0.422753,-0.191893 -0.76864,-0.442716 -0.76864,-0.557382 0,-0.502923 3.486243,-6.627158 4.069655,-7.149103 0.692126,-0.6192056 1.685234,-0.9794907 2.699914,-0.9794907 0.718859,0 2.454105,0.6604146 2.454105,0.9340047 0,0.249917 -3.222357,6.124721 -3.71836,6.779092 -0.950744,1.254291 -3.130426,1.701983 -4.736674,0.972879 z m 6.149115,0 c -0.858202,-0.389556 -0.914868,-0.550074 -0.438785,-1.242949 0.18142,-0.264029 1.041207,-1.802212 1.910636,-3.418174 1.440588,-2.677545 1.654242,-2.981167 2.409126,-3.4235587 1.156128,-0.6775351 2.420191,-0.7598955 3.635929,-0.2368994 0.515971,0.2219646 0.93813,0.4886071 0.93813,0.5925381 0,0.30318 -3.429417,6.508131 -3.84337,6.95393 -1.022697,1.101372 -3.117307,1.453429 -4.611666,0.775113 z M 3.4625491,17.11132 C 3.0037486,15.943657 3.032978,14.749917 3.5404754,13.92877 3.7615899,13.571 4.5127263,12.855554 5.2096672,12.33889 7.2275583,10.842965 7.873965,9.6858778 7.6471134,7.9757858 7.5399223,7.1677361 7.5607097,7.0860712 7.8525431,7.168765 8.0311223,7.2193729 8.5434668,7.3171263 8.9910858,7.3860084 10.034477,7.5465706 11.565931,8.1170233 12.551069,8.7120692 L 13.32389,9.178869 12.700876,9.8168915 C 12.358219,10.167804 11.229412,12.00062 10.192415,13.889816 l -1.8854482,3.434902 -0.9099281,0.203507 c -0.50046,0.111932 -1.5133856,0.260064 -2.2509459,0.329178 l -1.3410181,0.125665 z"
    id="path1064"/>
</svg>
