<?xml version="1.0" encoding="UTF-8" standalone="no"?>
<svg
   width="150"
   height="150"
   viewBox="0 0 39.6875 39.6875"
   version="1.1"
   id="svg1168"
   xml:space="preserve"
   xmlns="http://www.w3.org/2000/svg"
   xmlns:svg="http://www.w3.org/2000/svg"><defs
     id="defs1165" /><g
     id="layer1" /><path
     id="rect1"
     style="stroke-width:0.236838"
     d="m 19.318936,2.0917882 c -3.2781,-0.022874 -5.935552,2.5977473 -5.958426,5.8758476 L 13.195351,31.636185 c -0.02288,3.278101 2.597747,5.935553 5.875848,5.958427 l 0.15738,0.0011 c 3.278101,0.02288 5.935552,-2.597747 5.958427,-5.875847 L 25.352165,8.0513128 C 25.375034,4.7732134 22.754417,2.115761 19.476317,2.0928864 Z m 0.177617,4.2414087 a 1.7559156,1.7559156 0 0 1 1.743611,1.7681169 1.7559156,1.7559156 0 0 1 -1.768117,1.743613 1.7559156,1.7559156 0 0 1 -1.743612,-1.768118 1.7559156,1.7559156 0 0 1 1.768118,-1.7436119 z m -7.32409,0.9267491 c -0.02161,-1.535e-4 -1.566919,1.9217598 -3.7000015,4.601768 -0.3894887,0.489353 -1.2131021,1.554335 -1.8302023,2.366213 -1.0173018,1.338401 -1.171458,1.579179 -1.6510408,2.582592 -0.2909164,0.608675 -0.6950647,1.449942 -0.8982361,1.869352 -0.7652923,1.579803 -1.2831591,2.770494 -1.2285313,2.825347 0.062799,0.06307 0.8832247,0.21363 1.1021679,0.202332 0.076791,-0.004 0.3003601,-0.02969 0.4967768,-0.05707 1.1163586,-0.155659 2.4178498,-0.849046 3.4834075,-1.85597 0.2643453,-0.249802 1.0131353,-1.093884 1.6642723,-1.876115 0.6511355,-0.78223 1.4864605,-1.781503 1.8561905,-2.220283 l 0.67237,-0.797616 0.02852,-3.820424 c 0.01583,-2.1011522 0.01778,-3.8200334 0.0043,-3.8201275 z m 14.314445,3.265346 -0.04063,5.82215 c 0.209925,0.619279 0.231115,1.127377 0.07543,1.602812 l -0.0885,0.27039 -7.61e-4,0.108957 0.69119,0.842985 0.716128,0.872959 0.481043,-0.07115 c 0.9756,-0.14409 2.758725,0.751979 4.099141,2.05975 1.954967,1.907351 3.111475,4.549144 2.686333,6.135932 l -0.122875,0.4592 0.221193,-0.201475 c 0.969053,-0.882447 1.622449,-2.392035 1.622395,-3.749234 -3e-5,-0.688047 -0.07438,-1.050789 -0.357977,-1.750067 -0.367877,-0.907095 -0.573832,-1.213379 -1.77847,-2.644238 -2.242467,-2.663586 -5.661325,-6.72992 -7.587582,-9.025006 -0.21159,-0.2521 -0.41826,-0.498593 -0.616051,-0.733965 z M 12.09059,19.727038 c -0.0097,0.0019 -0.784886,1.05641 -1.722942,2.343213 -0.9380555,1.286805 -2.5979143,3.557828 -3.6882086,5.047008 -1.0902944,1.48918 -2.0541304,2.848504 -2.1420936,3.020598 -0.2149715,0.420569 -0.4347246,1.153637 -0.5739993,1.914921 -0.1401333,0.765968 -0.2255312,2.448288 -0.1495319,2.94463 l 0.055665,0.364057 0.3153161,-0.211067 c 0.652057,-0.435633 1.0842079,-0.601254 1.9250141,-0.739052 0.4514758,-0.07399 0.8287466,-0.143429 0.8383077,-0.154333 0.00958,-0.01088 -0.021342,-0.255712 -0.068845,-0.543887 -0.047513,-0.288176 -0.09624,-0.633257 -0.1082674,-0.766743 l -0.022053,-0.242756 0.4890295,-0.08134 c 0.2689655,-0.04467 0.5834436,-0.08285 0.6985961,-0.085 0.3703348,-0.0068 0.3797888,-0.03917 0.2507818,-0.838741 -0.064578,-0.400283 -0.097377,-0.750157 -0.074175,-0.781406 0.024311,-0.0264 0.3744008,-0.09816 0.7778058,-0.158945 0.403406,-0.06079 0.740568,-0.116855 0.749162,-0.124688 0.0087,-0.0078 -0.03975,-0.353083 -0.107332,-0.767201 -0.08723,-0.534542 -0.100151,-0.7606 -0.04486,-0.779338 0.04284,-0.01452 0.390652,-0.07321 0.7729527,-0.130575 0.3823,-0.05737 0.700212,-0.111152 0.706752,-0.119395 0.0066,-0.0082 -0.03357,-0.35317 -0.08918,-0.76661 -0.05517,-0.410208 -0.08375,-0.762804 -0.06482,-0.787393 0.01984,-0.01958 0.307728,-0.0699 0.639647,-0.111949 l 0.603081,-0.07635 0.02572,-3.685407 c 0.01415,-2.027012 0.01808,-3.684148 0.0085,-3.682267 z m 14.295774,5.206957 -0.02172,3.113621 1.575514,1.234246 0.210358,1.817951 c 0.11571,0.999978 0.230133,1.833288 0.25436,1.851786 0.02426,0.01847 0.921625,-0.563055 1.994064,-1.292222 2.01802,-1.372084 2.227067,-1.599436 1.923281,-2.092229 -0.0657,-0.106549 -1.770161,-1.453602 -3.787626,-2.993524 z m -7.943296,3.448091 1.798702,0.01255 -0.01106,1.584517 1.584515,0.01106 -0.01255,1.798702 -1.584516,-0.01106 -0.01106,1.584516 -1.798702,-0.01255 0.01106,-1.584515 -1.584515,-0.01106 0.01255,-1.798702 1.584516,0.01106 z" /></svg>
