<?xml version="1.0" encoding="UTF-8" standalone="no"?>
<!***REMOVED***Created with Inkscape (http://www.inkscape.org/) -->

<svg
   width="150"
   height="150"
   viewBox="0 0 39.6875 39.6875"
   version="1.1"
   id="svg1168"
   sodipodi:docname="terminator.svg"
   inkscape:version="1.1.2 (0a00cf5339, 2022-02-04)"
   xmlns:inkscape="http://www.inkscape.org/namespaces/inkscape"
   xmlns:sodipodi="http://sodipodi.sourceforge.net/DTD/sodipodi-0.dtd"
   xmlns="http://www.w3.org/2000/svg"
   xmlns:svg="http://www.w3.org/2000/svg">
  <sodipodi:namedview
     id="namedview6"
     pagecolor="#ffffff"
     bordercolor="#666666"
     borderopacity="1.0"
     inkscape:pageshadow="2"
     inkscape:pageopacity="0.0"
     inkscape:pagecheckerboard="0"
     showgrid="false"
     inkscape:snap-global="false"
     inkscape:zoom="2.0506097"
     inkscape:cx="-5.1204284"
     inkscape:cy="145.56646"
     inkscape:window-width="1846"
     inkscape:window-height="1016"
     inkscape:window-x="74"
     inkscape:window-y="27"
     inkscape:window-maximized="1"
     inkscape:current-layer="svg1168" />
  <defs
     id="defs1165" />
  <path
     id="path5121"
     style="stroke-width:0.224011"
     d="m 24.473624,2.3841126 c -4.096712,0 -7.698813,1.6997035 -9.843273,4.643704 -0.880632,1.2089727 -1.393583,2.3358247 -1.758171,3.8634694 -0.247756,1.038079 -0.248634,3.672511 -0.0023,5.776124 0.09409,0.803659 0.193786,1.740749 0.221151,2.08231 0.02738,0.341556 0.104383,1.114039 0.171035,1.716791 0.325231,2.940852 0.05912,4.654848 -0.942993,6.069459 -1.199298,1.667427 -3.4444564,2.232153 -6.2271612,2.943004 v 7.824413 H 17.076801 c 0.394603,-0.84267 0.779349,-1.80144 1.301157,-2.882776 0.769421,-1.661323 1.042145,-2.326993 1.266674,-3.097488 l 0.178851,-0.614257 0.186668,0.275865 c 0.474315,0.700834 1.248071,1.351788 2.079551,1.748975 1.084113,0.517855 1.860325,0.674107 3.033121,0.490577 v -2.351736 c -1.738403,0.264396 -3.410554,-0.412053 -5.245087,-2.124151 -1.334043,-1.245014 -2.279751,-2.505504 -3.306685,-4.40922 -0.819659,-1.519455 -1.309933,-2.685454 -1.763228,-4.191747 -0.654956,-2.176434 -0.921105,-3.949873 -0.851039,-5.671756 0.120081,-2.950976 1.153727,-5.2178707 3.249213,-7.1250962 2.085026,-1.8977014 4.731467,-2.8623913 7.558203,-2.754498 0.120729,0.0046 0.239752,0.011564 0.358623,0.01977 v -2.213805 c -0.215474,-0.010217 -0.431855,-0.017471 -0.649199,-0.017471 z m 0.259771,2.6423134 c -0.223589,-0.0021 -0.461618,0.00189 -0.705751,0.0092 -1.745924,0.051836 -2.619212,0.2510144 -4.114045,0.9370167 -1.992496,0.9143785 -3.443029,2.2773596 -4.460255,4.1926663 -0.677407,1.275473 -0.969682,2.295552 -1.129202,3.931056 -0.359745,3.688337 1.535074,9.3258 4.315426,12.835932 1.402976,1.771224 2.83618,2.859704 4.492439,3.412434 0.457179,0.152577 0.625861,0.170284 1.399548,0.145748 0.20931,-0.0065 0.408812,-0.01431 0.591268,-0.02345 v -1.045983 c -0.08507,-0.0089 -0.157467,-0.01775 -0.160921,-0.02391 -0.0053,-0.0094 -0.03207,-0.403185 -0.05977,-0.875407 l -0.01425,-0.235404 H 23.89523 l -0.01379,0.235404 c -0.0283,0.472158 -0.05797,0.866059 -0.06575,0.875407 -0.0078,0.0092 -0.281146,-0.09994 -0.60644,-0.242301 -0.668439,-0.292525 -1.429607,-0.770959 -1.821619,-1.144834 -1.34102,-1.201862 -0.271578,-0.235778 -1.262536,-1.219318 0.705587,-0.03374 1.616371,-0.04482 2.434036,-0.05195 0.382316,0 1.166101,-0.04018 1.329663,-0.02989 0,0 -0.05532,-0.879821 0.326898,-0.788051 0.739479,-0.03741 0.783912,-0.649659 0.783913,-0.649659 -0.0026,-0.373006 -2.217485,-0.227585 -2.217485,-0.227585 -1.243899,0.0471 -2.544835,0.04475 -3.521858,-0.006 -0.504935,-0.237077 -0.563896,-0.5685 -0.928281,-1.417939 0.808151,-0.144053 1.050497,-0.114132 1.690124,-0.115403 0.358897,-7.39e-4 0.746289,8.93e-4 1.145753,0.0032 0,0 2.879758,0.105769 2.891511,-0.08414 0.01818,-0.396473 0.009,-0.982163 0.253794,-0.954488 0.651326,0 0.724372,-0.249008 0.717705,-0.640463 0.06506,-0.185843 -4.290598,-0.08184 -4.290598,-0.08184 l -3.295191,0.02345 c -0.343296,-0.410957 -0.433989,-0.968916 -0.614716,-1.467135 0,-0.03417 1.543611,-0.02667 3.545767,-0.02667 0,0 3.58276,-0.06844 3.573813,-0.258852 0.04788,-0.353348 -0.09573,-0.53907 0.310806,-0.563681 0.412301,-0.0236 0.670984,-0.266514 0.655176,-0.630348 -0.0177,-0.407684 -2.475069,-0.261652 -4.235885,-0.245059 -3.809058,0.0049 -4.400261,-0.01278 -4.402324,-0.134714 -0.118584,-0.308024 -0.166451,-0.97328 -0.3223,-1.022074 1.379156,-0.140014 2.468716,-0.07961 3.937953,-0.07264 0,0 3.932711,6e-5 3.952665,-0.253335 0.02278,-0.28959 -0.02342,-0.599644 0.293795,-0.602762 0.306902,-0.003 0.783767,-0.249292 0.778855,-0.573796 0.01373,-0.636113 -5.027154,-0.355404 -5.027154,-0.355404 h -4.040942 c 0,0 -0.08004,-0.154873 -0.0915,-0.332876 -0.0023,-0.20122 0.0869,-0.758625 0.0869,-0.758625 h 4.040482 c 0,0 3.926354,0.05201 3.986689,-0.01057 0.02771,-0.284186 -0.122471,-0.798098 0.30345,-0.762303 0.515624,-0.0078 0.748386,-0.323967 0.743452,-0.610578 -0.01997,-0.405841 -2.486146,-0.296974 -4.851521,-0.279541 -2.134121,0.01573 -3.992222,0.04972 -4.059793,0.02299 -0.107434,-0.04251 -0.140608,0.053 0.06161,-0.729659 l 0.232645,-0.293335 3.691974,0.0018 c 1.352234,7.4e-4 3.842378,0.09334 3.853355,-0.165518 0.0098,-0.318729 0.03684,-0.51326 0.30299,-0.548049 0.562972,0.01326 0.713152,-0.428721 0.720464,-0.683682 0.0074,-0.254267 -4.497956,-0.108046 -4.497956,-0.108046 -1.959512,0 -3.422548,-0.02672 -3.422548,-0.04782 0,-0.02109 -0.01307,0.003 0.14207,-0.2781617 0.320263,-0.580743 0.696855,-0.792481 1.018856,-0.914028 0.114215,-0.04311 0.654926,-0.06468 1.726906,-0.06713 0.357329,-7.4e-4 0.773372,5.84e-4 1.252881,0.0037 0,0 2.688859,0.162548 2.75036,-0.05517 0.05982,-0.368449 -0.0016,-0.499485 0.333335,-0.508049 0.305546,-0.0022 0.716454,-0.341973 0.712188,-0.560003 -0.0086,-0.51451 -2.916338,-0.2409206 -2.916338,-0.2409206 -1.056087,0.00409 -2.099999,-0.012626 -2.320013,-0.036782 -0.181839,-0.030446 -0.174254,0.00288 -0.02069,-0.087357 0.916695,-0.581228 2.500605,-1.1058367 3.689216,-1.2220759 l 0.516325,-0.050115 0.01655,0.062069 c 0.0044,0.049578 0.0077,0.098466 0.01149,0.1480468 h 0.988052 l 0.04,-0.2133345 c 0,0 0.125127,0.010417 0.230346,0.018391 V 5.0645873 c -0.136499,-0.016237 -0.268676,-0.034772 -0.389428,-0.037242 z m -4.701635,26.712792 -0.09931,0.391267 c -0.149092,0.589596 -0.384226,0.850506 -0.743912,1.675409 -0.388062,0.889986 -0.395299,1.115981 -0.07586,2.228519 0.131449,0.665192 0.291006,0.965025 0.480922,1.268974 h 5.529226 v -3.671745 c -0.999132,0.20219 -1.898935,0.008 -3.048753,-0.600463 -0.320291,-0.169503 -0.617241,-0.300145 -0.70759,-0.315865 l -1.124604,-0.783913 z" />
  <path
     id="path1370"
     style="stroke-width:0.457107"
     d="M 94.953125 17.462891 L 94.953125 19.142578 C 97.350925 19.255529 103.06366 20.117238 105.58008 20.830078 C 108.33543 21.610608 108.56065 21.772956 108.68945 23.060547 C 108.77362 23.901975 108.5936 24.52523 108.23242 24.642578 C 107.80167 24.782534 96.371041 23.5978 94.953125 23.285156 L 94.953125 25.253906 C 96.23982 25.661613 98.233072 25.89999 101.57227 26.259766 C 108.26368 26.980725 108.74231 26.980502 109.86914 26.242188 C 110.72498 25.681424 111.06641 25.06312 111.06641 24.068359 L 111.06641 22.677734 L 112.96289 23.736328 C 119.98336 27.649445 123.02899 33.884121 123.71875 45.759766 C 124.00554 50.697461 124.00044 50.725034 123.05078 50.216797 C 120.3354 48.763572 111.25902 50.192432 103.79688 53.246094 C 100.35473 54.654641 99.29847 54.868698 95.294922 54.986328 C 95.167816 54.990028 95.075053 54.990739 94.953125 54.994141 L 94.953125 57.347656 C 98.117202 57.261256 101.34362 56.473445 105.10938 54.966797 C 112.59862 51.970399 120.65895 50.825797 122.2832 52.527344 C 122.60159 52.860887 123.41063 55.602231 124.08008 58.619141 C 125.42627 64.685891 125.39482 66.625229 123.83984 73.357422 C 122.82368 77.756826 121.08205 81.447234 119.66602 82.205078 C 119.00253 82.560165 117.42851 82.645998 114.98047 82.460938 C 111.6658 82.210355 111.19079 82.054187 110.27148 80.914062 C 108.91808 79.235578 105.69311 79.101809 104.13672 80.658203 C 102.72018 82.07474 102.40188 86.531349 103.53711 89.048828 C 104.66114 91.541479 104.03988 92.791147 101.19141 93.761719 C 99.997038 94.168679 97.502953 94.406197 94.953125 94.457031 L 94.953125 96.248047 C 95.152155 96.304211 95.319138 96.36831 95.410156 96.441406 C 95.804387 96.757942 95.980469 96.730108 95.980469 96.353516 C 95.980469 96.053308 96.444091 95.846759 97.009766 95.892578 C 97.575436 95.938424 98.242734 95.919657 98.494141 95.853516 C 98.745555 95.787374 99.158746 95.695354 99.410156 95.646484 C 99.661533 95.597615 100.23474 95.396494 100.68555 95.201172 C 101.13636 95.005846 101.63252 94.97237 101.78711 95.126953 C 101.94169 95.281536 102.34158 95.181639 102.67578 94.904297 C 103.79066 93.979031 104.66602 94.80887 104.66602 96.789062 C 104.66602 98.155623 104.45386 98.712265 103.86523 98.900391 C 103.42527 99.040989 102.60436 99.377547 102.03906 99.648438 C 101.47377 99.919316 100.87479 100.00565 100.70898 99.839844 C 100.54318 99.674036 100.16558 99.740319 99.869141 99.986328 C 99.572674 100.23234 98.466688 100.51048 97.412109 100.60547 C 96.357538 100.70045 95.364695 100.90876 95.205078 101.06836 C 95.124877 101.14852 95.039752 101.2084 94.953125 101.25391 L 94.953125 101.85156 C 99.003592 101.67925 100.09349 101.55048 100.09375 101.24414 C 100.09391 101.05558 100.56824 100.90234 101.14648 100.90234 C 101.72473 100.90234 102.43005 100.66953 102.71484 100.38477 C 103.73055 99.369048 104.73199 100.31783 104.58008 102.1543 C 104.46034 103.60212 104.27504 103.86651 103.4082 103.83594 C 102.79907 103.81439 102.38086 104.06945 102.38086 104.46094 C 102.38086 104.91952 102.03106 105.05585 101.23828 104.9043 C 100.47198 104.7578 100.0957 104.89131 100.0957 105.30859 C 100.0957 105.65317 99.625163 105.92969 99.042969 105.92969 C 98.464727 105.92969 97.753926 106.16796 97.462891 106.45898 C 97.062087 106.85988 96.774841 106.85664 96.28125 106.44727 C 95.769207 106.02231 95.573529 106.05804 95.363281 106.60547 C 95.247212 106.90772 95.112772 107.09727 94.953125 107.19141 L 94.953125 108.9668 C 99.232196 108.79479 103.44222 107.07519 104.71484 104.69727 C 105.23998 103.71604 109.69336 99.671396 109.69336 100.17578 C 109.69336 100.30871 109.26904 101.23075 108.75 102.22656 C 107.59406 104.44427 107.67396 107.44252 108.89453 107.67383 C 109.51724 107.79182 109.69336 107.51166 109.69336 106.40625 C 109.69336 105.62523 110.20937 103.9708 110.83789 102.73047 C 111.46641 101.49014 111.98047 99.871317 111.98047 99.132812 C 111.98047 97.803745 112.97315 94.636717 115.40234 88.21875 C 117.0039 83.987433 117.92555 83.769076 117.38086 87.751953 C 116.95027 90.900523 117.10585 91.759766 118.10547 91.759766 C 118.89537 91.759766 119.13323 91.060729 119.54883 87.519531 C 119.77428 85.598299 120.11776 84.699306 120.80664 84.216797 C 121.32735 83.852072 121.79199 83.599187 121.8418 83.65625 C 121.96029 83.792048 120.30553 96.279793 120.00781 97.496094 C 119.8818 98.010858 117.20497 101.50644 114.05859 105.26562 C 110.91222 109.02481 108.33422 112.48779 108.33008 112.96094 C 108.30476 115.78251 103.51482 119.65933 98.492188 120.92188 C 96.857954 121.33267 95.842459 121.55192 94.953125 121.61914 L 94.953125 123.66992 C 96.337324 123.59845 97.769024 123.31709 99.371094 122.82227 C 104.92929 121.10551 108.65451 118.2417 110.01562 114.64062 C 110.48877 113.38885 113.00724 109.90367 116.32812 105.90234 L 121.85156 99.248047 L 122.44336 95.388672 C 122.76953 93.266936 123.42659 88.446922 123.90234 84.675781 C 124.37809 80.904644 125.19233 76.276197 125.71094 74.390625 C 127.06623 69.463024 127.35486 63.884633 126.46875 59.724609 C 125.98486 57.45289 125.74364 53.922814 125.73828 49.021484 C 125.71825 30.566377 120.44733 22.698638 105.32617 18.548828 C 102.88747 17.879349 98.915548 17.511636 94.953125 17.462891 z M 112.06836 26.892578 C 111.4806 26.905693 111.02344 27.074218 110.69922 27.398438 C 110.37943 27.718231 110.15039 29.253657 110.15039 31.078125 L 110.15039 34.207031 L 112.55078 35.324219 C 117.07187 37.429087 118.3608 36.704364 118.51953 31.972656 L 118.60742 29.365234 L 116.09375 28.123047 C 114.39193 27.282066 113.04797 26.870714 112.06836 26.892578 z M 103.5293 40.335938 C 102.73503 40.335938 102.50606 40.951357 101.7207 45.21875 C 100.94887 49.412695 100.67475 50.16941 99.773438 50.580078 C 98.579636 51.124009 98.553805 51.019035 99.138672 47.996094 C 99.394357 46.674707 99.345862 45.919815 98.988281 45.623047 C 98.040769 44.836678 97.424673 45.789288 96.888672 48.867188 C 96.43952 51.446435 96.207095 51.930004 95.330078 52.097656 C 95.199458 52.122601 95.073805 52.142027 94.953125 52.158203 L 94.953125 54.179688 C 96.418659 54.115209 97.903602 53.725142 99.626953 52.996094 L 102.58594 51.744141 L 103.37695 47.867188 C 103.812 45.735542 104.22875 43.169697 104.30273 42.164062 C 104.41786 40.598869 104.3075 40.335938 103.5293 40.335938 z M 115.1543 57.078125 C 115.06584 57.078385 114.97573 57.078472 114.88477 57.080078 C 109.42674 57.171883 99.511327 59.663326 98.646484 61.279297 C 98.363171 61.808427 98.242685 63.676883 98.361328 65.726562 C 98.542481 68.856038 98.746316 69.511937 100.13086 71.435547 C 102.49456 74.719548 104.48346 76.092622 108.33008 77.099609 C 112.83774 78.279555 115.77114 78.284029 118.19336 77.111328 C 120.35693 76.063961 120.49977 75.821426 121.40234 71.646484 C 123.19731 63.34363 123.07117 61.043825 120.69531 58.667969 C 119.42858 57.401245 118.96692 57.249862 115.91406 57.095703 C 115.67388 57.083514 115.41967 57.077345 115.1543 57.078125 z M 115.63672 58.9375 C 116.60677 58.925112 119.2348 59.826941 119.73828 60.433594 C 120.73842 61.638681 120.75505 64.497325 119.78906 69.205078 C 119.26509 71.758663 118.83594 73.964824 118.83594 74.107422 C 118.83594 74.250023 118.23002 74.678931 117.48828 75.0625 C 115.99827 75.83301 111.91798 75.923671 109.03516 75.248047 C 106.21726 74.587635 106.58878 74.449921 110.48242 74.716797 C 115.35197 75.050567 116.59284 74.408922 117.91797 70.867188 C 119.68025 66.157076 119.94333 64.310932 119.13281 62.371094 C 118.61577 61.133658 117.93901 60.445698 116.74609 59.947266 C 115.82994 59.564471 115.185 59.14703 115.3125 59.019531 C 115.36156 58.970511 115.45883 58.9455 115.5918 58.939453 C 115.60634 58.938791 115.62132 58.937697 115.63672 58.9375 z M 106.11523 62.449219 A 3.4601712 3.4601712 0 0 1 109.57617 65.910156 A 3.4601712 3.4601712 0 0 1 106.11523 69.369141 A 3.4601712 3.4601712 0 0 1 102.6543 65.910156 A 3.4601712 3.4601712 0 0 1 106.11523 62.449219 z M 94.953125 68.558594 L 94.953125 86.626953 C 95.640833 86.637914 96.338787 86.74234 97.207031 86.947266 C 98.431111 87.236173 98.857775 87.09535 99.890625 86.0625 C 100.97514 84.97798 101.09261 84.570843 100.90039 82.570312 C 100.78069 81.324501 100.85897 80.195509 101.07422 80.0625 C 102.70946 79.051862 99.442792 72.5625 97.298828 72.5625 C 96.67473 72.5625 96.458142 72.119216 96.349609 70.619141 C 96.225792 68.907907 96.116876 68.690072 94.953125 68.558594 z M 98.005859 89.548828 C 97.306609 89.575663 97.035624 90.834445 97.666016 91.464844 C 98.20605 92.004878 98.953125 91.495194 98.953125 90.585938 C 98.953125 90.107514 98.592322 89.645273 98.152344 89.560547 C 98.102076 89.55072 98.052499 89.548514 98.005859 89.550781 L 98.005859 89.548828 z M 117.41602 93.144531 C 117.2594 93.143807 117.07105 93.184273 116.85352 93.267578 C 116.05266 93.574892 114.1226 98.498395 114.45898 99.375 C 115.04548 100.90338 116.09724 99.827528 117.41797 96.347656 C 118.19597 94.297788 118.21253 93.20941 117.48047 93.146484 C 117.45935 93.144689 117.43839 93.144635 117.41602 93.144531 z M 106.36328 107.31641 C 105.84917 107.32434 105.0454 107.78834 103.87695 108.63477 C 102.35405 109.73795 101.98736 110.31427 101.73633 111.98828 C 101.56958 113.10026 101.64002 114.55725 101.89453 115.22656 C 102.21447 116.06801 102.68874 116.44336 103.43164 116.44336 C 105.22319 116.44336 106.43765 114.66924 106.88672 111.39258 C 107.2759 108.55288 107.22015 107.30305 106.36328 107.31641 z M 98.964844 110.10938 C 98.203212 110.11152 97.823401 111.17728 97.816406 113.32031 C 97.807335 116.10808 97.505758 116.79758 95.947266 117.60352 C 95.544481 117.81181 95.22962 117.96405 94.953125 118.06641 L 94.953125 120.08984 C 96.372406 120.03935 96.930017 119.71649 98.320312 118.32617 C 100.02592 116.62058 100.0957 116.43277 100.0957 113.51172 C 100.0957 111.14662 99.932735 110.40993 99.363281 110.19141 C 99.234928 110.14216 99.114243 110.11586 99.001953 110.11133 C 98.989672 110.11083 98.976933 110.10934 98.964844 110.10938 z M 104.32031 111.14844 C 104.5191 111.13884 104.66172 111.46007 104.6582 111.95898 C 104.65451 112.53949 104.45266 113.32406 104.20898 113.70117 C 103.87181 114.2229 103.76512 114.03761 103.75977 112.92773 C 103.75607 112.12549 103.9576 111.34288 104.20898 111.1875 C 104.24111 111.16785 104.27291 111.15493 104.30273 111.15039 C 104.30926 111.14939 104.3139 111.14875 104.32031 111.14844 z "
     transform="scale(0.26458333)" />
</svg>
