<?xml version="1.0" encoding="UTF-8" standalone="no"?>
<!***REMOVED***Created with Inkscape (http://www.inkscape.org/) -->

<svg
   width="150"
   height="150"
   viewBox="0 0 39.6875 39.6875"
   version="1.1"
   id="svg1168"
   xmlns="http://www.w3.org/2000/svg"
   xmlns:svg="http://www.w3.org/2000/svg">
  <defs
     id="defs1165" />
  <g
     id="layer1"
     transform="matrix(0.91141654,0,0,0.91141654,1.7578432,1.757828)">
    <path
       id="path5121"
       style="stroke-width:0.210954"
       d="m 26.277567,1.3304444 c -3.85794,0 -7.250247,1.6004481 -9.269719,4.3728594 -0.829305,1.1385092 -1.312375,2.19993 -1.655713,3.6385373 -0.233316,0.9775739 -0.234058,3.4584569 -0.0021,5.4394609 0.08861,0.756819 0.181971,1.639466 0.20774,1.961121 0.02578,0.321648 0.09846,1.048818 0.16123,1.616439 0.306275,2.769447 0.05538,4.38377 -0.888318,5.71593 -1.920097,2.669583 -6.6743323,2.334014 -11.9532751,4.78472 1.8290552,3.327331 8.5377041,9.748983 11.9315711,9.111589 3.890144,-0.94923 4.092755,-3.082611 5.727816,-6.470923 0.724575,-1.564497 0.981251,-2.19206 1.192692,-2.91765 l 0.168465,-0.57826 0.1757,0.259932 c 0.44667,0.659987 1.175518,1.272894 1.958537,1.646928 1.086799,0.519139 1.844772,0.652647 3.074747,0.42478 l -0.001,-1.467093 c 4.44e-4,-7.4e-5 7.06e-4,-6.6e-5 0.001,0 v -0.746207 c -0.0094,0.0019 -0.0185,0.0045 -0.02791,0.0062 -1.705849,0.330049 -3.335378,-0.295645 -5.129919,-1.970421 -1.256293,-1.172449 -2.146943,-2.359957 -3.114022,-4.152718 -0.771885,-1.430894 -1.233489,-2.529064 -1.660364,-3.947563 -0.616782,-2.049582 -0.867483,-3.719236 -0.801501,-5.340759 0.113082,-2.7789809 1.086925,-4.9141205 3.060278,-6.7101846 1.963502,-1.7870951 4.455413,-2.6952451 7.117395,-2.5936403 0.187752,0.00716 0.37254,0.019607 0.556038,0.03514 V 2.4104817 c -0.0014,0 -0.0027,-2.96e-5 -0.0041,0 l 0.0041,-1.052649 C 26.832224,1.340098 26.555674,1.3309611 26.277567,1.3309611 Z m 0.243912,2.4887369 c -0.210558,-0.00197 -0.434138,0.00138 -0.664042,0.00827 -1.644165,0.048814 -2.466991,0.2360975 -3.874699,0.8821166 -1.876365,0.861086 -3.241806,2.1449213 -4.199743,3.9485962 -0.637926,1.201134 -0.913796,2.1619179 -1.064018,3.7020999 -0.338779,3.473365 1.446049,8.782087 4.064351,12.087634 1.321204,1.667988 2.670507,2.692729 4.230233,3.213242 0.430532,0.143684 0.589674,0.160562 1.318266,0.137458 0.198915,-0.0063 0.388633,-0.01352 0.561723,-0.02222 v 0.0052 c 0.289855,2.78e-4 0.625833,-0.02827 1.059367,-0.02894 1.355456,0.0318 2.076292,-0.278008 2.930052,-1.214395 0.659948,-0.723826 0.996027,-1.565049 0.99994,-2.504758 0.0056,-1.234301 0.409316,-1.737852 1.527038,-1.90376 1.857703,-0.275765 2.582172,-1.55138 2.1947,-3.863847 -0.212603,-1.268799 -0.192035,-1.44863 0.293005,-2.585888 0.653592,-1.532469 1.042,-3.788097 0.872815,-5.068942 C 36.329261,7.2698411 33.871687,4.9713409 29.833939,4.1230386 28.682283,3.9808304 27.828094,3.9412971 27.12506,3.8786091 v -0.00258 c -0.04428,-0.00177 -0.08815,-0.00566 -0.131775,-0.00982 -0.01521,-0.00147 -0.03144,-0.00263 -0.04651,-0.00413 -10e-4,-1.009e-4 -0.0021,-4.157e-4 -0.0031,-5.168e-4 -0.148689,-0.016193 -0.292036,-0.039712 -0.422197,-0.042375 z m 0.149862,1.1410156 c 0,0 0.164421,0.015238 0.29714,0.023254 0.01574,0.00121 0.03196,0.00219 0.04961,0.0031 0.443237,0.022789 1.470969,-0.043472 2.324923,0.1116211 1.435293,0.2632292 3.230763,0.9788178 4.121713,1.6427937 2.510951,1.8712474 3.018054,5.3135013 1.312579,8.9085003 l -0.650089,1.369942 0.350883,0.952913 c 0.644654,1.751648 -0.0036,3.120223 -1.477428,3.120223 -1.265852,0 -2.151775,1.296547 -2.154907,3.153296 -0.0014,0.778319 -0.591945,1.68862 -1.495517,2.173512 -0.322464,0.17304 -0.792701,0.319225 -0.826823,0.310573 -0.548062,0.07302 -0.895411,0.110723 -1.359607,0.08682 -0.107636,-0.0087 -0.419101,-0.03465 -0.42633,-0.04754 -0.005,-0.0089 -0.03077,-0.380058 -0.05684,-0.824757 l -0.01292,-0.221692 H 25.73238 l -0.01292,0.221692 c -0.02665,0.44464 -0.05469,0.815441 -0.06201,0.824241 -0.0073,0.0087 -0.264173,-0.09332 -0.570507,-0.227378 -0.629479,-0.275476 -1.34701,-0.726403 -1.716175,-1.078487 -1.262858,-1.131814 -0.255355,-0.222035 -1.188557,-1.148249 0.664463,-0.03177 1.522357,-0.04237 2.292366,-0.04909 0.360032,0 1.097575,-0.03761 1.251603,-0.02791 0,0 -0.05194,-0.82901 0.307992,-0.742591 0.696378,-0.03523 0.737939,-0.611332 0.737939,-0.611332 -0.0024,-0.351267 -2.088244,-0.214457 -2.088244,-0.214457 -1.1714,0.04436 -2.396,0.04203 -3.316077,-0.0057 -0.475505,-0.223259 -0.531218,-0.53539 -0.874365,-1.335319 0.76105,-0.135657 0.989287,-0.107332 1.591634,-0.108521 0.337979,-6.98e-4 0.702821,9e-4 1.079004,0.0031 0,0 2.712281,0.09926 2.723348,-0.07958 0.01713,-0.373366 0.0082,-0.924715 0.238745,-0.898653 0.613364,0 0.682206,-0.234424 0.675927,-0.603064 0.06127,-0.175011 -4.04058,-0.077 -4.04058,-0.077 l -3.103169,0.0217 c -0.323304,-0.387025 -0.408581,-0.912647 -0.578776,-1.381828 0,-0.03218 1.453353,-0.0248 3.338814,-0.0248 0,0 3.374111,-0.0646 3.365686,-0.243913 0.0451,-0.332753 -0.09035,-0.50754 0.292489,-0.530717 0.38827,-0.02223 0.631902,-0.250615 0.617016,-0.593246 -0.01668,-0.383921 -2.330716,-0.246619 -3.988904,-0.230993 -3.587049,0.0046 -4.143541,-0.0123 -4.145483,-0.127124 -0.111673,-0.290074 -0.157091,-0.915749 -0.303857,-0.961699 1.298773,-0.131856 2.324696,-0.07529 3.7083,-0.06873 0,0 3.703464,-1.18e-4 3.722254,-0.238745 0.02145,-0.27271 -0.02174,-0.564988 0.276985,-0.567924 0.289015,-0.0029 0.738431,-0.234429 0.733806,-0.540019 0.01293,-0.59904 -4.734595,-0.334346 -4.734595,-0.334346 h -3.804936 c 0,0 -0.07552,-0.146048 -0.0863,-0.313676 -0.0022,-0.189492 0.08165,-0.714686 0.08165,-0.714686 h 3.804936 c 0,0 3.697476,0.04862 3.754293,-0.01033 0.02609,-0.267623 -0.115327,-0.751494 0.28577,-0.717785 0.485571,-0.0073 0.704863,-0.304736 0.700216,-0.574642 -0.01881,-0.382189 -2.341719,-0.27945 -4.56923,-0.263033 -2.009736,0.01481 -3.75939,0.04637 -3.823022,0.02119 -0.101175,-0.04004 -0.132041,0.05027 0.05839,-0.68678 l 0.219108,-0.276469 3.47679,0.0016 c 1.273419,6.98e-4 3.61838,0.08823 3.628719,-0.155547 0.0092,-0.3001509 0.03462,-0.4834839 0.285254,-0.5162469 0.530159,0.01249 0.671626,-0.403786 0.678512,-0.643889 0.0069,-0.239447 -4.235917,-0.101285 -4.235917,-0.101285 -1.845302,0 -3.223059,-0.02561 -3.223059,-0.04547 0,-0.01986 -0.01225,0.0028 0.133842,-0.2619998 0.301596,-0.5468953 0.656398,-0.7464665 0.959631,-0.8609295 0.107557,-0.040592 0.616239,-0.060744 1.62574,-0.063045 0.336501,-6.982e-4 0.728729,7.358e-4 1.18029,0.00362 0,0 2.532107,0.152835 2.590023,-0.052193 0.05634,-0.3469748 -0.0018,-0.4704583 0.313676,-0.4785236 0.287737,-0.00206 0.675295,-0.3217783 0.671277,-0.5270997 -0.0081,-0.4844608 -2.746603,-0.2268596 -2.746603,-0.2268596 -0.994534,0.00385 -1.977688,-0.011873 -2.184879,-0.034623 -0.171241,-0.028667 -0.164259,0.00281 -0.01964,-0.082165 0.863267,-0.547351 2.354872,-1.0413699 3.474206,-1.1508341 l 0.486276,-0.047542 0.0155,0.058394 c 0.0042,0.046689 0.0074,0.092834 0.01085,0.1395264 h 0.930693 z m 5.029667,8.2630611 c -1.344001,0.01049 -3.253019,1.016689 -3.612182,1.636076 -0.189193,0.453109 0.258061,1.208976 0.936377,1.638143 0.968928,0.613029 3.659505,0.622633 4.189407,0.01499 0.36585,-0.764809 0.380127,-1.921424 -0.303855,-2.728516 -0.215911,-0.400028 -0.65173,-0.5586 -1.178224,-0.560689 -0.01052,-4.5e-5 -0.02096,-8.3e-5 -0.03152,0 z m -2.18798,1.459859 c 0.368472,-2e-5 0.667081,0.310092 0.667142,0.692465 1.9e-5,0.382431 -0.298614,0.692483 -0.667142,0.692464 -0.368528,1.9e-5 -0.667162,-0.310033 -0.667143,-0.692464 6.2e-5,-0.382373 0.29867,-0.692485 0.667143,-0.692465 z m -2.570902,2.328023 v 3.074748 c 0.265071,0.06889 0.852989,0.382401 1.119311,0.222209 0.655755,-0.292873 -0.458386,-2.123055 -1.119311,-3.296957 z m 4.330485,2.932638 c -0.01215,-4.6e-5 -0.02449,4.65e-4 -0.03721,0.001 -0.122004,0.0047 -0.269864,0.0343 -0.453718,0.08785 -0.961435,0.280053 -1.593701,1.126806 -1.593701,2.133721 0,0.929398 -0.271939,1.240225 -0.738456,0.84801 v -1.185941 c -8.2e-5,-0.227786 -0.178404,-0.412019 -0.397908,-0.411862 -0.219281,1.69e-4 -0.396792,0.184307 -0.396875,0.411862 v 1.20096 c -0.269188,0.167012 -0.437175,0.188703 -0.712618,0.06408 v 1.371492 c 0.08045,-0.08901 0.184943,-0.148311 0.278536,-0.148311 0.146466,0 0.319918,0.144658 0.385506,0.321944 0.01296,0.03503 0.02992,0.06644 0.04858,0.0956 v 0.946196 c 8.3e-5,0.227555 0.177594,0.411692 0.396875,0.411861 0.219504,1.59e-4 0.397825,-0.184076 0.397908,-0.411861 v -0.949813 c 0.01395,-0.02374 0.02647,-0.04938 0.03669,-0.077 0.0625,-0.169024 0.386124,-0.406042 0.719336,-0.526583 0.637146,-0.230493 1.017509,-0.941614 1.017509,-1.902726 0,-0.663231 0.535776,-1.346171 1.055751,-1.346171 0.490942,0 0.694078,-0.377171 0.401007,-0.743624 -0.102245,-0.127844 -0.224745,-0.189968 -0.407209,-0.190686 z m -9.178768,9.030973 -0.09302,0.368454 c -0.140402,0.555233 -0.361495,0.800854 -0.700216,1.577681 -0.365444,0.838113 -0.372647,1.050885 -0.07183,2.09858 0.238088,1.204833 0.570423,1.134755 1.026294,2.273763 0.26648,1.368094 0.745518,2.05536 1.78077,2.555917 0.677391,0.327533 1.171382,0.435502 1.985409,0.433565 0.366429,-8.73e-4 0.886523,0.198792 0.892968,-0.05271 l 0.192753,-7.523057 c -1.030706,0.266708 -1.923797,0.101269 -3.089734,-0.515728 -0.301623,-0.159621 -0.581027,-0.282856 -0.666109,-0.297657 l -1.059364,-0.737941 z" />
    <circle
       style="fill:#ff0000;fill-opacity:1;stroke:none;stroke-width:0.38864;stroke-linecap:round;stroke-opacity:0.87451"
       id="path2105"
       cx="29.517088"
       cy="15.365692"
       r="0.7169165" />
  </g>
</svg>
