<?xml version="1.0" encoding="UTF-8" standalone="no"?>
<!-- Created with Inkscape (http://www.inkscape.org/) -->

<svg
   width="150"
   height="150"
   viewBox="0 0 39.6875 39.6875"
   version="1.1"
   id="svg1168"
   xmlns="http://www.w3.org/2000/svg"
   xmlns:svg="http://www.w3.org/2000/svg">
  <defs
     id="defs1165" />
  <path
     id="path5121"
     style="stroke-width:0.726678"
     d="m 97.162109,11.226562 c -13.289534,0 -24.975117,5.514262 -31.93164,15.064454 -2.856726,3.921849 -4.52042,7.5776 -5.703125,12.533203 -0.803709,3.367476 -0.806909,11.912315 -0.0078,18.736328 0.305235,2.607031 0.628027,5.647849 0.716797,6.755859 0.08882,1.107991 0.338472,3.613063 0.554688,5.56836 1.055032,9.539981 0.192204,15.100528 -3.058594,19.689453 -6.614207,9.195976 -22.991284,8.040419 -41.175781,16.482421 6.30059,11.46174 29.408676,33.58237 41.099609,31.38672 13.400474,-3.26983 14.098137,-10.61922 19.730469,-22.29102 2.495962,-5.38925 3.381018,-7.54937 4.109375,-10.04882 l 0.580078,-1.99219 0.605469,0.89453 c 1.538657,2.27347 4.048811,4.38538 6.746093,5.67383 3.743724,1.78829 6.354877,2.24783 10.591796,1.46289 l -0.004,-5.05469 c 0.002,-2.5e-4 0.003,-2.3e-4 0.004,0 v -2.57031 c -0.0325,0.006 -0.06327,0.0154 -0.0957,0.0215 -5.876179,1.13693 -11.490178,-1.01797 -17.671875,-6.787107 -4.327582,-4.038765 -7.395241,-8.129121 -10.726562,-14.304687 -2.658932,-4.929037 -4.248284,-8.711317 -5.71875,-13.597657 -2.124647,-7.06024 -2.989009,-12.812738 -2.761719,-18.398437 0.389537,-9.572822 3.743361,-16.926336 10.541016,-23.113281 6.763722,-6.15605 15.347782,-9.285548 24.517578,-8.935547 0.646752,0.02468 1.283911,0.06759 1.916014,0.121094 v -3.576172 c -0.005,0 -0.009,-1.02e-4 -0.0137,0 l 0.0137,-3.626954 c -0.946307,-0.06109 -1.899416,-0.0918 -2.857421,-0.0918 z m 0.841797,8.572266 c -0.725314,-0.0068 -1.497108,0.0056 -2.289062,0.0293 -5.663694,0.168151 -8.496536,0.813705 -13.345703,3.039063 -6.463559,2.9662 -11.16892,7.3884 -14.46875,13.601562 -2.197478,4.137575 -3.146589,7.446453 -3.664063,12.751953 -1.166997,11.964782 4.980672,30.251972 14,41.638672 4.551182,5.745755 9.199441,9.277285 14.572266,11.070315 1.483064,0.49495 2.031216,0.55224 4.541015,0.47265 0.685206,-0.0215 1.3393,-0.0462 1.935547,-0.0762 v 0.0176 c 0.998474,9.6e-4 2.155034,-0.0973 3.648434,-0.0996 4.66918,0.10953 8.6645,-0.41699 11.60547,-3.642578 2.27334,-2.493377 1.91816,-5.932885 1.93164,-9.169921 0.0193,-4.251829 1.41148,-5.985131 5.26172,-6.556641 6.39928,-0.949931 8.89529,-5.344735 7.56055,-13.310547 -0.73236,-4.370661 -0.66302,-4.990662 1.00781,-8.908203 2.25145,-5.27893 3.59061,-13.048781 3.00781,-17.460938 -1.51983,-11.50939 -9.9856,-19.427442 -23.89453,-22.349609 -3.96714,-0.489868 -6.91027,-0.625854 -9.33203,-0.841797 v -0.0078 c -0.152537,-0.0061 -0.302842,-0.02083 -0.453124,-0.03516 -0.05238,-0.0051 -0.108263,-0.0085 -0.160156,-0.01367 -0.0034,-3.48e-4 -0.0083,-0.0016 -0.01172,-0.002 -0.51219,-0.05578 -1.004756,-0.135358 -1.453125,-0.144531 z m 0.515625,3.931641 c 0,0 0.566259,0.05247 1.023438,0.08008 0.05424,0.0042 0.109147,0.0066 0.169922,0.0098 1.526829,0.0785 5.068129,-0.149486 8.009769,0.384766 4.94419,0.906752 11.12818,3.372943 14.19726,5.660156 8.64953,6.445931 10.39638,18.30373 4.52149,30.6875 l -2.23829,4.71875 1.20899,3.28125 c 2.22065,6.033944 -0.013,10.75 -5.08984,10.75 -4.36051,0 -7.41305,4.465343 -7.42383,10.861328 -0.005,2.681092 -0.52612,6.357024 -3.63867,8.027344 -1.1108,0.596073 -4.24379,0.559099 -4.36133,0.529297 -1.88793,0.251528 -3.08457,0.381165 -4.6836,0.298828 -0.370756,-0.02986 -1.443843,-0.119653 -1.468746,-0.164062 -0.01739,-0.03061 -0.105473,-1.307979 -0.195313,-2.839844 l -0.04492,-0.763672 h -3.220703 l -0.04492,0.763672 c -0.0918,1.531661 -0.187643,2.809528 -0.21289,2.839844 -0.02532,0.02986 -0.911561,-0.323351 -1.966797,-0.785157 -2.168383,-0.948938 -4.638485,-2.502012 -5.910156,-3.714843 -4.350199,-3.898787 -0.881082,-0.764526 -4.095703,-3.955078 2.28889,-0.109455 5.244019,-0.144838 7.896484,-0.167969 1.240214,0 3.781915,-0.131063 4.3125,-0.09766 0,0 -0.179323,-2.854332 1.060547,-2.556641 2.398832,-0.121361 2.542967,-2.107422 2.542969,-2.107422 -0.0083,-1.210019 -7.19336,-0.738281 -7.19336,-0.738281 -4.035148,0.152806 -8.254414,0.144915 -11.423828,-0.01953 -1.637983,-0.769066 -1.829672,-1.844073 -3.011719,-4.59961 2.621605,-0.467301 3.407503,-0.368927 5.482422,-0.373047 1.164246,-0.0024 2.420952,0.0023 3.716797,0.0098 0,0 9.342735,0.342625 9.380859,-0.273438 0.059,-1.286139 0.0282,-3.185478 0.822266,-3.095703 2.112869,0 2.349755,-0.808264 2.328125,-2.078125 0.211049,-0.602865 -13.917969,-0.265625 -13.917969,-0.265625 l -10.689453,0.07617 c -1.113694,-1.333194 -1.407871,-3.143564 -1.99414,-4.759765 0,-0.110854 5.007061,-0.08594 11.501953,-0.08594 0,0 11.622773,-0.222171 11.59375,-0.839844 0.155338,-1.146243 -0.310975,-1.748286 1.007812,-1.828125 1.337484,-0.07657 2.176277,-0.864657 2.125,-2.044921 -0.05745,-1.322503 -8.028234,-0.84875 -13.740234,-0.794922 -12.356395,0.01587 -14.27456,-0.04196 -14.28125,-0.4375 -0.384681,-0.999224 -0.539354,-3.156167 -1.044922,-3.314454 4.473914,-0.454201 8.007302,-0.258929 12.773437,-0.236328 0,0 12.757538,-2.63e-4 12.822266,-0.822265 0.07389,-0.939413 -0.07588,-1.944964 0.953125,-1.955078 0.995577,-0.0098 2.543278,-0.808654 2.527344,-1.861329 0.04452,-2.063524 -16.308594,-1.152343 -16.308594,-1.152343 H 69.189453 c 0,0 -0.259722,-0.502646 -0.296875,-1.080078 -0.0076,-0.652747 0.28125,-2.460938 0.28125,-2.460938 H 82.28125 c 0,0 12.735922,0.167846 12.931641,-0.03516 0.08988,-0.921887 -0.397292,-2.588775 0.984375,-2.472656 1.67266,-0.02532 2.428115,-1.050717 2.412109,-1.980469 -0.06478,-1.316534 -8.065122,-0.962799 -15.738281,-0.90625 -6.922987,0.05102 -12.950725,0.160958 -13.169922,0.07422 -0.34851,-0.137915 -0.454818,0.171755 0.201172,-2.367188 l 0.753906,-0.951172 11.976562,0.0059 c 4.386577,0.0024 12.464389,0.302618 12.5,-0.53711 0.03175,-1.033939 0.119046,-1.66449 0.982422,-1.777343 1.826253,0.04301 2.314171,-1.391668 2.337891,-2.21875 0.02381,-0.824829 -14.591797,-0.34961 -14.591797,-0.34961 -6.356557,0 -11.101562,-0.08784 -11.101562,-0.15625 0,-0.06841 -0.04233,0.0098 0.460937,-0.902344 1.038917,-1.883903 2.260132,-2.57055 3.304688,-2.964843 0.370507,-0.139828 2.12411,-0.208872 5.601562,-0.216797 1.159155,-0.0024 2.508951,0.0018 4.064453,0.01172 0,0 8.722369,0.526579 8.921875,-0.179687 0.194079,-1.195233 -0.0045,-1.620658 1.082031,-1.648437 0.991174,-0.0071 2.324388,-1.109131 2.310547,-1.816407 -0.02797,-1.668834 -9.460937,-0.78125 -9.460937,-0.78125 -3.425896,0.01327 -6.811676,-0.04077 -7.525391,-0.11914 -0.589878,-0.09875 -0.566534,0.0095 -0.06836,-0.283203 2.973713,-1.885474 8.112955,-3.58777 11.96875,-3.964844 l 1.673828,-0.16211 0.05469,0.201172 c 0.01436,0.16083 0.02501,0.319629 0.03711,0.480469 h 3.205078 z m 21.570309,7.3125 c -0.32072,-0.0028 -0.62305,0.190254 -0.80078,0.560547 l -0.74609,1.55664 c -0.29933,0.623651 -0.13438,1.506247 0.37109,1.978516 l 3.53711,3.304687 c 0.50547,0.472269 1.1538,0.350214 1.45313,-0.273437 l 0.74609,-1.556641 c 0.29933,-0.623651 0.13438,-1.506247 -0.37109,-1.978515 l -3.53711,-3.304688 c -0.20535,-0.191859 -0.43291,-0.28517 -0.65235,-0.287109 z m -10.26953,0.01953 c -0.89663,-1.936004 -2.26056,-1.422772 -1.65429,0.716797 0.0355,0.08196 0.12532,0.515971 0.13281,1.091797 0.008,0.575826 -0.0327,1.314012 -0.11719,2.140625 -0.16894,1.653224 -0.50047,3.664633 -0.86328,5.603515 -0.68317,3.650899 -1.40057,6.635751 -1.49219,7.019532 -0.20761,0.09555 -0.52246,0.229491 -1.07617,0.326172 -0.67892,0.118524 -1.50371,0.194488 -2.28906,0.236328 -1.5707,0.08368 -2.982424,0.04297 -2.982424,0.04297 l -0.05273,1.800782 c 0,0 1.472049,0.04543 3.130859,-0.04297 0.8294,-0.04418 1.70856,-0.121246 2.50195,-0.259766 0.79339,-0.138519 1.48571,-0.290989 2.08203,-0.730469 l 0.26563,-0.199218 0.0742,-0.316406 c 0,0 0.87326,-3.611099 1.60937,-7.544922 0.36805,-1.966908 0.70111,-4.017963 0.87891,-5.757813 0.0889,-0.869925 0.14166,-1.663326 0.13281,-2.347656 -0.009,-0.68433 -0.0483,-1.242953 -0.28125,-1.779297 z m -2.68359,1.185547 c -0.41219,-3.25e-4 -0.74642,0.333902 -0.7461,0.746094 7.6e-4,0.411428 0.33467,0.744465 0.7461,0.74414 0.41143,3.19e-4 0.74533,-0.332715 0.74609,-0.74414 3.2e-4,-0.412188 -0.3339,-0.746413 -0.74609,-0.746094 z m -0.63281,3.216797 c -0.41143,7.58e-4 -0.74446,0.334667 -0.74414,0.746094 -3.2e-4,0.411426 0.33271,0.745335 0.74414,0.746093 0.41219,3.19e-4 0.74641,-0.333906 0.74609,-0.746093 3.2e-4,-0.412188 -0.3339,-0.746413 -0.74609,-0.746094 z m -0.0703,3.216797 c -0.41219,-3.19e-4 -0.74641,0.333906 -0.74609,0.746093 -3.2e-4,0.412188 0.3339,0.746413 0.74609,0.746094 0.41143,-7.58e-4 0.74446,-0.334667 0.74414,-0.746094 3.2e-4,-0.411426 -0.33271,-0.745335 -0.74414,-0.746093 z m -0.875,3.21875 c -0.41066,7.56e-4 -0.74338,0.333476 -0.74414,0.74414 -3.2e-4,0.411427 0.33271,0.745336 0.74414,0.746094 0.41219,3.25e-4 0.74642,-0.333902 0.7461,-0.746094 -7.6e-4,-0.411428 -0.33467,-0.744465 -0.7461,-0.74414 z m -0.98632,3.216797 c -0.41143,-3.25e-4 -0.74534,0.332712 -0.7461,0.74414 -3.2e-4,0.412192 0.33391,0.746419 0.7461,0.746094 0.41143,-7.58e-4 0.74446,-0.334667 0.74414,-0.746094 -7.6e-4,-0.410664 -0.33348,-0.743384 -0.74414,-0.74414 z m -3.07032,0.345703 c -0.41219,-3.19e-4 -0.74641,0.333906 -0.74609,0.746093 7.6e-4,0.411425 0.33466,0.74446 0.74609,0.744141 0.41066,-7.56e-4 0.74339,-0.333477 0.74414,-0.744141 3.2e-4,-0.411426 -0.33271,-0.745335 -0.74414,-0.746093 z m 14.34375,6.730468 c -4.62971,0.03628 -11.20614,3.5031 -12.44336,5.636719 -0.65172,1.560835 0.888,4.16422 3.22461,5.642578 3.33769,2.111717 12.60628,2.14591 14.43164,0.05273 1.26026,-2.634558 1.30926,-6.620182 -1.04687,-9.400391 -0.74376,-1.377986 -2.24497,-1.924444 -4.0586,-1.931641 -0.0363,-1.55e-4 -0.071,-2.87e-4 -0.10742,0 z m -7.53711,5.029297 c 1.26929,-7.2e-5 2.29667,1.067597 2.29688,2.384766 7e-5,1.317369 -1.0274,2.386783 -2.29688,2.386719 -1.26947,6.4e-5 -2.29889,-1.06935 -2.29882,-2.386719 2.1e-4,-1.317169 1.02954,-2.384838 2.29882,-2.384766 z m -8.857418,8.019532 v 10.591796 c 0.913098,0.237317 2.940018,1.31744 3.857418,0.765625 2.2589,-1.008869 -1.58071,-7.313655 -3.857418,-11.357421 z M 114.36914,75.34375 c -0.0418,-1.59e-4 -0.0851,0.0021 -0.12891,0.0039 -0.42026,0.01625 -0.92917,0.118256 -1.5625,0.302735 -2.2903,0.667136 -4.036,2.26871 -4.89648,4.339843 h -8.332031 v 2.597657 h 2.457031 v 3.384765 c -0.92728,0.575312 -1.50625,0.651962 -2.455078,0.222656 l -0.04492,3.884766 c -0.0049,0.413271 0.63854,-0.509766 0.96094,-0.509766 0.50453,0 1.10219,0.498676 1.32812,1.109376 0.0446,0.120677 0.10173,0.227667 0.16602,0.328124 l 0.0449,3.259766 h -2.457031 v 2.619141 h 7.226561 v -0.0059 c 0.7936,0.002 1.47541,-0.456978 1.89063,-0.953125 0.41522,-0.496146 0.67725,-1.058078 0.90039,-1.675781 0.44626,-1.235406 0.70277,-2.715636 0.88476,-4.185547 0.36401,-2.939818 0.37696,-5.832031 0.37696,-5.832031 h -0.0234 c 0.0297,-0.334774 0.0488,-0.679526 0.0488,-1.035156 0,-2.284645 1.84558,-4.636719 3.63671,-4.636719 1.69117,0 2.39041,-1.298219 1.38086,-2.560547 -0.35221,-0.440387 -0.7738,-0.655727 -1.40234,-0.658203 z m -9.72461,7.244141 h 2.55859 c -0.007,0.13716 -0.0156,0.273086 -0.0156,0.412109 0,3.201521 -0.93595,4.27295 -2.54297,2.921875 z m 3.15625,6.916015 c -0.17298,2.148179 -0.19078,3.705969 -1.22851,4.75586 -0.003,0.0033 -0.003,0.0048 -0.006,0.0078 h -1.92188 c -0.0427,-1.673136 -0.19014,-4.477894 0.84766,-4.501953 0.75641,-0.142409 1.56602,-0.198924 2.30859,-0.261719 z m -25.048827,16.949214 -0.322265,1.26954 c -0.483648,1.91262 -1.245309,2.75959 -2.41211,5.43554 -1.258855,2.88707 -1.282315,3.6195 -0.246094,7.22852 0.820147,4.15032 1.964808,3.90846 3.535157,7.83203 0.917949,4.7127 2.568607,7.08041 6.134765,8.80469 2.333428,1.12826 4.033791,1.50081 6.837891,1.49414 1.262245,-0.003 3.053971,0.68471 3.076172,-0.18164 l 0.664061,-25.91602 c -3.550495,0.91874 -6.626243,0.35 -10.642577,-1.77539 -1.039007,-0.54985 -2.001835,-0.9744 -2.294922,-1.02539 l -3.648437,-2.54297 z"
     transform="scale(0.26458333)" />
  <circle
     style="fill:#ff0000;fill-opacity:1;stroke:none;stroke-width:0.354213;stroke-linecap:round;stroke-opacity:0.87451"
     id="path2105"
     cx="28.660206"
     cy="15.762374"
     r="0.65340954" />
</svg>
