<?xml version="1.0" encoding="UTF-8" standalone="no"?>
<!***REMOVED***Created with Inkscape (http://www.inkscape.org/) -->

<svg
  width="150"
  height="150"
  viewBox="0 0 39.6875 39.6875"
  version="1.1"
  id="svg1168"
  xmlns="http://www.w3.org/2000/svg"
>
  <defs
     id="defs1165" />
  <g
     id="g1938"
     transform="translate(6.12912,-2.2213327)">
    <path
       id="path5121"
       style="stroke-width:0.224011"
       d="m 18.344504,4.6054453 c -4.096712,0 -7.698813,1.6997035 -9.8432731,4.643704 -0.8806317,1.2089727 -1.3935827,2.3358247 -1.7581706,3.8634697 -0.2477562,1.038079 -0.2486343,3.672511 -0.0023,5.776124 0.094093,0.803659 0.1937857,1.740749 0.2211507,2.08231 0.02738,0.341556 0.1043833,1.114039 0.1710353,1.716791 0.3252308,2.940852 0.059118,4.654848 -0.9429937,6.069459 -1.1992975,1.667427 -3.444456,2.232153 -6.22716083,2.943004 V 39.52472 H 10.947681 c 0.394603,-0.84267 0.779349,-1.80144 1.301157,-2.882776 0.769421,-1.661323 1.042145,-2.326993 1.266674,-3.097488 l 0.178851,-0.614257 0.186668,0.275865 c 0.474315,0.700834 1.248071,1.351788 2.079551,1.748975 1.084113,0.517855 1.860325,0.674107 3.033121,0.490577 V 33.09388 C 17.2553,33.358276 15.583149,32.681827 13.748616,30.969729 12.414573,29.724715 11.468865,28.464225 10.441931,26.560509 9.6222723,25.041054 9.1319977,23.875055 8.6787033,22.368762 8.0237465,20.192328 7.7575982,18.418889 7.827664,16.697006 7.947745,13.74603 8.9813909,11.479135 11.076877,9.5719095 c 2.085026,-1.8977014 4.731467,-2.8623913 7.558203,-2.754498 0.120729,0.0046 0.239752,0.011564 0.358623,0.01977 V 4.6233765 C 18.778229,4.613159 18.561848,4.6059051 18.344504,4.6059051 Z m 0.259771,2.6423134 c -0.223589,-0.0021 -0.461618,0.00189 -0.705751,0.0092 -1.745924,0.051836 -2.619212,0.2510144 -4.114045,0.9370167 -1.992496,0.9143785 -3.443029,2.2773596 -4.460255,4.1926666 -0.6774075,1.275473 -0.969682,2.295552 -1.1292016,3.931056 -0.3597457,3.688337 1.5350739,9.3258 4.3154256,12.835932 1.402976,1.771224 2.83618,2.859704 4.492439,3.412434 0.457179,0.152577 0.625861,0.170284 1.399548,0.145748 0.20931,-0.0065 0.408812,-0.01431 0.591268,-0.02345 v -1.045983 c -0.08507,-0.0089 -0.157467,-0.01775 -0.160921,-0.02391 -0.0053,-0.0094 -0.03207,-0.403185 -0.05977,-0.875407 l -0.01425,-0.235404 H 17.76611 l -0.01379,0.235404 c -0.0283,0.472158 -0.05797,0.866059 -0.06575,0.875407 -0.0078,0.0092 -0.281146,-0.09994 -0.60644,-0.242301 -0.668439,-0.292525 -1.429607,-0.770959 -1.821619,-1.144834 -1.34102,-1.201862 -0.271578,-0.235778 -1.262536,-1.219318 0.705587,-0.03374 1.616371,-0.04482 2.434036,-0.05195 0.382316,0 1.166101,-0.04018 1.329663,-0.02989 0,0 -0.05532,-0.879821 0.326898,-0.788051 0.739479,-0.03741 0.783912,-0.649659 0.783913,-0.649659 C 18.867904,27.11946 16.653,27.264881 16.653,27.264881 c -1.243899,0.0471 -2.544835,0.04475 -3.521858,-0.006 -0.504935,-0.237077 -0.563896,-0.5685 -0.928281,-1.417939 0.808151,-0.144053 1.050497,-0.114132 1.690124,-0.115403 0.358897,-7.39e-4 0.746289,8.93e-4 1.145753,0.0032 0,0 2.879758,0.105769 2.891511,-0.08414 0.01818,-0.396473 0.009,-0.982163 0.253794,-0.954488 0.651326,0 0.724372,-0.249008 0.717705,-0.640463 0.06506,-0.185843 -4.290598,-0.08184 -4.290598,-0.08184 l -3.295191,0.02345 c -0.343296,-0.410957 -0.433989,-0.968916 -0.614716,-1.467135 0,-0.03417 1.543611,-0.02667 3.545767,-0.02667 0,0 3.58276,-0.06844 3.573813,-0.258852 0.04788,-0.353348 -0.09573,-0.53907 0.310806,-0.563681 0.412301,-0.0236 0.670984,-0.266514 0.655176,-0.630348 -0.0177,-0.407684 -2.475069,-0.261652 -4.235885,-0.245059 -3.809058,0.0049 -4.400261,-0.01278 -4.402324,-0.134714 -0.118584,-0.308024 -0.1664507,-0.97328 -0.3223001,-1.022074 1.3791561,-0.140014 2.4687161,-0.07961 3.9379531,-0.07264 0,0 3.932711,6e-5 3.952665,-0.253335 0.02278,-0.28959 -0.02342,-0.599644 0.293795,-0.602762 0.306902,-0.003 0.783767,-0.249292 0.778855,-0.573796 0.01373,-0.636113 -5.027154,-0.355404 -5.027154,-0.355404 H 9.7214676 c 0,0 -0.080044,-0.154873 -0.091495,-0.332876 -0.00231,-0.20122 0.086897,-0.758625 0.086897,-0.758625 h 4.0404824 c 0,0 3.926354,0.05201 3.986689,-0.01057 0.02771,-0.284186 -0.122471,-0.798098 0.30345,-0.762303 0.515624,-0.0078 0.748386,-0.323967 0.743452,-0.610578 -0.01997,-0.405841 -2.486146,-0.296974 -4.851521,-0.279541 -2.134121,0.01573 -3.9922217,0.04972 -4.0597929,0.02299 -0.107434,-0.04251 -0.1406082,0.053 0.06161,-0.729659 l 0.2326449,-0.293335 3.691974,0.0018 c 1.352234,7.4e-4 3.842378,0.09334 3.853355,-0.165518 0.0098,-0.318729 0.03684,-0.51326 0.30299,-0.548049 0.562972,0.01326 0.713152,-0.428721 0.720464,-0.683682 0.0074,-0.254267 -4.497956,-0.108046 -4.497956,-0.108046 -1.959512,0 -3.422548,-0.02672 -3.422548,-0.04782 0,-0.02109 -0.01307,0.003 0.14207,-0.278162 0.320263,-0.580743 0.696855,-0.792481 1.018856,-0.914028 0.114215,-0.04311 0.654926,-0.06468 1.726906,-0.06713 0.357329,-7.4e-4 0.773372,5.84e-4 1.252881,0.0037 0,0 2.688859,0.162548 2.75036,-0.05517 0.05982,-0.368449 -0.0016,-0.499485 0.333335,-0.508049 0.305546,-0.0022 0.716454,-0.341973 0.712188,-0.560003 -0.0086,-0.51451 -2.916338,-0.2409206 -2.916338,-0.2409206 -1.056087,0.00409 -2.099999,-0.012626 -2.320013,-0.036782 -0.181839,-0.030446 -0.174254,0.00288 -0.02069,-0.087357 0.916695,-0.581228 2.500605,-1.1058367 3.689216,-1.2220759 l 0.516325,-0.050115 0.01655,0.062069 c 0.0044,0.049578 0.0077,0.098466 0.01149,0.1480468 h 0.988052 l 0.04,-0.2133345 c 0,0 0.125127,0.010417 0.230346,0.018391 V 7.28592 C 18.857198,7.269683 18.725021,7.251148 18.604269,7.248678 Z M 13.90264,33.960551 13.80333,34.351818 c -0.149092,0.589596 -0.384226,0.850506 -0.743912,1.675409 -0.388062,0.889986 -0.395299,1.115981 -0.07586,2.228519 0.131449,0.665192 0.291006,0.965025 0.480922,1.268974 h 5.529226 v -3.671745 c -0.999132,0.20219 -1.898935,0.008 -3.048753,-0.600463 -0.320291,-0.169503 -0.617241,-0.300145 -0.70759,-0.315865 l -1.124604,-0.783913 z" />
    <path
       id="path1370"
       style="fill:#000000;stroke-width:0.120943"
       d="m 18.993733,6.8415599 v 0.4443232 c 0.634418,0.029885 2.146123,0.2580802 2.811926,0.4466857 0.72902,0.2065152 0.788666,0.2493959 0.822744,0.5900711 0.02227,0.2226279 -0.02538,0.3875284 -0.120943,0.4185768 -0.113969,0.03703 -3.13857,-0.2760944 -3.513727,-0.3588147 v 0.5206226 c 0.340438,0.1078725 0.867817,0.1710253 1.751312,0.2662159 1.770437,0.1907539 1.897259,0.1906257 2.1954,-0.00472 0.226441,-0.1483688 0.31653,-0.3119908 0.31653,-0.5751879 V 8.2215469 l 0.501962,0.2799175 c 1.8575,1.0353456 2.663204,2.6851356 2.845704,5.8272336 0.07588,1.306432 0.07481,1.313666 -0.176453,1.179195 -0.718445,-0.384499 -3.120133,-0.0067 -5.094491,0.801248 -0.910733,0.372678 -1.189984,0.429735 -2.249256,0.460858 -0.03363,9.79e-4 -0.05845,0.0012 -0.09071,0.0021 v 0.62243 c 0.837162,-0.02286 1.691085,-0.231121 2.687441,-0.629755 1.981529,-0.792797 4.114117,-1.095782 4.543867,-0.645581 0.08424,0.08825 0.298145,0.813721 0.475269,1.611945 0.356179,1.605161 0.34788,2.118242 -0.06354,3.899468 -0.268859,1.164009 -0.729419,2.140397 -1.104077,2.34091 -0.175548,0.09395 -0.592192,0.116764 -1.239903,0.0678 -0.877006,-0.0663 -1.002573,-0.107706 -1.245807,-0.409364 -0.358088,-0.444099 -1.211252,-0.479826 -1.623048,-0.06803 -0.374793,0.374792 -0.459099,1.554119 -0.158737,2.220202 0.2974,0.659514 0.132882,0.990193 -0.620778,1.24699 -0.31601,0.107675 -0.976041,0.170326 -1.650683,0.183776 v 0.474324 c 0.05266,0.01486 0.09686,0.03145 0.120942,0.05079 0.104307,0.08375 0.151179,0.07672 0.151179,-0.02292 0,-0.07943 0.122454,-0.134483 0.272122,-0.12236 0.149667,0.01213 0.326546,0.0076 0.393064,-0.0099 0.06652,-0.0175 0.175368,-0.04235 0.241887,-0.05528 0.06651,-0.01293 0.218514,-0.06572 0.33779,-0.117399 0.119278,-0.05168 0.250353,-0.06051 0.291256,-0.01961 0.0409,0.0409 0.146613,0.01433 0.235037,-0.05905 0.294978,-0.24481 0.526762,-0.02551 0.526762,0.498416 0,0.361569 -0.05591,0.509116 -0.21165,0.558891 -0.116407,0.0372 -0.333969,0.126276 -0.483536,0.197949 -0.149566,0.07167 -0.307857,0.09442 -0.351727,0.05055 -0.04387,-0.04387 -0.144084,-0.02635 -0.222516,0.03874 -0.07844,0.06509 -0.370809,0.138803 -0.649833,0.163935 -0.279022,0.02513 -0.541932,0.08037 -0.584164,0.122597 -0.02122,0.02121 -0.04369,0.03686 -0.06661,0.0489 v 0.158028 c 1.071686,-0.04559 1.360304,-0.07934 1.360374,-0.160391 4.2e-5,-0.04989 0.12527,-0.09071 0.278263,-0.09071 0.152993,0 0.339917,-0.06166 0.41527,-0.137005 0.26874,-0.268742 0.533414,-0.01748 0.49322,0.468418 -0.03168,0.383071 -0.08033,0.453123 -0.309681,0.445033 -0.161166,-0.0057 -0.272122,0.06177 -0.272122,0.165352 0,0.121332 -0.0926,0.157025 -0.302357,0.116927 -0.20275,-0.03876 -0.302357,-0.0034 -0.302357,0.107006 0,0.09117 -0.124225,0.164643 -0.278264,0.164643 -0.152993,0 -0.3411,0.06284 -0.418103,0.139841 -0.106046,0.10607 -0.181919,0.105313 -0.312515,-0.003 -0.135478,-0.112437 -0.18744,-0.103261 -0.243068,0.04158 -0.03071,0.07997 -0.06642,0.130052 -0.10866,0.154958 v 0.469836 c 1.132171,-0.04551 2.24608,-0.500431 2.582795,-1.129589 0.138942,-0.259617 1.317618,-1.329891 1.317618,-1.196439 0,0.03517 -0.112351,0.279588 -0.24968,0.543063 -0.305842,0.586768 -0.284914,1.379959 0.03803,1.441159 0.164759,0.03122 0.21165,-0.04319 0.21165,-0.335664 0,-0.206645 0.136061,-0.644098 0.302358,-0.972269 0.166297,-0.328171 0.302357,-0.756558 0.302357,-0.951954 0,-0.351649 0.262696,-1.189901 0.90542,-2.887988 0.423744,-1.119536 0.66781,-1.176872 0.523693,-0.123069 -0.113928,0.833059 -0.07291,1.060378 0.191573,1.060378 0.208994,0 0.272001,-0.185087 0.381962,-1.122029 0.05965,-0.508326 0.150327,-0.74634 0.332594,-0.874004 0.13777,-0.0965 0.261068,-0.163206 0.274247,-0.148108 0.03135,0.03593 -0.406419,3.339786 -0.485189,3.661599 -0.03334,0.136198 -0.741671,1.061412 -1.57415,2.056031 -0.832479,0.994619 -1.514707,1.910767 -1.515804,2.035953 -0.0067,0.74654 -1.273968,1.772063 -2.602874,2.106111 -0.432391,0.108689 -0.701297,0.166934 -0.9366,0.18472 v 0.542591 c 0.366236,-0.01891 0.745393,-0.09372 1.169274,-0.224642 1.470606,-0.454225 2.456284,-1.211672 2.816413,-2.164456 0.125185,-0.331199 0.791167,-1.25317 1.669818,-2.311854 l 1.461474,-1.760997 0.156848,-1.020693 c 0.0863,-0.561376 0.259866,-1.837059 0.385743,-2.83484 0.125875,-0.99778 0.341359,-2.222327 0.478575,-2.721218 0.358588,-1.303761 0.434761,-2.77967 0.200312,-3.880343 -0.128029,-0.601059 -0.191809,-1.535195 -0.193227,-2.832005 -0.0053,-4.882914 -1.399583,-6.9643475 -5.40039,-8.062318 -0.64524,-0.1771331 -1.696445,-0.2746328 -2.744836,-0.2875301 z m 4.528514,2.4951595 c -0.155512,0.00347 -0.276338,0.048151 -0.362121,0.1339341 -0.08461,0.084612 -0.145036,0.4904897 -0.145036,0.9732135 v 0.82794 l 0.63495,0.295508 c 1.196205,0.556913 1.537349,0.365409 1.579347,-0.886522 L 25.252537,9.9908037 24.58735,9.6619892 C 24.137077,9.4394797 23.781437,9.3309345 23.522249,9.3367194 Z m -2.259414,3.5567176 c -0.210151,0 -0.270547,0.162788 -0.47834,1.291869 -0.204213,1.109648 -0.276952,1.309827 -0.515424,1.418483 -0.31586,0.143915 -0.322698,0.116208 -0.167952,-0.683612 0.06765,-0.349617 0.05516,-0.549344 -0.03945,-0.627864 -0.250696,-0.20806 -0.414001,0.04405 -0.555818,0.858411 -0.118838,0.682426 -0.180391,0.810275 -0.412435,0.854633 -0.03456,0.0066 -0.06775,0.01202 -0.09968,0.0163 v 0.53456 c 0.387756,-0.01706 0.780625,-0.120331 1.236595,-0.313225 l 0.783297,-0.331176 0.209286,-1.025417 c 0.115107,-0.563998 0.225148,-1.243115 0.244722,-1.509189 0.03046,-0.414124 0.0011,-0.483773 -0.2048,-0.483773 z m 3.004679,4.430482 c -1.444103,0.02429 -4.067726,0.683134 -4.296549,1.110693 -0.07496,0.139999 -0.106511,0.634758 -0.07512,1.177069 0.04793,0.828007 0.101619,1.00118 0.467946,1.510135 0.625397,0.868892 1.151666,1.2326 2.169416,1.499032 1.192652,0.312194 1.968846,0.313077 2.609724,0.0028 0.572445,-0.277116 0.610157,-0.341027 0.848964,-1.445647 0.474919,-2.196797 0.441764,-2.805273 -0.186849,-3.433885 -0.335155,-0.335154 -0.457679,-0.375663 -1.265414,-0.416451 -0.08473,-0.0043 -0.175847,-0.0054 -0.272121,-0.0037 z m 0.186848,0.491568 c 0.246326,-0.01121 0.961901,0.23237 1.097227,0.395428 0.264621,0.318846 0.269053,1.075237 0.01347,2.32083 -0.138635,0.675636 -0.252043,1.259338 -0.252043,1.297067 0,0.03773 -0.160671,0.151503 -0.356924,0.252989 -0.394231,0.203864 -1.473518,0.227419 -2.236265,0.04866 -0.745569,-0.174734 -0.64752,-0.210687 0.382672,-0.140076 1.288402,0.08831 1.616842,-0.08172 1.96745,-1.018804 0.466271,-1.246217 0.536177,-1.734591 0.321728,-2.24784 -0.136801,-0.327405 -0.316021,-0.509451 -0.631646,-0.641328 -0.2424,-0.101281 -0.413099,-0.211696 -0.379365,-0.24543 0.01298,-0.01297 0.03852,-0.01989 0.0737,-0.02149 z m -5.460627,2.545473 v 4.780321 c 0.181956,0.0029 0.366962,0.03058 0.596685,0.0848 0.323871,0.07644 0.436557,0.03942 0.709832,-0.233855 0.286945,-0.286946 0.318256,-0.39501 0.267397,-0.924317 -0.03167,-0.329621 -0.01112,-0.628104 0.04583,-0.663296 0.432658,-0.267398 -0.431703,-1.984695 -0.99896,-1.984695 -0.165126,0 -0.222384,-0.117113 -0.2511,-0.514008 -0.03276,-0.452764 -0.06177,-0.510165 -0.369679,-0.544952 z m 0.808098,5.553696 c -0.18501,0.0071 -0.256791,0.339893 -0.09,0.506686 0.142884,0.142884 0.340152,0.0079 0.340152,-0.232674 0,-0.126583 -0.09524,-0.248525 -0.211651,-0.270942 -0.0133,-0.0026 -0.02617,-0.0036 -0.03851,-0.003 z m 5.152599,0.951717 c -0.0447,-0.0038 -0.100047,0.0067 -0.165824,0.03189 -0.211892,0.08131 -0.723007,1.384025 -0.634006,1.61596 0.155178,0.404384 0.433615,0.119705 0.783059,-0.801011 0.205845,-0.542361 0.210462,-0.83019 0.01677,-0.846839 z m -2.941608,3.749234 c -0.136026,0.0021 -0.348476,0.124472 -0.657628,0.348421 -0.402935,0.291885 -0.500264,0.444551 -0.566684,0.887467 -0.04412,0.29421 -0.02529,0.679905 0.04205,0.856995 0.08465,0.222633 0.210208,0.321963 0.406766,0.321963 0.474014,0 0.795108,-0.469564 0.913924,-1.336515 0.10297,-0.751337 0.08829,-1.081866 -0.138424,-1.078331 z m -1.947609,0.739124 c -0.207967,-0.0085 -0.311816,0.273425 -0.313696,0.849436 -0.0024,0.737597 -0.08205,0.919896 -0.494401,1.133132 -0.10657,0.05511 -0.190227,0.09528 -0.263383,0.122361 v 0.535503 c 0.375518,-0.01336 0.523161,-0.09891 0.89101,-0.466765 0.451274,-0.451272 0.4696,-0.500819 0.4696,-1.273681 0,-0.625765 -0.04303,-0.820674 -0.193698,-0.878491 -0.03396,-0.01303 -0.06572,-0.02029 -0.09543,-0.02149 z m 1.402184,0.275192 c 0.05526,-0.0085 0.09545,0.07775 0.09449,0.214013 -9.78e-4,0.153593 -0.05458,0.361081 -0.119053,0.460859 -0.08921,0.13804 -0.117636,0.08909 -0.119053,-0.204564 -9.79e-4,-0.21226 0.05254,-0.419511 0.119053,-0.460623 0.0085,-0.0052 0.01667,-0.0085 0.02456,-0.0097 z" />
    <circle
       style="fill:#ff0000;fill-opacity:1;stroke:none;stroke-width:0.496294;stroke-linecap:round;stroke-opacity:0.87451"
       id="path2105-6-5"
       cx="21.947151"
       cy="19.659943"
       r="0.91550362" />
  </g>
</svg>
