<?xml version="1.0" encoding="UTF-8" standalone="no"?>
<!***REMOVED***Created with Inkscape (http://www.inkscape.org/) -->

<svg
  width="150"
  height="150"
  viewBox="0 0 39.6875 39.6875"
  version="1.1"
  id="svg1168"
  xmlns="http://www.w3.org/2000/svg"
>
  <defs
    id="defs1165"/>
  <g
    id="layer1"/>
  <path
    style="stroke-width:0.106623"
    d="m 9.5012185,31.941849 4.9e-5,-4.771403 H 19.843749 30.186231 l 5e-5,4.771403 4.7e-5,4.771403 -3.625247,-0.0294 -3.625249,-0.0294 v -2.430243 c 0,-3.010732 -0.06472,-3.297376 -0.942435,-4.174179 -0.673913,-0.673211 -1.32114,-0.960358 -2.164642,-0.960358 -1.088347,0 -2.239404,0.717993 -2.783584,1.736313 -0.227929,0.42652 -0.241892,0.586792 -0.273481,3.138983 l -0.03329,2.689515 -3.618616,0.02939 -3.6186155,0.02938 z m 5.2012275,-1.546041 0.02994,-1.306138 H 12.80988 10.887375 v 1.335254 1.335255 l 1.892568,-0.02912 1.892567,-0.02912 z m 14.09768,0.02666 v -1.33281 h -1.919224 -1.919223 v 1.332794 1.332794 h 1.919223 1.919224 z M 8.2570145,26.372743 c -0.935138,-0.169671 -2.185133,-0.585427 -3.180623,-1.057894 l -0.746365,-0.354231 0.426494,-0.07047 c 2.688516,-0.444245 4.770438,-1.442821 6.0599465,-2.9066 l 0.408899,-0.464161 h 8.577786 8.577787 l 0.716054,0.699236 c 1.518165,1.482503 3.127059,2.219062 5.833987,2.67082 l 0.426494,0.07118 -0.746365,0.352779 c -0.953646,0.450753 -2.575044,0.969059 -3.465266,1.107727 -1.102037,0.171663 -21.9185735,0.127662 -22.8888285,-0.04838 z m 3.1634765,-6.94666 v -1.425275 l 8.396602,2.13e-4 8.396603,2.13e-4 0.03606,1.21897 c 0.01983,0.670434 0.0062,1.312978 -0.03024,1.427877 -0.06511,0.205153 -0.216618,0.208856 -8.432663,0.206095 l -8.366357,-0.0028 z M 10.567502,17.156667 C 9.8687375,16.934204 8.9887375,16.496681 8.3284085,16.043422 l -0.479806,-0.329346 1.119547,-0.1324 c 2.3016335,-0.272195 4.5274225,-1.064277 5.6146835,-1.998075 l 0.443444,-0.380853 h 4.817472 4.817472 l 0.430331,0.368346 c 1.19622,1.023922 3.5173,1.829836 5.876646,2.040462 l 0.835278,0.07457 -0.30216,0.24774 c -0.166188,0.136258 -0.662015,0.43647 -1.101837,0.66714 -1.520452,0.797415 -0.950975,0.757139 -10.595465,0.749349 -7.933922,-0.0064 -8.698634,-0.02245 -9.236512,-0.193688 z m 4.691436,-5.991173 c 0,-1.196614 0.02292,-1.388717 0.159469,-1.336319 0.08771,0.03366 0.579509,0.145998 1.092891,0.249647 1.34818,0.272192 5.350871,0.272266 6.637781,1.06e-4 0.498464,-0.10541 0.990266,-0.216599 1.092891,-0.247088 0.171014,-0.05081 0.186591,0.06088 0.186591,1.337858 v 1.393309 H 19.843749 15.258938 Z M 17.347157,9.518271 C 15.42077,9.256007 13.562767,8.598135 12.207142,7.6983223 l -0.611731,-0.406043 1.058742,-0.132785 c 2.753342,-0.345319 5.295009,-1.69052 6.648462,-3.518761 0.268302,-0.362423 0.513463,-0.662302 0.544801,-0.666397 0.03134,-0.0041 0.140507,0.133954 0.242596,0.306778 0.316987,0.536616 1.249872,1.490159 1.929467,1.972193 1.400681,0.993497 3.166537,1.672933 4.925285,1.895067 0.551306,0.06963 1.001953,0.15288 1.00144,0.184997 -0.002,0.125429 -1.321842,0.9002787 -2.124835,1.2474467 -2.264952,0.979232 -5.521333,1.339467 -8.474212,0.937453 z"
    id="path853"/>
</svg>
