<?xml version="1.0" encoding="UTF-8" standalone="no"?>
<!-- Created with Inkscape (http://www.inkscape.org/) -->

<svg
  width="150"
  height="150"
  viewBox="0 0 39.6875 39.6875"
  version="1.1"
  id="svg1168"
  xmlns="http://www.w3.org/2000/svg"
>
  <defs
    id="defs1165"/>
  <path
    id="rect11852"
    style="stroke-linecap:round;"
    d="M 0 0.4375 L 49.412109 62.134766 L 99.611328 61.458984 L 50.296875 0.4375 L 0 0.4375 z M 100.29102 0.4375 L 79.095703 27.070312 L 104.1582 57.679688 L 150.58203 0.4375 L 100.29102 0.4375 z M 107.30273 55.78125 L 103.19922 60.839844 C 103.32372 61.023917 103.40625 61.224094 103.40625 61.439453 L 103.40625 62.560547 C 103.40625 63.558663 102.69929 64.267578 101.70117 64.267578 L 48.298828 64.267578 C 47.401759 64.267578 46.745914 63.692138 46.621094 62.851562 L 41.871094 56.738281 C 40.892049 58.062582 40.304687 59.687578 40.304688 61.439453 L 40.304688 62.560547 C 40.304688 66.934522 43.924853 70.556641 48.298828 70.556641 L 65.740234 70.556641 A 40.266508 40.266508 0 0 0 34.734375 109.73438 A 40.266508 40.266508 0 0 0 75 150 A 40.266508 40.266508 0 0 0 115.26562 109.73438 A 40.266508 40.266508 0 0 0 84.302734 70.556641 L 101.70117 70.556641 C 106.07515 70.556641 109.69531 66.934522 109.69531 62.560547 L 109.69531 61.439453 C 109.69531 59.23833 108.77146 57.235053 107.30273 55.78125 z M 75 73.929688 C 94.75499 73.929688 110.80273 89.975479 110.80273 109.73047 C 110.80273 129.48545 94.75499 145.54102 75 145.54102 C 55.24501 145.54102 39.197266 129.48545 39.197266 109.73047 C 39.197266 89.975479 55.24501 73.929688 75 73.929688 z M 75 77.183594 C 57.003598 77.183594 42.445312 91.734067 42.445312 109.73047 C 42.445312 127.72687 57.003598 142.28516 75 142.28516 C 92.996398 142.28516 107.54687 127.72687 107.54688 109.73047 C 107.54688 91.734067 92.996398 77.183594 75 77.183594 z M 74.021484 90.320312 L 82.796875 90.320312 L 82.796875 129.14648 L 72.068359 129.14648 L 72.068359 103.70508 C 70.332249 105.02452 68.647568 106.09223 67.015625 106.9082 C 65.401045 107.72418 63.369788 108.50542 60.921875 109.25195 L 60.921875 100.55469 C 64.532983 99.391493 67.337457 97.993271 69.333984 96.361328 C 71.330508 94.729385 72.893012 92.716144 74.021484 90.320312 z "
    transform="scale(0.26458333)"/>
  <g
    id="layer1"/>
</svg>
