<?xml version="1.0" encoding="UTF-8" standalone="no"?>
<!-- Created with Inkscape (http://www.inkscape.org/) -->

<svg
  width="150"
  height="150"
  viewBox="0 0 39.6875 39.6875"
  version="1.1"
  id="svg1168"
  xmlns="http://www.w3.org/2000/svg"
>
  <defs
    id="defs1165"/>
  <g
    id="layer1"/>
  <path
    id="path10277"
    style="display:inline;stroke-width:0.274661"
    d="m 18.62927,2.4292384 c -0.05374,5.675e-4 -0.105745,0.010583 -0.151412,0.032039 -0.155975,0.073287 -0.268608,0.4684614 -0.184485,0.6475057 0.02651,0.056415 0.154402,0.1407623 0.284221,0.1875853 0.12982,0.046823 0.272609,0.068291 0.316776,0.047543 0.137224,-0.064477 0.254219,-0.5018478 0.177767,-0.664559 C 19.008487,2.5438792 18.843616,2.44854 18.68353,2.4318223 c -0.01819,-0.0019 -0.03635,-0.00277 -0.05426,-0.00258 z m 1.960604,0.6568076 c -0.06848,0.00408 -0.13629,0.033335 -0.196887,0.0894 -0.173117,0.1601697 -0.13782,0.4430545 0.07493,0.6015137 0.294594,0.2194111 0.648571,-0.08506 0.490409,-0.4216796 -0.07936,-0.1689114 -0.208518,-0.2635234 -0.338998,-0.2692342 -0.0098,-4.289e-4 -0.01967,-5.834e-4 -0.02946,0 z m -7.950936,0.084749 c -0.03474,5.421e-4 -0.06546,0.00635 -0.09043,0.018087 -0.177629,0.083458 -0.312151,0.5882108 -0.212907,0.7994345 0.0387,0.082367 0.176621,0.1877878 0.306442,0.2346108 0.129818,0.046825 0.308555,0.051317 0.396875,0.00982 0.20214,-0.094983 0.352778,-0.5000249 0.259932,-0.6976319 -0.08063,-0.1716196 -0.408786,-0.347862 -0.624251,-0.3632853 -0.01243,-8.901e-4 -0.02408,-0.00121 -0.03566,-0.00103 z m 6.262667,0.260966 c -0.01485,-2.268e-4 -0.03001,0.00107 -0.04651,0.00413 -0.134312,0.024922 -0.169557,0.2123839 -0.184485,0.9818523 -0.03476,1.791562 -0.168209,2.2465802 -0.736389,2.5135416 -0.348335,0.1636731 -0.947844,0.124301 -1.412834,-0.093018 -0.481584,-0.2250747 -1.640597,-1.1272543 -2.554366,-1.9879923 -0.6208,-0.5847834 -0.69457,-0.6294078 -0.891418,-0.5369182 -0.192392,0.090396 -0.209905,0.1722618 -0.164848,0.7880657 0.07748,1.0589733 0.03485,2.7991805 -0.0832,3.3755046 C 12.675588,9.2189164 12.455633,9.5263561 11.941823,9.7156152 11.579287,9.8491549 11.467209,9.8437786 11.069008,9.6727239 10.817882,9.5648485 10.218761,9.1616114 9.7373065,8.7766545 8.9931825,8.1816759 8.8409918,8.0943304 8.7223812,8.1932276 8.5982654,8.2967199 8.6157613,8.3787439 8.8789608,8.9389184 9.4325369,10.117107 9.7035472,11.288608 9.4505021,11.407502 9.3307051,11.463787 8.9809948,11.159409 8.4453955,10.532103 8.1743783,10.214685 7.9273766,9.9670414 7.896075,9.981749 c -0.031303,0.014708 0.1250649,0.238397 0.3477827,0.497644 0.2715641,0.316105 0.5492757,0.768095 0.8423256,1.37201 0.2403282,0.495292 0.4764487,0.904913 0.5250325,0.910538 0.04859,0.0055 0.2152873,0.280429 0.3705202,0.610816 0.230571,0.490733 0.270548,0.659028 0.218591,0.918807 -0.05837,0.291807 -0.04769,0.324869 0.130225,0.400492 0.243588,0.103541 0.336484,0.236358 0.390674,0.559139 0.03029,0.180458 0.155772,0.308888 0.352433,0.377238 a 0.94030767,6.7090234 64.833392 0 1 -0.01964,-0.02325 0.94030767,6.7090234 64.833392 0 1 -0.0036,-0.01809 0.94030767,6.7090234 64.833392 0 1 -0.03824,-0.04392 0.94030767,6.7090234 64.833392 0 1 5.672522,-3.704167 0.94030767,6.7090234 64.833392 0 1 6.436816,-2.0427694 C 23.146607,9.6602247 23.108032,9.5924207 22.977325,9.4655014 22.825046,9.3176555 22.782656,9.212831 22.790773,9.0066147 22.804394,8.660748 22.709722,8.4664406 22.500868,8.4123357 22.282422,8.3557458 21.782389,7.3086914 21.841477,7.0315414 21.871177,6.8922529 21.777695,6.6453691 21.495245,6.1158349 21.201429,5.5650039 21.071625,5.2141773 20.955226,4.6544256 20.870976,4.2492578 20.774982,3.9303512 20.741803,3.9459418 c -0.03317,0.015588 -3.15e-4,0.3199837 0.07286,0.6764443 0.243327,1.1851807 0.140553,1.6400137 -0.290938,1.2877768 C 20.321587,5.7451479 19.504313,4.4347974 19.200811,3.7888455 19.075397,3.521924 19.005582,3.4333479 18.901605,3.431761 Z m 0.526066,2.0138305 c 0.01564,-0.00735 0.295635,0.5997135 0.622184,1.3492718 0.326549,0.7495584 0.580881,1.3957932 0.56534,1.4355712 -0.0305,0.078063 -1.092967,0.2991979 -1.216463,0.2532144 -0.06743,-0.025105 -0.03902,-3.0061265 0.02894,-3.0380574 z M 14.158742,6.61968 c 0.08156,0.00876 2.03365,2.4449061 2.139404,2.6727052 0.01541,0.033192 -0.299276,0.2144196 -0.699699,0.4025593 C 14.943267,10.002783 14.867663,10.021352 14.844488,9.877879 14.830318,9.790194 14.663765,9.041703 14.473968,8.2144147 14.28417,7.3871262 14.140702,6.670144 14.155641,6.6212304 c 3.37e-4,-0.0011 0.0017,-0.00169 0.0031,-0.00155 z M 8.3198219,7.2697699 c -0.051564,0.00135 -0.1048194,0.013191 -0.1581298,0.038241 -0.09274,0.043574 -0.1920425,0.143283 -0.2201415,0.221175 -0.072315,0.2005108 0.1210765,0.5673114 0.3405476,0.6464718 0.2303941,0.083098 0.2694696,0.065279 0.418579,-0.1948201 C 8.8774625,7.6724652 8.6610661,7.3037114 8.3704648,7.2718368 8.3536997,7.2699969 8.33701,7.2693198 8.3198219,7.2697699 Z M 7.5503599,9.1947168 C 7.4267553,9.1996968 7.3104061,9.280381 7.2609719,9.4174423 7.1953129,9.5994843 7.3280109,9.8814661 7.5100522,9.9471257 7.702394,10.0165 7.8352079,9.9420255 7.9151954,9.7202661 7.9936319,9.5027918 7.9634422,9.4167369 7.7513813,9.2587957 7.696407,9.2178522 7.6354411,9.1972544 7.5751646,9.1947168 c -0.00829,-3.49e-4 -0.016564,-3.323e-4 -0.024805,0 z M 9.981736,9.8835637 c 0.0012,-5.524e-4 0.00235,-3.788e-4 0.00465,0 0.141288,0.023865 2.366581,1.8668683 2.336291,1.9378663 -0.02106,0.04936 -0.237179,0.250622 -0.480591,0.447001 L 11.39922,12.625515 11.241606,12.391938 C 11.072314,12.142104 9.9462839,9.9002182 9.981736,9.8835637 Z m 11.095963,0.7425903 c -0.166638,-2.06e-4 -0.335003,0.0047 -0.504362,0.01395 a 0.94030767,6.7090234 64.833392 0 0 -3.532084,1.474328 0.94030767,6.7090234 64.833392 0 0 -3.691764,1.962155 c -0.93093,1.250319 -1.207613,2.496286 -1.204578,4.807975 0.003,2.319911 0.09738,2.801152 0.991154,5.059639 0.961981,2.430731 1.171908,3.635518 0.810804,4.647779 -2.066148,2.070963 -3.217918,2.221114 -6.2792037,3.784264 -0.9878769,0.548508 -0.9313217,1.025207 -0.00258,1.686719 1.961428,1.823908 5.2702077,3.173952 7.8134767,3.188435 1.048412,0.006 1.419776,-0.165034 2.610693,-1.203542 0.763595,-0.66589 2.109069,-2.171988 2.989999,-3.347082 l 1.601452,-2.136304 -0.182934,1.139465 c -0.10074,0.626713 -0.269082,1.620417 -0.600997,3.156913 -0.324878,1.638356 1.264052,2.097762 2.390035,2.349209 1.096046,0.08159 1.457092,0.0845 2.355929,-0.190685 0.462325,-0.08182 1.017741,-0.614826 1.26814,-0.804603 1.168696,-1.071984 0.0446,-1.671318 -1.748732,-3.997172 -0.51685,-0.670327 -1.287691,-2.471714 -0.99322,-2.065507 0.188924,0.26062 1.565659,1.799815 2.185911,2.133203 0.50832,0.27323 1.494523,0.646637 2.899566,0.869199 1.477587,-0.11389 1.939658,-0.428945 2.428793,-2.164726 0.343014,-2.260256 -0.937236,-2.293858 -1.96474,-1.527556 -1.226463,0.91467 -3.651229,-0.369482 -4.003889,-1.564761 -0.141907,-0.480968 -0.262075,-0.511874 -0.929659,-0.240813 -0.594667,0.241464 -0.93351,0.218874 -1.513085,-0.09973 -0.737954,-0.405686 -0.728042,-0.411485 0.841809,-0.497644 0.873892,-0.04793 1.702352,-0.207976 1.840714,-0.356051 0.138374,-0.148076 0.466468,-0.269751 0.728638,-0.269751 0.262176,0 0.476457,-0.128058 0.476457,-0.284737 0,-0.17173 -1.098453,-0.284737 -2.765206,-0.284737 -1.557653,0 -2.836302,-0.124255 -2.928504,-0.284738 -0.104944,-0.182653 0.786578,-0.285253 2.484603,-0.285253 1.47979,0 2.720262,-0.125548 2.811716,-0.284738 0.08998,-0.156677 0.361177,-0.304374 0.643887,-0.304374 0.282694,0 0.547769,-0.172713 0.547769,-0.407727 0,-0.35939 -0.586697,-0.427364 -3.691762,-0.427364 -2.175558,0 -3.852059,0.258244 -3.85558,-0.284737 -0.0032,-0.489806 0.960662,-0.542602 3.075265,-0.542602 1.640086,0 3.439917,-0.05676 3.508312,-0.33073 0.146203,-0.235453 0.387389,-0.309678 0.553974,-0.303857 0.555185,0.02117 0.627411,-0.09015 0.625284,-0.362252 -0.003,-0.377118 -2.085115,-0.232586 -4.184242,-0.144694 -2.099128,0.08789 -4.364004,0.380954 -4.240568,-0.310058 0.08313,-0.465394 1.395198,-0.231894 3.654558,-0.284738 1.201367,-0.02812 3.595973,0.06915 3.628202,-0.387573 0.01323,-0.187039 0.121576,-0.398767 0.707967,-0.419096 0.361635,-0.01255 0.688424,-0.227457 0.690398,-0.404109 0.0045,-0.422424 -0.07744,-0.204862 -5.040003,-0.209807 -2.492959,-0.0023 -3.952995,0.122747 -3.906222,-0.296622 0.05175,-0.464073 1.273937,-0.480749 3.816822,-0.429431 1.714138,0.03463 3.773665,0.07581 3.773929,-0.229961 2.2e-4,-0.253287 0.387213,-0.180125 0.601515,-0.189135 0.36019,-0.01512 0.581959,0.02557 0.542602,-0.315227 -0.04392,-0.380376 -1.954974,-0.252697 -4.349606,-0.252697 -2.616917,0 -4.510035,0.13421 -4.517553,-0.284737 -0.0082,-0.454518 1.233409,-0.285254 3.824572,-0.285254 2.482058,0 3.987871,-0.107443 3.987871,-0.284738 0,-0.156679 0.1784,-0.284737 0.396875,-0.284737 0.218471,0 0.39739,-0.192342 0.39739,-0.427364 0,-0.36202 -0.647194,-0.427364 -4.236949,-0.427364 -2.648176,0 -4.319114,0.405194 -4.237468,-0.284737 0.06661,-0.562871 1.368679,-0.284737 3.575493,-0.284737 2.206816,0 3.574976,-0.109404 3.574976,-0.285254 0,-0.156679 0.188481,-0.284737 0.419095,-0.284737 0.230608,0 0.370033,-0.160205 0.309541,-0.356051 -0.07917,-0.256386 -1.123876,-0.378562 -3.730004,-0.435632 -2.191134,-0.048 -3.667002,0.140767 -3.59978,-0.352433 0.06836,-0.501523 0.75579,-0.280087 2.893363,-0.280087 1.765455,0 2.913,-0.112084 2.913,-0.284737 0,-0.156679 0.203018,-0.285254 0.45062,-0.285254 0.325398,0 0.369716,-0.08574 0.160713,-0.310575 -0.159041,-0.17108 -1.722593,-0.196834 -3.0856,-0.302824 -1.230964,-0.09573 -2.52153,0.133692 -2.462382,-0.134359 0.137766,-0.624342 0.602848,-0.662936 1.082105,-0.718819 0.66008,-0.07129 1.00302,0.05901 1.006657,-0.245463 -0.799343,-0.494413 -1.819596,-0.705067 -2.909384,-0.706417 z M 20.37335,12.350597 C 18.44588,16.188382 19.155192,23.091309 21.223944,26.449994 18.077514,24.93813 17.588135,15.128902 20.37335,12.350597 Z"/>
</svg>
