<?xml version="1.0" encoding="UTF-8" standalone="no"?>
<!-- Created with Inkscape (http://www.inkscape.org/) -->

<svg
   width="150"
   height="150"
   viewBox="0 0 39.6875 39.6875"
   version="1.1"
   id="svg1168"
   xmlns="http://www.w3.org/2000/svg"
   xmlns:svg="http://www.w3.org/2000/svg">
  <defs
     id="defs1165" />
  <g
     id="layer1" />
  <path
     style="stroke-width:0.0954939"
     d="M 10.294382,23.320933 V 9.8002428 L 9.3394467,8.5184307 8.3845112,7.2366194 V 5.4852198 c 0,-1.0355206 0.043263,-1.8755077 0.1058473,-2.0550313 0.1548459,-0.4441987 0.5072889,-0.5843104 1.4697964,-0.5843104 1.3253021,0 1.5739041,0.2515994 1.5751131,1.5941042 7.22e-4,0.7232292 0.170247,0.8887309 0.910719,0.8887309 0.753762,0 0.846944,-0.1169099 0.908662,-1.1400706 0.07314,-1.2125424 0.152247,-1.284395 1.461044,-1.3270926 0.941217,-0.030707 0.995727,-0.021514 1.277249,0.2153706 0.282662,0.2378451 0.295363,0.2810715 0.327427,1.1141341 0.03987,1.0359352 0.123969,1.1376585 0.940545,1.1376585 0.816577,0 0.900675,-0.1017233 0.940546,-1.1376585 0.03205,-0.8330626 0.04476,-0.876289 0.327428,-1.1141341 0.28189,-0.2371944 0.335252,-0.2461168 1.288127,-0.2153706 0.952875,0.030747 1.00359,0.043173 1.224342,0.3000077 0.201582,0.2345311 0.230292,0.3625049 0.230292,1.0265569 0,0.980598 0.131396,1.1405986 0.936684,1.1405986 0.824856,0 0.904777,-0.093448 0.968037,-1.1318693 0.07557,-1.2403771 0.150015,-1.3032189 1.543971,-1.3032189 1.038716,0 1.059827,0.0044 1.286511,0.2679327 0.201801,0.2346072 0.230467,0.3622899 0.230467,1.0265569 0,0.9638773 0.137265,1.1405986 0.88594,1.1405986 0.782625,0 0.89597,-0.1282402 0.94679,-1.0712173 0.06651,-1.2340408 0.263569,-1.4116178 1.566531,-1.4116178 0.952726,0 1.306161,0.1413948 1.460563,0.5843104 0.06258,0.1795236 0.105846,1.0195107 0.105846,2.0550313 V 7.2366194 L 30.348053,8.5184307 29.393116,9.8002428 V 23.320933 36.841622 h -9.549365 -9.549369 z m 11.936177,-5.649664 c -2.87e-4,-1.201828 -0.04467,-2.331401 -0.09932,-2.52817 -0.262025,-0.94347 -1.278822,-1.699277 -2.280742,-1.695327 -0.960798,0.0038 -1.753982,0.509961 -2.166504,1.382561 -0.217466,0.459998 -0.225757,0.560448 -0.226655,2.745443 l -0.0011,2.267974 h 2.38734 2.387341 l -5.77e-4,-2.172481 z"
     id="path1002" />
</svg>
