<?xml version="1.0" encoding="UTF-8" standalone="no"?>
<!-- Created with Inkscape (http://www.inkscape.org/) -->

<svg
  width="150"
  height="150"
  viewBox="0 0 39.6875 39.6875"
  version="1.1"
  id="svg1168"
  xmlns="http://www.w3.org/2000/svg"
>
  <defs
    id="defs1165"/>
  <g
    id="layer1"
    transform="matrix(0.57086714,0.45900715,-0.45900715,0.57086714,17.902736,-0.66712035)">
    <path
      style="display:inline;fill-opacity:1;stroke-width:0.559462"
      d="m 7.5123652,31.684054 c 0.043637,-0.105098 2.5393188,-0.572133 5.5459438,-1.037872 3.755718,-0.581773 6.689192,-1.498847 9.37308,-2.930238 2.148575,-1.145892 4.183265,-2.034335 4.52153,-1.974317 0.338266,0.06002 1.056612,0.969784 1.596321,2.021694 1.194178,2.327505 1.33389,2.232019 -7.551898,5.161306 L 14.61077,35.030018 11.021891,33.452572 C 9.0480094,32.584977 7.4687179,31.789151 7.5123629,31.684059 Z M 4.7611844,26.382198 3.9659102,22.952558 6.2633921,17.420579 8.5608739,11.888604 13.555603,8.5346118 c 2.7471,-1.844694 5.270335,-3.224756 5.607199,-3.06681 0.701303,0.328844 9.77325,7.8267282 9.915474,8.1950622 0.146345,0.379002 -1.596503,7.335073 -2.21242,8.830233 -0.978155,2.374281 -8.022888,5.599252 -14.626379,6.69558 -3.2339169,0.536902 -6.0605636,0.89676 -6.281435,0.799677 -0.220875,-0.09708 -0.7594594,-1.71985 -1.1968576,-3.606156 z M 29.063324,25.668897 c -0.68965,-1.50211 -0.617111,-2.581114 0.445765,-6.63045 0.698204,-2.66002 1.383821,-4.877838 1.523593,-4.928497 0.139776,-0.05066 1.251955,-0.237898 2.47152,-0.416099 l 2.217388,-0.324002 -0.437758,3.356896 c -0.356844,2.736432 -0.842506,4.066034 -2.627577,7.193465 -1.204404,2.110107 -2.320197,3.77045 -2.479533,3.689655 -0.159325,-0.08079 -0.66037,-0.954232 -1.113406,-1.940968 z M 27.727696,10.354153 C 21.134513,4.8875728 21.270269,5.0368538 22.599655,4.7152838 c 2.115321,-0.511674 8.041056,2.47137 10.107777,5.0883142 l 1.742629,2.206565 -1.945779,0.1531 c -2.177508,0.171337 -2.564997,0.02458 -4.776586,-1.80911 z"
      id="path7197"/>
  </g>
</svg>
