<?xml version="1.0" encoding="UTF-8" standalone="no"?>
<!***REMOVED***Created with Inkscape (http://www.inkscape.org/) -->

<svg
  width="150"
  height="150"
  viewBox="0 0 39.6875 39.6875"
  version="1.1"
  id="svg1168"
  xmlns="http://www.w3.org/2000/svg"
>
  <defs
     id="defs1165" />
  <g
     id="layer1" />
  <path
     style="stroke-width:0.067402"
     d="m 2.6045723,24.091941 0.017677,-7.749373 0.153452,-0.153516 C 2.9081116,16.056587 3.01238,16.032294 3.5360576,16.0119 c 1.0436866,-0.04064 1.2093547,0.0747 1.2093547,0.841998 0,0.62415 0.085287,0.817589 0.3852909,0.873869 0.3334086,0.06255 0.7759744,-0.01342 0.8761335,-0.150396 0.053217,-0.07278 0.086618,-0.323408 0.086618,-0.649976 0,-0.497598 0.012587,-0.544091 0.1970223,-0.72854 0.1918886,-0.191889 0.2148495,-0.197021 0.8814099,-0.197021 0.6665633,0 0.6895235,0.0051 0.8814122,0.197021 0.1852346,0.185237 0.1970222,0.229586 0.1970222,0.741422 0,0.692812 0.094224,0.814009 0.632852,0.814009 0.5670409,0 0.6638347,-0.114993 0.7015451,-0.833445 0.028715,-0.547166 0.043324,-0.594987 0.2295331,-0.751675 0.1794165,-0.150968 0.2580115,-0.167332 0.8036585,-0.167332 0.706059,0 0.95213,0.09551 1.062606,0.412423 0.05296,0.151951 0.07471,2.427602 0.07471,7.820683 v 7.606373 H 7.1710488 2.5868706 Z m 10.4987057,-1.7939 v -9.543272 l -0.67402,-0.904738 -0.674019,-0.904739 V 9.7091067 c 0,-0.7308985 0.03053,-1.3237846 0.07471,-1.450497 0.109294,-0.3135281 0.358058,-0.4124225 1.037422,-0.4124225 0.935435,0 1.110905,0.1775862 1.111758,1.1251622 5.1e-4,0.5104753 0.120165,0.6272913 0.642812,0.6272913 0.532025,0 0.597796,-0.08252 0.641357,-0.804693 0.05163,-0.8558456 0.107461,-0.9065622 1.031245,-0.936699 0.664337,-0.021677 0.702812,-0.015188 0.901517,0.152014 0.199512,0.1678782 0.208475,0.198388 0.231108,0.7863873 0.02814,0.7311907 0.08751,0.8029907 0.663862,0.8029907 0.576361,0 0.63572,-0.07181 0.663863,-0.8029907 0.02262,-0.5879993 0.0316,-0.6185091 0.231107,-0.7863873 0.198966,-0.167417 0.23663,-0.1737152 0.909194,-0.152014 0.672566,0.021707 0.708362,0.030478 0.864175,0.2117541 0.142283,0.1655383 0.162546,0.2558653 0.162546,0.7245717 0,0.6921322 0.09274,0.8050662 0.661138,0.8050662 0.582206,0 0.638616,-0.06595 0.683267,-0.7989044 0.05333,-0.875493 0.105885,-0.9198485 1.089776,-0.9198485 0.733154,0 0.748055,0.00314 0.908056,0.189115 0.142437,0.165592 0.16267,0.2557143 0.16267,0.7245717 0,0.6803312 0.09689,0.8050662 0.625321,0.8050662 0.552397,0 0.632399,-0.09052 0.668269,-0.7560954 0.04695,-0.8710195 0.186034,-0.9963581 1.1057,-0.9963581 0.672461,0 0.921924,0.099797 1.030905,0.4124225 0.04418,0.1267124 0.07471,0.7195985 0.07471,1.450497 v 1.2361853 l -0.674021,0.904739 -0.67402,0.904738 v 9.543272 9.543272 h -6.740202 -6.740205 z m 8.424879,-3.987688 c -2.02e-4,-0.848282 -0.03153,-1.645567 -0.0701,-1.78445 -0.184944,-0.665927 -0.902628,-1.199397 -1.60981,-1.19661 -0.678156,0.0028 -1.238009,0.359945 -1.529177,0.97585 -0.153494,0.324678 -0.159345,0.395579 -0.159979,1.937809 l -7.64e-4,1.600798 h 1.685049 1.685052 l -4.08e-4,-1.533397 z m 6.40357,5.808242 v -7.722719 l 0.197021,-0.197021 c 0.19189,-0.191889 0.214849,-0.197021 0.881411,-0.197021 0.666563,0 0.689522,0.0051 0.881412,0.197021 0.185236,0.185237 0.197022,0.229586 0.197022,0.741422 0,0.690219 0.09509,0.814009 0.625321,0.814009 0.552397,0 0.632399,-0.09051 0.668269,-0.756093 0.04686,-0.869651 0.186653,-0.996359 1.099183,-0.996359 0.928349,0 1.112132,0.171461 1.112132,1.037562 0,0.445486 0.01766,0.517414 0.149802,0.609967 0.196468,0.13761 0.784567,0.13761 0.981036,0 0.129803,-0.09091 0.149802,-0.166052 0.149802,-0.56286 0,-0.61907 0.097,-0.873546 0.377666,-0.990817 0.266683,-0.111427 1.231067,-0.125734 1.459499,-0.02166 0.371846,0.169423 0.351934,-0.263104 0.371366,8.066597 l 0.01796,7.700683 h -4.584452 -4.584454 z"
     id="path1002" />
</svg>
