<?xml version="1.0" encoding="UTF-8" standalone="no"?>
<!***REMOVED***Created with Inkscape (http://www.inkscape.org/) -->

<svg
  width="150"
  height="150"
  viewBox="0 0 39.6875 39.6875"
  version="1.1"
  id="svg1168"
  xmlns="http://www.w3.org/2000/svg"
>
  <defs
    id="defs1165"/>
  <path
    id="rect11852"
    style="stroke-linecap:round;"
    d="M 0 0.4375 L 49.412109 62.134766 L 99.611328 61.458984 L 50.296875 0.4375 L 0 0.4375 z M 100.29102 0.4375 L 79.095703 27.070312 L 104.1582 57.679688 L 150.58203 0.4375 L 100.29102 0.4375 z M 107.30273 55.78125 L 103.19922 60.839844 C 103.32372 61.023917 103.40625 61.224094 103.40625 61.439453 L 103.40625 62.560547 C 103.40625 63.558663 102.69929 64.267578 101.70117 64.267578 L 48.298828 64.267578 C 47.401759 64.267578 46.745914 63.692138 46.621094 62.851562 L 41.871094 56.738281 C 40.892049 58.062582 40.304687 59.687578 40.304688 61.439453 L 40.304688 62.560547 C 40.304688 66.934522 43.924853 70.556641 48.298828 70.556641 L 65.740234 70.556641 C 47.573014 74.849892 34.738734 91.066758 34.734375 109.73438 C 34.734865 131.97226 52.762113 149.99951 75 150 C 97.237885 149.99951 115.26514 131.97225 115.26562 109.73438 C 115.26598 91.079454 102.45288 74.866882 84.302734 70.556641 L 101.70117 70.556641 C 106.07515 70.556641 109.69531 66.934522 109.69531 62.560547 L 109.69531 61.439453 C 109.69531 59.23833 108.77146 57.235053 107.30273 55.78125 z M 75 73.929688 C 94.75499 73.929688 110.80273 89.975478 110.80273 109.73047 C 110.80273 129.48545 94.75499 145.54102 75 145.54102 C 55.24501 145.54102 39.197266 129.48545 39.197266 109.73047 C 39.197266 89.975478 55.24501 73.929687 75 73.929688 z M 75 77.183594 C 57.003598 77.183594 42.445312 91.734066 42.445312 109.73047 C 42.445312 127.72687 57.003598 142.28516 75 142.28516 C 92.996398 142.28516 107.54687 127.72687 107.54688 109.73047 C 107.54688 91.734066 92.996398 77.183594 75 77.183594 z M 88.066406 88.341797 C 88.749749 88.335929 89.428962 88.38882 89.855469 88.503906 C 92.418317 89.196259 94.287138 90.986095 95.09375 93.519531 C 95.340931 94.295771 95.352243 94.386337 95.351562 95.605469 C 95.350928 96.782104 95.334903 96.937044 95.126953 97.597656 C 94.503996 99.576352 93.172649 101.21759 91.515625 102.05078 C 90.024635 102.8005 88.44388 103.046 86.845703 102.77734 C 86.504487 102.72008 85.958014 102.57759 85.632812 102.45898 L 85.041016 102.24219 L 84.957031 101.79297 C 84.479613 99.277746 83.292696 97.323707 81.378906 95.902344 L 80.791016 95.464844 L 80.84375 94.875 C 81.11255 91.908347 83.284678 89.363421 86.255859 88.535156 C 86.695711 88.412548 87.383064 88.347665 88.066406 88.341797 z M 62.357422 88.470703 C 66.09946 88.437785 69.450759 91.374518 69.677734 95.263672 L 69.726562 96.109375 L 68.970703 96.857422 C 67.673324 98.140447 66.880801 99.490588 66.503906 101.06055 C 66.413009 101.4392 66.328135 101.79018 66.314453 101.83984 C 66.273483 101.98838 65.457056 102.41543 64.748047 102.66016 C 63.647388 103.05209 61.726247 102.99717 61.083984 102.93945 C 59.239598 102.76503 58.373551 102.00129 57.367188 101.04297 C 56.481845 100.19989 55.891515 99.247488 55.455078 97.962891 C 55.175658 97.140435 55.170589 97.104936 55.166016 95.8125 C 55.161858 94.583054 55.175405 94.450003 55.386719 93.78125 C 56.22927 91.112219 58.119269 89.30976 60.738281 88.673828 C 61.280845 88.542089 61.822845 88.475406 62.357422 88.470703 z M 75.310547 96.742188 C 75.854044 96.729679 76.404178 96.774968 76.947266 96.882812 C 79.738726 97.437122 82.014408 99.712891 82.595703 102.5293 C 83.398501 106.41886 80.952896 110.25365 77.113281 111.12695 C 76.533521 111.25882 75.277216 111.34297 74.736328 111.28711 C 71.702717 110.97386 69.194247 108.82016 68.390625 105.83789 C 68.123979 104.84837 68.125928 103.1354 68.394531 102.17188 C 68.82152 100.64095 69.655486 99.347404 70.841797 98.375 C 72.095685 97.347209 73.680055 96.779712 75.310547 96.742188 z M 85.166016 104.4043 L 88.675781 104.4043 C 90.753422 104.4043 92.422589 104.43985 92.761719 104.49023 C 96.127781 104.98984 99.064764 107.45166 100.17188 110.70117 C 100.65339 112.11444 100.65421 112.11925 100.68555 116.90039 L 100.71289 121.30664 L 100.0918 121.58984 C 97.785057 122.64605 94.737908 123.32165 91.123047 123.57617 L 90.345703 123.63086 L 90.345703 122.10938 C 90.345711 121.16288 90.298372 120.25025 90.220703 119.69336 C 89.748731 116.30946 87.648792 113.30314 84.525391 111.53711 C 84.03172 111.25799 82.707766 110.70117 82.537109 110.70117 C 82.398816 110.70117 82.445656 110.57694 82.662109 110.375 C 82.923842 110.1308 83.650391 109.22334 83.650391 109.14062 C 83.650391 109.10661 83.701725 109.02229 83.763672 108.95312 C 84.333069 108.31676 85.166016 105.8004 85.166016 104.71484 L 85.166016 104.4043 z M 61.658203 104.62891 L 65.533203 104.62891 L 65.587891 105.18555 C 65.774939 107.08324 66.775934 109.29388 68.003906 110.51953 C 68.146357 110.66175 68.263672 110.80437 68.263672 110.83789 C 68.263672 110.87153 68.110121 110.94437 67.923828 111 C 67.462631 111.13788 66.167468 111.74927 65.675781 112.06055 C 63.872489 113.20215 62.471915 114.73936 61.570312 116.56641 C 60.693723 118.34277 60.373047 119.86571 60.373047 122.25195 L 60.373047 123.75586 L 59.955078 123.74609 C 59.724943 123.74005 59.069843 123.69104 58.5 123.63477 L 58.5 123.63281 C 57.175087 123.50185 55.328796 123.1956 53.757812 122.8457 C 52.570081 122.58117 52.171801 122.47787 50.1875 121.91602 L 49.287109 121.66016 L 49.316406 117.18945 C 49.34891 112.33782 49.349432 112.334 49.830078 110.92383 C 50.928352 107.70029 53.759665 105.29357 57.105469 104.74023 C 57.62179 104.65478 58.704786 104.62906 61.658203 104.62891 z M 75.552734 111.82031 C 77.185049 111.82063 78.805696 111.84534 79.361328 111.89453 C 81.929653 112.12191 84.21375 113.34308 85.849609 115.36133 C 86.959445 116.73058 87.670251 118.44454 87.84375 120.17188 C 87.889331 120.62582 87.927734 122.75174 87.927734 124.89453 L 87.927734 128.78906 L 87.388672 129.03516 C 85.431572 129.93018 83.189539 130.51318 80.316406 130.87109 C 78.77643 131.06294 74.7044 131.14655 73.316406 131.01562 C 69.820056 130.68597 66.896113 130.1022 63.5 129.05273 L 63.021484 128.9043 L 62.998047 125.12109 C 62.968567 120.38912 63.047903 119.41069 63.578125 118.00195 C 64.441509 115.70814 66.034811 113.93465 68.201172 112.85742 C 69.351086 112.28562 70.392556 111.99536 71.667969 111.89258 C 72.275611 111.84361 73.92042 111.81999 75.552734 111.82031 z "
    transform="scale(0.26458333)"/>
  <g
    id="layer1"/>
</svg>
