<?xml version="1.0" encoding="UTF-8" standalone="no"?>
<!-- Created with Inkscape (http://www.inkscape.org/) -->

<svg
  width="150"
  height="150"
  viewBox="0 0 39.6875 39.6875"
  version="1.1"
  id="svg1168"
  xmlns="http://www.w3.org/2000/svg"
>
  <defs
    id="defs1165"/>
  <path
    id="path835"
    style="stroke-width:0.439397"
    d="M 75.527344 10.742188 C 75.171785 10.758984 74.820815 11.338992 74.582031 12.5 C 74.383217 13.46667 73.80021 14.577668 73.287109 14.96875 C 72.666692 15.441625 72.434191 15.983278 72.591797 16.585938 C 72.878315 17.681568 72.784057 17.77143 64.753906 24.017578 L 58.558594 28.835938 L 53.851562 30.015625 L 49.144531 31.195312 L 47.884766 30.296875 C 46.334959 29.193311 45.581586 29.94501 46.955078 31.224609 C 47.464116 31.69885 47.880859 32.373949 47.880859 32.724609 C 47.880859 33.087579 49.588841 34.221245 51.847656 35.355469 L 55.816406 37.347656 L 55.693359 42.912109 L 55.570312 48.476562 L 47.962891 50.380859 L 40.353516 52.285156 L 39.03125 51.341797 C 38.016806 50.619431 37.586472 50.519611 37.191406 50.916016 C 36.796905 51.311864 36.894706 51.609262 37.609375 52.179688 C 38.122883 52.589559 38.668968 53.460118 38.822266 54.115234 C 39.028889 54.998238 39.894744 55.77803 42.171875 57.130859 C 46.780158 59.868587 46.682608 60.14437 38.949219 66.125 C 32.906747 70.797955 32.542569 71.005158 29.076172 71.796875 C 25.559704 72.600214 25.456506 72.600633 24.568359 71.796875 C 23.797076 71.098857 23.600517 71.070683 23.267578 71.609375 C 23.002047 72.039009 23.142161 72.529568 23.701172 73.128906 C 24.155459 73.615974 24.653651 74.525911 24.808594 75.150391 C 25.026213 76.027868 26.181884 76.908016 29.894531 79.025391 L 34.699219 81.765625 L 34.697266 87.777344 L 34.695312 93.789062 L 29.240234 116.19336 C 25.291566 132.4116 23.927293 138.69052 24.298828 138.92969 C 25.095619 139.44269 125.6543 139.31864 125.6543 138.80469 C 125.6543 138.56702 123.17774 128.47118 120.15039 116.36914 L 114.64453 94.365234 L 114.76758 88.144531 L 114.88867 81.923828 L 119.91016 79.068359 C 123.99904 76.742378 124.99428 75.979004 125.26758 74.957031 C 125.45219 74.266735 125.94616 73.322454 126.36523 72.859375 C 126.94052 72.223692 127.00351 71.894135 126.62109 71.511719 C 126.23868 71.129325 125.89871 71.199384 125.23633 71.798828 C 124.38742 72.567078 124.18017 72.546855 118.83008 71.207031 L 113.30078 69.822266 L 108.24805 65.615234 C 101.93179 60.35691 101.86765 60.000542 106.75977 57.269531 C 108.57227 56.257703 110.27007 55.015591 110.5332 54.509766 C 110.79633 54.003944 111.37623 53.187977 111.82031 52.697266 C 112.98022 51.415594 112.07699 50.633695 110.71289 51.738281 C 109.70544 52.554073 109.60173 52.541482 102.4043 50.740234 L 95.115234 48.916016 L 94.992188 43.097656 L 94.871094 37.277344 L 99.056641 35.320312 C 102.15675 33.871628 103.24414 33.151446 103.24414 32.542969 C 103.24414 32.090954 103.68867 31.419716 104.23242 31.050781 C 104.94737 30.565695 105.09081 30.241931 104.74805 29.884766 C 104.3995 29.521565 103.96989 29.629919 103.12695 30.292969 L 101.98242 31.195312 L 97.230469 30.029297 C 94.617409 29.388673 91.985028 28.558821 91.380859 28.183594 C 90.776691 27.80837 87.552454 25.239363 84.214844 22.474609 C 80.32924 19.255922 78.229955 17.229916 78.378906 16.841797 C 78.699123 16.007326 78.224524 14.916016 77.541016 14.916016 C 77.213966 14.916016 76.814663 14.039178 76.59375 12.830078 C 76.337601 11.428042 75.93031 10.723144 75.527344 10.742188 z M 62.15625 37.070312 L 65.136719 37.070312 L 65.136719 42.007812 L 62.15625 42.007812 L 62.15625 37.070312 z M 66.316406 37.070312 L 69.298828 37.070312 L 69.298828 42.007812 L 66.316406 42.007812 L 66.316406 37.070312 z M 80.701172 37.070312 L 83.681641 37.070312 L 83.681641 42.007812 L 80.701172 42.007812 L 80.701172 37.070312 z M 84.861328 37.070312 L 87.84375 37.070312 L 87.84375 42.007812 L 84.861328 42.007812 L 84.861328 37.070312 z M 60.685547 59.189453 L 63.666016 59.189453 L 63.666016 64.126953 L 60.685547 64.126953 L 60.685547 59.189453 z M 64.845703 59.189453 L 67.828125 59.189453 L 67.828125 64.126953 L 64.845703 64.126953 L 64.845703 59.189453 z M 82.171875 59.189453 L 85.152344 59.189453 L 85.152344 64.126953 L 82.171875 64.126953 L 82.171875 59.189453 z M 86.332031 59.189453 L 89.314453 59.189453 L 89.314453 64.126953 L 86.332031 64.126953 L 86.332031 59.189453 z M 44.675781 81.955078 L 47.65625 81.955078 L 47.65625 86.892578 L 44.675781 86.892578 L 44.675781 81.955078 z M 48.835938 81.955078 L 51.818359 81.955078 L 51.818359 86.892578 L 48.835938 86.892578 L 48.835938 81.955078 z M 62.511719 81.955078 L 65.492188 81.955078 L 65.492188 86.892578 L 62.511719 86.892578 L 62.511719 81.955078 z M 66.671875 81.955078 L 69.654297 81.955078 L 69.654297 86.892578 L 66.671875 86.892578 L 66.671875 81.955078 z M 80.878906 81.955078 L 83.859375 81.955078 L 83.859375 86.892578 L 80.878906 86.892578 L 80.878906 81.955078 z M 85.039062 81.955078 L 88.021484 81.955078 L 88.021484 86.892578 L 85.039062 86.892578 L 85.039062 81.955078 z M 98.181641 81.955078 L 101.16211 81.955078 L 101.16211 86.892578 L 98.181641 86.892578 L 98.181641 81.955078 z M 102.3418 81.955078 L 105.32422 81.955078 L 105.32422 86.892578 L 102.3418 86.892578 L 102.3418 81.955078 z "
    transform="scale(0.26458333)"/>
  <g
    id="layer1"/>
</svg>
