<?xml version="1.0" encoding="UTF-8" standalone="no"?>
<!***REMOVED***Created with Inkscape (http://www.inkscape.org/) -->

<svg
  width="150"
  height="150"
  viewBox="0 0 39.6875 39.6875"
  version="1.1"
  id="svg1168"
  xmlns="http://www.w3.org/2000/svg"
>
  <defs
    id="defs1165"/>
  <g
    id="layer1"/>
  <path
    style="stroke-width:0.0486365"
    d="m 19.516188,39.524802 c -0.374721,-0.09558 -0.749964,-0.269716 -1.635865,-0.75914 -1.58979,-0.878299 -1.982516,-1.543754 -1.498186,-2.538584 0.41877,-0.860176 2.203895,-2.214323 3.407872,-2.585124 0.982363,-0.302549 1.669978,-0.242007 2.406452,0.211878 1.092138,0.673081 3.319426,1.211438 4.633978,1.120078 2.028623,-0.140986 3.669384,-1.144757 5.163061,-3.15861 1.197309,-1.614275 2.025316,-3.482815 2.471127,-5.576549 0.113873,-0.534814 0.1296,-0.719137 0.130724,-1.532054 0.0016,-1.013768 -0.04019,-1.271724 -0.316281,-1.96311 -0.435447,-1.090336 -1.350746,-2.041996 -2.485873,-2.584641 -0.657917,-0.314513 -1.070105,-0.403986 -1.863516,-0.404512 -0.602547,-3.85e-4 -0.731008,0.01477 -1.116156,0.131781 -0.806212,0.244934 -1.661742,0.750134 -2.791553,1.648449 -0.694514,0.552209 -2.105645,1.939046 -2.764559,2.716967 l -0.438477,0.517666 -1.32463,-1.271533 c -0.728548,-0.699343 -1.354805,-1.32625 -1.391679,-1.393125 -0.142029,-0.257574 -0.07484,-0.404757 0.586891,-1.285771 2.246836,-2.991374 5.180156,-5.064059 8.024247,-5.669937 0.674697,-0.143731 2.002128,-0.183126 2.675013,-0.07939 2.10813,0.325007 3.851871,1.497814 5.17492,3.480542 0.367688,0.551027 0.590894,0.960044 0.798475,1.46318 0.527952,1.279659 0.725716,2.354303 0.72498,3.939565 -0.0024,4.342749 -1.996416,8.001237 -6.025031,11.052141 -2.563426,1.941304 -5.46098,3.162602 -8.915972,3.758021 -0.359215,0.06191 -0.546797,0.12625 -0.851139,0.291952 -0.214702,0.1169 -0.59829,0.282516 -0.852413,0.368036 -0.595996,0.200567 -1.377367,0.241868 -1.92641,0.101822 z M 15.192795,38.149204 C 10.361836,37.03515 6.4997671,34.577607 3.9275436,30.980819 2.4013438,28.846701 1.5758682,26.814174 1.3508823,24.636469 c -0.059017,-0.5714 -0.033385,-2.013383 0.041454,-2.334311 0.036945,-0.158302 0.053005,-0.128359 0.3001816,0.559321 0.6379174,1.774836 1.2187479,2.867394 2.1444897,4.033866 0.4343789,0.54733 1.4425946,1.565581 2.0149759,2.035019 0.7717511,0.632959 0.83989,0.701898 1.278976,1.293927 1.6028196,2.161116 4.6107825,4.124647 8.7998135,5.744321 l 0.105755,0.04089 -0.09891,0.257946 c -0.134482,0.350732 -0.09704,0.778571 0.130384,1.489601 0.09688,0.302909 0.169394,0.568057 0.161127,0.589218 -0.0082,0.02116 -0.474631,-0.06751 -1.036379,-0.19706 z M 12.175798,31.099557 C 10.082287,30.938027 7.9975975,30.183468 6.4868402,29.040416 5.9993693,28.671592 4.5258182,27.233893 4.0390358,26.652162 2.8710934,25.256424 2.1708042,23.608666 1.9203207,21.666909 1.8318975,20.981441 1.7681334,19.682847 1.8139391,19.500343 c 0.030695,-0.122182 0.067957,-0.07289 0.4216023,0.557388 0.8535682,1.521222 1.2731293,2.112682 2.0385037,2.87373 0.2824685,0.280876 0.7208108,0.658663 0.9740949,0.839524 0.5640351,0.402763 1.5497676,0.896574 2.2410934,1.122701 0.4483578,0.146654 0.5675555,0.210391 0.9090017,0.486054 1.1083954,0.894854 2.1740779,1.333046 3.4949669,1.437069 1.275614,0.100458 2.564431,-0.151361 4.114301,-0.803884 0.346573,-0.145911 0.646343,-0.258753 0.666161,-0.250758 0.01978,0.008 0.573544,0.612258 1.230504,1.342808 l 1.194468,1.328272 -0.483238,0.457405 c -1.053159,0.996857 -2.413082,1.718505 -3.836017,2.035596 -0.493017,0.109863 -1.654899,0.236742 -1.994099,0.217758 -0.06685,-0.0037 -0.341145,-0.02374 -0.609484,-0.04444 z m 12.792944,-0.61237 c -0.08024,-0.0094 -0.353827,-0.04103 -0.607958,-0.07039 -2.050513,-0.236891 -4.138358,-1.39094 -6.03113,-3.333685 -0.999347,-1.025728 -1.869434,-2.155832 -2.555443,-3.319101 l -0.355157,-0.60223 1.321649,-1.051503 c 0.726902,-0.578327 1.45136,-1.153723 1.6099,-1.278658 l 0.288252,-0.227154 0.53118,0.786563 c 0.659459,0.976511 0.95048,1.341464 1.540732,1.932123 1.109289,1.110058 2.491465,2.015208 3.665017,2.400131 0.76145,0.249753 1.104376,0.296928 2.125012,0.292332 0.894809,-0.004 0.980028,-0.01264 1.507735,-0.15237 1.884932,-0.499098 3.529578,-1.760871 4.822193,-3.699588 0.191079,-0.286587 0.357316,-0.532009 0.369412,-0.545384 0.04771,-0.05274 0.321249,0.33854 0.527043,0.753867 0.391144,0.789427 0.594619,1.948655 0.542026,3.088035 -0.04343,0.940139 -0.2519,1.358335 -1.074709,2.155583 -0.966833,0.9368 -2.061296,1.69708 -3.128648,2.173354 -0.927949,0.41407 -1.627716,0.570323 -3.049267,0.680881 -0.588251,0.04575 -1.721274,0.05526 -2.047839,0.01719 z m 2.96684,-5.348957 c -1.128631,-0.429898 -2.311328,-1.108533 -2.902878,-1.665679 l -0.290483,-0.273588 1.543423,-1.264552 c 0.848877,-0.695503 1.580241,-1.282723 1.62524,-1.304932 0.05941,-0.02931 0.169861,0.02116 0.402987,0.184128 1.112256,0.777521 2.140036,0.796193 3.136575,0.05698 l 0.304849,-0.22613 0.607088,0.394561 c 0.333891,0.217008 0.607087,0.4066 0.607087,0.421316 0,0.0914 -1.431432,1.789428 -1.918317,2.275596 -0.639017,0.638075 -1.136796,0.998654 -1.871807,1.355877 -0.550634,0.267613 -0.653028,0.271435 -1.243764,0.04642 z M 8.8700338,24.652747 C 7.2080228,24.40768 5.9107167,23.771467 4.7190566,22.617064 2.9366533,20.890376 1.9393154,18.537931 1.9393154,16.060413 c 0,-1.07485 0.2188784,-2.815906 0.4825816,-3.838635 C 2.9894604,10.020545 4.7255912,7.4291678 6.8773516,5.5714984 9.5961375,3.2242987 12.975317,1.6296379 16.627573,0.97029534 c 0.63666,-0.11493749 0.761973,-0.15524492 1.288865,-0.41458271 0.778894,-0.38336915 1.276713,-0.50229387 1.969787,-0.47055503 0.640718,0.02934254 1.102011,0.17359014 1.785995,0.55848851 0.273425,0.15386445 0.678327,0.37769129 0.899777,0.49739529 0.532762,0.2879723 1.105895,0.8459418 1.221635,1.1893223 0.211869,0.6285697 0.0447,1.0649421 -0.711325,1.8567928 -1.005376,1.0530192 -1.91876,1.6198488 -3.097311,1.9221467 C 19.090804,6.3386615 18.614417,6.2755699 17.821053,5.8227114 17.213934,5.4761624 16.695799,5.2670468 15.988746,5.0832125 14.163701,4.6086947 12.849054,4.5955899 11.580316,5.0392738 9.8025954,5.6609382 8.1562165,7.3245211 6.8468935,9.8221497 5.7926582,11.833174 5.2643817,14.190764 5.4931966,15.863479 c 0.076659,0.560617 0.3576246,1.359693 0.642071,1.826245 0.5057139,0.829478 1.3875883,1.540583 2.3934861,1.930002 0.7509052,0.290706 1.3297816,0.410481 1.7993813,0.372313 0.911367,-0.07407 2.229131,-0.714528 3.405555,-1.655147 0.663201,-0.530267 2.011305,-1.935535 2.972995,-3.099068 0.103613,-0.125358 0.204709,-0.22932 0.224661,-0.231024 0.05957,-0.0051 2.372949,2.047832 2.670947,2.370264 0.333345,0.360678 0.380797,0.519775 0.237201,0.795281 -0.20058,0.38481 -1.120476,1.531177 -1.867536,2.32729 -1.964304,2.093303 -4.367577,3.558601 -6.621454,4.037173 -0.371383,0.07886 -0.704846,0.107312 -1.4104677,0.120364 -0.5082534,0.0094 -0.9897516,0.0074 -1.0700025,-0.0044 z M 38.0224,19.417467 c -0.87227,-1.131772 -1.700515,-2.126241 -2.134933,-2.563402 -0.98275,-0.988953 -2.13801,-1.698886 -3.405863,-2.092977 -0.367988,-0.11438 -0.517256,-0.189927 -0.724054,-0.366446 -1.690064,-1.44261 -3.666197,-1.876989 -5.953008,-1.308544 -0.404206,0.100475 -1.632669,0.522155 -2.457274,0.843479 l -0.226711,0.08834 -1.576814,-1.340642 -1.576816,-1.340642 0.263624,-0.238506 c 0.932901,-0.844002 2.214005,-1.6319523 3.416044,-2.1010587 2.431373,-0.9488599 5.244096,-0.9659116 7.7539,-0.047 0.638352,0.2337182 2.037823,0.9275376 2.514131,1.2464347 1.058238,0.708513 2.159687,2.063539 2.978502,3.664232 0.726443,1.420116 1.114447,2.644113 1.349037,4.255702 0.07934,0.545043 0.157535,1.702282 0.11502,1.702282 -0.01408,0 -0.164703,-0.180563 -0.334785,-0.401252 z M 21.111508,18.931101 c -0.827414,-1.504163 -2.10677,-2.919048 -3.75439,-4.152115 -0.576464,-0.431425 -0.884683,-0.603362 -1.410974,-0.787101 -0.658399,-0.229865 -1.269379,-0.318082 -2.212454,-0.319453 -1.483219,-0.0021 -2.621669,0.320978 -3.7936537,1.076772 -1.0055106,0.648441 -2.1868624,1.894546 -2.9136382,3.07333 L 6.812567,18.169369 6.5873358,17.808006 C 6.3063784,17.357231 6.0560926,16.743082 5.9595365,16.267536 5.8368026,15.663075 5.8168822,15.082519 5.879428,13.93369 5.951103,12.617774 5.958769,12.596049 6.4933511,12.200708 8.0623663,11.040369 10.017099,10.233984 11.967765,9.9423521 c 1.35342,-0.2023417 3.203132,-0.1695294 4.290206,0.076106 1.57392,0.355639 3.128086,1.333162 5.233257,3.291559 0.887087,0.825237 3.015501,3.110768 3.015454,3.238055 0,0.01997 -0.321415,0.309894 -0.714244,0.64427 -0.39283,0.334377 -1.105231,0.941727 -1.583098,1.349666 -0.477873,0.40794 -0.876739,0.741709 -0.886367,0.741709 -0.0097,0 -0.104783,-0.158677 -0.211465,-0.352616 z M 7.3760799,18.618634 7.0017706,18.305549 7.359862,17.809742 c 1.111686,-1.53924 2.1643946,-2.50802 3.3944,-3.123758 0.643915,-0.322343 0.810761,-0.336311 1.40758,-0.11782 1.007504,0.368831 2.195042,1.04166 2.807755,1.590796 0.20486,0.183609 0.253355,0.253308 0.218862,0.31461 -0.1168,0.207612 -0.799867,0.944939 -1.169872,1.262809 -0.61507,0.528406 -1.174817,0.91512 -1.323975,0.9147 -0.07049,-2.02e-4 -0.347617,-0.07503 -0.615805,-0.166283 -1.321001,-0.449508 -2.4684452,-0.432485 -3.4762737,0.05157 -0.2006274,0.09636 -0.4744331,0.224733 -0.6084563,0.285276 l -0.24368,0.110076 z M 38.103608,16.09458 C 38.054559,15.909221 37.927324,15.51681 37.820815,15.222559 37.022175,13.016261 35.624278,11.111837 33.571843,9.4339919 33.280664,9.1959518 32.761209,8.7329662 32.417492,8.4051335 30.826468,6.8876131 28.316007,5.5259174 24.134248,3.9122266 L 24.02929,3.8717296 24.155766,3.5648441 c 0.09706,-0.2355497 0.126713,-0.3916799 0.127544,-0.6716611 7.91e-4,-0.3582021 -0.02215,-0.4340805 -0.301305,-0.9852931 -0.01028,-0.020284 0.273197,-0.024414 0.629935,-0.00919 3.23715,0.138224 5.976655,1.0725961 8.308623,2.833848 0.663004,0.5007409 1.836556,1.6303549 2.396849,2.3071083 1.639701,1.9805155 2.66442,4.2506088 2.980234,6.6022118 0.109807,0.817646 0.07611,2.112918 -0.06914,2.655895 -0.03188,0.1191 -0.04557,0.09673 -0.124925,-0.203184 z"
    id="path1093"/>
</svg>
