<?xml version="1.0" encoding="UTF-8" standalone="no"?>
<!***REMOVED***Created with Inkscape (http://www.inkscape.org/) -->

<svg
  width="150"
  height="150"
  viewBox="0 0 39.6875 39.6875"
  version="1.1"
  id="svg1168"
  xmlns="http://www.w3.org/2000/svg"
>
  <defs
     id="defs1165" />
  <g
     id="layer1" />
  <path
     style="stroke-width:0.0437067"
     d="m 19.54939,37.529924 c -0.33674,-0.08589 -0.673948,-0.242377 -1.470054,-0.682193 -1.428648,-0.789275 -1.781568,-1.387279 -1.346329,-2.281273 0.376323,-0.772988 1.980507,-1.989879 3.062449,-2.323095 0.88279,-0.271883 1.500709,-0.217477 2.162533,0.190402 0.981439,0.604857 2.982969,1.088646 4.164277,1.006547 1.823002,-0.126696 3.297455,-1.028725 4.639732,-2.838453 1.07595,-1.450652 1.82003,-3.129796 2.220653,-5.011309 0.102331,-0.480605 0.116464,-0.646245 0.117474,-1.376764 0.0014,-0.911012 -0.03612,-1.142822 -0.284223,-1.764129 -0.39131,-0.979819 -1.213834,-1.835019 -2.233904,-2.322661 -0.59123,-0.282634 -0.961639,-0.363038 -1.67463,-0.363511 -0.541472,-3.46e-4 -0.656912,0.01327 -1.003022,0.118424 -0.724494,0.220107 -1.493307,0.6741 -2.5086,1.481362 -0.624118,0.496237 -1.892217,1.742504 -2.484343,2.441574 L 22.51737,24.270041 21.327005,23.12739 c -0.654702,-0.628457 -1.217482,-1.19182 -1.250618,-1.251917 -0.127633,-0.231466 -0.06725,-0.363731 0.527404,-1.155445 2.019096,-2.688168 4.655094,-4.550765 7.210907,-5.095231 0.606309,-0.129162 1.799192,-0.164564 2.403873,-0.07134 1.894449,0.292064 3.461444,1.345995 4.650389,3.127754 0.330419,0.495174 0.531001,0.862733 0.717541,1.314871 0.474439,1.149953 0.652157,2.115671 0.651496,3.54025 -0.0022,3.902567 -1.794059,7.19023 -5.414332,9.931893 -2.303597,1.744533 -4.907454,2.84204 -8.012247,3.377108 -0.322805,0.05563 -0.491374,0.113453 -0.764868,0.262359 -0.192939,0.105051 -0.537647,0.25388 -0.766012,0.330732 -0.535586,0.180237 -1.237757,0.217352 -1.731148,0.0915 z M 15.664217,36.293757 C 11.322925,35.292624 7.852316,33.084178 5.5408136,29.851961 4.1693098,27.934158 3.4275046,26.107648 3.2253234,24.150676 c -0.053035,-0.513483 -0.030001,-1.809306 0.037252,-2.097705 0.0332,-0.142256 0.047632,-0.115348 0.2697551,0.502628 0.5732579,1.594939 1.0952153,2.576755 1.9271237,3.624993 0.3903502,0.491852 1.2963729,1.406893 1.8107375,1.828749 0.6935262,0.568802 0.7547585,0.630753 1.1493386,1.162774 1.4403575,1.942065 4.1434327,3.706572 7.9078627,5.162075 l 0.09504,0.03675 -0.08889,0.2318 c -0.120851,0.315182 -0.0872,0.699655 0.117168,1.338615 0.08706,0.272206 0.152225,0.510479 0.144796,0.529495 -0.0074,0.01901 -0.426523,-0.06067 -0.931332,-0.177086 z M 12.953023,29.958664 C 11.071711,29.813507 9.1983259,29.13543 7.8406993,28.108238 7.4026386,27.776798 6.078447,26.484825 5.641005,25.962058 4.5914455,24.707792 3.9621378,23.227051 3.7370433,21.482111 3.6575827,20.866123 3.6002818,19.699154 3.6414446,19.535149 c 0.027584,-0.109798 0.061069,-0.0655 0.3788686,0.500891 0.7670503,1.367031 1.1440846,1.89854 1.8318805,2.582448 0.2538374,0.252406 0.6477492,0.591901 0.8753604,0.75443 0.5068643,0.361939 1.3926828,0.805697 2.0139356,1.008904 0.4029122,0.131789 0.510028,0.189065 0.8168651,0.436787 0.9960482,0.804151 1.9537132,1.197928 3.1407162,1.291407 1.146318,0.09028 2.3045,-0.136019 3.697275,-0.722402 0.311444,-0.131121 0.580829,-0.232526 0.598638,-0.225341 0.01778,0.0072 0.51541,0.550199 1.10578,1.206701 l 1.073397,1.193638 -0.434257,0.411042 c -0.946411,0.895815 -2.168492,1.544317 -3.447198,1.829268 -0.443044,0.09873 -1.487158,0.212745 -1.791976,0.195686 -0.06007,-0.0033 -0.306567,-0.02133 -0.547707,-0.03994 z m 11.496248,-0.5503 c -0.07211,-0.0084 -0.317963,-0.03687 -0.546335,-0.06326 -1.842672,-0.21288 -3.718893,-1.249954 -5.419813,-2.995782 -0.898053,-0.92176 -1.679948,-1.937317 -2.296423,-2.982676 l -0.319158,-0.541188 1.187686,-0.944923 c 0.653223,-0.519707 1.30425,-1.036781 1.44672,-1.149053 l 0.259035,-0.204129 0.47734,0.706837 c 0.592616,0.877531 0.854139,1.205493 1.384563,1.736282 0.996851,0.997542 2.238929,1.810946 3.29353,2.156853 0.684269,0.224438 0.992436,0.266832 1.90962,0.262702 0.804111,-0.0036 0.880692,-0.01136 1.354911,-0.136926 1.693874,-0.44851 3.171819,-1.582389 4.333414,-3.324597 0.171711,-0.257539 0.321098,-0.478085 0.331968,-0.490104 0.04287,-0.04739 0.288687,0.304226 0.473622,0.677455 0.351498,0.709411 0.534348,1.751139 0.487086,2.775031 -0.03903,0.844846 -0.226367,1.220654 -0.965776,1.937093 -0.868835,0.841845 -1.852363,1.525063 -2.811528,1.953062 -0.833891,0.3721 -1.46273,0.512515 -2.740192,0.611867 -0.528626,0.04111 -1.546805,0.04966 -1.84027,0.01545 z m 2.666121,-4.806786 C 26.101159,24.215255 25.03834,23.605407 24.50675,23.104733 l -0.261039,-0.245857 1.386981,-1.136377 c 0.762834,-0.625006 1.420067,-1.152706 1.460505,-1.172663 0.05339,-0.02634 0.152644,0.01901 0.36214,0.165464 0.999518,0.698712 1.923122,0.715491 2.818651,0.0512 l 0.27395,-0.20321 0.545553,0.354569 c 0.300048,0.195012 0.545553,0.365387 0.545553,0.378611 0,0.08214 -1.286342,1.608051 -1.723876,2.044941 -0.574246,0.573399 -1.02157,0.89743 -1.68208,1.218445 -0.494822,0.240488 -0.586837,0.243922 -1.117696,0.04171 z M 9.9823319,24.165304 C 8.4887827,23.945077 7.3229718,23.373351 6.2520987,22.335958 c -1.6017385,-1.55167 -2.497986,-3.665671 -2.497986,-5.892067 0,-0.965903 0.1966929,-2.530485 0.433667,-3.44955 0.5100351,-1.978115 2.0701913,-4.3068296 4.0038487,-5.9762051 2.4432096,-2.109287 5.4798746,-3.5423126 8.7619366,-4.134824 0.572128,-0.1032874 0.684739,-0.1395093 1.158226,-0.3725606 0.699945,-0.3445107 1.147305,-0.4513812 1.770128,-0.4228594 0.575775,0.026368 0.990311,0.155995 1.604967,0.50188 0.24571,0.1382687 0.609571,0.3394084 0.808575,0.4469792 0.478761,0.2587833 0.993801,0.7601969 1.09781,1.0687723 0.190394,0.5648577 0.04017,0.9569993 -0.639225,1.6685878 C 21.850575,6.7203961 21.029772,7.2297717 19.970679,7.5014286 19.167123,7.7075391 18.739022,7.6508425 18.026074,7.2438859 17.480493,6.9324631 17.014876,6.7445436 16.37949,6.5793427 14.739432,6.1529222 13.558038,6.1411457 12.417899,6.5398577 10.820369,7.09851 9.3408673,8.5934714 8.1642575,10.83794 c -0.9473777,1.807186 -1.422108,3.92581 -1.2164858,5.428978 0.068889,0.503793 0.3213757,1.221875 0.5769905,1.641137 0.4544546,0.745402 1.246942,1.384429 2.1508818,1.734376 0.674793,0.26124 1.194995,0.368875 1.616996,0.334576 0.81899,-0.06656 2.003186,-0.642104 3.060367,-1.487381 0.595979,-0.476519 1.807439,-1.739349 2.671651,-2.784946 0.09311,-0.112652 0.18396,-0.206076 0.20189,-0.207607 0.05353,-0.0046 2.132426,1.840263 2.400219,2.130013 0.299557,0.32412 0.342199,0.467091 0.213158,0.714671 -0.180249,0.345806 -1.006904,1.375977 -1.678242,2.091396 -1.765202,1.881125 -3.924878,3.1979 -5.950302,3.627964 -0.333739,0.07087 -0.633403,0.09643 -1.267502,0.108164 -0.456737,0.0084 -0.88943,0.0067 -0.9615471,-0.004 z M 36.179807,19.460673 c -0.783856,-1.017055 -1.52815,-1.910724 -1.918535,-2.303575 -0.883138,-0.888712 -1.921301,-1.526686 -3.060644,-1.880832 -0.330689,-0.102786 -0.464827,-0.170676 -0.650664,-0.329303 -1.518759,-1.296387 -3.29459,-1.686737 -5.34961,-1.17591 -0.363235,0.09029 -1.467181,0.46923 -2.208204,0.757984 l -0.203731,0.07939 -1.416988,-1.204754 -1.416989,-1.204754 0.236903,-0.214331 c 0.838341,-0.758454 1.989592,-1.466538 3.069792,-1.888095 2.184929,-0.8526826 4.712554,-0.8680066 6.967963,-0.04224 0.573649,0.210028 1.831269,0.833522 2.259298,1.120095 0.950975,0.636698 1.940781,1.854379 2.676601,3.292825 0.65281,1.276173 1.001486,2.376105 1.212298,3.824343 0.0713,0.489797 0.141567,1.529738 0.103362,1.529738 -0.01265,0 -0.148009,-0.162261 -0.300852,-0.360581 z M 20.983008,19.023606 C 20.23946,17.671905 19.08978,16.400433 17.609163,15.29235 17.09113,14.904654 16.814152,14.750145 16.341206,14.58503 c -0.591663,-0.206566 -1.140714,-0.285841 -1.988199,-0.287074 -1.33288,-0.0019 -2.355936,0.288444 -3.409128,0.967631 -0.903592,0.582714 -1.9652019,1.702514 -2.6183115,2.761816 L 8.1334104,18.339083 7.9310087,18.014348 C 7.6785292,17.609263 7.4536124,17.057365 7.3668433,16.63002 7.2565497,16.086827 7.2386484,15.565117 7.2948546,14.532733 c 0.06441,-1.182534 0.071299,-1.202057 0.5516957,-1.557326 1.4099794,-1.042727 3.1665797,-1.767377 4.9195257,-2.029449 1.216238,-0.181832 2.878462,-0.152345 3.85535,0.06839 1.414387,0.319592 2.811023,1.198033 4.702813,2.957926 0.797172,0.741591 2.709849,2.79546 2.709807,2.909845 0,0.01795 -0.288836,0.278483 -0.641848,0.578967 -0.353013,0.300484 -0.993205,0.846273 -1.422635,1.212863 -0.429436,0.366591 -0.787873,0.666529 -0.796525,0.666529 -0.0087,0 -0.09416,-0.142593 -0.19003,-0.316874 z M 8.6398055,18.74281 8.3034363,18.46146 8.6252314,18.015908 c 0.9990053,-1.383222 1.9450116,-2.253807 3.0503426,-2.807133 0.578648,-0.289671 0.728583,-0.302223 1.264908,-0.105878 0.905383,0.331446 1.972552,0.936077 2.52316,1.429552 0.184095,0.164999 0.227675,0.227633 0.196678,0.282721 -0.104961,0.186569 -0.718792,0.84916 -1.051293,1.134811 -0.552727,0.474846 -1.055738,0.822363 -1.189777,0.821986 -0.06334,-1.82e-4 -0.312382,-0.06743 -0.553387,-0.149429 -1.187104,-0.403946 -2.218243,-0.388648 -3.1239177,0.04634 -0.1802918,0.08659 -0.4263445,0.201954 -0.5467831,0.25636 l -0.2189805,0.09892 z M 36.252784,16.474595 C 36.208704,16.308024 36.094368,15.955388 35.998655,15.690962 35.280965,13.708295 34.02476,11.996904 32.18036,10.489126 31.918695,10.275213 31.451892,9.8591564 31.143014,9.5645534 29.713257,8.2008484 27.457257,6.977175 23.699362,5.5270483 l -0.09432,-0.036392 0.113657,-0.2757795 c 0.08722,-0.2116743 0.113869,-0.3519791 0.114616,-0.6035813 7.11e-4,-0.3218947 -0.0199,-0.390082 -0.270765,-0.8854236 -0.0092,-0.018228 0.245506,-0.021939 0.566085,-0.00826 2.909032,0.1242136 5.37086,0.9638775 7.466459,2.5466085 0.595802,0.4499857 1.650402,1.4651017 2.153904,2.073259 1.4735,1.7797696 2.394353,3.8197666 2.678156,5.9330096 0.09868,0.73477 0.0684,1.898753 -0.06213,2.386693 -0.02865,0.107028 -0.04095,0.08693 -0.112262,-0.182589 z"
     id="path1093" />
</svg>
