<?xml version="1.0" encoding="UTF-8" standalone="no"?>
<!***REMOVED***Created with Inkscape (http://www.inkscape.org/) -->

<svg
  width="150"
  height="150"
  viewBox="0 0 39.6875 39.6875"
  version="1.1"
  id="svg1168"
  xmlns="http://www.w3.org/2000/svg"
>
  <defs
    id="defs1165"/>
  <path
    id="path3715"
    style="stroke-width:0.829912"
    d="M 45.53125 4.2988281 C 45.474179 4.3001287 45.435656 4.3211262 45.412109 4.359375 C 45.266409 4.5957844 47.145444 7.5524542 49.585938 10.931641 C 52.444526 14.889747 53.572684 16.993477 52.761719 16.84375 C 50.722293 16.467233 51.874883 20.039473 55.03125 23.882812 C 58.667507 28.310495 63.973233 33.509345 62.939453 31.630859 C 61.607684 29.210916 60.284295 25.877227 60.796875 26.234375 C 62.749889 27.595206 70.690312 37.435499 69.685547 37.25 C 68.052077 36.948431 68.806899 39.863552 71.431641 44.740234 C 74.609951 41.597746 77.54317 38.702899 80.216797 36.0625 C 78.762431 34.478266 77.097782 32.840615 75.910156 31.876953 C 74.202275 30.491161 68.093503 24.831936 62.337891 19.298828 C 51.098241 8.4936853 46.387196 4.2787498 45.53125 4.2988281 z M 31.007812 5.5429688 C 30.899007 5.5710884 31.069844 5.9506862 31.457031 6.6132812 C 32.278208 8.0184404 31.171797 8.4146598 29.597656 7.2792969 C 28.004206 6.1299936 28.265162 6.8239873 31.826172 13.199219 C 34.002978 17.096343 34.748455 19.084309 34.226562 19.611328 C 33.706934 20.136058 34.650398 22.553002 37.244141 27.332031 C 39.320886 31.158497 40.926823 34.882675 40.8125 35.607422 C 40.474157 37.752561 47.367172 52.259106 52.191406 59.556641 C 52.786111 60.456229 53.349217 61.403644 53.779297 62.205078 C 55.476418 60.525399 56.883913 59.124083 58.621094 57.40625 C 61.695116 54.366463 63.983129 52.105907 66.699219 49.419922 C 65.876385 47.341616 64.830645 45.360841 63.84375 44.117188 C 61.210916 40.799375 60.252451 40.46191 60.261719 42.853516 C 60.264969 43.700111 58.703494 41.620199 56.791016 38.228516 C 54.878537 34.83683 51.780986 30.417003 49.90625 28.40625 C 48.031525 26.395497 46.350632 23.959179 46.171875 22.992188 C 45.993145 22.025197 42.564288 17.654748 38.550781 13.283203 C 33.410894 7.6847794 31.285869 5.4711301 31.007812 5.5429688 z M 119.32422 8.96875 C 116.65365 8.9785338 113.9388 9.4738668 111.28906 10.478516 C 106.94616 12.125133 108.98399 10.213268 59.884766 58.765625 C 44.221689 74.254239 30.119346 88.2654 21.576172 96.814453 C 16.450276 101.94389 13.324845 105.10565 13.066406 105.43945 C 11.537238 107.4151 10.026905 110.41564 9.296875 112.92188 C 8.5149274 115.60638 8.3164921 120.16136 8.8632812 122.93359 C 10.613419 131.80684 17.295324 138.67553 26.037109 140.59375 C 29.900606 141.44151 34.769901 141.03701 38.720703 139.53906 C 43.063603 137.89245 41.027727 139.80628 90.126953 91.253906 C 115.18787 66.472115 136.25426 45.468355 136.94336 44.578125 C 139.62608 41.112158 141.16105 36.950784 141.40625 32.474609 C 141.76402 25.943589 139.67075 20.298741 135.19141 15.708984 C 130.86599 11.276932 125.19946 8.9472256 119.32422 8.96875 z M 22.869141 29.849609 C 22.501415 29.882416 23.052978 34.269238 24.273438 40.908203 C 25.674297 48.529639 26.826209 53.059059 27.421875 53.298828 C 27.938349 53.506702 28.266958 54.27141 28.152344 54.998047 C 27.990474 56.024328 32.1626 65.989432 37.787109 78.050781 C 40.257666 75.598212 43.11487 72.775763 45.769531 70.144531 C 45.095109 69.069006 44.793567 68.045119 44.691406 66.701172 C 44.513001 64.3539 43.751561 62.949421 41.271484 60.400391 C 36.239807 55.22878 33.994515 51.744855 28.746094 40.970703 C 26.049941 35.435984 23.442325 30.454895 22.953125 29.900391 C 22.920408 29.863271 22.89363 29.84742 22.869141 29.849609 z M 82.222656 44.867188 C 83.415852 44.867188 84.609077 45.323919 85.523438 46.238281 L 92.007812 52.722656 L 103.86523 64.580078 C 105.69396 66.408799 105.69396 69.352916 103.86523 71.181641 L 71.191406 103.85547 C 69.362686 105.68419 66.418564 105.68419 64.589844 103.85547 L 46.248047 85.513672 C 45.090669 84.356297 44.667005 82.753076 44.974609 81.267578 C 45.025709 80.747243 45.141264 80.270248 45.322266 79.933594 C 45.352124 79.878072 45.611577 79.598526 45.976562 79.214844 C 46.063378 79.111965 46.151026 79.00913 46.248047 78.912109 L 46.75 78.410156 C 47.711183 77.422785 49.085184 76.031137 50.787109 74.322266 C 53.989938 71.10661 58.234706 66.884295 62.498047 62.662109 L 70.679688 54.480469 L 78.921875 46.238281 C 79.836237 45.323917 81.029461 44.867187 82.222656 44.867188 z M 80.404297 54.078125 A 2.9867111 2.9867111 0 0 0 78.759766 54.916016 A 2.9867111 2.9867111 0 0 0 78.757812 59.140625 A 2.9867111 2.9867111 0 0 0 82.984375 59.140625 A 2.9867111 2.9867111 0 0 0 82.982422 54.916016 A 2.9867111 2.9867111 0 0 0 80.404297 54.078125 z M 71.40625 57.017578 A 2.9867111 2.9867111 0 0 0 69.761719 57.855469 A 2.9867111 2.9867111 0 0 0 69.761719 62.080078 A 2.9867111 2.9867111 0 0 0 73.986328 62.080078 A 2.9867111 2.9867111 0 0 0 73.986328 57.855469 A 2.9867111 2.9867111 0 0 0 71.40625 57.017578 z M 86.460938 60.134766 A 2.9867111 2.9867111 0 0 0 84.816406 60.972656 A 2.9867111 2.9867111 0 0 0 84.816406 65.197266 A 2.9867111 2.9867111 0 0 0 89.041016 65.197266 A 2.9867111 2.9867111 0 0 0 89.041016 60.972656 A 2.9867111 2.9867111 0 0 0 86.460938 60.134766 z M 77.464844 63.076172 A 2.9867111 2.9867111 0 0 0 75.820312 63.914062 A 2.9867111 2.9867111 0 0 0 75.820312 68.136719 A 2.9867111 2.9867111 0 0 0 80.042969 68.136719 A 2.9867111 2.9867111 0 0 0 80.042969 63.914062 A 2.9867111 2.9867111 0 0 0 77.464844 63.076172 z M 68.466797 66.015625 A 2.9867111 2.9867111 0 0 0 66.822266 66.853516 A 2.9867111 2.9867111 0 0 0 66.822266 71.078125 A 2.9867111 2.9867111 0 0 0 71.046875 71.078125 A 2.9867111 2.9867111 0 0 0 71.046875 66.853516 A 2.9867111 2.9867111 0 0 0 68.466797 66.015625 z M 92.519531 66.193359 A 2.9867111 2.9867111 0 0 0 90.875 67.03125 A 2.9867111 2.9867111 0 0 0 90.873047 71.255859 A 2.9867111 2.9867111 0 0 0 95.097656 71.253906 A 2.9867111 2.9867111 0 0 0 95.097656 67.03125 A 2.9867111 2.9867111 0 0 0 92.519531 66.193359 z M 59.470703 68.955078 A 2.9867111 2.9867111 0 0 0 57.826172 69.792969 A 2.9867111 2.9867111 0 0 0 57.826172 74.015625 A 2.9867111 2.9867111 0 0 0 62.050781 74.017578 A 2.9867111 2.9867111 0 0 0 62.048828 69.792969 A 2.9867111 2.9867111 0 0 0 59.470703 68.955078 z M 83.521484 69.132812 A 2.9867111 2.9867111 0 0 0 81.876953 69.970703 A 2.9867111 2.9867111 0 0 0 81.876953 74.193359 A 2.9867111 2.9867111 0 0 0 86.099609 74.193359 A 2.9867111 2.9867111 0 0 0 86.099609 69.970703 A 2.9867111 2.9867111 0 0 0 83.521484 69.132812 z M 74.523438 72.072266 A 2.9867111 2.9867111 0 0 0 72.878906 72.912109 A 2.9867111 2.9867111 0 0 0 72.878906 77.134766 A 2.9867111 2.9867111 0 0 0 77.103516 77.134766 A 2.9867111 2.9867111 0 0 0 77.103516 72.910156 A 2.9867111 2.9867111 0 0 0 74.523438 72.072266 z M 110.29102 73.892578 C 107.47533 76.68659 104.25884 79.867215 101.23242 82.865234 C 103.48359 84.383474 106.65801 86.868164 109.58203 89.458984 C 121.17525 99.73109 128.25563 105.01727 127.125 102.55469 C 125.25151 98.474166 116.8172 84.551142 116.02539 84.232422 C 115.57445 84.050891 115.04577 83.042764 114.85156 81.992188 C 114.7039 81.193279 112.81687 77.876015 110.29102 73.892578 z M 65.527344 75.011719 A 2.9867111 2.9867111 0 0 0 63.882812 75.849609 A 2.9867111 2.9867111 0 0 0 63.882812 80.074219 A 2.9867111 2.9867111 0 0 0 68.105469 80.074219 A 2.9867111 2.9867111 0 0 0 68.105469 75.849609 A 2.9867111 2.9867111 0 0 0 65.527344 75.011719 z M 89.578125 75.191406 A 2.9867111 2.9867111 0 0 0 87.933594 76.029297 A 2.9867111 2.9867111 0 0 0 87.933594 80.251953 A 2.9867111 2.9867111 0 0 0 92.158203 80.251953 A 2.9867111 2.9867111 0 0 0 92.158203 76.029297 A 2.9867111 2.9867111 0 0 0 89.578125 75.191406 z M 56.529297 77.953125 A 2.9867111 2.9867111 0 0 0 54.884766 78.791016 A 2.9867111 2.9867111 0 0 0 54.884766 83.013672 A 2.9867111 2.9867111 0 0 0 59.109375 83.015625 A 2.9867111 2.9867111 0 0 0 59.109375 78.791016 A 2.9867111 2.9867111 0 0 0 56.529297 77.953125 z M 80.582031 78.128906 A 2.9867111 2.9867111 0 0 0 78.9375 78.96875 A 2.9867111 2.9867111 0 0 0 78.9375 83.191406 A 2.9867111 2.9867111 0 0 0 83.160156 83.191406 A 2.9867111 2.9867111 0 0 0 83.162109 78.966797 A 2.9867111 2.9867111 0 0 0 80.582031 78.128906 z M 71.583984 81.070312 A 2.9867111 2.9867111 0 0 0 69.941406 81.908203 A 2.9867111 2.9867111 0 0 0 69.941406 86.130859 A 2.9867111 2.9867111 0 0 0 74.164062 86.130859 A 2.9867111 2.9867111 0 0 0 74.164062 81.908203 A 2.9867111 2.9867111 0 0 0 71.583984 81.070312 z M 62.587891 84.009766 A 2.9867111 2.9867111 0 0 0 60.943359 84.847656 A 2.9867111 2.9867111 0 0 0 60.943359 89.070312 A 2.9867111 2.9867111 0 0 0 65.166016 89.070312 A 2.9867111 2.9867111 0 0 0 65.166016 84.847656 A 2.9867111 2.9867111 0 0 0 62.587891 84.009766 z M 77.642578 87.126953 A 2.9867111 2.9867111 0 0 0 75.998047 87.964844 A 2.9867111 2.9867111 0 0 0 75.998047 92.1875 A 2.9867111 2.9867111 0 0 0 80.220703 92.1875 A 2.9867111 2.9867111 0 0 0 80.220703 87.964844 A 2.9867111 2.9867111 0 0 0 77.642578 87.126953 z M 68.644531 90.068359 A 2.9867111 2.9867111 0 0 0 67 90.904297 A 2.9867111 2.9867111 0 0 0 67 95.128906 A 2.9867111 2.9867111 0 0 0 71.222656 95.128906 A 2.9867111 2.9867111 0 0 0 71.222656 90.904297 A 2.9867111 2.9867111 0 0 0 68.644531 90.068359 z M 88.863281 95.113281 C 85.637541 98.303271 82.869319 101.03911 80.058594 103.81836 C 80.602003 104.78785 81.07425 105.68349 81.445312 106.45898 C 82.643891 108.96395 84.170302 111.21041 84.835938 111.44922 C 85.501577 111.68801 91.37229 117.06966 97.880859 123.4082 C 109.82347 135.03885 118.25714 142.3266 119.46875 142.06445 C 119.83106 141.98607 117.10824 137.52319 113.41797 132.14844 L 113.41992 132.14844 C 109.72962 126.77368 105.09294 120.3328 103.11719 117.83203 C 101.14143 115.33127 98.706644 111.7948 97.707031 109.97656 C 96.128746 107.10569 96.038067 106.64009 97.019531 106.42773 C 97.865197 106.24481 97.25785 104.92511 94.615234 101.20703 C 92.650889 98.443267 90.707514 96.485779 90.244141 96.802734 C 89.885728 97.047912 89.413856 96.454106 88.863281 95.113281 z M 69.777344 113.97461 C 67.696037 116.03 65.668586 118.03511 63.867188 119.81055 C 70.36836 128.91718 76.78703 137.45981 77.947266 138.20117 C 80.104268 139.57941 80.21372 138.76688 78.328125 135.39844 C 77.227629 133.43252 77.539013 133.5295 81.136719 136.28125 C 83.361587 137.98297 86.82683 140.79973 88.837891 142.53906 L 92.494141 145.70117 L 86.365234 137.05859 C 82.994175 132.30626 79.030607 126.62963 77.556641 124.44141 C 76.08267 122.25318 72.613745 117.58339 69.847656 114.06641 C 69.821955 114.03352 69.802969 114.00715 69.777344 113.97461 z "
    transform="scale(0.26458333)"/>
  <g
    id="layer1"/>
</svg>
