<?xml version="1.0" encoding="UTF-8" standalone="no"?>
<!-- Created with Inkscape (http://www.inkscape.org/) -->

<svg
  width="150"
  height="150"
  viewBox="0 0 39.6875 39.6875"
  version="1.1"
  id="svg1168"
  xmlns="http://www.w3.org/2000/svg"
>
  <defs
     id="defs1165" />
  <g
     id="layer1" />
  <path
     id="path915"
     style="stroke-width:0.102889;stroke-miterlimit:4;stroke-dasharray:none;stroke-opacity:1"
     d="m 17.363504,2.4020431 v 0.5848123 c -0.443951,3.22e-5 -0.883767,0.00964 -1.311,0.031612 -1.630626,0.083859 -2.13584,0.1359667 -3.373659,0.3485807 C 10.736171,3.7007316 8.1952309,4.6520832 7.5848382,5.2744174 7.2987573,5.5660989 7.1979972,5.74847 7.1151578,6.1253646 6.7018342,8.0057954 6.3587033,15.962634 6.6123773,17.782314 c 0.3813285,2.73538 2.1416179,7.134862 3.7922227,9.477466 1.202268,1.706294 3.235289,3.822396 4.486899,4.669957 0.310366,0.21017 1.102028,0.519867 1.131257,0.442559 0.0089,-0.02364 -0.06471,-0.542903 -0.163403,-1.153391 -0.283295,-1.752382 -0.287052,-1.943808 -0.05782,-2.777112 0.169794,-0.617234 0.18416,-0.725312 0.11941,-0.884694 -0.0656,-0.161474 -0.464449,-0.578949 -0.910452,-0.952616 -0.176675,-0.148023 -0.193745,-0.245715 -0.07248,-0.414794 0.08055,-0.112231 0.175493,-0.117048 2.397844,-0.117048 h 0.02766 l -1.3e-5,7.151643 c -0.85341,-0.005 -1.776038,-0.236789 -2.479538,-0.599522 C 13.650053,31.98854 10.980961,29.233616 9.6734804,27.247391 8.0187217,24.733618 6.4013198,20.569334 6.0211913,17.842547 5.8387009,16.533495 5.9732481,11.071862 6.2600115,8.1502076 6.4284696,6.4338854 6.5342388,5.8358482 6.743099,5.4094061 7.0979173,4.6849538 7.9199164,4.1807694 9.890926,3.479824 c 2.175095,-0.773523 4.278078,-1.0777809 7.444926,-1.0777809 0.0094,0 0.01826,-5.3e-6 0.02766,0 z m -6.674833,5.0125567 c 1.375093,-0.00316 2.314103,0.282515 3.425614,1.0427518 0.616653,0.4217709 1.732227,1.3934721 1.90051,1.6553324 0.132778,0.206609 0.07926,0.302741 -0.539232,0.974402 -0.366044,0.397513 -0.552925,0.557474 -0.652358,0.557474 -0.08025,0 -0.686025,-0.367627 -1.427897,-0.866326 C 11.972623,9.8218846 11.079576,9.2896324 10.629595,9.129309 10.425074,9.0564404 10.160992,9.0244903 9.772773,9.0263586 9.2645326,9.0287922 9.1710857,9.048096 8.7869041,9.2292699 8.4643915,9.3813626 8.2607429,9.5362123 7.9380431,9.8743148 7.5030164,10.330107 7.3230987,10.413389 7.1725596,10.22845 7.0600651,10.090252 7.1460066,9.6940956 7.4088658,9.1391347 7.5840988,8.7691739 7.7297747,8.5657698 8.013878,8.2954497 8.7079394,7.6350616 9.3686907,7.4176831 10.688671,7.4145998 Z M 6.976055,12.365642 c 0.1144631,-0.01816 0.2332324,0.08016 0.3393769,0.291338 0.1326717,0.263957 0.4890832,0.661329 0.6858773,0.765084 0.2369053,0.124902 0.7088251,0.170627 0.9833547,0.09526 0.16084,-0.04416 0.2948762,-0.13633 0.396778,-0.272543 0.6988471,-0.934165 4.0728891,-1.000015 5.0030871,-0.09782 0.201037,0.194991 0.233374,0.261775 0.233374,0.485706 0,0.223929 -0.03233,0.290715 -0.233374,0.485706 -0.280348,0.271905 -0.742585,0.458048 -1.420355,0.57157 -0.862191,0.14441 -2.367508,0.0227 -2.987356,-0.241358 C 9.8517117,14.395289 9.6612635,14.283129 9.553225,14.199109 9.36587,14.053412 9.3412019,14.049286 9.0248861,14.116231 8.1366947,14.304225 7.2883703,13.873316 6.8440756,13.00812 6.6825449,12.693566 6.6804701,12.678275 6.77871,12.525404 6.840354,12.429474 6.9073723,12.376536 6.9760506,12.365637 Z m 0.2027875,6.206959 c 0.1304242,0 0.1930296,0.058 0.3406344,0.316115 0.2289069,0.400306 0.3281938,0.515979 0.6779163,0.788151 0.4388114,0.341507 0.9916132,0.487632 1.6709079,0.442135 0.9271069,-0.06208 1.7173569,-0.307459 2.9161279,-0.904773 0.607881,-0.302895 0.690201,-0.329046 0.797745,-0.255027 0.107061,0.07366 0.11761,0.135101 0.100138,0.570287 -0.02647,0.659347 0.05194,0.876835 0.395102,1.098714 l 0.273597,0.176853 0.044,-0.172153 c 0.06824,-0.268533 0.255516,-0.404584 0.548031,-0.398136 0.335516,0.0074 0.696817,0.229213 1.102347,0.675803 0.506683,0.557987 0.564039,0.583531 1.29047,0.583531 0.01031,0 0.0176,-4.15e-4 0.02766,-4.27e-4 v 1.633545 c -0.0087,-0.0088 -0.02583,-0.02861 -0.02766,-0.02861 -0.01625,0 -0.316632,0.364329 -0.667442,0.80951 l -0.637693,0.809083 -0.307534,-4.26e-4 c -0.540687,-0.0011 -2.00097,-0.11728 -2.64421,-0.2106 C 12.175528,24.375108 11.020594,24.074385 10.76828,23.9047 10.516811,23.735584 10.108634,23.128859 9.2415023,21.63508 8.6796894,20.667264 8.6042411,20.564331 8.4081418,20.498348 7.9513845,20.344656 7.2516403,19.687008 6.991138,19.166394 6.7999471,18.784292 6.8669138,18.57261 7.1788425,18.57261 Z m 5.8733175,1.204655 c -0.0071,0 -0.213254,0.09448 -0.45795,0.209746 -0.519997,0.244956 -1.416936,0.55026 -1.779843,0.605744 -0.139631,0.02135 -0.286877,0.05942 -0.326807,0.08458 -0.08559,0.05394 0.779024,1.351866 1.062543,1.595099 0.207726,0.178212 0.279732,0.191473 1.472309,0.273823 0.503721,0.03479 0.986985,0.06305 1.073856,0.06279 0.187974,-5.12e-4 0.430723,-0.232142 0.757523,-0.722793 l 0.230441,-0.346016 -0.278205,-0.03332 c -0.152994,-0.01847 -0.427787,-0.09078 -0.610878,-0.160621 -0.684232,-0.261015 -1.024019,-0.655154 -1.095644,-1.271721 -0.01899,-0.163407 -0.0402,-0.297319 -0.04735,-0.297319 z m 2.149387,1.146129 c -0.009,3e-5 -0.01678,0.0029 -0.02304,0.0094 -0.01512,0.01542 0.0081,0.0778 0.05153,0.138408 0.0484,0.06748 0.09367,0.08573 0.116898,0.04742 0.03381,-0.05578 -0.0823,-0.19544 -0.145389,-0.195224 z m -0.394264,4.002698 c 0.115838,0.0022 0.261396,0.0131 0.444123,0.03076 0.438747,0.04242 1.275042,0.06121 2.112098,0.0581 v 0.599337 c -1.404909,-0.0017 -2.772569,-0.07178 -2.904816,-0.18369 -0.04244,-0.03592 -0.07709,-0.142478 -0.07709,-0.236658 0,-0.202384 0.07817,-0.274333 0.425687,-0.267844 z" />
  <path
     id="path5121"
     style="stroke-width:0.224011"
     d="m 18.012701,2.3841122 c 4.096712,0 7.698813,1.6997035 9.843273,4.643704 0.880632,1.2089727 1.393583,2.3358247 1.758171,3.8634698 0.247756,1.03808 0.248634,3.672512 0.0023,5.776125 -0.09409,0.803659 -0.193786,1.740749 -0.221151,2.08231 -0.02738,0.341556 -0.104383,1.114039 -0.171035,1.716791 -0.325231,2.940852 -0.05912,4.654848 0.942993,6.069459 1.199298,1.667427 3.444456,2.232153 6.227161,2.943004 v 7.824413 H 25.409524 c -0.394603,-0.84267 -0.779349,-1.80144 -1.301157,-2.882776 -0.769421,-1.661323 -1.042145,-2.326993 -1.266674,-3.097488 l -0.178851,-0.614257 -0.186668,0.275865 c -0.474315,0.700834 -1.248071,1.351788 -2.079551,1.748975 -1.084113,0.517855 -1.860325,0.674107 -3.033121,0.490577 v -2.351736 c 1.738403,0.264396 3.410554,-0.412053 5.245087,-2.124151 1.334043,-1.245014 2.279751,-2.505504 3.306685,-4.40922 0.819659,-1.519455 1.309933,-2.685454 1.763228,-4.191747 0.654956,-2.176434 0.921105,-3.949873 0.851039,-5.671756 C 28.40946,11.524698 27.375814,9.257802 25.280328,7.3505765 23.195302,5.4528751 20.548861,4.4881852 17.722125,4.5960785 c -0.120729,0.0046 -0.239752,0.011564 -0.358623,0.01977 v -2.213805 c 0.215474,-0.010217 0.431855,-0.017471 0.649199,-0.017471 z M 17.75293,5.0264256 c 0.223589,-0.0021 0.461618,0.00189 0.705751,0.0092 1.745924,0.051836 2.619212,0.2510144 4.114045,0.9370167 1.992496,0.9143785 3.443029,2.2773596 4.460255,4.1926667 0.677407,1.275474 0.969682,2.295553 1.129202,3.931057 0.359745,3.688337 -1.535074,9.3258 -4.315426,12.835932 -1.402976,1.771224 -2.83618,2.859704 -4.492439,3.412434 -0.457179,0.152577 -0.625861,0.170284 -1.399548,0.145748 -0.20931,-0.0065 -0.408812,-0.01431 -0.591268,-0.02345 v -1.045983 c 0.08507,-0.0089 0.157467,-0.01775 0.160921,-0.02391 0.0053,-0.0094 0.03207,-0.403185 0.05977,-0.875407 l 0.01425,-0.235404 h 0.992652 l 0.01379,0.235404 c 0.0283,0.472158 0.05797,0.866059 0.06575,0.875407 0.0078,0.0092 0.281146,-0.09994 0.60644,-0.242301 0.668439,-0.292525 1.429607,-0.770959 1.821619,-1.144834 1.34102,-1.201862 0.271578,-0.235778 1.262536,-1.219318 -0.705587,-0.03374 -1.616371,-0.04482 -2.434036,-0.05195 -0.382316,0 -1.166101,-0.04018 -1.329663,-0.02989 0,0 0.05532,-0.879821 -0.326898,-0.788051 -0.739479,-0.03741 -0.783912,-0.649659 -0.783913,-0.649659 0.0026,-0.373006 2.217485,-0.227585 2.217485,-0.227585 1.243899,0.0471 2.544835,0.04475 3.521858,-0.006 0.504935,-0.237077 0.563896,-0.5685 0.928281,-1.417939 -0.808151,-0.144053 -1.050497,-0.114132 -1.690124,-0.115403 -0.358897,-7.39e-4 -0.746289,8.93e-4 -1.145753,0.0032 0,0 -2.879758,0.105769 -2.891511,-0.08414 -0.01818,-0.396473 -0.009,-0.982163 -0.253794,-0.954488 -0.651326,0 -0.724372,-0.249008 -0.717705,-0.640463 -0.06506,-0.185843 4.290598,-0.08184 4.290598,-0.08184 l 3.295191,0.02345 c 0.343296,-0.410957 0.433989,-0.968916 0.614716,-1.467135 0,-0.03417 -1.543611,-0.02667 -3.545767,-0.02667 0,0 -3.58276,-0.06844 -3.573813,-0.258852 -0.04788,-0.353348 0.09573,-0.53907 -0.310806,-0.563681 -0.412301,-0.0236 -0.670984,-0.266514 -0.655176,-0.630348 0.0177,-0.407684 2.475069,-0.261652 4.235885,-0.245059 3.809058,0.0049 4.400261,-0.01278 4.402324,-0.134714 0.118584,-0.308024 0.166451,-0.97328 0.3223,-1.022074 -1.379156,-0.140014 -2.468716,-0.07961 -3.937953,-0.07264 0,0 -3.932711,6e-5 -3.952665,-0.253335 -0.02278,-0.28959 0.02342,-0.599644 -0.293795,-0.602762 -0.306902,-0.003 -0.783767,-0.249292 -0.778855,-0.573796 -0.01373,-0.636113 5.027154,-0.355404 5.027154,-0.355404 h 4.040942 c 0,0 0.08004,-0.154873 0.0915,-0.332876 0.0023,-0.20122 -0.0869,-0.758625 -0.0869,-0.758625 h -4.040482 c 0,0 -3.926354,0.05201 -3.986689,-0.01057 -0.02771,-0.284186 0.122471,-0.798098 -0.30345,-0.762303 -0.515624,-0.0078 -0.748386,-0.323967 -0.743452,-0.610578 0.01997,-0.405841 2.486146,-0.296974 4.851521,-0.279541 2.134121,0.01573 3.992222,0.04972 4.059793,0.02299 0.107434,-0.04251 0.140608,0.053 -0.06161,-0.729659 l -0.232645,-0.293335 -3.691974,0.0018 c -1.352234,7.4e-4 -3.842378,0.09334 -3.853355,-0.165518 -0.0098,-0.318729 -0.03684,-0.513261 -0.30299,-0.54805 -0.562972,0.01326 -0.713152,-0.428721 -0.720464,-0.683682 -0.0074,-0.254267 4.497956,-0.108046 4.497956,-0.108046 1.959512,0 3.422548,-0.02672 3.422548,-0.04782 0,-0.02109 0.01307,0.003 -0.14207,-0.2781621 -0.320263,-0.580743 -0.696855,-0.792481 -1.018856,-0.914028 -0.114215,-0.04311 -0.654926,-0.06468 -1.726906,-0.06713 -0.357329,-7.4e-4 -0.773372,5.84e-4 -1.252881,0.0037 0,0 -2.688859,0.162548 -2.75036,-0.05517 -0.05982,-0.368449 0.0016,-0.499485 -0.333335,-0.508049 -0.305546,-0.0022 -0.716454,-0.341973 -0.712188,-0.560003 0.0086,-0.51451 2.916338,-0.2409206 2.916338,-0.2409206 1.056087,0.00409 2.099999,-0.012626 2.320013,-0.036782 0.181839,-0.030446 0.174254,0.00288 0.02069,-0.087357 -0.916695,-0.581228 -2.500605,-1.1058367 -3.689216,-1.2220759 l -0.516325,-0.050115 -0.01655,0.062069 c -0.0044,0.049578 -0.0077,0.098466 -0.01149,0.1480468 h -0.988052 l -0.04,-0.2133345 c 0,0 -0.125127,0.010417 -0.230346,0.018391 V 5.0645869 c 0.136499,-0.016237 0.268676,-0.034772 0.389428,-0.037242 z m 4.701635,26.7127934 0.09931,0.391267 c 0.149092,0.589596 0.384226,0.850506 0.743912,1.675409 0.388062,0.889986 0.395299,1.115981 0.07586,2.228519 -0.131449,0.665192 -0.291006,0.965025 -0.480922,1.268974 h -5.529226 v -3.671745 c 0.999132,0.20219 1.898935,0.008 3.048753,-0.600463 0.320291,-0.169503 0.617241,-0.300145 0.70759,-0.315865 l 1.124604,-0.783913 z" />
</svg>
