<?xml version="1.0" encoding="UTF-8" standalone="no"?>
<!***REMOVED***Created with Inkscape (http://www.inkscape.org/) -->

<svg
   width="150"
   height="150"
   viewBox="0 0 39.6875 39.6875"
   version="1.1"
   id="svg1168"
   xmlns="http://www.w3.org/2000/svg"
   xmlns:svg="http://www.w3.org/2000/svg">
  <defs
     id="defs1165" />
  <g
     id="layer1" />
  <g
     id="g1014"
     transform="translate(-0.01078382,0.01114075)">
    <path
       id="path915"
       style="stroke-width:0.121499;stroke-miterlimit:4;stroke-dasharray:none;stroke-opacity:1"
       d="m 17.374286,2.3909027 v 0.6622081 c -0.54672,3.63e-5 -1.088348,0.010916 -1.61448,0.035796 -2.008095,0.094957 -2.63026,0.1539609 -4.154618,0.3947128 C 9.2128088,3.8614633 6.0836733,4.9387195 5.3319825,5.6434153 4.9796775,5.9736987 4.8555927,6.1802053 4.7535771,6.6069792 4.2445743,8.7362717 3.822013,17.746141 4.1344092,19.806642 c 0.4696012,3.097388 2.6373753,8.079111 4.6700745,10.731741 1.4805773,1.93211 3.9842173,4.328263 5.5255593,5.287993 0.382212,0.237985 1.357133,0.588668 1.393128,0.501129 0.01101,-0.02677 -0.07969,-0.614753 -0.201229,-1.306035 -0.348874,-1.984297 -0.3535,-2.201057 -0.0712,-3.144643 0.209099,-0.69892 0.22679,-0.821301 0.147052,-1.001777 -0.08079,-0.182844 -0.571963,-0.655568 -1.12121,-1.078688 -0.217573,-0.167612 -0.238595,-0.278233 -0.08926,-0.469688 0.0992,-0.127084 0.216118,-0.132539 2.952915,-0.132539 h 0.03406 l -1.6e-5,8.098112 C 16.323319,37.286556 15.187115,37.024121 14.320764,36.613383 12.801218,35.892961 9.5142646,32.773442 7.9041188,30.524355 5.8663045,27.677902 3.8744946,22.962505 3.4063712,19.874847 3.1816366,18.392551 3.3473297,12.20811 3.7004753,8.8997957 3.9079293,6.9563306 4.0381827,6.2791474 4.2953914,5.7962688 4.7323456,4.9759403 5.744627,4.4050308 8.1719004,3.6113201 10.850503,2.7354269 13.440299,2.3909027 17.340232,2.3909027 c 0.01159,0 0.02249,-6.1e-6 0.03406,0 z M 9.1543135,8.0668355 c 1.6934095,-0.00358 2.8497885,0.3199038 4.2185995,1.1807526 0.759401,0.4775893 2.133216,1.5778879 2.340455,1.8744039 0.163514,0.233952 0.09761,0.342806 -0.664058,1.103357 -0.450778,0.450121 -0.68092,0.631251 -0.803371,0.631251 -0.09883,0 -0.84483,-0.416279 -1.758437,-0.980978 C 10.735484,10.792707 9.6357075,10.190015 9.081562,10.008474 8.8296971,9.925962 8.5044826,9.8897835 8.0263964,9.891899 7.4005048,9.8946548 7.2854262,9.9165133 6.8123114,10.121664 6.4151412,10.293885 6.1643506,10.469228 5.7669498,10.852076 5.23122,11.368189 5.0096536,11.462493 4.8242667,11.253078 4.6857311,11.096591 4.7915669,10.648006 5.1152747,10.0196 5.3310719,9.6006777 5.5104699,9.3703546 5.8603396,9.0642595 6.7150674,8.3164738 7.5287742,8.0703269 9.1543135,8.0668355 Z M 4.5822737,13.673113 c 0.1409599,-0.02056 0.2872227,0.09077 0.4179384,0.329894 0.1633835,0.29889 0.6022997,0.748851 0.8446492,0.866338 0.2917458,0.141431 0.872909,0.193208 1.2109888,0.10787 0.1980724,-0.05 0.3631363,-0.154372 0.488627,-0.308612 0.8606218,-1.057795 5.0157109,-1.13236 6.1612379,-0.110771 0.247575,0.220797 0.287398,0.29642 0.287398,0.549986 0,0.253565 -0.03982,0.329189 -0.287398,0.549986 -0.345244,0.30789 -0.914484,0.518667 -1.749149,0.647213 -1.061777,0.163522 -2.9155559,0.0257 -3.6788908,-0.2733 C 8.1236084,15.971369 7.8890739,15.844365 7.7560258,15.749226 7.5253005,15.584247 7.4949221,15.579575 7.1053832,15.65538 6.0115868,15.868253 4.9668861,15.380317 4.4197428,14.400618 4.2208197,14.044435 4.2182647,14.02712 4.3392458,13.854018 c 0.075914,-0.108621 0.1584461,-0.16857 0.2430225,-0.180911 z m 0.2497302,7.028405 c 0.1606158,0 0.2377136,0.06567 0.419487,0.357951 0.2818959,0.453284 0.4041665,0.584265 0.8348453,0.892457 0.5403907,0.386703 1.2211591,0.552167 2.0577019,0.500648 1.1417209,-0.0703 2.1149029,-0.348149 3.5911749,-1.024513 0.748597,-0.342981 0.849974,-0.372593 0.982413,-0.288778 0.131844,0.08341 0.144835,0.152981 0.123318,0.645761 -0.0326,0.746606 0.06397,0.992878 0.486563,1.24412 l 0.336931,0.200259 0.05418,-0.194937 c 0.08404,-0.304071 0.314664,-0.458127 0.674893,-0.450826 0.413184,0.0084 0.858121,0.259548 1.357526,0.765241 0.623974,0.631832 0.694607,0.660757 1.589198,0.660757 0.0127,0 0.02168,-4.7e-4 0.03406,-4.84e-4 v 1.849734 c -0.01066,-0.01 -0.03181,-0.0324 -0.03406,-0.0324 -0.02001,0 -0.389928,0.412545 -0.821946,0.916643 l -0.785311,0.916159 -0.378724,-4.82e-4 c -0.66585,-0.0012 -2.46417,-0.132802 -3.256312,-0.238472 C 10.985359,27.271946 9.5630718,26.931424 9.2523502,26.739283 8.9426699,26.547785 8.4400044,25.860764 7.3721433,24.169295 6.6802778,23.073395 6.5873642,22.95684 6.3458704,22.882124 5.7833796,22.708092 4.9216535,21.963409 4.6008482,21.373896 4.3653991,20.941225 4.4478677,20.701529 4.8320039,20.701529 Z m 7.2329161,1.364083 c -0.0088,0 -0.26262,0.106981 -0.563959,0.237504 -0.64037,0.277374 -1.744939,0.623083 -2.1918548,0.68591 -0.1719534,0.02418 -0.3532855,0.06729 -0.4024591,0.09577 -0.1054074,0.06108 0.9593584,1.530776 1.3085089,1.806199 0.255812,0.201797 0.344486,0.216813 1.81313,0.310062 0.620326,0.03939 1.215459,0.07139 1.32244,0.0711 0.231488,-5.8e-4 0.53043,-0.262865 0.93288,-0.81845 l 0.283785,-0.391809 -0.342606,-0.03773 c -0.18841,-0.02092 -0.526814,-0.102792 -0.752289,-0.181879 -0.842622,-0.295558 -1.261066,-0.741859 -1.349271,-1.440024 -0.02338,-0.185032 -0.04951,-0.336667 -0.05831,-0.336667 z m 2.646943,1.297811 c -0.0111,3.4e-5 -0.02066,0.0033 -0.02838,0.01063 -0.01862,0.01746 0.01,0.0881 0.06346,0.156725 0.0596,0.07641 0.115352,0.09708 0.143958,0.05369 0.04164,-0.06316 -0.101357,-0.221304 -0.179044,-0.22106 z m -0.485531,4.532426 c 0.142653,0.0025 0.321905,0.01483 0.546932,0.03483 0.540311,0.04804 1.570198,0.06931 2.601022,0.06579 v 0.678655 c -1.730128,-0.0019 -3.414384,-0.08128 -3.577244,-0.208 -0.05226,-0.04067 -0.09493,-0.161334 -0.09493,-0.267978 0,-0.229168 0.09627,-0.310639 0.524228,-0.303291 z" />
    <path
       id="path5121"
       style="stroke-width:0.224011"
       d="m 18.023485,2.3729715 c 4.096712,0 7.698813,1.6997035 9.843273,4.643704 0.880632,1.2089727 1.393583,2.3358247 1.758171,3.8634695 0.247756,1.03808 0.248634,3.672512 0.0023,5.776125 -0.09409,0.803659 -0.193786,1.740749 -0.221151,2.08231 -0.02738,0.341556 -0.104383,1.114039 -0.171035,1.716791 -0.325231,2.940852 -0.05912,4.654848 0.942993,6.069459 1.199298,1.667427 3.444456,2.232153 6.227161,2.943004 v 7.824413 H 25.420308 c -0.394603,-0.84267 -0.779349,-1.80144 -1.301157,-2.882776 -0.769421,-1.661323 -1.042145,-2.326993 -1.266674,-3.097488 l -0.178851,-0.614257 -0.186668,0.275865 c -0.474315,0.700834 -1.248071,1.351788 -2.079551,1.748975 -1.084113,0.517855 -1.860325,0.674107 -3.033121,0.490577 v -2.351736 c 1.738403,0.264396 3.410554,-0.412053 5.245087,-2.124151 1.334043,-1.245014 2.279751,-2.505504 3.306685,-4.40922 0.819659,-1.519455 1.309933,-2.685454 1.763228,-4.191747 0.654956,-2.176434 0.921105,-3.949873 0.851039,-5.671756 -0.120081,-2.950976 -1.153727,-5.2178718 -3.249213,-7.1250973 -2.085026,-1.8977014 -4.731467,-2.8623913 -7.558203,-2.754498 -0.120729,0.0046 -0.239752,0.011564 -0.358623,0.01977 v -2.213805 c 0.215474,-0.010217 0.431855,-0.017471 0.649199,-0.017471 z m -0.259771,2.6423134 c 0.223589,-0.0021 0.461618,0.00189 0.705751,0.0092 1.745924,0.051836 2.619212,0.2510144 4.114045,0.9370167 1.992496,0.9143785 3.443029,2.2773596 4.460255,4.1926664 0.677407,1.275474 0.969682,2.295553 1.129202,3.931057 0.359745,3.688337 -1.535074,9.3258 -4.315426,12.835932 -1.402976,1.771224 -2.83618,2.859704 -4.492439,3.412434 -0.457179,0.152577 -0.625861,0.170284 -1.399548,0.145748 -0.20931,-0.0065 -0.408812,-0.01431 -0.591268,-0.02345 v -1.045983 c 0.08507,-0.0089 0.157467,-0.01775 0.160921,-0.02391 0.0053,-0.0094 0.03207,-0.403185 0.05977,-0.875407 l 0.01425,-0.235404 h 0.992652 l 0.01379,0.235404 c 0.0283,0.472158 0.05797,0.866059 0.06575,0.875407 0.0078,0.0092 0.281146,-0.09994 0.60644,-0.242301 0.668439,-0.292525 1.429607,-0.770959 1.821619,-1.144834 1.34102,-1.201862 0.271578,-0.235778 1.262536,-1.219318 -0.705587,-0.03374 -1.616371,-0.04482 -2.434036,-0.05195 -0.382316,0 -1.166101,-0.04018 -1.329663,-0.02989 0,0 0.05532,-0.879821 -0.326898,-0.788051 -0.739479,-0.03741 -0.783912,-0.649659 -0.783913,-0.649659 0.0026,-0.373006 2.217485,-0.227585 2.217485,-0.227585 1.243899,0.0471 2.544835,0.04475 3.521858,-0.006 0.504935,-0.237077 0.563896,-0.5685 0.928281,-1.417939 -0.808151,-0.144053 -1.050497,-0.114132 -1.690124,-0.115403 -0.358897,-7.39e-4 -0.746289,8.93e-4 -1.145753,0.0032 0,0 -2.879758,0.105769 -2.891511,-0.08414 -0.01818,-0.396473 -0.009,-0.982163 -0.253794,-0.954488 -0.651326,0 -0.724372,-0.249008 -0.717705,-0.640463 -0.06506,-0.185843 4.290598,-0.08184 4.290598,-0.08184 l 3.295191,0.02345 c 0.343296,-0.410957 0.433989,-0.968916 0.614716,-1.467135 0,-0.03417 -1.543611,-0.02667 -3.545767,-0.02667 0,0 -3.58276,-0.06844 -3.573813,-0.258852 -0.04788,-0.353348 0.09573,-0.53907 -0.310806,-0.563681 -0.412301,-0.0236 -0.670984,-0.266514 -0.655176,-0.630348 0.0177,-0.407684 2.475069,-0.261652 4.235885,-0.245059 3.809058,0.0049 4.400261,-0.01278 4.402324,-0.134714 0.118584,-0.308024 0.166451,-0.97328 0.3223,-1.022074 -1.379156,-0.140014 -2.468716,-0.07961 -3.937953,-0.07264 0,0 -3.932711,6e-5 -3.952665,-0.253335 -0.02278,-0.28959 0.02342,-0.599644 -0.293795,-0.602762 -0.306902,-0.003 -0.783767,-0.249292 -0.778855,-0.573796 -0.01373,-0.636113 5.027154,-0.355404 5.027154,-0.355404 h 4.040942 c 0,0 0.08004,-0.154873 0.0915,-0.332876 0.0023,-0.20122 -0.0869,-0.758625 -0.0869,-0.758625 h -4.040482 c 0,0 -3.926354,0.05201 -3.986689,-0.01057 -0.02771,-0.284186 0.122471,-0.798098 -0.30345,-0.762303 -0.515624,-0.0078 -0.748386,-0.323967 -0.743452,-0.610578 0.01997,-0.405841 2.486146,-0.296974 4.851521,-0.279541 2.134121,0.01573 3.992222,0.04972 4.059793,0.02299 0.107434,-0.04251 0.140608,0.053 -0.06161,-0.729659 l -0.232645,-0.293335 -3.691974,0.0018 c -1.352234,7.4e-4 -3.842378,0.09334 -3.853355,-0.165518 -0.0098,-0.318729 -0.03684,-0.513261 -0.30299,-0.54805 -0.562972,0.01326 -0.713152,-0.428721 -0.720464,-0.683682 -0.0074,-0.254267 4.497956,-0.108046 4.497956,-0.108046 1.959512,0 3.422548,-0.02672 3.422548,-0.04782 0,-0.02109 0.01307,0.003 -0.14207,-0.2781618 -0.320263,-0.580743 -0.696855,-0.792481 -1.018856,-0.914028 -0.114215,-0.04311 -0.654926,-0.06468 -1.726906,-0.06713 -0.357329,-7.4e-4 -0.773372,5.84e-4 -1.252881,0.0037 0,0 -2.688859,0.162548 -2.75036,-0.05517 -0.05982,-0.368449 0.0016,-0.499485 -0.333335,-0.508049 -0.305546,-0.0022 -0.716454,-0.341973 -0.712188,-0.560003 0.0086,-0.51451 2.916338,-0.2409206 2.916338,-0.2409206 1.056087,0.00409 2.099999,-0.012626 2.320013,-0.036782 0.181839,-0.030446 0.174254,0.00288 0.02069,-0.087357 -0.916695,-0.581228 -2.500605,-1.1058367 -3.689216,-1.2220759 l -0.516325,-0.050115 -0.01655,0.062069 c -0.0044,0.049578 -0.0077,0.098466 -0.01149,0.1480468 H 17.64464 l -0.04,-0.2133345 c 0,0 -0.125127,0.010417 -0.230346,0.018391 V 5.0534462 c 0.136499,-0.016237 0.268676,-0.034772 0.389428,-0.037242 z m 4.701635,26.7127931 0.09931,0.391267 c 0.149092,0.589596 0.384226,0.850506 0.743912,1.675409 0.388062,0.889986 0.395299,1.115981 0.07586,2.228519 -0.131449,0.665192 -0.291006,0.965025 -0.480922,1.268974 h -5.529226 v -3.671745 c 0.999132,0.20219 1.898935,0.008 3.048753,-0.600463 0.320291,-0.169503 0.617241,-0.300145 0.70759,-0.315865 l 1.124604,-0.783913 z" />
  </g>
</svg>
