<?xml version="1.0" encoding="UTF-8" standalone="no"?>
<!***REMOVED***Created with Inkscape (http://www.inkscape.org/) -->

<svg
   width="150"
   height="150"
   viewBox="0 0 39.6875 39.6875"
   version="1.1"
   id="svg1168"
   xmlns="http://www.w3.org/2000/svg"
   xmlns:svg="http://www.w3.org/2000/svg">
  <defs
     id="defs1165" />
  <g
     id="layer1" />
  <path
     style="stroke-width:0.12567708;stroke-miterlimit:4;stroke-dasharray:none;stroke-opacity:1"
     d="m 18.714156,38.379036 c -1.17194,-0.219058 -2.034332,-0.597504 -2.923604,-1.28298 -1.665,-1.283428 -4.150059,-3.964475 -5.397642,-5.823337 C 8.35198,28.231796 6.3575494,23.193988 5.8887048,19.895381 5.663629,18.311815 5.8296546,11.705043 6.1833361,8.1707052 6.3911095,6.0944625 6.5210538,5.3706699 6.7786598,4.8548011 7.2162823,3.9784278 8.2302482,3.368938 10.661246,2.521001 13.343953,1.5852667 15.93784,1.2168752 19.843749,1.2168752 c 3.905911,0 6.499797,0.3683915 9.182505,1.3041258 2.430996,0.847937 3.444963,1.4574268 3.882586,2.3338001 0.257604,0.5158688 0.387551,1.2396614 0.595323,3.3159041 0.353686,3.5343378 0.519708,10.1411098 0.29463,11.7246758 -0.468843,3.298607 -2.463274,8.336415 -4.504204,11.377338 -1.612614,2.402744 -4.905088,5.735024 -6.426963,6.504664 -1.182581,0.598052 -2.867202,0.842077 -4.15347,0.601653 z m -0.689498,-2.316288 c -0.350722,-2.052167 -0.35693,-2.334687 -0.0735,-3.34524 0.209417,-0.746669 0.227492,-0.877734 0.147631,-1.070538 -0.08092,-0.195337 -0.572949,-0.700137 -1.123039,-1.152164 -0.217909,-0.179064 -0.238955,-0.297188 -0.08939,-0.501726 0.09934,-0.135864 0.216404,-0.141463 2.957394,-0.141463 2.740992,0 2.858048,0.0057 2.957394,0.141463 0.149561,0.204538 0.128516,0.322662 -0.08939,0.501726 -0.550089,0.452027 -1.042127,0.956827 -1.123038,1.152164 -0.07986,0.192804 -0.06179,0.323869 0.14763,1.070538 0.282728,1.008053 0.277789,1.23975 -0.07162,3.359614 -0.121728,0.73851 -0.212303,1.366149 -0.201278,1.394753 0.03605,0.09352 1.012366,-0.281112 1.395163,-0.535357 1.543705,-1.025298 4.051034,-3.5847 5.533879,-5.648811 2.035815,-2.833858 4.207212,-8.156203 4.677532,-11.465203 C 33.382901,17.62123 32.959467,7.9960962 32.449685,5.7213305 32.347514,5.2653994 32.22326,5.0445554 31.870413,4.6917071 31.117571,3.9388666 27.983815,2.7879241 25.587767,2.3842665 24.061073,2.1270664 23.437572,2.0638602 21.426399,1.9624156 18.18145,1.798737 14.381589,2.1536135 12.045912,2.8384757 11.117283,3.1107656 9.4481459,3.7371361 8.7935889,4.0589601 8.1315916,4.3844427 7.6162451,4.8082947 7.4141133,5.1935262 7.1935644,5.6138508 7.0616925,6.4979121 6.8667353,8.8630371 6.516311,13.114272 6.3987443,18.283561 6.6174809,19.822504 c 0.47032,3.309 2.6417157,8.631345 4.6775421,11.465203 1.482846,2.064111 3.990174,4.623513 5.533879,5.648811 0.45278,0.300726 1.365147,0.62872 1.395672,0.50174 0.01131,-0.04703 -0.07865,-0.666006 -0.199913,-1.37551 z m -0.793424,-6.838013 c -0.454865,-0.03272 -0.872997,-0.09764 -0.929183,-0.144271 -0.05618,-0.04663 -0.102147,-0.177994 -0.102147,-0.291924 0,-0.333231 0.160697,-0.369929 1.254508,-0.286487 1.249283,0.09531 3.953266,0.0951 4.959985,-3.59e-4 0.901488,-0.08548 1.073208,-0.03958 1.073208,0.286853 0,0.113929 -0.04283,0.242686 -0.09517,0.286128 -0.249741,0.207266 -4.071823,0.300359 -6.161195,0.150066 z m -0.994896,-1.094589 c -1.805977,-0.125988 -3.97818,-0.561767 -4.49305,-0.90138 -0.310155,-0.204581 -0.813495,-0.93848 -1.8829927,-2.74551 C 9.1673721,23.312484 9.0743729,23.188067 8.8325103,23.108245 8.2691571,22.922322 7.4063361,22.126735 7.08504,21.496946 6.8492305,21.034716 6.9317968,20.778428 7.3165206,20.778428 c 0.1617667,0 0.2358106,0.06859 0.4130346,0.382605 0.6071043,1.075703 1.5832965,1.574882 2.9094698,1.487769 1.137514,-0.07472 2.114767,-0.372402 3.591057,-1.093877 0.749744,-0.366406 0.851198,-0.398239 0.983839,-0.308694 0.13199,0.0891 0.145297,0.163263 0.123747,0.689709 -0.03265,0.797615 0.06372,1.060663 0.486962,1.32907 l 0.337867,0.214269 0.05404,-0.20854 c 0.08417,-0.324844 0.314939,-0.489242 0.675719,-0.481386 0.413817,0.009 0.859795,0.277019 1.359964,0.817261 0.624931,0.675 0.695569,0.70635 1.591531,0.70635 0.895963,0 0.966599,-0.03135 1.591529,-0.70635 0.500171,-0.540242 0.946148,-0.80825 1.359965,-0.817261 0.360781,-0.0078 0.591545,0.156542 0.67572,0.481386 l 0.05404,0.20854 0.337866,-0.214269 c 0.423236,-0.268407 0.519615,-0.531455 0.486964,-1.32907 -0.02155,-0.526446 -0.0083,-0.600603 0.123746,-0.689709 0.132642,-0.08954 0.234095,-0.05772 0.98384,0.308694 1.478536,0.722574 2.453378,1.019146 3.596849,1.094257 0.837824,0.05504 1.519152,-0.121881 2.060371,-0.535004 0.43134,-0.329248 0.553848,-0.468893 0.836175,-0.953145 0.182052,-0.312258 0.259304,-0.382605 0.420164,-0.382605 0.384727,0 0.467292,0.256288 0.231481,0.718518 -0.321295,0.629789 -1.184116,1.425376 -1.74747,1.611299 -0.241862,0.07982 -0.33486,0.204239 -1.027786,1.375011 -1.069498,1.80703 -1.572837,2.540929 -1.882991,2.74551 -0.311198,0.205268 -1.736046,0.568923 -2.850334,0.727473 -0.793356,0.112889 -2.594099,0.253657 -3.260966,0.254925 l -0.379341,7.15e-4 -0.786691,-0.979161 c -0.43268,-0.53854 -0.803088,-0.979163 -0.82313,-0.979163 -0.02004,0 -0.390449,0.440623 -0.82313,0.979163 l -0.786692,0.979161 -0.561533,-0.0104 c -0.308844,-0.0057 -0.955068,-0.03782 -1.436057,-0.07137 z m 0.03423,-2.696595 C 16.39577,25.30835 16.626115,25.01756 16.782447,24.78735 l 0.284242,-0.418562 -0.343093,-0.04063 c -0.188698,-0.02235 -0.527854,-0.109768 -0.753677,-0.194254 -0.843912,-0.315749 -1.262716,-0.792666 -1.351053,-1.53853 -0.02341,-0.197671 -0.04978,-0.359401 -0.05859,-0.359401 -0.0088,0 -0.262953,0.114087 -0.564753,0.253527 -0.641353,0.296324 -1.747798,0.665607 -2.1954,0.73273 -0.540143,0.08099 -0.539683,0.09359 0.03343,0.916313 0.578329,0.830212 0.82863,1.128511 1.050439,1.251867 0.137418,0.07643 1.841068,0.238085 2.745502,0.260525 0.372465,0.0093 0.435996,-0.0123 0.641073,-0.21738 z m 8.893203,0.152174 c 1.470894,-0.09962 1.559597,-0.11581 1.815803,-0.331393 0.349686,-0.29424 1.416038,-1.86456 1.310468,-1.929807 -0.04925,-0.03044 -0.230454,-0.07647 -0.40267,-0.102295 -0.447601,-0.06712 -1.554048,-0.436406 -2.1954,-0.73273 -0.301801,-0.13944 -0.555939,-0.253526 -0.564753,-0.253526 -0.0088,0 -0.03517,0.161729 -0.05859,0.359401 -0.08834,0.745863 -0.50714,1.22278 -1.351054,1.53853 -0.225822,0.08449 -0.564977,0.171905 -0.753676,0.194254 l -0.343092,0.04063 0.28424,0.418562 c 0.403067,0.593541 0.702479,0.873739 0.934322,0.874358 0.107145,3.03e-4 0.703123,-0.03391 1.3244,-0.07599 z m -7.803227,-1.862266 c -0.129046,-0.155492 -0.229246,-0.123142 -0.139276,0.04497 0.0435,0.08129 0.111837,0.127559 0.151856,0.102827 0.04693,-0.029 0.04246,-0.08147 -0.01258,-0.147795 z m 5.144223,-0.08968 c -0.06181,-0.06181 -0.255373,0.147658 -0.207712,0.224775 0.02865,0.04635 0.08451,0.02404 0.144199,-0.05759 0.05359,-0.0733 0.08217,-0.148521 0.06352,-0.16718 z m -3.661342,-1.508644 c -0.132841,-0.09305 -0.14593,-0.227697 -0.192502,-1.9804 -0.07049,-2.65277 -0.227954,-4.660938 -0.45319,-5.779488 C 18.07633,13.762344 17.573486,13.040038 17.021031,12.674987 13.606369,10.418636 12.248052,9.5909243 11.572555,9.3548732 11.320743,9.2668802 10.992742,9.2282234 10.513118,9.230021 9.8700081,9.2323952 9.7779936,9.251909 9.2742074,9.4922216 8.7655019,9.7348863 8.6475666,9.8330623 7.8320547,10.692753 7.7050522,10.826637 7.4228222,10.822221 7.3085749,10.684613 7.169829,10.517434 7.2758559,10.038052 7.6000564,9.3667115 7.8161836,8.9191693 7.9959175,8.6734412 8.3463248,8.3464335 9.2023613,7.5475591 10.017055,7.2843478 11.645084,7.2806677 c 2.182062,-0.00497 3.707163,0.6405401 5.696253,2.4108426 0.748083,0.6657977 0.971994,0.9146487 0.971994,1.0802627 0,0.04993 -0.213632,0.335722 -0.474742,0.635108 l -0.474744,0.544339 0.529403,0.532925 c 0.321145,0.323285 0.604416,0.690603 0.720096,0.933751 0.463716,0.97468 0.660357,2.696415 0.765789,6.705046 0.04071,1.547693 0.03184,1.872015 -0.05298,1.938147 -0.185725,0.144811 -0.338529,0.165099 -0.482731,0.06409 z M 12.519609,16.139989 C 11.282426,15.996568 10.69109,15.828269 10.254614,15.495352 10.012366,15.31058 9.9861005,15.306311 9.5933112,15.387856 8.491636,15.616562 7.4109918,15.071743 6.9017403,14.030868 6.7186689,13.656687 6.714964,13.627564 6.8283996,13.454435 c 0.1971991,-0.300965 0.4493183,-0.236393 0.6566452,0.168178 0.1636333,0.31931 0.6027583,0.80001 0.8454791,0.925524 0.2921903,0.151099 0.8744061,0.206408 1.2130022,0.115233 0.1983783,-0.05342 0.3638759,-0.16485 0.4895569,-0.329628 0.377999,-0.49558 1.317838,-0.793498 2.778029,-0.8806 1.445419,-0.08622 2.827572,0.224122 3.392796,0.761807 0.247962,0.23588 0.287494,0.316673 0.287494,0.587562 0,0.620239 -0.747169,1.073481 -2.107733,1.278579 -0.648415,0.09775 -1.340372,0.11961 -1.864064,0.0589 z m 12.716304,-0.05853 c -0.835945,-0.137328 -1.406553,-0.362465 -1.752327,-0.691391 -0.247962,-0.235881 -0.287494,-0.316673 -0.287494,-0.587562 0,-0.270889 0.03954,-0.351682 0.287494,-0.587563 1.147283,-1.091383 5.308883,-1.011269 6.170824,0.118794 0.125682,0.164777 0.291181,0.276211 0.489558,0.329628 0.338598,0.09117 0.920811,0.03586 1.213004,-0.115233 0.24272,-0.125515 0.681844,-0.606215 0.845478,-0.925524 0.209466,-0.408748 0.459546,-0.468992 0.662301,-0.159546 0.12117,0.184929 0.118619,0.203407 -0.08061,0.583924 -0.547983,1.046633 -1.594485,1.568283 -2.689958,1.340865 -0.390136,-0.08099 -0.420229,-0.07638 -0.65131,0.09987 -0.133252,0.101639 -0.368525,0.237543 -0.522827,0.302015 -0.764504,0.31943 -2.620732,0.46641 -3.684136,0.291717 z m -3.097836,-4.358008 c -0.762833,-0.812512 -0.828528,-0.929023 -0.664763,-1.17896 0.207557,-0.316772 1.583264,-1.4919288 2.343829,-2.0021469 1.370909,-0.9196621 2.529266,-1.2655641 4.225271,-1.2617303 1.628031,0.00373 2.442724,0.2668914 3.298761,1.0657658 0.350408,0.3270077 0.530141,0.5727358 0.746268,1.0202791 0.324201,0.6713393 0.430227,1.1507213 0.291481,1.3179003 -0.185671,0.223721 -0.407728,0.122979 -0.944277,-0.428393 C 31.036637,9.8471613 30.785454,9.6599903 30.387674,9.4760035 29.913835,9.2568361 29.798859,9.2336332 29.172008,9.2306801 c -0.478819,-0.00226 -0.804815,0.036043 -1.057066,0.1241931 -0.554995,0.1939431 -1.656151,0.8379618 -3.410854,1.9948608 -0.915008,0.603279 -1.662215,1.047833 -1.761196,1.047833 -0.122638,0 -0.353346,-0.19324 -0.804815,-0.674113 z"
     id="path915" />
</svg>
