<?xml version="1.0" encoding="UTF-8" standalone="no"?>
<!-- Created with Inkscape (http://www.inkscape.org/) -->

<svg
  width="150"
  height="150"
  viewBox="0 0 39.6875 39.6875"
  version="1.1"
  id="svg1168"
  xmlns="http://www.w3.org/2000/svg"
>
  <defs
    id="defs1165"/>
  <g
    id="layer1"/>
  <path
    id="path872"
    style="stroke-width:1.4403"
    d="M 104.89648 17.398438 C 97.43135 17.493325 90.037507 19.044196 85.623047 22.013672 C 81.066558 25.078687 80.913714 25.511306 80.501953 36.492188 L 80.076172 47.810547 L 75.800781 43.712891 C 71.86875 39.945767 71.336086 39.802586 69.203125 41.935547 C 67.070186 44.068504 67.070782 44.80467 69.207031 51.074219 C 76.254104 61.267763 79.583621 62.706857 79.527344 98.003906 C 80.904044 98.003906 80.205078 99.903876 80.205078 104.95508 C 80.205078 110.8639 80.759485 112.40317 83.396484 113.81445 C 93.168351 118.2899 118.45554 118.46311 129.17578 113.44336 C 130.664 82.101283 130.308 29.588571 129.5293 27.123047 C 128.12589 22.67959 124.58984 21.517578 124.58984 21.517578 C 119.89728 18.663872 112.36162 17.30355 104.89648 17.398438 z M 105.84375 20.070312 C 110.12472 20.072812 114.36474 20.530992 117.79688 21.484375 C 120.64875 22.276576 124.10677 24.167628 125.48047 25.685547 C 127.86622 28.32178 127.82317 28.546169 124.53125 30.703125 C 115.91669 36.347634 94.986983 36.401342 86.439453 30.800781 C 81.66868 27.674862 82.240901 26.033137 89.207031 22.871094 C 93.243125 21.039039 99.586942 20.06666 105.84375 20.070312 z M 105.61719 23.203125 C 99.598679 23.18485 93.337003 24.157952 90.050781 25.921875 C 86.958916 27.186312 88.530782 28.661871 91.007812 29.574219 C 96.29197 31.832722 110.6773 32.073028 118.05078 30.025391 C 124.70237 28.178222 124.05688 26.747574 115.49219 24.349609 C 112.75213 23.582444 109.22829 23.21409 105.61719 23.203125 z M 104.60547 25.789062 C 110.10389 25.789062 114.95245 26.354871 115.37891 27.044922 C 116.37946 28.663893 106.97732 29.870781 100.00977 29.017578 C 90.963618 27.909824 93.981553 25.789062 104.60547 25.789062 z M 92.041016 44.84375 C 93.148657 44.814771 94.464032 45.23541 95.347656 45.96875 C 98.535068 48.614211 98.517094 96.059483 95.328125 97.283203 C 94.139876 97.739165 92.196066 97.739165 91.007812 97.283203 C 87.770163 96.040736 87.786687 46.270151 91.025391 45.027344 C 91.324976 44.912382 91.671802 44.85341 92.041016 44.84375 z M 115.58008 45.324219 C 116.89394 45.27258 118.51354 46.257403 120.4375 49.210938 C 121.09679 66.277844 120.4304 79.797628 120.06836 100.82031 C 117.70622 103.42406 114.84614 102.93247 112.07812 99.902344 C 112.07812 99.902344 111.35489 52.504379 111.7793 49.271484 C 112.39191 47.688381 113.65982 45.399691 115.58008 45.324219 z M 37.726562 55.103516 L 34.390625 63.90625 C 31.38567 71.835721 30.868909 72.84539 29.189453 74.087891 L 27.326172 75.46875 L 25.753906 73.121094 L 24.179688 70.773438 L 22.171875 71.951172 C 21.066602 72.59882 19.096857 73.854581 17.794922 74.742188 L 15.427734 76.355469 L 16.896484 78.849609 C 18.600843 81.74215 18.550144 82.065816 16.132812 83.683594 C 15.140993 84.347347 14.270048 85.295198 14.197266 85.791016 C 14.013686 87.041514 22.722834 100.40455 23.71875 100.40039 C 24.163582 100.39852 25.262895 99.809575 26.162109 99.089844 C 27.061324 98.370123 28.054186 97.877454 28.367188 97.996094 C 28.680178 98.114703 34.599449 107.3253 41.521484 118.46289 C 48.443523 129.60048 54.55141 139.22098 55.095703 139.84375 C 57.118208 142.15785 60.862636 142.40969 63.306641 140.39453 C 65.073381 138.9378 65.487644 136.11519 64.300781 133.625 C 63.758098 132.48639 57.885611 123.12897 51.25 112.83008 C 44.614389 102.53119 38.87256 93.468995 38.490234 92.691406 C 37.81097 91.309883 37.857045 91.238923 40.53125 89.640625 C 44.588448 87.215756 48.644025 87.068444 58.498047 88.988281 C 61.439086 89.561284 61.799881 88.58265 60.632812 83.207031 C 58.232416 72.150658 49.490661 60.504297 40.492188 56.373047 L 37.726562 55.103516 z M 39.466797 59.138672 C 39.891188 59.147914 40.660658 59.659105 42.386719 60.818359 C 48.773757 65.108017 54.42352 72.688805 56.673828 79.994141 C 58.667759 86.467217 58.813426 86.10877 54.511719 85.314453 C 54.000345 85.220022 52.552246 82.670171 51.294922 79.646484 C 48.864213 73.800285 44.902677 68.633329 40.484375 65.552734 C 38.044221 63.851384 37.74447 62.848225 38.818359 59.958984 C 39.015705 59.428136 39.136715 59.131484 39.466797 59.138672 z "
    transform="scale(0.26458333)"/>
</svg>
