<?xml version="1.0" encoding="UTF-8" standalone="no"?>
<!-- Created with Inkscape (http://www.inkscape.org/) -->

<svg
   width="150"
   height="150"
   viewBox="0 0 39.6875 39.6875"
   version="1.1"
   id="svg1168"
   xml:space="preserve"
   xmlns="http://www.w3.org/2000/svg"
   xmlns:svg="http://www.w3.org/2000/svg"><defs
     id="defs1165" /><path
     id="path488"
     style="stroke-width:0.0315595"
     d="m 18.25715,5.2827719 c -0.24139,-3.58e-4 -0.4862,0.01074 -0.51451,0.03366 -0.024,0.01943 -0.104,0.04528 -0.17777,0.05745 -0.0738,0.01217 -0.13413,0.03351 -0.13413,0.04746 0,0.01395 -0.0372,0.03475 -0.0827,0.04617 -0.0455,0.01141 -0.10205,0.04005 -0.12568,0.06367 -0.0429,0.04292 -0.17037,0.03173 -0.17037,-0.01498 0,-0.03443 -0.24233,-0.157305 -0.31024,-0.157305 -0.0307,0 -0.0727,-0.01683 -0.0933,-0.03742 -0.0491,-0.04908 -0.82969,-0.05075 -0.92934,-0.002 -0.0393,0.01926 -0.13902,0.04399 -0.22147,0.05492 -0.0825,0.01094 -0.14991,0.03142 -0.14991,0.04549 0,0.01408 -0.0568,0.03463 -0.12624,0.04574 -0.0694,0.01111 -0.12624,0.03311 -0.12624,0.04888 0,0.01577 -0.0426,0.03806 -0.0947,0.0495 -0.0521,0.01144 -0.0947,0.03073 -0.0947,0.0429 0,0.01217 -0.0391,0.03895 -0.0868,0.05948 -0.0843,0.03627 -0.1968,0.102297 -0.22881,0.134313 -0.009,0.0087 -0.0867,0.07259 -0.17346,0.142017 -0.18349,0.146893 -0.29747,0.268975 -0.29889,0.320096 -5.5e-4,0.01984 -0.0223,0.04425 -0.0484,0.05424 -0.026,0.01 -0.0473,0.03993 -0.0473,0.06651 0,0.02658 -0.0142,0.04833 -0.0316,0.04833 -0.0173,0 -0.0293,0.01065 -0.0265,0.02367 0.006,0.02724 -0.0279,0.124939 -0.0705,0.204705 -0.0161,0.03014 -0.0293,0.08897 -0.0293,0.130738 0,0.08589 -0.0516,0.11428 -0.20773,0.11428 -0.0593,0 -0.10787,0.01262 -0.10787,0.02805 0,0.01543 -0.0532,0.03803 -0.11822,0.05024 -0.065,0.01221 -0.12541,0.03152 -0.13413,0.04296 -0.009,0.01144 -0.0834,0.05374 -0.16581,0.094 -0.0824,0.04026 -0.14991,0.08643 -0.14991,0.10257 0,0.01614 -0.0198,0.02934 -0.0441,0.02934 -0.0741,0 -0.56582,0.507025 -0.71928,0.741651 -0.1429,0.218494 -0.27812,0.486114 -0.27812,0.550566 0,0.01831 -0.0135,0.03329 -0.0299,0.03329 -0.0165,0 -0.0397,0.0855 -0.0515,0.190035 -0.0118,0.104534 -0.0338,0.197671 -0.0489,0.206987 -0.0437,0.02703 -0.0342,0.455086 0.0102,0.455086 0.0595,0 -0.0787,0.09256 -0.13986,0.09363 -0.0749,0.0014 -0.37114,0.132904 -0.37114,0.164763 0,0.0141 -0.0217,0.02564 -0.0483,0.02564 -0.0266,0 -0.0565,0.0213 -0.0665,0.04734 -0.01,0.02604 -0.0357,0.04734 -0.0571,0.04734 -0.0411,0 -0.49084,0.4326981 -0.49084,0.4722231 0,0.01267 -0.0249,0.05233 -0.0552,0.08808 -0.0304,0.03575 -0.0756,0.09398 -0.10041,0.129381 -0.0249,0.03541 -0.0555,0.05802 -0.068,0.05024 -0.0126,-0.0078 -0.0154,0.01426 -0.006,0.049 0.0155,0.0591 -0.0305,0.08297 -0.12735,0.06614 -0.0143,-0.0025 -0.0168,0.01022 -0.006,0.02829 0.0112,0.01807 0.0351,0.02378 0.0531,0.01264 0.0387,-0.02389 1.5e-4,0.120447 -0.0389,0.145778 -0.0136,0.0089 -0.0346,0.05501 -0.0465,0.102569 -0.0119,0.04756 -0.033,0.08648 -0.0468,0.08648 -0.0138,0 -0.035,0.07149 -0.047,0.158908 -0.0185,0.134591 -0.0306,0.156136 -0.0792,0.140723 -0.0315,-0.01001 -0.0664,-0.0036 -0.0774,0.0143 -0.0117,0.01886 -8.1e-4,0.02508 0.0258,0.01486 0.0389,-0.01492 0.0452,0.04766 0.0416,0.409596 -0.003,0.301545 0.007,0.43865 0.0346,0.46612 0.0466,0.04656 0.0518,0.152559 0.008,0.152559 -0.043,0 -0.1753398,0.111009 -0.3631898,0.304686 -0.19956,0.205758 -0.21195,0.22184 -0.3032,0.391412 -0.0415,0.07712 -0.0862,0.144924 -0.0992,0.15071 -0.013,0.0058 -0.0241,0.02709 -0.0247,0.04734 -5.8e-4,0.02025 -0.0285,0.09367 -0.0621,0.163097 -0.0335,0.06943 -0.0614,0.148216 -0.062,0.175119 -5.8e-4,0.0269 -0.0141,0.06241 -0.0299,0.0789 -0.0803,0.08368 -0.16975,1.139597 -0.10361,1.223735 0.016,0.02039 0.0382,0.09681 0.0494,0.169817 0.0282,0.185091 0.15396,0.407611 0.32053,0.56721 0.12091,0.115856 0.14122,0.153385 0.14122,0.260798 v 0.125499 l -0.98359,0.0092 c -0.75223,0.007 -0.98673,0.01846 -0.99678,0.04863 -0.007,0.0217 -0.0333,0.03945 -0.058,0.03945 -0.0667,0 -0.3286,0.278144 -0.3286,0.349005 0,0.03369 -0.0142,0.06127 -0.0316,0.06127 -0.0205,0 -0.0316,0.410279 -0.0316,1.167704 0,0.759969 -0.006,1.057691 -0.0262,1.138549 -3.09305,1.200378 -5.13129,4.177276 -5.13176,7.495093 3e-5,4.440873 3.6001,8.040921 8.0409698,8.040913 1.88865,3e-6 3.62514,-0.651236 4.99739,-1.741263 l -1.9096,-2.097541 c -0.86439,0.636237 -1.93217,1.012244 -3.08779,1.012249 -2.8797898,-1.2e-5 -5.2143398,-2.334561 -5.2143498,-5.214358 -3e-5,-2.879821 2.33453,-5.214408 5.2143498,-5.21442 2.87983,1.2e-5 5.21439,2.334599 5.21436,5.21442 0,1.132741 -0.36127,2.181059 -0.97477,3.036192 l 1.93037,2.120286 c 1.16791,-1.395933 1.87101,-3.194062 1.87102,-5.156478 -4e-5,-3.417984 -2.16088,-6.462428 -5.38738,-7.590388 -0.0102,-0.151756 -0.0137,-0.459865 -0.0137,-1.025563 0,-0.637145 -0.0125,-1.157849 -0.028,-1.167458 -0.0154,-0.0095 -0.0371,-0.05332 -0.0481,-0.09733 -0.0224,-0.08919 -0.25575,-0.330883 -0.31948,-0.330883 -0.0225,0 -0.0468,-0.01775 -0.054,-0.03945 -0.01,-0.03017 -0.24455,-0.04161 -0.99678,-0.04863 l -0.98364,-0.0092 v -0.122787 c 0,-0.09934 0.0135,-0.12709 0.0704,-0.145162 0.0968,-0.03071 0.22811,-0.128984 0.39992,-0.299199 0.15894,-0.157465 0.38174,-0.465182 0.38174,-0.527206 0,-0.02155 0.0142,-0.0392 0.0316,-0.0392 0.0173,0 0.0321,-0.01775 0.0327,-0.03945 5.9e-4,-0.0217 0.0285,-0.09626 0.062,-0.165688 0.0335,-0.06943 0.0615,-0.158192 0.0621,-0.197247 5.8e-4,-0.03905 0.0137,-0.07101 0.0292,-0.07101 0.0744,0 0.17119,-1.125034 0.10405,-1.209496 -0.0162,-0.02039 -0.0392,-0.104231 -0.0511,-0.186276 -0.0119,-0.08204 -0.0349,-0.157434 -0.0513,-0.167537 -0.0677,-0.04186 -0.0287,-0.136127 0.0649,-0.156688 0.0521,-0.01144 0.0947,-0.03383 0.0947,-0.04981 0,-0.01598 0.0184,-0.02909 0.0409,-0.02909 0.0609,0 0.16102,-0.08249 0.44485,-0.366326 0.28384,-0.283834 0.36633,-0.384 0.36633,-0.444854 0,-0.02251 0.014,-0.04093 0.031,-0.04093 0.017,0 0.0398,-0.0355 0.0507,-0.0789 0.0109,-0.04339 0.0325,-0.0789 0.048,-0.0789 0.0155,0 0.0281,-0.01498 0.0281,-0.03329 0,-0.0343 0.10439,-0.286366 0.15964,-0.385557 0.0171,-0.03076 0.0399,-0.119906 0.0506,-0.198111 0.0107,-0.0782 0.0317,-0.149737 0.0467,-0.158969 0.0412,-0.02543 0.0337,-0.688216 -0.008,-0.730123 -0.0261,-0.02612 0.003,-0.04105 0.11046,-0.0572 0.0802,-0.01203 0.14578,-0.03263 0.14578,-0.0458 0,-0.01317 0.0556,-0.03284 0.12359,-0.0437 0.068,-0.01087 0.12833,-0.03047 0.13413,-0.04352 0.006,-0.01304 0.078,-0.05892 0.16044,-0.101951 0.0824,-0.04303 0.14991,-0.0882 0.14991,-0.100411 0,-0.01221 0.0265,-0.03066 0.0589,-0.04093 0.0616,-0.01955 0.50921,-0.445381 0.50921,-0.484428 0,-0.01236 0.0324,-0.05787 0.072,-0.101089 0.15438,-0.168516 0.4014,-0.631762 0.4014,-0.752745 0,-0.03422 0.0147,-0.06708 0.0326,-0.07304 0.0179,-0.006 0.0414,-0.136255 0.0522,-0.289461 l 0.0197,-0.27855 0.0819,0.0233 c 0.17855,0.0507 0.90571,-0.0067 0.99542,-0.07853 0.0183,-0.01466 0.0796,-0.03653 0.13616,-0.04863 0.0566,-0.0121 0.1418,-0.0405 0.18936,-0.06306 0.0476,-0.02256 0.14678,-0.0667 0.22055,-0.09813 0.0738,-0.03143 0.13412,-0.06864 0.13412,-0.08266 0,-0.01402 0.0156,-0.02552 0.0345,-0.02552 0.019,0 0.067,-0.02485 0.10676,-0.05523 0.0398,-0.03038 0.10455,-0.07653 0.14387,-0.102569 0.0393,-0.02604 0.14321,-0.115787 0.2309,-0.199467 0.14826,-0.141465 0.16115,-0.147557 0.18363,-0.08679 0.0133,0.03594 0.0363,0.06534 0.0511,0.06534 0.0148,0 0.0746,0.0426 0.13289,0.09468 0.0583,0.05207 0.12331,0.09468 0.14436,0.09468 0.0211,0 0.0465,0.0213 0.0565,0.04734 0.01,0.02604 0.0399,0.04734 0.0664,0.04734 0.0266,0 0.0483,0.0142 0.0483,0.03156 0,0.01736 0.018,0.03161 0.0399,0.03162 0.022,0 0.0929,0.0284 0.15768,0.06312 0.0648,0.03471 0.14625,0.06312 0.18103,0.06312 0.0348,0 0.0632,0.01329 0.0632,0.02959 0,0.01629 0.0675,0.03957 0.14991,0.05172 0.0825,0.01215 0.16009,0.03791 0.17247,0.0572 0.0312,0.04859 1.18593,0.04876 1.21732,1.24e-4 0.0124,-0.01919 0.0747,-0.04454 0.13857,-0.05628 0.0638,-0.01174 0.12063,-0.03148 0.12624,-0.04395 0.006,-0.01247 0.062,-0.04898 0.12525,-0.08112 l 0.11508,-0.05843 0.18474,0.18683 c 0.18623,0.188317 0.37582,0.327363 0.57923,0.424759 0.20879,0.09998 0.34099,0.152251 0.38506,0.152251 0.0243,0 0.0592,0.01499 0.0775,0.03335 0.0184,0.01836 0.1139,0.04168 0.21235,0.05184 0.0984,0.01016 0.18657,0.03068 0.19577,0.04555 0.0254,0.04116 0.75462,0.03289 0.84792,-0.0096 0.0443,-0.02018 0.0899,-0.0273 0.10146,-0.01578 0.0115,0.01152 0.0275,0.09903 0.0354,0.194474 0.008,0.09545 0.0252,0.173578 0.0385,0.173578 0.0132,0 0.0336,0.06391 0.0454,0.142017 0.0117,0.07811 0.0335,0.142019 0.0484,0.142019 0.0149,0 0.0365,0.04261 0.0479,0.09468 0.0114,0.05207 0.0324,0.09468 0.0465,0.09468 0.0141,0 0.0353,0.03892 0.0473,0.08648 0.0119,0.04756 0.0313,0.09372 0.0429,0.102568 0.0117,0.0088 0.0702,0.0871 0.13006,0.173887 0.0599,0.08679 0.20192,0.251511 0.3156,0.366078 0.20678,0.208394 0.60789,0.5018101 0.68599,0.5018101 0.0228,0 0.0414,0.01357 0.0414,0.03014 0,0.01657 0.0533,0.03968 0.11835,0.05141 0.0651,0.01173 0.1353,0.03475 0.15595,0.0511 0.0207,0.01636 0.14492,0.03785 0.27614,0.04777 0.17088,0.01292 0.23855,0.0302 0.23855,0.06084 0,0.02353 0.0126,0.04278 0.0279,0.04278 0.0365,0 0.0648,0.110002 0.039,0.151757 -0.0111,0.0179 -0.0591,0.04237 -0.10664,0.0543 -0.0476,0.01194 -0.0865,0.03433 -0.0865,0.0498 0,0.01548 -0.0178,0.02826 -0.0395,0.02835 -0.0217,1.07e-4 -0.0775,0.02009 -0.12408,0.04438 -0.0466,0.02429 -0.12822,0.05371 -0.18147,0.0654 -0.0532,0.01169 -0.0968,0.03432 -0.0968,0.0503 0,0.01598 -0.0213,0.02909 -0.0474,0.02909 -0.0261,0 -0.10049,0.0284 -0.16526,0.06312 -0.0648,0.03471 -0.13572,0.06312 -0.15767,0.06312 -0.022,0 -0.0399,0.0142 -0.0399,0.03156 0,0.01736 -0.0249,0.03201 -0.0552,0.03261 -0.0304,5.96e-4 -0.11203,0.02853 -0.18146,0.06207 -0.0694,0.03353 -0.14399,0.06141 -0.16569,0.06201 -0.0217,5.97e-4 -0.0395,0.01531 -0.0395,0.03267 0,0.01736 -0.0208,0.03156 -0.0462,0.03156 -0.0537,0 -0.26937,0.181249 -0.26937,0.226402 0,0.0168 -0.0213,0.05187 -0.0473,0.07791 -0.026,0.02604 -0.0473,0.0747 -0.0473,0.108179 0,0.03348 -0.0142,0.0609 -0.0316,0.0609 -0.039,0 -0.0424,0.368296 -0.004,0.392276 0.0154,0.0095 0.0374,0.06714 0.0488,0.128086 0.0114,0.06094 0.0328,0.11083 0.0474,0.11083 0.0146,0 0.0359,0.04971 0.0473,0.110458 0.0114,0.06075 0.0343,0.110458 0.0508,0.110458 0.0166,0 0.0301,0.01498 0.0301,0.03329 0,0.02884 0.0395,0.127228 0.1578,0.392768 0.11827,0.265548 0.1578,0.363929 0.1578,0.39277 0,0.01831 0.0142,0.03328 0.0316,0.03328 0.0174,0 0.0321,0.01775 0.0327,0.03945 5.8e-4,0.0217 0.0285,0.09625 0.062,0.165687 0.0335,0.06943 0.0615,0.151091 0.0621,0.181467 5.8e-4,0.03038 0.0152,0.05523 0.0326,0.05523 0.0174,0 0.0317,0.01775 0.0318,0.03945 1.1e-4,0.0217 0.0196,0.07665 0.0433,0.12217 0.0477,0.09136 0.0721,0.05473 -0.33803,0.507789 -0.0897,0.09914 -0.17758,0.198555 -0.19521,0.220917 -0.0242,0.0307 -0.0471,0.06418 -0.0747,0.101027 a 8.0409611,8.0409611 0 0 0 -1.7788,5.04189 8.0409611,8.0409611 0 0 0 8.04097,8.040913 8.0409611,8.0409611 0 0 0 7.68791,-5.688183 l -2.74427,-0.697085 a 5.2143794,5.2143794 0 0 1 -4.94364,3.558713 5.2143794,5.2143794 0 0 1 -5.21435,-5.214358 5.2143794,5.2143794 0 0 1 5.21435,-5.21442 5.2143794,5.2143794 0 0 1 5.21436,5.21442 5.2143794,5.2143794 0 0 1 -8e-4,0.03557 l 2.79161,0.709105 a 8.0409611,8.0409611 0 0 0 0.0358,-0.744671 8.0409611,8.0409611 0 0 0 -8.04098,-8.040974 8.0409611,8.0409611 0 0 0 -0.0968,0.0036 c -10e-4,-0.0016 -0.003,-0.0033 -0.007,-0.0051 -0.0108,-0.0044 -0.0251,-0.0066 -0.0395,-0.0066 -0.0143,0 -0.0286,0.0022 -0.0394,0.0066 -0.008,0.0032 -0.009,0.006 -0.007,0.0085 a 8.0409611,8.0409611 0 0 0 -0.28472,0.01066 c -0.0877,-0.02147 -0.10939,-0.0615 -0.12969,-0.144361 -0.0122,-0.04983 -0.0307,-0.09771 -0.0411,-0.10639 -0.0104,-0.0087 -0.0517,-0.08679 -0.0918,-0.173578 -0.0401,-0.08679 -0.0845,-0.179518 -0.0986,-0.206123 -0.014,-0.02661 -0.0356,-0.09407 -0.0478,-0.149908 -0.0123,-0.05584 -0.0354,-0.101583 -0.0513,-0.101583 -0.016,0 -0.0291,-0.0213 -0.0291,-0.0474 0,-0.0261 -0.0284,-0.100484 -0.0631,-0.165257 -0.0347,-0.06476 -0.0631,-0.13572 -0.0631,-0.157674 0,-0.02195 -0.0142,-0.03994 -0.0316,-0.03994 -0.0174,0 -0.032,-0.02485 -0.0326,-0.05523 -5.9e-4,-0.03038 -0.0285,-0.112038 -0.0621,-0.181469 -0.0335,-0.06943 -0.0614,-0.14399 -0.062,-0.165687 -5.9e-4,-0.0217 -0.0153,-0.03945 -0.0327,-0.03945 -0.0174,0 -0.0316,-0.02453 -0.0316,-0.05455 0,-0.07269 -0.19454,-0.3555991 -0.24459,-0.3556621 -0.0217,-3.3e-5 -0.0395,-0.0139 -0.0395,-0.03082 0,-0.01692 -0.0663,-0.06101 -0.14738,-0.09795 -0.11795,-0.0537 -0.19169,-0.06461 -0.36867,-0.05461 -0.1348,0.0076 -0.22618,0.02733 -0.23392,0.05054 -0.007,0.02095 -0.0363,0.03861 -0.0653,0.0392 -0.0289,5.96e-4 -0.10945,0.02847 -0.17888,0.06201 -0.0694,0.03353 -0.14399,0.06147 -0.16568,0.06207 -0.0217,5.96e-4 -0.0395,0.01367 -0.0395,0.02909 0,0.01543 -0.0497,0.03742 -0.11046,0.04882 -0.0607,0.0114 -0.11046,0.03313 -0.11046,0.04832 0,0.01519 -0.0426,0.03695 -0.0947,0.04839 -0.0521,0.01144 -0.0947,0.03389 -0.0947,0.04987 0,0.01598 -0.0221,0.02903 -0.0491,0.02903 -0.0426,0 -0.18323,0.05473 -0.40855,0.158908 -0.20767,0.09602 -0.2214,0.09455 -0.2751,-0.0294 -0.0278,-0.06424 -0.0538,-0.137424 -0.0576,-0.162605 -0.0102,-0.06636 0.0363,-0.2492901 0.0685,-0.2691811 0.0358,-0.02213 0.0359,-0.540892 1.2e-4,-0.563019 -0.0151,-0.0093 -0.0369,-0.08825 -0.0484,-0.175426 -0.0116,-0.08718 -0.0331,-0.158538 -0.048,-0.158538 -0.0148,0 -0.0363,-0.04971 -0.0477,-0.110459 -0.0114,-0.06075 -0.0343,-0.110458 -0.0508,-0.110458 -0.0166,0 -0.0301,-0.01875 -0.0301,-0.04173 0,-0.02298 -0.0494,-0.111743 -0.10985,-0.197248 -0.0604,-0.08551 -0.12788,-0.183008 -0.14991,-0.216602 -0.0543,-0.08278 -0.43228,-0.456663 -0.56042,-0.554327 -0.0569,-0.04339 -0.16903,-0.11441 -0.24915,-0.157797 -0.0801,-0.04339 -0.15296,-0.0884 -0.16181,-0.100042 -0.009,-0.01164 -0.0586,-0.03138 -0.11046,-0.04383 -0.0519,-0.01245 -0.11,-0.03484 -0.12913,-0.0498 -0.0191,-0.01496 -0.12037,-0.03617 -0.22492,-0.04709 l -0.1901,-0.01985 -0.0189,-0.159217 c -0.0104,-0.08757 -0.0315,-0.167414 -0.047,-0.177398 -0.0155,-0.01 -0.0378,-0.04924 -0.0497,-0.08722 -0.0393,-0.125913 -0.55166,-0.609493 -0.6458,-0.609493 -0.0166,0 -0.035,-0.01065 -0.0408,-0.02367 -0.006,-0.01302 -0.0815,-0.05651 -0.16834,-0.09665 -0.0868,-0.04014 -0.1809,-0.08533 -0.20914,-0.10041 -0.0282,-0.01508 -0.10635,-0.03731 -0.17358,-0.04944 -0.0672,-0.01213 -0.13757,-0.03418 -0.15638,-0.049 -0.10798,-0.08514 -1.24222,-0.08615 -1.35071,-0.0012 -0.0194,0.01519 -0.0778,0.03785 -0.12969,0.0503 -0.0519,0.01245 -0.10161,0.03212 -0.11046,0.04376 -0.009,0.01164 -0.0587,0.0434 -0.11077,0.07052 l -0.0947,0.04925 -0.16266,-0.169447 c -0.17493,-0.182221 -0.4435,-0.386729 -0.50785,-0.386729 -0.0218,0 -0.0396,-0.0142 -0.0396,-0.03156 0,-0.01736 -0.0178,-0.03207 -0.0395,-0.03267 -0.0217,-5.97e-4 -0.0962,-0.02848 -0.16568,-0.06201 -0.0694,-0.03354 -0.1511,-0.06148 -0.18147,-0.06207 -0.0304,-5.96e-4 -0.0552,-0.01422 -0.0552,-0.03033 0,-0.01611 -0.0817,-0.03938 -0.18147,-0.05165 -0.0998,-0.01228 -0.19081,-0.03688 -0.20224,-0.05467 -0.0148,-0.02299 -0.25272,-0.03482 -0.4941,-0.0352 z m 0.0801,0.690367 c 0.0865,-7.15e-4 0.17977,0.0048 0.2783,0.01707 0.14407,0.0179 0.30212,0.05353 0.35123,0.07914 0.0491,0.02561 0.107,0.04669 0.1287,0.04678 0.0217,1.08e-4 0.0395,0.01439 0.0395,0.03174 0,0.01736 0.0132,0.03156 0.0294,0.03156 0.0586,0 0.24845,0.144287 0.31387,0.238607 0.0974,0.140423 0.0915,0.337669 -0.012,0.405528 -0.0435,0.02848 -0.12189,0.06035 -0.17425,0.07082 -0.0524,0.01047 -0.10285,0.03142 -0.11219,0.04654 v 6.2e-5 c -0.0223,0.03608 -0.50936,0.03563 -0.5317,-4.94e-4 -0.009,-0.01535 -0.0849,-0.03799 -0.16754,-0.0503 -0.0827,-0.01231 -0.16454,-0.03355 -0.1819,-0.04715 -0.0174,-0.01361 -0.0659,-0.03527 -0.10799,-0.0482 -0.0919,-0.02825 -0.12223,-0.05122 -0.32152,-0.243909 -0.12643,-0.122249 -0.15434,-0.169039 -0.15434,-0.258763 0,-0.196181 0.24773,-0.316039 0.6225,-0.319048 z m -2.35834,0.03014 c 0.1965,-2.8e-5 0.39305,0.01397 0.40245,0.04204 0.007,0.0217 0.033,0.03945 0.0573,0.03945 0.0562,0 0.0895,0.130805 0.0676,0.26579 -0.0183,0.112716 -0.28347,0.406972 -0.40011,0.443992 -0.0352,0.01118 -0.064,0.03355 -0.064,0.04974 0,0.01619 -0.0178,0.02991 -0.0395,0.03051 -0.0217,5.97e-4 -0.0963,0.02853 -0.16569,0.06207 -0.0694,0.03353 -0.1573,0.06141 -0.19533,0.06201 -0.038,5.96e-4 -0.078,0.01531 -0.0887,0.03267 -0.0107,0.01736 -0.14647,0.03156 -0.30167,0.03156 -0.16707,0 -0.28219,-0.01287 -0.28219,-0.03156 0,-0.01736 -0.0274,-0.03156 -0.0608,-0.03156 -0.11475,0 -0.16834,-0.09184 -0.15213,-0.260551 0.0128,-0.133125 0.0359,-0.175824 0.16797,-0.309864 0.0842,-0.0855 0.17138,-0.155455 0.19373,-0.155455 0.0224,0 0.0406,-0.01172 0.0406,-0.02601 0,-0.03713 0.26285,-0.163345 0.34013,-0.163345 0.0357,0 0.0708,-0.0177 0.078,-0.03933 0.009,-0.02808 0.20582,-0.04213 0.40232,-0.04216 z m 5.57002,0.587059 c 0.17043,3.57e-4 0.33168,0.0096 0.33168,0.02737 0,0.01539 0.0639,0.03754 0.14202,0.04925 0.0781,0.01171 0.14202,0.03347 0.14202,0.04839 0,0.01492 0.0426,0.03652 0.0947,0.04796 0.0521,0.01144 0.0947,0.03383 0.0947,0.0498 0,0.01598 0.0159,0.02909 0.0353,0.02909 0.0194,0 0.0904,0.05509 0.15779,0.122478 0.0674,0.06739 0.12248,0.138398 0.12248,0.157797 0,0.0194 0.0142,0.03532 0.0316,0.03532 0.0525,0 0.0354,0.156595 -0.0237,0.215924 -0.0304,0.03053 -0.0978,0.08272 -0.14991,0.115945 v -6.2e-5 c -0.0749,0.0478 -0.16052,0.0617 -0.41027,0.06639 -0.33277,0.0063 -0.48441,-0.0082 -0.53651,-0.05104 -0.0174,-0.01427 -0.0848,-0.03585 -0.14991,-0.04802 -0.0651,-0.01216 -0.11835,-0.03475 -0.11835,-0.05018 0,-0.01543 -0.0147,-0.02805 -0.0328,-0.02805 -0.0911,0 -0.30891,-0.199877 -0.39141,-0.359174 -0.0571,-0.110127 -0.0578,-0.124189 -0.0108,-0.203043 0.0452,-0.07582 0.0855,-0.104246 0.28465,-0.200329 0.0367,-0.0177 0.2163,-0.02619 0.38673,-0.02583 z m -7.85526,1.123693 c 0.18775,0.0024 0.2316,0.06421 0.23294,0.294823 9.1e-4,0.155651 -0.0738,0.434389 -0.12722,0.474442 -0.0116,0.0087 -0.031,0.04749 -0.0431,0.0863 -0.0258,0.08268 -0.10933,0.187904 -0.29199,0.367681 -0.16867,0.16601 -0.18615,0.178795 -0.36071,0.264003 -0.13482,0.06581 -0.30921,0.08516 -0.44523,0.04943 -0.13496,-0.03545 -0.11207,-0.452131 0.0416,-0.756444 0.13249,-0.262453 0.4916,-0.636668 0.66207,-0.689934 0.0421,-0.01314 0.0854,-0.03783 0.0963,-0.05486 0.0109,-0.01703 0.0991,-0.03287 0.19583,-0.0352 0.0138,-3.33e-4 0.027,-4.09e-4 0.0395,-2.47e-4 z m 10.12009,0.449663 c 0.13958,0.0018 0.29825,0.03357 0.34124,0.08537 0.0205,0.02468 0.0568,0.04487 0.0807,0.04487 0.0239,0 0.0439,0.01065 0.0443,0.02367 4.7e-4,0.01302 0.0537,0.05703 0.11835,0.09782 0.11596,0.07319 0.35418,0.351922 0.35418,0.414405 0,0.01769 0.0127,0.03218 0.0282,0.03218 0.0155,0 0.0379,0.03892 0.0498,0.08648 0.0119,0.04756 0.0377,0.09627 0.0571,0.108301 0.0571,0.03531 0.0494,0.526225 -0.009,0.563203 -0.0468,0.02969 -0.29849,0.03491 -0.43166,0.009 -0.0378,-0.0074 -0.0856,-0.03381 -0.10639,-0.0588 -0.0207,-0.02499 -0.0573,-0.04543 -0.0812,-0.04543 -0.0239,0 -0.0435,-0.01328 -0.0435,-0.02946 0,-0.01619 -0.0297,-0.03888 -0.0661,-0.05042 -0.0364,-0.01155 -0.11804,-0.07627 -0.18147,-0.143805 -0.16737,-0.17823 -0.17781,-0.19212 -0.26073,-0.346107 -0.0415,-0.07708 -0.0843,-0.147279 -0.0952,-0.156011 -0.0717,-0.05776 -0.0863,-0.523028 -0.0186,-0.590818 0.029,-0.02903 0.10488,-0.04296 0.1922,-0.04438 0.009,-1.48e-4 0.0183,-1.83e-4 0.0276,-6.1e-5 z M 11.79239,10.340441 c 0.0181,7.7e-5 0.0373,5.48e-4 0.0579,0.0014 0.11811,0.0049 0.18375,0.148827 0.18375,0.402815 0,0.110159 -0.0126,0.20033 -0.028,0.20033 -0.0154,0 -0.0375,0.06391 -0.0493,0.142018 -0.0117,0.07811 -0.0331,0.142019 -0.0475,0.142019 -0.0144,0 -0.0355,0.03723 -0.0469,0.08272 -0.0114,0.04549 -0.0378,0.101024 -0.0587,0.123465 -0.0208,0.02244 -0.0734,0.08737 -0.11681,0.144237 -0.11312,0.148247 -0.32168,0.343889 -0.36664,0.343889 -0.0211,0 -0.0431,0.01292 -0.0489,0.02872 -0.006,0.0158 -0.0773,0.03859 -0.15884,0.05067 -0.13519,0.02001 -0.15544,0.01426 -0.22881,-0.06491 -0.072,-0.07766 -0.0805,-0.112893 -0.0805,-0.332855 0,-0.135301 0.0142,-0.254759 0.0316,-0.265482 0.0174,-0.01072 0.0316,-0.04196 0.0316,-0.06941 0,-0.05919 0.12515,-0.323065 0.18147,-0.382599 0.0217,-0.02294 0.0395,-0.05418 0.0395,-0.06947 0,-0.0424 0.29629,-0.329424 0.41539,-0.402385 0.0781,-0.04787 0.14212,-0.06925 0.2386,-0.07409 v -6.1e-5 c 0.0161,-8.05e-4 0.0331,-0.0011 0.0512,-10e-4 z m 14.11207,0.79386 c 0.0781,0 0.14202,0.01263 0.14202,0.02811 0,0.01548 0.0359,0.03714 0.0797,0.04814 0.12014,0.03016 0.20041,0.128183 0.23639,0.28872 0.036,0.160715 -0.003,0.36768 -0.0841,0.449046 -0.0454,0.04536 -0.0358,0.188384 0.0152,0.227142 0.0364,0.02765 0.1079,0.231811 0.12297,0.350916 0.0125,0.09868 0.005,0.116556 -0.0595,0.133697 -0.0406,0.01088 -0.0814,0.01998 -0.0905,0.02022 -0.0383,9.54e-4 -0.12033,-0.125895 -0.14035,-0.217033 -0.0119,-0.05397 -0.0331,-0.09813 -0.0472,-0.09813 -0.0141,0 -0.0349,-0.03723 -0.0463,-0.08272 -0.0298,-0.118633 -0.0798,-0.157121 -0.23053,-0.177338 -0.24934,-0.03344 -0.41216,-0.296641 -0.35844,-0.579353 0.0315,-0.165963 0.12204,-0.288254 0.23201,-0.313438 0.0477,-0.01093 0.0868,-0.03296 0.0868,-0.04894 0,-0.01598 0.0639,-0.02903 0.14202,-0.02903 z m -15.46044,2.035531 c 0.088,0.0022 0.16076,0.05714 0.21852,0.164948 0.0519,0.09693 0.0612,0.17368 0.0582,0.480174 -0.003,0.271958 -0.0167,0.388945 -0.0551,0.459525 -0.0283,0.05207 -0.0516,0.119532 -0.0516,0.149908 -1.1e-4,0.03038 -0.0128,0.05523 -0.0283,0.05523 -0.0155,0 -0.0371,0.03551 -0.0479,0.0789 -0.0109,0.04339 -0.0337,0.0789 -0.0507,0.0789 -0.017,0 -0.031,0.01835 -0.031,0.04081 0,0.04842 -0.23163,0.27479 -0.2812,0.27479 -0.0189,0 -0.0344,0.0142 -0.0344,0.03156 0,0.04417 -0.1635798,0.03755 -0.2213498,-0.0089 -0.0263,-0.02114 -0.076,-0.08101 -0.11046,-0.133081 -0.054,-0.08157 -0.0625,-0.147621 -0.0619,-0.477277 4.3e-4,-0.232604 0.0145,-0.399644 0.0358,-0.426054 0.0193,-0.02389 0.045,-0.08961 0.057,-0.146025 0.0121,-0.05641 0.0339,-0.102568 0.0485,-0.102568 0.0146,0 0.0357,-0.04141 0.0468,-0.09203 0.0111,-0.05062 0.0407,-0.09988 0.0656,-0.109472 0.025,-0.0096 0.0454,-0.03399 0.0454,-0.05424 0,-0.05476 0.15488,-0.188133 0.27849,-0.239779 0.0359,-0.01502 0.0699,-0.02332 0.10195,-0.02503 0.006,-3.18e-4 0.0119,-3.95e-4 0.0178,-2.46e-4 z m -0.5269494,3.549713 c 0.2822394,0.0037 0.5246994,0.259833 0.4445994,0.614981 -0.0272,0.120733 -0.20697,0.332608 -0.282179,0.332608 -0.0214,0 -0.0337,0.104493 -0.0337,0.286255 0,0.206038 -0.0126,0.298929 -0.0451,0.331376 -0.0188,0.01881 -0.0498,0.03463 -0.0775,0.04093 0.0341,-5.61e-4 0.068,-0.0026 0.10213,-0.0028 -0.0384,0.0012 -0.0768,0.0026 -0.11514,0.0043 0.004,-4.89e-4 0.008,-5.01e-4 0.013,-0.0015 -0.0134,2.27e-4 -0.0268,7.62e-4 -0.0402,0.001 0.003,3.22e-4 0.006,10e-4 0.009,0.0012 -0.11635,0.0018 -0.23265,0.0062 -0.34882,0.01307 0.11301,-0.0072 0.2262,-0.0118 0.33958,-0.01424 -0.0952,-0.0098 -0.12125,-0.09274 -0.12125,-0.374277 0,-0.17691 -0.0125,-0.285331 -0.0329,-0.285331 -0.0348,0 -0.0885,-0.0397 -0.1901,-0.140662 -0.14193,-0.141061 -0.14457,-0.502488 -0.005,-0.641054 0.11817,-0.117058 0.25467,-0.167549 0.38297,-0.165873 z" /></svg>
