<?xml version="1.0" encoding="UTF-8" standalone="no"?>
<svg
  id="kote-svg"
  version="1.1"
  viewBox="0 0 284.80026 284.80027"
  height="284.80026mm"
  width="284.80026mm"
  xmlns="http://www.w3.org/2000/svg"
  xmlns:rdf="http://www.w3.org/1999/02/22-rdf-syntax-ns#"
  xmlns:cc="http://creativecommons.org/ns#"
  xmlns:dc="http://purl.org/dc/elements/1.1/">
  <defs
     id="defs2">
    <clipPath
       id="clipPath1002"
       clipPathUnits="userSpaceOnUse">
      <path
         id="path1004"
         d="M 33.512871,-2.9049194 C 20.154336,-3.0890774 7.5909883,6.7161058 16.665363,22.380789 c 7.438319,9.992738 17.521439,16.960929 28.693142,21.982263 0.0074,3.068428 -0.453983,7.413982 -2.766187,10.423543 C 41.85584,55.930394 32.01208,70.755933 19.056048,71.140179 -5.6342387,66.992608 13.671309,41.857897 10.848925,29.62027 -5.9032644,11.388364 -27.612607,36.449425 -26.559724,54.945462 c 1.258093,15.678671 -9.396987,33.318492 2.536105,47.289138 8.636137,12.83019 25.9403452,20.62237 28.3590338,36.73564 6.0377832,18.77014 4.5157152,38.38647 1.0100124,57.46717 -0.6558412,29.91992 -6.4871097,60.04723 -2.0383023,89.93747 -0.6722348,-0.36515 -2.80803353,3.13156 0.1848273,7.78349 11.6846008,-10.03033 35.6151178,4.78737 47.9900798,17.09494 16.337,17.32169 46.895295,5.93458 60.244928,26.99954 4.58882,-4.33237 1.70861,-18.23268 2.25109,-25.65252 -3.59881,-42.83993 -3.7779,-85.85515 -6.72053,-128.73165 0.28356,-19.98188 -8.204812,-41.25 4.62156,-59.03272 7.41099,-15.08488 23.08649,-31.840264 16.60007,-52.955376 C 121.22738,54.62439 111.43589,38.155371 98.988777,24.162014 84.52898,11.723782 65.446902,5.942308 47.333236,1.4114243 43.279682,-1.4646362 38.344639,-2.8383132 33.512834,-2.9049194 Z M 5.3502321,43.217287 C 5.097473,50.139152 -0.48524594,58.97337 4.7648415,67.006771 11.146028,77.527803 34.099979,74.474408 40.793752,62.841578 l -0.02795,0.127096 c 0,0 6.289202,-10.322587 8.618252,-16.897583 10.345476,4.146838 21.433261,6.799408 32.109259,8.746304 20.304777,0.684229 35.434347,19.4065 29.400827,39.36318 C 104.13188,111.34265 90.162809,129.09046 74.321225,137.14471 53.214066,146.57416 39.524853,127.0602 20.837268,120.95481 0.29125323,118.49284 -21.941441,101.95782 -18.797455,79.231751 -18.15097,64.886392 -6.3180596,44.999451 5.3502162,43.217287 Z M 17.221877,147.04352 a 2.7624402,2.7624402 0 0 1 0.818401,0.11368 l 43.45998,12.18646 29.07733,-4.41744 a 2.7624397,2.7624397 0 0 1 0.468881,-0.0366 2.7624397,2.7624397 0 0 1 0.360098,5.4987 l -16.981331,2.58037 17.312552,4.85457 a 2.7624402,2.7624402 0 0 1 1.640639,4.2316 2.7624402,2.7624402 0 0 1 -0.726908,5.26569 l -19.425968,2.95108 21.751177,6.09948 a 2.7627527,2.7627527 0 0 1 -1.49143,5.3196 l -33.532292,-9.40197 -25.084484,3.81086 33.063415,9.27105 23.642172,-3.59231 a 2.7624402,2.7624402 0 0 1 0.466,-0.0394 2.7624402,2.7624402 0 0 1 0.363958,5.49867 l -11.552949,1.75621 15.37054,4.30959 a 2.7624402,2.7624402 0 1 1 -1.492361,5.31673 l -27.142048,-7.61112 -33.140439,5.03749 26.908067,7.71319 29.971781,-4.55416 a 2.7624402,2.7624402 0 0 1 0.466,-0.0356 v -7.9e-4 a 2.7624402,2.7624402 0 0 1 0.363961,5.49871 l -18.059715,2.74406 24.628104,7.0594 a 2.7624402,2.7624402 0 1 1 -1.521261,5.30998 l -36.207994,-10.37924 -26.46998,4.02173 31.809793,8.75109 29.922692,-2.32426 a 2.7624402,2.7624402 0 0 1 0.192551,-0.0111 v 0 a 2.7624402,2.7624402 0 0 1 0.233018,5.51601 l -14.647468,1.13807 16.911058,4.65141 a 2.7624405,2.7624405 0 0 1 -0.746178,5.44091 2.7624405,2.7624405 0 0 1 -0.429432,5.45444 l -10.788438,0.70668 14.146771,3.5692 a 2.7624405,2.7624405 0 1 1 -1.349881,5.35715 l -30.722776,-7.75073 -36.337992,2.38107 23.201215,7.28474 44.401634,-0.13583 a 2.7624408,2.7624408 0 1 1 0.0149,5.52373 l -26.993774,0.0828 30.926904,9.71008 a 2.7624405,2.7624405 0 1 1 -1.65606,5.26955 l -47.538527,-14.9238 -36.90412,0.11271 a 2.7624408,2.7624408 0 1 1 -0.0149,-5.52373 l 19.494306,-0.0596 -20.687262,-6.49425 a 2.7624405,2.7624405 0 0 1 -0.07601,-0.0257 2.762472,2.762472 0 0 1 -0.0074,-0.003 2.7624405,2.7624405 0 0 1 0.923356,-5.38414 2.7624405,2.7624405 0 0 1 0.04342,0.004 l 33.789387,-2.2147 -32.493416,-8.19848 a 2.7624402,2.7624402 0 0 1 -0.832842,-5.25992 2.7624405,2.7624405 0 0 1 0.07808,-0.0338 2.7624402,2.7624402 0 0 1 0.123158,-0.0491 2.7624405,2.7624405 0 0 1 0.879065,-0.17904 2.7624405,2.7624405 0 0 1 0.140483,0.003 l 30.567792,-2.3745 -29.368099,-8.07905 a 2.7624402,2.7624402 0 0 1 -2.144205,-1.99015 2.7624405,2.7624405 0 0 1 -0.01863,-0.0635 2.7624402,2.7624402 0 0 1 -0.02588,-0.12893 2.7624405,2.7624405 0 0 1 -0.02887,-0.15689 2.7624402,2.7624402 0 0 1 -0.0055,-0.0635 2.7624405,2.7624405 0 0 1 -0.01863,-0.22143 2.7624405,2.7624405 0 0 1 2.583246,-2.85093 L 48.253835,215.75039 20.912487,207.913 a 2.7624402,2.7624402 0 0 1 -0.814547,-0.32159 2.7624402,2.7624402 0 0 1 -0.01675,-0.01 2.7624402,2.7624402 0 0 1 1.282483,-5.13572 l 33.302192,-5.05945 -33.504394,-9.39525 a 2.7624402,2.7624402 0 0 1 -0.993635,-0.44002 2.7624402,2.7624402 0 0 1 -0.05012,-0.0328 2.7624402,2.7624402 0 0 1 -0.103971,-0.0838 2.7624402,2.7624402 0 0 1 -0.116445,-0.0972 2.7624402,2.7624402 0 0 1 -0.05105,-0.0492 2.7624402,2.7624402 0 0 1 -0.152035,-0.15501 2.7624402,2.7624402 0 0 1 1.85923,-4.59943 l 25.47243,-3.86989 -27.109288,-7.60152 a 2.7624397,2.7624397 0 0 1 -1.055269,-0.4766 2.7624397,2.7624397 0 0 1 -0.09335,-0.0751 2.7624402,2.7624402 0 0 1 1.553036,-4.91136 l 27.914216,-4.24124 -31.687532,-8.88493 a 2.7624402,2.7624402 0 0 1 0.673018,-5.43035 z m 43.939473,17.94032 -27.537748,4.18348 26.676995,7.48018 27.537752,-4.18346 z m 4.638887,72.77031 -29.244848,2.27131 33.007583,8.32747 27.848737,-1.82552 a 2.7624405,2.7624405 0 0 1 0.192559,-0.007 2.7624405,2.7624405 0 0 1 0.0933,0.004 2.7624405,2.7624405 0 0 1 -0.216631,-0.0551 z"
         style="fill:currentColor;stroke-width:0.49296641" />
    </clipPath>
  </defs>
  <metadata
     id="metadata5">
    <rdf:RDF>
      <cc:Work
         rdf:about="">
        <dc:format>image/svg+xml</dc:format>
        <dc:type
           rdf:resource="http://purl.org/dc/dcmitype/StillImage" />
      </cc:Work>
    </rdf:RDF>
  </metadata>
  <g
     transform="translate(92.261984,40.443659)"
     id="layer1">
    <circle
       clip-path="url(#clipPath1002)"
       r="109.55403"
       cy="101.95647"
       cx="50.138142"
       id="path992"
       style="opacity:1;fill:currentColor;fill-opacity:1;stroke:none;stroke-width:0.70008749;stroke-miterlimit:4;stroke-dasharray:none;stroke-dashoffset:0;stroke-opacity:1" />
    <circle
       r="127.91312"
       cy="101.95647"
       cx="50.138142"
       id="path1250"
       style="opacity:1;fill:none;fill-opacity:1;stroke:currentColor;stroke-width:28.9740181;stroke-linecap:round;stroke-miterlimit:4;stroke-dasharray:none;stroke-dashoffset:0;stroke-opacity:1" />
  </g>
  <g
     transform="translate(-325.56653,231.52104)"
     style="display:none"
     id="layer2">
    <g
       transform="translate(-0.21316,-81.807)"
       id="g1163">
      <path
         style="fill:currentColor;stroke-width:0.26458332"
         d="m 49.662248,261.07209 c -10.48085,-4.42168 -20.197964,-10.48749 -30.49439,-15.33936 -4.887047,-1.45009 -9.1815712,-3.02484 -7.876679,-9.23375 -1.7684045,-14.55556 -1.4139882,-29.2496 -2.0191594,-43.86581 -0.049216,-7.52175 0.2958205,-15.16215 1.1131144,-22.5446 -2.6000662,-5.50939 4.510964,-9.30035 2.556565,-14.77732 -0.115575,-7.40739 -6.8921965,-10.13537 -8.4386637,-16.56213 -6.7297593,-4.18865 -3.91413706,-12.89696 -2.3694694,-19.07111 1.7558741,-7.4151 7.2811716,-14.07392 14.3900521,-16.87388 -0.204405,-5.825251 3.337916,-10.578867 7.051657,-14.678818 5.296887,-5.099582 13.091305,-1.58473 19.106188,0.137641 6.340045,2.694125 12.612373,5.586802 18.674967,8.840407 5.956357,3.35541 10.38069,8.74377 12.852611,15.0794 3.820076,5.49125 4.735837,13.22394 1.428084,19.14435 -2.635155,6.12564 -7.675959,10.47589 -10.558561,16.5133 -4.235253,5.3395 -1.404723,11.48739 -2.09944,17.19774 2.137186,8.73455 2.08835,17.83771 3.579673,26.6872 0.722969,14.26682 3.11048,28.41592 3.689148,42.70308 0.21565,7.15517 1.125224,14.32734 0.815647,21.47306 -3.384896,6.26016 -13.363369,5.0272 -19.677406,5.34706 l -1.062084,-0.0754 -0.661853,-0.10104 z"
         id="path1062" />
      <g
         id="g1139"
         transform="translate(79.752976)">
        <path
           id="path1065"
           d="m -65.767855,161.11756 c 2.645833,-4.06325 0.755951,-12.66221 -0.283484,-13.60715"
           style="stroke-width:2.06500006;stroke-linecap:round;stroke-linejoin:miter;stroke-miterlimit:4;stroke-dasharray:none;stroke-opacity:1" />
        <path
           id="path1065-2"
           d="m -58.550421,159.03767 c 1.039434,-4.72471 -0.472472,-14.26861 -1.511907,-15.21355"
           style="stroke-width:3.66499996;stroke-linecap:round;stroke-linejoin:miter;stroke-miterlimit:4;stroke-dasharray:none;stroke-opacity:1" />
        <path
           id="path1065-2-2"
           d="m -48.741779,157.47561 c -0.472471,-5.29168 -0.850448,-11.81177 -1.322919,-14.17412"
           style="stroke-width:4.46500015;stroke-linecap:round;stroke-linejoin:miter;stroke-miterlimit:4;stroke-dasharray:none;stroke-opacity:1" />
        <path
           id="path1065-2-2-8"
           d="m -37.984914,154.69172 c -0.101676,-4.61586 -0.50493,-8.62855 -0.283484,-12.37873"
           style="stroke-width:4.46500015;stroke-linecap:round;stroke-linejoin:miter;stroke-miterlimit:4;stroke-dasharray:none;stroke-opacity:1" />
        <path
           id="path1065-2-2-8-9"
           d="m -27.700656,155.77863 c -1.897062,-3.67092 -1.355376,-8.53406 -1.13393,-12.28424"
           style="stroke-width:4.46500015;stroke-linecap:round;stroke-linejoin:miter;stroke-miterlimit:4;stroke-dasharray:none;stroke-opacity:1" />
        <path
           id="path1065-2-2-8-7"
           d="m -20.424614,156.34559 c -2.086051,-3.29294 -0.599424,-6.92766 -0.377978,-10.67784"
           style="stroke-width:4.46500015;stroke-linecap:round;stroke-linejoin:miter;stroke-miterlimit:4;stroke-dasharray:none;stroke-opacity:1" />
      </g>
      <path
         style="stroke-width:4.46500015;stroke-linecap:round;stroke-linejoin:miter;stroke-miterlimit:4;stroke-dasharray:none;stroke-opacity:1"
         d="M 53.955905,108.37453 C 53.488183,107.57272 51.684113,98.552374 51.684113,97.082392"
         id="path1141" />
      <g
         id="g1149"
         transform="translate(80.982667)">
        <path
           id="path1143"
           d="m -71.494599,144.12183 c 2.405426,-20.57975 54.522985,-12.69531 60.00201,-6.54811"
           style="fill:none;stroke-width:0.26458332px;stroke-linecap:butt;stroke-linejoin:miter;stroke-opacity:1" />
        <path
           id="path1145"
           d="m -76.973622,136.63828 c 2.405426,-27.6624 59.734738,-23.38608 70.4255188,-6.28083"
           style="fill:none;stroke-width:0.26458332px;stroke-linecap:butt;stroke-linejoin:miter;stroke-opacity:1" />
      </g>
    </g>
  </g>
</svg>
