<?xml version="1.0" encoding="UTF-8" standalone="no"?>
<svg
   width="200"
   height="200"
   viewBox="0 0 52.91667 52.916669"
   version="1.1"
   id="svg8"
   xmlns="http://www.w3.org/2000/svg"
   xmlns:svg="http://www.w3.org/2000/svg">
  <defs
     id="defs6" />
  <path
     id="path1045"
     style="stroke-width:0.0924936"
     d="m 19.201283,5.4530792 c -0.851117,0.00135 -1.720093,0.0575 -2.328023,0.1674318 -4.029459,0.7286453 -7.377828,3.2697739 -9.285739,7.047116 -1.8365839,3.636127 -2.1108371,8.140396 -0.734322,12.064897 0.61512,1.753732 1.9598623,4.0949 3.400309,5.919536 1.506518,1.908331 3.789784,4.223562 6.897254,6.994406 1.507001,1.34375 10.355786,8.948685 10.844817,9.320362 0.190664,0.144909 0.502627,0.321619 0.693498,0.392739 0.224507,0.08366 0.61134,0.118314 1.09554,0.0987 0.60484,-0.02449 0.826535,-0.07607 1.156002,-0.270267 0.388337,-0.228896 8.547368,-7.190121 11.183298,-9.541537 1.720358,-1.53467 3.190203,-2.936624 4.420402,-4.207497 -0.181256,-1.123302 -0.512316,-1.615421 -1.107943,-2.222084 -0.358156,-0.364792 -1.035267,-0.786467 -1.504302,-0.936895 -0.929714,-0.298189 -0.601951,-0.422416 -5.168675,1.963187 -1.577745,0.824166 -1.735498,0.862393 -3.077848,0.749308 -4.603587,-0.387845 -7.484991,-5.620769 -5.890081,-10.697538 0.666327,-2.121015 1.666407,-3.409567 3.398243,-4.379578 2.309712,-1.293679 4.611804,-1.163986 6.593396,0.37207 2.253263,1.746636 3.382158,2.085389 4.757848,1.426786 1.87946,-0.899778 2.320449,-2.299135 2.352313,-7.463111 0.01127,-1.828495 0.02418,-3.6229193 0.03359,-4.8798055 C 45.567895,6.5133932 44.041058,5.9170065 42.40142,5.620511 41.185559,5.4006427 38.925615,5.3970333 37.852343,5.6132762 34.710984,6.2461961 32.170011,7.8915674 29.891588,10.768518 l -0.254249,0.321427 -0.254248,-0.321427 C 27.104668,7.8915672 24.563694,6.2461961 21.422336,5.6132762 20.8857,5.5051569 20.052401,5.4517324 19.201283,5.4530792 Z" />
</svg>
