<?xml version="1.0" encoding="UTF-8" standalone="no"?>
<svg
   width="200"
   height="200"
   viewBox="0 0 52.91667 52.916669"
   version="1.1"
   id="svg8"
   xmlns="http://www.w3.org/2000/svg"
   xmlns:svg="http://www.w3.org/2000/svg">
  <defs
     id="defs6" />
  <path
     id="path826"
     style="display:inline;stroke:#000000;stroke-width:2.26789;stroke-miterlimit:4;stroke-dasharray:none;stroke-opacity:1"
     d="m 23.00797,3.7798057 c -0.0945,0 -0.261062,1.3056941 -0.370676,2.9012252 -0.348953,5.0892051 -1.527512,7.4874211 -7.99302,16.2627671 -2.3239,3.154172 -3.330423,5.459352 -3.876982,8.879014 -1.0138197,6.346142 2.18217,13.009695 7.779079,16.21905 h 9.3e-4 c 1.047762,0.60129 1.959866,1.093934 2.020347,1.095284 0.06342,0.0018 -0.442535,-0.64792 -1.123655,-1.4441 -2.112004,-2.467155 -2.804314,-5.75003 -1.972908,-9.352942 0.445261,-1.92921 2.180481,-5.704836 2.308237,-5.022961 0.05443,0.290065 0.195424,1.123876 0.314865,1.853381 0.202522,1.239849 1.99076,3.772802 2.663565,3.772802 0.163292,0 0.20676,-0.771636 0.09488,-1.714318 -0.466731,-3.940447 1.403627,-9.550593 4.038833,-12.115569 l 1.383641,-1.346898 0.2451,1.698505 c 0.341089,2.360338 1.499689,4.713771 4.028601,8.183706 2.521205,3.459657 3.382203,5.878508 3.091913,8.688792 -0.215372,2.086985 -1.691039,5.100083 -3.00308,6.132201 -1.285211,1.011021 -0.469241,0.801121 1.682226,-0.432534 5.365581,-3.076685 8.502086,-9.105617 7.956278,-15.293987 -0.301926,-3.423824 -1.37643,-7.113336 -3.098887,-10.638911 l -1.443637,-2.954246 -0.459042,1.574792 c -0.252646,0.866331 -0.894697,2.036365 -1.426893,2.600312 L 34.8803,24.350693 34.612408,21.720614 C 33.915415,14.879093 30.930723,9.5262684 25.615259,5.5857463 24.275323,4.5924138 23.101708,3.7798057 23.00797,3.7798057 Z" />
</svg>
