<?xml version="1.0" encoding="UTF-8" standalone="no"?>
<svg
  width="100%"
  height="100%"
  viewBox="0 0 52.91667 52.916669"
  version="1.1"
  id="svg8"
  xmlns="http://www.w3.org/2000/svg"
>
  <defs
    id="defs6"/>
  <path
    id="path824"
    style="stroke-width:8.57155;-inkscape-stroke:none"
    d="M 86.958984 10.001953 C 84.469334 10.001953 83.630928 11.489055 83.289062 12.017578 C 82.947204 12.546101 82.861727 12.826078 82.773438 13.074219 C 82.596858 13.5705 82.528211 13.897248 82.449219 14.277344 C 82.291235 15.037535 82.162228 15.906608 82.027344 16.962891 C 81.757561 19.075456 81.493089 21.875477 81.28125 24.958984 C 80.641195 34.293692 79.372293 40.52743 75.273438 48.867188 C 71.174578 57.206941 64.075974 67.642454 51.894531 84.175781 C 42.870343 96.424088 38.614576 106.16353 36.466797 119.60156 C 32.339972 145.43399 45.201189 172.23993 67.964844 185.29297 L 68.955078 185.86133 L 68.984375 185.86133 C 70.556658 186.75495 72.124236 187.64211 73.279297 188.26758 C 73.993639 188.6544 74.592828 188.96968 75.074219 189.21289 C 75.314899 189.33452 75.519103 189.43476 75.746094 189.53711 C 75.859593 189.58828 75.970757 189.63707 76.158203 189.70703 C 76.343854 189.77635 76.261368 189.96782 77.626953 190.00195 C 77.658701 189.99704 79.344977 189.68661 79.347656 189.68555 C 79.350355 189.68446 81.207318 188.24836 81.208984 188.24609 C 81.210651 188.24382 81.968107 186.49172 81.96875 186.48828 C 81.969393 186.48485 82.050248 185.63025 82.027344 185.34375 C 81.93569 184.19778 81.715002 184.00853 81.599609 183.76562 C 81.368869 183.27981 81.237948 183.11475 81.089844 182.89453 C 80.793642 182.4541 80.466001 182.02038 80.048828 181.48438 C 79.21449 180.41236 78.062932 179.0126 76.742188 177.46875 C 69.680341 169.21939 67.31212 158.42665 70.208984 145.87305 C 70.705713 143.72083 72.138283 140.29884 73.40625 137.15625 C 74.396607 139.58875 75.253462 142.07328 76.816406 144.28711 C 77.98535 145.94286 79.201728 147.45247 80.492188 148.70117 C 81.782647 149.94988 82.688799 151.47656 86.013672 151.47656 C 87.778518 151.47656 89.164133 150.30132 89.697266 149.56445 C 90.230394 148.82758 90.372599 148.32036 90.501953 147.875 C 90.760662 146.98428 90.820195 146.29417 90.863281 145.51953 C 90.949492 143.97025 90.862164 142.18693 90.626953 140.20508 C 89.107802 127.37944 95.918223 107.21186 104.13672 98.658203 C 105.86712 107.9333 110.40224 117.1384 119.55664 129.69922 C 128.79914 142.38199 131.42765 150.06424 130.44531 159.57422 C 130.11929 162.73341 128.66957 167.25933 126.73242 171.21484 C 124.79528 175.17036 122.20924 178.64209 120.70898 179.82227 C 119.37805 180.86926 118.61953 181.31526 117.61523 182.7832 C 117.36416 183.1502 117.01481 183.5861 116.81836 184.70898 C 116.6219 185.83187 117.33034 188.22213 118.69336 189.13867 C 120.05637 190.05521 120.9505 189.92512 121.50586 189.89844 C 122.06122 189.8716 122.4062 189.79041 122.73047 189.70703 C 125.32463 189.03992 127.67006 187.67279 131.84766 185.27734 C 153.59766 172.80564 166.26523 148.44402 164.05469 123.38086 C 162.85906 109.82249 158.63908 95.418986 151.91992 81.666016 L 141.59961 60.539062 L 136.76367 77.132812 C 136.46305 78.163694 135.59971 79.236318 134.875 80.609375 C 131.92553 54.258786 120.04517 33.001119 99.367188 17.671875 C 96.803285 15.771183 94.401487 14.046467 92.560547 12.771484 C 91.640081 12.133993 90.865158 11.605131 90.236328 11.205078 C 89.921913 11.005051 89.651314 10.840706 89.349609 10.673828 C 89.198768 10.590387 89.046415 10.510235 88.796875 10.400391 C 88.547351 10.290546 88.529185 10.001952 86.958984 10.001953 z "
    transform="scale(0.26458335)"/>
</svg>
