<?xml version="1.0" encoding="UTF-8" standalone="no"?>
<svg
  width="200"
  height="200"
  viewBox="0 0 52.91667 52.916669"
  version="1.1"
  id="svg8"
  xmlns="http://www.w3.org/2000/svg"
>
  <defs
    id="defs6"/>
  <path
    id="rect852-6"
    d="m 46.600288,2.9589671 c -0.07706,0.00126 -0.154424,0.00442 -0.232321,0.010418 l -4.593502,4.593502 4.35531,4.3553149 4.593836,-4.5935014 C 50.952371,5.0624943 48.989332,2.923444 46.600288,2.9589419 Z m -4.505736,5.6555764 -7.277557,5.2672005 1.94893,1.948929 6.613557,-5.9311995 z m 1.698668,1.6986675 -6.61356,5.931197 1.948929,1.94893 5.949555,-6.595203 z m -11.063174,5.538996 -13.660887,10.686822 -3.603613,5.722843 2.109464,2.109464 17.162371,-16.511794 z m 2.420744,2.421071 -17.162698,16.511468 2.109137,2.108809 5.674248,-3.652534 11.386647,-12.960735 z M 10.391741,28.493226 C 9.1657458,28.455449 7.8046681,30.171991 8.4137741,31.113332 L 21.534536,44.234097 c 1.102732,0.850836 3.27532,-1.356694 2.489264,-2.489265 L 10.903037,28.624068 c -0.163482,-0.08438 -0.336153,-0.125444 -0.511296,-0.130842 z M 8.6604486,32.33953 c 0.8969951,2.715431 2.4140704,5.184644 4.4310144,7.211982 2.0321,2.029828 4.510822,3.556193 7.238085,4.457118 z m 2.6468614,5.759666 -8.270123,8.139057 c -2.36258363,2.278207 0.6328513,5.104883 2.9532486,2.953248 L 14.252403,41.060276 C 13.698002,40.625886 13.168978,40.16005 12.667939,39.665061 12.185335,39.169086 11.731072,38.646302 11.30731,38.099196 Z"
    style="stroke:none;stroke-width:3.15704;stroke-linecap:round;stroke-linejoin:miter;stroke-miterlimit:4;stroke-dasharray:none;stroke-dashoffset:0;stroke-opacity:1"/>
</svg>
