<?xml version="1.0" encoding="UTF-8" standalone="no"?>
<svg
  id="svg8"
  version="1.1"
  viewBox="0 0 200 200"
  width="100%"
  height="100%"
  xmlns="http://www.w3.org/2000/svg"
>
  <defs
    id="defs8"/>
  <path
    id="path51"
    d="m 100.50479,27.096642 v 0.0035 A 61.028033,57.941553 0 0 0 40.71417,73.648273 52.981085,50.301573 0 0 0 -0.13862635,122.59723 52.981085,50.301573 0 0 0 45.018076,172.3477 v 0.55566 h 111.529244 1.1357 v -0.0462 a 43.589005,41.384496 0 0 0 42.45561,-41.34725 43.589005,41.384496 0 0 0 -38.89176,-41.135856 61.028033,57.941553 0 0 0 0.28971,-5.330383 61.028033,57.941553 0 0 0 -61.03192,-57.945541 z m -21.850231,59.974744 5.80786,5.811228 -26.883977,26.883906 26.614518,26.61452 -5.80786,5.80786 -32.425742,-32.42238 z m 42.960401,0.272557 32.42238,32.422317 -32.69183,32.69183 -5.81122,-5.80786 26.88733,-26.88397 -26.61452,-26.614456 z"/>
</svg>
