<?xml version="1.0" encoding="UTF-8" standalone="no"?>
<svg
  id="svg8"
  version="1.1"
  viewBox="0 0 200 200"
  width="100%"
  height="100%"
  xmlns="http://www.w3.org/2000/svg"
>
  <defs
     id="defs8" />
  <path
     id="path1033"
     style="stroke-width:1.60038"
     d="M 71.242188 70.503906 C 32.805387 70.503906 1.2910156 102.01828 1.2910156 140.45508 L 1.2910156 273.33008 C 1.2910156 311.76688 32.805387 343.2793 71.242188 343.2793 L 113 343.2793 C 120.19764 343.39785 128.29781 343.45312 138.61328 343.45312 C 149.76999 343.45312 158.39918 343.40572 165.86328 343.2793 L 207.23242 343.2793 C 245.66922 343.2793 277.18945 311.76688 277.18945 273.33008 L 277.18945 241.83008 L 297.32031 241.83008 C 315.51885 241.83008 319.72405 242.30971 324.9668 244.98438 C 333.65609 249.41733 340.64053 258.52975 342.71875 268.14453 C 343.91557 273.68053 344.30927 309.85868 343.96484 382.66211 C 343.49051 482.9436 343.28998 489.41146 340.47461 494.68945 C 336.29639 502.5223 331.63463 507.30197 324.7207 510.84766 C 319.75504 513.39423 315.26915 513.89258 297.32031 513.89258 L 277.18945 513.89258 L 277.18945 483.84375 C 277.18945 445.40698 245.66922 413.89258 207.23242 413.89258 L 192.49805 413.89258 C 184.54244 412.57704 172.51848 412.30977 139.41406 412.29492 C 112.49138 412.2812 97.691778 412.44077 86.939453 413.89258 L 71.242188 413.89258 C 32.805386 413.89258 1.2910156 445.40698 1.2910156 483.84375 L 1.2910156 616.71875 C 1.2910156 655.15556 32.805386 686.66992 71.242188 686.66992 L 207.23242 686.66992 C 245.66922 686.66992 277.18945 655.15556 277.18945 616.71875 L 277.18945 583.06445 L 302.25391 582.28906 C 331.86972 581.37306 339.54536 579.72061 357.33984 570.42188 C 382.41885 557.31655 402.58749 531.40576 409.05078 503.99023 C 410.83185 496.43545 411.44191 483.50109 411.45703 452.67969 L 411.47852 411.46875 L 445.70117 411.46875 L 477.5 411.46875 L 477.5 444.39062 C 477.5 482.8274 509.01436 514.33984 547.45117 514.33984 L 683.43945 514.33984 C 721.87623 514.33984 753.39844 482.8274 753.39844 444.39062 L 753.39844 407.6543 C 753.84232 397.10321 753.85733 384.19288 753.52734 367.45898 C 753.48733 365.42996 753.43974 363.87453 753.39844 362 L 753.39844 311.51562 C 753.39844 273.07882 721.87623 241.56445 683.43945 241.56445 L 547.45117 241.56445 C 509.01436 241.56445 477.5 273.07882 477.5 311.51562 L 477.5 344.25391 L 445.88477 344.25391 L 411.47656 344.25391 L 411.45312 303.04297 C 411.4357 272.63203 410.82068 259.24548 409.10156 251.95508 C 402.59344 224.35588 382.62251 198.51766 357.75 185.51758 C 339.55873 176.00955 331.98377 174.35346 302.54883 173.44141 L 277.18945 172.6543 L 277.18945 140.45508 C 277.18945 102.01828 245.66922 70.503906 207.23242 70.503906 L 71.242188 70.503906 z "
     transform="scale(0.26458333)" />
</svg>
