<?xml version="1.0" encoding="UTF-8" standalone="no"?>
<svg
  xmlns="http://www.w3.org/2000/svg"
  id="svg817"
  version="1.1"
  viewBox="0 0 200 200"
  width="100%"
  height="100%">
  <path
    transform="scale(0.26458333)"
    d="M 377.95312 -3.4726562 C 346.1622 -3.4724478 319.94161 22.748137 319.94141 54.539062 C 319.94144 61.258038 321.17272 67.700117 323.32031 73.726562 L 98.753906 73.726562 C 67.124658 73.726562 41.009766 99.844734 41.009766 131.47266 L 41.009766 702.88281 C 41.009766 734.51073 67.125984 760.62695 98.753906 760.62695 L 657.15039 760.62695 C 688.77831 760.62695 714.89648 734.51209 714.89648 702.88281 L 714.89648 131.47266 C 714.89648 99.843385 688.77963 73.726562 657.15039 73.726562 L 432.58594 73.726562 C 434.73354 67.700117 435.96481 61.258038 435.96484 54.539062 C 435.96465 22.748132 409.74406 -3.4724565 377.95312 -3.4726562 z M 377.95312 38.472656 C 387.0743 38.472721 394.01946 45.417876 394.01953 54.539062 C 394.01946 63.660246 387.0743 70.605412 377.95312 70.605469 C 368.83194 70.605408 361.88678 63.660246 361.88672 54.539062 C 361.88678 45.417879 368.83194 38.472721 377.95312 38.472656 z M 369.96289 174.1543 L 369.96289 254.37109 L 250.39258 254.37109 C 273.82695 206.6921 318.30196 176.93986 369.96289 174.1543 z M 385.94336 174.1543 C 437.60425 176.93986 482.07932 206.6921 505.51367 254.37109 L 385.94336 254.37109 L 385.94336 174.1543 z M 243.58203 270.35156 L 369.96289 270.35156 L 369.96289 320.41602 L 233.20898 320.41602 C 234.44099 302.39148 238.01458 285.6222 243.58203 270.35156 z M 385.94336 270.35156 L 512.32422 270.35156 C 517.89161 285.6222 521.46525 302.39148 522.69727 320.41602 L 385.94336 320.41602 L 385.94336 270.35156 z M 232.74609 336.39648 L 369.96289 336.39648 L 369.96289 386.45898 L 240.66602 386.45898 C 235.78674 370.25254 232.93934 353.4051 232.74609 336.39648 z M 385.94336 336.39648 L 523.1582 336.39648 C 522.94356 353.40515 519.78774 370.25257 514.46484 386.45898 L 385.94336 386.45898 L 385.94336 336.39648 z M 246.20508 402.44336 L 369.96289 402.44336 L 369.96289 452.51172 L 273.62695 452.51172 C 262.70733 437.35022 253.25844 420.42321 246.20508 402.44336 z M 385.94336 402.44336 L 508.44531 402.44336 C 500.8025 420.42544 490.65512 437.34901 479.16797 452.51172 L 385.94336 452.51172 L 385.94336 402.44336 z M 237.66992 440.94336 C 254.71419 468.31477 276.74872 492.09866 300.12891 509.66602 C 274.93279 532.6785 239.57442 556.04693 199.26953 575.65625 C 158.97667 595.25983 157.7282 594.93689 130.62695 557.88867 C 118.13354 540.8097 107.26332 524.42728 106.4707 521.48242 C 104.0941 512.65125 116.55114 505.067 139.01367 501.66992 C 179.5617 495.5376 213.94717 473.03847 237.66992 440.94336 z M 518.98047 441.21094 C 525.19711 449.29754 532.09843 456.83204 539.58008 463.63281 C 564.37684 486.17263 585.89733 496.90033 615.52539 501.49219 C 640.55482 505.37123 649.72266 509.79592 649.72266 517.99609 C 649.72266 521.42035 639.15918 538.78424 626.24805 556.58203 C 605.7466 584.84277 601.56016 588.94141 593.18945 588.94141 C 579.06668 588.94141 516.33852 556.68874 482.71289 532.13867 C 472.3752 524.59111 463.10594 516.95056 454.92969 509.29883 C 478.12435 491.82539 500.9531 468.27897 518.98047 441.21094 z M 286.25391 468.49219 L 369.96289 468.49219 L 369.96289 521.95898 C 342.94756 518.51927 311.95077 498.25578 286.25391 468.49219 z M 385.94336 468.49219 L 465.99023 468.49219 C 439.76734 497.78096 409.38157 517.87122 385.94336 521.78125 L 385.94336 468.49219 z M 311.01562 517.51758 L 316.87305 521.72461 C 334.23438 534.19539 344.70798 540.30609 365.11328 543.00195 C 395.40153 547.00341 412.68045 542.9215 439.0332 523.99219 L 444.89062 519.78516 L 444.59766 544.68555 C 444.34382 572.56614 447.57826 605.6669 421.64258 622.08789 C 403.53868 631.94195 389.3785 632.05905 378.54883 631.81641 C 358.07153 631.82276 343.64718 631.46457 329.78125 621.875 C 309.8103 605.57764 310.60756 568.29163 311.30664 542.41797 L 311.01562 517.51758 z "
    style="opacity:1;vector-effect:none;fill-opacity:1;fill-rule:nonzero;stroke:none;stroke-width:0.51676172;stroke-linecap:round;stroke-linejoin:miter;stroke-miterlimit:4;stroke-dasharray:none;stroke-dashoffset:0;stroke-opacity:1"/>
</svg>
