<?xml version="1.0" encoding="UTF-8" standalone="no"?>
<svg
   xmlns="http://www.w3.org/2000/svg"
   width="200mm"
   height="200mm"
   viewBox="0 0 200 200"
   version="1.1">
  <path
     transform="scale(0.26458333)"
     d="M 377.95312 -3.4726562 C 346.16219 -3.4724478 319.94161 22.748138 319.94141 54.539062 C 319.94144 61.258038 321.17272 67.700117 323.32031 73.726562 L 98.753906 73.726562 C 67.124658 73.726562 41.009766 99.844738 41.009766 131.47266 L 41.009766 702.88281 C 41.009766 734.51073 67.125984 760.62695 98.753906 760.62695 L 657.15039 760.62695 C 688.77831 760.62695 714.89648 734.51209 714.89648 702.88281 L 714.89648 131.47266 C 714.89648 99.843389 688.77963 73.726562 657.15039 73.726562 L 432.58594 73.726562 C 434.73354 67.700117 435.96481 61.258038 435.96484 54.539062 C 435.96465 22.748133 409.74405 -3.4724564 377.95312 -3.4726562 z M 377.95312 38.472656 C 387.0743 38.472717 394.01946 45.417876 394.01953 54.539062 C 394.01946 63.660246 387.0743 70.605412 377.95312 70.605469 C 368.83193 70.605408 361.88678 63.660246 361.88672 54.539062 C 361.88678 45.417879 368.83193 38.472717 377.95312 38.472656 z M 98.753906 115.67188 L 657.15039 115.67188 C 666.26453 115.67188 672.95117 122.3585 672.95117 131.47266 L 672.95117 702.88281 C 672.95117 711.99695 666.26586 718.68164 657.15039 718.68164 L 98.753906 718.68164 C 89.638426 718.68164 82.955078 711.99831 82.955078 702.88281 L 82.955078 131.47266 C 82.955078 122.35715 89.639753 115.67187 98.753906 115.67188 z M 370.12305 179.77344 C 319.50495 182.50277 275.92812 211.65455 252.9668 258.37109 L 370.12305 258.37109 L 370.12305 179.77344 z M 385.7832 179.77344 L 385.7832 258.37109 L 502.93945 258.37109 C 479.9781 211.65455 436.40128 182.50277 385.7832 179.77344 z M 246.29492 274.0293 C 240.83985 288.99169 237.33797 305.42134 236.13086 323.08203 L 370.12305 323.08203 L 370.12305 274.0293 L 246.29492 274.0293 z M 385.7832 274.0293 L 385.7832 323.08203 L 519.77539 323.08203 C 518.56821 305.42134 515.06636 288.99169 509.61133 274.0293 L 385.7832 274.0293 z M 235.67773 338.74023 C 235.8672 355.40551 238.65671 371.91367 243.4375 387.79297 L 370.12305 387.79297 L 370.12305 338.74023 L 235.67773 338.74023 z M 385.7832 338.74023 L 385.7832 387.79297 L 511.70898 387.79297 C 516.92443 371.9137 520.01627 355.40557 520.22656 338.74023 L 385.7832 338.74023 z M 248.86523 403.45312 C 255.77622 421.07007 265.03323 437.65629 275.73242 452.51172 L 370.12305 452.51172 L 370.12305 403.45312 L 248.86523 403.45312 z M 385.7832 403.45312 L 385.7832 452.51172 L 477.125 452.51172 C 488.38028 437.65508 498.32202 421.07222 505.81055 403.45312 L 385.7832 403.45312 z M 240.5 441.17578 C 217.2561 472.62304 183.56743 494.66919 143.83789 500.67773 C 121.82878 504.00625 109.62254 511.43696 111.95117 520.08984 C 112.72781 522.97525 123.37985 539.02756 135.62109 555.76172 C 162.17529 592.06212 163.39742 592.37778 202.87695 573.16992 C 242.36824 553.95643 277.0117 531.0597 301.69922 508.51172 C 278.79098 491.29899 257.20021 467.99467 240.5 441.17578 z M 516.13477 441.4375 C 498.47129 467.95916 476.10145 491.03161 453.375 508.15234 C 461.38624 515.64964 470.46867 523.13604 480.59766 530.53125 C 513.54452 554.58575 575.00611 586.1875 588.84375 586.1875 C 597.04551 586.1875 601.14874 582.17268 621.23633 554.48242 C 633.88682 537.04387 644.23633 520.03094 644.23633 516.67578 C 644.23633 508.64119 635.25274 504.30464 610.72852 500.50391 C 581.69853 496.00476 560.6146 485.493 536.31836 463.4082 C 528.98774 456.74471 522.22593 449.36086 516.13477 441.4375 z M 288.10352 468.16992 C 313.28166 497.33276 343.65305 517.18828 370.12305 520.55859 L 370.12305 468.16992 L 288.10352 468.16992 z M 385.7832 468.16992 L 385.7832 520.38281 C 408.74833 516.55173 438.51932 496.8675 464.21289 468.16992 L 385.7832 468.16992 z M 312.36719 516.20508 L 312.65234 540.60352 C 311.96738 565.95492 311.18611 602.48864 330.75391 618.45703 C 344.33995 627.85301 358.4712 628.2035 378.53516 628.19727 C 389.14622 628.435 403.02322 628.32105 420.76172 618.66602 C 446.17386 602.57653 443.00326 570.142 443.25195 542.82422 L 443.53906 518.42578 L 437.80078 522.54883 C 411.97999 541.09603 395.04794 545.09647 365.37109 541.17578 C 345.37768 538.53435 335.11634 532.54719 318.10547 520.32812 L 312.36719 516.20508 z "
     style="opacity:1;vector-effect:none;fill-opacity:1;fill-rule:nonzero;stroke:none;stroke-width:0.51676172;stroke-linecap:round;stroke-linejoin:miter;stroke-miterlimit:4;stroke-dasharray:none;stroke-dashoffset:0;stroke-opacity:1" />
</svg>
