<?xml version="1.0" encoding="UTF-8" standalone="no"?>
<svg
   width="100%"
   height="100%"
   viewBox="0 0 492 501"
   version="1.1"
   xml:space="preserve"
   style="fill-rule:evenodd;clip-rule:evenodd;stroke-linejoin:round;stroke-miterlimit:2;"
   id="svg606"
   xmlns="http://www.w3.org/2000/svg"
   xmlns:svg="http://www.w3.org/2000/svg"><defs
   id="defs610" />

<path
   style="stroke-width:0.513463"
   d="m 313.33466,445.33658 c -6.63652,-3.09758 -21.12596,-9.81421 -32.19881,-14.92586 l -20.1324,-9.29392 2.60059,-2.88272 c 22.68165,-25.1422 33.5829,-38.53955 42.66335,-52.43199 3.95393,-6.04917 8.40951,-13.86352 7.90478,-13.86352 -0.15527,0 -3.12217,1.62972 -6.59307,3.6216 -28.66819,16.45194 -64.53004,29.34211 -93.40884,33.57486 -9.56301,1.40165 -6.82732,2.50318 -32.01396,-12.89074 -17.69243,-10.81356 -22.25932,-13.8177 -21.73169,-14.29534 0.36743,-0.3326 3.67178,-2.41707 7.34305,-4.63216 9.21862,-5.56212 48.99523,-21.3915 19.61206,-12.89419 -0.18654,0.0539 -2.18007,0.0341 -4.53949,0.38087 -5.97913,0.87883 -29.66701,0.7372 -42.3415,-0.25316 l -10.32469,-0.80675 -26.90145,-16.24967 c -7.397909,-4.46867 15.77117,-20.86564 7.3521,-18.95867 -13.301872,3.01294 -44.304654,-3.36493 -48.117123,-5.66884 -7.624937,-4.60781 -14.312754,-8.70943 -14.861857,-9.11472 -0.90467,-0.66772 -0.591449,-0.77015 3.337516,-1.09129 20.271042,-1.65699 48.328146,-8.31214 71.673084,-17.00082 40.37711,-15.02783 74.96629,-36.74182 106.50638,-66.86123 l 14.70144,-15.74334 171.7124,107.3799 c 0.60558,0.57495 -1.65891,9.86793 -6.09421,21.46606 -17.71875,46.33384 -40.59944,85.05503 -67.02867,113.43319 -4.9581,5.32372 -16.09303,15.74192 -16.74662,15.66869 -0.16827,-0.0189 -5.73585,-2.56867 -12.37237,-5.66624 z M 256.80981,175.86992 c 0.43485,-1.24409 23.68837,-27.67078 26.10813,-29.56996 3.85231,-3.02357 8.37145,-5.19329 13.53767,-6.49973 3.45033,-0.8725 5.28796,-1.0268 9.91535,-0.83252 7.85302,0.3297 11.34662,1.6389 25.2901,9.47731 9.75771,5.48537 11.62421,6.36678 12.19384,5.75827 0.3699,-0.39518 25.50718,-37.69138 40.1352,-58.306949 14.62802,-20.615574 31.62296,-44.555198 37.76652,-53.19916 6.58541,-9.265658 12.01032,-16.381758 13.2172,-17.337612 1.12589,-0.891739 3.39551,-2.25305 5.04361,-3.025138 2.66831,-1.250049 3.58703,-1.403815 8.38788,-1.403815 4.99795,0 5.64395,0.11965 8.85251,1.639562 8.47743,4.015805 13.45845,13.360769 11.81938,22.174452 -0.58951,3.169954 -1.19433,4.633408 -14.87992,36.004531 -4.37356,10.02538 -10.21941,23.426779 -12.99079,29.780899 -2.77138,6.35411 -9.56945,21.93341 -15.1068,34.62067 -7.55806,17.31708 -22.77102,43.27814 -22.27967,43.59374 0.35997,0.23124 4.35143,2.49019 8.86991,5.01993 4.51848,2.52973 9.60177,5.71489 11.29621,7.07814 9.01909,7.25631 14.18784,19.96716 12.72525,31.29361 -0.60728,4.70286 -13.27139,44.50262 -14.13409,44.71602 z"
   id="path1115" /><path
   id="path1915"
   style="stroke-width:14.0194"
   d="m 116.93667,138.49728 -2.77479,6.20804 c -5.79036,12.96491 -14.814409,23.4448 -26.465349,30.73251 l -12.06532,7.548 12.95956,7.63999 c 9.28239,5.47303 15.437489,11.36616 21.697919,20.77782 l 8.73843,13.1407 5.52083,-9.75918 c 7.27408,-12.857 13.29758,-19.13596 24.91264,-25.96796 5.27054,-3.10014 9.58381,-6.36787 9.58381,-7.26044 0,-0.89262 -3.32694,-3.2082 -7.39271,-5.14702 -11.6293,-5.54564 -21.64841,-15.03453 -28.44946,-26.94272 z" /><path
   id="path1915-3"
   style="clip-rule:evenodd;fill-rule:evenodd;stroke-width:7.62987;stroke-linejoin:round;stroke-miterlimit:2"
   d="m 152.7309,53.983627 -1.51014,3.37863 c -3.15133,7.05599 -8.06255,12.75953 -14.40341,16.72576 l -6.56639,4.1079 7.05306,4.15796 c 5.05182,2.97863 8.40165,6.18588 11.80881,11.30805 l 4.75577,7.151643 3.00464,-5.311293 c 3.95882,-6.99725 7.23703,-10.41449 13.55837,-14.13271 2.86842,-1.68721 5.21586,-3.46563 5.21586,-3.9514 0,-0.4858 -1.81064,-1.74602 -4.02338,-2.8012 -6.32909,-3.01814 -11.78186,-8.18234 -15.48324,-14.66321 z" /></svg>
