<?xml version="1.0" encoding="UTF-8" standalone="no"?>
<svg
  id="svg8"
  version="1.1"
  viewBox="0 0 200 200"
  height="200mm"
  width="200mm"
  xmlns="http://www.w3.org/2000/svg"
>
  <defs
     id="defs8" />
  <path
     id="path1091"
     style="stroke-width:3.77953;stroke-linecap:round;-inkscape-stroke:none"
     d="M 97.720703 0 C 44.143783 0 9.4739031e-15 44.143757 0 97.720703 L 0 547.63867 L 64.849609 547.63867 L 64.849609 97.720703 C 64.849609 78.946403 78.946429 64.841797 97.720703 64.841797 L 461.31641 64.841797 L 473.52344 64.841797 L 473.52344 0.80273438 C 469.51808 0.29314067 465.45 -7.4014868e-17 461.31641 0 L 97.720703 0 z M 246.00195 132.00391 C 194.66775 132.00391 152.36133 174.30838 152.36133 225.64258 L 152.36133 665.01172 C 152.36133 716.34594 194.66775 758.65234 246.00195 758.65234 L 602.08984 758.65234 C 653.42407 758.65234 695.72852 716.34594 695.72852 665.01172 L 695.72852 225.64258 C 695.72852 174.30838 653.42407 132.00391 602.08984 132.00391 L 246.00195 132.00391 z M 388.09766 298.57422 L 459.99805 298.57422 C 460.40654 298.57422 460.73633 298.90392 460.73633 299.3125 L 460.73633 408.63867 L 570.0625 408.63867 C 570.47107 408.63867 570.80078 408.96839 570.80078 409.37695 L 570.80078 481.27734 C 570.80078 481.68584 570.4711 482.01562 570.0625 482.01562 L 460.73633 482.01562 L 460.73633 591.3418 C 460.73633 591.7507 460.40661 592.08008 459.99805 592.08008 L 388.09766 592.08008 C 387.68916 592.08008 387.35937 591.7504 387.35938 591.3418 L 387.35938 482.01562 L 278.0332 482.01562 C 277.62462 482.01562 277.29492 481.68591 277.29492 481.27734 L 277.29492 409.37695 C 277.29492 408.96846 277.62462 408.63867 278.0332 408.63867 L 387.35938 408.63867 L 387.35938 299.3125 C 387.35937 298.90392 387.68909 298.57422 388.09766 298.57422 z "
     transform="scale(0.26458333)" />
</svg>
