<?xml version="1.0" encoding="UTF-8" standalone="no"?>
<svg
  id="svg8"
  version="1.1"
  viewBox="0 0 200 200"
  width="100%"
  height="100%"
  xmlns="http://www.w3.org/2000/svg"
>
  <defs
    id="defs8"/>
  <path
    id="path39-2-8"
    style="stroke-width:1.87665"
    d="M 99.872243,0.15712866 C 95.888173,0.23383116 91.878688,1.640016 89.167728,4.3509761 83.870148,9.6485526 83.37026,23.13733 88.270998,28.552514 c 6.825175,7.541764 4.458241,10.97534 -10.79076,15.654208 l -14.075022,4.31866 v 11.082171 c 0,10.390253 0.508111,11.662936 8.132711,20.378917 7.396012,8.454753 8.341649,10.691289 10.447389,24.69918 1.273369,8.47143 2.774636,17.31083 3.335686,19.6429 0.880784,3.66146 -0.289044,4.78395 -8.571436,8.22592 l -9.590834,3.986 v 5.39163 h 65.682538 v -5.39163 l -9.59084,-3.986 c -8.28247,-3.44197 -9.45221,-4.56445 -8.57143,-8.22592 0.56105,-2.33207 2.06223,-11.17147 3.33569,-19.6429 2.09473,-13.935389 3.07318,-16.269278 10.27222,-24.498835 7.85462,-8.978905 9.04845,-12.760662 8.49804,-26.915298 -0.17191,-4.418426 -1.54081,-5.288351 -14.26518,-9.065868 C 106.77208,39.530745 105.26003,36.979804 112.46288,27.237416 117.30163,20.692617 116.35466,9.8728446 110.42355,3.9417156 107.81497,1.333216 103.85631,0.08042612 99.872243,0.15712866 Z M 67.158732,149.53502 v 6.45978 19.45486 h -6.568519 -6.567987 v 12.19799 12.19854 h 45.978044 45.9775 v -12.19854 -12.19799 h -6.56798 -6.56852 v -19.45486 -6.45978 z"/>
</svg>
