<?xml version="1.0" encoding="UTF-8" standalone="no"?>
<svg
  id="svg8"
  version="1.1"
  viewBox="0 0 200 200"
  width="100%"
  height="100%"
  xmlns="http://www.w3.org/2000/svg"
>
  <defs
     id="defs8" />
  <path
     id="path914"
     style="stroke-width:3.03949"
     d="m 379.60742,51.34375 c -25.70495,6.1e-5 -46.54291,20.838022 -46.54297,46.542969 0.008,19.354351 11.99339,36.683671 30.09961,43.521481 -1.95216,21.08878 -31.55382,140.31123 -39.61718,157.32422 -17.50672,36.9374 -41.95514,40.34543 -70.44922,9.82031 -13.94988,-14.9442 -24.59226,-28.85886 -27.70899,-35.74218 14.08954,-8.38883 22.72514,-23.57292 22.73242,-39.97071 -7e-5,-25.70494 -20.83803,-46.5429 -46.54297,-46.54296 -25.70494,7e-5 -46.54289,20.83802 -46.54296,46.54296 6e-5,25.70494 20.83802,46.5429 46.54296,46.54297 2.56777,-0.007 5.13055,-0.22652 7.66211,-0.65625 l 3.83399,33.375 c 5.35903,46.65341 1.25506,67.86545 -14.72852,76.13086 -18.9482,9.7985 -35.51907,4.33432 -78.75,-25.96875 -16.08705,-11.2764 -27.433071,-19.20212 -29.914059,-20.90625 7.905021,-8.58897 12.294039,-19.83477 12.296879,-31.50781 -6e-5,-25.70495 -20.838025,-46.54291 -46.542973,-46.54297 -25.704947,6e-5 -46.5429076,20.83802 -46.5429689,46.54297 6.13e-5,25.70495 20.8380219,46.54291 46.5429689,46.54297 5.129134,-0.0108 10.221204,-0.86941 15.070312,-2.54102 l 33.945311,99.60156 34.18945,100.32227 238.47657,-0.7793 238.47656,-0.77734 36.54883,-101.0625 35.44726,-98.02148 c 5.44427,2.15164 11.24558,3.2569 17.09961,3.25781 25.70495,-6e-5 46.54291,-20.83802 46.54297,-46.54297 -6e-5,-25.70495 -20.83802,-46.54291 -46.54297,-46.54297 -25.70495,6e-5 -46.54291,20.83802 -46.54297,46.54297 0.0114,8.74725 2.48754,17.31424 7.14454,24.71875 -9.05552,11.84683 -51.71002,45.44896 -70.01563,53.97852 -21.19083,9.87396 -30.42237,9.23977 -42.58398,-2.92188 -13.13469,-13.13467 -15.81817,-30.34942 -10.90625,-69.95117 2.03705,-16.42359 4.38749,-31.64189 5.22265,-33.81836 0.37866,-0.98671 1.96243,-2.03179 4.10547,-2.97852 2.25538,0.33527 4.53234,0.50434 6.8125,0.50586 25.70495,-6e-5 46.54291,-20.83802 46.54297,-46.54297 -7e-5,-25.70494 -20.83803,-46.5429 -46.54297,-46.54296 -25.70494,6e-5 -46.5429,20.83802 -46.54297,46.54296 0.007,13.96071 6.28004,27.18106 17.08985,36.01563 l 1.04101,1.4082 -7.79883,11.80078 c -18.2307,27.58217 -41.55574,46.75391 -56.88086,46.75391 -11.02809,0 -27.30047,-15.71969 -35.14257,-33.94922 -5.79123,-13.46204 -35.0641,-136.41183 -36.41407,-152.49414 19.53726,-6.00299 32.87215,-24.04958 32.87305,-44.488281 -6e-5,-25.704947 -20.83802,-46.542908 -46.54297,-46.542969 z M 137.83398,580.87189 v 42.55274 42.55273 H 376.43359 615.0332 V 623.42463 580.87189 H 376.43359 Z"
     transform="scale(0.26458333)" />
</svg>
