<?xml version="1.0" encoding="UTF-8" standalone="no"?>
<svg
  width="100%"
  height="100%"
  viewBox="0 0 52.91667 52.916669"
  version="1.1"
  id="svg8"
  xmlns="http://www.w3.org/2000/svg"
>
  <defs
    id="defs6"/>
  <path
    id="path4"
    style="stroke-width:2.51407"
    d="M 11.373983 1.3177491 C 8.6085168 1.3177491 6.3458662 3.5804012 6.3458662 6.3458662 L 6.3458662 17.708481 L 5.5004397 17.708481 C 2.4897503 17.708481 0.066145837 20.132085 0.066145837 23.142775 L 0.066145837 37.009629 C 0.066145837 40.020319 2.4897503 42.443923 5.5004397 42.443923 L 6.3458662 42.443923 L 6.3458662 46.570803 C 6.3458662 49.336275 8.6085168 51.59892 11.373983 51.59892 L 41.542686 51.59892 C 44.308153 51.59892 46.570803 49.336275 46.570803 46.570803 L 46.570803 42.443923 L 47.41623 42.443923 C 50.42692 42.443923 52.850524 40.020319 52.850524 37.009629 L 52.850524 23.142775 C 52.850524 20.132085 50.42692 17.708481 47.41623 17.708481 L 46.570803 17.708481 L 46.570803 13.888042 L 34.00051 1.3177491 L 11.373983 1.3177491 z M 11.373983 6.3458662 L 31.486452 6.3458662 L 31.486452 16.4021 L 41.542686 16.4021 L 41.542686 17.708481 L 11.373983 17.708481 L 11.373983 6.3458662 z M 14.184148 22.424472 C 15.002591 22.424472 15.715226 22.495234 16.322002 22.636346 C 16.928778 22.777455 17.422567 22.932616 17.803565 23.10195 C 18.198676 23.271283 18.474132 23.412291 18.629355 23.52518 L 17.782378 25.874908 C 17.359044 25.635019 16.851105 25.430326 16.25844 25.260992 C 15.665775 25.077547 14.988521 24.985556 14.226523 24.985556 C 13.422189 24.985556 12.688329 25.169023 12.025106 25.53591 C 11.375996 25.888689 10.853903 26.439085 10.458794 27.186972 C 10.063682 27.934862 9.866065 28.887572 9.866065 30.044679 C 9.866065 31.032456 10.014666 31.914404 10.310999 32.690513 C 10.621443 33.452511 11.101076 34.059001 11.750188 34.510557 C 12.413408 34.948 13.259974 35.166848 14.290085 35.166848 C 15.26375 35.166848 16.040069 35.075373 16.618625 34.891929 C 17.197178 34.708484 17.66266 34.525019 18.015439 34.341575 L 18.820041 36.690786 C 18.410819 36.930673 17.789661 37.163673 16.957105 37.389451 C 16.138662 37.615229 15.165241 37.727932 14.036353 37.727932 C 12.526467 37.727932 11.235131 37.431762 10.162688 36.839097 C 9.0902443 36.246432 8.2714673 35.378637 7.7070235 34.235638 C 7.14258 33.092639 6.8605635 31.709828 6.8605635 30.087054 C 6.8605635 28.8735 7.0440291 27.793935 7.4109176 26.848492 C 7.791917 25.888937 8.3140091 25.084314 8.9772303 24.435202 C 9.6404515 23.771982 10.416772 23.271117 11.30577 22.932452 C 12.194771 22.593785 13.154038 22.424472 14.184148 22.424472 z M 25.900229 22.424472 C 26.845673 22.424472 27.671009 22.530616 28.376564 22.742282 C 29.09623 22.953949 29.682007 23.186431 30.133563 23.440431 L 29.265399 25.726596 C 28.856176 25.500819 28.390695 25.310277 27.868585 25.155055 C 27.346473 24.985721 26.739468 24.900807 26.048024 24.900807 C 25.22958 24.900807 24.616015 25.028179 24.206792 25.282179 C 23.811682 25.53618 23.614064 25.937975 23.614064 26.488307 C 23.614064 26.883418 23.733843 27.208407 23.973732 27.462408 C 24.213621 27.716408 24.538094 27.941814 24.947316 28.139369 C 25.356537 28.322814 25.815459 28.506279 26.323459 28.689723 C 27.297125 29.042501 28.108309 29.409432 28.757419 29.790431 C 29.420642 30.171432 29.921503 30.651065 30.26017 31.22962 C 30.612948 31.794064 30.789337 32.549154 30.789337 33.494598 C 30.789337 34.383598 30.578084 35.145764 30.15475 35.780764 C 29.731418 36.415763 29.096106 36.902473 28.24944 37.24114 C 27.416885 37.565694 26.37978 37.727932 25.138002 37.727932 C 23.882113 37.727932 22.859161 37.601077 22.068938 37.347076 C 21.292827 37.078966 20.721203 36.83889 20.354314 36.627224 L 21.200774 34.320388 C 21.595886 34.546164 22.118492 34.757418 22.767604 34.954974 C 23.416714 35.15253 24.206669 35.251597 25.138002 35.251597 C 26.125779 35.251597 26.817182 35.096437 27.212294 34.785992 C 27.607406 34.461438 27.805023 34.03082 27.805023 33.494598 C 27.805023 33.071266 27.685243 32.725564 27.445355 32.457452 C 27.219577 32.17523 26.873875 31.921519 26.408209 31.695741 C 25.942542 31.469965 25.356765 31.236965 24.65121 30.997076 C 23.973876 30.743076 23.32493 30.453983 22.704042 30.129429 C 22.097264 29.790762 21.602961 29.353069 21.221962 28.816847 C 20.840961 28.280625 20.650937 27.57507 20.650937 26.70018 C 20.650937 25.811181 20.86219 25.049015 21.285524 24.414015 C 21.722967 23.779016 22.329974 23.292306 23.106084 22.953639 C 23.896307 22.600861 24.827785 22.424472 25.900229 22.424472 z M 31.662669 22.762953 L 34.858856 22.762953 L 35.83244 25.684222 C 36.185218 26.686111 36.53092 27.687834 36.869586 28.689723 C 37.222364 29.691612 37.575142 30.651394 37.92792 31.568617 C 38.280698 32.471729 38.612247 33.289987 38.922691 34.023765 C 39.233136 33.289987 39.558125 32.471729 39.896792 31.568617 C 40.249569 30.651394 40.602347 29.691612 40.955125 28.689723 C 41.307903 27.687834 41.653604 26.686111 41.992271 25.684222 C 42.345049 24.668221 42.676597 23.694287 42.987043 22.762953 L 46.056106 22.762953 C 45.660995 23.891842 45.237455 25.07047 44.785899 26.298138 C 44.348455 27.525805 43.882975 28.774679 43.389085 30.044679 C 42.895196 31.300569 42.380183 32.556519 41.84396 33.812408 C 41.321848 35.054187 40.792682 36.260603 40.25646 37.431826 L 37.483502 37.431826 C 36.933168 36.260603 36.396926 35.054187 35.874815 33.812408 C 35.352704 32.57063 34.83769 31.314681 34.329689 30.044679 C 33.8358 28.774679 33.363244 27.525805 32.911688 26.298138 C 32.474244 25.07047 32.05778 23.891842 31.662669 22.762953 z M 11.373983 42.443923 L 41.542686 42.443923 L 41.542686 46.570803 L 11.373983 46.570803 L 11.373983 42.443923 z "/>
</svg>
