<?xml version="1.0" encoding="UTF-8" standalone="no"?>
<svg
  width="200"
  height="200"
  viewBox="0 0 52.91667 52.916669"
  version="1.1"
  id="svg8"
  xmlns="http://www.w3.org/2000/svg"
>
  <defs
    id="defs6"/>
  <path
    style="stroke-width:0.209438"
    d="M 18.524723,48.76411 C 13.477446,48.366144 9.7617031,47.215959 8.2402126,45.580615 7.4333023,44.713317 6.3148487,43.515716 6.4016634,42.170944 6.4745677,41.980895 6.3579683,41.926537 6.0170994,41.9917 5.2326859,42.141648 4.7199656,41.404199 4.7817085,40.214838 4.8138465,39.59577 5.5903838,39.271927 6.167871,39.636773 c 0.4143274,0.261759 0.4181349,0.221191 0.3501147,-3.735635 0.033776,-2.084864 -0.099562,-3.500695 -0.035978,-4.481487 0,-0.08944 -0.3665477,-0.127658 -0.8145567,-0.08492 -1.1151344,0.106344 -1.6987009,-0.241183 -1.6987009,-1.011624 0,-0.840739 0.7801231,-1.350807 1.7792993,-1.163362 0.581746,0.109138 0.7339583,0.07058 0.7339583,-0.185955 0,-0.546268 0.2039831,-1.135204 0.8509075,-1.700025 1.0595022,-0.934549 0.8207658,-0.756276 2.1131774,-1.413295 2.7517514,-1.362489 3.2078554,-4.26757 3.7282574,-6.320887 0.742982,-2.941076 1.061355,-4.590856 1.374163,-7.120897 0.207235,-1.676124 0.888324,-3.7199032 1.459114,-4.378417 0.290097,-0.3346915 0.52746,-0.6509519 0.52746,-0.7027995 0,-0.051848 -0.235621,-0.3742854 -0.523597,-0.716527 -0.990723,-1.1774061 -0.420929,-2.5678566 1.060974,-2.5890725 0.762539,-0.092873 0.865934,0.4305927 1.274007,0.8656998 0.386029,0.4093102 0.701871,0.8196924 0.701871,0.9119586 0,0.092268 0.368671,0.2267109 0.819268,0.2987642 0.450596,0.07205 1.260212,0.3200173 1.799144,0.5510304 1.93796,0.8944268 1.891203,0.8770573 3.268077,1.6626383 1.675598,0.7056268 3.206501,0.6106827 4.531862,-0.049806 3.049907,-1.7043298 3.599437,-2.1063054 5.751848,-2.6713775 1.130021,-1.4218793 1.212637,-1.4807005 1.986887,-1.4146387 1.003647,0.085635 1.645066,0.8867137 1.344007,1.6785569 -0.113751,0.2991845 -0.47184,0.8055429 -0.795756,1.1252411 -0.323915,0.3196976 -0.405914,0.4467386 -0.182218,0.2823121 0.609907,0.5733346 0.443146,0.7414498 0.739994,1.2310395 0.941955,3.0119673 1.233363,4.8621103 1.581532,7.4758403 0.361452,2.764792 1.186743,6.529637 2.43057,8.629317 0.273533,0.444097 0.863331,0.883398 1.745848,1.300365 2.175443,0.930005 2.678069,2.303535 2.834206,3.568873 0,0.434609 0.142913,0.698152 0.471236,0.868995 0.920768,0.479125 1.747579,1.65643 1.541128,2.194433 -0.201348,0.524701 -0.906907,0.319673 -1.520815,-0.441935 l -0.596268,-0.739729 -0.02204,3.755911 c -0.01213,2.065747 -0.08046,4.047952 -0.151843,4.404897 -0.110915,0.554571 -0.06816,0.648983 0.293844,0.648983 0.671488,0 1.482133,1.018261 1.408642,1.76942 -0.0843,0.861648 -0.832266,0.992725 -1.330011,0.233072 -0.193315,-0.295037 -0.500025,-0.536427 -0.68158,-0.536427 -0.04061,1.262058 -0.0076,0.779298 -0.04061,1.262058 -0.796667,3.101186 -1.381695,3.203417 -2.905704,3.954007 -1.350412,0.67755 -3.429345,1.252347 -5.785976,1.599762 -2.624604,0.386907 -15.45012,0.597538 -19.058872,0.312989 z m 28.836143,-7.59307 c -0.150286,-0.150281 -0.247835,-0.162646 -0.247835,-0.03142 0,0.11903 0.06283,0.279253 0.139626,0.356044 0.07678,0.07678 0.188318,0.09094 0.247834,0.03142 0.05952,-0.05953 -0.0033,-0.219733 -0.139625,-0.356044 z M 6.1447807,41.04434 C 6.2032787,40.9497 6.0674437,40.715005 5.842984,40.522793 5.4277305,40.167241 5.33324,40.289073 5.5619662,40.88513 c 0.1377502,0.358972 0.4129025,0.434141 0.5828145,0.15921 z M 5.2217621,29.952745 C 4.407815,29.975885 4.2349504,30.736739 5.1867741,30.727978 6.6187278,30.622856 6.5766159,29.9202 5.2217621,29.952745 Z M 17.853964,6.0492992 c 0.02601,-0.152901 0.0042,-0.2065082 -0.03406,-0.3789002 -0.170321,-0.7673566 -0.984858,-1.1124272 -1.452641,-0.6446439 -0.37592,0.375916 0.955576,1.7261338 1.366168,1.3853765 0.158136,-0.1312444 0.101389,-0.2493112 0.120531,-0.3618324 z m 19.419707,0.081727 c 0.588429,-0.6263556 0.694023,-1.0757514 0.289267,-1.2310716 -0.477902,-0.1833878 -0.83191,0.057817 -1.191467,0.811821 -0.2521,0.5286612 -0.274235,0.7358345 -0.08677,0.8120111 0.424964,0.1726754 0.477273,0.1519005 0.988959,-0.3927608 z"
    id="path1078"/>
</svg>
