<?xml version="1.0" encoding="UTF-8" standalone="no"?>
<svg
  width="100%"
  height="100%"
  viewBox="0 0 284.80026 284.80027"
  version="1.1"
  id="svg8"
  xmlns="http://www.w3.org/2000/svg"
>
  <defs
    id="defs6"/>
  <path
    id="rect844"
    d="m 19.966517,42.181404 c -10.9178638,0 -19.70732357,8.789458 -19.70732357,19.707325 V 222.91146 c 0,10.91786 8.78945977,19.70732 19.70732357,19.70732 h 30.664796 v -22.04155 l -3.530018,-0.75241 c -5.87226,-0.93902 -7.798797,-3.81137 -8.663037,-12.91911 -0.486641,-5.12844 -1.496687,-7.93328 -3.977019,-11.04273 -8.528467,-10.69156 -8.656046,-11.9745 -1.97042,-19.80034 4.261217,-4.98797 6.305891,-10.56556 6.315892,-17.23409 0.0087,-6.79659 2.894266,-9.60787 10.5854,-9.72654 7.411212,-0.11435 13.545425,-2.7782 17.846455,-7.53081 1.33223,-1.47209 4.2462,-3.83047 5.842537,-3.79356 l 1.956472,0.045 c 2.333135,0.054 3.269112,1.36544 7.537524,4.55011 6.85065,5.11124 8.40037,5.70545 17.921901,6.874 7.0321,0.86302 9.13213,3.41374 9.16223,11.128 0.0226,5.67004 2.30365,11.13777 6.79649,16.28738 5.76486,6.60756 5.74474,8.16021 -0.20723,15.82539 -3.91074,5.03631 -5.46792,8.23421 -5.97948,12.27936 -2.49091,11.38619 -3.43833,15.77 -14.077172,15.50809 v 22.34386 H 264.83374 c 10.91787,0 19.70733,-8.78946 19.70733,-19.70732 V 61.888729 c 0,-10.917867 -8.78946,-19.707325 -19.70733,-19.707325 z M 40.207659,100.74992 H 253.50058 v 12.66434 H 40.207659 Z m 103.136851,35.31826 h 110.15607 v 12.66434 H 143.34451 Z m -69.868599,11.60136 c -1.278927,-3e-5 -2.845382,1.67658 -3.912422,2.85564 -3.444881,3.80657 -9.126525,6.05688 -15.061094,6.2146 -5.749817,0.15282 -8.471554,2.34655 -8.478555,7.79023 -0.008,5.34113 -1.645605,9.80872 -5.058605,13.80381 -5.354799,6.26805 -5.252622,7.29565 1.5782,15.85898 1.9866,2.49049 2.795563,4.73683 3.185334,8.84442 0.692211,7.29478 2.235253,9.59559 6.938595,10.34769 l 3.767727,0.60254 v 25.86044 25.86045 l 7.331337,-4.6974 c 4.03216,-2.58343 8.337444,-4.69732 9.567373,-4.69739 1.229942,-7e-5 5.309216,1.91532 9.065599,4.25659 3.756347,2.34123 7.113587,4.25711 7.460009,4.25711 0.346569,0 0.629935,-11.49355 0.629935,-25.54108 v -25.54108 l 3.074747,-0.0134 c 6.662069,-0.0302 8.415559,-2.27387 9.697079,-12.40751 0.40973,-3.23994 1.6571,-5.80126 4.78937,-9.83506 4.7672,-6.13937 4.78321,-7.38291 0.16589,-12.67519 -3.59851,-4.12454 -5.4255,-8.50383 -5.4436,-13.0452 -0.0241,-6.1787 -1.70626,-8.22192 -7.338569,-8.91315 -7.626199,-0.93594 -8.867182,-1.4118 -14.354161,-5.50561 -3.418761,-2.55074 -4.127323,-3.68034 -5.996535,-3.68039 z m 1.089856,17.83198 c 5.269381,0 6.760819,0.41144 10.520288,2.90164 12.40875,8.21921 11.918635,26.67005 -0.896585,33.75504 -10.250239,5.66687 -22.623679,1.84863 -27.648958,-8.5323 -4.517411,-9.33169 -1.083024,-20.52423 7.915796,-25.7979 3.112849,-1.82425 5.294241,-2.32648 10.109459,-2.32648 z m 68.778743,5.88337 h 110.15607 v 12.66589 H 143.34451 Z"/>
</svg>
