<?xml version="1.0" encoding="UTF-8" standalone="no"?>
<svg
   id="svg10"
   width="200mm"
   height="200mm"
   viewBox="0 0 200 200"
   version="1.1"
   xmlns="http://www.w3.org/2000/svg"
   xmlns:svg="http://www.w3.org/2000/svg">
  <defs
     id="defs6" />
  <path
     id="path603-7-3-6-2-1"
     style="stroke-width:0.246258"
     d="m 126.83246,31.790983 0.0662,22.14283 H 83.130745 v 24.073469 h 5.022432 V 63.112069 h 43.795773 l -0.046,-15.473476 40.64505,42.35297 -40.39184,43.153437 -0.0455,-15.42386 h -16.19644 v 9.17825 h 11.20034 l 0.0657,22.19347 3.75533,-4.01164 51.65884,-55.189908 z" />
  <path
     id="path39-7"
     style="stroke-width:1"
     d="m 101.05693,2.0459447 c -6.955204,0 -9.14725,0.4430263 -13.494275,2.7264466 C 78.082661,9.752212 74.434612,14.609861 65.557789,34.07758 c -7.72618,16.944181 -8.091787,18.085924 -8.011388,25.020696 0.04254,3.672544 0.593042,7.250679 1.86862,11.27683 l 9.408202,-9.760643 3.699537,-3.837493 -0.734194,24.022225 c 10.614231,-3.126631 16.102638,7.9673 16.826805,-1.781404 L 84.175274,71.414836 V 55.600815 L 95.082616,55.337263 C 87.24661,43.948414 81.853449,35.146526 81.853449,33.518957 c 0,-2.081059 2.267665,-2.628011 14.532451,-3.506761 7.99343,-0.57269 22.24021,0.63476 23.60631,2.000912 0.96711,0.96706 -2.07325,7.021523 -8.24913,16.426902 -1.60165,2.439223 -3.04612,4.758989 -4.12686,6.59443 l 21.69737,-0.524 0.0599,-19.621539 13.58159,13.897343 C 141.84394,45.755434 139.9845,41.618298 136.86612,34.787613 128.18276,15.767003 123.50503,9.4542859 114.66332,4.8230352 110.20056,2.4854653 108.04686,2.0459447 101.05693,2.0459447 Z M 115.91443,147.805 h -11.62617 c 13.67989,22.12399 25.91118,41.79765 28.63752,45.98014 2.88423,4.42466 5.5625,8.04499 5.9521,8.04499 0.89138,0 27.44472,-20.95922 31.98823,-25.24911 1.85552,-1.75197 3.37344,-3.84207 3.37344,-4.64467 0,-0.80263 -6.95278,-11.33806 -15.45075,-23.41201 -3.69297,-5.247 -8.41962,-12.11354 -13.22554,-19.16265 l -16.6176,16.50441 0.0599,-19.6205 -6.43578,-0.1385 0.97467,-2.67032 c -13.82126,-7.82974 -7.63002,16.91065 -7.63002,24.36822 z m -68.745688,-4.81831 c -3.483361,4.9966 -6.821009,9.75187 -9.25835,13.16923 -5.497201,7.7075 -10.00401,14.74392 -10.015411,15.63625 -0.02649,2.10251 2.688466,4.5995 20.132106,18.51566 7.94381,6.33741 14.80081,11.5223 15.23732,11.5223 0.797136,0 8.40904,-11.79494 25.22429,-39.08599 L 97.54086,148.05253 97.387904,147.805 H 72.800255 l 0.06458,21.18217 z" />
  <path
     id="path603-7-3-6"
     d="m 72.522956,56.777258 -3.69935,3.83752 -50.88728,52.794142 54.92891,55.57846 -0.0648,-21.18201 H 115.91451 V 78.007198 H 72.587376 Z m -4.90164,15.25576 0.0449,14.75387 H 110.96699 V 139.02567 H 67.825256 l 0.0454,14.8018 -40.03815,-40.51438 z"
     style="stroke-width:0.239048" />
</svg>
