<?xml version="1.0" encoding="UTF-8" standalone="no"?>
<svg
  id="svg10"
  width="100%"
  height="100%"
  viewBox="0 0 200 200"
  version="1.1"
  xmlns="http://www.w3.org/2000/svg"
>
  <defs
    id="defs6"/>
  <path
    d="m 46.95993,188.36969 c -17.44364,-13.91616 -20.15858,-16.41309 -20.1321,-18.5156 0.0114,-0.89233 4.51815,-7.92856 10.01534,-15.63607 5.49719,-7.70751 15.35449,-21.87445 21.90513,-31.48207 6.55064,-9.60762 12.27274,-17.08158 12.7158,-16.60878 0.44307,0.47277 6.25141,9.6633 12.90751,20.42336 l 12.10192,19.56376 -9.05232,14.69188 c -16.81526,27.29104 -24.42719,39.08605 -25.22434,39.08605 -0.43651,0 -7.29313,-5.18513 -15.23694,-11.52253 z m 84.8984,3.47765 C 126.9564,184.32727 91.63194,127.2627 71.61649,94.530179 60.26381,75.964439 56.59211,66.899999 56.47928,57.160399 c -0.0804,-6.93477 0.28522,-8.07654 8.01141,-25.020725 8.87682,-19.46772 12.52454,-24.3256707 22.00454,-29.3054907 4.34702,-2.28342 6.53946,-2.7264 13.494661,-2.7264 6.989929,0 9.143569,0.43961 13.606329,2.77718 8.84171,4.63125 13.51915,10.9439507 22.20251,29.9645607 7.44834,16.315275 7.77559,17.355385 7.64855,24.310875 -0.0863,4.73339 -0.94996,9.43743 -2.47712,13.49463 -2.45216,6.51454 -9.95547,20.90883 -11.3477,21.76926 -0.4442,0.27463 -3.50648,-3.57698 -6.8051,-8.55895 -3.29859,-4.98193 -8.73319,-12.86776 -12.07686,-17.52406 -3.34367,-4.65625 -6.0794,-8.96404 -6.0794,-9.57282 0,-0.60878 2.70659,-5.22879 6.01463,-10.26667 6.17588,-9.405385 9.21619,-15.459555 8.24908,-16.426615 -1.3661,-1.36615 -15.61272,-2.57387 -23.60615,-2.00118 -12.26478,0.87875 -14.53271,1.42605 -14.53271,3.50711 0,2.1798 9.66444,17.216355 21.93086,34.121415 5.08546,7.00866 16.06551,23.1353 24.40005,35.837011 8.33454,12.70177 22.10663,32.97279 30.60462,45.04678 8.49798,12.07395 15.45088,22.60936 15.45088,23.41199 0,0.8026 -1.51814,2.89272 -3.37368,4.64469 -4.5435,4.28989 -31.09664,25.24923 -31.98802,25.24923 -0.38959,0 -3.06809,-3.62022 -5.95233,-8.04488 z"
    id="path39"/>
  <path
    d="m 173.05911,126.94089 -5.86283,-5.86284 16.89039,-16.8904 h -44.11048 v -8.375411 h 44.11048 l -16.89039,-16.89029 5.86283,-5.86284 L 200,99.999999 Z"
    id="path5495"
    style="stroke-width:2.7918"/>
  <path
    d="M 26.94089,126.94089 0,99.999999 l 26.94089,-26.94089 5.86283,5.86273 -16.8904,16.89041 H 60.0237 v 8.375401 H 15.91332 l 16.8904,16.8904 z"
    id="path5495-0"
    style="stroke-width:2.7918"/>
</svg>
