<?xml version="1.0" encoding="UTF-8" standalone="no"?>
<svg
  xmlns="http://www.w3.org/2000/svg"
  width="100%"
  height="100%"
  viewBox="0 0 200 200"
  version="1.1"
  id="svg8">

  <path
    id="rect1081"
    transform="scale(0.26458333)"
    d="M 765.52148 15.837891 C 665.23456 35.905065 581.22442 71.771991 587.94141 93.667969 C 590.58095 102.27213 602.92898 136.0307 615.38086 168.68555 C 633.83179 217.0725 638.1123 248.19885 638.51172 336.9082 C 638.92089 427.76959 628.00682 489.08126 608.49414 528.64062 C 608.42384 528.77854 608.35583 528.92102 608.28516 529.05859 C 608.12804 529.37464 607.96853 529.68277 607.81055 529.99609 C 575.40484 589.3473 573.49304 581.61576 526.78125 663.37695 C 539.83823 721.73291 647.70555 745.81263 765.52148 750.10547 L 765.52148 15.837891 z M -1.8769531 17.435547 L -1.8769531 749.80664 C 112.89027 744.7521 216.35421 720.45382 229.125 663.37695 C 182.41321 581.61576 180.50141 589.3473 148.0957 529.99609 C 147.93772 529.68277 147.77821 529.37464 147.62109 529.05859 C 147.55042 528.92102 147.48241 528.77854 147.41211 528.64062 C 127.89943 489.08126 116.98536 427.76958 117.39453 336.9082 C 117.79395 248.19885 122.07446 217.0725 140.52539 168.68555 C 152.97727 136.03069 165.3253 102.27214 167.96484 93.667969 C 174.50807 72.338417 94.946745 37.760633 -1.8769531 17.435547 z M 191.41211 122.50781 C 186.6787 127.20153 182.6254 133.65311 179.2168 140.21875 C 171.28497 155.49711 162.5239 182.83429 155.16992 213.22656 L 280.39062 213.22656 C 260.3681 172.48923 229.18705 141.26206 191.41211 122.50781 z M 564.49414 122.50781 C 526.7192 141.26206 495.53816 172.48923 475.51562 213.22656 L 600.73633 213.22656 C 593.38235 182.83429 584.62128 155.49711 576.68945 140.21875 C 573.28085 133.65311 569.22755 127.20153 564.49414 122.50781 z M 150.21289 235.23242 C 146.19117 254.47241 142.8878 274.066 140.86133 291.96484 C 140.45828 295.52467 140.13656 299.65609 139.87891 304.16602 L 304.05078 304.16602 C 302.35442 279.34765 297.43344 256.25888 289.76758 235.23242 L 150.21289 235.23242 z M 466.13867 235.23242 C 458.47281 256.25887 453.55183 279.34765 451.85547 304.16602 L 616.02734 304.16602 C 615.76969 299.6561 615.44797 295.52466 615.04492 291.96484 C 613.01845 274.06599 609.71508 254.47241 605.69336 235.23242 L 466.13867 235.23242 z M 139.19727 326.16992 C 138.95651 348.62806 139.83782 374.6736 141.58789 395.10352 L 292.71484 395.10352 C 300.04403 372.7886 304.38999 349.5895 304.68555 326.16992 L 139.19727 326.16992 z M 451.2207 326.16992 C 451.51626 349.5895 455.86222 372.78859 463.19141 395.10352 L 614.31836 395.10352 C 616.06843 374.67359 616.94974 348.62806 616.70898 326.16992 L 451.2207 326.16992 z M 144.21289 417.10938 C 144.24313 417.28965 144.27527 417.48695 144.30664 417.66406 C 147.91692 437.91609 153.55696 462.82071 160.57422 486.05078 L 244.11328 486.05078 C 259.93019 465.17294 273.90421 441.86924 284.42773 417.10938 L 144.21289 417.10938 z M 471.47852 417.10938 C 482.00204 441.86924 495.9761 465.17294 511.79297 486.05078 L 595.33203 486.05078 C 602.34929 462.82071 607.98933 437.91609 611.59961 417.66406 C 611.63098 417.48695 611.66312 417.28965 611.69336 417.10938 L 471.47852 417.10938 z M 167.87695 508.05469 C 173.4352 523.251 179.5748 536.549 186.07227 545.74414 C 199.63665 535.05681 213.1636 522.35699 225.96875 508.05469 L 167.87695 508.05469 z M 529.9375 508.05469 C 542.74265 522.35699 556.2696 535.05681 569.83398 545.74414 C 576.33145 536.549 582.47105 523.251 588.0293 508.05469 L 529.9375 508.05469 z "
    style="opacity:1;vector-effect:none;fill-opacity:1;fill-rule:nonzero;stroke:none;stroke-width:2.51338577;stroke-linecap:round;stroke-linejoin:miter;stroke-miterlimit:4;stroke-dasharray:none;stroke-dashoffset:0;stroke-opacity:1"/>
</svg>
