<?xml version="1.0" encoding="UTF-8" standalone="no"?>
<svg
   xmlns="http://www.w3.org/2000/svg"
   id="svg10"
   width="200mm"
   height="200mm"
   viewBox="0 0 200 200"
   version="1.1">
  <path
     id="rect852-6-3"
     transform="scale(0.26458333)"
     d="M -0.91015625 -0.35742188 L -0.91015625 24.78125 L 289.89453 332.84961 L 324.4375 290.61328 L 33.46875 -0.35742188 L -0.91015625 -0.35742188 z M 43.660156 -0.35742188 L 329.02148 285.00586 L 351.0332 258.0918 L 365.17578 244.74219 L 105.52539 -0.35742188 L 43.660156 -0.35742188 z M 650.38086 -0.35742188 L 370.85352 263.50586 L 256.27344 403.60938 L 282.27734 429.61328 L 712.24414 -0.35742188 L 650.38086 -0.35742188 z M 722.43555 -0.35742188 L 287.37109 434.70898 L 313.37305 460.70898 L 453.47852 346.12891 L 756.81641 24.779297 L 756.81641 -0.35742188 L 722.43555 -0.35742188 z M 193.72461 357.14844 C 178.61065 356.68276 161.83083 377.84447 169.33984 389.44922 L 331.0918 551.20117 C 344.68619 561.69015 371.46777 534.47589 361.77734 520.51367 L 200.02539 358.76172 C 198.01 357.72151 195.88376 357.21496 193.72461 357.14844 z M 562.18164 357.14844 C 560.02247 357.21496 557.89231 357.72151 555.87695 358.76172 L 394.12695 520.51367 C 384.43651 534.47589 411.22006 561.69015 424.81445 551.20117 L 586.56641 389.44922 C 594.07542 377.84447 577.29559 356.68276 562.18164 357.14844 z M 464.53125 360.68945 L 459.24219 366.29102 L 432.32227 388.30469 L 473.62695 429.61328 L 499.63281 403.60938 L 464.53125 360.68945 z M 426.71484 392.88867 L 393.16211 420.33203 L 442.5332 460.70898 L 468.53516 434.70898 L 426.71484 392.88867 z M 172.37891 404.56445 A 227.02495 227.02495 0 0 0 227.00391 493.47461 A 227.02495 227.02495 0 0 0 316.23633 548.42188 L 172.37891 404.56445 z M 583.52539 404.56445 L 439.66992 548.42188 A 227.02495 227.02495 0 0 0 528.90039 493.47461 A 227.02495 227.02495 0 0 0 583.52539 404.56445 z M 205.00977 475.57227 L -0.91015625 681.48828 L -0.91015625 754.30273 L 241.31836 512.07617 A 227.02495 227.02495 0 0 1 221.7832 494.875 A 227.02495 227.02495 0 0 1 205.00977 475.57227 z M 550.89648 475.57227 A 227.02495 227.02495 0 0 1 534.12109 494.875 A 227.02495 227.02495 0 0 1 514.58789 512.07617 L 756.81641 754.30469 L 756.81641 681.49023 L 550.89648 475.57227 z "
     style="opacity:1;vector-effect:none;fill-opacity:1;fill-rule:nonzero;stroke:none;stroke-width:38.91978455;stroke-linecap:round;stroke-linejoin:miter;stroke-miterlimit:4;stroke-dasharray:none;stroke-dashoffset:0;stroke-opacity:1" />
</svg>
