<?xml version="1.0" encoding="UTF-8" standalone="no"?>
<svg
  id="svg8"
  version="1.1"
  viewBox="0 0 200 200"
  width="100%"
  height="100%"
  xmlns="http://www.w3.org/2000/svg"
>
  <defs
    id="defs8"/>
  <path
    style="stroke-width:0.889919"
    d="M 6.0069972,164.70866 C 0.67337541,162.37987 -0.03396349,160.13553 0.00120263,145.65316 0.0379511,130.58075 1.2761605,121.77229 5.004435,110.06444 13.551916,83.222982 34.52924,58.7248 58.625142,47.443976 c 14.578698,-6.825204 32.998992,-9.87758 50.486408,-8.36596 9.10472,0.787021 17.2921,2.452935 16.84937,3.428407 -0.14262,0.313923 -3.06911,4.053125 -6.50361,8.309374 l -6.24458,7.738637 -12.04314,0.01611 c -8.982832,0.01207 -13.969974,0.474852 -19.625827,1.821254 -27.045291,6.438252 -50.01044,29.273761 -58.394364,58.064682 -2.725644,9.36006 -4.381701,24.56866 -3.601365,33.07339 0.474763,5.17407 0.297043,6.88737 -0.927508,8.95058 -2.706833,4.56014 -7.88094,6.29454 -12.6135288,4.22817 z M 184.80749,164.43553 c -3.86688,-2.38597 -5.28551,-6.32665 -4.62186,-12.83892 0.71789,-7.04456 -0.7986,-22.0787 -3.15958,-31.32293 -0.9976,-3.90615 -4.2263,-11.94572 -7.17485,-17.86572 l -5.36104,-10.76362 3.23399,-8.323232 c 1.77865,-4.57778 3.59653,-9.267664 4.03966,-10.421966 0.80123,-2.087162 0.82103,-2.079821 3.59078,1.331641 9.70864,11.958 17.06631,26.417887 20.88551,41.046027 3.93034,15.0538 5.03625,39.28429 2.0848,45.67852 -2.17742,4.71724 -8.76418,6.41308 -13.51741,3.4802 z m -90.77458,-0.70569 c -5.159374,-1.60927 -12.29639,-7.0773 -14.408428,-11.03902 -2.002797,-3.75682 -2.144473,-10.43182 -0.313901,-14.79153 1.854073,-4.41593 9.157351,-14.68024 24.858429,-34.93695 30.16711,-38.920061 52.9224,-66.308237 56.81367,-68.380697 1.44417,-0.769152 1.74077,-0.637922 1.74077,0.770197 0,6.035024 -34.39637,93.60642 -44.93208,114.39472 -4.32323,8.53029 -7.27235,11.86718 -12.35562,13.98033 -3.98051,1.65468 -6.105325,1.65524 -11.402737,0.003 z"
    id="path877"/>
</svg>
