<?xml version="1.0" encoding="UTF-8" standalone="no"?>
<svg
  xmlns="http://www.w3.org/2000/svg"
  width="100%"
  height="100%"
  viewBox="0 0 284.80026 284.80027"
  version="1.1"
  id="svg8">
  <path
    id="path1004"
    transform="scale(0.26458335)"
    d="M 453.20898 9.984375 C 388.56402 10.60034 329.26967 58.600973 373.28125 134.57617 C 409.93046 183.81119 459.61238 218.1423 514.65625 242.88281 C 514.69405 258.00121 512.41779 279.41384 501.02539 294.24219 C 497.3967 299.87778 448.89597 372.9232 385.06055 374.81641 C 263.40953 354.38099 358.53111 230.53991 344.625 170.24414 C 262.08562 80.414076 155.12095 203.89198 160.30859 295.02344 C 166.50732 372.27351 114.00938 459.18699 172.80469 528.02148 C 215.35563 591.23688 300.61418 629.63009 312.53125 709.02148 C 342.27989 801.50346 334.78069 898.15386 317.50781 992.16602 C 316.86075 1021.6854 315.18409 1051.2463 313.10352 1080.8301 L 506.27344 1080.8301 L 394.20898 1048.707 A 13.610765 13.610765 0 0 1 390.19531 1047.1211 A 13.610765 13.610765 0 0 1 390.11328 1047.0723 A 13.610765 13.610765 0 0 1 396.43164 1021.7676 L 560.51562 996.83984 L 395.43555 950.54883 A 13.610765 13.610765 0 0 1 390.54102 948.38086 A 13.610765 13.610765 0 0 1 390.29297 948.21875 A 13.610765 13.610765 0 0 1 389.78125 947.80664 A 13.610765 13.610765 0 0 1 389.20703 947.32812 A 13.610765 13.610765 0 0 1 388.95703 947.08594 A 13.610765 13.610765 0 0 1 388.20703 946.32227 A 13.610765 13.610765 0 0 1 397.36719 923.66016 L 522.87305 904.5918 L 389.30273 867.13867 A 13.610762 13.610762 0 0 1 384.10352 864.79102 A 13.610762 13.610762 0 0 1 383.64258 864.41992 A 13.610765 13.610765 0 0 1 391.29492 840.22266 L 528.83008 819.32422 L 372.70312 775.54883 A 13.610765 13.610765 0 0 1 376.01953 748.79297 L 376.02344 748.79883 A 13.610765 13.610765 0 0 1 380.05664 749.35938 L 594.1875 809.40234 L 737.45312 787.63672 A 13.610762 13.610762 0 0 1 739.76367 787.45703 A 13.610762 13.610762 0 0 1 741.53711 814.54883 L 657.86914 827.26367 L 743.16992 851.18164 A 13.610765 13.610765 0 0 1 751.25391 872.03125 A 13.610765 13.610765 0 0 1 747.67188 897.97656 L 651.95898 912.51562 L 759.12891 942.56836 A 13.612305 13.612305 0 0 1 751.7793 968.7793 L 586.56445 922.45508 L 462.9707 941.23047 L 625.87695 986.91016 L 742.36328 969.21094 A 13.610765 13.610765 0 0 1 744.66016 969.01562 A 13.610765 13.610765 0 0 1 746.45312 996.10938 L 689.53125 1004.7617 L 765.26172 1025.9961 A 13.610765 13.610765 0 1 1 757.91016 1052.1914 L 624.17773 1014.6914 L 460.89258 1039.5117 L 593.4707 1077.5137 L 741.14453 1055.0762 A 13.610765 13.610765 0 0 1 743.43945 1054.9004 L 743.43945 1054.8965 A 13.610765 13.610765 0 0 1 749.14062 1080.8301 L 828.05664 1080.8301 C 825.74144 1030.6086 823.07957 980.40337 819.63672 930.23828 C 821.03382 831.78594 779.21163 726.99775 842.4082 639.38086 C 878.92275 565.05645 956.15638 482.50072 924.19727 378.46484 C 888.4672 293.44221 840.22442 212.29795 778.89648 143.35156 C 707.6519 82.067391 613.63226 53.581842 524.38477 31.257812 C 504.41257 17.087232 480.09769 10.318408 456.29102 9.9902344 C 455.2626 9.9760569 454.23509 9.9745978 453.20898 9.984375 z M 317.53125 237.23828 C 316.28588 271.34287 288.77888 314.86996 314.64648 354.45117 C 346.0871 406.28914 459.1833 391.24556 492.16406 333.92969 L 492.02734 334.55469 C 492.02734 334.55469 523.01483 283.69436 534.49023 251.29883 C 585.46325 271.73063 640.09382 284.80006 692.69531 294.39258 C 792.73861 297.76383 867.28233 390.00974 837.55469 488.33789 C 804.23649 572.89684 735.41018 660.34145 657.35742 700.02539 C 553.36074 746.48504 485.91315 650.33956 393.83789 620.25781 C 292.60593 608.12749 183.06401 526.65674 198.55469 414.68359 C 201.73997 344.00285 260.04072 246.01915 317.53125 237.23828 z M 592.51758 837.19141 L 456.83594 857.80469 L 588.27734 894.66016 L 723.95703 874.04688 L 592.51758 837.19141 z "
    style="stroke-width:2.42888522"/>
</svg>
