<?xml version="1.0" encoding="UTF-8" standalone="no"?>
<svg
  id="svg8"
  version="1.1"
  viewBox="0 0 200 200"
  width="100%"
  height="100%"
  xmlns="http://www.w3.org/2000/svg"
>
  <defs
    id="defs7"/>
  <path
    id="path2-3"
    clip-path="none"
    style="stroke-width:9.89541"
    d="M 153.57617 0.21484375 C 328.56438 25.26027 379.46263 72.251485 383.14453 78.767578 C 386.5009 92.001038 378.22852 101.14648 378.22852 101.14648 C 405.71097 112.26067 429.57334 128.78129 449.4043 149.20703 C 452.39284 138.19696 456.08967 127.26646 460.66211 115.27539 C 473.11399 82.620526 485.46205 48.861956 488.10156 40.257812 C 491.49512 29.195527 471.56312 14.570829 438.24219 0.21484375 L 153.57617 0.21484375 z M 488.64844 0.21484375 C 505.47971 10.022995 512.91396 17.542688 514.22852 19.869141 C 517.58489 33.102601 509.3125 42.25 509.3125 42.25 C 536.79499 53.364181 560.65729 69.884812 580.48828 90.310547 C 583.47679 79.300481 587.17366 68.369968 591.74609 56.378906 C 599.66393 35.614501 607.25276 15.120621 612.61719 0.21484375 L 488.64844 0.21484375 z M -0.046875 2.5351562 L -0.046875 746.44141 C 159.90389 765.46304 399.82834 756.12983 419.72461 667.20703 C 373.01279 585.44583 371.10102 593.17734 338.69531 533.82617 C 338.53733 533.51285 338.37783 533.20472 338.2207 532.88867 C 338.15003 532.7511 338.08202 532.60862 338.01172 532.4707 C 318.49904 492.91133 307.58497 431.59966 307.99414 340.73828 C 308.39356 252.02895 312.67407 220.90258 331.125 172.51562 C 343.57688 139.86078 355.92495 106.10222 358.56445 97.498047 C 365.96427 73.376195 263.25525 32.295029 149.97461 14.066406 C 112.99003 8.1149851 36.309728 4.0757087 -0.046875 2.5351562 z M 642.63281 10.201172 C 637.89945 14.894873 633.84607 21.34647 630.4375 27.912109 C 622.50567 43.190458 613.7446 70.527652 606.39062 100.91992 L 731.61133 100.91992 C 711.58871 60.182583 680.40779 28.95539 642.63281 10.201172 z M 511.54883 69.097656 C 506.81542 73.791353 502.76212 80.242953 499.35352 86.808594 C 491.42169 102.08694 482.66062 129.42414 475.30664 159.81641 L 600.52734 159.81641 C 580.50477 119.07907 549.32377 87.851872 511.54883 69.097656 z M 606.65039 122.92578 C 620.38901 143.78147 630.85745 167.08648 637.79492 191.85938 L 755.27148 191.85938 C 753.57508 167.04102 748.65418 143.95224 740.98828 122.92578 L 606.65039 122.92578 z M 382.01172 126.33789 C 377.2783 131.03161 373.22501 137.48319 369.81641 144.04883 C 361.88458 159.32719 353.12351 186.66436 345.76953 217.05664 L 470.99023 217.05664 C 450.9677 176.3193 419.7867 145.09214 382.01172 126.33789 z M 475.56641 181.82227 C 489.30503 202.67796 499.77346 225.98297 506.71094 250.75586 L 624.1875 250.75586 C 622.4911 225.93751 617.5702 202.84873 609.9043 181.82227 L 475.56641 181.82227 z M 642.97461 213.86328 C 647.19721 236.14689 648.6355 259.3401 647.12305 282.79688 L 743.93555 282.79688 C 751.26477 260.48193 755.61065 237.28285 755.90625 213.86328 L 642.97461 213.86328 z M 340.8125 239.0625 C 336.79078 258.30249 333.48741 277.89606 331.46094 295.79492 C 331.05789 299.35474 330.7362 303.4862 330.47852 307.99609 L 494.65039 307.99609 C 492.95403 283.17774 488.03305 260.08896 480.36719 239.0625 L 340.8125 239.0625 z M 511.89062 272.75977 C 516.11326 295.04337 517.55148 318.23658 516.03906 341.69336 L 612.85156 341.69336 C 620.18075 319.37842 624.52667 296.17934 624.82227 272.75977 L 511.89062 272.75977 z M 644.82422 304.80273 C 641.50421 327.92384 635.26409 351.10315 625.91992 373.74414 L 695.33398 373.74414 C 711.15089 352.8663 725.12487 329.5626 735.64844 304.80273 L 644.82422 304.80273 z M 329.79688 330 C 329.55612 352.45815 330.43743 378.50366 332.1875 398.93359 L 483.31445 398.93359 C 490.64364 376.61868 494.9896 353.41958 495.28516 330 L 329.79688 330 z M 513.74023 363.69922 C 510.42026 386.82032 504.1801 409.99959 494.83594 432.64062 L 564.25 432.64062 C 580.06687 411.76274 594.04085 388.45908 604.56445 363.69922 L 513.74023 363.69922 z M 619.09766 395.74805 C 624.65591 410.94436 630.79551 424.2424 637.29297 433.4375 C 650.85735 422.75021 664.38426 410.05035 677.18945 395.74805 L 619.09766 395.74805 z M 334.8125 420.93945 C 334.84274 421.11974 334.87488 421.31703 334.90625 421.49414 C 338.51653 441.74617 344.15657 466.65079 351.17383 489.88086 L 434.71289 489.88086 C 450.5298 469.00301 464.50382 445.69933 475.02734 420.93945 L 334.8125 420.93945 z M 601.18359 421.02344 C 581.01203 452.40191 554.01218 481.72575 519.53125 507.10547 L 580.51953 599.75781 C 581.42741 607.2028 580.4893 614.25515 578.21875 620.90625 C 633.15721 607.29591 672.76057 584.97094 680.3457 551.07031 C 634.63655 471.0641 631.64666 476.35326 601.18359 421.02344 z M 488.01367 454.64453 C 493.57192 469.84084 499.71149 483.13881 506.20898 492.33398 C 519.77329 481.64665 533.30028 468.94683 546.10547 454.64453 L 488.01367 454.64453 z M 470.09961 479.91992 C 449.92801 511.29839 422.92816 540.62227 388.44727 566.00195 L 449.43555 658.6543 C 450.34343 666.09929 449.40532 673.15167 447.13477 679.80273 C 502.07322 666.19243 541.67662 643.86742 549.26172 609.9668 C 503.5526 529.96059 500.56264 535.24979 470.09961 479.91992 z M 358.47656 511.88477 C 364.03481 527.08107 370.17441 540.37912 376.67188 549.57422 C 390.23624 538.88692 403.76324 526.18706 416.56836 511.88477 L 358.47656 511.88477 z "
    transform="scale(0.26458333)"/>
</svg>
