<?xml version="1.0" encoding="UTF-8" standalone="no"?>
<svg
  id="svg10"
  width="200mm"
  height="200mm"
  viewBox="0 0 200 200"
  version="1.1"
  xmlns="http://www.w3.org/2000/svg"
>
  <defs
    id="defs6"/>
  <path
    id="path161"
    style="stroke-width:9.89541"
    d="M 240.17773 0.44140625 C 238.71528 0.42250865 237.86315 0.50948865 237.69141 0.7109375 C 221.81682 19.342081 204.69506 79.762574 190.90039 143.88672 C 174.08161 222.06798 173.26405 223.43966 135.78516 236.32422 C 54.917256 264.12529 55.769417 358.96336 0.50195312 518.43359 L 0.50195312 663.375 C 2.9883531 654.9552 5.4527408 646.37826 7.8867188 637.60352 C 24.29021 578.46748 40.792118 527.25916 44.556641 523.80664 C 48.321504 520.35408 48.68614 528.88878 45.367188 542.77344 C 42.048233 556.6581 32.42963 613.96844 23.994141 670.13086 C 19.081813 702.83666 13.90552 732.91969 8.4453125 760.47656 L 51.300781 760.47656 C 52.316718 754.58027 53.317597 748.61888 54.285156 742.52734 C 95.999273 479.90001 57.919375 390.26207 124.61328 331.79883 C 145.17425 313.77524 163.82083 300.85015 166.04883 303.07812 C 168.2769 305.30612 156.19041 373.07027 158.0957 403.62109 C 162.39699 472.59131 159.53122 503.56119 153.58984 588.20703 L 130.86133 714.87891 C 212.09434 760.17549 653.06803 787.78675 680.34375 665.88281 C 633.63196 584.12158 631.72211 591.85124 599.31641 532.5 C 599.15842 532.18668 598.99891 531.87851 598.8418 531.5625 C 598.7711 531.42493 598.70311 531.28245 598.63281 531.14453 C 579.12013 491.58516 568.20606 430.2735 568.61523 339.41211 C 569.01465 250.70274 573.29516 219.5764 591.74609 171.18945 C 604.19797 138.5346 616.54604 104.77605 619.18555 96.171875 C 626.58537 72.050023 523.87635 30.968861 410.5957 12.740234 C 363.82564 5.2141755 250.41511 0.5730094 240.17773 0.44140625 z M 642.63281 125.01172 C 637.89941 129.70544 633.84607 136.15701 630.4375 142.72266 C 622.50567 158.00102 613.7446 185.33819 606.39062 215.73047 L 731.61133 215.73047 C 711.58879 174.99313 680.40775 143.76596 642.63281 125.01172 z M 309.04688 178.93359 L 406.2832 276.16797 L 385.12305 297.32812 L 324.16211 236.36719 L 324.16211 395.57227 L 293.93164 395.57227 L 293.93164 236.36719 L 232.9707 297.32812 L 211.81055 276.16797 L 309.04688 178.93359 z M 601.43359 237.73633 C 597.41187 256.97632 594.1085 276.56989 592.08203 294.46875 C 591.67898 298.02857 591.35726 302.16 591.09961 306.66992 L 755.27148 306.66992 C 753.57508 281.85154 748.65415 258.76278 740.98828 237.73633 L 601.43359 237.73633 z M 590.41797 328.67383 C 590.17721 351.13197 591.05852 377.1775 592.80859 397.60742 L 743.93555 397.60742 C 751.26477 375.29249 755.61065 352.09341 755.90625 328.67383 L 590.41797 328.67383 z M 421.90039 365.34375 L 452.12891 365.34375 L 452.12891 524.54883 L 513.0918 463.58594 L 534.25195 484.74609 L 437.01562 581.98242 L 339.7793 484.74609 L 360.93945 463.58594 L 421.90039 524.54883 L 421.90039 365.34375 z M 595.43359 419.61328 C 595.46379 419.79356 595.49614 419.99086 595.52734 420.16797 C 599.13762 440.42 604.77766 465.32458 611.79492 488.55469 L 695.33398 488.55469 C 711.15089 467.6768 725.12491 444.37316 735.64844 419.61328 L 595.43359 419.61328 z M 619.09766 510.55859 C 624.65591 525.7549 630.79551 539.05291 637.29297 548.24805 C 650.85735 537.56071 664.3843 524.86089 677.18945 510.55859 L 619.09766 510.55859 z "
    transform="scale(0.26458333)"/>
</svg>
