<?xml version="1.0" encoding="UTF-8" standalone="no"?>
<svg
  xmlns="http://www.w3.org/2000/svg"
  id="svg8"
  version="1.1"
  viewBox="0 0 200 200"
  width="100%"
  height="100%">
  <path
    style="stroke-width:9.89541817"
    d="m 236.00148,0.6770999 c -1.46248,-0.018801 -2.31455,0.067939 -2.48632,0.2695312 -15.87457,18.6311339 -32.99662,79.0518299 -46.79129,143.1759989 -16.8188,78.18125 -17.63634,79.55292 -55.11523,92.4375 C 50.74074,264.36119 51.591711,359.19967 -3.6757812,518.66992 V 663.61133 C -1.1893656,655.19154 1.2749956,646.61458 3.7089844,637.83984 20.112474,578.70381 36.614359,527.49549 40.378906,524.04297 c 3.764837,-3.45256 4.129509,5.08213 0.810547,18.9668 -3.318962,13.88466 -12.937564,71.195 -21.373047,127.35742 -4.912325,32.70578 -10.0885983,62.78884 -15.5488279,90.3457 H 47.123047 c 1.015952,-5.89628 2.016828,-11.85768 2.984375,-17.94922 41.714117,-262.62735 3.635448,-352.26572 70.329338,-410.72893 20.56099,-18.0236 39.20756,-30.94867 41.43555,-28.7207 2.22808,2.22801 -9.85874,69.9912 -7.95345,100.54203 4.30128,68.97019 1.43463,99.94144 -4.50675,184.58729 l -22.7278,126.67203 c 81.23301,45.29659 522.20723,72.90595 549.48293,-48.998 -46.71179,-81.76121 -48.62286,-74.02984 -81.02857,-133.38106 -0.15798,-0.31332 -0.31749,-0.62146 -0.47461,-0.9375 -0.0707,-0.13758 -0.13868,-0.28006 -0.20898,-0.41797 C 574.9424,491.82149 564.02833,430.50982 564.4375,339.64844 564.83692,250.93906 569.11742,219.81272 587.56836,171.42578 600.02024,138.77091 612.3683,105.01236 615.00781,96.408203 622.4076,72.286332 519.69861,31.205206 406.41797,12.976562 359.64793,5.4505052 246.23883,0.8087098 236.00148,0.6770999 Z M 638.45508,125.24805 c -4.73341,4.6937 -8.78671,11.14529 -12.19531,17.71093 -7.93183,15.27835 -16.6929,42.61555 -24.04688,73.00782 h 125.2207 c -20.02253,-40.73734 -51.20357,-71.96453 -88.97851,-90.71875 z m -41.19922,112.72461 c -4.02172,19.24001 -7.32509,38.83356 -9.35156,56.73242 -0.40305,3.55982 -0.72474,7.69126 -0.98242,12.20117 h 164.17187 c -1.69637,-24.81835 -6.61734,-47.90713 -14.2832,-68.93359 z m -11.01563,90.9375 c -0.24075,22.45814 0.64056,48.50365 2.39063,68.93359 h 151.12695 c 7.32919,-22.31493 11.67515,-45.51401 11.97071,-68.93359 z m 5.01563,90.93945 c 0.0302,0.18028 0.0624,0.37758 0.0937,0.55469 3.61028,20.25203 9.25032,45.15664 16.26758,68.38672 h 83.53906 c 15.81691,-20.87785 29.79093,-44.18154 40.31445,-68.94141 z m 23.66406,90.94531 c 5.55825,15.19631 11.69785,28.49432 18.19531,37.68946 13.56439,-10.68734 27.09134,-23.38716 39.89649,-37.68946 z"
    transform="scale(0.26458333)"/>
</svg>
