<?xml version="1.0" encoding="UTF-8" standalone="no"?>
<svg
  xmlns="http://www.w3.org/2000/svg"
  id="svg8"
  version="1.1"
  viewBox="0 0 200 200"
  width="100%"
  height="100%">
  <g
    transform="translate(0,-97)"
    id="layer1">
    <path
      d="m 98.978967,110.26874 c -18.820595,1.01481 -35.023138,11.85355 -43.560515,29.22349 h 43.560515 z m 5.822083,0 v 29.22349 h 43.56051 c -8.53738,-17.36994 -24.73992,-28.20868 -43.56051,-29.22349 z m -51.863671,35.04555 c -2.028282,5.56325 -3.330259,11.67235 -3.779083,18.23887 h 49.820671 v -18.23887 z m 51.863671,0 v 18.23887 h 49.82067 c -0.44884,-6.56652 -1.75082,-12.67562 -3.77908,-18.23887 z m -55.811246,24.06094 c 0.07045,6.19641 1.107887,12.33412 2.885459,18.23829 h 47.103704 v -18.23829 z m 55.811246,0 v 18.23829 h 46.82146 c 1.93918,-5.90416 3.08891,-12.04186 3.16711,-18.23829 z m -50.90807,24.06096 c 2.569612,6.55025 6.011762,12.7172 9.989891,18.24068 h 35.096096 v -18.24068 z m 50.90807,0 v 18.24068 h 33.96237 c 4.18489,-5.52393 7.88192,-11.68963 10.66627,-18.24068 z M 50.783061,207.4621 c -8.642444,11.69258 -21.168916,19.8898 -35.940978,22.12387 -8.1833316,1.23759 -12.721786,4.00028 -11.8559631,7.21756 0.2887653,1.07284 4.2493207,7.04147 8.8008041,13.2635 9.873262,13.49705 10.327816,13.61435 25.006921,6.47257 14.683475,-7.14388 27.564527,-15.6574 36.74373,-24.04109 -8.51764,-6.39996 -16.545115,-15.06472 -22.754514,-25.03641 z m 102.484689,0.0975 c -6.56756,9.86117 -14.88457,18.43958 -23.33462,24.80533 2.9787,2.78761 6.35555,5.57155 10.12167,8.3212 12.25016,8.94384 35.10275,20.69347 40.24781,20.69347 3.04954,0 4.57483,-1.49289 12.04372,-11.78856 4.70365,-6.48392 8.55227,-12.80973 8.55227,-14.05722 0,-2.9874 -3.34045,-4.59966 -12.45893,-6.01283 -10.7938,-1.67286 -18.63361,-5.58096 -27.66732,-13.79244 -2.72564,-2.47759 -5.23982,-5.22291 -7.5046,-8.16895 z m -84.784991,9.93934 c 9.361628,10.84319 20.65425,18.22539 30.496208,19.47852 v -19.4785 z m 36.318291,0 v 19.41353 c 8.53879,-1.42446 19.60823,-8.74333 29.1615,-19.41353 z m -27.297245,17.86037 0.106517,9.0716 c -0.25468,9.42605 -0.545097,23.00956 6.730516,28.94685 5.051504,3.49358 10.305799,3.62374 17.765892,3.62142 3.94536,0.0884 9.10458,0.0461 15.70002,-3.5438 9.44863,-5.98233 8.26988,-18.04167 8.36235,-28.19885 l 0.10713,-9.0716 -2.13385,1.53269 c -9.60057,6.89614 -15.89585,8.38349 -26.930169,6.92571 -7.433864,-0.98212 -11.249619,-3.20808 -17.574525,-7.75132 z"
      style="opacity:1;vector-effect:none;fill-opacity:1;fill-rule:nonzero;stroke:none;stroke-width:0.19214006;stroke-linecap:round;stroke-linejoin:miter;stroke-miterlimit:4;stroke-dasharray:none;stroke-dashoffset:0;stroke-opacity:1"/>
  </g>
</svg>
