<?xml version="1.0" encoding="UTF-8" standalone="no"?>
<svg
  width="200"
  height="200"
  viewBox="0 0 52.91667 52.916669"
  version="1.1"
  id="svg8"
  xmlns="http://www.w3.org/2000/svg"
>
  <path
     id="path2389"
     style="stroke-width:4.7625;-inkscape-stroke:none"
     d="m 5.0723004,16.801042 c -2.8041955,0 -5.06170685,2.257512 -5.06170685,5.061707 v 9.191171 c 0,2.804196 2.25751135,5.061707 5.06170685,5.061707 h 9.1911706 c 2.804196,0 5.061707,-2.257511 5.061707,-5.061707 v -2.213302 h 14.266313 v 2.213302 c 0,2.804196 2.257513,5.061707 5.061707,5.061707 h 9.190655 c 2.804195,0 5.062223,-2.257511 5.062223,-5.061707 v -9.191171 c 0,-2.804195 -2.258028,-5.061707 -5.062223,-5.061707 h -9.190655 c -2.804194,0 -5.061707,2.257512 -5.061707,5.061707 v 2.213819 H 19.325178 v -2.213819 c 0,-2.804195 -2.257511,-5.061707 -5.061707,-5.061707 z" />
  <defs
     id="defs6" />
</svg>
