<?xml version="1.0" encoding="UTF-8" standalone="no"?>
<svg
   width="200"
   height="200"
   viewBox="0 0 52.91667 52.916669"
   version="1.1"
   id="svg8"
   xmlns="http://www.w3.org/2000/svg"
   xmlns:svg="http://www.w3.org/2000/svg">
  <defs
     id="defs6" />
  <path
     id="path864"
     style="fill-opacity:1;stroke-width:1.03201;stroke-linecap:round;stroke-linejoin:round"
     d="M 100 16.0625 A 83.93834 83.93834 0 0 0 16.0625 100 A 83.93834 83.93834 0 0 0 100 183.9375 A 83.93834 83.93834 0 0 0 183.9375 100 A 83.93834 83.93834 0 0 0 100 16.0625 z M 100.93555 55.431641 L 109.28711 55.431641 L 109.28711 134.48828 L 126.13672 134.48828 L 126.13672 144.56836 L 78.183594 144.56836 L 78.183594 134.48828 L 97.480469 134.48828 L 97.480469 71.992188 C 96.424469 72.952187 95.127797 73.959625 93.591797 75.015625 C 92.151797 75.975625 90.519312 76.936484 88.695312 77.896484 C 86.967313 78.856484 85.144609 79.768813 83.224609 80.632812 C 81.304609 81.496812 79.431422 82.216969 77.607422 82.792969 L 73.863281 73.863281 C 78.759281 71.943281 83.511141 69.544062 88.119141 66.664062 C 92.72714 63.688063 96.999547 59.94364 100.93555 55.431641 z "
     transform="scale(0.26458335)" />
</svg>
