<?xml version="1.0" encoding="UTF-8" standalone="no"?>
<svg
  width="100%"
  height="100%"
  viewBox="0 0 52.91667 52.916669"
  version="1.1"
  id="svg8"
  xmlns="http://www.w3.org/2000/svg"
>
  <defs
    id="defs6"/>
  <path
    id="rect2031"
    style="stroke-width:0.599603"
    d="M 21.122226 2.8225669 L 21.122226 7.6196903 L 21.122226 12.416297 L 21.122226 13.01626 L 21.122226 20.810617 L 21.122226 22.010027 L 25.91935 22.010027 L 25.91935 26.807151 L 21.122226 26.807151 L 21.122226 31.603757 L 25.91935 31.603757 L 25.91935 36.338352 L 21.322731 36.338352 L 21.322731 41.134959 L 26.119854 41.134959 L 26.119854 45.932083 L 21.322731 45.932083 L 21.322731 50.728689 L 35.436599 50.728689 L 35.436599 50.828425 L 40.233205 50.828425 L 45.030329 50.828425 L 49.826935 50.828425 L 49.826935 41.234695 L 49.826935 36.438088 L 45.030329 36.438088 L 45.030329 31.640964 L 40.233205 31.640964 L 40.233205 41.234695 L 45.030329 41.234695 L 45.030329 46.031301 L 40.233205 46.031301 L 40.233205 41.234695 L 35.436599 41.234695 L 35.436599 45.932083 L 30.916461 45.932083 L 30.916461 41.234695 L 35.436599 41.234695 L 35.436599 36.438088 L 30.916461 36.438088 L 30.916461 36.338352 L 30.715956 36.338352 L 30.715956 31.603757 L 40.309686 31.603757 L 45.106293 31.603757 L 45.106293 26.807151 L 49.903417 26.807151 L 49.903417 22.010027 L 45.106293 22.010027 L 40.309686 22.010027 L 40.309686 26.807151 L 35.51308 26.807151 L 35.51308 22.010027 L 30.754197 22.010027 L 30.754197 17.213421 L 25.91935 17.213421 L 25.91935 12.416297 L 30.715956 12.416297 L 30.715956 7.6196903 L 25.91935 7.6196903 L 25.91935 2.8225669 L 21.122226 2.8225669 z M 21.122226 26.807151 L 21.122226 22.010027 L 16.325619 22.010027 L 16.325619 26.807151 L 21.122226 26.807151 z M 16.325619 26.807151 L 11.528496 26.807151 L 11.528496 31.603757 L 16.325619 31.603757 L 16.325619 26.807151 z M 11.528496 26.807151 L 11.528496 22.010027 L 6.7318892 22.010027 L 6.7318892 26.807151 L 11.528496 26.807151 z M 6.7318892 26.807151 L 1.9352825 26.807151 L 1.9352825 31.603757 L 6.7318892 31.603757 L 6.7318892 26.807151 z M 16.827398 3.006535 L 2.0412192 3.034957 L 2.0401857 3.5248496 L 1.548226 3.5258832 L 1.519804 18.312062 L 2.0360515 18.311028 L 2.035018 18.827792 L 16.821196 18.798854 L 16.82223 18.309478 L 17.312123 18.308444 L 17.341061 3.521749 L 16.826364 3.5227826 L 16.827398 3.006535 z M 50.739025 3.006535 L 35.951813 3.034957 L 35.950779 3.5248496 L 35.459853 3.5258832 L 35.430914 18.312062 L 35.947679 18.311028 L 35.946645 18.827792 L 50.732823 18.798854 L 50.733857 18.309478 L 51.223233 18.308444 L 51.252172 3.521749 L 50.737991 3.5227826 L 50.739025 3.006535 z M 11.663371 8.6837081 L 11.655103 13.141317 L 7.1969771 13.150102 L 7.2052453 8.6924931 L 11.663371 8.6837081 z M 45.574998 8.6837081 L 45.56673 13.141317 L 41.108604 13.150102 L 41.116872 8.6924931 L 45.574998 8.6837081 z M 16.827398 35.007167 L 2.0412192 35.036106 L 2.0401857 35.525999 L 1.548226 35.527032 L 1.519804 50.313211 L 2.0360515 50.312177 L 2.035018 50.828425 L 16.821196 50.800003 L 16.82223 50.31011 L 17.312123 50.309077 L 17.341061 35.522898 L 16.826364 35.523932 L 16.827398 35.007167 z M 11.663371 40.684341 L 11.655103 45.142467 L 7.1969771 45.151252 L 7.2052453 40.693126 L 11.663371 40.684341 z "/>
</svg>
