<?xml version="1.0" encoding="UTF-8" standalone="no"?>
<svg
   width="100%"
   height="100%"
   viewBox="0 0 52.91667 52.916669"
   version="1.1"
   id="svg8"
   sodipodi:docname="random.svg"
   inkscape:version="1.2.2 (b0a8486541, 2022-12-01)"
   inkscape:export-filename="random.png"
   inkscape:export-xdpi="300"
   inkscape:export-ydpi="300"
   xmlns:inkscape="http://www.inkscape.org/namespaces/inkscape"
   xmlns:sodipodi="http://sodipodi.sourceforge.net/DTD/sodipodi-0.dtd"
   xmlns="http://www.w3.org/2000/svg"
   xmlns:svg="http://www.w3.org/2000/svg">
  <sodipodi:namedview
     id="namedview7"
     pagecolor="#ffffff"
     bordercolor="#666666"
     borderopacity="1.0"
     inkscape:showpageshadow="2"
     inkscape:pageopacity="0.0"
     inkscape:pagecheckerboard="0"
     inkscape:deskcolor="#d1d1d1"
     showgrid="false"
     inkscape:zoom="5.8127516"
     inkscape:cx="23.998961"
     inkscape:cy="21.848517"
     inkscape:window-width="1920"
     inkscape:window-height="1043"
     inkscape:window-x="1920"
     inkscape:window-y="1080"
     inkscape:window-maximized="1"
     inkscape:current-layer="svg8" />
  <defs
     id="defs6" />
  <g
     id="g7047"
     transform="translate(57.84644,45.975986)">
    <rect
       fill="none"
       height="24"
       width="24"
       id="rect7045"
       x="0"
       y="0" />
  </g>
  <path
     id="rect310"
     style="fill:#000000;stroke:none;stroke-width:1.06402;stroke-linecap:round;stroke-linejoin:round;stop-color:#000000"
     d="M 9.2988281 0 C 4.1694035 0 0.041015625 4.130341 0.041015625 9.2597656 L 0.041015625 43.658203 C 0.041015625 48.787629 4.1694035 52.916016 9.2988281 52.916016 L 43.658203 52.916016 C 48.787629 52.916016 52.916016 48.787629 52.916016 43.658203 L 52.916016 9.2597656 C 52.916016 4.130341 48.787629 -5.9211835e-15 43.658203 0 L 9.2988281 0 z M 13.623047 7.9609375 A 5.66221 5.66221 0 0 1 14.332031 8.0117188 A 5.66221 5.66221 0 0 1 14.583984 8.0507812 A 5.66221 5.66221 0 0 1 15.058594 8.1542969 A 5.66221 5.66221 0 0 1 15.291016 8.2167969 A 5.66221 5.66221 0 0 1 15.951172 8.4628906 A 5.66221 5.66221 0 0 1 16.078125 8.5273438 A 5.66221 5.66221 0 0 1 16.580078 8.8007812 A 5.66221 5.66221 0 0 1 16.796875 8.9433594 A 5.66221 5.66221 0 0 1 17.207031 9.25 A 5.66221 5.66221 0 0 1 17.371094 9.3828125 A 5.66221 5.66221 0 0 1 17.857422 9.8671875 A 5.66221 5.66221 0 0 1 18.007812 10.052734 A 5.66221 5.66221 0 0 1 18.302734 10.445312 A 5.66221 5.66221 0 0 1 18.451172 10.675781 A 5.66221 5.66221 0 0 1 18.705078 11.138672 A 5.66221 5.66221 0 0 1 18.787109 11.302734 A 5.66221 5.66221 0 0 1 19.029297 11.951172 A 5.66221 5.66221 0 0 1 19.09375 12.189453 A 5.66221 5.66221 0 0 1 19.201172 12.685547 A 5.66221 5.66221 0 0 1 19.234375 12.898438 A 5.66221 5.66221 0 0 1 19.287109 13.623047 A 5.66221 5.66221 0 0 1 19.011719 15.365234 A 5.66221 5.66221 0 0 1 19.009766 15.373047 A 5.66221 5.66221 0 0 1 19.005859 15.378906 A 5.66221 5.66221 0 0 1 18.205078 16.951172 A 5.66221 5.66221 0 0 1 16.951172 18.205078 A 5.66221 5.66221 0 0 1 15.378906 19.005859 A 5.66221 5.66221 0 0 1 15.373047 19.009766 A 5.66221 5.66221 0 0 1 15.365234 19.011719 A 5.66221 5.66221 0 0 1 13.623047 19.287109 A 5.66221 5.66221 0 0 1 11.912109 19.015625 A 5.66221 5.66221 0 0 1 11.814453 18.978516 A 5.66221 5.66221 0 0 1 10.359375 18.238281 A 5.66221 5.66221 0 0 1 10.234375 18.144531 A 5.66221 5.66221 0 0 1 9.1054688 17.013672 A 5.66221 5.66221 0 0 1 9.0097656 16.886719 A 5.66221 5.66221 0 0 1 8.2714844 15.4375 A 5.66221 5.66221 0 0 1 8.2324219 15.332031 A 5.66221 5.66221 0 0 1 7.9609375 13.623047 A 5.66221 5.66221 0 0 1 8.2324219 11.914062 A 5.66221 5.66221 0 0 1 8.2695312 11.814453 A 5.66221 5.66221 0 0 1 9.0078125 10.365234 A 5.66221 5.66221 0 0 1 9.109375 10.228516 A 5.66221 5.66221 0 0 1 10.228516 9.109375 A 5.66221 5.66221 0 0 1 10.365234 9.0078125 A 5.66221 5.66221 0 0 1 11.814453 8.2695312 A 5.66221 5.66221 0 0 1 11.914062 8.2324219 A 5.66221 5.66221 0 0 1 13.623047 7.9609375 z M 39.292969 7.9609375 A 5.66221 5.66221 0 0 1 44.955078 13.623047 A 5.66221 5.66221 0 0 1 39.292969 19.287109 A 5.66221 5.66221 0 0 1 33.630859 13.623047 A 5.66221 5.66221 0 0 1 39.292969 7.9609375 z M 26.458984 20.816406 A 5.66221 5.66221 0 0 1 32.121094 26.478516 A 5.66221 5.66221 0 0 1 26.458984 32.140625 A 5.66221 5.66221 0 0 1 20.796875 26.478516 A 5.66221 5.66221 0 0 1 26.458984 20.816406 z M 13.623047 33.630859 A 5.66221 5.66221 0 0 1 19.287109 39.292969 A 5.66221 5.66221 0 0 1 13.623047 44.955078 A 5.66221 5.66221 0 0 1 7.9609375 39.292969 A 5.66221 5.66221 0 0 1 13.623047 33.630859 z M 39.292969 33.630859 A 5.66221 5.66221 0 0 1 44.955078 39.292969 A 5.66221 5.66221 0 0 1 39.292969 44.955078 A 5.66221 5.66221 0 0 1 33.630859 39.292969 A 5.66221 5.66221 0 0 1 39.292969 33.630859 z " />
</svg>
