<?xml version="1.0" encoding="UTF-8" standalone="no"?>
<svg
   width="100%"
   height="100%"
   viewBox="0 0 492 501"
   version="1.1"
   xml:space="preserve"
   style="fill-rule:evenodd;clip-rule:evenodd;stroke-linejoin:round;stroke-miterlimit:2;"
   id="svg606"
   xmlns="http://www.w3.org/2000/svg"
   xmlns:svg="http://www.w3.org/2000/svg">
<path
   id="path1600"
   style="clip-rule:nonzero;fill-rule:nonzero;stroke-width:1.02318;stroke-linecap:round;"
   d="M 258.00586 61.191406 C 190.6364 61.191406 131.34717 96.697042 97.792969 149.93555 L 107.125 100.29492 L 73.443359 76.771484 L 44.6875 229.32422 L 75.462891 250.80859 L 208.80273 171.29688 L 175.23047 147.86719 L 137.85742 170.0957 C 163.72002 131.39729 207.75217 105.98437 258.00586 105.98438 C 338.08535 105.98438 402.52148 170.42051 402.52148 250.5 C 402.52148 330.57948 338.08535 395.01758 258.00586 395.01758 C 212.01419 395.01758 171.21164 373.73834 144.7832 340.47266 L 91.525391 340.47266 C 123.61977 399.55511 186.25092 439.80859 258.00586 439.80859 C 362.29219 439.80859 447.3125 354.78632 447.3125 250.5 C 447.3125 146.21367 362.29219 61.191407 258.00586 61.191406 z M 259.2793 195.10938 L 210.58984 221.77734 L 211.47852 277.85352 L 260.98828 305.89062 L 309.60938 279.2207 L 308.7207 223.14648 L 259.2793 195.10938 z " /></svg>
