<?xml version="1.0" encoding="UTF-8" standalone="no"?>
<svg
   width="293"
   height="293.73438"
   viewBox="0 0 293 293.73438"
   version="1.1"
   xml:space="preserve"
   style="clip-rule:evenodd;fill-rule:evenodd;stroke-linejoin:round;stroke-miterlimit:2"
   id="svg2024"
   xmlns="http://www.w3.org/2000/svg"
   xmlns:svg="http://www.w3.org/2000/svg"><defs
   id="defs2028">
        
    
            
        
                
                
            
                    
                
                    
                </defs>
    
<path
   id="path6697"
   style="stroke-width:0.367169"
   d="M 146.13281,0 C 111.12951,0 80.165859,11.014866 53.240234,33.044922 45.110145,39.696813 37.898599,46.915864 31.576172,54.683594 V 32.310547 H 2.203125 V 117.49414 H 31.576172 87.386719 V 88.121098 H 44.794922 C 55.320385,69.762714 69.5791,55.381596 87.570312,44.978516 105.56153,34.575437 125.08187,29.373047 146.13281,29.373047 c 32.80031,0 60.58327,11.382099 83.34766,34.146485 22.76439,22.764366 34.14648,50.547338 34.14648,83.347658 0,32.8003 -11.38209,60.58327 -34.14648,83.34766 -22.76439,22.76438 -50.54735,34.14648 -83.34766,34.14648 -29.61818,0 -55.503806,-9.72957 -77.656248,-29.18945 C 46.324122,215.71201 33.41191,191.17287 29.740234,161.55469 H 0 c 3.6716752,37.69587 19.460503,69.14915 47.365234,94.36133 27.904739,25.21216 60.826936,37.81836 98.767576,37.81836 20.31661,0 39.40852,-3.8559 57.27735,-11.56641 17.86881,-7.71052 33.41282,-18.17454 46.63086,-31.39258 13.21802,-13.21802 23.68205,-28.76202 31.39257,-46.63086 C 289.14411,186.27571 293,167.18378 293,146.86719 293,126.55058 289.14411,107.45865 281.43359,89.589848 273.72307,71.721026 263.25904,56.177021 250.04102,42.958985 236.82298,29.740957 221.27897,19.276922 203.41016,11.566407 185.54133,3.855884 166.44942,0 146.13281,0 Z m -14.6875,60.119414 v 99.527346 l 64.04688,64.75195 20.5625,-20.56054 -55.23438,-55.94141 V 60.119414 Z" /></svg>
