<?xml version="1.0" encoding="UTF-8" standalone="no"?>
<svg
  id="svg8"
  version="1.1"
  viewBox="0 0 200 200"
  height="200mm"
  width="200mm"
  xmlns="http://www.w3.org/2000/svg"
>
  <defs
    id="defs8"/>
  <path
    d="M 46.959926,188.2619 C 29.516289,174.34574 26.801343,171.84881 26.82783,169.7463 c 0.01138,-0.89233 4.518142,-7.92856 10.015341,-15.63607 5.497183,-7.70751 15.354488,-21.87445 21.905126,-31.48207 6.550638,-9.60762 12.272742,-17.08158 12.715804,-16.60878 0.443063,0.47277 6.251406,9.6633 12.907503,20.42336 l 12.101924,19.56376 -9.052317,14.69188 c -16.815261,27.29104 -24.427197,39.08605 -25.22434,39.08605 -0.436511,0 -7.29313,-5.18513 -15.236945,-11.52253 z m 84.898404,3.47765 C 126.9564,184.21948 91.631935,127.15491 71.616484,94.42239 60.263803,75.85665 56.592109,66.79221 56.479275,57.05261 56.398845,50.11784 56.764501,48.97607 64.490688,32.03189 73.367508,12.56417 77.015231,7.70622 86.49523,2.7264 90.842247,0.44298 93.034682,0 99.989891,0 c 6.989929,0 9.143569,0.43961 13.606329,2.77718 8.84171,4.63125 13.51915,10.94395 22.20251,29.96456 7.44834,16.31527 7.77559,17.35538 7.64855,24.31087 -0.0863,4.73339 -0.94996,9.43743 -2.47712,13.49463 -2.45216,6.51454 -9.95547,20.90883 -11.3477,21.76926 -0.4442,0.27463 -3.50648,-3.57698 -6.8051,-8.55895 -3.29859,-4.98193 -8.73319,-12.86776 -12.07686,-17.52406 -3.34367,-4.65625 -6.0794,-8.96404 -6.0794,-9.57282 0,-0.60878 2.70659,-5.22879 6.01463,-10.26667 6.17588,-9.40538 9.21619,-15.45955 8.24908,-16.42661 -1.3661,-1.36615 -15.61272,-2.57387 -23.606155,-2.00118 -12.264782,0.87875 -14.532705,1.42605 -14.532705,3.50711 0,2.1798 9.664437,17.21635 21.93086,34.12141 5.08546,7.00866 16.06551,23.1353 24.40005,35.83701 8.33454,12.70177 22.10663,32.97279 30.60462,45.04678 8.49798,12.07395 15.45088,22.60936 15.45088,23.41199 0,0.8026 -1.51814,2.89272 -3.37368,4.64469 -4.5435,4.28989 -31.09664,25.24923 -31.98802,25.24923 -0.38959,0 -3.06809,-3.62022 -5.95233,-8.04488 z"
    id="path39"/>
</svg>
