<?xml version="1.0" encoding="UTF-8" standalone="no"?>
<svg
  xmlns="http://www.w3.org/2000/svg"
  id="svg10"
  width="100%"
  height="100%"
  viewBox="0 0 200 200"
  version="1.1">
  <path
    id="rect852-6"
    transform="scale(0.26458333)"
    d="M 703.81641 27.609375 C 703.3551 27.61623 702.89204 27.637518 702.42578 27.671875 L 674.92969 55.167969 L 701 81.238281 L 728.49805 53.742188 C 729.86738 40.200948 718.11691 27.396876 703.81641 27.609375 z M 676.8457 61.462891 L 535.01367 195.3457 L 546.67969 207.01172 L 684.53711 69.154297 L 676.8457 61.462891 z M 687.01367 71.630859 L 549.15625 209.48828 L 560.82227 221.1543 L 694.70508 79.322266 L 687.01367 71.630859 z M 522.52148 207.14062 L 279.625 436.42578 L 223.99023 504.45312 L 236.61719 517.08008 L 534.53711 219.15625 L 522.52148 207.14062 z M 537.01172 221.63281 L 239.08984 519.55469 L 251.71484 532.17773 L 319.74414 476.54297 L 549.02734 233.64648 L 537.01172 221.63281 z M 193.61914 481.89453 C 186.2805 481.66838 178.13328 491.94338 181.7793 497.57812 L 260.31836 576.11719 C 266.91916 581.21018 279.92397 567.99621 275.21875 561.2168 L 196.67969 482.67773 C 195.70111 482.17266 194.66752 481.92684 193.61914 481.89453 z M 183.25586 504.91797 A 110.23276 110.23276 0 0 0 209.7793 548.08789 A 110.23276 110.23276 0 0 0 253.10547 574.76758 L 183.25586 504.91797 z M 199.09961 539.39453 L 32.460938 706.03125 C 18.31883 719.66828 36.249097 736.58837 50.138672 723.70898 L 216.72852 557.11914 A 110.23276 110.23276 0 0 1 207.24414 548.76758 A 110.23276 110.23276 0 0 1 199.09961 539.39453 z "
    style="opacity:1;vector-effect:none;fill-opacity:1;fill-rule:nonzero;stroke:none;stroke-width:18.89763832;stroke-linecap:round;stroke-linejoin:miter;stroke-miterlimit:4;stroke-dasharray:none;stroke-dashoffset:0;stroke-opacity:1"/>
</svg>
