<?xml version="1.0" encoding="UTF-8" standalone="no"?>
<svg
  id="svg8"
  version="1.1"
  viewBox="0 0 200 200"
  width="100%"
  height="100%"
  xmlns="http://www.w3.org/2000/svg"
>
  <defs
     id="defs8" />
  <path
     style="stroke-width:0.251628"
     d="m 111.63058,175.0318 c -3.72526,-1.14704 -6.2816,-4.89109 -5.93667,-8.69492 0.29809,-3.2875 -0.27525,-2.62977 19.87949,-22.80519 l 18.4129,-18.43177 h -19.18107 -19.18107 v -8.43449 -8.43446 l 30.2583,0.0678 30.25831,0.0678 1.53931,0.71136 c 3.08006,1.4234 4.88654,4.18739 4.9083,7.50993 0.0128,1.95815 -0.40197,3.46904 -1.32246,4.81708 -0.30088,0.44064 -8.70825,8.98151 -18.68306,18.97971 l -18.136,18.17854 19.11812,0.0645 19.11812,0.0645 0.0663,8.36665 0.0663,8.36664 -30.01007,-0.0176 c -25.23041,-0.0148 -30.1956,-0.0747 -31.17506,-0.37624 z M 38.43944,150.13693 21.707581,133.40365 H 34.351194 46.994796 V 83.078004 32.752358 h 8.303734 8.303732 v 50.325646 50.325646 h 12.64361 12.643608 l -16.731858,16.73328 c -9.202523,9.2033 -16.789114,16.73328 -16.859092,16.73328 -0.06997,0 -7.656572,-7.52998 -16.85909,-16.73328 z m 61.67239,-59.443998 c 0.14579,-0.382334 5.30499,-14.113226 11.4649,-30.513096 6.15991,-16.399872 11.40683,-30.290768 11.65984,-30.868664 0.66468,-1.518259 2.27862,-3.150312 3.95455,-3.998937 l 1.45703,-0.737795 h 10.44258 c 10.3239,0 10.45665,0.0065 11.68066,0.570975 1.76941,0.815997 3.20339,2.076492 3.96949,3.489243 0.52876,0.97507 23.07962,60.665663 23.53922,62.30673 0.11579,0.413416 -0.42218,0.440348 -8.79641,0.440348 h -8.91974 l -3.10508,-8.305664 -3.1051,-8.305663 -15.20501,0.06484 -15.20502,0.06484 -3.06526,8.177917 -3.06528,8.177919 -8.98321,0.06607 -8.983218,0.06608 z m 47.78589,-32.954517 c 0,-0.09722 -1.37745,-3.837542 -3.06099,-8.311825 l -3.06101,-8.135057 -2.62215,0.07099 -2.62215,0.07099 -2.75223,7.297219 c -1.51371,4.01347 -2.91852,7.721841 -3.12181,8.240823 l -0.36956,0.943607 h 8.80495 c 4.84271,0 8.80495,-0.07954 8.80495,-0.176768 z"
     id="path934" />
</svg>
