<?xml version="1.0" encoding="UTF-8" standalone="no"?>
<svg
  xmlns="http://www.w3.org/2000/svg"
  width="200mm"
  height="200mm"
  viewBox="0 0 200 200"
  version="1.1">
  <path
    id="path828-6-5"
    transform="scale(0.26458333)"
    d="M 46.478516 0 C 29.666112 0.90651353 13.408028 3.8907155 -2.046875 8.78125 L -2.046875 110.45117 L 46.478516 110.45117 L 46.478516 0 z M 68.484375 0 L 68.484375 110.45117 L 233.12109 110.45117 C 200.85383 44.801052 139.61731 3.8354419 68.484375 0 z M 681.18164 7.1425781 C 610.04863 10.978077 548.81027 51.943583 516.54297 117.59375 L 681.18164 117.59375 L 681.18164 7.1425781 z M 703.18555 7.1425781 L 703.18555 117.59375 L 757.95312 117.59375 L 757.95312 18.017578 C 740.65548 11.879182 722.27764 8.1720258 703.18555 7.1425781 z M 374.09375 124.90039 C 302.96079 128.73589 241.72233 169.70141 209.45508 235.35156 L 374.09375 235.35156 L 374.09375 124.90039 z M 396.09766 124.90039 L 396.09766 235.35156 L 560.73633 235.35156 C 528.46906 169.70141 467.2306 128.73589 396.09766 124.90039 z M -2.046875 132.45508 L -2.046875 201.38867 L 46.478516 201.38867 L 46.478516 132.45508 L -2.046875 132.45508 z M 68.484375 132.45508 L 68.484375 201.38867 L 206.63672 201.38867 C 218.85451 183.95594 233.43331 168.92676 249.85938 156.64844 C 247.79777 148.31299 245.33884 140.24162 242.5 132.45508 L 68.484375 132.45508 z M 507.16602 139.59766 C 507.11991 139.72314 507.07736 139.85089 507.03125 139.97656 C 533.98858 156.45417 556.90283 179.72218 573.85352 208.53125 L 681.18164 208.53125 L 681.18164 139.59766 L 507.16602 139.59766 z M 703.18555 139.59766 L 703.18555 208.53125 L 757.95312 208.53125 L 757.95312 139.59766 L 703.18555 139.59766 z M -2.046875 223.39453 L -2.046875 292.32617 L 46.478516 292.32617 L 46.478516 223.39453 L -2.046875 223.39453 z M 68.484375 223.39453 L 68.484375 292.32617 L 169.82812 292.32617 C 171.6671 281.86916 174.11575 271.78544 177.12109 262.09766 A 249.65958 181.82803 0 0 1 178.38281 258.17383 C 179.13303 255.89833 179.90205 253.63756 180.71484 251.4082 L 180.75391 251.4082 A 249.65958 181.82803 0 0 1 190.62109 229.4043 L 190.0918 229.4043 C 191.08814 227.37719 192.11304 225.37421 193.16406 223.39453 L 68.484375 223.39453 z M 583.31641 230.53711 C 585.4546 235.14817 587.45864 239.86181 589.32422 244.66797 L 590.84961 244.66797 C 597.04021 261.6478 601.43898 279.97417 603.79688 299.46875 L 681.18164 299.46875 L 681.18164 230.53711 L 583.31641 230.53711 z M 703.18555 230.53711 L 703.18555 299.46875 L 757.95312 299.46875 L 757.95312 230.53711 L 703.18555 230.53711 z M 200.07812 257.35742 C 192.41221 278.38388 187.49126 301.47266 185.79492 326.29102 L 374.09375 326.29102 L 374.09375 257.35742 L 200.07812 257.35742 z M 396.09766 257.35742 L 396.09766 326.29102 L 584.39648 326.29102 C 582.70008 301.47266 577.77915 278.38388 570.11328 257.35742 L 396.09766 257.35742 z M -2.046875 314.33398 L -2.046875 383.27539 L 46.478516 383.27539 L 46.478516 314.33398 L -2.046875 314.33398 z M 68.484375 314.33398 L 68.484375 383.27539 L 165.79492 383.27539 L 165.79492 342.34766 L 165.79492 314.33398 L 68.484375 314.33398 z M 605.79883 321.47656 C 606.23083 327.53976 606.46407 333.624 606.49805 339.71289 C 606.43191 356.80539 604.79439 373.82657 601.62109 390.41602 L 681.18164 390.41602 L 681.18164 321.47656 L 605.79883 321.47656 z M 703.18555 321.47656 L 703.18555 390.41602 L 757.95312 390.41602 L 757.95312 321.47656 L 703.18555 321.47656 z M 185.1582 348.29492 C 185.42447 371.71442 189.34607 394.91354 196.06445 417.22852 L 374.09375 417.22852 L 374.09375 348.29492 L 185.1582 348.29492 z M 396.09766 348.29492 L 396.09766 417.22852 L 573.06055 417.22852 C 580.38973 394.91358 584.73569 371.7145 585.03125 348.29492 L 396.09766 348.29492 z M -2.046875 405.2793 L -2.046875 461.57617 C 14.463713 470.89471 30.948877 476.92114 46.478516 478.89844 L 46.478516 405.2793 L -2.046875 405.2793 z M 68.484375 405.2793 L 68.484375 478.65234 C 96.975044 473.89947 132.91939 451.78146 165.79492 418.91602 L 165.79492 405.2793 L 68.484375 405.2793 z M 596.51562 412.42188 C 594.28042 420.50174 591.67416 428.40063 588.71094 436.07617 C 618.73403 463.94497 651.67944 482.28466 681.18164 486.04102 L 681.18164 412.42188 L 596.51562 412.42188 z M 703.18555 412.42188 L 703.18555 485.79492 C 719.63193 483.05129 738.5631 474.51133 757.95312 461.46875 L 757.95312 412.42188 L 703.18555 412.42188 z M 203.68945 439.23438 C 213.40137 463.99122 226.41181 487.29964 241.44727 508.17578 L 374.09375 508.17578 L 374.09375 439.23438 L 203.68945 439.23438 z M 396.09766 439.23438 L 396.09766 508.17578 L 524.46094 508.17578 C 540.27784 487.29794 554.24991 463.99424 564.77344 439.23438 L 396.09766 439.23438 z M 165.79492 459.67383 C 165.01999 460.26805 164.24633 460.88049 163.4707 461.46484 C 164.23269 462.17797 165.01915 462.89058 165.79492 463.60352 L 165.79492 459.67383 z M 149.65039 475.9043 L 141.58594 481.69531 C 105.30032 507.75946 81.505291 513.38277 39.800781 507.87305 C 22.455891 505.58156 10.323016 501.48954 -2.046875 494.66016 L -2.046875 583.2207 C 5.2901632 577.35567 18.652341 572.65031 36.732422 569.91602 C 80.41979 563.30891 118.90911 542.89985 149.23633 513.16211 C 149.23933 512.17289 149.23521 511.16982 149.24414 510.18945 L 149.65039 475.9043 z M 600.01562 479.92578 C 608.57542 491.06042 618.07731 501.43666 628.37891 510.80078 C 662.5221 541.83633 692.15383 556.6071 732.94922 562.92969 C 743.10239 564.50322 751.35559 566.1431 757.95312 567.96094 L 757.95312 500.8418 C 730.98069 516.53757 708.79397 519.54385 674.50391 515.01367 C 646.40743 511.30172 631.98517 502.89005 608.08008 485.71875 L 600.01562 479.92578 z M 191.93555 492.24609 C 159.27119 536.43852 111.92712 567.41955 56.095703 575.86328 C 25.166577 580.54082 8.0127554 590.98278 11.285156 603.14258 C 12.376553 607.19741 27.346372 629.75515 44.548828 653.27148 C 81.865094 704.284 83.582421 704.72884 139.0625 677.73633 C 194.5591 650.73584 243.24445 618.55748 277.9375 586.87109 C 245.74484 562.68227 215.40414 529.93437 191.93555 492.24609 z M 579.2793 492.61523 C 554.45698 529.8858 523.02313 562.30766 491.08594 586.36719 C 502.34402 596.90304 515.1076 607.42403 529.3418 617.81641 C 575.64158 651.6199 662.01309 696.0293 681.45898 696.0293 C 692.9848 696.0293 698.74964 690.38539 726.97852 651.47266 C 741.57505 631.35147 753.97632 611.65676 757.95312 602.63477 L 757.95312 592.60156 C 753.89993 584.83237 740.32165 579.97343 712.21289 575.61719 C 671.41743 569.29457 641.78573 554.5238 607.64258 523.48828 C 597.34095 514.12416 587.8391 503.74987 579.2793 492.61523 z M 258.83203 530.17969 C 294.21456 571.16182 336.8958 599.06454 374.09375 603.80078 L 374.09375 530.17969 L 258.83203 530.17969 z M 396.09766 530.17969 L 396.09766 603.55469 C 428.37025 598.1709 470.20764 570.508 506.31445 530.17969 L 396.09766 530.17969 z M 292.92773 597.68359 L 293.33008 631.9707 C 292.36751 667.59672 291.2692 718.93485 318.76758 741.375 C 337.85988 754.57908 357.72037 755.07127 385.91602 755.0625 C 400.82757 755.39661 420.32626 755.23786 445.25391 741.66992 C 480.96526 719.05954 476.50988 673.48114 476.85938 635.0918 L 477.26367 600.80469 L 469.19922 606.59766 C 432.9136 632.66181 409.12052 638.28316 367.41602 632.77344 C 339.31952 629.06149 324.89734 620.64786 300.99219 603.47656 L 292.92773 597.68359 z M -2.046875 607.91992 L -2.046875 620.63477 C 1.7900987 622.68864 5.6928176 624.3011 9.71875 625.56641 C 5.0531753 618.81005 1.0221321 612.759 -2.046875 607.91992 z "
    style="opacity:1;vector-effect:none;fill-opacity:1;fill-rule:nonzero;stroke:none;stroke-width:0.72619867;stroke-linecap:round;stroke-linejoin:miter;stroke-miterlimit:4;stroke-dasharray:none;stroke-dashoffset:0;stroke-opacity:1"/>
</svg>
