<?xml version="1.0" encoding="UTF-8" standalone="no"?>
<svg
  id="svg8"
  version="1.1"
  viewBox="0 0 200 200"
  height="200mm"
  width="200mm"
  xmlns="http://www.w3.org/2000/svg"
>
  <defs
    id="defs8"/>
  <path
    style="stroke-width:2.58334"
    d="m 47.041839,190.62253 c 0,-11.04913 -0.819187,-10.57744 25.187523,-14.5025 10.959301,-1.65399 10.979215,-1.67722 10.979215,-12.77497 0,-9.80648 -0.788921,-11.31587 -6.688312,-12.79656 -10.457338,-2.62461 -31.25271,-25.03306 -34.531786,-37.2104 L 39.155314,102.81661 21.785966,102.05406 4.4166277,101.2915 V 61.249605 21.20782 L 21.208341,19.916158 38.00015,18.624496 38.801759,8.9369364 39.603367,-0.75062191 h 60.396626 60.396727 l 0.80161,9.68755831 0.80161,9.6875596 16.79171,1.291662 16.79172,1.291662 V 61.249605 101.2915 l -17.36936,0.76256 -17.36934,0.76255 -2.83316,10.52149 c -3.27908,12.17734 -24.07445,34.58579 -34.53178,37.2104 -5.8995,1.48069 -6.68831,2.99008 -6.68831,12.79656 0,11.09775 0.0196,11.12098 10.97921,12.77497 26.0067,3.92506 25.18752,3.45337 25.18752,14.5025 v 10.12809 H 99.999603 47.041058 Z M 38.742884,60.604315 37.999864,36.708355 H 30.24983 22.499805 l -0.762562,20.438392 c -0.418865,11.241189 -0.165004,21.994268 0.564354,23.895971 0.72936,1.9016 4.89441,3.457465 9.254826,3.457465 h 7.928022 z M 177.50067,59.958922 V 36.708851 h -7.75002 -7.75003 l -0.74498,24.067019 -0.74499,24.067018 8.49512,-0.817235 8.49511,-0.817224 z"
    id="path39-8"/>
</svg>
