<?xml version="1.0" encoding="UTF-8" standalone="no"?>
<svg
   width="100%"
   height="100%"
   viewBox="0 0 52.91667 52.916669"
   version="1.1"
   id="svg8"
   xmlns="http://www.w3.org/2000/svg"
   xmlns:svg="http://www.w3.org/2000/svg">
  <defs
     id="defs6" />
  <g
     id="g7047"
     transform="translate(57.84644,45.975986)">
    <rect
       fill="none"
       height="24"
       width="24"
       id="rect7045"
       x="0"
       y="0" />
  </g>
  <path
     id="rect9158"
     style="stroke-width:29.7572;stroke-linecap:round;stroke-linejoin:round;stop-color:#000000"
     d="M 12.157273 12.402416 L 8.6828666 15.808148 L 22.43021 29.832697 L 25.904616 26.426966 L 12.157273 12.402416 z M 0.82066662 7.1680043 L -4.0789529 7.1025249 L -4.1978467 18.875529 C -8.7407155 19.488187 -13.141328 21.504953 -16.673692 24.967497 C -25.364707 33.486727 -25.521152 47.425383 -16.98478 56.133886 C -13.522237 59.666249 -9.1613634 61.769089 -4.6316285 62.472304 L -4.7145836 70.783157 L 0.16723462 70.833266 L 0.82066662 7.1680043 z M 14.492697 25.278586 C 11.9215 22.655542 8.8573245 20.824391 5.5951505 19.770194 L 5.6748694 29.909914 L 6.9905915 28.576439 L 10.732658 32.393962 L 5.4171375 37.604417 L 5.1758813 61.774664 C 8.4584483 60.785793 11.557198 59.014775 14.180241 56.443579 C 17.65148 53.040952 19.750449 48.758593 20.483476 44.294484 L 25.66827 44.293753 L 25.669328 37.269303 L 20.499738 37.268804 C 19.809387 32.875067 17.816854 28.669773 14.492697 25.278586 z "
     transform="rotate(-45.571881)" />
  <g
     id="g13267"
     transform="translate(45.539275,80.817054)">
    <rect
       fill="none"
       height="24"
       width="24"
       id="rect13265"
       x="0"
       y="0" />
  </g>
</svg>
