<?xml version="1.0" encoding="UTF-8" standalone="no"?>
<svg
   width="100%"
   height="100%"
   viewBox="0 0 52.91667 52.916669"
   version="1.1"
   id="svg8"
   xmlns="http://www.w3.org/2000/svg"
   xmlns:svg="http://www.w3.org/2000/svg">
  <defs
     id="defs6" />
  <g
     id="g7047"
     transform="translate(57.84644,45.975986)">
    <rect
       fill="none"
       height="24"
       width="24"
       id="rect7045"
       x="0"
       y="0" />
  </g>
  <path
     id="rect7049"
     style="stroke-width:2.51238"
     d="M 15.322266 0.15625 L 15.322266 5.1816406 L 36.390625 5.1816406 L 36.390625 0.15625 L 15.322266 0.15625 z M 26.458984 7.6933594 C 13.972444 7.6933594 3.8476562 17.818147 3.8476562 30.304688 C 3.8476562 42.791228 13.94732 52.916016 26.458984 52.916016 C 38.970649 52.916016 49.070312 42.791228 49.070312 30.304688 C 49.070312 25.402018 47.492614 20.862968 44.832031 17.154297 L 48.582031 13.328125 L 46.029297 10.826172 C 45.976705 10.773096 45.922133 10.722544 45.869141 10.669922 L 43.566406 8.4121094 L 39.902344 12.150391 C 36.123663 9.34902 31.482114 7.6933594 26.458984 7.6933594 z M 23.945312 15.230469 L 28.970703 15.230469 L 28.970703 32.818359 L 23.945312 32.818359 L 23.945312 15.230469 z " />
</svg>
