<?xml version="1.0" encoding="UTF-8" standalone="no"?>
<svg
  width="100%"
  height="100%"
  viewBox="0 0 52.91667 52.916669"
  version="1.1"
  id="svg8"
  xmlns="http://www.w3.org/2000/svg"
>
  <defs
     id="defs6" />
  <path
     id="rect1084-3"
     style="stroke-width:3.77953;stroke-linejoin:round;stroke-dasharray:1.70761, 1.70761;-inkscape-stroke:none"
     d="M 19.087891 15.744141 C 8.4893572 15.744141 -0.04296875 24.276467 -0.04296875 34.875 L -0.04296875 69.613281 C -0.04296875 80.211815 8.4893572 88.744141 19.087891 88.744141 L 29.064453 88.744141 L 29.064453 89.986328 L 46.138672 89.986328 L 46.138672 88.744141 L 53.824219 88.744141 C 64.422752 88.744141 72.957031 80.211815 72.957031 69.613281 L 72.957031 61.248047 L 126.875 61.248047 L 126.875 69.613281 C 126.875 80.211815 135.40733 88.744141 146.00586 88.744141 L 180.74414 88.744141 C 191.34267 88.744141 199.875 80.211815 199.875 69.613281 L 199.875 34.875 C 199.875 24.276467 191.34267 15.744141 180.74414 15.744141 L 146.00586 15.744141 C 135.40733 15.744141 126.875 24.276467 126.875 34.875 L 126.875 43.242188 L 72.957031 43.242188 L 72.957031 34.875 C 72.957031 24.276467 64.422752 15.744141 53.824219 15.744141 L 19.087891 15.744141 z M 29.064453 91.691406 L 29.064453 93.404297 L 46.138672 93.404297 L 46.138672 91.691406 L 29.064453 91.691406 z M 29.064453 95.109375 L 29.064453 96.814453 L 46.138672 96.814453 L 46.138672 95.109375 L 29.064453 95.109375 z M 29.064453 98.527344 L 29.064453 100.23242 L 46.138672 100.23242 L 46.138672 98.527344 L 29.064453 98.527344 z M 29.064453 101.9375 L 29.064453 103.65039 L 46.138672 103.65039 L 46.138672 101.9375 L 29.064453 101.9375 z M 29.064453 105.35547 L 29.064453 107.06055 L 46.138672 107.06055 L 46.138672 105.35547 L 29.064453 105.35547 z M 29.064453 108.76562 L 29.064453 110.47852 L 46.138672 110.47852 L 46.138672 108.76562 L 29.064453 108.76562 z M 146.17578 111.25586 C 135.57725 111.25586 127.04297 119.78819 127.04297 130.38672 L 127.04297 165.125 C 127.04297 175.72353 135.57725 184.25586 146.17578 184.25586 L 180.91211 184.25586 C 191.51064 184.25586 200.04297 175.72353 200.04297 165.125 L 200.04297 130.38672 C 200.04297 119.78819 191.51064 111.25586 180.91211 111.25586 L 146.17578 111.25586 z M 29.064453 112.18359 L 29.064453 113.88867 L 46.138672 113.88867 L 46.138672 112.18359 L 29.064453 112.18359 z M 29.064453 115.60156 L 29.064453 117.30664 L 46.138672 117.30664 L 46.138672 115.60156 L 29.064453 115.60156 z M 29.064453 119.01172 L 29.064453 120.72461 L 46.138672 120.72461 L 46.138672 119.01172 L 29.064453 119.01172 z M 29.064453 122.42969 L 29.064453 124.13477 L 46.138672 124.13477 L 46.138672 122.42969 L 29.064453 122.42969 z M 29.064453 125.84766 L 29.064453 127.55273 L 46.138672 127.55273 L 46.138672 125.84766 L 29.064453 125.84766 z M 46.144531 129.1543 L 29.070312 129.36914 L 29.070312 129.41992 A 8.538901 8.538901 0 0 0 29.070312 129.53125 C 29.088832 130.27462 29.135914 131.01681 29.210938 131.75977 A 8.538901 8.538901 0 0 0 29.224609 131.86328 L 29.234375 131.92969 L 46.197266 130.00391 L 46.205078 130.04688 C 46.17522 129.75162 46.155253 129.45377 46.146484 129.1543 L 46.144531 129.1543 z M 46.359375 131.11719 L 29.566406 134.18945 C 29.717172 135.01531 29.899641 135.8214 30.119141 136.60938 L 46.574219 132.02539 C 46.488272 131.71687 46.413044 131.41112 46.359375 131.11719 z M 46.876953 132.99219 L 30.849609 138.89062 C 31.114138 139.61011 31.428743 140.37152 31.802734 141.16406 L 47.244141 133.87891 C 47.132304 133.64193 47.005192 133.34095 46.876953 132.99219 z M 47.732422 134.83008 L 32.873047 143.24609 C 33.267807 143.94262 33.700799 144.64231 34.179688 145.33594 L 48.234375 135.63477 C 48.066602 135.39174 47.898789 135.1237 47.732422 134.83008 z M 48.884766 136.5 L 35.574219 147.20312 C 36.107351 147.866 36.651059 148.47859 37.199219 149.04883 L 49.511719 137.21484 C 49.271152 136.9646 49.064977 136.72408 48.884766 136.5 z M 50.287109 137.95312 L 38.896484 150.67188 C 39.550354 151.25741 40.187417 151.76876 40.792969 152.22266 L 51.03125 138.55859 C 50.726091 138.32986 50.481298 138.12701 50.287109 137.95312 z M 51.888672 139.14258 L 42.757812 153.56641 C 43.482873 154.02537 44.202197 154.43001 44.904297 154.79102 L 52.707031 139.60742 C 52.396883 139.44793 52.125471 139.29248 51.888672 139.14258 z M 53.644531 140.03516 L 47.068359 155.79492 C 47.817692 156.10783 48.587868 156.39918 49.392578 156.65234 L 54.523438 140.35938 C 54.242316 140.27093 53.945582 140.16086 53.644531 140.03516 z M 55.615234 140.66211 L 51.585938 157.25781 L 51.615234 157.25781 A 8.538901 8.538901 0 0 0 51.732422 157.28711 C 52.458291 157.45209 53.248794 157.61143 54.103516 157.73047 L 56.457031 140.81836 C 56.226291 140.78623 55.935893 140.7326 55.615234 140.66211 z M 57.601562 140.93555 L 56.353516 157.9668 C 57.295408 158.03558 58.089796 158.03517 58.716797 158.0332 L 58.658203 140.95117 C 58.147033 140.95279 57.795343 140.94941 57.601562 140.93555 z M 60.392578 140.95117 L 60.392578 158.0332 L 62.105469 158.0332 L 62.105469 140.95117 L 60.392578 140.95117 z M 63.810547 140.95117 L 63.810547 158.0332 L 65.515625 158.0332 L 65.515625 140.95117 L 63.810547 140.95117 z M 67.228516 140.95117 L 67.228516 158.0332 L 68.933594 158.0332 L 68.933594 140.95117 L 67.228516 140.95117 z M 70.638672 140.95117 L 70.638672 158.0332 L 72.34375 158.0332 L 72.34375 140.95117 L 70.638672 140.95117 z M 74.056641 140.95117 L 74.056641 158.0332 L 75.761719 158.0332 L 75.761719 140.95117 L 74.056641 140.95117 z M 77.466797 140.95117 L 77.466797 158.0332 L 79.179688 158.0332 L 79.179688 140.95117 L 77.466797 140.95117 z M 80.884766 140.95117 L 80.884766 158.0332 L 82.589844 158.0332 L 82.589844 140.95117 L 80.884766 140.95117 z M 84.302734 140.95117 L 84.302734 158.0332 L 86.007812 158.0332 L 86.007812 140.95117 L 84.302734 140.95117 z M 87.712891 140.95117 L 87.712891 158.0332 L 89.425781 158.0332 L 89.425781 140.95117 L 87.712891 140.95117 z M 91.130859 140.95117 L 91.130859 158.0332 L 92.835938 158.0332 L 92.835938 140.95117 L 91.130859 140.95117 z M 94.548828 140.95117 L 94.548828 158.0332 L 96.253906 158.0332 L 96.253906 140.95117 L 94.548828 140.95117 z M 97.958984 140.95117 L 97.958984 158.0332 L 99.671875 158.0332 L 99.671875 140.95117 L 97.958984 140.95117 z M 101.37695 140.95117 L 101.37695 158.0332 L 103.08203 158.0332 L 103.08203 140.95117 L 101.37695 140.95117 z M 104.79492 140.95117 L 104.79492 158.0332 L 106.5 158.0332 L 106.5 140.95117 L 104.79492 140.95117 z M 108.20508 140.95117 L 108.20508 158.0332 L 109.91797 158.0332 L 109.91797 140.95117 L 108.20508 140.95117 z M 111.62305 140.95117 L 111.62305 158.0332 L 113.32812 158.0332 L 113.32812 140.95117 L 111.62305 140.95117 z M 115.04102 140.95117 L 115.04102 158.0332 L 116.74609 158.0332 L 116.74609 140.95117 L 115.04102 140.95117 z M 118.45117 140.95117 L 118.45117 158.0332 L 120.16406 158.0332 L 120.16406 140.95117 L 118.45117 140.95117 z M 121.86914 140.95117 L 121.86914 158.0332 L 123.57422 158.0332 L 123.57422 140.95117 L 121.86914 140.95117 z M 125.28711 140.95117 L 125.28711 158.0332 L 126.99219 158.0332 L 126.99219 140.95117 L 125.28711 140.95117 z "
     transform="scale(0.26458335)" />
</svg>
