<?xml version="1.0" encoding="UTF-8" standalone="no"?>
<svg
   width="200"
   height="200"
   viewBox="0 0 52.91667 52.916669"
   version="1.1"
   id="svg8"
   xmlns="http://www.w3.org/2000/svg"
   xmlns:svg="http://www.w3.org/2000/svg">
  <defs
     id="defs6" />
  <path
     id="path864"
     style="fill-opacity:1;stroke-width:1.03201;stroke-linecap:round;stroke-linejoin:round"
     d="M 100 16.0625 A 83.93834 83.93834 0 0 0 16.0625 100 A 83.93834 83.93834 0 0 0 100 183.9375 A 83.93834 83.93834 0 0 0 183.9375 100 A 83.93834 83.93834 0 0 0 100 16.0625 z M 96.976562 54.423828 C 106.28856 54.423828 113.15236 56.584297 117.56836 60.904297 C 122.08036 65.128297 124.33594 71.223407 124.33594 79.191406 C 124.33594 82.263406 123.71284 85.239141 122.46484 88.119141 C 121.31284 90.99914 119.72889 93.831235 117.71289 96.615234 C 115.79289 99.399234 113.58389 102.13622 111.08789 104.82422 C 108.59189 107.51222 106.04708 110.15214 103.45508 112.74414 C 102.01508 114.18414 100.33602 115.91173 98.416016 117.92773 C 96.496016 119.94373 94.671359 122.00714 92.943359 124.11914 C 91.215359 126.23114 89.775047 128.2965 88.623047 130.3125 C 87.471047 132.3285 86.896484 134.05609 86.896484 135.49609 L 127.93555 135.49609 L 127.93555 145.57617 L 73.935547 145.57617 C 73.839547 145.09617 73.792969 144.61672 73.792969 144.13672 L 73.792969 142.55273 C 73.792969 138.52073 74.464594 134.77631 75.808594 131.32031 C 77.152594 127.86431 78.880188 124.59934 80.992188 121.52734 C 83.104187 118.45534 85.456828 115.57667 88.048828 112.88867 C 90.736828 110.10467 93.37675 107.41622 95.96875 104.82422 C 98.08075 102.71222 100.09563 100.64881 102.01562 98.632812 C 104.03162 96.616813 105.75922 94.599984 107.19922 92.583984 C 108.73522 90.567984 109.93678 88.504578 110.80078 86.392578 C 111.76078 84.184578 112.24023 81.927047 112.24023 79.623047 C 112.24023 77.031047 111.80736 74.824 110.94336 73 C 110.17536 71.176 109.07281 69.687156 107.63281 68.535156 C 106.28881 67.287156 104.70486 66.376781 102.88086 65.800781 C 101.05686 65.224781 99.088562 64.935547 96.976562 64.935547 C 94.480563 64.935547 92.176453 65.271359 90.064453 65.943359 C 88.048453 66.615359 86.223797 67.432578 84.591797 68.392578 C 83.055797 69.352578 81.712547 70.311484 80.560547 71.271484 C 79.408547 72.135484 78.54475 72.855641 77.96875 73.431641 L 72.064453 65.080078 C 72.832453 64.216078 73.983531 63.160109 75.519531 61.912109 C 77.055531 60.664109 78.880188 59.511078 80.992188 58.455078 C 83.200187 57.303078 85.647938 56.344172 88.335938 55.576172 C 91.023937 54.808172 93.904563 54.423828 96.976562 54.423828 z "
     transform="scale(0.26458335)" />
</svg>
