<?xml version="1.0" encoding="UTF-8" standalone="no"?>
<svg
   width="100%"
   height="100%"
   viewBox="0 0 52.91667 52.916669"
   version="1.1"
   id="svg8"
   xmlns="http://www.w3.org/2000/svg"
   xmlns:svg="http://www.w3.org/2000/svg">
  <defs
     id="defs6" />
  <path
     id="path1136"
     style="fill-opacity:1;stroke:none;stroke-width:0.280337;stroke-linecap:round;stroke-linejoin:round"
     d="M 4.3820508,1.4583345 1.458335,4.5992311 7.4169554,10.532583 A 24.916976,24.930164 0 0 0 1.57834,26.528171 24.916976,24.930164 0 0 0 26.495317,51.458334 24.916976,24.930164 0 0 0 42.577957,45.544588 l 5.929231,5.903946 2.951147,-3.169813 -3.002087,-2.989464 -0.02742,0.02941 z M 26.495317,1.598006 A 24.916976,24.930164 0 0 0 13.97805,5.0108948 l 16.934434,16.8620432 9.211493,-8.808133 4.287854,4.232296 -9.230596,8.826757 12.876302,12.821367 A 24.916976,24.930164 0 0 0 51.412293,26.528171 24.916976,24.930164 0 0 0 26.495317,1.598006 Z m -14.523556,22.024014 8.52281,8.212692 4.241811,-4.056358 4.268755,4.25092 -4.169809,3.987254 0.0186,0.01814 -3.867101,3.661847 -4.287856,-4.232786 0.04213,-0.0397 -8.2583089,-8.311199 z" />
</svg>
