<?xml version="1.0" encoding="UTF-8" standalone="no"?>
<svg
   id="svg8"
   version="1.1"
   viewBox="0 0 200 200"
   width="100%"
   height="100%"
   xmlns="http://www.w3.org/2000/svg"
   xmlns:svg="http://www.w3.org/2000/svg">
  <defs
     id="defs8" />
  <path
     id="path39-8"
     style="stroke-width:9.7638"
     d="M 149.68164 -2.8378906 L 146.65234 33.777344 L 143.62305 70.392578 L 80.158203 75.273438 L 16.693359 80.15625 L 16.693359 231.49414 L 16.693359 382.83398 L 82.339844 385.7168 L 147.98828 388.59766 L 158.69727 428.36523 C 171.09062 474.38983 249.68714 559.08217 289.21094 569.00195 C 311.50785 574.59826 314.48828 580.30333 314.48828 617.36719 C 314.48828 659.31144 314.41318 659.39909 272.99219 665.65039 C 174.69911 680.48526 177.79687 678.7024 177.79688 720.46289 L 177.79297 758.74219 L 377.95117 758.74219 L 578.10938 758.74219 L 578.10938 720.46289 C 578.10934 678.7024 581.20515 680.48526 482.91211 665.65039 C 441.48996 659.39909 441.41602 659.31144 441.41602 617.36719 C 441.41602 580.30333 444.39799 574.59826 466.69531 569.00195 C 506.21908 559.08217 584.81561 474.38983 597.20898 428.36523 L 607.91602 388.59766 L 673.56445 385.7168 L 739.21289 382.83398 L 739.21289 231.49414 L 739.21289 80.15625 L 675.74805 75.273438 L 612.2832 70.392578 L 609.25391 33.777344 L 606.22461 -2.8378906 L 377.95312 -2.8378906 L 149.68164 -2.8378906 z M 426.91016 108.3457 L 461.72656 108.3457 L 496.54492 108.3457 L 479.04688 141.8418 C 469.42276 160.26487 461.54883 175.863 461.54883 176.50391 C 461.54883 177.14483 474.85285 177.66797 491.11328 177.66797 L 520.67773 177.66797 L 520.67773 208.25195 L 520.67773 238.83594 L 474.96875 238.83594 L 429.26172 238.83594 L 411.76172 272.33203 C 402.13761 290.7551 394.26367 306.35325 394.26367 306.99414 C 394.26367 307.63507 422.70702 308.16016 457.4707 308.16016 L 520.67773 308.16016 L 520.67773 338.7207 L 520.67773 369.28125 L 440.9668 369.81445 L 361.25781 370.34766 L 344.62891 402.41602 L 327.99805 434.48438 L 293.66992 434.5293 L 259.33984 434.57422 L 275.83008 402.9375 C 284.89887 385.53807 292.31836 370.85757 292.31836 370.31445 C 292.31836 369.7713 279.47316 369.32813 263.77344 369.32812 L 235.22852 369.32812 L 235.22852 338.74414 L 235.22852 308.16016 L 279.91016 308.16016 L 324.58984 308.16016 L 342.0957 274.44531 C 351.72396 255.90231 359.60156 240.30417 359.60156 239.7832 C 359.60156 239.26227 331.61905 238.83594 297.41602 238.83594 L 235.22852 238.83594 L 235.22852 208.25195 L 235.22852 177.66797 L 313.71484 177.66797 L 392.20312 177.66797 L 409.55664 143.00586 L 426.91016 108.3457 z M 85.039062 138.74023 L 114.33008 138.74023 L 143.62109 138.74023 L 146.42969 229.05664 L 149.23242 319.37109 L 119.26758 319.37109 C 102.78727 319.37109 87.045703 313.48988 84.289062 306.30273 C 81.532438 299.11521 80.573138 258.47466 82.15625 215.98828 L 85.039062 138.74023 z M 612.28516 138.74219 L 641.57812 138.74219 L 670.86914 138.74219 L 670.86914 226.61719 L 670.86914 314.48828 L 638.76172 317.57812 L 606.6543 320.66602 L 609.4707 229.70312 L 612.28516 138.74219 z "
     transform="scale(0.26458333)" />
</svg>
