<?xml version="1.0" encoding="UTF-8" standalone="no"?>
<svg
   id="svg8"
   version="1.1"
   viewBox="0 0 200 200"
   height="200mm"
   width="200mm"
   sodipodi:docname="undraw.svg"
   inkscape:version="1.1.2 (0a00cf5339, 2022-02-04)"
   xmlns:inkscape="http://www.inkscape.org/namespaces/inkscape"
   xmlns:sodipodi="http://sodipodi.sourceforge.net/DTD/sodipodi-0.dtd"
   xmlns="http://www.w3.org/2000/svg"
   xmlns:svg="http://www.w3.org/2000/svg">
  <sodipodi:namedview
     id="namedview5"
     pagecolor="#ffffff"
     bordercolor="#666666"
     borderopacity="1.0"
     inkscape:pageshadow="2"
     inkscape:pageopacity="0.0"
     inkscape:pagecheckerboard="0"
     inkscape:document-units="mm"
     showgrid="false"
     inkscape:zoom="0.55827083"
     inkscape:cx="294.65985"
     inkscape:cy="364.51842"
     inkscape:window-width="1846"
     inkscape:window-height="1016"
     inkscape:window-x="74"
     inkscape:window-y="27"
     inkscape:window-maximized="1"
     inkscape:current-layer="svg8" />
  <defs
     id="defs8" />
  <path
     id="path39-8"
     style="stroke-width:9.7638"
     d="M 149.68164 -2.8378906 L 146.65234 33.777344 L 143.62305 70.392578 L 80.158203 75.273438 L 16.693359 80.15625 L 16.693359 231.49414 L 16.693359 382.83398 L 82.339844 385.7168 L 147.98828 388.59766 L 158.69727 428.36523 C 171.09062 474.38983 249.68714 559.08217 289.21094 569.00195 C 311.50785 574.59826 314.48828 580.30333 314.48828 617.36719 C 314.48828 659.31144 314.41317 659.39909 272.99219 665.65039 C 174.69911 680.48526 177.79688 678.7024 177.79688 720.46289 L 177.79297 758.74219 L 377.95117 758.74219 L 578.10938 758.74219 L 578.10938 720.46289 C 578.10937 678.7024 581.20515 680.48526 482.91211 665.65039 C 441.48996 659.39909 441.41602 659.31144 441.41602 617.36719 C 441.41602 580.30333 444.39799 574.59826 466.69531 569.00195 C 506.21908 559.08217 584.81561 474.38983 597.20898 428.36523 L 607.91602 388.59766 L 673.56445 385.7168 L 739.21289 382.83398 L 739.21289 231.49414 L 739.21289 80.15625 L 675.74805 75.273438 L 612.2832 70.392578 L 609.25391 33.777344 L 606.22461 -2.8378906 L 377.95312 -2.8378906 L 149.68164 -2.8378906 z M 488.86719 80.445312 C 498.08238 80.695941 507.17407 85.186994 512.70703 93.472656 C 516.05293 98.483165 517.47046 103.44905 517.45508 110.10742 C 517.4324 119.92881 517.4919 119.82057 494.61914 151.42578 L 482.25781 168.50977 L 513.55859 168.83008 C 548.20484 169.18547 547.31028 169.08959 554.2832 173.20312 C 567.94344 181.26172 572.60934 198.36855 565.02734 212.59375 C 561.59837 219.02724 555.98384 223.74715 548.6875 226.33008 L 544.85742 227.68555 L 492.375 227.69727 C 443.14612 227.7086 439.83451 227.77332 438.96484 228.74023 C 438.45491 229.30724 426.75092 245.41204 412.95508 264.52734 L 387.87109 299.28125 L 466.66016 299.57617 C 554.78362 299.90575 547.7506 299.53962 554.91602 304.17578 C 568.22222 312.78332 572.51496 329.31753 565.07031 343.28516 C 562.902 347.35336 556.97216 353.13422 552.79688 355.25 C 546.08137 358.65301 551.80205 358.48438 444.12891 358.48438 L 345.12109 358.48438 L 320.4043 392.79688 C 306.80973 411.66919 294.39486 428.49379 292.81641 430.18555 C 285.66124 437.85417 274.949 441.20804 264.91016 438.92188 C 250.36732 435.60995 240.15614 420.8873 242.31836 406.34961 C 242.68403 403.89106 243.68421 400.31747 244.54102 398.4082 C 245.39783 396.49897 251.87964 386.93366 258.94531 377.15234 C 266.01098 367.371 271.79942 359.1688 271.80859 358.92578 C 271.81766 358.68276 258.71677 358.48437 242.69531 358.48438 C 223.76419 358.48438 212.47204 358.25777 210.44336 357.83594 C 195.68636 354.76794 185.25097 339.78669 187.50781 324.9082 C 189.14522 314.11338 196.15494 305.49814 206.73242 301.28125 L 210.26758 299.87109 L 262.68359 299.57812 L 315.10156 299.2832 L 340.58789 263.99805 C 354.60608 244.59085 366.07617 228.48605 366.07617 228.21094 C 366.07617 227.93579 331.39925 227.71094 289.01562 227.71094 C 220.19896 227.71094 211.61112 227.61073 208.75391 226.77148 C 203.46696 225.21855 198.97086 222.46853 195.29688 218.54102 C 179.02198 201.14309 188.67845 173.24808 212.32812 169.3457 C 214.17279 169.04134 257.29835 168.80483 312.4707 168.79688 L 409.37305 168.7832 L 437.64844 129.55273 C 454.51397 106.15234 467.06656 89.289935 468.75586 87.765625 C 474.45802 82.620379 481.69982 80.25038 488.86719 80.445312 z M 85.039062 138.74023 L 114.33008 138.74023 L 143.62109 138.74023 L 146.42969 229.05664 L 149.23242 319.37109 L 119.26758 319.37109 C 102.78727 319.37109 87.045699 313.48988 84.289062 306.30273 C 81.532434 299.1152 80.573138 258.47466 82.15625 215.98828 L 85.039062 138.74023 z M 612.28516 138.74219 L 641.57812 138.74219 L 670.86914 138.74219 L 670.86914 226.61719 L 670.86914 314.48828 L 638.76172 317.57812 L 606.6543 320.66602 L 609.4707 229.70312 L 612.28516 138.74219 z "
     transform="scale(0.26458333)" />
</svg>
