<?xml version="1.0" encoding="UTF-8" standalone="no"?>
<svg
  width="200"
  height="200"
  viewBox="0 0 52.91667 52.916669"
  version="1.1"
  id="svg8"
  xmlns="http://www.w3.org/2000/svg"
>
  <defs
     id="defs6" />
  <path
     id="path1136"
     style="fill-opacity:1;stroke:none;stroke-width:0.250399;stroke-linecap:round;stroke-linejoin:round"
     d="M 6.7343618,4.1339946 4.1221789,6.9387324 9.4458859,12.237059 A 22.261979,22.261979 0 0 0 4.2293969,26.520697 22.261979,22.261979 0 0 0 26.491376,48.782675 22.261979,22.261979 0 0 0 40.86035,43.501856 l 5.29745,5.272068 2.636691,-2.83056 -2.682203,-2.669512 -0.0245,0.02626 z M 26.491376,4.2587176 A 22.261979,22.261979 0 0 0 15.307872,7.3063373 l 15.130006,15.0573597 8.229973,-7.865431 3.830967,3.779329 -8.247041,7.882061 11.504284,11.449143 A 22.261979,22.261979 0 0 0 48.753355,26.520697 22.261979,22.261979 0 0 0 26.491376,4.2587176 Z M 13.51536,23.925581 l 7.614672,7.333718 3.789831,-3.622222 3.813903,3.79596 -3.725501,3.560513 0.01662,0.0162 -3.455047,3.269933 -3.830969,-3.779766 0.03764,-0.03545 -7.378355,-7.421681 z" />
</svg>
