<?xml version="1.0" encoding="UTF-8" standalone="no"?>
<svg
   id="svg8"
   version="1.1"
   viewBox="0 0 200 200"
   height="200mm"
   width="200mm"
   xml:space="preserve"
   xmlns="http://www.w3.org/2000/svg"
   xmlns:svg="http://www.w3.org/2000/svg"><defs
     id="defs8" /><path
     id="path77387"
     style="stroke-width:1.11618"
     d="M 180.13888 0.98236898 C 172.1799 0.98236898 165.44332 6.4849992 163.54557 13.873572 C 153.49859 8.227955 141.92321 5.3760452 129.2164 5.5355794 C 121.75533 5.6292631 115.44697 6.5813572 109.33958 8.6397827 C 105.67514 9.874834 102.08228 11.508447 98.356787 13.594002 C 83.074016 22.14946 74.974983 32.556363 61.237606 61.290316 L 50.723519 83.655359 L 58.278097 87.262374 L 71.819906 94.349797 L 67.973112 102.40822 L 64.125802 110.46613 L 50.582959 103.3787 L 43.028898 99.772205 L 24.652242 137.89804 C 8.2764806 172.19662 3.4454578 183.07075 3.7837484 184.86985 C 4.1682557 186.91412 5.9006628 187.96742 17.444413 193.17477 L 30.664278 199.13772 L 36.267037 189.1621 C 50.946282 163.02367 68.196222 145.33539 85.854708 138.31404 C 96.253583 134.17923 101.32766 133.90509 115.41724 136.7162 C 129.00142 139.4265 138.90339 138.98356 150.87761 135.13129 C 168.14941 129.57472 180.54473 119.25064 188.90837 103.45518 C 191.65617 98.265877 194.49409 91.796548 195.21237 89.078284 L 195.21134 89.077767 C 199.94272 71.195028 196.14183 49.430106 185.66929 34.312118 C 192.39596 31.999025 197.26393 25.595859 197.26393 18.109489 C 197.26393 8.6899971 189.55837 0.98236898 180.13888 0.98236898 z M 21.14703 3.9553141 C 20.855203 3.9580531 20.710007 3.9942301 20.461283 4.0659017 C 19.786536 4.2603138 19.316055 4.6184759 18.936312 5.2265544 C 18.682168 5.6335253 18.547316 6.0447797 18.515666 6.512264 C 18.498473 6.7657954 18.724595 7.7572254 24.552507 32.981449 L 30.607434 59.187602 L 30.184204 58.946273 C 27.765262 57.568033 24.789677 56.776913 21.895304 56.742273 C 18.803458 56.705268 15.861156 57.452991 13.133049 58.96901 C 11.165351 60.062465 9.3629479 61.602403 7.9302653 63.414734 C 7.0624142 64.512554 6.0470678 66.256247 5.4808024 67.621195 C 5.0180699 68.736571 4.5409821 70.478608 4.3651082 71.693815 C 4.1300885 73.317618 4.1345756 75.151127 4.3780273 76.809265 C 4.5042892 77.669203 4.9885518 79.559292 5.2766805 80.316545 C 5.8320319 81.776139 6.6514856 83.313941 7.4708618 84.435156 C 9.0324143 86.571928 10.957587 88.270954 13.280843 89.562492 C 16.552389 91.381198 20.494144 92.083396 24.300326 91.525163 C 24.945909 91.430517 26.937828 90.929672 27.525968 90.71436 C 28.733173 90.272439 29.761167 89.777539 30.84928 89.114457 C 31.618346 88.645788 32.202074 88.218979 33.028992 87.520239 C 35.717785 85.248223 37.734884 82.033119 38.600745 78.638611 C 39.160442 76.444351 39.293682 74.516714 39.052913 72.095341 C 39.002491 71.588495 38.634376 69.971673 34.263542 51.06355 C 31.65943 39.797985 29.533616 30.571962 29.540316 30.561442 C 29.54687 30.55094 30.221756 30.591519 31.039966 30.651359 C 32.809535 30.780769 34.202716 30.879689 36.195207 31.017228 C 37.845521 31.131144 39.173925 31.22542 41.335461 31.382064 C 42.145209 31.440742 43.143168 31.51073 43.553414 31.53761 C 43.963659 31.564488 44.616195 31.61124 45.003455 31.641479 C 45.390711 31.671718 46.33976 31.739081 47.11237 31.791341 C 48.600363 31.891998 49.959804 31.987866 51.900708 32.129305 C 52.553401 32.176876 53.808546 32.265886 54.690202 32.327226 C 55.571859 32.388572 57.054796 32.493143 57.985091 32.559253 C 62.999018 32.915516 62.916865 32.912449 63.382694 32.753556 C 64.058234 32.52308 64.496146 32.183497 64.854956 31.611507 C 65.137286 31.161443 65.266453 30.753474 65.277153 30.279289 C 65.284772 29.946584 65.252785 29.802463 63.621956 22.76967 C 61.839268 15.081938 61.834281 15.061729 61.372481 14.015682 C 61.034762 13.250674 60.418738 12.169469 59.948279 11.516093 C 59.676989 11.139329 59.029623 10.375833 58.660502 9.9973226 C 56.611214 7.8958594 53.915598 6.5261406 50.95968 6.0838664 C 50.664246 6.0396557 49.819994 5.9618333 49.083309 5.9107503 C 48.346632 5.8596667 46.764974 5.7475426 45.568795 5.6621867 C 44.372621 5.5768289 42.880453 5.4725935 42.252718 5.4301595 C 41.624982 5.3877306 40.676007 5.3196703 40.143803 5.2792643 C 39.611597 5.2388626 38.870173 5.1870031 38.496358 5.1635091 C 38.122558 5.1400054 37.351727 5.0855032 36.783285 5.0425863 C 36.214849 4.9996724 35.31539 4.9359968 34.78444 4.9009928 C 34.253483 4.8659834 33.482225 4.8112882 33.07085 4.7795532 C 32.302519 4.7202786 29.462174 4.5191606 27.360087 4.3754435 C 25.883469 4.2744956 24.35315 4.1658048 22.711275 4.0447144 C 21.877329 3.9832109 21.438857 3.9525752 21.14703 3.9553141 z M 180.13888 7.4899821 C 186.04119 7.4899821 190.7558 12.207171 190.7558 18.109489 C 190.7558 23.608726 186.66281 28.076116 181.33002 28.660783 C 177.75657 24.446715 173.81145 20.783688 169.53022 17.69401 C 169.74546 11.987416 174.37576 7.4899821 180.13888 7.4899821 z M 130.90054 19.181775 C 159.23084 19.181775 182.28345 42.234378 182.28345 70.564685 C 182.28345 98.894993 159.23084 121.94708 130.90054 121.94708 C 102.57024 121.94708 79.517627 98.894993 79.517627 70.564685 C 79.517627 42.234378 102.57024 19.181775 130.90054 19.181775 z M 130.90054 27.181803 C 106.89373 27.181803 87.517655 46.557882 87.517655 70.564685 C 87.517655 94.571488 106.89373 113.94705 130.90054 113.94705 C 154.90733 113.94705 174.28342 94.571488 174.28342 70.564685 C 174.28342 46.557882 154.90733 27.181803 130.90054 27.181803 z " /></svg>
