<?xml version="1.0" encoding="UTF-8" standalone="no"?>
<svg
  width="200"
  height="200"
  viewBox="0 0 52.91667 52.916669"
  version="1.1"
  id="svg8"
  xmlns="http://www.w3.org/2000/svg"
>
  <defs
    id="defs6"/>
  <path
    style="stroke-width:0.328675"
    d="m 19.71328,47.247025 c -0.0087,-5.409439 -0.178,-5.881123 -3.561216,-9.9183 -2.466495,-2.943258 -2.861204,-3.873658 -2.514333,-5.926759 0.387247,-2.29211 3.569272,-6.923446 4.74739,-6.909681 0.282529,0.0032 2.658293,0.805118 5.279477,1.781813 l 4.765787,1.775811 0.0994,1.486067 c 0.145842,2.180258 -0.656289,2.619701 -4.446989,2.436251 -1.585794,-0.07675 -3.142096,-0.255312 -3.458445,-0.396816 -0.437513,-0.195703 -0.575182,-0.1061 -0.575182,0.374358 0,0.884966 1.293589,1.426262 8.013568,3.353227 6.582739,1.88761 6.723426,1.881286 8.859612,-0.398324 l 1.293014,-1.379828 -0.221533,1.479038 c -0.280634,1.873621 -1.779466,5.114738 -3.047074,6.589068 -2.039951,2.37263 -2.079263,2.4949 -2.079263,6.466727 v 3.706629 h -6.5735 -6.573498 l -0.0072,-4.519281 z M 3.635589,40.957711 c -0.2950112,-0.551238 0.1460372,-0.893766 3.993697,-3.101594 3.930242,-2.255213 4.363824,-2.431281 4.746731,-1.927557 0.231771,0.304898 0.426104,0.644945 0.431856,0.75566 0.01348,0.259535 -8.0262008,4.893161 -8.4899908,4.893161 -0.1928597,0 -0.4998907,-0.27885 -0.6822932,-0.61967 z m 41.178705,-1.975202 c -3.933173,-2.274105 -4.291909,-2.558514 -3.981751,-3.156785 0.18748,-0.361628 0.380369,-0.704712 0.428649,-0.762414 0.09717,-0.116136 8.035785,4.440685 8.488928,4.872701 0.158708,0.1513 0.08596,0.553111 -0.164335,0.908524 -0.430199,0.610723 -0.628808,0.533215 -4.771491,-1.862026 z M 33.771353,35.30623 c -0.31635,-0.184255 -0.578008,-0.660446 -0.581466,-1.058198 -0.0089,-1.036573 3.284893,-8.702272 3.829034,-8.911076 0.680731,-0.261221 2.00502,0.342102 2.409391,1.097676 0.292824,0.547141 0.09793,1.176633 -1.0988,3.54899 -1.479135,2.932201 -3.29545,5.685732 -3.738533,5.667615 -0.134445,-0.0055 -0.503277,-0.160749 -0.819626,-0.345007 z m -4.628839,-1.507491 c -0.120509,-0.120509 -0.21392,-0.749102 -0.207568,-1.396868 0.01318,-1.343261 3.293274,-9.230518 4.03277,-9.697105 0.641114,-0.404511 2.449549,0.355486 2.696367,1.13315 0.224239,0.706506 -2.711312,7.438788 -3.954078,9.068142 -0.79513,1.042469 -1.999103,1.461072 -2.567491,0.892681 z M 0,27.93737 v -0.821687 h 5.0944623 5.0944627 v 0.821687 0.821688 H 5.0944623 0 Z m 43.056418,-0.474231 v -0.967241 h 4.930124 4.930125 v 0.967241 0.967243 H 47.986542 43.056418 Z M 26.84956,26.527447 c -1.850154,-0.614896 -1.850046,-0.606646 -0.05877,-4.537362 1.136689,-2.494294 1.155723,-2.514265 2.19761,-2.305888 1.20715,0.241428 2.653882,1.103717 2.502629,1.491626 -1.458896,3.74153 -2.470873,5.929276 -2.731976,5.906134 -0.180771,-0.01601 -1.040046,-0.265549 -1.909499,-0.55451 z m -5.047563,-1.973362 c -0.753271,-0.308448 -1.458548,-0.649823 -1.567277,-0.758615 -0.252576,-0.252714 2.027143,-6.227529 2.604372,-6.825678 0.367103,-0.380409 0.664485,-0.362049 1.923448,0.118757 0.819065,0.312803 1.56968,0.77844 1.668032,1.034745 0.249612,0.650477 -2.264052,6.840863 -2.811475,6.923804 -0.246132,0.03729 -1.063827,-0.184564 -1.8171,-0.493013 z M 7.3130189,17.821112 c -2.2144473,-1.298975 -4.0262685,-2.531158 -4.0262685,-2.73818 0,-0.207026 0.1928957,-0.536498 0.4286584,-0.732164 0.3230013,-0.268067 1.4369206,0.218188 4.5192797,1.972783 2.2498435,1.280695 4.1411045,2.372902 4.2028035,2.427126 0.255291,0.224374 -0.351156,1.461635 -0.709511,1.447521 -0.213779,-0.0084 -2.2005148,-1.078109 -4.4149621,-2.377086 z M 40.82143,19.490423 c -0.216925,-0.216926 -0.393144,-0.549708 -0.391599,-0.739518 0.0026,-0.311005 7.508811,-4.804023 8.432488,-5.047419 0.347466,-0.09157 0.980832,1.154668 0.715441,1.407732 -0.198808,0.189576 -8.109629,4.773615 -8.23798,4.773615 -0.06817,0 -0.301424,-0.177485 -0.51835,-0.39441 z M 16.337161,12.077918 c -3.827956,-6.4040234 -3.95059,-6.6700805 -3.30129,-7.1621029 0.332277,-0.2517888 0.678092,-0.4612385 0.768479,-0.4654422 0.185169,-0.00857 4.709448,7.8245921 4.867784,8.4279401 0.0561,0.213768 -0.192265,0.546153 -0.551921,0.738635 -0.57994,0.310374 -0.781662,0.136258 -1.783052,-1.53903 z m 18.106161,1.155677 c -0.478097,-0.371814 -0.299105,-0.823334 1.710329,-4.3144356 2.669331,-4.6375679 2.682481,-4.6529903 3.564775,-4.180799 0.650469,0.3481193 0.582335,0.5241777 -1.75909,4.5452847 -1.339676,2.3007249 -2.558679,4.2241069 -2.708904,4.2741799 -0.150221,0.05007 -0.513419,-0.09583 -0.80711,-0.32423 z M 25.636648,6.2448226 V 1.1503603 h 0.821687 0.821687 v 5.0944623 5.0944624 h -0.821687 -0.821687 z"
    id="path1304"/>
</svg>
