<?xml version="1.0" encoding="UTF-8" standalone="no"?>
<svg
   id="svg8"
   version="1.1"
   viewBox="0 0 200 200"
   height="200mm"
   width="200mm"
   xml:space="preserve"
   xmlns="http://www.w3.org/2000/svg"
   xmlns:svg="http://www.w3.org/2000/svg"><defs
     id="defs8" /><path
     id="path246"
     d="M 88.714482 3.6313029 C 87.972838 3.6246406 87.231125 3.6354393 86.490328 3.663859 C 84.797079 3.7288185 83.10864 3.8867111 81.433789 4.1387655 C 66.756508 6.3476014 52.962284 16.0655 46.40647 29.05249 C 45.663267 30.524772 45.187952 31.284101 44.993119 31.616158 C 44.793611 31.664837 44.433586 31.766131 43.535327 31.958773 C 32.423628 34.341803 22.758118 42.348529 17.796847 52.93372 C 15.745184 57.311055 15.072465 60.895562 15.072465 67.765373 C 15.072465 74.711496 15.754853 78.24127 17.898649 82.824402 C 18.956681 85.086345 20.186985 87.165827 21.585763 89.111357 C 17.582296 92.705813 14.059801 97.223427 11.753805 101.91006 C 9.2599263 106.97854 8.5470176 110.30245 8.5664022 117.53701 C 8.5857332 124.73103 9.3042834 128.07361 11.798763 133.21306 C 18.88005 147.80282 35.045169 156.47518 50.581925 153.5312 C 51.698241 153.31968 52.757673 153.0878 53.761576 152.86354 C 53.851526 153.0258 53.830405 152.95748 53.925907 153.14052 C 55.839424 156.8086 59.107482 160.73648 62.398258 163.89646 C 70.026454 171.22143 78.888691 175.55465 89.251917 176.99436 C 104.22941 179.07516 119.6491 173.44137 130.01945 162.19527 L 132.07049 159.9706 L 133.88072 160.90026 C 139.32964 163.69591 142.50701 164.43182 150.00376 164.43182 C 157.33916 164.43182 160.64778 163.71568 165.75577 161.20101 C 173.50214 157.3875 179.98808 150.78386 183.64822 142.97474 C 185.70118 138.59459 186.37312 135.01371 186.37312 128.11311 C 186.37312 120.89054 185.64948 117.54164 183.18727 112.57401 L 182.28706 110.75758 L 182.26174 110.78704 C 187.27968 105.07189 191.10014 96.073587 192.44717 88.087646 C 194.53449 75.712433 191.22932 62.562122 183.58208 52.174076 C 178.91461 45.833772 171.801 39.59135 164.80286 37.060787 C 164.01814 36.777027 164.85608 37.774014 163.9688 35.628833 C 160.84523 28.076776 153.77416 21.424733 146.19521 17.954976 C 138.72876 14.53672 129.05496 13.584904 121.25203 15.76958 C 120.82414 15.889382 120.83138 15.881121 120.61899 15.929777 C 120.31115 15.705947 119.99935 15.49487 119.35344 14.941207 C 110.96737 7.752796 99.83914 3.7312376 88.714482 3.6313029 z M 88.807499 15.050244 C 89.449807 15.065684 90.094627 15.098503 90.740198 15.148429 C 98.487046 15.747541 106.36394 18.796165 111.94717 23.582023 C 113.69233 25.077947 114.85315 26.452744 117.6445 27.230379 C 120.43585 28.008014 122.50412 27.237054 124.32006 26.728601 C 127.80688 25.752357 137.60605 26.539645 141.457 28.302665 C 145.33043 30.07598 152.3536 37.31787 153.45317 39.976371 C 154.84062 43.330989 157.72801 46.602703 160.93385 47.761943 C 163.01831 48.515695 171.52891 54.995673 174.41778 58.919918 C 180.2393 66.827908 182.75439 77.137758 181.22666 86.195256 C 180.34514 91.421523 176.09288 100.56412 173.70878 103.27948 L 168.70495 108.97836 L 172.99047 117.62693 C 175.26184 122.20953 174.99242 121.13255 174.99242 128.11311 C 174.99242 134.6825 175.07628 134.45051 173.34394 138.14661 C 170.89713 143.367 165.92321 148.43378 160.73024 150.99027 C 155.97486 153.33135 157.11146 153.05061 150.00376 153.05061 C 142.67918 153.05061 144.29092 153.44867 139.07627 150.77323 L 129.56832 145.89652 L 121.65252 154.48049 C 113.84607 162.94617 101.90675 167.26321 90.818229 165.7227 C 82.512008 164.56874 76.4544 161.61872 70.279431 155.6892 C 68.005695 153.50585 64.641845 149.07698 64.015731 147.87676 C 63.101397 146.12408 62.372991 144.79355 61.15234 143.43156 C 60.542013 142.75056 59.782051 141.99014 58.423824 141.39085 C 57.065597 140.79157 54.914719 140.65664 53.345581 141.27716 C 53.994119 141.02072 52.892285 141.40109 51.91001 141.62908 C 50.927735 141.85706 49.675808 142.11998 48.464742 142.34945 C 38.603582 144.218 26.844808 138.15024 22.036898 128.24437 C 19.724911 123.48091 19.964204 124.44812 19.945553 117.50756 C 19.926793 110.50779 19.648159 111.64441 21.965068 106.93559 C 23.812991 103.17994 28.107584 98.096769 31.427539 95.708887 C 31.846628 95.407457 32.310549 95.16051 33.134928 94.288818 C 33.959308 93.417127 35.193693 90.936123 34.855237 88.855558 C 34.516779 86.774993 33.682709 85.971259 33.170068 85.345695 C 32.657428 84.720131 32.205591 84.259504 31.658016 83.685331 C 31.607326 83.632181 29.219709 80.16687 28.207064 78.001957 C 26.340809 74.01217 26.453166 74.39304 26.453166 67.765373 C 26.453166 61.230501 26.371689 61.45488 28.101644 57.763916 C 31.522976 50.464284 38.782886 44.616753 45.921745 43.085742 C 48.032266 42.633118 50.345464 42.197856 52.472766 40.338106 C 54.600068 38.478355 55.325983 36.633334 56.564506 34.179826 C 61.115685 25.163995 72.545161 16.984797 83.126709 15.392342 C 84.974526 15.114257 86.880576 15.003923 88.807499 15.050244 z M 102.26508 33.433618 L 102.26508 53.560038 L 135.74882 53.560038 C 135.42869 53.041754 135.0928 52.512189 134.72201 51.951868 C 126.47753 39.493619 114.30271 33.716183 102.26508 33.433618 z M 98.437919 33.527669 C 85.554508 34.46691 73.332181 41.635384 66.8507 53.560038 L 98.437919 53.560038 L 98.437919 33.527669 z M 65.040991 57.386161 C 63.685463 60.714771 62.748213 64.350737 62.316093 68.268184 L 98.437919 68.268184 L 98.437919 57.386161 L 65.040991 57.386161 z M 102.26508 57.386161 L 102.26508 68.268184 L 139.72739 68.268184 C 139.59344 63.44754 139.10074 60.411764 137.79314 57.386161 L 102.26508 57.386161 z M 62.059778 72.094307 C 62.051878 72.414588 62.045108 72.735485 62.043758 73.059106 C 62.029258 76.505148 62.601013 80.755361 63.461243 84.252738 L 83.387675 84.252738 C 81.015216 83.211897 79.679278 79.727597 81.163521 77.326029 C 81.181991 77.296169 81.201645 77.269387 81.220365 77.240247 C 82.072046 75.9119 83.168695 75.308199 84.213981 75.311682 C 85.838059 75.317082 87.332922 76.783239 87.583285 79.246326 C 87.607384 79.483353 87.622042 79.728121 87.622042 79.983232 C 87.622042 82.154269 87.038617 83.645643 85.997335 84.252738 L 98.437919 84.252738 L 98.437919 72.094307 L 62.059778 72.094307 z M 102.26508 72.094307 L 102.26508 84.252738 L 116.68487 84.252738 C 115.6616 83.640145 115.07101 82.130715 115.07101 79.983232 C 115.07101 77.136704 116.10817 75.408317 117.81606 75.408317 C 119.52399 75.408317 120.5606 77.136704 120.5606 79.983232 C 120.5606 82.130715 119.96995 83.640145 118.94674 84.252738 L 138.65562 84.252738 C 139.4051 81.026845 139.74678 77.031968 139.76615 72.094307 L 102.26508 72.094307 z M 64.650317 88.078861 C 64.767393 88.369477 64.885995 88.648029 65.006885 88.90155 C 67.560004 94.255482 69.205148 95.378802 75.98606 96.395667 C 81.062254 97.15688 80.925632 97.86316 80.598181 99.651282 L 98.437919 99.651282 L 98.437919 88.078861 L 64.650317 88.078861 z M 102.26508 88.078861 L 102.26508 99.651282 L 119.79579 99.651282 C 120.77545 98.059819 122.79322 97.163328 126.96538 96.193095 C 129.40471 95.625815 131.43181 94.790169 133.10144 93.595321 C 133.95139 92.987084 134.70724 92.283429 135.37727 91.475037 C 136.18195 90.504186 136.8603 89.37817 137.42675 88.078861 L 102.26508 88.078861 z M 67.220703 96.893311 C 61.67751 104.39284 53.643065 109.65073 44.168363 111.08366 C 38.919639 111.87744 36.008328 113.6493 36.56366 115.71283 C 36.748873 116.40094 39.288986 120.22904 42.208276 124.21981 C 48.540919 132.87671 48.832534 132.95216 58.247607 128.37149 C 67.665475 123.78947 75.927169 118.32901 81.814644 112.95176 C 76.35149 108.84689 71.203374 103.28909 67.220703 96.893311 z M 132.95364 96.955839 C 128.74127 103.28071 123.4064 108.78253 117.9866 112.86546 C 119.89711 114.65342 122.06313 116.43952 124.47871 118.20312 C 132.33586 123.93964 146.99314 131.4757 150.29315 131.4757 C 152.2491 131.4757 153.22779 130.51797 158.01826 123.9144 C 161.03517 119.75565 163.50372 115.69853 163.50372 114.89841 C 163.50372 112.98232 161.36102 111.94821 155.51247 111.0418 C 148.58942 109.96885 143.56096 107.46208 137.76678 102.19531 C 136.0186 100.60619 134.40627 98.845402 132.95364 96.955839 z M 80.484493 103.4774 C 80.661543 105.54075 81.060861 108.02121 81.515955 109.7194 L 81.514921 109.7194 C 82.48327 113.33274 83.769064 114.56457 98.437919 113.97806 L 98.437919 103.4774 L 80.484493 103.4774 z M 102.26508 103.4774 L 102.26508 113.8468 C 109.51491 113.95987 118.1855 115.63077 118.86406 107.88902 C 118.87106 106.13284 118.86007 104.69535 118.91677 103.4774 L 102.26508 103.4774 z M 84.358675 114.78628 L 84.427405 120.60452 C 84.264054 126.65034 84.077413 135.3632 88.743937 139.17135 C 91.983942 141.4121 95.354273 141.4957 100.13911 141.49421 C 102.66963 141.55081 105.97851 141.52333 110.20878 139.22096 C 116.26905 135.38392 115.51294 127.64895 115.57227 121.13421 L 115.641 115.31596 L 114.27261 116.29884 C 108.11488 120.72198 104.07657 121.67596 96.999247 120.74095 C 92.231222 120.11103 89.784337 118.68368 85.727584 115.76968 L 84.358675 114.78628 z M 36.671663 154.68151 C 33.667745 154.68151 31.666717 154.64471 29.351697 155.25202 C 27.036677 155.85932 25.188928 157.16705 23.61923 158.41617 C 20.888684 160.58901 18.701953 163.26785 17.09198 166.35729 C 10.664688 178.6908 17.998884 194.03144 31.584119 197.3771 C 37.204117 198.76117 43.090171 197.55299 48.203259 194.61138 C 51.561042 192.6796 53.915613 189.77683 55.699443 186.55089 C 57.483271 183.32494 58.681689 179.7383 58.681689 175.88849 C 58.681689 169.00804 55.141578 162.72512 49.726681 158.41617 C 48.15698 157.16705 46.309235 155.85932 43.994214 155.25202 C 41.679192 154.64473 39.675585 154.68151 36.671663 154.68151 z M 36.671663 166.06273 C 39.551398 166.06273 40.85913 166.19499 41.105501 166.25962 C 41.351873 166.32422 41.317137 166.267 42.640808 167.32054 C 45.062338 169.24749 47.300989 174.01583 47.300989 175.88849 C 47.300989 177.10876 46.741697 179.2339 45.740361 181.04476 C 44.739026 182.85562 43.280909 184.31269 42.52712 184.74635 C 39.924243 186.24381 36.017085 186.74984 34.304883 186.32816 C 27.548673 184.6643 24.185338 177.37041 27.183354 171.61743 C 27.650972 170.7201 29.986675 167.89223 30.705103 167.32054 C 32.028777 166.26721 31.994046 166.32424 32.240409 166.25962 C 32.486774 166.19502 33.791933 166.06273 36.671663 166.06273 z " /></svg>
