<?xml version="1.0" encoding="UTF-8" standalone="no"?>
<svg
   id="svg8"
   version="1.1"
   viewBox="0 0 200 200"
   width="100%"
   height="100%"
   xml:space="preserve"
   xmlns="http://www.w3.org/2000/svg"
   xmlns:svg="http://www.w3.org/2000/svg"><defs
     id="defs8" /><path
     id="path246"
     d="m 88.714482,3.6313029 c -0.741644,-0.00666 -1.483357,0.00414 -2.224154,0.032556 -1.693249,0.06496 -3.381688,0.2228521 -5.056539,0.4749065 C 66.756508,6.3476014 52.962284,16.0655 46.40647,29.05249 c -0.743203,1.472282 -1.218518,2.231611 -1.413351,2.563668 -0.199508,0.04868 -0.559533,0.149973 -1.457792,0.342615 -11.111699,2.38303 -20.777209,10.389756 -25.73848,20.974947 -2.051663,4.377335 -2.724382,7.961842 -2.724382,14.831653 0,6.946123 0.682388,10.475897 2.826184,15.059029 1.058032,2.261943 2.288336,4.341425 3.687114,6.286955 -4.003467,3.594456 -7.525962,8.11207 -9.831958,12.798703 -2.4938787,5.06848 -3.2067874,8.39239 -3.1874028,15.62695 0.019331,7.19402 0.7378812,10.5366 3.2323608,15.67605 7.081287,14.58976 23.246406,23.26212 38.783162,20.31814 1.116316,-0.21152 2.175748,-0.4434 3.179651,-0.66766 0.08995,0.16226 0.06883,0.0939 0.164331,0.27698 1.913517,3.66808 5.181575,7.59596 8.472351,10.75594 7.628196,7.32497 16.490433,11.65819 26.853659,13.0979 14.977493,2.0808 30.397183,-3.55299 40.767533,-14.79909 l 2.05104,-2.22467 1.81023,0.92966 c 5.44892,2.79565 8.62629,3.53156 16.12304,3.53156 7.3354,0 10.64402,-0.71614 15.75201,-3.23081 7.74637,-3.81351 14.23231,-10.41715 17.89245,-18.22627 2.05296,-4.38015 2.7249,-7.96103 2.7249,-14.86163 0,-7.22257 -0.72364,-10.57147 -3.18585,-15.5391 l -0.90021,-1.81643 -0.0253,0.0295 c 5.01794,-5.71515 8.8384,-14.713453 10.18543,-22.699394 2.08732,-12.375213 -1.21785,-25.525524 -8.86509,-35.91357 -4.66747,-6.340304 -11.78108,-12.582726 -18.77922,-15.113289 -0.78472,-0.28376 0.0532,0.713227 -0.83406,-1.431954 -3.12357,-7.552057 -10.19464,-14.2041 -17.77359,-17.673857 -7.46645,-3.418256 -17.14025,-4.370072 -24.94318,-2.185396 -0.42789,0.119802 -0.42065,0.111541 -0.63304,0.160197 -0.30784,-0.22383 -0.61964,-0.434907 -1.26555,-0.98857 C 110.96737,7.752796 99.83914,3.7312376 88.714482,3.6313029 Z m 0.09302,11.4189411 c 0.642308,0.01544 1.287128,0.04826 1.932699,0.09819 7.746848,0.599112 15.623742,3.647736 21.206972,8.433594 1.74516,1.495924 2.90598,2.870721 5.69733,3.648356 2.79135,0.777635 4.85962,0.0067 6.67556,-0.501778 3.48682,-0.976244 13.28599,-0.188956 17.13694,1.574064 3.87343,1.773315 10.8966,9.015205 11.99617,11.673706 1.38745,3.354618 4.27484,6.626332 7.48068,7.785572 2.08446,0.753752 10.59506,7.23373 13.48393,11.157975 5.82152,7.90799 8.33661,18.21784 6.80888,27.275338 -0.88152,5.226267 -5.13378,14.368864 -7.51788,17.084224 l -5.00383,5.69888 4.28552,8.64857 c 2.27137,4.5826 2.00195,3.50562 2.00195,10.48618 0,6.56939 0.0839,6.3374 -1.64848,10.0335 -2.44681,5.22039 -7.42073,10.28717 -12.6137,12.84366 -4.75538,2.34108 -3.61878,2.06034 -10.72648,2.06034 -7.32458,0 -5.71284,0.39806 -10.92749,-2.27738 l -9.50795,-4.87671 -7.9158,8.58397 c -7.80645,8.46568 -19.74577,12.78272 -30.834291,11.24221 -8.306221,-1.15396 -14.363829,-4.10398 -20.538798,-10.0335 -2.273736,-2.18335 -5.637586,-6.61222 -6.2637,-7.81244 -0.914334,-1.75268 -1.64274,-3.08321 -2.863391,-4.4452 -0.610327,-0.681 -1.370289,-1.44142 -2.728516,-2.04071 -1.358227,-0.59928 -3.509105,-0.73421 -5.078243,-0.11369 0.648538,-0.25644 -0.453296,0.12393 -1.435571,0.35192 -0.982275,0.22798 -2.234202,0.4909 -3.445268,0.72037 -9.86116,1.86855 -21.619934,-4.19921 -26.427844,-14.10508 -2.311987,-4.76346 -2.072694,-3.79625 -2.091345,-10.73681 -0.01876,-6.99977 -0.297394,-5.86315 2.019515,-10.57197 1.847923,-3.75565 6.142516,-8.838821 9.462471,-11.226703 0.419089,-0.30143 0.88301,-0.548377 1.707389,-1.420069 0.82438,-0.871691 2.058765,-3.352695 1.720309,-5.43326 -0.338458,-2.080565 -1.172528,-2.884299 -1.685169,-3.509863 -0.51264,-0.625564 -0.964477,-1.086191 -1.512052,-1.660364 -0.05069,-0.05315 -2.438307,-3.518461 -3.450952,-5.683374 -1.866255,-3.989787 -1.753898,-3.608917 -1.753898,-10.236584 0,-6.534872 -0.08148,-6.310493 1.648478,-10.001457 3.421332,-7.299632 10.681242,-13.147163 17.820101,-14.678174 2.110521,-0.452624 4.423719,-0.887886 6.551021,-2.747636 2.127302,-1.859751 2.853217,-3.704772 4.09174,-6.15828 4.551179,-9.015831 15.980655,-17.195029 26.562203,-18.787484 1.847817,-0.278085 3.753867,-0.388419 5.68079,-0.342098 z m 13.457581,18.383374 v 20.12642 h 33.48374 c -0.32013,-0.518284 -0.65602,-1.047849 -1.02681,-1.60817 -8.24448,-12.458249 -20.4193,-18.235685 -32.45693,-18.51825 z m -3.827161,0.09405 C 85.554508,34.46691 73.332181,41.635384 66.8507,53.560038 H 98.437919 Z M 65.040991,57.386161 c -1.355528,3.32861 -2.292778,6.964576 -2.724898,10.882023 H 98.437919 V 57.386161 Z m 37.224089,0 v 10.882023 h 37.46231 c -0.13395,-4.820644 -0.62665,-7.85642 -1.93425,-10.882023 z M 62.059778,72.094307 c -0.0079,0.320281 -0.01467,0.641178 -0.01602,0.964799 -0.0145,3.446042 0.557255,7.696255 1.417485,11.193632 h 19.926432 c -2.372459,-1.040841 -3.708397,-4.525141 -2.224154,-6.926709 0.01847,-0.02986 0.03812,-0.05664 0.05684,-0.08578 0.851681,-1.328347 1.94833,-1.932048 2.993616,-1.928565 1.624078,0.0054 3.118941,1.471557 3.369304,3.934644 0.0241,0.237027 0.03876,0.481795 0.03876,0.736906 0,2.171037 -0.583425,3.662411 -1.624707,4.269506 H 98.437919 V 72.094307 Z m 40.205302,0 v 12.158431 h 14.41979 c -1.02327,-0.612593 -1.61386,-2.122023 -1.61386,-4.269506 0,-2.846528 1.03716,-4.574915 2.74505,-4.574915 1.70793,0 2.74454,1.728387 2.74454,4.574915 0,2.147483 -0.59065,3.656913 -1.61386,4.269506 h 19.70888 c 0.74948,-3.225893 1.09116,-7.22077 1.11053,-12.158431 z M 64.650317,88.078861 c 0.117076,0.290616 0.235678,0.569168 0.356568,0.822689 2.553119,5.353932 4.198263,6.477252 10.979175,7.494117 5.076194,0.761213 4.939572,1.467493 4.612121,3.255615 H 98.437919 V 88.078861 Z m 37.614763,0 v 11.572421 h 17.53071 c 0.97966,-1.591463 2.99743,-2.487954 7.16959,-3.458187 2.43933,-0.56728 4.46643,-1.402926 6.13606,-2.597774 0.84995,-0.608237 1.6058,-1.311892 2.27583,-2.120284 0.80468,-0.970851 1.48303,-2.096867 2.04948,-3.396176 z M 63.414953,99.546722 c -5.543193,7.499528 -13.577638,12.757418 -23.05234,14.190348 -5.248724,0.79378 -8.160035,2.56564 -7.604703,4.62917 0.185213,0.68811 2.725326,4.51621 5.644616,8.50698 6.332643,8.6569 6.624258,8.73235 16.039331,4.15168 9.417868,-4.58202 17.679562,-10.04248 23.567037,-15.41973 C 72.54574,111.5003 67.397624,105.9425 63.414953,99.546722 Z m 72.669417,1.202968 c -4.21237,6.32487 -9.54724,11.82669 -14.96704,15.90962 1.91051,1.78796 4.07653,3.57406 6.49211,5.33766 7.85715,5.73652 22.51443,13.27258 25.81444,13.27258 1.95595,0 2.93464,-0.95773 7.72511,-7.5613 3.01691,-4.15875 5.48546,-8.21587 5.48546,-9.01599 0,-1.91609 -2.1427,-2.9502 -7.99125,-3.85661 -6.92305,-1.07295 -15.08224,-7.37357 -20.87642,-12.64034 -1.74818,-1.58912 -0.22978,0.44394 -1.68241,-1.44562 z m -55.599877,2.72771 c 0.17705,2.06335 0.576368,4.54381 1.031462,6.242 h -0.001 c 0.968349,3.61334 2.254143,4.84517 16.922998,4.25866 V 103.4774 Z m 21.780587,0 v 10.3694 c 7.24983,0.11307 15.92042,1.78397 16.59898,-5.95778 0.007,-1.75618 -0.004,-3.19367 0.0527,-4.41162 z m -17.989755,15.33243 0.06873,5.81824 c -0.163351,6.04582 -0.349992,14.75868 4.316532,18.56683 3.240005,2.24075 6.610336,2.32435 11.395173,2.32286 2.53052,0.0566 5.8394,0.0291 10.06967,-2.27325 6.06027,-3.83704 5.30416,-11.57201 5.36349,-18.08675 l 0.0687,-5.81825 -1.36839,0.98288 c -6.15773,4.42314 -10.19604,5.37712 -17.273363,4.44211 -4.768025,-0.62992 -7.21491,-2.05727 -11.271663,-4.97127 z m -47.603662,35.87168 c -3.003918,0 -5.004946,-0.0368 -7.319966,0.57051 -2.31502,0.6073 -4.162769,1.91503 -5.732467,3.16415 -2.730546,2.17284 -4.917277,4.85168 -6.52725,7.94112 -6.427292,12.33351 0.906904,27.67415 14.492139,31.01981 5.619998,1.38407 11.506052,0.17589 16.61914,-2.76572 3.357783,-1.93178 5.712354,-4.83455 7.496184,-8.06049 1.783828,-3.22595 2.982246,-6.81259 2.982246,-10.6624 0,-6.88045 -3.540111,-13.16337 -8.955008,-17.47232 -1.569701,-1.24912 -3.417446,-2.55685 -5.732467,-3.16415 -2.315022,-0.60729 -4.318629,-0.57051 -7.322551,-0.57051 z m 0,11.38122 c 2.879735,0 4.187467,0.13226 4.433838,0.19689 0.246372,0.0646 0.211636,0.007 1.535307,1.06092 2.42153,1.92695 4.660181,6.69529 4.660181,8.56795 0,1.22027 -0.559292,3.34541 -1.560628,5.15627 -1.001335,1.81086 -2.459452,3.26793 -3.213241,3.70159 -2.602877,1.49746 -6.510035,2.00349 -8.222237,1.58181 -6.75621,-1.66386 -10.119545,-8.95775 -7.121529,-14.71073 0.467618,-0.89733 2.803321,-3.7252 3.521749,-4.29689 1.323674,-1.05333 1.288943,-0.9963 1.535306,-1.06092 0.246365,-0.0646 1.551524,-0.19689 4.431254,-0.19689 z" /></svg>
