<?xml version="1.0" encoding="UTF-8" standalone="no"?>
<svg
   id="svg8"
   version="1.1"
   viewBox="0 0 200 200"
   width="100%"
   height="100%"
   xmlns="http://www.w3.org/2000/svg"
   xmlns:svg="http://www.w3.org/2000/svg">
  <defs
     id="defs8" />
  <path
     id="path246"
     style="stroke-width:0.87975"
     d="M 87.094425,1.4319539 C 85.090092,1.4474862 83.097551,1.599149 81.138717,1.8939412 67.521241,3.9432826 53.922514,13.592685 47.934542,25.454777 c -2.634516,5.218967 -2.865398,5.420809 -7.284827,6.368604 -9.83919,2.110123 -18.964114,9.57904 -23.483321,19.221049 -2.038737,4.349758 -2.357996,6.16112 -2.357996,13.387813 0,7.317867 0.307213,9.014567 2.4691,13.636377 1.357971,2.903181 3.53519,6.396266 4.838465,7.762833 2.337267,2.450795 2.345812,2.501887 0.610298,3.750159 -4.65531,3.348332 -9.562711,9.166578 -12.125874,14.375868 -2.593578,5.2711 -2.828143,6.45023 -2.807581,14.1242 0.020477,7.6202 0.2783446,8.90062 2.869592,14.23944 6.409672,13.20602 21.464573,21.15308 35.157027,18.55856 2.782205,-0.52718 5.652624,-1.19354 6.378422,-1.48053 0.938381,-0.3711 2.038877,0.85712 3.80907,4.25039 1.36916,2.62457 4.943778,7.12852 7.943701,10.0092 7.441525,7.14573 15.485364,11.07175 25.550379,12.47004 14.052653,1.95231 28.801313,-3.41146 38.600743,-14.03842 l 5.37383,-5.82755 6.10196,3.13108 c 5.74892,2.94958 6.5937,3.13056 14.58412,3.13056 7.78652,0 8.95654,-0.23369 14.27406,-2.85151 6.97582,-3.43419 13.15367,-9.72647 16.44603,-16.75091 2.04074,-4.35405 2.35799,-6.15848 2.35799,-13.42037 0,-7.65717 -0.24426,-8.883 -2.79621,-14.03171 l -2.79621,-5.64151 2.68407,-3.05718 c 3.99057,-4.54502 8.34267,-14.325374 9.54412,-21.448303 1.94894,-11.55474 -1.18785,-24.201915 -8.44909,-34.065621 -4.07374,-5.53379 -12.4977,-12.39336 -17.39429,-14.163993 -2.15139,-0.777944 -3.25712,-2.003147 -4.48345,-4.968172 -2.27677,-5.504696 -9.87446,-12.994628 -16.04863,-15.821257 -6.10141,-2.79332 -16.59999,-3.731889 -22.68647,-2.027783 -3.87712,1.085522 -3.95118,1.065351 -7.6941,-2.143021 C 109.08295,5.2443304 97.917825,1.3480798 87.094425,1.4319539 Z M 102.48315,33.858915 c 13.19728,0.309789 26.54516,6.643706 35.58387,20.30212 0.40653,0.614302 0.77456,1.194989 1.12552,1.7632 h -36.70939 z m -4.195609,0.102836 V 55.924235 H 63.657096 C 70.762983,42.850818 84.163004,34.991477 98.287541,33.961751 Z M 61.673238,60.118811 H 98.287541 V 72.049349 H 58.685824 c 0.473751,-4.294836 1.501293,-8.281264 2.987414,-11.930538 z m 40.809912,0 h 38.95059 c 1.43356,3.317078 1.97396,6.645494 2.12081,11.930538 h -41.0714 z M 58.404704,76.243925 H 98.287541 V 89.573861 H 84.648063 c 1.141597,-0.665589 1.781804,-2.30067 1.781804,-4.680852 0,-0.27969 -0.01601,-0.547837 -0.04238,-0.807702 -0.274484,-2.700363 -1.913807,-4.308349 -3.694348,-4.313949 -1.14598,-0.0038 -2.348246,0.658285 -3.28197,2.1146 -0.02045,0.03197 -0.04178,0.06131 -0.06201,0.09405 -1.62723,2.632927 -0.162397,6.452746 2.438611,7.593852 H 59.941044 c -0.9431,-3.834306 -1.56978,-8.494097 -1.55391,-12.272119 0.0015,-0.354806 0.0086,-0.706678 0.01757,-1.057817 z m 44.078446,0 h 41.11377 c -0.0212,5.413334 -0.39531,9.79327 -1.21698,13.329936 h -21.60798 c 1.12178,-0.671613 1.7694,-2.326488 1.7694,-4.680852 0,-3.120749 -1.13666,-5.015197 -3.00912,-5.015197 -1.87244,0 -3.00964,1.894448 -3.00964,5.015197 0,2.354364 0.64806,4.009239 1.76992,4.680852 H 102.48315 Z M 61.24484,93.768437 H 98.287541 V 106.45603 H 78.729045 c 0.358996,-1.96036 0.509193,-2.73474 -5.056023,-3.56929 -7.434159,-1.11482 -9.238437,-2.34633 -12.037508,-8.216033 -0.132536,-0.277949 -0.262329,-0.583653 -0.390674,-0.90227 z m 41.23831,0 h 38.54907 c -0.621,1.424474 -1.3647,2.65942 -2.24689,3.723803 -0.73458,0.886271 -1.56311,1.657578 -2.49494,2.324406 -1.83048,1.309954 -4.05292,2.225974 -6.72724,2.847884 -4.57408,1.0637 -6.78646,2.04675 -7.8605,3.7915 h -19.2195 z M 61.087633,106.5948 c 4.366352,7.01192 10.0106,13.10533 16.000057,17.60564 -6.454659,5.89528 -15.512042,11.88147 -25.837182,16.90491 -10.32208,5.02197 -10.64227,4.93973 -17.584973,-4.55114 -3.200522,-4.37521 -5.985197,-8.57216 -6.188253,-9.32656 -0.608831,-2.26233 2.582593,-4.20542 8.336959,-5.07566 10.387454,-1.57096 19.196192,-7.33519 25.273392,-15.55719 z m 79.031357,0.83282 c 1.59257,2.0716 -0.63027,0.0752 1.28633,1.81739 6.35236,5.77415 15.8555,12.44926 23.4455,13.62559 6.41196,0.99372 8.76122,2.12747 8.76122,4.22817 0,0.8772 -2.70605,5.32528 -6.01359,9.88467 -5.25195,7.23972 -6.32487,8.28941 -8.46925,8.28941 -3.61792,0 -19.68755,-8.2619 -28.30163,-14.55105 -2.64827,-1.93349 -5.0228,-3.89164 -7.11739,-5.85183 5.94193,-4.47628 11.79064,-10.50817 16.40881,-17.44235 z m -61.514486,3.22299 h 19.683037 v 11.51196 c -16.081996,0.64301 -17.491239,-0.70755 -18.552873,-4.66897 h 0.001 c -0.498931,-1.86178 -0.937092,-4.58086 -1.131197,-6.84299 z m 23.878646,0 h 18.25625 c -0.0628,1.33529 -0.0499,2.91156 -0.0579,4.83691 -0.74393,8.48757 -10.25013,6.65539 -18.19837,6.53139 z m -19.63136,16.59604 1.500684,1.07797 c 4.447536,3.19475 7.13056,4.75971 12.357902,5.45031 7.759134,1.02509 12.186384,-0.0208 18.937344,-4.86998 l 1.50017,-1.07797 -0.0755,6.37945 c -0.065,7.14236 0.76383,15.62209 -5.88026,19.82877 -4.63779,2.52424 -8.26532,2.55393 -11.03964,2.49183 -5.245788,0.002 -8.940641,-0.09 -12.492774,-2.54661 -5.116073,-4.17502 -4.911614,-13.72659 -4.732528,-20.35483 z m -50.888366,37.03738 c -6.343953,0 -7.135454,0.2077 -10.255188,2.69027 -1.859401,1.47962 -4.297175,4.4487 -5.417241,6.59805 -5.081345,9.75073 0.686096,21.95411 11.652519,24.65483 3.952915,0.9735 9.232653,0.0491 13.392464,-2.34405 4.433239,-2.55049 8.222754,-9.40315 8.222754,-14.86989 0,-4.71895 -3.114851,-10.67706 -7.339604,-14.03894 -3.119732,-2.48257 -3.911744,-2.69027 -10.255704,-2.69027 z" />
</svg>
