<?xml version="1.0" encoding="UTF-8" standalone="no"?>
<svg
   id="svg8"
   version="1.1"
   viewBox="0 0 200 200"
   height="200mm"
   width="200mm"
   xmlns="http://www.w3.org/2000/svg"
   xmlns:svg="http://www.w3.org/2000/svg">
  <defs
     id="defs8" />
  <path
     id="path246"
     style="stroke-width:0.87975"
     d="M 87.094425 1.4319539 C 85.090092 1.4474862 83.097551 1.599149 81.138717 1.8939412 C 67.521241 3.9432826 53.922514 13.592685 47.934542 25.454777 C 45.300026 30.673744 45.069144 30.875586 40.649715 31.823381 C 30.810525 33.933504 21.685601 41.402421 17.166394 51.04443 C 15.127657 55.394188 14.808398 57.20555 14.808398 64.432243 C 14.808398 71.75011 15.115611 73.44681 17.277498 78.06862 C 18.635469 80.971801 20.812688 84.464886 22.115963 85.831453 C 24.45323 88.282248 24.461775 88.33334 22.726261 89.581612 C 18.070951 92.929944 13.16355 98.74819 10.600387 103.95748 C 8.006809 109.22858 7.772244 110.40771 7.792806 118.08168 C 7.8132827 125.70188 8.0711506 126.9823 10.662398 132.32112 C 17.07207 145.52714 32.126971 153.4742 45.819425 150.87968 C 48.60163 150.3525 51.472049 149.68614 52.197847 149.39915 C 53.136228 149.02805 54.236724 150.25627 56.006917 153.64954 C 57.376077 156.27411 60.950695 160.77806 63.950618 163.65874 C 71.392143 170.80447 79.435982 174.73049 89.500997 176.12878 C 103.55365 178.08109 118.30231 172.71732 128.10174 162.09036 L 133.47557 156.26281 L 139.57753 159.39389 C 145.32645 162.34347 146.17123 162.52445 154.16165 162.52445 C 161.94817 162.52445 163.11819 162.29076 168.43571 159.67294 C 175.41153 156.23875 181.58938 149.94647 184.88174 142.92203 C 186.92248 138.56798 187.23973 136.76355 187.23973 129.50166 C 187.23973 121.84449 186.99547 120.61866 184.44352 115.46995 L 181.64731 109.82844 L 184.33138 106.77126 C 188.32195 102.22624 192.67405 92.445886 193.8755 85.322957 C 195.82444 73.768217 192.68765 61.121042 185.42641 51.257336 C 181.35267 45.723546 172.92871 38.863976 168.03212 37.093343 C 165.88073 36.315399 164.775 35.090196 163.54867 32.125171 C 161.2719 26.620475 153.67421 19.130543 147.50004 16.303914 C 141.39863 13.510594 130.90005 12.572025 124.81357 14.276131 C 120.93645 15.361653 120.86239 15.341482 117.11947 12.13311 C 109.08295 5.2443304 97.917825 1.3480798 87.094425 1.4319539 z M 102.48315 33.858915 C 115.68043 34.168704 129.02831 40.502621 138.06702 54.161035 C 138.47355 54.775337 138.84158 55.356024 139.19254 55.924235 L 102.48315 55.924235 L 102.48315 33.858915 z M 98.287541 33.961751 L 98.287541 55.924235 L 63.657096 55.924235 C 70.762983 42.850818 84.163004 34.991477 98.287541 33.961751 z M 61.673238 60.118811 L 98.287541 60.118811 L 98.287541 72.049349 L 58.685824 72.049349 C 59.159575 67.754513 60.187117 63.768085 61.673238 60.118811 z M 102.48315 60.118811 L 141.43374 60.118811 C 142.8673 63.435889 143.4077 66.764305 143.55455 72.049349 L 102.48315 72.049349 L 102.48315 60.118811 z M 58.404704 76.243925 L 98.287541 76.243925 L 98.287541 89.573861 L 84.648063 89.573861 C 85.78966 88.908272 86.429867 87.273191 86.429867 84.893009 C 86.429867 84.613319 86.413862 84.345172 86.387492 84.085307 C 86.113008 81.384944 84.473685 79.776958 82.693144 79.771358 C 81.547164 79.767536 80.344898 80.429643 79.411174 81.885958 C 79.390724 81.917928 79.369392 81.947269 79.349162 81.980009 C 77.721932 84.612936 79.186765 88.432755 81.787773 89.573861 L 59.941044 89.573861 C 58.997944 85.739555 58.371264 81.079764 58.387134 77.301742 C 58.388594 76.946936 58.395704 76.595064 58.404704 76.243925 z M 102.48315 76.243925 L 143.59692 76.243925 C 143.57568 81.657259 143.20161 86.037195 142.37994 89.573861 L 120.77196 89.573861 C 121.89374 88.902248 122.54136 87.247373 122.54136 84.893009 C 122.54136 81.77226 121.4047 79.877812 119.53224 79.877812 C 117.6598 79.877812 116.5226 81.77226 116.5226 84.893009 C 116.5226 87.247373 117.17066 88.902248 118.29252 89.573861 L 102.48315 89.573861 L 102.48315 76.243925 z M 61.24484 93.768437 L 98.287541 93.768437 L 98.287541 106.45603 L 78.729045 106.45603 C 79.088041 104.49567 79.238238 103.72129 73.673022 102.88674 C 66.238863 101.77192 64.434585 100.54041 61.635514 94.670707 C 61.502978 94.392758 61.373185 94.087054 61.24484 93.768437 z M 102.48315 93.768437 L 141.03222 93.768437 C 140.41122 95.192911 139.66752 96.427857 138.78533 97.49224 C 138.05075 98.378511 137.22222 99.149818 136.29039 99.816646 C 134.45991 101.1266 132.23747 102.04262 129.56315 102.66453 C 124.98907 103.72823 122.77669 104.71128 121.70265 106.45603 L 102.48315 106.45603 L 102.48315 93.768437 z M 64.062756 103.43193 C 68.429108 110.44385 74.073356 116.53726 80.062813 121.03757 C 73.608154 126.93285 64.550771 132.91904 54.225631 137.94248 C 43.903551 142.96445 43.583361 142.88221 36.640658 133.39134 C 33.440136 129.01613 30.655461 124.81918 30.452405 124.06478 C 29.843574 121.80245 33.034998 119.85936 38.789364 118.98912 C 49.176818 117.41816 57.985556 111.65393 64.062756 103.43193 z M 136.12812 103.50066 C 137.72069 105.57226 139.48872 107.50279 141.40532 109.24501 C 147.75768 115.01916 153.26995 117.76731 160.85995 118.94364 C 167.27191 119.93736 169.62117 121.07111 169.62117 123.17181 C 169.62117 124.04901 166.91512 128.49709 163.60758 133.05648 C 158.35563 140.2962 157.28271 141.34589 155.13833 141.34589 C 151.52041 141.34589 135.45078 133.08399 126.8367 126.79484 C 124.18843 124.86135 121.8139 122.9032 119.71931 120.94301 C 125.66124 116.46673 131.50995 110.43484 136.12812 103.50066 z M 78.604504 110.65061 L 98.287541 110.65061 L 98.287541 122.16257 C 82.205545 122.80558 80.796302 121.45502 79.734668 117.4936 L 79.735701 117.4936 C 79.23677 115.63182 78.798609 112.91274 78.604504 110.65061 z M 102.48315 110.65061 L 120.7394 110.65061 C 120.6766 111.9859 120.68952 113.56217 120.68152 115.48752 C 119.93759 123.97509 110.43139 122.14291 102.48315 122.01891 L 102.48315 110.65061 z M 82.85179 123.04882 L 84.352474 124.12679 C 88.800031 127.32151 91.483034 128.8865 96.710376 129.5771 C 104.46951 130.60219 108.89676 129.55635 115.64772 124.70712 L 117.14789 123.62915 L 117.07244 130.0086 C 117.00741 137.15096 117.83627 145.63069 111.19218 149.83737 C 106.55439 152.36161 102.92686 152.3913 100.15254 152.3292 C 94.906752 152.33084 91.211899 152.2392 87.659766 149.78259 C 82.543693 145.60757 82.748152 136.056 82.927238 129.42776 L 82.85179 123.04882 z M 31.963424 164.28403 C 25.619471 164.28403 24.82797 164.49173 21.708236 166.9743 C 19.848835 168.45392 17.411061 171.423 16.290995 173.57235 C 11.20965 183.32308 16.977091 195.52646 27.943514 198.22718 C 31.896429 199.20068 37.176167 198.27632 41.335978 195.88313 C 45.769217 193.33264 49.558732 186.47998 49.558732 181.01324 C 49.558732 176.29429 46.443881 170.33618 42.219128 166.9743 C 39.099396 164.49173 38.307384 164.28403 31.963424 164.28403 z " />
</svg>
