<?xml version="1.0" encoding="UTF-8" standalone="no"?>
<svg
  width="100%"
  height="100%"
  viewBox="0 0 52.91667 52.916669"
  version="1.1"
  id="svg8"
  xmlns="http://www.w3.org/2000/svg"
>
  <defs
     id="defs6" />
  <path
     d="M 34.000549,1.317616 H 11.373905 c -2.7654817,0 -5.0281457,2.2626644 -5.0281457,5.0281434 V 46.570907 c 0,2.765482 2.262664,5.028146 5.0281457,5.028146 h 30.168859 c 2.765482,0 5.028146,-2.262664 5.028146,-5.028146 V 13.887973 Z M 11.373905,46.570907 V 6.3457594 H 31.486481 V 16.402046 h 10.056283 v 30.168861 z"
     id="path4"
     style="stroke-width:2.51407" />
  <path
     style="stroke-width:0.099196"
     d="m 22.589694,38.213079 v -6.745338 h 1.934323 1.934327 v -1.934327 -1.934323 h 1.934324 1.934325 v 8.679662 8.679661 h -3.868649 -3.86865 z m 6.695739,3.769451 v -1.636734 h -2.827089 -2.827092 l -0.01743,1.52387 c -0.0096,0.838129 0.0066,1.586507 0.03599,1.663061 0.04442,0.115769 0.523066,0.134759 2.844505,0.112864 l 2.791092,-0.02632 z M 22.589694,25.56557 v -1.934327 h 1.934323 1.934327 v -1.934322 -1.934327 h 1.934324 1.934325 v 1.934327 1.934322 h -1.934325 -1.934324 v 1.934327 1.934323 h -1.934327 -1.934323 z m 0,-7.836494 V 15.79475 h 1.934323 1.934327 v -1.934323 -1.934326 h 1.934324 1.934325 v 1.934326 1.934323 h -1.934325 -1.934324 v 1.934326 1.934323 h -1.934327 -1.934323 z m -7e-6,-7.8116963 7e-6,-1.959124 h 1.936423 1.936421 l -0.0269,1.938826 -0.0269,1.9388293 -1.909532,0.02028 -1.90953,0.02028 z"
     id="path1167" />
</svg>
