<?xml version="1.0" encoding="UTF-8" standalone="no"?>
<!--
  #%L
  Kendo Tournament Manager (Core)
  %%
  Copyright (C) 2021 - 2025 Softwaremagico
  %%
  This program is free software: you can redistribute it and/or modify
  it under the terms of the GNU Affero General Public License as published by
  the Free Software Foundation, either version 3 of the License, or
  (at your option) any later version.
  
  This program is distributed in the hope that it will be useful,
  but WITHOUT ANY WARRANTY; without even the implied warranty of
  MERCHANTABILITY or FITNESS FOR A PARTICULAR PURPOSE.  See the
  GNU General Public License for more details.
  
  You should have received a copy of the GNU Affero General Public License
  along with this program.  If not, see <http://www.gnu.org/licenses/>.
  #L%
  -->

<svg
   id="svg8"
   version="1.1"
   viewBox="0 0 370 370"
   height="370mm"
   width="370mm"
   xmlns="http://www.w3.org/2000/svg"
   xmlns:svg="http://www.w3.org/2000/svg">
  <circle
     style="stroke:none;stroke-width:0.133672;stop-color:#000000"
     id="path863"
     cx="184.57697"
     cy="184.57697"
     r="184.57697" />
  <path
     id="path1250"
     style="stroke-width:3.77953;stroke-linecap:round;-inkscape-stroke:none"
     d="M 697.61133 159.41211 C 401.01767 159.41211 159.41211 401.01767 159.41211 697.61133 C 159.41214 994.20499 401.01767 1235.8164 697.61133 1235.8164 C 994.20499 1235.8164 1235.8164 994.20499 1235.8164 697.61133 C 1235.8164 401.01767 994.20499 159.41214 697.61133 159.41211 z M 697.61133 268.91406 C 935.02254 268.91408 1126.3145 460.20015 1126.3145 697.61133 C 1126.3144 935.0225 935.0225 1126.3144 697.61133 1126.3145 C 460.20015 1126.3145 268.91408 935.02254 268.91406 697.61133 C 268.91406 460.20012 460.20012 268.91406 697.61133 268.91406 z M 634.77734 301.28711 C 584.28841 300.59108 536.80473 337.65038 571.10156 396.85547 C 599.2149 434.6233 637.32508 460.95924 679.54883 479.9375 C 679.57528 491.53472 677.83277 507.95927 669.09375 519.33398 C 666.3102 523.65701 629.10634 579.69033 580.13867 581.14258 C 486.82104 565.46672 559.78644 470.46926 549.11914 424.2168 C 485.80381 355.30882 403.753 450.02734 407.73242 519.93359 C 412.48741 579.1916 372.21496 645.86164 417.31641 698.66406 C 449.95694 747.15612 515.36049 776.60726 524.50195 837.50781 C 547.32195 908.45007 541.56825 982.59103 528.31836 1054.707 C 528.17081 1061.4383 527.94571 1068.1718 527.67188 1074.9082 A 414.06247 414.06247 0 0 0 582.28906 1095.082 A 10.440719 10.440719 0 0 1 588.85938 1077.416 L 714.72656 1058.293 L 588.0957 1022.7832 A 10.440719 10.440719 0 0 1 584.33984 1021.1211 A 10.440719 10.440719 0 0 1 584.15039 1020.9961 A 10.440719 10.440719 0 0 1 583.75781 1020.6797 A 10.440719 10.440719 0 0 1 583.31836 1020.3125 A 10.440719 10.440719 0 0 1 583.125 1020.127 A 10.440719 10.440719 0 0 1 582.55078 1019.541 A 10.440719 10.440719 0 0 1 589.57617 1002.1562 L 685.84961 987.53125 L 583.39062 958.80078 A 10.440717 10.440717 0 0 1 579.40234 957 A 10.440717 10.440717 0 0 1 579.04883 956.71484 A 10.440719 10.440719 0 0 1 584.91992 938.15234 L 690.42188 922.12305 L 570.6582 888.54102 A 10.440719 10.440719 0 0 1 573.20117 868.01758 L 573.20508 868.02148 A 10.440719 10.440719 0 0 1 576.29883 868.45117 L 740.55664 914.50977 L 850.45508 897.81445 A 10.440717 10.440717 0 0 1 852.22852 897.67578 A 10.440717 10.440717 0 0 1 853.58984 918.45898 L 789.4082 928.21094 L 854.83984 946.55859 A 10.440719 10.440719 0 0 1 861.04102 962.55273 A 10.440719 10.440719 0 0 1 858.29492 982.45508 L 784.87305 993.60742 L 867.08203 1016.6621 A 10.4419 10.4419 0 0 1 861.44531 1036.7676 L 734.70898 1001.2324 L 639.90234 1015.6348 L 764.86523 1050.6758 L 854.22266 1037.0977 A 10.440719 10.440719 0 0 1 855.98242 1036.9492 A 10.440719 10.440719 0 0 1 857.35938 1057.7305 L 813.69336 1064.3691 L 861.18945 1077.6875 A 414.06247 414.06247 0 0 0 916.125 1048.9883 C 915.30877 1035.057 914.45368 1021.1274 913.49805 1007.2031 C 914.56977 931.68109 882.48722 851.29817 930.96484 784.08789 C 958.97488 727.07417 1018.2207 663.74655 993.70508 583.94141 C 966.29681 518.72112 929.29029 456.47614 882.24609 403.58789 C 827.59488 356.57724 755.4728 334.72616 687.01172 317.60156 C 671.69118 306.73141 653.0393 301.53885 634.77734 301.28711 z M 528.33594 475.60742 C 527.38062 501.76878 506.28214 535.15707 526.125 565.51953 C 550.24288 605.28409 636.99759 593.74395 662.29688 549.77734 L 662.19141 550.25781 C 662.19141 550.25781 685.96096 511.24297 694.76367 486.39258 C 733.8647 502.06567 775.77086 512.09281 816.12109 519.45117 C 892.86357 522.03724 950.04604 592.79779 927.24219 668.22461 C 901.68404 733.08913 848.8874 800.16812 789.01367 830.60938 C 709.23862 866.24823 657.49936 792.49346 586.86914 769.41797 C 509.21489 760.11289 425.18755 697.61842 437.07031 611.72461 C 439.51374 557.50593 484.23535 482.34314 528.33594 475.60742 z M 739.27539 935.82812 L 635.19727 951.63867 L 736.02344 979.91016 L 840.10352 964.09961 L 739.27539 935.82812 z M 763.5625 1071.9863 L 638.30859 1091.0254 L 708.87695 1111.2539 A 414.06247 414.06247 0 0 0 828.48828 1090.1914 L 763.5625 1071.9863 z "
     transform="scale(0.26458333)" />
</svg>
